<svg xmlns="http://www.w3.org/2000/svg" width="690.81" viewBox="0 0 690.81112 868.98043"><g transform="translate(-735.71-25.04)"><path d="m738.21 27.541v546.69c0 163.09 153.52 317.29 342.91 317.29 189.38 0 342.9-154.21 342.9-317.29v-546.69z" fill="#a9abae"/><g stroke="#000" stroke-width="5"><g stroke-linejoin="round"><path d="m738.21 28.22v546.01c0 163.08 153.52 317.29 342.9 317.29v-863.3h-342.9z" fill="#c5301e" stroke-linecap="round"/><g fill-rule="evenodd"><path d="m874.47 219.71l2.627-1.616 5.657 4.445-5.455 3.839z" fill="#fff"/><path d="m911.13 205.17c-5.827 3.922-9.615 10.741-11.921 17.376-1.308 3.762-.894 7.939-.808 11.921.092 4.268.422 8.577 1.414 12.729 1.338 5.597 3.337 11.1 6.06 16.16 2.443 4.544 6.441 8.101 9.09 12.527 1.269 2.119 1.321 5.104 3.233 6.668 3.768 3.082 9.388 4.677 14.14 3.637 5.426-1.187 9.996-5.792 12.931-10.507 9.567-15.368 13.183-34.866 12.12-52.937-.364-6.21-1.95-13.1-6.264-17.578-3.521-3.658-9.08-5.239-14.14-5.657-8.795-.728-18.542.73-25.862 5.657z" fill="#fcc"/></g></g><path d="m1081.12 890.84v-862.62" fill="none" fill-rule="evenodd"/><g stroke-linejoin="round"><g stroke-linecap="round"><path d="m1081.12 317.15v288.25h341.05c1.228-10.331 1.861-20.736 1.861-31.18v-257.08h-342.91z" fill="#2e3273"/><path d="m1081.12 605.41v286.11c0 0 0 0 0 0 177.26 0 323.09-135.09 341.04-286.11h-341.05z" fill="#d69023"/><path d="m798.79688 551.67188a65.55637 101.62666 0 0 0 -58.47657 55.71289C759.3 757.61 904.64 891.52 1081.12 891.52v-166.94-5.01h-.162a65.55637 101.62666 0 0 0 -65.3925 -96.61328 65.55637 101.62666 0 0 0 -41.86333 23.5332 65.55637 101.62666 0 0 0 -61.82617 -68.19531 65.55637 101.62666 0 0 0 -51.71875 39.37696 65.55637 101.62666 0 0 0 -61.35937 -66z" fill="#115f43"/><path d="m738.21 27.541v546.69c0 163.09 153.52 317.29 342.91 317.29 189.38 0 342.9-154.21 342.9-317.29v-546.69z" fill="none"/></g><g fill-rule="evenodd"><path d="m885.28 395.15c-4.603 7.165-10.151 16.343-12.771 22.861-4.379 10.889-7.609 22.557-8 34.29-.823 24.696.464 51.3 12 73.15 7.99 15.13 23.71 24.836 37.15 35.432 11.576 9.128 25.793 14.6 37.15 24 4.255 3.524 11.43 12 11.43 12 0 0 8.599-17.08 13.715-25.14 10.372-16.342 26.439-29.17 34.29-46.861 4.97-11.201 8.181-23.773 7.43-36-.838-13.649-7.361-26.47-13.144-38.861-6.04-12.937-15.933-23.789-22.287-36.574-2.382-4.793-5.195-11.687-7.74-18.289h-89.21z" fill="#a14b36" style="&#10;"/><path d="m925.09 395.15c0 0-22.886 20.969-33.15 32.575-12.24 13.844-25.948 27.24-33.718 44-3.77 8.136-5.884 17.322-5.715 26.288.259 13.766 6.156 26.87 10.287 40 6.04 19.21 14.85 37.453 21.14 56.58 2.168 6.587 4.753 13.13 5.715 20 .211 1.509.944 3.376 0 4.572-8.13 10.3-26.751 2.894-38.29 9.144-4.384 2.375-9.119 5.614-10.858 10.287-.668 1.794.571 5.715.571 5.715l78.29.571 2.286-20.573c0 0-3.073.406-4-.571-7.37-7.771-1.594-21.368-2.857-32-2.295-19.315-1.731-39.512-8.572-57.72-2.23-5.936-6.308-11.06-10.287-16-1.521-1.888-5.143-5.143-5.143-5.143 0 0 9.948-9.531 14.287-14.859 5.105-6.269 10.04-12.802 13.716-20 1.288-2.522 2.857-8 2.857-8 0 0 7.856 28.678 13.716 42.29 12.269 28.501 28.917 54.934 44.576 81.72 6.348 10.861 16.17 20.02 20 32 3.89 12.18 2.286 38.29 2.286 38.29 0 0 10.194.244 14.287 2.857 8.157 5.208 10.313 16.576 17.14 23.431 3.174 3.184 6.555 6.699 10.858 8 3.833 1.159 8.977 2.054 12-.571 3.075-2.67 2.764-7.957 2.286-12-1.252-10.584-8.361-19.622-13.144-29.15-3.521-7.01-4.928-16.183-11.43-20.573-1.273-.86-4.572-.571-4.572-.571 0 0 .878-8.475 0-12.573-4.286-20.01-17.871-36.878-25.15-56.01-6.318-16.613-14.4-33.16-16-50.862-.554-6.118 4.141-12.431 2.286-18.288-3.42-10.799-15.11-16.882-22.859-25.15-11.06-11.793-26.12-20.592-33.718-34.861-6.868-12.893-9.144-42.861-9.144-42.861z" fill="#2e3273"/></g></g><g stroke-linecap="round"><g fill="none" fill-rule="evenodd"><path d="m921.66 624.32c0 0-8.956 1.559-13.43 1.144-4.625-.429-9.09-2.049-13.43-3.715-1.789-.688-5.143-2.573-5.143-2.573"/><path d="m1029.67 635.75c0 0-4.267 2.104-6.572 2.573-6.536 1.331-20 .571-20 .571"/></g><path d="m836.22 317.72v109.76a25.573921 11.21538 0 0 0 -18.14453 -3.32032 25.573921 11.21538 0 0 0 -25.57422 11.21485 25.573921 11.21538 0 0 0 25.57422 11.21484 25.573921 11.21538 0 0 0 25.3164 -9.71484h.258v-1.5-117.65h-7.43z" fill="#fff" stroke-linejoin="round"/></g><g fill-rule="evenodd"><g stroke-linejoin="round"><path d="m792.5 435.37c0 0 10.577 2.873 16.01 3.073 6.134.225 12.723.447 18.291-2.138 3.904-1.812 9.422-8.829 9.422-8.829" fill="none"/><path d="m854.62 329.28c-2.17-1.804-4.537-3.372-6.951-4.835-2.723-1.651-5.299-4.066-8.462-4.432-2.411-.279-5.117.348-7.05 1.813-.96.727-1.442 1.978-1.813 3.123-1.021 3.146-.074 6.699-1.01 9.872-.627 2.132-2.478 3.788-3.02 5.943-.345 1.368-.478 2.872-.101 4.231.553 1.993 1.52 4.227 3.324 5.238 5.449 3.053 12.654-1.119 18.737.302 2.135.499 3.755 2.674 5.943 2.821 4.291.287 10.279-.127 12.29-3.929 1.932-3.653-1.401-8.342-3.526-11.887-2.01-3.361-5.348-5.756-8.361-8.26z" fill="#fcc"/><path d="m868.16 226.8l-59.12 63.965 7.835 7.693 59.55-65.39z" fill="#fff"/><path d="m854.31 292.21c-2.778-1.085-5.331-2.958-7.253-5.238-2.264-2.687-1.837-7.341-4.634-9.469-.87-.662-2.209-.197-3.224-.604-3.647-1.465-8-2.991-9.872-6.447-1.471-2.717-2.244-7.145 0-9.268.88-.832 2.772 1.059 3.626.201.807-.81-.967-2.575-.201-3.425.99-1.099 3.323.776 4.432-.201 1.621-1.429-.725-5.239 1.105-6.388.977-.613 2.325 1.519 3.327.948 2.053-1.168-.287-5.769 1.813-6.85 2.362-1.215 5.279 1.296 7.454 2.821 4.641 3.253 9.238 7.535 11.08 12.894.918 2.67-1.289 5.781-.403 8.462.599 1.813 2.563 2.847 3.626 4.432 1.021 1.522 2.293 3.03 2.619 4.835.603 3.337.522 7.287-1.41 10.07-1.524 2.198-4.425 3.326-7.05 3.828-1.661.318-3.462.011-5.04-.604z" fill="#fcc"/><path d="m841.67 276.8c0 0 4.72.577 6.268-.855.821-.759-.229-2.674.712-3.277.738-.472 1.814 1.021 2.564.57 1.224-.736-.121-3.459 1.14-4.131.795-.424 1.724 1.18 2.564.855 1.269-.491.772-2.965 1.994-3.562 1.123-.548 3.704.57 3.704.57" fill="none" stroke-linecap="round"/></g><g fill="none" stroke-linecap="round"><path d="m832.83 261.98l14.246 11.967"/><path d="m838.25 257.71l13.534 12.394"/><path d="m841.81 251.73l14.816 14.816"/></g><path d="m837.11 203.57l45.3 42.739 9.402-12.252c0 0-10.623-9.789-16.668-13.676-11.521-7.409-36.898-18.09-36.898-18.09z" fill="#fff" stroke-linejoin="round"/><path d="m887.28 395.15h83.21c0 0 .154-8.02.595-12 1.971-17.774 7.517-35.05 9.144-52.862.797-8.727 1.835-17.663.286-26.288-1.316-7.33-3.997-14.58-8-20.859-2.209-3.465-5.136-6.605-8.572-8.858-3.403-2.231-7.431-3.533-11.43-4.286-6.927-1.305-14.15-1.119-21.14-.286-4.198.5-8.419 1.438-12.287 3.143-6.04 2.664-11.687 6.415-16.573 10.858-4.061 3.693-6.455 8.929-10.287 12.858-1.652 1.694-3.207 3.761-5.429 4.572-1.432.522-3.223.71-4.572 0-8.486-4.467-16.287-23.717-16.287-23.717l-21.431 12c0 0 9.332 15.275 14.859 22.288 4.339 5.505 14.287 15.43 14.287 15.43l-20.573-2c0 0 .171 9.546-.286 14.287-.427 4.427-2.286 13.144-2.286 13.144 0 0 18.519 2.92 27.431 5.715 4.642 1.456 11.02 1.49 13.43 5.715 5.193 9.09-4.088 31.14-4.088 31.14z" fill="#2e3273"/><g stroke-linejoin="round"><g fill="none" stroke-linecap="round"><path d="m873.65 327.15c0 0 17.809 6.654 27.15 8 2.545.367 5.401 1.121 7.715 0 6.225-3.02 9.773-10.1 12.858-16.287 2.68-5.376 4.572-17.43 4.572-17.43"/><path d="m891.37 364.01c0 0 20.962 5.708 31.717 6.858 3.599.385 7.489 1.323 10.858 0 6.775-2.661 11.667-9.01 16-14.859 4.921-6.639 10.858-22.288 10.858-22.288"/></g><path d="m936.8 230.85c-1.303 7.52-8.241 12.943-11.144 20-3.235 7.865-8.428 16.216-6.858 24.574.088.468.434.924.857 1.143 2.961 1.534 6.71-.257 10 .286 3.835.633 7.263 3.221 11.144 3.429 6.491.347 14.12.407 19.14-3.715 4.856-3.981 4.653-11.666 7.144-17.43 4.108-9.509 11.254-18.06 12.858-28.29 1.664-10.61-4.903-21.33-3.715-32 .86-7.724 7.819-14.231 7.715-22-.029-2.14-.652-4.618-2.286-6-1.112-.941-2.83-.906-4.286-.857-14.594.486-28.857 5.703-42.29 11.43-9 3.838-17.928 8.538-25.15 15.14-3.218 2.946-6.778 6.312-7.715 10.572-.417 1.897-.231 4.341 1.143 5.715 1.374 1.374 3.798 1.46 5.715 1.143 2.063-.341 3.402-2.63 5.429-3.143 3.141-.794 6.697-.893 9.715.286 4.465 1.744 8.516 5.247 10.858 9.429 1.698 3.03 2.308 6.862 1.714 10.287z" fill="#fff"/></g><g fill="none" stroke-linecap="round"><path d="m903.05 254.87c0 0 2.689.185 3.839.808 1.507.817 2.053 2.981 3.637 3.637 1.493.619 3.238.133 4.849 0 .817-.068 2.425-.404 2.425-.404"/><path d="m913.36 253.05c0 0-2.769-1.959-3.435-3.435-.888-1.968-1.076-4.413-.404-6.466.491-1.5 2.304-2.236 3.03-3.637.836-1.609 1.414-5.253 1.414-5.253"/><path d="m919.42 227.19c0 0-.497 2.919 0 4.243.504 1.34 1.508 2.68 2.829 3.233 1.058.443 3.435-.202 3.435-.202"/><path d="m905.48 226.99c0 0-.493 2.285-.404 3.435.097 1.254.075 2.796 1.01 3.637.914.822 3.637.606 3.637.606"/><path d="m900.58 419.74c0 0-.662 13.627.808 20.21 1.132 5.066 3.107 10.08 6.06 14.346 2.115 3.055 4.631 6.3 8.08 7.678 2.564 1.024 5.71.999 8.284 0 2.977-1.156 5.436-3.722 7.07-6.466 2.844-4.771 4.04-16.16 4.04-16.16" stroke-linejoin="round"/></g></g></g></g></svg>
