<?xml version="1.0" encoding="UTF-8" standalone="no"?>
<svg
   xmlns:dc="http://purl.org/dc/elements/1.1/"
   xmlns:cc="http://creativecommons.org/ns#"
   xmlns:rdf="http://www.w3.org/1999/02/22-rdf-syntax-ns#"
   xmlns:svg="http://www.w3.org/2000/svg"
   xmlns="http://www.w3.org/2000/svg"
   xmlns:sodipodi="http://sodipodi.sourceforge.net/DTD/sodipodi-0.dtd"
   xmlns:inkscape="http://www.inkscape.org/namespaces/inkscape"
   data-name="Ebene 1"
   viewBox="0 0 441.01183 510.63256"
   version="1.1"
   sodipodi:docname="Bressanone-Stemma.svg"
   inkscape:version="1.0.2-2 (e86c870879, 2021-01-15)"
   width="441.01184"
   height="510.63257"
   id="svg13">
  <metadata
     id="metadata15">
    <rdf:RDF>
      <cc:Work
         rdf:about="">
        <dc:format>image/svg+xml</dc:format>
        <dc:type
           rdf:resource="http://purl.org/dc/dcmitype/StillImage" />
        <dc:title></dc:title>
      </cc:Work>
    </rdf:RDF>
  </metadata>
  <sodipodi:namedview
     id="namedview29"
     pagecolor="#505050"
     bordercolor="#eeeeee"
     borderopacity="1"
     inkscape:pageshadow="0"
     inkscape:pageopacity="0"
     inkscape:pagecheckerboard="0"
     showgrid="false"
     showguides="true"
     inkscape:guide-bbox="true"
     inkscape:snap-midpoints="true"
     inkscape:snap-smooth-nodes="true"
     inkscape:snap-intersection-paths="true"
     inkscape:object-paths="true"
     inkscape:snap-global="true"
     inkscape:zoom="0.68973454"
     inkscape:cx="-202.05512"
     inkscape:cy="120.71678"
     inkscape:window-width="1920"
     inkscape:window-height="986"
     inkscape:window-x="-11"
     inkscape:window-y="-11"
     inkscape:window-maximized="1"
     inkscape:current-layer="g950"
     fit-margin-top="5"
     lock-margins="true"
     fit-margin-left="5"
     fit-margin-right="5"
     fit-margin-bottom="5"
     inkscape:document-rotation="0" />
  <defs
     id="defs4">
    <clipPath
       id="clip0">
      <rect
         x="-202"
         y="177"
         width="403"
         height="402"
         id="rect101" />
    </clipPath>
  </defs>
  <g
     id="g857"
     inkscape:groupmode="layer"
     inkscape:label="moos_in_passeier"
     transform="translate(8.031127,5.316293)">
    <g
       id="g950"
       inkscape:label="coa"
       transform="scale(4.3786671)">
      <path
         d="M 0.13,0.67 H 97 V 68.016737 C 97,70.581469 96.567052,113.52 48.564999,113.52 0.56294673,113.52 0.0469534,70.581467 0.05,68.016737 Z"
         id="path5356"
         style="fill:#ff0000;fill-opacity:1;stroke:none;stroke-width:1.48447;stroke-miterlimit:4;stroke-dasharray:none"
         inkscape:label="coa-0"
         sodipodi:nodetypes="ccszsc" />
      <g
         id="g7781"
         inkscape:label="trimount" />
      <path
         d="M 0.13,0.67 H 97 V 68.016737 C 97,70.581469 96.567052,113.52 48.564999,113.52 0.56294673,113.52 0.0469534,70.581467 0.05,68.016737 Z"
         id="path2187"
         style="fill:none;fill-opacity:1;stroke:#000000;stroke-width:1.48447;stroke-miterlimit:4;stroke-dasharray:none"
         inkscape:label="coa-f"
         sodipodi:nodetypes="ccszsc" />
      <path
         d="M 26.497465,15.044932 A 15.347416,15.139865 0 0 0 11.150235,30.184796 15.347416,15.139865 0 0 0 26.497465,45.324662 15.347416,15.139865 0 0 0 41.844883,30.184796 15.347416,15.139865 0 0 0 26.497465,15.044932 Z m 0,2.259577 A 13.056795,12.880288 0 0 1 39.554642,30.184796 13.056795,12.880288 0 0 1 26.497465,43.065482 13.056795,12.880288 0 0 1 13.440664,30.184796 13.056795,12.880288 0 0 1 26.497465,17.304509 Z"
         fill="#eac102"
         stroke="#000000"
         stroke-linecap="round"
         stroke-linejoin="round"
         id="path73"
         style="stroke-width:0.198994" />
      <g
         transform="matrix(0.16513919,0,0,0.17380936,222.41506,-33.380269)"
         id="g97">
        <path
           d="m -991.17,574.32 c -2.6225,12.878 0.0626,25.096 1.9451,37.29 1.476,9.5293 1.7822,19.929 -1.691,28.608 -3.8053,9.2264 -12.69,15.081 -20.707,19.828 -3.512,2.0851 -6.3496,4.1605 -8.0177,7.4836 -1.3357,2.6715 -1.0034,6.6657 -2.4565,9.8877 -0.05,0.0886 -0.1277,0.17463 -0.2006,0.25281 -1.3488,1.7431 -2.8509,2.7987 -4.2257,3.8053 -1.3618,1.0165 -2.4956,1.9972 -3.486,3.3069 l 0.6225,0.7264 c 0.3419,0 0.6742,0.12771 0.9283,0.36827 3.3851,2.8409 7.2295,2.9548 11.771,2.4075 l 1.5669,-1.0326 c -0.508,-3.32 0.4824,-6.2716 2.3035,-9.2004 0.5472,-0.76236 1.9708,-0.54733 2.2513,0.35498 0.3712,1.5802 1.1466,2.9681 1.8958,3.7174 0.3717,0.38104 0.8015,0.59945 1.059,0.68729 0.2424,0.0886 0.329,0.026 0.43,-0.0391 1.8213,-0.87625 2.9809,-3.3067 3.8835,-6.4507 0.9023,-3.1568 1.515,-6.796 3.1698,-9.5066 5.7015,-9.3794 14.036,-16.609 21.672,-23.926 3.639,-3.486 8.2587,-4.7336 11.81,-6.0433 1.3358,-0.4986 1.7822,-0.96774 2.0851,-1.5151 0.29322,-0.56036 0.48556,-1.4009 0.56036,-2.4956 0.23197,-3.284 -0.76235,-6.6037 -1.4627,-10.22 -2.0624,-10.751 -0.88955,-22.105 1.8341,-30.833 v -0.11729 c 3.2939,-10.181 11.351,-17.241 17.218,-25.197 l 8.2326,-15.944 c -22.45,-25.874 -49.315,-5.7144 -53.003,23.796 z"
           fill="#f5f5f5"
           stroke-width="3.2579"
           id="path75" />
        <path
           d="m -950.8,546.65 c -6.6821,2.5574 -13.361,3.7401 -20.476,4.4926 -4.926,0.4952 -9.5945,7.4445 -14.266,8.7802 -2.1111,1.3258 -2.9256,11.657 -4.7078,13.465 -1.7822,4.2257 -1.427,8.5913 -1.3488,13.605 -0.58642,-6.783 14.061,19.662 25.376,22.232 0.46914,-10.103 2.3522,-20.756 8.793,-28.94 3.6001,-5.2682 8.399,-9.7477 11.403,-15.397 0.72665,-1.9873 7.1641,-15.716 4.786,-15.159 -3.1701,-2.4174 -6.3399,-4.5025 -9.5457,-3.0786 z"
           fill="#c3c7c8"
           stroke-width="3.2579"
           id="path77" />
        <path
           d="m -1029.2,685.25 c -0.2799,0.026 -0.5604,0.12771 -0.8663,0.30624 -1.6032,1.502 -2.3295,3.7922 -3.2709,5.7373 -1.1339,3.3622 -2.0624,6.8091 -2.5316,10.334 -0.078,1.7462 1.9092,2.1534 3.2939,2.0491 0.8535,0.0521 1.7593,-0.46914 1.7332,0.73968 0.4952,2.0851 2.7463,3.4599 4.7957,2.6845 5.8056,-1.642 10.334,-6.4768 12.497,-12.002 0.6516,-1.3097 0.6385,-2.7987 -0.3553,-3.9682 -0.7884,-1.2219 -1.0196,-3.1049 -2.8245,-3.082 -3.4241,-0.0886 -7.0761,0.31929 -10.054,-1.7788 -0.7397,-0.43344 -1.5541,-1.0068 -2.4304,-1.0068 z"
           fill="#f5f5f5"
           stroke="#000000"
           stroke-width="2.4092"
           id="path79" />
        <g
           stroke-width="3.2579"
           id="g95">
          <path
             d="m -962,548.2 c -4.0724,1.3097 -8.5032,2.1633 -12.523,1.6519 -3.4633,2.2936 -7.8777,1.0947 -11.53,5.1311 -4.4665,7.5454 -4.6849,11.67 -6.2357,19.114 -2.7234,13.185 0,25.604 1.8831,37.746 1.4629,9.4154 1.7952,19.609 -1.5409,27.92 -3.6001,8.7443 -12.217,14.507 -20.196,19.241 -3.5641,2.1143 -6.6949,4.3036 -8.5258,7.9689 -1.554,3.1307 -1.248,7.1771 -2.4566,9.8877 -2.4564,3.1928 -5.5744,4.1475 -7.8255,7.1382 -4.5319,6.0598 -5.9586,14.573 -6.923,20.962 l 5.9162,0.35499 c 0.4595,3.6262 3.1831,4.3265 5.7665,3.6163 3.3721,-0.94141 6.0046,-2.6095 8.5752,-4.877 3.323,-3.0789 5.2192,-6.8972 6.3529,-11.237 -0.8048,-0.99042 -1.287,-2.1633 -1.8604,-3.284 -1.616,-4.0951 -0.7133,-7.2391 1.502,-10.79 0.8273,3.5871 3.3849,6.0566 5.128,5.2161 4.8248,-2.3522 4.6458,-11.693 7.5485,-16.453 5.5743,-9.1517 13.807,-16.342 21.483,-23.685 3.3458,-3.2058 7.7474,-4.4537 11.39,-5.7764 3.0398,-1.1338 3.2809,-2.8506 3.4339,-5.092 0.25542,-3.5741 -0.81449,-7.0241 -1.489,-10.536 -2.01,-10.5 -0.82753,-21.776 1.8831,-30.289 3.131,-9.7738 11.022,-16.785 17.042,-24.855 3.7662,-5.0271 8.6791,-10.676 7.9525,-16.632 -0.6482,-4.4047 -4.0203,-7.0632 -9.5814,-4.3396 -2.5086,-4.2775 -10.448,-7.7244 -5.4342,-1.1859 -1.642,0.84056 -3.4763,1.642 -5.0662,1.7822 z m 12.279,-0.65158 c 5.8413,-3.9452 9.8746,7.7898 2.5834,16.674 -6.9621,8.5001 -14.775,15.778 -18.085,26.94 -3.3721,11.455 -3.5251,21.444 -1.9321,32.185 0.77539,5.2421 3.8152,10.22 -1.2607,12.116 -4.558,1.7168 -7.6496,2.7984 -11.162,5.8773 -8.3729,7.3564 -16.531,15.185 -22.271,24.754 -2.6717,4.4534 -3.0398,12.598 -5.3204,14.025 -1.4889,0.94167 -2.3521,-3.652 -3.1796,-5.8283 -0.2555,-0.64846 -1.0687,-0.58643 -1.3749,-0.43345 -2.2644,1.0816 -3.3231,4.0985 -4.4407,6.3889 -1.0816,2.0981 -0.9805,4.2614 -0.9805,6.5419 -3.9715,0.97738 -7.0241,0.0261 -10.08,-2.2284 2.6094,-1.9482 5.3821,-3.6132 6.9751,-6.5028 1.6909,-3.0559 1.1176,-6.8351 2.5706,-10.015 1.5638,-3.4503 5.1019,-5.0923 8.2718,-6.9493 4.1995,-2.4565 8.0927,-5.3461 11.696,-8.591 4.1997,-3.7922 6.6171,-6.8841 8.6531,-11.543 3.7044,-9.5814 3.3591,-19.495 1.9094,-28.748 -2.0103,-12.804 -4.1118,-26.19 -1.9094,-38.066 2.9908,-16.149 10.374,-17.739 15.488,-21.046 8.285,-0.0391 16.189,-2.5738 23.848,-5.5385 z m -22.206,68.329 c -1.5802,1.6681 -1.7952,3.1829 -1.8831,5.1671 -0.0652,1.6029 0.32892,3.1698 0.42014,4.7467 0.10169,1.7171 -0.72638,2.7857 -1.629,4.1475 -1.2737,1.9092 -3.1081,3.3979 -4.6719,5.079 -0.95444,1.0425 -1.808,2.1242 -2.2415,3.5381 1.5151,-0.28018 2.7888,-1.1695 4.0497,-2.023 1.9448,-1.3227 3.4078,-3.1049 5.0268,-4.786 1.2445,-1.2836 1.9972,-2.5573 2.1859,-4.0854 0.51162,-3.8931 -0.95106,-7.9916 -1.2443,-11.745 z m -57.219,70.974 c 3.7435,3.118 8.0307,3.3361 12.703,2.7627 0.3158,1.274 1.1173,2.3783 1.7558,3.512 -1.0195,3.9585 -3.0167,6.5289 -5.8676,9.1874 -2.4304,2.2904 -6.949,4.0237 -7.8386,3.0299 -2.9287,-3.2449 0.3422,-10.816 1.7432,-14.266 -3.2189,2.9517 -4.4796,6.8612 -5.154,11.008 l -2.3427,-0.12771 c 0.8146,-5.3461 2.0234,-10.575 4.9881,-15.133 z"
             id="path81" />
          <path
             d="m -1178.2,316.1 c -2.0233,0.10169 -4.1084,0.98051 -5.4212,2.3293 -0.062,0.0755 -0.1407,0.15378 -0.2293,0.21372 -0.3193,0.2059 -0.7397,0.23978 -1.0947,0.11468 -5.6135,-1.8961 -9.4806,-0.88928 -12.077,2.4304 -0.065,0.0912 -0.1408,0.1668 -0.2137,0.23196 -0.1407,0.10169 -0.2932,0.17462 -0.4462,0.21372 -4.3135,1.1598 -7.0893,3.512 -9.0865,6.428 -1.9873,2.9126 -3.1568,6.4637 -3.8704,9.6336 -0.1746,0.63542 -0.9154,1.0556 -1.5508,0.88955 -4.3135,-1.2836 -8.21,0.31927 -12.064,2.7627 -4.4438,2.8245 -8.3763,6.2226 -12.742,8.7539 -4.7075,2.7106 -10.129,3.8053 -14.95,4.3169 1.0296,2.9126 3.0917,4.3005 5.8643,4.9878 0.3454,0.0886 0.6255,0.34221 0.7786,0.6615 2.0102,4.1245 5.7373,5.2549 9.8618,4.7597 0.4071,-0.0521 0.8406,0.12771 1.1077,0.44647 1.844,2.212 3.6911,2.6585 6.3104,2.3162 0.8666,-0.15377 1.7203,0.82439 1.44,1.6649 -0.2319,0.62552 -0.5472,1.5018 -1.44,2.1012 -1.3617,0.90258 -2.3261,2.1893 -3.1046,3.7662 -0.9904,2.0363 -0.9025,4.4277 -0.9904,7.0893 0,0.36828 -0.1668,0.74932 -0.4465,0.99041 -1.5018,1.3522 -2.3553,3.0168 -3.2089,4.9781 -0.8505,1.9482 -0.7754,4.0985 -0.6745,6.5419 -0.026,0.28019 -0.1408,0.56037 -0.3289,0.77539 -1.655,2.2383 -2.3427,4.7209 -2.3296,7.3043 0.026,1.9482 0.5213,3.9064 1.1207,5.9816 0.088,0.33231 0.05,0.70059 -0.1146,0.9938 -2.1013,3.5511 -2.1894,7.0241 -1.8863,10.741 0.039,0.30312 -0.05,0.63542 -0.2267,0.88954 -2.3913,3.31 -2.6845,6.9751 -2.6454,11.188 -0.026,0.38104 -0.232,0.76235 -0.5604,0.9904 -1.8831,1.3879 2.7849,3.403 2.1628,4.7031 -1.3357,-3.2058 -0.9143,13.875 -0.9143,13.875 -2.9517,2.7984 0.532,13.202 0.177,17.265 -0.394,23.376 20.614,37.785 29.646,54.959 0.1407,0.26714 0.1773,0.58643 0.1147,0.87964 -0.8666,3.346 -0.6615,6.2096 0.4332,9.4188 0.05,0.17462 0.05,0.36801 0,0.54733 -0.7134,6.3105 0.9416,11.11 5.1019,15.83 l 1.5541,3.2188 c 0.6972,2.929 1.997,4.8478 3.7532,6.2 1.7689,1.3488 4.0724,2.1859 6.985,2.7593 0.4592,0.0912 0.8536,0.44647 0.9935,0.89267 1.7431,7.6856 7.6235,12.191 15.4,13.068 0.3289,0 0.6612,0.17983 0.8762,0.4462 2.7106,3.8183 6.0337,5.4603 10.64,5.8677 0.6615,0.026 1.2349,0.66123 1.2088,1.3227 -0.6484,11.556 0.2033,22.906 2.4435,34.221 0.062,0.29321 0.026,0.61249 -0.1147,0.87964 -1.6159,2.7984 -2.1633,5.6362 -2.1015,8.8681 0.026,2.1143 0.5604,4.2254 1.1077,6.5289 0.7397,3.1568 1.274,6.3756 1.5411,9.6336 0.3289,3.8704 0.2554,7.7377 0,11.517 -0.3583,5.5124 -1.8961,10.754 -2.7627,15.947 -0.9156,5.4832 -1.9972,10.715 -5.9815,14.84 -3.1928,3.3067 -5.7765,5.8153 -7.1904,9.4024 l 1.5541,0.89267 c 1.5378,0.23978 3.1537,-0.15378 4.9748,-0.56037 1.5541,-0.31927 3.1048,-1.2479 4.8738,-2.1015 l 2.3166,-0.99042 c 0.3549,-1.427 1.1207,-2.9157 1.997,-4.0985 0.4334,-0.59946 0.8535,-1.0947 1.5541,-1.44 0.3419,-0.17463 0.8275,-0.34196 1.3227,-0.22675 0.5082,0.11467 0.9674,0.52126 1.2215,0.89267 0.9418,1.3847 1.8214,2.6194 2.662,3.4338 0.417,0.39434 0.8502,0.64846 1.1043,0.76574 0.2528,0.12771 0.2801,0.14074 0.3322,0.11468 0.04,-0.026 0.2529,-0.15378 0.4465,-0.66148 0.1877,-0.51137 0.3681,-1.2216 0.4431,-2.1012 0.1408,-1.7562 0.026,-3.8934 -0.1147,-5.2062 -0.6094,-6.0306 -2.0363,-12.09 -1.655,-18.489 0.245,-4.3036 1.3878,-8.4021 2.3163,-12.409 0.9056,-3.8444 3.2448,-6.5289 4.8738,-9.4058 1.6811,-2.9647 2.5086,-6.5907 2.9908,-9.6336 0.5734,-3.5741 -0.1408,-7.3303 -0.3289,-11.298 -0.206,-4.3038 1.5768,-8.1448 2.6585,-11.735 2.7887,-9.3406 5.0398,-19.052 9.5196,-28.012 0.078,-0.17462 0.1929,-0.32918 0.3324,-0.44307 0.2136,-0.20591 0.4951,-0.31929 0.7753,-0.33232 5.268,-0.026 10.233,0.33232 14.84,-1.0068 2.9255,-0.83716 5.5744,-0.44309 7.7507,0.66461 1.9318,0.99041 3.4859,2.4924 4.9878,3.9942 0.4821,-0.10169 0.9546,-0.14074 1.3226,-0.44621 0.4857,-0.41701 0.9417,-1.1828 1.6681,-1.9972 0.3943,-0.45923 1.1437,-0.56036 1.655,-0.21632 1.8701,1.0947 2.5446,2.6454 3.105,4.1996 6.949,0.5734 12.839,-1.0816 18.375,-5.3073 0.2189,-0.2059 0.4853,-0.31927 0.7785,-0.3323 6.4899,0.1668 12.077,2.7888 17.166,6.3008 2.1012,-0.50824 2.7887,-1.4009 3.8704,-3.424 0.2528,-0.46913 0.8145,-0.74932 1.3358,-0.66149 5.4959,1.1468 10.65,-0.39407 15.83,-2.8766 0.2672,-0.15377 0.5864,-0.18765 0.8926,-0.11467 2.1242,0.61249 3.1407,1.9613 4.0954,3.3231 8.3239,0.28983 15.413,-2.3817 22.131,-6.643 0.245,-0.13031 0.5248,-0.1668 0.7789,-0.11728 9.0992,1.9092 20.564,-0.6091 27.614,-5.1019 7.8777,0.44646 15.781,-0.89268 24.193,-3.1698 0.5343,-0.63542 3.499,5.8804 3.8931,6.6201 1.3618,2.4661 3.5642,4.4535 5.9816,5.6362 0.245,0.12771 0.43343,0.31927 0.54733,0.56036 4.5937,9.7347 14.726,15.716 24.259,17.599 0.17984,0 0.38443,0.0781 0.53769,0.19548 8.2196,6.9329 16.925,13.566 26.252,18.821 4.4178,2.4924 8.9103,4.7469 13.504,6.9754 0.22675,0.0886 0.4204,0.25282 0.56036,0.44309 1.629,2.5834 3.6392,4.8608 5.8643,7.0892 3.3982,3.2188 7.6627,6.1346 9.9661,10.855 2.3423,4.7858 1.9482,10.321 2.4304,15.055 0.92838,8.8715 1.1207,18.326 -0.66148,26.689 -0.0521,0.35525 -0.25543,0.68416 -0.54734,0.87651 -2.5834,1.5768 -3.9322,4.0203 -5.2062,6.9881 l 1.7692,1.4369 c 4.1636,1.3357 7.1414,1.0816 11.074,-0.33231 0.11468,-0.0495 0.21372,-0.0886 0.32919,-0.11468 l 0.9156,-1.7562 c -0.40737,-1.1567 -0.76235,-2.3652 -0.9156,-3.6783 -0.0626,-0.82751 0.8666,-1.5768 1.668,-1.3227 1.5411,0.59947 3.0168,1.287 4.3135,1.655 1.1728,0.3422 2.1633,0.40736 3.1049,0.11467 -0.0755,-0.3323 -0.29321,-0.8666 -0.56037,-1.3227 -0.12771,-0.2059 -0.20329,-0.43318 -0.21371,-0.66123 0.10168,-4.8739 -0.4595,-9.7998 -1.4369,-14.625 -1.7559,-8.5519 -4.3036,-17.013 -6.2128,-25.692 -1.2218,-7.1544 -2.3783,-14.394 -2.0981,-21.815 0,-0.15377 0.0495,-0.29322 0.11468,-0.44308 0.86661,-2.1143 1.0816,-4.4178 0.9938,-6.747 -0.0521,-1.502 -0.67452,-2.5837 -1.7692,-3.5511 -1.0947,-0.96435 -2.5834,-1.691 -3.8704,-2.0981 -8.1839,-2.5576 -13.745,-8.9854 -16.723,-15.948 -0.25542,-0.50824 -0.11468,-1.1825 0.3323,-1.5508 3.1797,-2.7888 4.3526,-5.5221 4.3135,-9.6336 0.0391,-0.20589 0.11467,-0.39433 0.22675,-0.56036 l 5.4243,-10.067 c 0.52127,-0.85359 2.072,-0.63543 2.3262,0.3323 0.80146,4.8217 1.7953,11.11 3.7696,16.492 1.9709,5.3951 4.8217,9.7347 9.5197,11.188 0.26715,0.0755 0.49521,0.22936 0.66123,0.44308 2.0363,2.8148 4.4277,4.4178 6.972,5.092 2.5576,0.67452 5.3985,0.42041 8.5261,-0.77539 0.21892,-0.0521 0.45924,-0.0521 0.66461,0 4.3005,0.60937 6.985,-2.1403 7.5323,-5.4212 v -0.3323 c 3.6781,-8.197 2.8636,-16.609 0,-24.587 -0.0626,-0.14074 -0.10169,-0.29322 -0.10169,-0.44647 0.0886,-3.5347 -1.8831,-6.3235 -4.3265,-9.3013 -0.19287,-0.20589 -0.30626,-0.48217 -0.33231,-0.76236 -0.0391,-5.0401 -2.1112,-9.484 -4.8739,-13.846 -0.22675,-0.35837 -0.28018,-0.82751 -0.10168,-1.2219 1.4757,-3.2579 1.5377,-6.6428 1.2086,-10.412 -0.0391,-0.17723 -0.0391,-0.36802 0,-0.54733 2.8638,-7.6105 2.8899,-15.257 0.44647,-22.919 -0.0521,-0.21372 -0.0521,-0.44647 0,-0.66148 1.3714,-9.1613 0.28018,-16.391 -2.2154,-24.587 v -0.11468 c -0.54733,-3.271 -1.7822,-6.4768 -3.1049,-9.6338 -2.3944,-6.0564 -6.5289,-10.741 -12.282,-13.618 -0.17462,-0.0755 -0.32893,-0.18765 -0.44309,-0.32891 -3.1307,-4.1866 -7.1414,-5.8677 -12.194,-5.8677 -0.18765,-0.0391 -0.38131,-0.11468 -0.54733,-0.22675 -4.1214,-2.0004 -7.2034,-2.1763 -11.07,0 -0.44647,0.25542 -1.0425,0.21372 -1.4369,-0.11468 -15.172,-12.755 -35.534,-16.71 -55.157,-16.71 -0.14074,-0.026 -0.29321,-0.0521 -0.43317,-0.11728 -4.6948,-1.629 -9.6338,-1.4238 -13.846,0.44621 -0.21373,0.0521 -0.44647,0.0521 -0.6615,0 -5.294,-0.60911 -10.067,0.25542 -14.507,2.8769 -0.29322,0.1668 -0.66149,0.2033 -0.9938,0.11467 -5.7892,-1.5638 -11.771,-0.56035 -17.612,1.2216 -0.21894,0.0521 -0.44621,0.0521 -0.66123,0 -7.9559,-1.9091 -15.97401,-1.6159 -24.14101,-0.44621 -0.2189,0.0521 -0.4464,0.0521 -0.6646,0 -5.8416,-2.1111 -11.324,-2.5576 -16.606,-0.77539 -0.2528,0.0782 -0.5212,0.0782 -0.7784,0 -5.0629,-1.2836 -9.6435,-0.98076 -13.514,1.5539 -0.3682,0.2033 -0.8405,0.2033 -1.2088,0 -5.8022,-3.095 -10.715,-2.7627 -14.954,0 -0.3681,0.2033 -0.8537,0.2033 -1.2217,0 -6.4019,-3.2579 -11.009,-2.1143 -15.283,1.1077 -0.4591,0.3813 -1.1954,0.3813 -1.655,0 -4.0594,-3.6033 -9.4675,-3.9713 -14.726,-4.5447 -0.1147,0.026 -0.2294,0.026 -0.3289,0 -2.6488,-0.90257 -4.7339,5.5044 -6.757,4.0154 h -0.1172 c -6.0991,4.2272 -47.824,6.7641 -52.088,-16.963 -0.2457,-1.3674 -0.3669,-3.7295 -0.3498,-5.326 -3.0169,-5.0659 -3.7588,-7.5681 -2.524,-13.931 0.3292,-1.7171 0.6018,-6.4183 1.8495,-7.4379 1.2609,-1.0165 2.9386,-1.476 4.6588,-0.9938 1.1698,0.31928 2.3035,0.5343 3.5381,0.66149 1.4369,0.14074 3.0397,-0.15117 4.76,-0.22935 2.8114,-0.10169 5.1149,0.15377 7.5323,0.89267 3.8704,1.1695 6.5159,3.8801 8.8582,6.1966 1.9842,1.9709 3.6393,3.1698 5.9816,3.652 h 0.1146 c 1.7952,0.14074 3.7041,-0.22935 4.9747,-0.77538 0.6485,-0.28019 1.0686,-0.59946 1.3358,-0.87964 0.258,-0.28019 0.3453,-0.44621 0.3323,-0.56037 -0.1407,-1.2706 -1.0295,-2.2772 -2.1112,-3.652 -0.039,-0.0365 -0.065,-0.0626 -0.1041,-0.11467 -0.8763,-0.82751 -1.4759,-1.7171 -1.6648,-2.6454 -0.2059,-0.9938 0.036,-1.8734 0.3289,-2.6619 0.219,-0.50824 0.7885,-0.85358 1.3359,-0.77539 2.5575,0.21372 5.0661,-0.0652 7.5226,-0.77539 4.0854,-1.1859 7.5453,-3.5381 10.295,-6.7601 3.0038,-3.512 3.3458,-6.4246 3.2189,-10.523 0,-0.22676 0.091,-0.4595 0.219,-0.6615 1.0555,-1.9352 1.1824,-3.3979 0.7753,-4.8608 -0.4074,-1.4791 -1.463,-2.9908 -2.9908,-4.4438 -4.1865,-3.9682 -9.3536,-6.8187 -14.508,-9.8486 -3.7433,-2.1372 -7.3692,-4.3265 -10.956,-6.757 -4.1897,-2.5216 -7.6497,-5.7665 -10.08,-10.08 -0.3062,-0.4595 -0.2527,-1.1338 0.1147,-1.5542 0.9807,-1.0946 1.401,-1.9579 1.4369,-2.6454 0.026,-0.70032 -0.2033,-1.3748 -0.9904,-2.1143 -2.3426,-2.1502 -5.7275,-2.3165 -9.4188,-3.535 -2.5313,-0.84056 -4.7076,-2.0395 -6.8709,-3.3231 -0.8536,-0.52127 -1.489,-1.1825 -1.655,-2.3293 -0.088,-0.67453 0.4332,-1.3618 1.1076,-1.4369 4.9488,-0.65158 8.4382,-2.4434 11.07,-5.105 2.2902,-2.3035 3.8574,-5.5354 4.9782,-9.4024 -4.6067,0.40711 -9.2265,-0.15378 -13.618,-0.77878 -4.5938,-0.66123 -7.2035,-0.0626 -10.514,3.1049 -0.381,0.34534 -0.9773,0.4462 -1.4497,0.21893 -2.0101,-1.0425 -3.8933,-0.71361 -6.4149,-0.21893 -0.3419,0.0652 -0.7136,-0.026 -1.0034,-0.22936 -0.1929,-0.14075 -0.3454,-0.32918 -0.4465,-0.54734 -1.0686,-2.8769 -2.5216,-4.5416 -4.4175,-5.4342 -1.906,-0.88954 -4.3494,-1.0425 -7.2,-0.54733 -0.2675,0.0391 -0.5377,0 -0.7788,-0.11468 -1.1825,-0.60936 -2.3653,-0.76235 -3.5381,-0.71361 v 0.0652 z"
             fill="#e7e7e7"
             id="path83" />
          <path
             d="m -1152.6,415.33 c -3.3982,0.15117 -5.4603,-0.61248 -7.5358,3.499 -0.1616,8.9463 -2.7332,14.609 -4.9226,20.795 7.2391,6.9329 5.0759,14.367 5.5221,21.646 11.162,1.4629 22.017,4.0594 31.651,11.237 1.4236,-1.5247 52.206,0.58262 52.932,-2.1801 17.569,-13.433 -16.366,-23.767 -27.575,-13.748 -5.0661,-3.0134 -19.031,-1.9381 -24.364,-2.8568 l -13.045,-2.6591 -10.921,-13.781 -3.2709,-9.4936 1.668,-10.194 z"
             fill="#c3c7c8"
             id="path85" />
          <path
             d="m -1117.7,363.64 c 0.026,1.7072 -1.476,3.1047 -3.3361,3.1307 -1.87,0.026 -3.3981,-1.3488 -3.4208,-3.0656 v -0.0652 c -0.091,-1.7171 1.3357,-3.1667 3.2058,-3.2579 1.857,-0.0886 3.45,1.2216 3.5381,2.9288 v 0.32918 z"
             fill="#ffffff"
             id="path87" />
          <path
             d="m -1165.1,693.88 c -1.7692,0.53769 -3.3101,1.6063 -5.0923,2.1145 -0.4691,0.16681 -0.8014,0.42015 -1.1076,0.76236 -0.355,-0.25542 -0.7363,-0.39433 -1.2216,-0.32918 -1.3619,0.31615 -3.0659,-0.35837 -4.2126,0.66149 -3.0657,2.8636 -5.9426,6.2487 -6.972,10.409 -0.3193,1.7171 1.6519,2.7627 3.2188,2.7758 1.0425,0.026 2.2513,0.11468 2.8769,-0.89267 -0.065,0.23196 -0.1798,0.43343 -0.232,0.66149 -0.2293,1.1989 0.9318,2.3032 2.1142,2.3293 2.3784,0.14074 4.8479,0.026 7.0893,-0.88929 3.3981,-1.2349 6.0436,-3.7565 8.412,-6.415 0.8275,-0.99354 0.6484,-2.4695 -0.1146,-3.437 -1.2347,-2.0233 -2.3067,-4.1735 -2.6617,-6.5289 -0.2554,-0.88954 -1.1958,-1.4238 -2.0885,-1.2315 z m 307.3,1.3391 c -3.4109,1.1955 -7.2813,1.5768 -10.742,0.43004 -1.2868,-0.4952 -2.4304,0.45924 -2.7758,1.6681 -1.7689,3.7792 -4.3753,7.1153 -6.4246,10.741 -0.66124,1.427 0.62239,2.6585 1.8831,3.1049 0.88955,0.35837 1.9582,0.70033 2.8769,0.44621 -0.23196,1.4499 1.2445,2.4304 2.5573,2.3165 2.952,0.18765 6.1218,-0.026 8.7412,-1.5542 3.5024,-1.831 6.1609,-5.1898 7.3207,-8.9723 0.66123,-2.5443 -0.33231,-5.2028 -1.5672,-7.4182 -0.38105,-0.67451 -1.1695,-0.9156 -1.8961,-0.76235 z"
             fill="#f5f5f5"
             id="path89" />
          <path
             d="m -1103.5,533.88 c -5.5968,6.7772 -9.2423,7.0462 -18.762,13.249 l -7.8615,10.992 c -14.916,25.452 -28.062,23.487 -43.408,16.774 0.6506,-7.7234 -15.47,14.773 43,8.1089 6.0467,0.42014 12.116,0.56037 18.427,-1.4369 3.043,-0.84056 6.0957,1.0425 9.1387,5.0889 l 4.6588,-2.6585 c 1.4496,0.4595 2.1372,2.6454 3.1046,4.2126 6.8451,-0.26715 13.452,-1.3748 19.154,-5.6492 6.4508,0.22936 12.331,2.6845 18.02,5.9782 l 3.7044,-5.2549 c 2.5574,5.2192 12.624,-1.4499 19.316,-1.857 l 2.1403,3.6781 c 8.1578,-0.2059 15.957,-3.2579 23.734,-6.6949 7.9919,1.7298 16.443,-0.5734 26.37,-4.6067 8.1057,0.026 16.277,-0.81448 24.649,-4.0464 -1.5281,-2.5347 -3.6262,-4.8382 -2.9778,-8.272 l 2.023,-6.2357 -1.0066,-8.9233 4.0724,-9.9627 -1.6029,-7.0632 c 3.1698,24.816 -128.9,63.034 -145.91,4.6067 z"
             fill="#c3c7c8"
             id="path91" />
          <path
             d="m -867.23,558.89 c -0.6615,2.6845 -0.67453,6.0694 0.39745,8.3108 -2.3165,0.15377 -1.8604,2.8378 -1.4794,4.3886 1.7204,9.5066 2.4698,19.841 8.5295,27.797 1.4106,1.4757 2.7463,3.5608 4.8999,3.8931 1.2086,0.57339 1.6516,-2.0491 1.997,-1.2737 0.71362,1.0066 1.5899,1.8341 2.5967,2.5086 -1.668,1.9222 1.0425,3.652 2.6454,4.3883 3.5381,1.3748 7.3564,0.28019 10.842,-0.67426 2.6976,-0.16159 5.4864,-1.5768 6.353,-4.2744 2.5704,-5.0662 3.5478,-10.921 2.4434,-16.518 -0.33231,-1.6681 -0.16681,-4.3917 -2.4434,-4.5971 -1.0816,0.17984 -1.7202,1.059 -1.3879,-0.57 0.11468,-1.4009 -0.34534,-3.069 -0.90571,-4.1245 2.0621,0.42015 2.7367,-2.0624 1.808,-3.486 -0.73629,-2.5216 -2.5964,-4.558 -3.8052,-6.7569 2.5315,25.49 -36.472,18.476 -32.478,-8.9854 z"
             fill="#c3c7c8"
             id="path93" />
        </g>
      </g>
      <g
         id="g105"
         transform="matrix(0.19899404,0,0,0.19899404,-70.04649,-77.588789)">
        <path
           d="m 502.17,732.28 c -0.53809,10.241 0.24326,20.327 2.1222,30.353 -1.4463,2.6389 -1.9845,5.3778 -1.933,8.3632 0.0325,2.0463 0.57042,4.0356 1.0137,6.0391 0.6031,2.7275 1.0681,5.4781 1.2898,8.2601 0.25415,3.2999 0.10594,6.62 -0.0952,9.9172 -0.29737,4.6969 -1.4681,9.279 -2.209,13.921 -0.75957,4.7827 -1.6248,9.0874 -4.6882,12.453 -3.1254,3.4201 -5.7559,6.0162 -6.8024,10.598 -1.3815,1.8004 -4.4447,4.4622 -5.1424,9.9288 1.5006,1.2078 3.1904,1.7429 4.964,1.6429 0.98156,3.2198 2.6388,2.9736 5.5129,2.6274 5.3233,-0.63837 9.0411,-4.7053 12.315,-8.9443 -2.0493,-2.6817 -3.2552,-5.6125 -3.6769,-8.9555 0.49741,-2.1237 2.3441,-5.2091 3.1254,-3.9784 1.5952,2.4928 3.3175,4.7626 4.6909,4.2703 1.7845,-0.62693 1.5087,-5.793 1.287,-8.1742 -0.51657,-5.3781 -1.5844,-10.61 -1.287,-16.042 0.19907,-3.6349 1.0546,-7.1782 1.8386,-10.699 0.67601,-3.0652 2.5224,-5.3236 3.9474,-7.9824 1.5004,-2.8078 2.1655,-6.1394 2.5793,-8.8554 0.50541,-3.3773 -0.0334,-6.8206 -0.19248,-10.209 -0.15576,-3.443 1.195,-6.6745 2.1222,-9.9259 2.3251,-8.2514 4.1611,-16.703 7.8057,-24.42 4.3312,-0.0228 8.5327,0.26904 12.588,-0.97014 4.3746,-1.331 7.3187,1.3624 10.022,4.2817 1.7872,-0.10303 2.4524,-1.2765 3.5826,-2.6274 1.5302,0.95023 1.8681,2.178 2.3846,3.7895 6.2858,0.69263 11.672,-0.85018 16.636,-4.8629 5.3531,0.14197 9.8954,2.324 14.151,5.5441 2.3252,-0.49229 3.2308,-1.7202 4.2258,-3.7008 4.8774,1.0963 9.3979,-0.39199 13.781,-2.6274 1.7004,0.52664 2.3035,1.6344 3.2227,3.0197 7.3404,0.38054 13.58,-2.1352 19.391,-6.0276 8.0462,1.6658 16.495,0.53809 22.971,-4.0901 6.8646,0.59258 13.581,-1.0075 20.129,-3.0194 1.2789,4.4734 4.3719,8.1399 7.7191,10.51 3.9824,8.967 12.675,14.334 20.859,16.054 6.8457,6.1165 14.048,11.964 21.873,16.638 3.7068,2.2009 7.4892,4.17 11.301,6.125 1.4141,2.3813 3.1795,4.439 5.0479,6.4196 2.9037,2.9166 6.3374,5.4438 8.0894,9.2447 1.7736,3.8352 1.5115,8.552 1.9332,12.834 0.75962,7.7278 0.88681,15.999 -0.54896,23.155 -2.4199,1.5543 -3.696,3.9355 -4.7855,6.6202 -1.487,5.1976 -4.1799,9.8141 -7.6244,13.807 0.8868,2.0807 2.9578,2.5157 5.1424,2.9194 5.7562,5.6556 16.72,0.16485 18.199,-8.4634 0.77044,-4.4505 -2.3334,-7.8164 -2.7578,-11.775 2.4521,1.0189 4.88,2.4729 7.1727,1.4654 0.93829,-0.41489 0.27318,-1.8547 -0.19251,-2.7275 0.0974,-4.3935 -0.45421,-8.7554 -1.2869,-13.037 -1.4574,-7.5789 -3.5688,-15.003 -5.1452,-22.574 -1.0112,-6.2596 -1.879,-12.588 -1.6464,-18.962 0.79207,-2.055 0.99213,-4.17 0.91924,-6.3253 -0.12761,-3.3343 -3.1471,-5.2462 -5.5129,-6.0276 -6.4322,-2.1351 -10.763,-7.5473 -13.148,-13.426 2.8308,-2.616 3.9906,-5.4896 3.9582,-9.3363 l 4.5017,-8.8554 c 1.3302,8.4289 3.0714,22.339 11.764,25.189 3.6013,5.2663 8.5328,6.4055 14.056,4.1817 4.0771,0.61524 6.8972,-2.224 7.4459,-5.6356 3.1903,-7.5244 2.4307,-15.307 0,-22.47 0.0844,-3.5463 -1.8277,-6.2165 -3.8634,-8.8554 -0.0324,-4.7312 -1.8926,-8.8325 -4.226,-12.745 1.341,-3.1312 1.2898,-6.3739 1.014,-9.7283 2.4604,-6.9206 2.4604,-13.976 0.37031,-20.916 1.16,-8.2173 0.26236,-14.78 -1.8385,-22.081 -0.48665,-3.0194 -1.468,-5.8586 -2.5765,-8.6551 -2.0818,-5.5667 -5.7454,-9.9057 -10.753,-12.553 -2.7766,-3.9468 -6.4942,-5.6469 -10.931,-5.6469 -3.6201,-1.8462 -6.7267,-2.0694 -10.212,0 -12.875,-11.449 -29.995,-14.98 -46.427,-14.98 -4.1286,-1.5227 -8.5544,-1.3768 -12.313,0.38925 -4.5854,-0.55823 -8.7869,0.19233 -12.686,2.6274 -5.0804,-1.4512 -10.223,-0.52388 -15.154,1.0617 -6.7915,-1.72 -13.656,-1.4196 -20.5,-0.3778 -5.0071,-1.9234 -9.8763,-2.3382 -14.521,-0.68394 -4.3854,-1.1849 -8.5356,-0.97312 -12.042,1.454 -5.0587,-2.8621 -9.5981,-2.6274 -13.413,0 -5.6074,-3.0082 -10.012,-1.9348 -13.781,1.0732 -3.7065,-3.4774 -8.5544,-3.6777 -12.864,-4.1814 -1.9953,-0.72699 -8.2032,4.7168 -9.882,3.4089 -7.0624,2.7038 -19.978,-5.4178 -29.541,-6.297 -10.548,-0.96978 -14.213,-15.77 -11.292,-26.418 0.465,-2.5503 0.81702,-4.8937 2.9826,-4.2554 1.0435,0.30042 2.0684,0.46939 3.1254,0.58091 1.3518,0.13509 2.682,-0.0458 4.0447,-0.10075 2.2495,-0.0916 4.088,0.0778 5.9671,0.68119 2.9037,0.92733 4.9531,3.1083 6.8969,5.1548 1.7411,1.8318 3.3687,3.0396 5.6074,3.4975 3.4012,0.31483 6.8864,-1.2165 6.7052,-3.1083 -0.15567,-1.5856 -1.1301,-2.6705 -2.0277,-3.8898 -1.3519,-1.3193 -1.3302,-2.4042 -0.91673,-3.6006 2.2497,0.20378 4.4448,-0.0229 6.6214,-0.68118 3.5905,-1.1075 6.6835,-3.343 9.0922,-6.3281 2.6605,-3.2857 3.0526,-6.2166 2.9471,-9.9174 1.9629,-3.8124 0.66512,-6.8318 -2.0277,-9.5366 -3.6014,-3.6235 -7.9623,-6.2051 -12.221,-8.8554 -3.093,-1.8661 -6.1454,-3.8124 -9.0923,-5.9246 -3.3579,-2.1466 -6.0833,-4.8741 -7.9947,-8.4632 1.8386,-2.1695 1.9115,-4.1359 0.27585,-5.7472 -2.2603,-2.2125 -5.2913,-2.3927 -8.1868,-3.3975 -1.9737,-0.69538 -3.7393,-1.7116 -5.5128,-2.8305 -0.45428,-0.28918 -0.85435,-0.81581 -0.91927,-1.2623 8.5868,-1.1849 12.78,-6.4283 14.713,-14.98 -4.2149,0.71552 -8.4192,0.055 -12.588,-0.58091 -4.0042,-0.60401 -6.7294,0.055 -9.6548,3.0167 -2.0061,-1.1078 -3.8745,-0.727 -5.9779,-0.2892 -1.933,-5.458 -5.8399,-6.8547 -10.836,-5.9388 -1.1193,-0.58112 -2.3223,-0.83871 -3.5039,-0.77003 l 0.0316,0.0236 c -1.9629,0.0893 -3.8529,1.0274 -5.1424,2.4241 -4.9207,-1.7658 -8.787,-0.75834 -11.215,2.5274 -7.638,2.181 -10.266,9.1788 -11.483,14.892 -3.9798,-1.2621 -7.5405,0.30339 -10.844,2.5274 -3.7609,2.5271 -7.0674,5.5468 -10.563,7.682 -4.1067,2.5157 -9.0598,3.5548 -13.232,3.8895 0.75974,3.8124 3.0849,5.5898 5.967,6.3283 1.8681,4.0585 5.4802,5.2434 9.187,4.7626 1.7546,2.2238 3.8554,2.7733 6.2535,2.4386 -0.18809,0.5122 -0.38119,1.0159 -0.74085,1.2621 -1.341,0.93878 -2.2494,2.3041 -2.9334,3.7895 -0.97331,2.0923 -0.9408,4.4164 -1.0139,6.7203 -1.406,1.3539 -2.2088,2.9853 -2.947,4.7626 -0.82449,2.0008 -0.71924,4.0928 -0.64606,6.228 -1.4979,2.158 -2.2171,4.5938 -2.1954,7.0981 0,1.9234 0.51621,3.7352 1.0029,5.5468 -1.8897,3.386 -1.9006,6.7862 -1.6463,10.118 -2.1766,3.1854 -2.5146,6.7288 -2.4821,10.498 3.135,28.412 18.014,67.083 18.014,67.083 -2.3983,6.4512 5.7768,8.2369 8.6697,14.05 -0.77046,3.1312 -0.61364,5.9619 0.37055,8.9557 0.0843,6.8547 1.0137,11.875 5.2261,15.753 1.214,6.3052 5.6614,9.9172 10.023,10.017 1.5519,7.2126 6.8969,11.46 13.699,12.264 2.4062,3.612 5.5237,5.1777 9.5468,5.5468 m -10.229,-234.06 c 0.90838,0.055 1.806,0.44649 2.9443,1.0617 3.4552,-0.97313 6.4211,0.25759 7.5324,2.8278 -1.6276,-0.43504 -3.2851,0.34644 -3.9501,1.3654 4.2555,-0.15799 7.6135,1.4968 9.9279,5.8358 0.71651,-2.0035 0.26232,-3.4545 -0.91936,-4.6737 2.0794,-0.42658 3.1579,0.42359 4.6774,1.7544 0.47589,1.3539 1.6277,2.1809 2.5768,2.6274 2.863,1.3424 2.536,2.5159 1.1085,5.1548 1.0138,0.392 0.75157,1.9005 0.27577,2.0463 -2.1982,-3.5548 -5.2372,-4.439 -8.7328,-2.9194 5.3965,0.93877 10.971,7.7594 6.4293,13.326 -0.71651,-1.6857 -1.8467,-2.6817 -3.1254,-3.8009 -1.6359,-5.2434 -8.3653,-4.5393 -10.561,-1.162 1.3735,0.12365 2.7469,0.158 4.1285,0 1.2788,-0.14653 2.4819,0.0343 3.2226,0.77278 -3.2011,1.8318 -6.2318,0.501 -9.2844,-1.0647 -4.9639,0.9303 -8.6272,-1.4968 -12.959,-2.1466 -3.5905,-0.53511 -5.9563,2.3928 -9.3683,3.3116 -2.4063,0.64684 -4.2556,-1.0304 -6.0725,-2.7163 -2.0494,-0.78422 -3.5256,-1.5112 -3.485,-3.9039 0.0843,-5.624 3.274,-10.452 8.4488,-12.442 -2.8414,2.2897 -2.8523,6.3826 -1.6463,8.944 0.65423,-4.9199 1.9005,-7.6705 6.5158,-9.8286 l -2.6605,-0.29194 c 2.417,-3.0281 4.5178,-3.2628 7.8137,-1.9433 -2.3441,1.3193 -2.7145,2.6588 -3.2202,5.063 3.8554,-3.4545 6.1456,-4.774 10.845,-3.6006 -0.88686,-1.9776 -1.8575,-2.1123 -3.6744,-2.5244 1.3519,-0.82704 2.2927,-1.1419 3.212,-1.0732 z m 26.372,3.7006 c 0.54889,0 1.1492,0.0893 1.752,0.19005 3.1795,0.54677 6.4941,1.1192 9.6413,1.0734 -1.7628,5.0744 -4.7206,6.4512 -9.6413,7.682 -0.32707,-2.8736 -2.3548,-4.4164 -4.5098,-4.8656 -0.33788,-0.70409 -0.90847,-1.228 -1.3734,-1.8432 1.1625,-1.7116 2.5143,-2.2583 4.1394,-2.2469 z m -29.405,2.6274 c -2.2494,0.16486 -4.4448,1.6974 -5.5128,4.0787 4.3313,-1.766 7.1187,-1.4627 11.396,-0.10075 -1.3194,-2.9968 -3.6229,-4.1588 -5.8832,-3.9898 z m 9.0952,4.5595 c -2.3657,0.35765 -4.3826,2.4156 -5.0477,5.3549 3.9284,-2.616 6.6618,-3.0167 11.12,-2.3355 -1.5844,-1.9891 -3.3796,-2.9194 -5.0585,-3.0194 -0.35966,-0.0228 -0.67601,-0.0435 -1.0248,0 z m -17.639,1.8574 c -1.4871,0.20149 -2.8307,1.0734 -4.1392,2.3355 2.217,0.54953 4.6692,0.12365 6.897,0.87306 1.8385,0.61525 2.7036,1.7429 3.8554,3.1083 0.50567,-3.3201 -1.0786,-4.9316 -3.7607,-5.9276 -1.068,-0.4007 -1.9845,-0.51221 -2.8632,-0.38925 z m 24.911,220.61 -4.107,-2.2153 c -3.2957,-0.33499 -5.2693,-2.7163 -7.2675,-5.3552 -7.181,-0.20148 -10.644,-5.0286 -12.123,-9.4363 2.3766,0.93009 4.6774,0.57243 5.9671,-1.4512 -5.5966,0.78148 -8.7545,-2.1352 -8.7249,-7.4015 -1.6248,1.955 -1.3194,4.2932 -0.36766,5.8474 -4.4691,-0.68417 -5.7668,-2.8736 -7.1727,-7.2011 2.5036,1.7001 2.8631,1.2735 4.8692,0.58091 -5.1208,-2.3126 -6.7593,-6.1822 -4.3205,-10.991 -2.5656,1.3081 -3.3038,2.616 -3.1254,6.228 -2.809,-3.3659 -2.8821,-7.8022 -2.5656,-12.064 -1.0033,-1.8432 -0.90847,-3.4861 -0.73822,-5.5441 1.5411,2.2469 2.882,2.5045 5.1424,2.2354 -4.3421,-3.3773 -4.8152,-6.9321 -1.9223,-11.672 -2.4279,0.22439 -3.1147,1.2422 -3.9501,3.7895 -5.2449,-6.1774 -10.234,-11.235 -10.234,-11.235 0,0 -16.539,-62.181 -17.773,-61.741 0.065,1.5428 2.3374,-6.5935 2.8861,-6.0126 -0.41088,-3.0167 0.33788,-4.9858 1.5627,-7.4903 l 0.27585,-0.5809 0.54863,-2.1466 c -0.30809,-1.6658 0,-3.2544 0.19038,-4.8629 1.2977,2.5159 2.82,3.3773 4.8694,2.9166 -4.1718,-4.9858 -4.4043,-9.903 0.4542,-13.426 -2.0493,-0.25759 -2.7983,0.41513 -4.4988,1.8576 -1.3006,-2.7305 -0.0334,-4.5508 1.2868,-7.0122 0.68673,-1.2852 0.39199,-2.1695 0.37029,-3.6006 -0.0536,-2.8621 1.1409,-4.8514 2.8416,-6.9092 -0.82466,4.3046 1.5628,7.8278 5.5128,8.074 -5.9157,-5.2892 -4.4367,-9.1016 0.37047,-13.418 -2.4199,-0.40069 -4.0366,1.4998 -4.964,2.616 -0.0211,-4.3475 0.94888,-6.3482 3.5905,-8.552 4.1825,-3.5003 9.2925,-1.5426 13.878,-2.7275 5.2991,-1.3654 10.147,-5.3323 12.959,-8.8554 -3.7093,1.9119 -7.7108,3.9811 -11.218,5.066 -2.7658,0.91587 -5.7128,1.0617 -8.2678,0.5809 3.5904,-1.1849 5.9859,-4.7969 7.8976,-7.4901 -2.163,1.62 -4.288,3.3315 -6.7052,4.4706 -4.6585,2.2038 -9.252,4.4162 -13.962,2.2352 4.1068,-0.76981 6.9267,-3.4659 9.5573,-6.6058 -4.1392,3.3201 -13.075,7.7021 -18.112,3.3975 5.3641,-0.35787 9.0816,-2.0894 12.959,-5.6441 -6.1049,1.9004 -12.832,5.5667 -17.279,1.7544 3.5904,-0.71553 6.1482,-1.8002 9.1896,-3.5003 3.5581,-1.9893 6.0185,-3.9898 9.1034,-6.4169 2.5982,-2.1237 5.8183,-3.5005 8.6923,-3.7352 l 0.0272,0.0328 c 0.9625,-0.0778 1.9006,0.0228 2.7577,0.2015 1.0354,2.2038 2.5441,3.343 4.5935,4.3733 2.071,2.1695 4.7854,2.9164 7.5405,2.6274 3.5906,-0.36932 6.2211,-3.6006 9.5575,-3.1083 4.426,0.64685 7.9433,2.6389 12.494,2.2352 3.7065,2.0894 7.1078,2.4701 10.847,0.58113 2.1223,1.454 3.1794,3.4316 4.499,5.6469 4.342,-3.2198 4.9964,-6.5971 4.2257,-11.191 0.28402,-0.35765 0.49487,-0.78423 0.73822,-1.1648 1.9654,1.5226 4.1608,2.6503 6.3374,3.7922 1.9628,1.0162 4.5934,1.228 6.0616,2.6274 1.3003,1.228 0.33778,2.951 0.18809,4.4706 1.8168,4.2703 5.1559,7.2671 8.641,10.017 3.0714,2.327 6.6645,4.4278 9.6413,6.3283 4.004,2.3698 8.0487,4.6737 11.585,7.782 1.7007,1.4856 2.8524,2.6705 2.1117,4.8629 -0.28403,0.83849 -1.4033,0.93878 -2.2064,0.48084 -0.49723,-0.28049 -1.0653,-0.25759 -1.5628,-0.48084 -0.67593,-0.30063 -0.54872,-0.25759 -0.91893,-0.49228 -0.64377,-0.39222 -1.3302,-0.2805 -2.017,-0.28919 -1.406,-0.0228 -2.8633,0.6125 -3.496,1.8432 1.2978,-0.0778 2.5657,0.13509 3.496,0.97313 0.60274,0.55823 1.2678,1.0047 1.933,1.4654 1.4679,1.0276 2.4604,0.95023 4.0338,0.8701 0.39225,3.5548 -0.73813,6.105 -3.1253,7.39 1.5735,-2.0005 1.7112,-3.3972 1.5627,-6.3166 -1.1301,2.8621 -4.3205,8.5434 -7.6244,10.209 -4.691,2.3698 -10.742,0.0228 -14.881,-1.6429 -0.91928,0.17861 -1.7844,0.56968 -2.6738,0.8701 -0.62182,0.21294 -0.98148,0.79567 -0.73831,1.2651 1.1194,2.1122 3.442,3.2628 5.3346,4.5709 1.668,1.1075 2.9982,2.0806 4.1392,3.5003 0.58132,0.72698 0.95969,1.5657 1.4682,2.3355 -2.271,0.86161 -3.6554,0.49228 -5.3345,-1.0732 -2.598,-2.4129 -5.2801,-4.7626 -8.3652,-6.4169 -2.4495,-1.3196 -4.6773,-1.0047 -6.8835,-1.0734 -3.2632,-0.0893 -6.486,-0.49229 -9.7495,-0.58089 -2.4928,-0.0663 -5.026,-0.10075 -7.2566,0.88428 -1.8898,0.82727 -3.0199,2.3584 -2.6604,4.2703 1.0464,-2.3698 3.2851,-2.4042 5.6939,-2.616 -2.5112,9.8779 4.8708,36.908 14.97,37.627 4.1236,0.29325 4.4391,0.47295 8.6897,1.5092 5.5714,1.3582 13.564,5.0666 20.219,2.5097 2.2386,1.6429 7.4004,-6.0375 9.642,-4.3947 0.46219,0.30339 1.0137,1.3995 1.4679,1.6543 1.1301,0.64959 1.341,1.1762 2.1117,2.1466 0.9813,1.2307 1.4896,1.7001 1.3734,3.8925 1.9738,-3.22 0.58131,-5.0774 -2.1141,-7.4903 3.0631,-0.40345 5.0801,1.0047 7.7216,2.4243 -2.0926,0.80712 -2.8632,1.6658 -3.031,3.2083 1.8792,-1.0274 3.5256,-1.8432 5.6075,-1.554 2.6712,0.38055 4.5421,2.3726 5.1423,4.8656 0.29746,-3.3116 -1.0869,-5.1663 -3.2093,-6.3168 4.637,-2.4928 7.9407,-1.4654 11.85,0.38924 4.8476,-3.4087 8.5652,-3.1197 13.508,-0.10074 3.4094,-2.9049 7.3189,-3.1197 11.396,-1.9433 5.4372,-1.5886 10.223,-0.89595 15.343,0.97015 6.6239,-2.1466 13.678,-0.90444 20.405,0.19233 4.9234,-2.0921 10.15,-2.2153 15.251,-0.97312 3.6528,-2.8736 7.7516,-3.2427 12.134,-2.716 3.8663,-1.6543 7.7109,-1.7344 11.672,-0.58112 15.208,-0.0916 30.162,3.117 41.726,11.28 8.2058,5.79 14.121,14.345 16.265,24.027 1.0436,4.7713 1.2465,9.6912 2.0169,14.5 1.3302,8.3402 1.287,16.569 -0.72999,24.709 -0.86518,-2.0122 -2.8821,-3.1197 -5.3316,-2.9194 4.4989,3.5003 5.0046,7.6476 1.8359,11.772 1.0462,-0.0229 2.0087,-0.66974 2.7578,-1.5513 1.1301,6.5172 -0.62466,11.079 -2.2927,16.927 -0.0844,-1.4998 -1.8169,-3.5003 -3.6852,-3.6006 3.5905,4.8743 1.9116,9.7484 -2.7577,11.48 2.5036,0.90719 4.7531,-0.43504 5.3344,-1.9435 0.46504,5.3781 -1.6358,9.6598 -4.4044,14.007 0.0216,-2.2581 -1.5627,-4.0013 -3.8662,-4.8741 3.3283,4.5966 1.9332,9.279 -2.7549,11.483 2.6712,0.86139 4.5934,-0.76132 5.5127,-2.1352 -2.7145,5.9704 -6.5158,7.0207 -10.382,4.3704 -3.4525,2.2153 -7.0322,1.4311 -10.847,0.19234 3.2743,2.9739 6.8755,3.5662 10.753,2.4358 2.2062,2.0005 4.7206,1.9891 6.8024,1.0732 3.0606,7.7365 8.0786,12.622 15.249,14.983 2.5981,0.84718 3.1795,2.2352 3.2228,4.4706 -0.14925,1.9891 -0.54895,3.5662 -0.91925,5.3549 -0.24333,6.6202 0.69754,13.16 1.8385,19.643 1.5303,7.4816 3.5364,14.849 4.8666,22.373 0.70836,3.9699 1.5221,7.8251 1.2896,12.164 -2.6414,-1.3193 -5.5559,-2.1466 -6.7077,-0.5809 -1.1492,1.554 1.0354,4.1013 1.0138,6.6058 -2.5116,1.4654 -6.3995,0.72698 -8.6381,-0.38078 0.6651,-2.882 3.1146,-4.2703 4.4989,-6.7173 1.0977,-7.8365 1.2355,-15.753 0.54872,-23.635 -0.43258,-5.0202 -0.28377,-10.075 -2.1115,-14.01 -1.9737,-4.2588 -5.9238,-7.2439 -8.6383,-10.118 -2.071,-2.1122 -3.8554,-4.505 -5.7885,-6.7061 -3.9502,-1.8918 -7.8244,-4.0155 -11.575,-6.3281 -6.4752,-4.0042 -12.875,-8.8898 -18.377,-13.718 4.8991,0.41215 9.1248,-1.5426 10.106,-5.4465 -4.5936,4.5164 -10.855,3.3773 -16.179,1.7574 -7.3514,-2.2496 -13.783,-6.8549 -16.633,-13.629 2.2575,0.4007 3.823,-0.0344 4.8774,-1.265 -5.575,0.57242 -8.5544,-3.1284 -7.4459,-8.8527 -2.0386,2.1782 -1.89,4.3133 -0.91925,6.6172 -2.5659,-1.5971 -3.3039,-4.1242 -4.2231,-6.8089 -3.7906,-2.7621 -4.7855,-8.2287 -2.766,-10.991 0.80028,2.7504 1.6142,4.1501 4.5097,4.4734 -4.0473,-4.2273 -3.0227,-7.7248 0.3677,-11.875 -2.6928,-0.4465 -3.6634,1.1762 -4.6882,3.4117 -0.93006,-4.9858 0.0216,-9.4022 1.9332,-13.529 0.44341,2.5617 2.1115,4.7969 4.8666,4.774 -4.5828,-2.9622 -3.9798,-9.6023 0.37031,-11.872 -2.7145,-0.28049 -3.9608,1.6772 -4.6882,3.6006 -0.24333,-1.2765 -0.53791,-2.5271 -0.82451,-3.7922 -0.5057,-2.1553 -0.32725,-4.2932 0.0844,-6.4169 0.2325,-1.1735 0.49747,-2.3355 0.55955,-3.509 0.13843,-2.8736 -1.1085,-5.4124 -2.3955,-7.8823 -1.1003,-2.1122 -1.7762,-4.2932 -2.2927,-6.6088 -0.0626,2.45 0.57058,4.8084 1.468,7.0008 1.0464,2.5358 1.8792,4.8858 1.9332,7.5904 0.0216,1.1506 -0.49748,2.2011 -0.83555,3.3086 -0.63243,2.1237 -0.48385,4.3504 -0.36748,6.5172 0.0952,1.6456 0.29459,3.343 0.92725,4.8656 -3.3255,5.9361 -4.2988,11.961 -2.947,17.9 -1.9304,3.8437 -2.3738,8.8524 0.37029,11.58 -1.4139,0.60379 -2.9874,1.1533 -4.3205,1.1648 1.806,-2.8965 1.1518,-5.1775 -1.0112,-7.2011 1.5818,3.4204 -0.15999,7.3014 -2.9362,7.9826 -3.4661,0.8385 -7.1837,1.2422 -10.477,0.48085 -6.3267,4.1586 -13.191,5.7128 -20.491,4.5737 2.7577,-2.4385 2.7037,-6.7748 0.45402,-9.2362 1.341,5.9047 -1.3518,9.179 -7.0754,9.2362 0.49741,0.40071 1.0031,0.7927 1.7439,0.88155 -3.7177,2.8507 -9.7711,5.6698 -15.346,4.8656 -0.19898,-0.61547 -0.87605,-1.0418 -1.1925,-1.5657 0.19907,-0.49229 1.6143,-1.2536 2.6605,-1.1648 4.0338,-0.95022 6.1889,-4.047 4.964,-8.0712 -2.1763,5.4896 -5.4614,6.3052 -10.382,4.5737 0.37056,0.84993 0.27585,1.5655 1.8386,2.2352 -5.2289,2.3584 -12.453,5.1892 -15.716,3.5005 0,-0.71554 0.0211,-1.5657 -0.17738,-2.3385 3.8229,0.1809 6.1561,-2.1351 6.1561,-6.0247 -3.6337,4.3589 -6.7267,4.7053 -11.12,1.2621 -0.0536,2.4729 0.86516,3.1655 2.9471,4.2817 0.0518,2.5274 0.12765,5.6013 -2.1225,6.2166 -3.3389,-2.7275 -6.6132,-3.901 -10.563,-4.7626 l 1.195,-1.554 c -5.2722,1.454 -8.0814,-0.43504 -9.8335,-5.7357 -1.7952,3.2541 -0.22164,6.1506 2.7578,7.782 -3.9932,3.7008 -8.1326,3.3544 -13.424,3.7895 -0.46509,-2.178 -1.4385,-2.8049 -2.2928,-4.0814 l 0.37038,-1.3624 c 3.1362,1.2193 5.0262,0.28919 6.6105,-2.3382 -5.4506,1.5655 -7.9516,-0.33497 -9.9171,-5.6441 -1.3194,2.1581 -0.99228,3.2972 0.35949,5.5438 0.52737,2.719 -0.28657,4.3161 -1.6464,6.4199 -3.0958,-3.7924 -6.7079,-4.7427 -11.028,-3.8925 0,0 -11.397,2.0311 -14.435,1.9462 -3.9204,8.2285 -5.8723,17.977 -8.0814,25.579 -1.0137,3.5234 -2.1438,6.8664 -2.2062,10.51 -0.0536,3.2887 0.45419,6.5515 0.27322,9.8286 -0.15576,2.8049 -0.92745,5.5125 -2.2901,7.8823 -1.7654,3.0396 -3.3498,5.7559 -4.3205,9.1446 -1.0569,3.6434 -1.5004,7.39 -1.8385,11.179 -0.6002,6.7317 3.2336,20.796 1.5547,19.946 -2.6928,-1.3738 -2.1658,-4.236 -3.4012,-3.8895 -3.2012,0.90442 -4.4665,3.3315 -5.7887,6.4169 -2.5548,1.7887 -5.1533,2.4356 -8.1731,2.5271 1.5627,-4.1043 4.9936,-5.501 6.7996,-8.074 2.4416,-3.4746 3.1579,-7.7907 4.0367,-11.961 0.99219,-4.7081 1.6789,-9.4821 2.1115,-14.299 0.32733,-3.4774 0.29474,-6.9435 0.0951,-10.409 -0.16868,-2.885 -0.71915,-5.7357 -1.2894,-8.5635 -0.32733,-1.6344 -0.67592,-3.2086 -0.82193,-4.8656 -0.34895,-3.8783 0.45419,-6.4398 1.9329,-9.4336 -2.0493,-10.252 -1.7762,-30.568 -1.7762,-30.568 m -4.0522,-204.76 c -3.3688,0.18776 -7.1189,2.0578 -7.2541,4.0899 1.7303,-0.90444 5.6696,-1.3395 8.6276,-1.2621 3.1578,0.0687 5.9236,1.9348 8.9138,2.4271 -1.7736,-3.489 -5.3965,-4.8972 -8.9138,-5.2549 -0.47589,-0.0458 -0.91927,-0.0228 -1.3952,0 z m 1.2895,4.774 c -3.7715,0.18776 -5.5236,1.9662 -7.9001,3.8895 -1.6898,1.4654 -3.5607,2.1924 -5.5235,2.2354 -0.71924,0.0228 -1.3736,0.0801 -1.8386,0.29194 0.70843,1.3537 1.6169,1.7116 3.0416,2.0463 1.4276,0.32353 4.3205,-0.56098 6.4321,-1.6543 0,3.5891 2.5765,6.5172 5.6941,6.5172 3.009,0 5.4368,-2.7048 5.6073,-6.1279 2.1764,2.9194 6.1346,5.0545 9.4629,5.5354 -0.4137,-1.2735 -3.8771,-3.174 -5.3344,-6.1277 -2.0602,-4.1474 -5.894,-6.8091 -9.6737,-6.6172 z m 1.9332,4.4706 c 1.2464,0 2.2899,1.0418 2.2899,2.3382 0,1.2967 -1.0436,2.3355 -2.2899,2.3355 -1.2572,0 -2.3035,-1.0388 -2.3035,-2.3355 -0.022,-1.2765 1.0246,-2.3153 2.2818,-2.3153 z m -13.51,6.228 c -0.0951,1.8345 0.45427,3.2083 1.279,4.5622 1.6384,2.6588 3.6662,3.9239 6.4319,4.774 1.3843,0.41215 2.7983,0.0321 4.3204,-0.49229 -1.2354,-0.83871 -2.5144,-1.4998 -3.8554,-2.1351 -1.0138,-0.48085 -1.8277,-0.96168 -2.6712,-1.5542 -2.0494,-1.4654 -3.5715,-3.5662 -5.5344,-5.1546 z m 34.553,2.0607 c 7.8056,2.4928 15.608,6.4055 22.695,11.383 -5.2801,-6.6859 -14.416,-11.337 -22.706,-11.383 z m -60.008,2.7275 c -4.3854,0.61548 -6.1915,3.3659 -6.2428,6.7088 -0.0536,3.3544 2.3982,6.5057 5.8831,6.7203 -1.8169,-1.8002 -3.0416,-3.008 -3.2228,-6.62 -0.19898,-3.6235 1.2249,-5.1862 3.5609,-6.8206 z m 5.5127,4.7626 c 2.7875,13.349 17.509,22.428 29.411,21.993 -12.861,-3.343 -23.327,-11.941 -29.432,-21.993 z m -6.9808,13.529 c -2.463,2.9966 -1.7113,7.3557 1.3816,9.6252 2.8198,2.0809 7.9433,1.1192 8.1759,-0.87284 -2.355,0.14654 -4.426,-0.0664 -6.4321,-1.2623 -2.682,-1.5884 -2.7982,-4.5737 -3.1362,-7.4901 z m 27.015,9.7255 c -6.9078,5.8701 1.3518,15.653 5.978,11.772 -5.9481,-2.2897 -7.2567,-5.4209 -5.9996,-11.772 z m -18.198,2.1352 c -0.33796,7.7706 12.315,8.678 12.504,0.68393 -4.6772,4.4248 -9.2628,3.4861 -12.515,-0.67249 z m 271.41,49.921 c 1.341,0.055 2.4307,0.50374 3.7717,1.3624 3.4743,-0.59256 5.9022,0.8843 7.9949,3.3114 -2.3766,-0.4149 -4.0771,0.31209 -4.8694,1.9435 2.482,-0.4007 4.4989,-0.0778 6.5159,1.454 1.8792,1.4311 2.3226,3.7579 2.3035,6.0361 1.6791,-1.7974 1.3925,-3.4201 0.82191,-5.7327 3.0309,1.8318 4.7747,4.9858 6.3482,8.1713 1.425,3.0426 2.3117,6.3397 3.0309,9.6255 2.0926,5.7128 3.0956,12.479 1.8385,17.419 -1.606,-2.5473 -3.696,-3.5891 -6.0616,-2.4358 4.9828,2.7506 6.0616,7.1553 3.3904,11.38 1.6789,-0.21065 2.0898,-1.0961 3.0389,-2.3355 1.4384,4.1244 1.4896,7.9597 0.55155,12.164 -1.0464,-3.735 -3.8338,-5.166 -6.9917,-4.3818 5.2802,2.1894 5.4802,6.225 3.4012,11.38 0.94889,0.0228 1.487,-0.74988 2.2062,-1.162 0.9597,3.4545 0.2946,6.1593 -0.82472,8.5635 -1.6356,-2.6503 -3.8446,-3.4204 -6.1562,-2.5274 5.3234,1.889 6.2102,6.832 3.4957,11.283 2.3009,-0.35765 3.3067,-2.1809 3.6744,-4.1815 2.1547,3.3315 3.1795,6.5284 2.9362,10.395 2.071,2.1924 3.1363,4.273 3.7715,7.2897 -1.6168,-2.3698 -3.4445,-2.5702 -5.7048,-1.9433 4.9639,2.882 5.3965,6.0247 3.496,11.28 1.933,-0.32331 2.6414,-1.8345 3.4957,-3.3972 1.4574,5.667 1.5006,11.58 -0.91925,15.853 -0.82192,3.4662 -2.5657,4.113 -5.4262,4.0901 -3.2743,1.6658 -7.0566,1.7773 -9.3683,-0.78148 1.3626,0.21066 2.3766,-0.14653 3.3039,-0.97312 -5.5642,-1.2193 -6.451,-4.605 -5.8804,-10.017 -2.5252,2.2469 -2.8092,4.6053 -1.744,7.682 -8.649,-6.3967 -8.5652,-20.415 -10.477,-29.763 2.1547,3.4002 4.9856,3.7578 7.9001,1.7459 -5.2073,-0.52663 -8.111,-3.512 -6.7051,-8.7554 1.8357,-6.8634 2.49,-13.283 1.8357,-20.235 2.947,-9.3019 2.7037,-18.773 1.3843,-28.398 -0.67592,-4.9084 -0.99213,-9.8828 -2.1223,-14.691 -1.8277,-7.8365 -5.6942,-14.591 -11.026,-20.235 0.84375,-0.20377 1.625,-0.31483 2.3009,-0.39222 0.49748,-0.0458 1.0138,-0.1122 1.4574,-0.0893 z m 19.656,20.905 c -0.73,-0.0228 -1.5115,0.0801 -2.3035,0.392 5.1856,1.3967 7.0458,4.9858 5.2397,10.599 5.5019,-3.3659 2.2062,-10.81 -2.9362,-10.956 z m -5.8832,7.2011 c 4.5314,3.5319 4.8259,7.7706 1.1922,11.772 7.0864,-0.6354 5.5994,-12.064 -1.1922,-11.749 z m -283.59,7.5904 c -6.5998,3.3773 -2.628,13.529 3.677,11.283 -5.1964,-2.4614 -5.5778,-5.9933 -3.6987,-11.26 z m 283.95,14.591 c -0.39193,0 -0.78125,0.0893 -1.195,0.18775 4.9964,2.4156 6.0536,6.5428 3.3067,11.383 6.3374,-2.1352 3.6742,-11.683 -2.1225,-11.571 z m -281.75,8.2628 c -5.9048,4.84 0.38936,13.26 6.2509,9.8258 -5.4805,-0.97313 -7.8785,-4.6167 -6.2617,-9.8144 z m 191.45,0.68119 c 2.7037,5.3208 1.6276,9.0787 -3.1255,11.483 6.9377,1.8004 9.6009,-9.2245 3.1255,-11.471 z m -12.029,3.9928 c 1.0354,5.9132 -1.5736,9.1673 -6.9918,9.4336 5.8833,4.1043 11.956,-4.4592 6.981,-9.4336 z m 80.129,3.8895 c 4.6449,3.4318 4.8882,7.8022 1.8359,11.772 6.9917,-1.4425 4.9016,-12.745 -1.8359,-11.772 z m -189.21,1.5542 m 212,2.4356 c -5.8616,0.67271 -6.4213,10.891 0.0952,11.775 -3.6309,-4.628 -2.5224,-7.848 1.195,-11.775 -0.45422,-0.0435 -0.91925,-0.0435 -1.3004,0 z m -97.852,3.1083 c 3.2743,5.1663 1.8792,9.3477 -3.2092,11.383 6.7377,2.1352 9.4927,-8.8211 3.1985,-11.383 z m -17.363,4.0928 c 1.3302,5.5239 -1.6682,8.9672 -6.9918,9.2362 5.978,3.9353 11.934,-4.339 6.9593,-9.2477 z m -82.619,1.7432 c -6.7592,3.0423 -2.9903,13.541 3.3984,11.294 -5.0152,-2.7621 -5.4153,-6.1279 -3.42,-11.283 z m 124.72,1.265 c -6.7295,2.1894 -4.0771,13.807 2.755,11.483 -5.0585,-2.8537 -5.5235,-7.0896 -2.7874,-11.494 z m -33.269,0.68119 c 1.4034,5.5782 -1.6681,9.2561 -6.9808,9.2474 5.8723,4.5709 11.945,-3.8582 6.9484,-9.2703 z m -26.288,4.1929 c -2.5116,4.8198 -6.4833,5.3552 -11.026,2.2354 2.1333,7.3012 12.072,4.6279 11.015,-2.2469 h 0.0211 z m 78.115,0.87306 c -5.2588,4.9629 0.98132,13.38 6.8861,9.5366 -5.4722,-0.77277 -7.9326,-4.7626 -6.9402,-9.5252 z m -124.42,0.7698 c -3.3796,6.7977 6.243,11.74 9.9171,5.7472 -5.5127,1.5199 -9.1356,-0.65829 -9.9467,-5.7357 z m 155.85,1.1735 c 1.1708,5.6128 -1.3518,8.7439 -6.8024,9.4366 6.1049,3.9353 11.934,-4.6939 6.7592,-9.448 h 0.0476 z m 28.954,1.6543 c -5.1017,0.83871 -6.8241,9.3935 -1.0138,11.483 -2.7984,-5.1976 -1.1301,-8.9211 3.4012,-11.291 -0.87879,-0.21064 -1.6791,-0.30338 -2.4199,-0.16943 z m -43.102,5.8387 c 0.71918,5.8474 -1.0436,8.8641 -6.7996,9.4336 5.9236,3.7008 11.977,-4.7397 6.7806,-9.445 z m -23.53,1.5542 c -6.6536,2.2352 -4.1176,12.868 2.7686,11.58 -5.1017,-3.0281 -5.7452,-7.3671 -2.7874,-11.58 z m 58.089,1.9433 c -5.3018,4.2046 -0.40273,13.718 5.7859,10.017 -5.6587,-0.92734 -6.5375,-4.8054 -5.8183,-10.006 z m 14.511,3.1083 c 2.0061,5.4552 0.8137,9.571 -4.4989,10.802 6.5996,3.051 10.52,-7.5473 4.4773,-10.79 z m 4.7827,10.029 c 1.2167,5.7014 -0.49465,9.0672 -5.8804,10.017 5.8912,4.1043 11.48,-5.9246 5.8616,-10.017 z m -39.519,14.98 c 1.0678,2.6274 3.2849,4.5508 5.3342,5.9276 1.5627,1.0503 3.2012,1.9662 4.8694,2.8278 1.7113,0.88428 2.7766,1.8661 3.6742,3.5003 0.87599,1.5856 0.8868,3.7437 0.82473,5.5441 -0.0649,1.8002 0.0519,3.6892 0.83272,4.9657 1.5437,-3.7464 1.5221,-7.9853 0.18169,-11.775 -0.64348,-1.8203 -2.1223,-2.782 -3.5797,-3.8895 -1.5735,-1.1964 -3.3904,-1.9806 -5.145,-2.8278 -1.5627,-0.74987 -2.966,-1.723 -4.3179,-2.8193 -0.84615,-0.68119 -1.6709,-1.3308 -2.6846,-1.454 z m -223.87,9.7285 c -0.35685,1.0045 -0.41097,2.0463 -0.36774,3.1083 0.0729,1.6543 0.19898,3.3086 0.27321,4.9629 0.0756,1.454 -0.2408,2.8507 -0.64351,4.1929 -0.23245,0.77277 -0.49741,1.4883 -0.7274,2.2354 1.3925,0.0458 1.9629,-0.85017 2.6605,-1.9549 0.73813,-1.1648 0.90838,-2.6073 1.0976,-3.9811 0.25415,-1.7432 -0.12756,-3.4547 -0.4542,-5.1663 -0.28375,-1.3624 -1.141,-2.3012 -1.8574,-3.3972 z m -9.7358,65.079 c 0.26496,2.6503 1.5303,4.8741 2.8415,7.1008 -3.1362,4.1902 -7.3945,7.0637 -12.399,6.125 0.98156,-4.236 3.1363,-7.6591 5.2371,-11.28 -3.8852,2.2924 -5.8399,5.3435 -7.6243,9.6252 -1.5007,0 -2.0279,0.0228 -2.4821,-0.68118 0.90847,-3.4659 3.4525,-6.5085 5.5966,-8.4632 1.5545,0.25759 3.0199,-0.1351 4.5097,-0.48084 1.5221,-0.33499 2.8956,-1.2307 4.2989,-1.9462 z m 255.01,1.265 c 0.87599,1.6658 1.7007,4.0356 0.91925,6.0361 -2.1872,5.667 -7.1403,8.4978 -12.494,7.29 1.0977,-4.4049 3.369,-7.828 5.6913,-11.483 -4.0852,2.158 -5.575,5.4323 -7.5296,9.7255 -1.0655,-0.0893 -2.1549,-0.73569 -2.3009,-1.162 2.1549,-3.3544 4.2772,-6.5172 5.7967,-10.118 3.6013,1.2307 6.4754,0.99601 9.8954,-0.31186 z"
           stroke-width="2.7818"
           id="path99" />
        <path
           transform="matrix(-0.40208,-0.76407,0.72596,-0.42319,-508.53,-511.12)"
           d="m -1818.8,421.69 c -0.031,0.081 -2.0736,0.40169 -3.4941,-2.355 -0.6289,-1.2221 -0.9394,-2.7612 -0.7458,-4.4264 v -0.0419 c 0.1868,-1.6828 0.8411,-3.1221 1.7253,-4.1765 1.9438,-2.3296 3.83,-1.6295 3.8456,-1.5241 0.051,0.3413 -1.4801,0.81512 -2.5384,2.4945 -0.5727,0.90804 -0.9782,2.0562 -1.1434,3.4242 v 0.0341 c -0.1422,1.355 -0.01,2.5503 0.3524,3.5507 0.6695,1.892 2.1214,2.6948 1.997,3.0206 z"
           id="path101" />
        <path
           transform="matrix(-0.41863,-0.91382,0.75585,-0.50613,-528.43,-769.03)"
           d="m -1818.8,421.69 c 0.1714,-0.44882 -1.1709,-1.3484 -1.4373,-2.894 -0.1888,-0.82139 -0.108,-1.7838 0.1909,-2.8999 0.023,-0.0751 0.048,-0.15045 0.074,-0.22602 0.5902,-1.7287 1.5646,-3.015 2.448,-3.8357 0.8539,-0.79327 1.6449,-1.176 1.5899,-1.5468 -0.048,-0.32095 -1.0148,-0.66097 -2.5426,-0.044 -1.5026,0.60678 -3.2783,2.139 -4.0364,4.6107 -0.033,0.10741 -0.063,0.21499 -0.091,0.32262 -0.4524,1.5565 -0.3267,3.1158 0.2291,4.382 1.412,3.0271 3.5646,2.1606 3.5758,2.1311 z"
           id="path103" />
      </g>
      <path
         d="m 28.616748,66.542601 c 0.83444,1.217885 2.572193,0.80304 3.970933,0.950455 1.60355,0.169017 3.675623,-5.43592 4.49566,-5.776397 1.609124,-0.668065 3.864071,-2.895166 3.327989,-3.318227"
         fill="none"
         stroke="#000000"
         stroke-linecap="round"
         stroke-width="0.338847"
         id="path107" />
      <path
         d="m 34.727022,60.804111 c 0.0215,0.05418 -0.156119,0.251719 -0.535018,0.410674 -0.37243,0.156222 -0.945329,0.263449 -1.540811,0.03001 -0.126272,-0.04957 -0.246325,-0.111704 -0.358989,-0.18563 -0.310796,-0.193437 -0.522265,-0.522583 -0.570687,-0.883324 -0.06261,-0.996652 0.607838,-0.831213 0.516672,-0.945083 0.04967,0.06216 -0.306497,0.457297 -0.170311,0.873404 0.03694,0.200219 0.200157,0.369514 0.428762,0.525788 0.09079,0.058 0.187216,0.107446 0.289653,0.148104 0.475618,0.188594 0.97793,0.147018 1.330845,0.09006 0.359114,-0.05796 0.58298,-0.131156 0.609758,-0.06399 z"
         id="path109"
         style="stroke-width:0.242743" />
      <path
         d="m 17.16066,41.807642 c -0.634053,1.68339 -0.146518,2.875264 0.11354,3.401207 -0.465099,1.1908 0.01878,1.507319 -0.02317,2.272511 -0.343523,0.6647 -0.481733,1.370035 0.25342,2.50056 -0.03465,0.939729 -0.261226,1.944848 1.004625,2.384346 0.311652,1.714672 0.780716,2.161473 1.914806,2.720845 l 0.430995,0.5739"
         fill="#e7e7e7"
         stroke="#000000"
         stroke-linecap="round"
         stroke-linejoin="round"
         stroke-width="0.576028"
         id="path111" />
      <path
         d="m 26.811935,64.372068 c -0.04237,-0.07142 -0.363351,0.02582 -0.62896,-0.09797 -0.14777,-0.05907 -0.278592,-0.171334 -0.401483,-0.330781 -0.0083,-0.01106 -0.01461,-0.0226 -0.02296,-0.03421 -0.172607,-0.265125 -0.225829,-0.538727 -0.223137,-0.750615 0.0021,-0.204811 0.05698,-0.357674 -0.0042,-0.388645 -0.05406,-0.02676 -0.239938,0.07553 -0.3631,0.357983 -0.121054,0.277796 -0.144013,0.691409 0.114793,1.058253 0.01044,0.01586 0.02296,0.0315 0.03486,0.04675 0.166345,0.227446 0.414339,0.372747 0.67926,0.426032 0.645094,0.115523 0.819036,-0.282161 0.81626,-0.286847 z"
         id="path113"
         style="stroke-width:0.189054" />
      <path
         d="M 71.229328,13.331594 6.2040445,76.794777 c -0.526251,0.496134 -0.543575,1.327347 -0.0384,1.844968 0.50513,0.51763 1.336522,0.520636 1.845367,0.0069 L 73.123871,15.0959 Z"
         fill="#eac102"
         stroke="#000000"
         id="path115"
         style="stroke-width:0.198994" />
      <path
         d="m 13.536986,62.166724 c -0.689216,0.404912 -1.491931,0.56325 -2.061595,1.184054 -0.521368,0.491534 -0.752122,1.234241 -0.733317,1.959832 -0.0063,1.007507 0.224869,1.997901 0.127942,3.009983 -0.03527,1.428421 -0.334068,2.827905 -0.331918,4.258474 0.08182,0.671464 0.529424,1.196591 0.878561,1.72627 0.176363,0.287051 0.182833,0.763188 0.504128,0.925543 0.342709,0.06431 0.657971,-0.202766 0.958749,-0.342867 0.266862,-0.157788 0.657429,-0.496091 0.367421,-0.820729 -0.475034,-0.535932 -0.27544,-1.325898 -0.519156,-1.96435 -0.123767,-0.374208 -0.350765,-0.716497 -0.642944,-0.963669 0.03527,-1.512712 -0.06721,-3.101123 0.525688,-4.505026 0.226476,-0.602574 1.15396,-0.750784 1.473564,-1.282755 0,0 14.74008,1.45761 14.53193,1.050411 -0.197235,-0.350509 6.291207,-8.664799 2.091441,-9.981146 0.647869,0.446744 -1.634983,4.284742 -3.43364,4.647308 -1.185204,0.238973 -2.349328,0.518001 -4.143268,0.636123 -3.305489,0.186006 -8.397341,0.05806 -9.593691,0.462462 z"
         fill="#e7e7e7"
         stroke-width="0.553562"
         id="path117" />
      <path
         d="m 23.132472,61.703067 c 0,0 2.655762,-0.149084 4.143246,-0.848053 1.487485,-0.698965 3.953213,-1.977065 3.43364,-4.435378"
         fill="none"
         stroke="#000000"
         stroke-linecap="round"
         stroke-width="0.338847"
         id="path119" />
      <g
         transform="matrix(0.07925337,0.08154179,-0.08154179,0.07925337,112.25792,-51.40117)"
         id="g123">
        <path
           d="m 147.72,565.22 9.5463,8.0527 c 0.0241,11.309 0.0427,22.62 0.0546,33.93 -11.308,0.0612 -22.615,0.14542 -33.923,0.26318 l -8.0527,-9.871 v 42.102 l 8.0527,-9.5463 c 11.302,-0.14998 21.283,-0.24418 32.586,-0.27578 -0.0317,11.302 1.081,33.943 1.081,33.943 h 22.685 c 0,0 0.20186,-22.616 0.26318,-33.923 11.31,0.0122 22.62,0.0306 33.93,0.0546 l 8.0493,9.5463 v -42.102 l -8.0493,9.871 c -11.287,-0.10693 -22.575,-0.13475 -33.862,-0.12985 0.005,-11.287 -0.0231,-22.574 -0.12984,-33.862 l 9.871,-8.0527 z"
           fill="#eac102"
           stroke="#000000"
           stroke-linecap="round"
           stroke-linejoin="round"
           stroke-width="1.75"
           id="path121" />
      </g>
      <g
         transform="matrix(0.16513919,0,0,0.17481827,222.41506,-34.100628)"
         id="g131">
        <g
           transform="translate(2.4749,2.1213)"
           id="g127">
          <path
             d="m -1277.5,623.7 c -0.4595,1.2349 0.355,2.4304 0.6613,3.6001 1.883,5.3722 4.7729,10.526 9.0865,14.305 0.8275,0.9938 2.3553,0.72664 3.1307,-0.17984 1.0816,-0.88928 1.6681,-2.2381 1.7953,-3.5999 0.6611,0.85019 1.9969,1.3618 2.8635,0.52127 0.8244,-0.81448 0.9026,-2.0885 1.3097,-3.144 0.4952,-1.821 1.1338,-3.639 1.2836,-5.5351 -0.1277,-1.502 -1.1825,-2.6976 -1.8831,-3.9715 -1.9448,-2.9126 -4.5055,-5.4473 -7.4181,-7.3921 -0.9156,-0.63855 -2.0625,-0.17984 -2.7497,0.58304 -1.9973,1.7562 -4.2745,3.3361 -6.9233,3.8313 -0.5082,0.15378 -0.8632,0.5343 -1.1564,0.9938 z"
             fill="#f5f5f5"
             stroke-width="3.2579"
             id="path125" />
        </g>
        <path
           d="m -1268.4,551.16 c -4.6719,1.3128 -8.591,3.5642 -11.81,7.1935 -1.3488,1.5117 -2.2904,3.3588 -2.929,5.2549 -1.7168,5.1801 -0.5603,10.487 0.1278,15.817 0.4594,3.463 0.026,6.949 -0.1538,10.448 -0.2898,5.3334 -1.1956,10.64 -1.756,15.948 -0.2801,2.6095 -0.2671,5.2288 0.4072,7.7374 0.7397,2.7236 2.6228,4.6948 4.5579,6.6822 1.4628,2.7593 2.1894,5.8643 3.0169,8.855 2.2251,8.1219 6.6658,12.624 12.787,18.111 1.8735,-1.2967 3.6523,-2.4956 3.4242,-5.0008 0.8927,1.0425 1.6812,1.5377 2.4305,1.3097 0.9057,-0.25282 1.808,-2.0851 2.2902,-3.499 0.7527,-2.2024 1.3261,-4.4667 1.8865,-6.7309 l 0.2898,-1.4791 c -2.4435,-5.8643 -7.7734,-10.702 -12.38,-13.54 -0.7656,-0.46915 -1.1468,-1.1567 -1.388,-1.9222 -0.8405,-2.7726 2.0106,-5.7764 1.3231,-8.614 -0.5961,-2.4304 -2.2251,-4.1245 -3.9452,-5.8546 -0.1278,-4.1602 0.1667,-8.3369 0.3192,-12.484 0.1407,-3.6129 0.9415,-7.1023 1.9483,-10.549 0.6972,-2.3554 2.199,-4.3036 3.854,-6.0076 4.4178,-4.5447 85.65,6.9189 92.815,2.8332 -8.1626,-2.2169 -83.387,-7.381 -84.227,-7.1399 0,0 -8.8908,0.0292 -10.699,1.6973 -2.5965,2.4174 -3.9583,5.5221 -5.066,8.8191 -1.0947,3.271 -1.5021,6.6952 -1.7822,10.106 -0.4332,5.2421 -0.2672,9.6599 -0.2802,14.407 2.0754,1.2088 3.3492,2.8996 4.0594,5.0758 0.8535,2.5967 -1.9842,5.4473 -1.5511,8.1057 0.2901,1.7562 1.4629,2.7106 2.5576,3.9455 -1.7562,2.0621 -4.1376,2.8148 -6.643,3.5642 -0.4333,-1.9092 -1.2608,-3.6262 -2.0231,-5.4082 -1.9091,-1.8961 -3.4242,-3.9194 -4.4178,-6.3759 -0.8275,-2.0621 -0.5082,-4.2906 -0.3062,-6.4538 0.5114,-5.3039 1.2477,-10.575 1.668,-15.905 0.2803,-3.5642 0.8145,-7.1023 0.3063,-10.64 -0.6875,-4.773 -1.4139,-9.2916 -0.6256,-13.986 0.2933,-1.7298 1.0458,-3.1928 2.0265,-4.5937 0.6613,-0.96747 1.4888,-1.8471 2.3523,-2.5573 2.5703,-2.1633 5.8543,-3.284 9.1383,-4.2387 5.0889,-2.8506 34.982,-3.8362 34.982,-3.8362 l 0.012,-2.375 c 0,0 -27.543,-0.99619 -36.597,3.2825 z m 36.584,-0.90748 c 1.3017,0.22192 11.882,0.57325 14.891,-2e-4 5.8904,-1.1304 8.7519,2.8172 10.188,-3.1904 -4.5842,1.2081 -6.92,-0.23093 -11.96,0.79857 -7.3102,0.1814 -13.22,-0.15181 -13.107,0.017 m -37.144,10.258 c -1.2216,0.90258 -2.0003,2.0494 -2.7366,3.346 -0.8275,1.4661 -1.5539,2.6877 -2.5834,3.8834 -0.9547,1.1077 -2.0624,2.01 -2.929,3.1797 -0.417,0.59946 -0.4691,1.212 -0.7363,1.808 5.0792,0.0521 10.207,-8.614 8.9853,-12.204 z m 3.0138,64.155 c 3.8835,2.6194 6.6949,5.6884 8.7312,9.8619 -0.4334,2.5704 -1.2479,5.066 -2.0102,7.5193 -3.6912,-3.1537 -6.0433,-7.4184 -8.3239,-11.644 -0.088,4.926 1.795,8.6432 4.8379,12.295 -0.3062,1.997 -1.1208,2.3162 -1.7202,2.8636 -5.0759,-4.2254 -7.8646,-9.9268 -9.7738,-16.101 3.3721,-0.71335 5.8677,-2.4304 8.285,-4.7858 z"
           stroke-width="3.2579"
           id="path129" />
      </g>
      <path
         d="m 15.107038,68.138534 -8.9004055,8.653254 c -0.526022,0.495402 -0.544326,1.32564 -0.0407,1.843739 0.50369,0.518102 1.334122,0.523198 1.844136,0.01127 L 16.910473,69.99354"
         fill="#eac102"
         stroke="#000000"
         id="path133"
         style="stroke-width:0.198994" />
      <g
         transform="matrix(0.17481827,0,0,0.17481827,418.76248,-22.562953)"
         stroke="#000000"
         id="g139">
        <path
           d="m -2052,267.99 60.311,-58.94 c 51.309,36.243 71.173,103.85 138.28,137.62 -24.073,8.8438 -54.596,-2.266 -79.953,-7.5356 13.686,33.185 36.27,57.895 56.618,69.761 -65.554,13.263 -114.25,-98.76 -175.26,-140.9 z"
           fill="#e7e7e7"
           stroke-width="1.1383"
           id="path135" />
        <path
           transform="translate(35.279,5.6526)"
           d="m -2051.3,227.11 -10.152,9.7988 c 18.486,14.382 35.924,31.923 49.473,50.828 l -25.232,22.943 c 3.0614,3.46 6.0887,6.9733 9.0859,10.521 0.058,-0.0492 0.1154,-0.0993 0.1719,-0.15039 l 23.936,-21.764 c 10.223,15.061 20.786,30.647 35.848,43.486 1.2541,1.096 2.86,1.7052 4.5254,1.7168 -1.7749,-3.5562 -3.4556,-7.2229 -5.0157,-11.006 3.849,0.79989 7.8423,1.7438 11.889,2.7226 -0.3078,-1.5716 -1.1488,-2.9887 -2.3809,-4.0117 -13.7,-11.678 -23.856,-26.787 -34.473,-42.359 l 25.918,-23.566 c -2.7606,-3.7395 -5.5331,-7.4648 -8.3711,-11.145 -0.1606,0.12338 -0.3157,0.25371 -0.4649,0.39063 l -25.068,22.795 c -10.367,-14.542 -32.905,-40.525 -49.688,-51.201 z"
           fill="#ed1c24"
           id="path137" />
      </g>
      <path
         d="m 28.893357,66.888852 c 0.460257,-0.07889 0.529404,1.062269 0.926357,1.220391 0.532388,0.20958 1.070829,0.439099 1.548596,0.515117 0.394553,-0.476096 0.113749,0.208443 0.782511,0.107258 0.7602,-0.08683 1.49454,-0.170457 2.225143,-0.396277 1.323206,-0.08384 2.391134,-0.951271 3.291965,-1.75654 1.230411,-0.173567 2.235307,-0.931032 2.802237,-2.067946 -1.003643,0.821906 -1.974039,1.690952 -3.070268,1.557944 -0.942991,0.990572 -1.942106,1.674476 -3.211985,1.743506 -0.789795,0.275687 -1.59754,0.399661 -2.425133,0.336003 -0.710776,-0.05399 -1.35445,-0.380438 -1.966358,-0.621041 -0.593249,-0.236067 -0.288297,-0.74991 -0.903148,-0.638373 5.509948,1.666336 -1.694508,0.323964 0,0 -1.180174,-0.307228 0.320021,0.780933 0.09288,-0.212943 -0.0063,1.241444 -2.080692,-0.817487 -0.09288,0.212943 z m 4.123357,-9.382172 c -0.79278,-0.904607 -2.37859,0.153029 -1.788827,1.372103 0.260622,-1.167655 1.004625,-1.470307 1.93021,-1.171616 -0.04738,-0.0815 -0.08996,-0.141968 -0.144013,-0.204123 z m 4.926676,6.984293 c -0.840346,0.782684 -1.530501,0.713314 -2.215981,-0.139797 -0.0862,1.491899 2.017201,1.553845 2.215396,0.14299 z m -4.4099,-0.667545 c -0.861906,0.744516 -1.567193,0.739144 -2.225749,-0.153885 -0.08453,1.498206 1.997499,1.541049 2.224163,0.155241 z m 2.824528,2.354299 c -0.841723,0.784515 -1.459663,0.61708 -2.215605,-0.139337 -0.101644,1.492694 2.037509,1.557028 2.21262,0.138857 z m -5.928629,-5.753516 c -1.467636,0.01962 -1.317884,2.035113 -0.377063,2.307934 -0.515524,-1.139539 -0.392717,-1.726333 0.377501,-2.311117 z m 6.907477,-1.11359 c -1.216845,-0.812374 -2.30316,1.091264 -1.266873,1.948789 -0.244592,-1.296885 0.22203,-1.771484 1.264598,-1.951992 z m -5.853617,6.578544 c -0.836025,0.72227 -1.49026,0.651547 -2.227147,-0.1557 -0.09622,1.474924 2.042101,1.556093 2.222785,0.153405 z m -3.48538,-4.229619 c -1.496856,-0.07036 -1.073458,2.134411 0.04905,1.747706 -0.835942,-0.660461 -0.924165,-1.12183 -0.04988,-1.752719 z"
         stroke-width="0.551951"
         id="path165" />
    </g>
  </g>
</svg>
