<?xml version="1.0" encoding="UTF-8" standalone="no"?><svg xmlns="http://www.w3.org/2000/svg" height="919.99" viewBox="0 0 736.50981 919.98635" xmlns:xlink="http://www.w3.org/1999/xlink"><defs><rect id="0" width="13.252" x="1142.15" y="575.07" rx="6.626" height="87.04" ry="6.986" stroke-linejoin="round" stroke="#000" fill="#fc0" stroke-linecap="round" stroke-width="3.08"/><path id="1" d="m1142.15 606.89l13.252-11.261" stroke-linejoin="round" stroke="#000" fill-rule="evenodd" fill="#fc0" stroke-linecap="round" stroke-width="3.08"/><path id="2" d="m1142.15 591.54l12.746-10.831" stroke-linejoin="round" stroke="#000" fill-rule="evenodd" fill="#fc0" stroke-linecap="round" stroke-width="3.08"/><path id="3" d="m1142.15 624.22l13.252-11.261" stroke-linejoin="round" stroke="#000" fill-rule="evenodd" fill="#fc0" stroke-linecap="round" stroke-width="3.08"/><path id="4" d="m1142.65 656.47l12.746-10.831" stroke-linejoin="round" stroke="#000" fill-rule="evenodd" fill="#fc0" stroke-linecap="round" stroke-width="3.08"/><use id="5" fill="#fc0" xlink:href="#7"/><path id="6" d="m2740.53 809.32c0 0-5.932 35.707-10.548 53.18-4.436 16.791-16.426 49.44-16.426 49.44" stroke="#000" fill-rule="evenodd" fill="#fc0"/><path id="7" d="m1142.15 641.54l13.252-11.261" stroke-linejoin="round" stroke="#000" fill-rule="evenodd" stroke-linecap="round" stroke-width="3.08"/></defs><g transform="translate(-758.04-126.49)"><path d="m763.54 131.99v555.53a362.75452 353.46039 0 0 0 362.7539 353.45902 362.75452 353.46039 0 0 0 362.7559 -353.45902v-555.53h-725.51" fill="#fff"/><g stroke="#000"><g stroke-linejoin="round"><path d="m1489.05 131.99c0 0-529.81 561.7-680.57 725.84a362.75452 353.46039 0 0 0 317.81052 183.15042 362.75452 353.46039 0 0 0 362.7559 -353.45902v-555.53z" fill="#007f00" fill-rule="evenodd" stroke-width="5"/><g transform="translate(5.069 20.918)" fill="#fc0" stroke-linecap="round" stroke-width="3"><rect transform="matrix(.99847.05529-.05529.99847 0 0)" rx="6.626" y="544.86" x="1116.01" height="82.55" width="13.252"/><g fill-rule="evenodd"><path d="m1081.61 652.27l13.822-9.931"/><path d="m1082.52 635.87l13.822-9.931"/><path d="m1080.7 668.68l13.822-9.931"/><path d="m1083.32 621.32l13.294-9.552"/><path d="m1080.42 682.84l13.294-9.552"/></g></g></g><path d="m763.54 131.99v555.53a362.75452 353.46039 0 0 0 362.7539 353.45902 362.75452 353.46039 0 0 0 362.7559 -353.45902v-555.53h-725.51z" fill="none" stroke-linecap="round" stroke-width="11"/></g><path d="m1015.68 287.66l-50.18 5.893-115.42 34.35c0 0 28.05 35.23 40.34 54.05 10.504 16.09 19.717 33.03 28.416 50.17 15.499 30.533 22.956 65.35 42.27 93.63 27.496 40.27 60.22 79.897 102.27 104.58 17.58 10.321 38.978 12.937 59.02 16.03 10.633 2.547 21.491 3.866 32.389 3.934 63.09-.028 119.59-41.662 141.93-104.59l35.15-75.66 46.943-101.04c0 0 12.884-11.699 18.07-18.73 2.755-3.734 6.785-12.258 6.785-12.258l-14.711-8.135.156-.301-5.057-2.406-4.914-2.717-.129.314-15.14-7.201c0 0-3.915 8.58-5.02 13.16-2.087 8.624-2.947 26.502-2.947 26.502l-46.941 101.04-3.879 8.35c-10.186-80.24-74.37-140.13-150.29-140.22-72.51.071-134.86 54.818-148.85 130.71-2.902-10.596-5.737-21.22-7.812-32-2.991-15.541-7.624-31.21-6.666-47.01 1.312-21.632 16.84-62.797 16.84-62.797zm128.7 73c61.62 0 111.58 51.639 111.58 115.34 0 63.699-49.956 115.34-111.58 115.34-61.63 0-111.58-51.638-111.58-115.34 0-63.699 49.957-115.34 111.58-115.34" fill="#000"/><g transform="matrix(.99917-.04066.03857.94765 32.49 126.8)" fill="#fc0"><use xlink:href="#0"/><path d="m1142.15 624.22l13.252-11.261" fill-rule="evenodd" stroke="#000" stroke-linejoin="round" stroke-linecap="round" stroke-width="3.08"/><use xlink:href="#1"/><use xlink:href="#7"/><use xlink:href="#2"/><path d="m1142.65 656.47l12.746-10.831" fill-rule="evenodd" stroke="#000" stroke-linejoin="round" stroke-linecap="round" stroke-width="3.08"/></g><g fill="#fc0"><g transform="matrix(.99917-.04066.03857.94765 29.78 76.83)"><use xlink:href="#0"/><use xlink:href="#3"/><use xlink:href="#1"/><use xlink:href="#7"/><use xlink:href="#2"/><use xlink:href="#4"/></g><g stroke="#000" stroke-linejoin="round" stroke-linecap="round" stroke-width="3"><rect width="13.252" height="82.55" x="1122.36" y="513.45" rx="6.626" transform="matrix(.99847.05529-.05529.99847 0 0)"/><g fill-rule="evenodd"><path d="m1089.68 621.26l13.822-9.931"/><path d="m1090.59 604.85l13.822-9.931"/><path d="m1088.77 637.66l13.822-9.931"/><path d="m1091.39 590.31l13.294-9.552"/><path d="m1088.5 651.83l13.294-9.552"/></g></g></g><g stroke-linejoin="round" stroke-linecap="round"><ellipse cx="1394.14" cy="-341" rx="22.374" ry="9.06" transform="matrix(.88949.45695-.42136.90689 0 0)" fill="#fff" stroke="#000" stroke-width="5"/><ellipse cx="682.63" cy="540.93" rx="85.21" ry="28.06" transform="matrix(.97172-.23614.49831.867 0 0)" stroke="#fff" stroke-width="5.103"/></g><g fill="#fc0"><g transform="matrix(.99587.08606-.09074.94452 19.1-66.935)"><g transform="matrix(.98395-.17846.17846.98395-8.662 207.36)"><use xlink:href="#0"/><use xlink:href="#3"/><use xlink:href="#1"/><use xlink:href="#5"/><use xlink:href="#2"/><use xlink:href="#4"/></g><use xlink:href="#0"/><use xlink:href="#3"/><use xlink:href="#1"/><use xlink:href="#7"/><use xlink:href="#2"/><use xlink:href="#4"/></g><g transform="matrix(1 0 0 .94843 0 29.656)"><g stroke="#000" stroke-linejoin="round" stroke-linecap="round" stroke-width="3.08"><rect width="13.252" height="87.04" x="1131.19" y="645.58" ry="6.985" rx="6.626" transform="matrix(.99814-.06091.06091.99814 0 0)"/><g fill-rule="evenodd"><path d="m1171.41 624.54l12.541-12.05"/><path d="m1170.35 607.25l12.541-12.05"/><path d="m1172.46 641.83l12.541-12.05"/><path d="m1169.42 591.92l12.06-11.587"/><path d="m1173.88 656.7l12.06-11.587"/></g></g><g transform="matrix(.99817.06054-.06054.99817 10.636-68.48)"><use xlink:href="#0"/><use xlink:href="#3"/><use xlink:href="#1"/><use xlink:href="#5"/><use xlink:href="#2"/><use xlink:href="#4"/></g></g><g stroke="#000" stroke-linejoin="round" stroke-linecap="round"><g transform="matrix(.99927-.03633.03831.94773 744.31 53.915)" stroke-width="3.08"><rect rx="6.626" ry="6.986" y="565.07" x="389.11" height="87.04" width="13.252"/><g fill-rule="evenodd"><path d="m389.11 614.22l13.252-11.261"/><g transform="translate(0 2.791)"><path d="m389.11 594.1l13.252-11.261"/><path d="m389.11 628.75l13.252-11.261"/></g><g transform="translate(0 1.563)"><path d="m389.11 579.97l12.746-10.831"/><path d="m389.62 644.91l12.746-10.831"/></g></g></g><g stroke-width="3"><rect transform="matrix(.99928.03804-.04228.99911 0 0)" rx="6.625" ry="6.626" y="531.44" x="1152.97" height="82.56" width="13.25"/><g fill-rule="evenodd"><path d="m1127.69 621.4l13.692-10.168"/><path d="m1128.39 604.98l13.693-10.168"/><path d="m1127 637.82l13.692-10.168"/><path d="m1129 590.43l13.17-9.78"/><path d="m1126.91 651.98l13.17-9.78"/></g></g></g><g transform="matrix(1 0 0 .94843 0 29.656)"><use xlink:href="#0"/><use xlink:href="#3"/><use xlink:href="#1"/><use xlink:href="#5"/><use xlink:href="#2"/><use xlink:href="#4"/></g><g transform="matrix(.98689.16137-.16137.98689-1504.25-499)"><path d="m2751.77 797.7c0 0-.469 1.679-.5 1.789l-22.439 9.07c0 0-6.548 34.985-11.156 52.16-3.211 11.963-9.837 23.07-11.465 35.35-.53 3.993-1.764 8.81.604 12.07 2.721 3.744 8.423 4.104 12.975 4.941 22.256 4.095 45.633 4.095 67.889 0 4.552-.837 10.254-1.198 12.975-4.941 2.368-3.258 1.133-8.08.604-12.07-1.629-12.279-8.256-23.383-11.467-35.35-4.608-17.17-11.154-52.16-11.154-52.16l-22.439-9.07c-.031-.11-.5-1.789-.5-1.789l-1.961.793z" fill-rule="evenodd" stroke="#000" stroke-linejoin="round" stroke-linecap="round" stroke-width="4" id="8"/><path d="m2753.73 810.07v106.07" fill="#fc0" fill-rule="evenodd" stroke="#000" stroke-linejoin="round" stroke-linecap="round" stroke-width="4" id="9"/><g stroke="#000" stroke-linecap="round" stroke-width="4"><path d="m2747.27 808.23c0 0-2.328 29.996-4.85 44.806-3.445 20.227-14.01 59.941-14.01 59.941" fill="#fc0" fill-rule="evenodd" stroke="#000" id="B"/><use xlink:href="#6"/><g transform="matrix(-1 0 0 1 5507.47-1.245)"><path d="m2747.27 809.7c0 0-2.328 29.996-4.85 44.806-3.445 20.227-14.01 59.941-14.01 59.941" fill-rule="evenodd" id="C"/><use xlink:href="#6"/></g></g><path d="m2753.73 754.55c0 0-6.02.076-8.322 1.811-7.214 5.436-10.439 15.375-13.488 24.14-3.102 8.913-4.592 28.06-4.592 28.06l26.402 1.51 26.4-1.51c0 0-1.49-19.15-4.592-28.06-3.05-8.764-6.274-18.703-13.488-24.14-2.303-1.735-8.32-1.811-8.32-1.811z" fill="#fc0" fill-rule="evenodd" stroke="#000" stroke-linejoin="round" stroke-linecap="butt" stroke-width="4" id="A"/></g><g transform="matrix(-.98689.16137.16137.98689 3801.79-499)"><use xlink:href="#8"/><use xlink:href="#9"/><g stroke="#000" stroke-linecap="round" stroke-width="4"><use xlink:href="#B"/><use xlink:href="#6"/><g transform="matrix(-1 0 0 1 5507.47-1.245)"><use xlink:href="#C"/><use xlink:href="#6"/></g></g><use xlink:href="#A"/></g></g></g></svg>