<?xml version="1.0" encoding="UTF-8" standalone="no"?>
<svg
   xmlns:dc="http://purl.org/dc/elements/1.1/"
   xmlns:cc="http://creativecommons.org/ns#"
   xmlns:rdf="http://www.w3.org/1999/02/22-rdf-syntax-ns#"
   xmlns:svg="http://www.w3.org/2000/svg"
   xmlns="http://www.w3.org/2000/svg"
   xmlns:sodipodi="http://sodipodi.sourceforge.net/DTD/sodipodi-0.dtd"
   xmlns:inkscape="http://www.inkscape.org/namespaces/inkscape"
   data-name="Ebene 1"
   viewBox="0 0 441.01183 510.63256"
   version="1.1"
   sodipodi:docname="Barbiano-Stemma.svg"
   inkscape:version="1.0.2-2 (e86c870879, 2021-01-15)"
   width="441.01184"
   height="510.63257"
   id="svg13">
  <metadata
     id="metadata15">
    <rdf:RDF>
      <cc:Work
         rdf:about="">
        <dc:format>image/svg+xml</dc:format>
        <dc:type
           rdf:resource="http://purl.org/dc/dcmitype/StillImage" />
        <dc:title />
      </cc:Work>
    </rdf:RDF>
  </metadata>
  <sodipodi:namedview
     id="namedview29"
     pagecolor="#505050"
     bordercolor="#eeeeee"
     borderopacity="1"
     inkscape:pageshadow="0"
     inkscape:pageopacity="0"
     inkscape:pagecheckerboard="0"
     showgrid="false"
     showguides="true"
     inkscape:guide-bbox="true"
     inkscape:snap-midpoints="true"
     inkscape:snap-smooth-nodes="true"
     inkscape:snap-intersection-paths="true"
     inkscape:object-paths="true"
     inkscape:snap-global="true"
     inkscape:zoom="0.89705216"
     inkscape:cx="-124.94726"
     inkscape:cy="195.80492"
     inkscape:window-width="1920"
     inkscape:window-height="986"
     inkscape:window-x="-11"
     inkscape:window-y="-11"
     inkscape:window-maximized="1"
     inkscape:current-layer="g950"
     fit-margin-top="5"
     lock-margins="true"
     fit-margin-left="5"
     fit-margin-right="5"
     fit-margin-bottom="5"
     inkscape:document-rotation="0" />
  <defs
     id="defs4">
    <clipPath
       id="clip0">
      <rect
         x="-202"
         y="177"
         width="403"
         height="402"
         id="rect101" />
    </clipPath>
    <clipPath
       id="clip0-7">
      <rect
         x="-2191"
         y="-2499"
         width="2325"
         height="1090"
         id="rect59" />
    </clipPath>
    <clipPath
       id="clip0-76">
      <rect
         x="1024"
         y="-568"
         width="3084"
         height="154"
         id="rect119" />
    </clipPath>
    <clipPath
       id="clip0-4">
      <rect
         x="663"
         y="-529"
         width="444"
         height="1396"
         id="rect291" />
    </clipPath>
  </defs>
  <g
     id="g857"
     inkscape:groupmode="layer"
     inkscape:label="moos_in_passeier"
     transform="translate(8.031127,5.316293)">
    <g
       id="g950"
       inkscape:label="coa"
       transform="scale(4.3786671)">
      <path
         d="M 0.13,0.67 H 97 V 68.016737 C 97,70.581469 96.567052,113.52 48.564999,113.52 0.56294673,113.52 0.0469534,70.581467 0.05,68.016737 Z"
         id="path5356"
         style="fill:#008000;fill-opacity:1;stroke:none;stroke-width:1.48447;stroke-miterlimit:4;stroke-dasharray:none"
         inkscape:label="coa-0"
         sodipodi:nodetypes="ccszsc" />
      <g
         id="g7781"
         inkscape:label="trimount" />
      <path
         d="M 0.13,0.67 H 97 V 68.016737 C 97,70.581469 96.567052,113.52 48.564999,113.52 0.56294673,113.52 0.0469534,70.581467 0.05,68.016737 Z"
         id="path2187"
         style="fill:none;fill-opacity:1;stroke:#000000;stroke-width:1.48447;stroke-miterlimit:4;stroke-dasharray:none"
         inkscape:label="coa-f"
         sodipodi:nodetypes="ccszsc" />
      <path
         style="fill:#ffffff;fill-opacity:1;stroke-width:18.0742;stroke-linecap:square;stroke-miterlimit:8"
         d="M 89.727407,84.703702 C 85.990565,83.367148 77.389708,81.511055 70.752643,80.608841 50.2884,77.827058 24.944327,79.14142 8.644401,83.829791 6.8956468,84.332779 5.4290993,84.70858 5.3854045,84.664896 c -0.043694,-0.04369 0.8779,-0.91793 2.0479859,-1.942751 C 17.129135,74.230175 28.988874,56.619461 37.034542,38.766936 42.124559,27.472688 46.173606,15.135134 47.647274,6.4296536 c 0.461703,-2.7274521 0.923597,-4.0383168 0.923597,-2.6212139 0,1.9883902 2.270283,11.4545883 4.135447,17.2431923 7.825441,24.286562 22.614734,49.121619 37.01799,62.162839 1.247705,1.129711 2.089525,2.045211 1.870748,2.034473 -0.218777,-0.01069 -1.059214,-0.256101 -1.867649,-0.545242 z"
         id="path865" />
    </g>
  </g>
</svg>
