<?xml version="1.0" encoding="UTF-8" standalone="no"?>
<!-- Created with Inkscape (http://www.inkscape.org/) -->
<svg
   xmlns:dc="http://purl.org/dc/elements/1.1/"
   xmlns:cc="http://creativecommons.org/ns#"
   xmlns:rdf="http://www.w3.org/1999/02/22-rdf-syntax-ns#"
   xmlns:svg="http://www.w3.org/2000/svg"
   xmlns="http://www.w3.org/2000/svg"
   xmlns:sodipodi="http://sodipodi.sourceforge.net/DTD/sodipodi-0.dtd"
   xmlns:inkscape="http://www.inkscape.org/namespaces/inkscape"
   width="200"
   height="200"
   id="svg2"
   sodipodi:version="0.32"
   inkscape:version="0.46"
   sodipodi:docname="Coat of Arms of Campione d'Italia.svg"
   inkscape:output_extension="org.inkscape.output.svg.inkscape"
   version="1.0">
  <defs
     id="defs4">
    <inkscape:perspective
       sodipodi:type="inkscape:persp3d"
       inkscape:vp_x="0 : 526.18109 : 1"
       inkscape:vp_y="0 : 1000 : 0"
       inkscape:vp_z="744.09448 : 526.18109 : 1"
       inkscape:persp3d-origin="372.04724 : 350.78739 : 1"
       id="perspective10" />
    <inkscape:perspective
       id="perspective2390"
       inkscape:persp3d-origin="372.04724 : 350.78739 : 1"
       inkscape:vp_z="744.09448 : 526.18109 : 1"
       inkscape:vp_y="0 : 1000 : 0"
       inkscape:vp_x="0 : 526.18109 : 1"
       sodipodi:type="inkscape:persp3d" />
  </defs>
  <sodipodi:namedview
     id="base"
     pagecolor="#ffffff"
     bordercolor="#666666"
     borderopacity="1.0"
     gridtolerance="10000"
     guidetolerance="10"
     objecttolerance="10"
     inkscape:pageopacity="0.0"
     inkscape:pageshadow="2"
     inkscape:zoom="1.4142136"
     inkscape:cx="-4.0819973"
     inkscape:cy="68.785952"
     inkscape:document-units="px"
     inkscape:current-layer="layer1"
     showgrid="false"
     showguides="true"
     inkscape:guide-bbox="true"
     inkscape:window-width="1399"
     inkscape:window-height="874"
     inkscape:window-x="37"
     inkscape:window-y="-4">
    <sodipodi:guide
       orientation="1,0"
       position="513.03572,1015.4464"
       id="guide2414" />
    <inkscape:grid
       type="xygrid"
       id="grid2466"
       visible="true"
       enabled="true"
       spacingx="5px"
       spacingy="5px" />
  </sodipodi:namedview>
  <metadata
     id="metadata7">
    <rdf:RDF>
      <cc:Work
         rdf:about="">
        <dc:format>image/svg+xml</dc:format>
        <dc:type
           rdf:resource="http://purl.org/dc/dcmitype/StillImage" />
      </cc:Work>
    </rdf:RDF>
  </metadata>
  <g
     inkscape:label="Layer 1"
     inkscape:groupmode="layer"
     id="layer1">
    <path
       id="path3395"
       d="M 175.5,60 C 173.12804,91.001102 160.08721,134.89029 99.875,177 L 99.875,60 L 175.5,60 z"
       style="fill:#da251d;fill-opacity:1;stroke:none;stroke-width:1;stroke-linecap:square;stroke-opacity:1" />
    <path
       style="fill:#fff500;fill-opacity:1;stroke:none;stroke-width:1;stroke-linecap:square;stroke-opacity:1"
       d="M 24.875,60 C 27.246963,91.001102 40.287791,134.89029 100.5,177 L 100.5,60 L 24.875,60 z"
       id="rect3390" />
    <path
       style="fill:#ffffff;fill-opacity:1;fill-rule:evenodd;stroke:#000000;stroke-width:1px;stroke-linecap:butt;stroke-linejoin:miter;stroke-opacity:1"
       d="M 78.125797,92.522926 C 73.958917,93.280536 70.748047,93.722476 69.985937,90.313213 C 69.223827,86.903948 70.218197,84.615321 70.912677,83.668303 C 65.925047,83.226361 64.678137,83.494683 63.352317,86.272603 C 62.026487,89.050522 61.705147,94.570366 67.519197,97.826226 C 70.675917,99.593986 75.347877,100.28847 78.630877,98.646976 L 78.786822,98.479669 L 80.42832,96.711902 L 83.20624,91.661139 L 78.125797,92.522926 z"
       id="path2514"
       sodipodi:nodetypes="cscssc" />
    <path
       style="fill:#ffffff;fill-opacity:1;fill-rule:evenodd;stroke:none;stroke-width:1px;stroke-linecap:butt;stroke-linejoin:miter;stroke-opacity:1"
       d="M 28.5,5 C 28.5,5 24.31731,10.30968 23.5,40 C 23.341078,45.773118 23.302457,52.516975 23.875,60 L 175.125,60 C 175.69754,52.516975 175.65892,45.773118 175.5,40 C 174.68269,10.309678 170.5,5 170.5,5 L 99.5,5 L 28.5,5 z"
       id="path3379" />
    <path
       sodipodi:nodetypes="cssscsccc"
       id="path3368"
       d="M 185.02413,140.0001 C 164.316,147.82878 166.79646,147.63113 157.3712,148.58639 C 145.77473,149.76171 144.84899,153.74323 150.06133,155.36071 C 153.24873,156.34981 160.39152,154.24145 163.93719,156.54135 C 173.2811,162.60226 139.06219,171.44109 139.06219,171.44109 C 139.06219,171.44109 158.46974,163.8902 163.89931,163.51139 C 169.32888,163.13259 184.51905,155.78373 186.41309,155.53119 C 184.89787,152.627 184.89786,150.48043 182.37248,149.34401 C 185.52921,144.92459 185.1504,139.87383 185.02413,140.0001 z"
       style="fill:none;fill-rule:evenodd;stroke:#000000;stroke-width:1px;stroke-linecap:butt;stroke-linejoin:miter;stroke-opacity:1" />
    <path
       style="fill:none;fill-rule:evenodd;stroke:#000000;stroke-width:1px;stroke-linecap:butt;stroke-linejoin:miter;stroke-opacity:1"
       d="M 13.665437,140.0001 C 34.373567,147.82878 31.893107,147.63113 41.318367,148.58639 C 52.914837,149.76171 53.840577,153.74323 48.628237,155.36071 C 45.440837,156.34981 38.298047,154.24145 34.752377,156.54135 C 25.408467,162.60226 59.627377,171.44109 59.627377,171.44109 C 59.627377,171.44109 42.107387,164.38652 36.677817,164.00771 C 31.248247,163.62891 14.170517,155.78373 12.276477,155.53119 C 13.791697,152.627 13.791707,150.48043 16.317087,149.34401 C 13.160357,144.92459 13.539167,139.87383 13.665437,140.0001 z"
       id="path3353"
       sodipodi:nodetypes="cssscsccc" />
    <path
       style="fill:#000000;fill-opacity:1;fill-rule:evenodd;stroke:#000000;stroke-width:1px;stroke-linecap:butt;stroke-linejoin:miter;stroke-opacity:1"
       d="M 37.535607,163.71045 C 33.089317,163.8003 31.704987,159.8894 33.313697,157.49712 C 33.951687,156.54838 35.727177,156.00426 36.941237,155.71172 C 42.200117,154.44454 46.746157,156.43169 50.062417,154.82082 C 48.098127,156.24939 41.950217,160.21933 45.521647,164.50504 C 49.093077,168.79076 37.357037,163.79973 37.535607,163.71045 z"
       id="path3360"
       sodipodi:nodetypes="csscsc" />
    <path
       style="fill:#ffffff;fill-opacity:1;fill-rule:evenodd;stroke:#000000;stroke-width:1px;stroke-linecap:butt;stroke-linejoin:miter;stroke-opacity:1"
       d="M 129.07537,138.48487 C 128.44402,135.20187 132.48463,124.84781 132.48463,121.31227 C 132.48463,117.77674 132.29523,116.19837 132.23209,114.43061 C 132.16896,112.66284 131.53761,106.41252 130.21179,106.47566 C 128.19148,108.49597 127.93895,110.2006 127.30692,115.85737 C 125.98616,114.51393 123.70516,113.12258 120.99415,113.04165 C 116.76413,112.91538 117.83742,118.40808 117.58488,121.37541 C 117.33235,124.34273 116.32219,123.20631 116.25906,127.62573 C 116.19592,132.04514 118.02683,133.0553 120.04713,135.45441 C 122.06744,137.85352 121.24669,138.67427 120.99415,142.96742 L 122.66451,145.75504 L 128.20022,143.79076 L 129.18236,138.79076"
       id="path3347" />
    <path
       style="fill:#796b5d;fill-opacity:1;stroke:#000000;stroke-width:0.78540617;stroke-opacity:1"
       d="M 154.95022,18.308036 C 153.63638,18.308036 152.5752,19.369198 152.57522,20.683036 C 152.57522,20.847266 152.606,20.996891 152.63772,21.151786 C 150.73777,23.285536 146.9502,28.266078 146.95022,33.995536 C 146.88709,34.121805 145.86806,39.485702 147.82522,34.245536 C 149.66645,29.315778 153.93403,23.668197 154.45022,22.995536 C 154.61457,23.031467 154.77514,23.058036 154.95022,23.058036 C 156.26406,23.058036 157.32523,21.996873 157.32522,20.683036 C 157.32522,19.369199 156.26405,18.308036 154.95022,18.308036 z"
       id="path2416" />
    <path
       style="fill:#796b5d;fill-opacity:1;stroke:#000000;stroke-width:0.78540617;stroke-opacity:1"
       d="M 164.25358,26.510696 C 163.1448,25.805861 161.67997,26.132107 160.97515,27.240892 C 160.88705,27.379489 160.83275,27.522273 160.77643,27.670009 C 158.02833,28.451458 152.16002,30.622723 149.08636,35.457937 C 148.96534,35.530631 145.2278,39.510653 149.69067,36.138328 C 153.88918,32.96577 160.52043,30.489088 161.31692,30.198336 C 161.43634,30.316828 161.55759,30.425391 161.70535,30.519316 C 162.81412,31.22415 164.27895,30.897899 164.98377,29.78912 C 165.68861,28.680347 165.36234,27.215525 164.25358,26.510696 z"
       id="path2424" />
    <path
       style="fill:#796b5d;fill-opacity:1;fill-rule:evenodd;stroke:#000000;stroke-width:1px;stroke-linecap:butt;stroke-linejoin:miter;stroke-opacity:1"
       d="M 82.664506,40.755038 C 79.271647,41.826467 66.593077,45.755038 61.414507,45.755038 C 56.235937,45.755038 50.521647,50.219324 50.878787,49.862181 C 59.807357,57.005038 63.914507,53.255038 66.235937,53.255038 C 68.557357,53.255038 69.093077,55.219324 72.307357,55.040752 C 75.521647,54.862181 79.450217,52.540752 83.200216,52.362181 C 86.950216,52.183609 85.878786,53.969324 88.557356,53.969324 C 91.235936,53.969324 91.771646,52.540752 94.271646,52.540752 C 96.771646,52.540752 95.164506,53.790752 97.664506,53.433609 C 100.16451,53.076467 99.807356,51.469324 102.48594,51.469324 C 105.16451,51.469324 104.33955,53.150536 106.28058,53.121109 C 108.51424,53.086449 108.3788,51.826466 109.98594,51.826466 C 111.59308,51.826466 113.02165,53.433609 116.05736,53.255038 C 119.09308,53.076466 130.16451,50.755038 137.30736,47.362181 C 144.45022,43.969324 147.30736,42.719324 149.27165,42.540752 C 151.23594,42.362181 153.02165,38.255038 153.02165,36.290752 C 153.02165,34.326466 147.66451,31.469324 145.34308,31.469324 C 143.02165,31.469324 135.52165,34.683609 129.45022,34.505038 C 128.79557,34.485784 128.07448,34.508051 127.30173,34.566917"
       id="path2396"
       sodipodi:nodetypes="cscssssssssssssssss" />
    <path
       style="fill:none;fill-rule:evenodd;stroke:#000000;stroke-width:1px;stroke-linecap:butt;stroke-linejoin:miter;stroke-opacity:1"
       d="M 51.593077,49.862181 C 67.307357,51.647895 96.414506,50.933609 102.30736,49.505038 C 108.20022,48.076467 110.70022,50.040752 114.98594,49.683609 C 119.27165,49.326467 136.59308,42.027359 149.09308,42.563073"
       id="path2398"
       sodipodi:nodetypes="cssc" />
    <path
       style="fill:none;fill-rule:evenodd;stroke:#000000;stroke-width:0.5;stroke-linecap:butt;stroke-linejoin:miter;stroke-opacity:1"
       d="M 56.028707,48.896958 C 65.814567,47.507999 85.386266,46.750384 88.227326,44.793214"
       id="path2482" />
    <g
       id="g2410"
       transform="translate(-382.15692,12.767858)">
      <path
         id="path2407"
         d="M 489.13616,26.889364 C 488.73982,27.599587 488.46671,27.965843 487.94643,28.612179 C 482.35481,35.558596 471.88611,36.216276 465.08928,30.66575 C 457.46427,24.438898 456.76591,12.877716 462.94643,5.3978924 C 469.80797,-2.9061296 482.46252,-3.6451386 490.625,3.1657504 C 500.26786,10.844323 504.19644,18.701466 509.37501,21.73718 C 500.00001,21.558608 491.01116,25.639364 489.13616,26.889364 z"
         style="fill:#8f5444;fill-opacity:1;fill-rule:evenodd;stroke:#000000;stroke-width:1px;stroke-linecap:butt;stroke-linejoin:miter;stroke-opacity:1" />
      <path
         id="path2400"
         d="M 476.16072,18.612179 C 476.85907,17.860103 477.51904,19.182501 477.41072,19.772893 C 477.11715,21.372818 475.09401,21.703199 473.83929,21.112179 C 471.59488,20.054982 471.22736,17.107421 472.41072,15.130036 C 474.14733,12.228144 478.12606,11.817313 480.80357,13.612179 C 484.37228,16.004452 484.82521,21.046059 482.41072,24.41575 C 479.37232,28.656163 473.25452,29.150483 469.19643,26.112179 C 464.28154,22.432385 463.74618,15.231546 467.41072,10.487179 C 471.72924,4.896106 480.01711,4.3198908 485.44643,8.612179 C 491.05207,13.043862 492.49528,20.833223 489.14285,26.840656"
         style="fill:none;fill-rule:evenodd;stroke:#000000;stroke-width:1px;stroke-linecap:butt;stroke-linejoin:miter;stroke-opacity:1" />
    </g>
    <path
       style="fill:none;fill-rule:evenodd;stroke:#000000;stroke-width:0.5;stroke-linecap:butt;stroke-linejoin:miter;stroke-opacity:1"
       d="M 136.84092,35.196764 C 129.1385,40.121258 126.99193,44.477541 126.99193,44.477541"
       id="path2426" />
    <path
       style="fill:none;fill-rule:evenodd;stroke:#000000;stroke-width:0.5;stroke-linecap:butt;stroke-linejoin:miter;stroke-opacity:1"
       d="M 128.32487,36.886078 C 120.24365,43.578339 119.99112,45.851182 119.99112,45.851182"
       id="path2428" />
    <path
       style="fill:none;fill-rule:evenodd;stroke:#000000;stroke-width:0.5;stroke-linecap:butt;stroke-linejoin:miter;stroke-opacity:1"
       d="M 115.94339,38.858567 C 109.25113,44.035599 108.74605,46.876653 108.74605,46.876653"
       id="path2430" />
    <path
       style="fill:none;fill-rule:evenodd;stroke:#000000;stroke-width:0.5;stroke-linecap:butt;stroke-linejoin:miter;stroke-opacity:1"
       d="M 144.46023,33.429927 C 136.75781,38.354421 134.61124,42.710704 134.61124,42.710704"
       id="path2432" />
    <path
       style="fill:none;fill-rule:evenodd;stroke:#000000;stroke-width:0.5;stroke-linecap:butt;stroke-linejoin:miter;stroke-opacity:1"
       d="M 121.86628,37.895301 C 115.17402,43.072333 114.66894,45.913387 114.66894,45.913387"
       id="path2436" />
    <path
       style="fill:none;fill-rule:evenodd;stroke:#000000;stroke-width:0.5;stroke-linecap:butt;stroke-linejoin:miter;stroke-opacity:1"
       d="M 127.39665,47.228252 C 129.40558,48.29968 131.14665,48.701466 131.14665,48.701466"
       id="path2438" />
    <path
       style="fill:none;fill-rule:evenodd;stroke:#000000;stroke-width:0.5;stroke-linecap:butt;stroke-linejoin:miter;stroke-opacity:1"
       d="M 122.39665,48.679144 C 124.40558,49.750572 126.14665,50.152358 126.14665,50.152358"
       id="path2444" />
    <path
       style="fill:none;fill-rule:evenodd;stroke:#000000;stroke-width:0.5;stroke-linecap:butt;stroke-linejoin:miter;stroke-opacity:1"
       d="M 117.35201,50.197001 C 119.36094,51.268429 121.10201,51.670215 121.10201,51.670215"
       id="path2446" />
    <path
       style="fill:none;fill-rule:evenodd;stroke:#000000;stroke-width:0.5;stroke-linecap:butt;stroke-linejoin:miter;stroke-opacity:1"
       d="M 132.35201,45.554144 C 134.36094,46.625572 136.10201,47.027358 136.10201,47.027358"
       id="path2448" />
    <path
       style="fill:none;fill-rule:evenodd;stroke:#000000;stroke-width:1px;stroke-linecap:butt;stroke-linejoin:miter;stroke-opacity:1"
       d="M 108.49351,50.285918 C 107.60963,51.169802 106.72574,51.674878 105.21052,50.854129"
       id="path2460" />
    <path
       style="fill:none;fill-rule:evenodd;stroke:#000000;stroke-width:1px;stroke-linecap:butt;stroke-linejoin:miter;stroke-opacity:1"
       d="M 99.275866,51.106667 C 98.202576,51.927416 97.192426,52.432492 96.371676,51.548609"
       id="path2462" />
    <path
       style="fill:none;fill-rule:evenodd;stroke:#000000;stroke-width:1px;stroke-linecap:butt;stroke-linejoin:miter;stroke-opacity:1"
       d="M 90.626436,51.611743 C 89.111206,52.811299 87.406576,52.432492 87.027766,51.864281"
       id="path2464" />
    <path
       style="fill:none;fill-rule:evenodd;stroke:#000000;stroke-width:1px;stroke-linecap:butt;stroke-linejoin:miter;stroke-opacity:1"
       d="M 68.718747,52.11682 C 70.739057,53.37951 74.337727,53.758317 76.421167,52.369358"
       id="path2470" />
    <path
       style="fill:none;fill-rule:evenodd;stroke:#000000;stroke-width:1px;stroke-linecap:butt;stroke-linejoin:miter;stroke-opacity:1"
       d="M 63.415447,52.11682 C 59.374837,52.369358 56.154977,51.99055 55.649907,51.548609 C 55.144827,51.106667 55.018557,51.106667 55.018557,51.106667"
       id="path2472" />
    <path
       style="fill:#ffffff;fill-opacity:1;fill-rule:evenodd;stroke:#000000;stroke-width:1px;stroke-linecap:butt;stroke-linejoin:miter;stroke-opacity:1"
       d="M 81.977006,77.118095 C 85.323136,81.22184 82.418946,93.533076 78.062667,89.176791 C 77.873257,92.270386 77.999527,93.785616 79.830427,94.795766 C 78.449257,96.683276 78.220507,99.814956 80.272367,102.56132 C 81.535056,98.394436 82.924016,94.353826 85.765076,92.459786 C 88.606126,90.565751 90.404576,86.345821 90.500166,81.853185 C 90.563296,78.948996 90.184496,75.476597 87.469706,72.067332 L 87.373119,72.089434 L 77.77667,69.94286 L 81.977006,77.118095 z"
       id="path2512"
       sodipodi:nodetypes="ccccssc" />
    <path
       style="fill:#ffffff;fill-opacity:1;fill-rule:evenodd;stroke:#000000;stroke-width:1px;stroke-linecap:butt;stroke-linejoin:miter;stroke-opacity:1"
       d="M 59.753647,66.764031 C 65.877697,64.112381 76.294897,65.690744 80.840577,67.58478 C 85.386266,69.478816 88.858666,67.837319 91.131506,66.637762 C 89.742546,72.256736 85.638806,73.266888 83.618496,72.888081 C 83.365966,74.466445 82.292676,77.496902 80.272367,78.822728 C 78.630877,75.350328 73.327577,68.847471 63.036647,73.203754 L 63.003189,72.973317 L 59.720193,73.478393 L 57.321081,70.826743 L 59.753647,66.764031 z"
       id="path2510" />
    <path
       style="fill:#ffffff;fill-rule:evenodd;stroke:#000000;stroke-width:1px;stroke-linecap:butt;stroke-linejoin:miter;stroke-opacity:1"
       d="M 55.198157,91.527706 C 54.138997,88.303965 54.496067,79.446367 58.554087,77.370633 C 63.040177,75.075934 65.120087,75.918539 65.120087,75.918539 C 62.941597,73.173638 61.914597,71.667608 60.240867,70.778397 C 59.670377,68.2144 59.774367,65.637632 58.112147,63.417901 C 57.038867,66.448359 55.902437,70.552104 53.061387,73.645696 C 50.220337,76.739288 46.874207,84.062894 48.452567,91.765306 L 52.522856,95.954288 L 56.437197,94.439059 L 55.198157,91.527706 z"
       id="path2508"
       sodipodi:nodetypes="cscccsc" />
    <path
       style="fill:#ffffff;fill-rule:evenodd;stroke:#000000;stroke-width:1px;stroke-linecap:butt;stroke-linejoin:miter;stroke-opacity:1"
       d="M 75.253787,148.88004 C 75.253787,148.88004 75.253787,114.50504 75.253787,110.84433 C 75.253787,107.18361 73.825217,102.18361 66.146647,100.57647 C 58.468077,98.969326 60.164507,89.415752 60.164507,89.415752 C 57.753787,92.183606 55.242027,89.999119 54.003787,92.808606 C 52.039507,92.808606 52.218077,91.112176 50.075217,91.201466 C 47.932357,91.290756 46.325217,94.415756 46.325217,94.415756 C 51.146647,97.005036 53.378787,101.46933 56.146647,103.5229 C 58.914507,105.57647 67.396647,107.18361 67.396647,113.79076 C 67.396647,120.3979 67.396647,131.55861 67.396647,135.93361 C 67.396647,140.30861 68.468077,148.88004 75.253787,148.88004 z"
       id="path2504"
       sodipodi:nodetypes="cssccccsssc" />
    <path
       style="fill:#955f4f;fill-opacity:1;fill-rule:evenodd;stroke:#000000;stroke-width:1px;stroke-linecap:butt;stroke-linejoin:miter;stroke-opacity:1"
       d="M 118.91071,153.19521 C 124.97162,152.18506 131.22194,146.50295 131.34821,142.27294 C 131.47448,138.04292 129.20164,138.61114 129.20164,138.61114 C 126.99193,141.01025 121.49922,143.09369 120.04713,143.21996 C 120.02687,145.25814 119.97578,148.80869 118.91071,153.19521 z"
       id="path2518"
       sodipodi:nodetypes="csccc" />
    <path
       style="fill:none;fill-rule:evenodd;stroke:#000000;stroke-width:1px;stroke-linecap:butt;stroke-linejoin:miter;stroke-opacity:1"
       d="M 127.56014,119.3551 C 128.50716,120.55466 130.21179,125.16348 126.54999,122.76437 C 122.88818,120.36526 121.12042,121.18601 121.12042,121.18601"
       id="path2522"
       sodipodi:nodetypes="csc" />
    <path
       style="fill:none;fill-rule:evenodd;stroke:#000000;stroke-width:1px;stroke-linecap:butt;stroke-linejoin:miter;stroke-opacity:1"
       d="M 126.92879,123.08004 C 128.69656,124.469 130.17223,128.03188 126.10805,126.64714 C 124.23644,126.00945 123.52795,124.95071 120.80474,125.48643"
       id="path2524"
       sodipodi:nodetypes="csc" />
    <path
       style="fill:none;fill-rule:evenodd;stroke:#000000;stroke-width:1px;stroke-linecap:butt;stroke-linejoin:miter;stroke-opacity:1"
       d="M 121.51772,129.21585 C 123.34862,128.14256 132.64247,133.3394 126.77095,126.83655"
       id="path2526"
       sodipodi:nodetypes="cc" />
    <path
       style="fill:none;fill-rule:evenodd;stroke:#000000;stroke-width:1px;stroke-linecap:butt;stroke-linejoin:miter;stroke-opacity:1"
       d="M 117.64802,118.9763 C 117.64802,118.9763 120.55221,114.62001 124.71909,117.7136 C 128.88597,120.8072 128.44402,118.72376 128.50716,117.90301 C 128.52983,117.60828 128.15751,116.69141 127.41785,115.91749"
       id="path2520"
       sodipodi:nodetypes="cssc" />
    <rect
       style="fill:#ffffff;fill-opacity:1;stroke:#000000;stroke-width:0.5;stroke-opacity:1"
       id="rect2530"
       width="12.879445"
       height="6.0609155"
       x="65.18322"
       y="111.84209"
       ry="3.0304577" />
    <path
       style="fill:none;fill-rule:evenodd;stroke:#000000;stroke-width:1px;stroke-linecap:butt;stroke-linejoin:miter;stroke-opacity:1"
       d="M 121.49922,113.23105 L 121.49922,99.088916 L 128.31775,99.088916 L 128.31775,109.44298"
       id="path2534" />
    <path
       style="fill:#800000;fill-opacity:1;fill-rule:evenodd;stroke:#000000;stroke-width:1;stroke-linecap:round;stroke-linejoin:miter;stroke-opacity:1"
       d="M 146.10647,84.901786 C 143.0927,84.571509 139.48352,86.043751 135.82522,88.151786 C 132.16692,90.259821 128.57417,93.085826 126.10647,96.026786 C 125.71439,96.427986 125.57891,97.014426 125.75529,97.546946 C 125.93166,98.079466 126.39041,98.469096 126.94446,98.556936 C 127.49852,98.644766 128.05528,98.416146 128.38772,97.964286 C 130.52884,95.412536 133.94402,92.693896 137.32522,90.745536 C 140.70642,88.797177 144.16767,87.726986 145.76272,87.901786 C 147.73932,88.118399 149.17561,88.91113 150.01272,89.808036 C 150.84983,90.704942 151.03008,91.623386 150.88772,92.089286 C 150.64621,92.619206 150.73321,93.241026 151.11089,93.684316 C 151.48858,94.127596 152.08868,94.312246 152.65024,94.157956 C 153.21179,94.003666 153.6333,93.538316 153.73147,92.964286 C 154.28359,91.157336 153.57281,89.247425 152.20022,87.776786 C 150.82763,86.306147 148.7387,85.190249 146.10647,84.901786 z"
       id="path3306" />
    <path
       style="fill:#800000;fill-opacity:1;fill-rule:evenodd;stroke:#000000;stroke-width:1;stroke-linecap:round;stroke-linejoin:miter;stroke-opacity:1"
       d="M 127.16897,65.276786 C 124.88922,65.276786 121.87577,65.933854 119.26272,67.808036 C 116.64967,69.682218 114.55965,72.935086 114.70022,77.433036 C 114.96568,85.927713 118.71199,92.313826 122.91897,98.433036 C 123.39359,99.114766 124.33099,99.282656 125.01272,98.808036 C 125.69445,98.333416 125.86234,97.396016 125.38772,96.714286 C 121.26089,90.711657 117.93984,85.007049 117.70022,77.339286 C 117.58823,73.756014 119.04851,71.654349 121.01272,70.245536 C 122.97693,68.836723 125.53438,68.276786 127.16897,68.276786 C 128.62612,68.276787 130.70083,69.091765 132.45022,70.214286 C 134.19961,71.336807 135.68312,72.842039 135.98147,73.339286 C 136.40431,74.05553 137.32773,74.293379 138.04397,73.870536 C 138.76021,73.447693 138.99806,72.52428 138.57522,71.808036 C 137.73715,70.411247 136.11391,68.991194 134.07522,67.683036 C 132.03653,66.374878 129.62613,65.276787 127.16897,65.276786 z"
       id="path3308" />
    <path
       style="fill:#800000;fill-opacity:1;fill-rule:evenodd;stroke:#000000;stroke-width:1;stroke-linecap:round;stroke-linejoin:miter;stroke-opacity:1"
       d="M 114.07522,65.526786 C 112.03922,65.348983 110.25938,65.781291 108.85647,66.464286 C 106.05065,67.830276 104.57522,70.120536 104.57522,70.120536 C 104.12649,70.819521 104.32936,71.74993 105.02834,72.198661 C 105.72733,72.647392 106.65774,72.444521 107.10647,71.745536 C 107.10647,71.745536 108.17656,70.121773 110.16897,69.151786 C 112.16138,68.181799 114.93752,67.734979 119.13772,70.651786 C 123.20784,73.478256 124.66496,77.917519 124.98147,83.026786 C 125.29798,88.136053 124.36843,93.744846 123.79397,98.276786 C 123.68313,98.827816 123.88961,99.394586 124.32894,99.745176 C 124.76826,100.09577 125.36671,100.17137 125.87942,99.941026 C 126.39213,99.710686 126.73306,99.213076 126.76272,98.651786 C 127.32466,94.218626 128.32788,88.431322 127.98147,82.839286 C 127.63506,77.24725 125.84647,71.67002 120.82522,68.183036 C 118.37964,66.484715 116.11122,65.704589 114.07522,65.526786 z"
       id="path3310" />
    <path
       style="fill:#800000;fill-opacity:1;fill-rule:evenodd;stroke:#000000;stroke-width:1;stroke-linecap:round;stroke-linejoin:miter;stroke-opacity:1"
       d="M 139.23147,72.308036 C 137.77679,72.563243 136.4132,73.07599 135.20022,73.808036 C 132.77427,75.272128 130.87812,77.534876 129.35647,80.151786 C 126.31316,85.385606 124.69315,92.123016 123.79397,97.839286 C 123.66453,98.659086 124.22417,99.428596 125.04397,99.558036 C 125.86377,99.687476 126.63328,99.127836 126.76272,98.308036 C 127.63129,92.786366 129.24829,86.298519 131.95022,81.651786 C 133.30119,79.328419 134.9192,77.483122 136.76272,76.370536 C 138.60624,75.25795 140.68064,74.801626 143.32522,75.308036 C 148.95309,76.385717 150.86527,78.46717 151.57522,80.151786 C 151.93019,80.994094 151.97916,81.816415 151.91897,82.433036 C 151.88887,82.741347 151.84772,82.984437 151.79397,83.151786 C 151.74022,83.319135 151.61051,83.434432 151.79397,83.214286 C 151.25894,83.852865 151.34289,84.80426 151.98147,85.339286 C 152.62005,85.874312 153.57144,85.790365 154.10647,85.151786 C 154.44776,84.742236 154.51341,84.476337 154.63772,84.089286 C 154.76203,83.702235 154.86818,83.234616 154.91897,82.714286 C 155.02056,81.673626 154.90148,80.362936 154.32522,78.995536 C 153.17269,76.260735 150.12911,73.565701 143.88772,72.370536 C 142.24269,72.05553 140.68615,72.052829 139.23147,72.308036 z"
       id="path3312" />
    <path
       style="fill:#800000;fill-opacity:1;fill-rule:evenodd;stroke:#000000;stroke-width:1;stroke-linecap:round;stroke-linejoin:miter;stroke-opacity:1"
       d="M 140.95022,63.308036 C 138.11671,63.285725 135.48039,65.23445 132.91897,67.401786 C 132.46711,67.734222 132.23849,68.290989 132.32632,68.845041 C 132.41416,69.399094 132.80379,69.857845 133.33631,70.034219 C 133.86883,70.210593 134.45527,70.075117 134.85647,69.683036 C 137.21958,67.683493 139.74343,66.29878 140.91897,66.308036 C 141.50674,66.312664 141.74425,66.400976 142.13772,67.026786 C 142.53119,67.652596 142.92253,68.967406 142.98147,71.089286 C 143.03005,72.83814 142.11104,74.848256 140.48147,76.964286 C 138.8519,79.080316 136.5846,81.24414 134.23147,83.339286 C 131.87834,85.434432 129.43572,87.449592 127.51272,89.370536 C 125.58972,91.291476 124.03356,93.072586 123.79397,95.276786 C 123.70768,96.105216 124.30929,96.846746 125.13772,96.933036 C 125.96615,97.019326 126.70768,96.417716 126.79397,95.589286 C 126.87005,94.889306 127.8634,93.267966 129.63772,91.495536 C 131.41204,89.723111 133.80248,87.724153 136.20022,85.589286 C 138.59796,83.454419 141.00969,81.206125 142.85647,78.808036 C 144.70325,76.409947 146.05916,73.823618 145.98147,71.026786 C 145.91414,68.602979 145.51846,66.784126 144.66897,65.433036 C 143.81948,64.081946 142.36698,63.319191 140.95022,63.308036 z"
       id="path3314" />
    <rect
       style="fill:#ffffff;fill-opacity:1;stroke:#000000;stroke-width:1;stroke-opacity:1"
       id="rect2532"
       width="12.879445"
       height="6.0609155"
       x="118.21621"
       y="95.805923"
       ry="3.0304577" />
    <path
       style="fill:none;fill-rule:evenodd;stroke:#000000;stroke-width:1px;stroke-linecap:butt;stroke-linejoin:miter;stroke-opacity:1"
       d="M 151.04619,91.828446 C 151.42499,90.313213 153.76097,90.565751 153.88724,91.133966"
       id="path3336" />
    <path
       style="fill:none;fill-rule:evenodd;stroke:#000000;stroke-width:1px;stroke-linecap:butt;stroke-linejoin:miter;stroke-opacity:1"
       d="M 151.8038,83.17901 C 152.94022,81.600647 154.70799,82.358261 154.64486,83.368414"
       id="path3338" />
    <path
       style="fill:none;fill-rule:evenodd;stroke:#000000;stroke-width:1px;stroke-linecap:butt;stroke-linejoin:miter;stroke-opacity:1"
       d="M 132.98971,67.269108 C 134.2524,66.700897 136.84092,67.900453 135.8939,68.784337"
       id="path3340" />
    <path
       style="fill:none;fill-rule:evenodd;stroke:#000000;stroke-width:1px;stroke-linecap:butt;stroke-linejoin:miter;stroke-opacity:1"
       d="M 104.70544,69.983893 C 105.71559,68.97374 107.79903,69.731355 107.29395,71.309718"
       id="path3342"
       sodipodi:nodetypes="cc" />
    <path
       sodipodi:nodetypes="csscsc"
       id="path3370"
       d="M 161.15396,163.71045 C 165.60025,163.8003 166.98458,159.8894 165.37587,157.49712 C 164.73788,156.54838 162.96239,156.00426 161.74833,155.71172 C 156.48945,154.44454 151.94341,156.43169 148.62715,154.82082 C 150.59144,156.24939 156.73935,160.21933 153.16792,164.50504 C 149.59649,168.79076 161.33253,163.79973 161.15396,163.71045 z"
       style="fill:#000000;fill-opacity:1;fill-rule:evenodd;stroke:#000000;stroke-width:1px;stroke-linecap:butt;stroke-linejoin:miter;stroke-opacity:1" />
    <path
       id="path3355"
       style="fill:#ffffff;fill-opacity:1;fill-rule:evenodd;stroke:#000000;stroke-width:1px;stroke-linecap:butt;stroke-linejoin:miter;stroke-opacity:1"
       d="M 100.51142,196.84148 C 104.80458,196.84148 115.6953,194.84794 122.0763,191.79072 C 131.03691,187.49757 146.06742,183.20442 156.92656,182.69935 C 161.4836,182.4874 168.72531,181.0765 170.19223,177.62815 C 174.94841,171.24612 165,170 163.7451,163.73868 C 135.9659,163.73868 110.96462,181.16381 100.51142,180.65874 C 90.058226,181.16381 65.056947,163.73868 37.277747,163.73868 C 33.052337,165.94324 32.874487,172.67214 34.972997,179.29628 C 35.751637,181.75414 39.725927,182.42405 44.096287,182.69935 C 54.945667,183.38278 69.985937,187.49757 78.946547,191.79072 C 85.327546,194.84794 96.218276,196.84148 100.51142,196.84148 z"
       sodipodi:nodetypes="cssccccsssc" />
    <path
       style="font-size:8.80000019px;font-style:normal;font-variant:normal;font-weight:normal;font-stretch:normal;text-align:start;line-height:100%;writing-mode:lr-tb;text-anchor:start;fill:#000000;fill-opacity:1;stroke:none;stroke-width:1px;stroke-linecap:butt;stroke-linejoin:miter;stroke-opacity:1;font-family:DejaVu Serif;-inkscape-font-specification:DejaVu Serif"
       d="M 44.103977,176.50544 C 43.894687,177.09738 43.562227,177.53966 43.106587,177.8323 C 42.650947,178.12494 42.082437,178.25969 41.401057,178.23653 C 40.983067,178.22233 40.597577,178.13758 40.244577,177.98227 C 39.891567,177.82697 39.580937,177.60575 39.312667,177.31861 C 39.002907,176.98706 38.776947,176.61466 38.634787,176.20139 C 38.492617,175.78812 38.430287,175.32382 38.447797,174.80849 C 38.481647,173.8122 38.796677,173.01821 39.392897,172.42652 C 39.989107,171.83484 40.758167,171.555 41.700077,171.58699 C 42.049347,171.59887 42.419977,171.65732 42.811957,171.76235 C 43.203917,171.86739 43.624347,172.02069 44.073237,172.22224 L 44.023047,173.69952 L 43.537777,173.68303 C 43.450127,173.1412 43.251027,172.73746 42.940477,172.47181 C 42.629907,172.20617 42.186907,172.06357 41.611457,172.04401 C 40.927217,172.02077 40.400787,172.2458 40.032157,172.7191 C 39.663527,173.1924 39.463217,173.90001 39.431207,174.84191 C 39.399307,175.78095 39.551177,176.49908 39.886837,176.99631 C 40.222487,177.49355 40.732427,177.75379 41.416677,177.77703 C 41.894777,177.79328 42.292297,177.69285 42.609227,177.47575 C 42.926157,177.25866 43.161017,176.92627 43.313807,176.4786 L 44.103977,176.50544 z M 48.206727,178.23076 C 48.905027,178.30099 49.456457,178.11389 49.861037,177.66946 C 50.265607,177.22503 50.515197,176.53253 50.609797,175.59196 C 50.704667,174.64855 50.598117,173.91879 50.290147,173.4027 C 49.982167,172.88662 49.479027,172.59346 48.780737,172.52322 C 48.079577,172.45271 47.526717,172.63967 47.122147,173.08409 C 46.717567,173.52853 46.467837,174.22245 46.372967,175.16586 C 46.278367,176.10643 46.385057,176.83476 46.693037,177.35085 C 47.001007,177.86694 47.505577,178.16024 48.206727,178.23076 L 48.206727,178.23076 z M 48.160717,178.68822 C 47.727487,178.64465 47.336337,178.53333 46.987267,178.35428 C 46.638197,178.17522 46.339337,177.93355 46.090667,177.62928 C 45.803547,177.27795 45.602677,176.89211 45.488047,176.47176 C 45.373407,176.05141 45.342037,175.58329 45.393917,175.0674 C 45.445797,174.55152 45.569837,174.09831 45.766017,173.70777 C 45.962197,173.31724 46.235957,172.97842 46.587287,172.6913 C 46.894697,172.44007 47.235057,172.26197 47.608377,172.157 C 47.981687,172.05204 48.387807,172.02163 48.826747,172.06576 C 49.753057,172.15893 50.470707,172.53772 50.979697,173.20214 C 51.488677,173.86657 51.693147,174.69614 51.593117,175.69086 C 51.541797,176.20104 51.417197,176.65276 51.219307,177.04599 C 51.021407,177.43923 50.746937,177.77799 50.395907,178.06226 C 50.088487,178.31348 49.748127,178.49158 49.374817,178.59655 C 49.001497,178.70152 48.596797,178.73207 48.160717,178.68822 L 48.160717,178.68822 z M 52.256197,178.96808 L 52.341727,178.52071 L 53.143607,178.67401 L 54.176367,173.27184 L 53.328057,173.10967 L 53.414387,172.65808 L 55.250277,173.00905 L 56.604117,177.91817 L 59.673307,173.85462 L 61.395247,174.18382 L 61.308917,174.6354 L 60.469047,174.47484 L 59.436287,179.87701 L 60.242397,180.03112 L 60.156867,180.47848 L 57.692127,180.00729 L 57.777657,179.55992 L 58.579537,179.71322 L 59.510637,174.84283 L 56.509847,178.82321 L 55.914767,178.70944 L 54.593817,173.90286 L 53.662727,178.77325 L 54.464607,178.92655 L 54.379077,179.37392 L 52.256197,178.96808 z M 61.095637,180.71649 L 61.226357,180.28018 L 62.008417,180.51449 L 63.586877,175.24586 L 62.759537,174.99799 L 62.891487,174.55757 L 64.681997,175.094 L 65.527977,180.11561 L 68.995687,176.38636 L 70.675067,176.8895 L 70.543117,177.32992 L 69.724007,177.08452 L 68.145547,182.35315 L 68.931727,182.58868 L 68.801007,183.02499 L 66.397197,182.30482 L 66.527907,181.86851 L 67.309977,182.10281 L 68.733057,177.35282 L 65.341867,181.00631 L 64.761497,180.83243 L 63.937777,175.91617 L 62.514697,180.66617 L 63.296757,180.90047 L 63.166047,181.33678 L 61.095637,180.71649 z M 72.767537,178.20166 L 72.811467,183.47771 L 76.311727,179.53175 L 75.635877,179.27811 L 75.797417,178.84766 L 77.559447,179.50893 L 77.397907,179.93938 L 76.814587,179.72047 L 72.577857,184.49152 L 71.885917,184.23185 L 71.846297,177.85593 L 71.246887,177.63097 L 71.408427,177.20052 L 73.596887,178.02183 L 73.435347,178.45228 L 72.767537,178.20166 z M 75.571187,185.67821 L 75.735827,185.25354 L 76.541097,185.56573 L 78.529137,180.4376 L 77.723857,180.12541 L 77.890047,179.69673 L 79.424477,180.29159 L 81.180547,186.40114 L 82.843976,182.11034 L 82.042706,181.79971 L 82.208896,181.37103 L 84.308226,182.18489 L 84.142036,182.61357 L 83.336756,182.30138 L 81.139047,187.97037 L 80.654277,187.78244 L 78.778077,181.25763 L 77.033877,185.75676 L 77.839157,186.06895 L 77.674527,186.49362 L 75.571187,185.67821 z M 84.554386,188.57033 L 85.327286,188.83328 L 85.180586,189.26448 L 82.808996,188.45765 L 82.955696,188.02645 L 83.728596,188.2894 L 85.500026,183.08247 L 84.727126,182.81953 L 84.875206,182.38426 L 87.246796,183.19109 L 87.098716,183.62636 L 86.325816,183.36341 L 84.554386,188.57033 z M 87.247956,189.89713 L 87.359106,189.45543 L 88.154996,189.65571 L 89.484596,184.37199 L 87.655296,183.91167 L 87.410976,184.88257 L 86.898446,184.75359 L 87.267546,183.28682 L 92.792946,184.67724 L 92.423846,186.14401 L 91.911306,186.01504 L 92.155626,185.04413 L 90.326326,184.58381 L 88.996726,189.86752 L 89.792616,190.0678 L 89.681466,190.5095 L 87.247956,189.89713 z M 93.311706,188.8286 L 95.654126,189.06867 L 94.793956,185.91375 L 93.311706,188.8286 z M 91.270866,190.95623 L 91.317306,190.50313 L 91.877266,190.56052 L 94.758916,184.86487 L 95.477026,184.93847 L 97.147706,191.10068 L 97.776056,191.16507 L 97.729616,191.61817 L 95.408576,191.38029 L 95.455006,190.92719 L 96.164576,190.99992 L 95.773956,189.54313 L 93.089576,189.26801 L 92.411576,190.61528 L 93.112586,190.68713 L 93.066156,191.14022 L 91.270866,190.95623 z M 98.461496,191.23402 L 98.389746,189.77485 L 98.883496,189.75487 C 98.921726,190.24056 99.080326,190.59342 99.359306,190.81344 C 99.638286,191.03347 100.05102,191.13005 100.5975,191.10317 C 101.10678,191.07813 101.49021,190.95817 101.74781,190.74331 C 102.00541,190.52844 102.12471,190.22789 102.10572,189.84163 C 102.09052,189.53263 101.99801,189.29913 101.8282,189.14114 C 101.65838,188.98314 101.30924,188.83827 100.78079,188.70651 L 99.922866,188.49488 C 99.301436,188.33902 98.858726,188.12848 98.594736,187.86326 C 98.330736,187.59804 98.186846,187.22367 98.163066,186.74013 C 98.136336,186.19652 98.308706,185.76501 98.680186,185.44559 C 99.051666,185.12619 99.586466,184.94932 100.28458,184.91498 C 100.58214,184.90035 100.90989,184.9165 101.26784,184.96342 C 101.62578,185.01036 102.00805,185.08549 102.41467,185.18881 L 102.48178,186.55357 L 101.99682,186.57742 C 101.92594,186.12776 101.75895,185.80829 101.49582,185.61903 C 101.23269,185.42978 100.84219,185.34788 100.32433,185.37334 C 99.872266,185.39558 99.532756,185.50477 99.305786,185.70092 C 99.078816,185.89707 98.973986,186.17111 98.991296,186.52302 C 99.006346,186.82916 99.106866,187.06514 99.292836,187.23094 C 99.478806,187.39675 99.863556,187.55134 100.44709,187.69473 L 101.25266,187.89172 C 101.84205,188.03769 102.26714,188.23978 102.52793,188.49798 C 102.7887,188.75619 102.93028,189.11275 102.95266,189.56767 C 102.98318,190.18854 102.80734,190.66611 102.42513,191.00039 C 102.0429,191.33467 101.45839,191.52116 100.67158,191.55985 C 100.31966,191.57716 99.959546,191.55901 99.591236,191.50543 C 99.222926,191.45184 98.846346,191.36137 98.461496,191.23402 L 98.461496,191.23402 z M 112.18191,187.9196 C 112.12217,188.54459 111.90668,189.05422 111.53546,189.44847 C 111.16422,189.84272 110.64525,190.1111 109.97854,190.25361 C 109.56955,190.34104 109.17501,190.35214 108.79491,190.28692 C 108.4148,190.22171 108.05985,190.08228 107.73004,189.86863 C 107.34923,189.62196 107.03982,189.31534 106.80183,188.94879 C 106.56383,188.58224 106.39094,188.14685 106.28315,187.64261 C 106.07478,186.66776 106.1882,185.82112 106.62341,185.10268 C 107.05863,184.38425 107.73706,183.92653 108.65869,183.72952 C 109.00044,183.65648 109.37419,183.62345 109.77994,183.63045 C 110.18567,183.63747 110.63071,183.68441 111.11504,183.77128 L 111.42402,185.21675 L 110.94919,185.31825 C 110.73297,184.81377 110.44204,184.47025 110.07641,184.28769 C 109.71077,184.10515 109.24642,184.07405 108.68336,184.1944 C 108.01385,184.33752 107.55756,184.68331 107.3145,185.23177 C 107.07143,185.78025 107.0484,186.5153 107.2454,187.43692 C 107.4418,188.35575 107.76303,189.01575 108.20909,189.41692 C 108.65514,189.81809 109.21293,189.94712 109.88244,189.804 C 110.35025,189.70401 110.71163,189.51032 110.96657,189.22295 C 111.2215,188.93558 111.3689,188.55622 111.40875,188.08487 L 112.18191,187.9196 z M 114.09464,186.71107 L 116.35552,186.05307 L 114.37255,183.45283 L 114.09464,186.71107 z M 113.00319,189.44978 L 112.87591,189.01246 L 113.41638,188.85516 L 113.94583,182.49403 L 114.63894,182.29231 L 118.50336,187.37466 L 119.10984,187.19815 L 119.23712,187.63547 L 116.99686,188.28747 L 116.86959,187.85015 L 117.55445,187.65083 L 116.6449,186.44769 L 114.05396,187.20175 L 113.93209,188.70507 L 114.6087,188.50815 L 114.73598,188.94547 L 113.00319,189.44978 z M 119.61763,187.49683 L 119.46987,187.06599 L 120.24211,186.80113 L 118.45774,181.59863 L 117.64079,181.87883 L 117.49162,181.44393 L 119.25966,180.83752 L 122.8713,184.42756 L 123.51921,179.37657 L 125.17751,178.8078 L 125.32667,179.2427 L 124.51784,179.52011 L 126.30221,184.72261 L 127.07852,184.45635 L 127.22629,184.88718 L 124.85265,185.7013 L 124.70488,185.27047 L 125.47713,185.0056 L 123.86841,180.31522 L 123.2386,185.26007 L 122.66551,185.45663 L 119.13332,181.93928 L 120.74204,186.62966 L 121.51429,186.36479 L 121.66205,186.79563 L 119.61763,187.49683 z M 128.60518,180.88444 L 129.67255,180.50033 C 130.07415,180.3558 130.34103,180.13722 130.47319,179.84458 C 130.60534,179.55195 130.5977,179.20079 130.45027,178.79109 C 130.30186,178.3787 130.08373,178.10252 129.7959,177.96255 C 129.50806,177.82258 129.16334,177.82486 128.76173,177.96938 L 127.69437,178.3535 L 128.60518,180.88444 z M 128.12205,184.52896 L 127.96782,184.1004 L 128.736,183.82395 L 126.87363,178.64886 L 126.10545,178.9253 L 125.94977,178.4927 L 128.80416,177.46548 C 129.40792,177.24822 129.94139,177.22901 130.40458,177.40785 C 130.86776,177.58672 131.19296,177.93625 131.38017,178.45644 C 131.5664,178.97396 131.53826,179.44988 131.29575,179.88422 C 131.05323,180.31856 130.6301,180.64437 130.02634,180.86164 L 128.76087,181.31705 L 129.55674,183.52859 L 130.49068,183.19249 L 130.64491,183.62105 L 128.12205,184.52896 z M 135.1427,181.52968 L 135.91264,181.25819 L 136.0641,181.68774 L 133.70159,182.52078 L 133.55013,182.09123 L 134.32007,181.81975 L 132.49109,176.63276 L 131.72115,176.90425 L 131.56826,176.47065 L 133.93077,175.6376 L 134.08366,176.0712 L 133.31372,176.34269 L 135.1427,181.52968 z M 136.97242,181.35703 L 136.82954,180.92456 L 137.60473,180.66845 L 135.87939,175.44608 L 135.1042,175.70218 L 134.95997,175.26562 L 137.3386,174.47978 L 137.48282,174.91634 L 136.70763,175.17245 L 138.41005,180.32546 L 141.1926,179.40618 L 140.85562,178.38619 L 141.35746,178.22039 L 141.86023,179.74222 L 136.97242,181.35703 z M 144.02018,178.63438 L 144.80324,178.40342 L 144.93209,178.84029 L 142.52934,179.54895 L 142.40049,179.11209 L 143.18355,178.88113 L 141.62765,173.60579 L 140.84459,173.83675 L 140.71453,173.39576 L 143.11728,172.6871 L 143.24735,173.12809 L 142.46429,173.35904 L 144.02018,178.63438 z M 148.81703,177.49133 C 149.50058,177.3322 149.962,176.97699 150.20132,176.42569 C 150.44062,175.8744 150.45311,175.1384 150.23878,174.2177 C 150.02379,173.29423 149.68721,172.63802 149.22902,172.24909 C 148.77083,171.86017 148.19997,171.74527 147.51642,171.90439 C 146.83009,172.06417 146.36727,172.41971 146.12796,172.971 C 145.88865,173.52231 145.87649,174.2597 146.09147,175.18318 C 146.3058,176.10387 146.64206,176.75868 147.10025,177.1476 C 147.55844,177.53653 148.1307,177.65111 148.81703,177.49133 L 148.81703,177.49133 z M 148.92128,177.93912 C 148.4972,178.03785 148.09106,178.05886 147.70287,178.00217 C 147.31467,177.94549 146.95375,177.81333 146.62013,177.6057 C 146.23491,177.36597 145.92015,177.06571 145.67587,176.70493 C 145.43159,176.34415 145.25067,175.91127 145.13311,175.40628 C 145.01555,174.90129 144.98653,174.43232 145.04603,173.99934 C 145.10553,173.56638 145.25515,173.15728 145.49488,172.77206 C 145.70465,172.43499 145.96922,172.15649 146.28861,171.93654 C 146.608,171.71661 146.98252,171.55663 147.41218,171.4566 C 148.31892,171.24552 149.12046,171.37216 149.8168,171.83652 C 150.51314,172.3009 150.97464,173.01993 151.20132,173.99363 C 151.31757,174.49304 151.34558,174.96078 151.28534,175.39687 C 151.22509,175.83295 151.07477,176.24221 150.83439,176.62464 C 150.62462,176.96171 150.36004,177.24021 150.04066,177.46015 C 149.72127,177.68009 149.34814,177.83975 148.92128,177.93912 L 148.92128,177.93912 z M 152.83368,176.89014 L 152.78432,176.43735 L 153.64291,176.34376 L 153.04691,170.87615 L 152.18832,170.96974 L 152.1385,170.51268 L 153.77451,170.33435 L 158.14607,174.94953 L 157.64739,170.37467 L 156.79308,170.4678 L 156.74325,170.01074 L 158.98156,169.76675 L 159.03138,170.22381 L 158.17279,170.3174 L 158.83165,176.36168 L 158.31479,176.41802 L 153.64541,171.48952 L 154.16831,176.28649 L 155.0269,176.1929 L 155.07625,176.64569 L 152.83368,176.89014 z M 162.25322,175.78453 L 163.06954,175.79583 L 163.06324,176.25125 L 160.5584,176.21657 L 160.56471,175.76115 L 161.38103,175.77245 L 161.45718,170.27298 L 160.64085,170.26167 L 160.64722,169.80195 L 163.15205,169.83663 L 163.14569,170.29635 L 162.32936,170.28505 L 162.25322,175.78453 z"
       id="text3349" />
    <path
       id="path3372"
       style="fill:none;fill-rule:evenodd;stroke:#000000;stroke-width:2;stroke-linecap:butt;stroke-linejoin:miter;stroke-opacity:1"
       d="M 100.5,177 L 100.5,177 C 25.75381,124.72588 23.682688,69.69032 24.5,40 C 25.31731,10.30968 29.5,5 29.5,5 L 100.5,5 L 171.5,5 C 171.5,5 175.68269,10.309678 176.5,40 C 177.31731,69.690322 175.24619,124.72588 100.5,177 z"
       sodipodi:nodetypes="ccscccsc" />
    <path
       style="fill:none;fill-rule:evenodd;stroke:#000000;stroke-width:1px;stroke-linecap:square;stroke-linejoin:miter;stroke-opacity:1"
       d="M 25.5,60.5 L 175.5,60.5"
       id="path3377" />
    <path
       style="fill:#ffffff;fill-opacity:1;fill-rule:evenodd;stroke:#000000;stroke-width:1px;stroke-linecap:butt;stroke-linejoin:miter;stroke-opacity:1"
       d="M 71.830471,83.913704 C 71.302131,83.611058 70.263661,83.643053 70.263661,83.643053 C 70.263661,83.643053 68.243356,83.579919 64.109934,83.431549 C 68.281304,80.843033 73.201304,76.360481 73.453844,74.718983 C 75.221604,79.012132 73.769511,86.146333 72.948761,86.777679 C 72.814371,84.94096 72.358811,84.21635 71.830471,83.913704 z"
       id="path2516"
       sodipodi:nodetypes="cccccs" />
    <path
       style="fill:none;fill-rule:evenodd;stroke:#000000;stroke-width:1px;stroke-linecap:butt;stroke-linejoin:miter;stroke-opacity:1"
       d="M 100.5,60 L 100.5,175"
       id="path3397" />
  </g>
</svg>
