<?xml version="1.0" encoding="UTF-8" standalone="no"?>
<!-- Created with Inkscape (http://www.inkscape.org/) -->
<svg
   xmlns:dc="http://purl.org/dc/elements/1.1/"
   xmlns:cc="http://web.resource.org/cc/"
   xmlns:rdf="http://www.w3.org/1999/02/22-rdf-syntax-ns#"
   xmlns:svg="http://www.w3.org/2000/svg"
   xmlns="http://www.w3.org/2000/svg"
   xmlns:sodipodi="http://sodipodi.sourceforge.net/DTD/sodipodi-0.dtd"
   xmlns:inkscape="http://www.inkscape.org/namespaces/inkscape"
   id="svg2"
   sodipodi:version="0.32"
   inkscape:version="0.44+devel"
   width="190"
   height="200"
   version="1.0"
   sodipodi:docbase="C:\Documents and Settings\Flanker\Desktop\Temporanei\Loghi"
   sodipodi:docname="Cavarzere-Stemma.svg"
   inkscape:output_extension="org.inkscape.output.svg.inkscape"
   sodipodi:modified="true">
  <metadata
     id="metadata7">
    <rdf:RDF>
      <cc:Work
         rdf:about="">
        <dc:format>image/svg+xml</dc:format>
        <dc:type
           rdf:resource="http://purl.org/dc/dcmitype/StillImage" />
      </cc:Work>
    </rdf:RDF>
  </metadata>
  <defs
     id="defs5" />
  <sodipodi:namedview
     inkscape:window-height="1003"
     inkscape:window-width="1280"
     inkscape:pageshadow="2"
     inkscape:pageopacity="0.0"
     guidetolerance="10.0"
     gridtolerance="10.0"
     objecttolerance="10.0"
     borderopacity="1.0"
     bordercolor="#666666"
     pagecolor="#ffffff"
     id="base"
     inkscape:zoom="4.015"
     inkscape:cx="95"
     inkscape:cy="100"
     inkscape:window-x="-4"
     inkscape:window-y="-4"
     inkscape:current-layer="svg2"
     width="190px"
     height="200px" />
  <path
     style="fill:#cadcf3;fill-opacity:1;fill-rule:evenodd;stroke:none;stroke-width:2;stroke-linecap:butt;stroke-linejoin:miter;stroke-miterlimit:4;stroke-dasharray:none;stroke-opacity:1"
     d="M 4.359375,2.328125 C 12.205525,7.739266 21.671875,16.097097 21.671875,34.796875 L 23.828125,127.32813 C 23.828126,147.36488 24.233335,156.55954 42.765625,166.01563 C 60.367746,174.9971 67.050175,177.879 80.390625,184.42188 C 90.167318,189.21688 94.984375,197.67188 94.984375,197.67188 C 94.984375,197.67188 99.832689,189.21688 109.60938,184.42188 C 122.94983,177.879 129.601,174.9971 147.20313,166.01563 C 165.73541,156.55954 166.14062,147.36488 166.14063,127.32813 L 168.32813,34.796875 C 168.32813,16.097097 177.79448,7.739266 185.64063,2.328125 L 94.984375,2.328125 L 4.359375,2.328125 z "
     id="path1873" />
  <path
     style="fill:#d79d56;fill-opacity:1;stroke:black;stroke-width:1;stroke-miterlimit:4;stroke-dasharray:none;stroke-opacity:1"
     d="M 26.609375,78.484375 L 26.609375,89.171875 L 22.953125,89.171875 L 23.828125,127.32813 C 23.828126,147.36488 24.233335,156.55954 42.765625,166.01563 C 60.367746,174.9971 67.050175,177.879 80.390625,184.42188 C 90.167318,189.21688 94.984375,197.67188 94.984375,197.67188 C 94.984375,197.67188 99.832689,189.21688 109.60938,184.42188 C 122.94983,177.879 129.601,174.9971 147.20313,166.01563 C 165.73541,156.55954 166.14062,147.36488 166.14063,127.32813 L 167.04688,89.171875 L 163.39063,89.171875 L 163.39063,78.484375 L 157.01563,78.484375 L 157.01563,89.171875 L 152.51563,89.171875 L 152.51563,78.484375 L 146.17188,78.484375 L 146.17188,89.171875 L 141.64063,89.171875 L 141.64063,78.484375 L 135.29688,78.484375 L 135.29688,89.171875 L 130.76563,89.171875 L 130.76563,78.484375 L 124.42188,78.484375 L 124.42188,89.171875 L 119.92188,89.171875 L 119.92188,78.484375 L 113.54688,78.484375 L 113.54688,89.171875 L 109.04688,89.171875 L 109.04688,78.484375 L 102.70313,78.484375 L 102.70313,89.171875 L 98.171875,89.171875 L 98.171875,78.484375 L 91.828125,78.484375 L 91.828125,89.171875 L 87.296875,89.171875 L 87.296875,78.484375 L 80.953125,78.484375 L 80.953125,89.171875 L 76.453125,89.171875 L 76.453125,78.484375 L 70.078125,78.484375 L 70.078125,89.171875 L 65.578125,89.171875 L 65.578125,78.484375 L 59.234375,78.484375 L 59.234375,89.171875 L 54.703125,89.171875 L 54.703125,78.484375 L 48.359375,78.484375 L 48.359375,89.171875 L 43.828125,89.171875 L 43.828125,78.484375 L 37.484375,78.484375 L 37.484375,89.171875 L 32.984375,89.171875 L 32.984375,78.484375 L 26.609375,78.484375 z "
     id="rect7230" />
  <path
     style="fill:none;fill-rule:evenodd;stroke:black;stroke-width:1px;stroke-linecap:butt;stroke-linejoin:miter;stroke-opacity:1"
     d="M 23.097705,93.900591 L 166.81716,95.314805"
     id="path10928" />
  <path
     style="fill:none;fill-rule:evenodd;stroke:black;stroke-width:1px;stroke-linecap:butt;stroke-linejoin:miter;stroke-opacity:1"
     d="M 166.64039,100.97166 L 22.744151,99.380665"
     id="path10930" />
  <path
     style="fill:none;fill-rule:evenodd;stroke:black;stroke-width:1px;stroke-linecap:butt;stroke-linejoin:miter;stroke-opacity:1"
     d="M 22.920928,104.5072 L 166.46361,105.39108"
     id="path10932" />
  <path
     style="fill:none;fill-rule:evenodd;stroke:black;stroke-width:1px;stroke-linecap:butt;stroke-linejoin:miter;stroke-opacity:1"
     d="M 166.46361,109.45695 L 23.274481,110.16405"
     id="path10934" />
  <path
     style="fill:none;fill-rule:evenodd;stroke:black;stroke-width:1px;stroke-linecap:butt;stroke-linejoin:miter;stroke-opacity:1"
     d="M 23.804811,116.35124 L 166.11005,114.76025"
     id="path10936" />
  <path
     style="fill:none;fill-rule:evenodd;stroke:black;stroke-width:1px;stroke-linecap:butt;stroke-linejoin:miter;stroke-opacity:1"
     d="M 165.93328,120.59388 L 23.804811,122.53842"
     id="path10938" />
  <path
     style="fill:none;fill-rule:evenodd;stroke:black;stroke-width:1px;stroke-linecap:butt;stroke-linejoin:miter;stroke-opacity:1"
     d="M 23.628035,126.78105 L 165.7565,126.25073"
     id="path10940" />
  <path
     style="fill:none;fill-rule:evenodd;stroke:black;stroke-width:1px;stroke-linecap:butt;stroke-linejoin:miter;stroke-opacity:1"
     d="M 165.7565,130.84693 L 24.158365,132.79146"
     id="path10942" />
  <path
     style="fill:none;fill-rule:evenodd;stroke:black;stroke-width:1px;stroke-linecap:butt;stroke-linejoin:miter;stroke-opacity:1"
     d="M 24.158365,138.62509 L 165.7565,135.6199"
     id="path10944" />
  <path
     style="fill:none;fill-rule:evenodd;stroke:black;stroke-width:1px;stroke-linecap:butt;stroke-linejoin:miter;stroke-opacity:1"
     d="M 165.40294,141.80708 L 24.688695,144.28195"
     id="path10946" />
  <path
     style="fill:none;fill-rule:evenodd;stroke:black;stroke-width:1px;stroke-linecap:butt;stroke-linejoin:miter;stroke-opacity:1"
     d="M 26.102908,149.40848 L 164.34229,147.46392"
     id="path10948" />
  <path
     style="fill:none;fill-rule:evenodd;stroke:black;stroke-width:1px;stroke-linecap:butt;stroke-linejoin:miter;stroke-opacity:1"
     d="M 162.22097,153.8279 L 28.754559,154.71177"
     id="path10950" />
  <path
     style="fill:none;fill-rule:evenodd;stroke:black;stroke-width:1px;stroke-linecap:butt;stroke-linejoin:miter;stroke-opacity:1"
     d="M 34.411413,160.5454 L 156.38734,160.01508"
     id="path10952" />
  <path
     style="fill:none;fill-rule:evenodd;stroke:black;stroke-width:1px;stroke-linecap:butt;stroke-linejoin:miter;stroke-opacity:1"
     d="M 31.052656,93.900591 L 31.052656,99.380665"
     id="path10960" />
  <path
     style="fill:none;fill-rule:evenodd;stroke:black;stroke-width:1px;stroke-linecap:butt;stroke-linejoin:miter;stroke-opacity:1"
     d="M 145.42718,166.55582 L 44.487685,166.37903"
     id="path10954" />
  <path
     style="fill:none;fill-rule:evenodd;stroke:black;stroke-width:1px;stroke-linecap:butt;stroke-linejoin:miter;stroke-opacity:1"
     d="M 35.295297,99.557445 L 35.472073,104.68397"
     id="path10962" />
  <path
     style="fill:none;fill-rule:evenodd;stroke:black;stroke-width:1px;stroke-linecap:butt;stroke-linejoin:miter;stroke-opacity:1"
     d="M 54.210403,171.50556 L 136.76512,171.15201"
     id="path10956" />
  <path
     style="fill:none;fill-rule:evenodd;stroke:black;stroke-width:1px;stroke-linecap:butt;stroke-linejoin:miter;stroke-opacity:1"
     d="M 31.406209,104.68397 L 31.406209,110.16405"
     id="path10964" />
  <path
     style="fill:none;fill-rule:evenodd;stroke:black;stroke-width:1px;stroke-linecap:butt;stroke-linejoin:miter;stroke-opacity:1"
     d="M 58.09949,100.08777 L 58.276267,104.33042"
     id="path11072" />
  <path
     style="fill:none;fill-rule:evenodd;stroke:black;stroke-width:1px;stroke-linecap:butt;stroke-linejoin:miter;stroke-opacity:1"
     d="M 125.80497,109.63372 L 125.80497,115.29058"
     id="path10966" />
  <path
     style="fill:none;fill-rule:evenodd;stroke:black;stroke-width:1px;stroke-linecap:butt;stroke-linejoin:miter;stroke-opacity:1"
     d="M 33.173976,115.99768 L 33.173976,122.36164"
     id="path10968" />
  <path
     style="fill:none;fill-rule:evenodd;stroke:black;stroke-width:1px;stroke-linecap:butt;stroke-linejoin:miter;stroke-opacity:1"
     d="M 38.83083,122.53842 L 38.83083,126.60428"
     id="path10970" />
  <path
     style="fill:none;fill-rule:evenodd;stroke:black;stroke-width:1px;stroke-linecap:butt;stroke-linejoin:miter;stroke-opacity:1"
     d="M 32.9972,126.78105 L 32.9972,132.43792"
     id="path10972" />
  <path
     style="fill:none;fill-rule:evenodd;stroke:black;stroke-width:1px;stroke-linecap:butt;stroke-linejoin:miter;stroke-opacity:1"
     d="M 28.754559,132.79146 L 29.108112,138.62509"
     id="path10974" />
  <path
     style="fill:none;fill-rule:evenodd;stroke:black;stroke-width:1px;stroke-linecap:butt;stroke-linejoin:miter;stroke-opacity:1"
     d="M 36.002403,138.44832 L 36.002403,144.10518"
     id="path10976" />
  <path
     style="fill:none;fill-rule:evenodd;stroke:black;stroke-width:1px;stroke-linecap:butt;stroke-linejoin:miter;stroke-opacity:1"
     d="M 30.699103,144.10518 L 31.229433,149.2317"
     id="path10978" />
  <path
     style="fill:none;fill-rule:evenodd;stroke:black;stroke-width:1px;stroke-linecap:butt;stroke-linejoin:miter;stroke-opacity:1"
     d="M 37.23984,149.2317 L 37.063064,154.35823"
     id="path10980" />
  <path
     style="fill:none;fill-rule:evenodd;stroke:black;stroke-width:1px;stroke-linecap:butt;stroke-linejoin:miter;stroke-opacity:1"
     d="M 45.725122,154.88856 L 45.901898,160.36863"
     id="path10982" />
  <path
     style="fill:none;fill-rule:evenodd;stroke:black;stroke-width:1px;stroke-linecap:butt;stroke-linejoin:miter;stroke-opacity:1"
     d="M 53.326519,160.5454 L 53.680073,166.02549"
     id="path10984" />
  <path
     style="fill:none;fill-rule:evenodd;stroke:black;stroke-width:1px;stroke-linecap:butt;stroke-linejoin:miter;stroke-opacity:1"
     d="M 59.16015,166.55582 L 59.513704,171.32879"
     id="path10986" />
  <path
     id="path10988"
     d="M 58.09949,155.06533 L 58.453044,159.83829"
     style="fill:none;fill-rule:evenodd;stroke:black;stroke-width:1px;stroke-linecap:butt;stroke-linejoin:miter;stroke-opacity:1" />
  <path
     id="path10990"
     d="M 51.912306,149.2317 L 51.73553,154.35823"
     style="fill:none;fill-rule:evenodd;stroke:black;stroke-width:1px;stroke-linecap:butt;stroke-linejoin:miter;stroke-opacity:1" />
  <path
     id="path10992"
     d="M 43.603802,144.10518 L 44.134132,149.2317"
     style="fill:none;fill-rule:evenodd;stroke:black;stroke-width:1px;stroke-linecap:butt;stroke-linejoin:miter;stroke-opacity:1" />
  <path
     style="fill:none;fill-rule:evenodd;stroke:black;stroke-width:1px;stroke-linecap:butt;stroke-linejoin:miter;stroke-opacity:1"
     d="M 54.740734,144.28196 L 55.271064,149.40848"
     id="path10994" />
  <path
     id="path10996"
     d="M 125.98175,142.86775 L 126.51208,147.99427"
     style="fill:none;fill-rule:evenodd;stroke:black;stroke-width:1px;stroke-linecap:butt;stroke-linejoin:miter;stroke-opacity:1" />
  <path
     style="fill:none;fill-rule:evenodd;stroke:black;stroke-width:1px;stroke-linecap:butt;stroke-linejoin:miter;stroke-opacity:1"
     d="M 140.12388,142.16063 L 140.30066,147.64071"
     id="path10998" />
  <path
     style="fill:none;fill-rule:evenodd;stroke:black;stroke-width:1px;stroke-linecap:butt;stroke-linejoin:miter;stroke-opacity:1"
     d="M 153.91245,142.16063 L 153.91245,147.46392"
     id="path11000" />
  <path
     style="fill:none;fill-rule:evenodd;stroke:black;stroke-width:1px;stroke-linecap:butt;stroke-linejoin:miter;stroke-opacity:1"
     d="M 157.62477,147.81749 L 157.44799,153.47434"
     id="path11002" />
  <path
     style="fill:none;fill-rule:evenodd;stroke:black;stroke-width:1px;stroke-linecap:butt;stroke-linejoin:miter;stroke-opacity:1"
     d="M 145.07362,147.99426 L 145.07362,153.65112"
     id="path11004" />
  <path
     style="fill:none;fill-rule:evenodd;stroke:black;stroke-width:1px;stroke-linecap:butt;stroke-linejoin:miter;stroke-opacity:1"
     d="M 130.93149,148.17103 L 131.10827,153.8279"
     id="path11006" />
  <path
     style="fill:none;fill-rule:evenodd;stroke:black;stroke-width:1px;stroke-linecap:butt;stroke-linejoin:miter;stroke-opacity:1"
     d="M 137.29545,154.35823 L 137.29545,159.83829"
     id="path11008" />
  <path
     style="fill:none;fill-rule:evenodd;stroke:black;stroke-width:1px;stroke-linecap:butt;stroke-linejoin:miter;stroke-opacity:1"
     d="M 151.43759,154.18145 L 151.26081,159.66153"
     id="path11010" />
  <path
     style="fill:none;fill-rule:evenodd;stroke:black;stroke-width:1px;stroke-linecap:butt;stroke-linejoin:miter;stroke-opacity:1"
     d="M 143.48263,160.19186 L 143.30586,166.20226"
     id="path11012" />
  <path
     style="fill:none;fill-rule:evenodd;stroke:black;stroke-width:1px;stroke-linecap:butt;stroke-linejoin:miter;stroke-opacity:1"
     d="M 130.04761,160.19186 L 130.04761,166.20226"
     id="path11014" />
  <path
     style="fill:none;fill-rule:evenodd;stroke:black;stroke-width:1px;stroke-linecap:butt;stroke-linejoin:miter;stroke-opacity:1"
     d="M 125.62819,154.18145 L 125.62819,159.83829"
     id="path11016" />
  <path
     style="fill:none;fill-rule:evenodd;stroke:black;stroke-width:1px;stroke-linecap:butt;stroke-linejoin:miter;stroke-opacity:1"
     d="M 133.40636,136.50377 L 133.40636,142.16063"
     id="path11018" />
  <path
     style="fill:none;fill-rule:evenodd;stroke:black;stroke-width:1px;stroke-linecap:butt;stroke-linejoin:miter;stroke-opacity:1"
     d="M 146.13429,136.15023 L 146.31107,141.80708"
     id="path11020"
     sodipodi:nodetypes="cc" />
  <path
     style="fill:none;fill-rule:evenodd;stroke:black;stroke-width:1px;stroke-linecap:butt;stroke-linejoin:miter;stroke-opacity:1"
     d="M 158.33188,135.79666 L 158.33188,141.80708"
     id="path11022" />
  <path
     style="fill:none;fill-rule:evenodd;stroke:black;stroke-width:1px;stroke-linecap:butt;stroke-linejoin:miter;stroke-opacity:1"
     d="M 153.38213,131.0237 L 153.38213,135.6199"
     id="path11024" />
  <path
     style="fill:none;fill-rule:evenodd;stroke:black;stroke-width:1px;stroke-linecap:butt;stroke-linejoin:miter;stroke-opacity:1"
     d="M 141.71487,131.20048 L 141.71487,135.97345"
     id="path11026" />
  <path
     style="fill:none;fill-rule:evenodd;stroke:black;stroke-width:1px;stroke-linecap:butt;stroke-linejoin:miter;stroke-opacity:1"
     d="M 129.3405,131.37725 L 129.3405,136.327"
     id="path11028" />
  <path
     style="fill:none;fill-rule:evenodd;stroke:black;stroke-width:1px;stroke-linecap:butt;stroke-linejoin:miter;stroke-opacity:1"
     d="M 134.99736,126.42751 L 134.99736,131.20048"
     id="path11030" />
  <path
     style="fill:none;fill-rule:evenodd;stroke:black;stroke-width:1px;stroke-linecap:butt;stroke-linejoin:miter;stroke-opacity:1"
     d="M 131.46182,121.12421 L 131.46182,125.89718"
     id="path11032" />
  <path
     style="fill:none;fill-rule:evenodd;stroke:black;stroke-width:1px;stroke-linecap:butt;stroke-linejoin:miter;stroke-opacity:1"
     d="M 142.95231,121.12421 L 142.77552,125.89718"
     id="path11034" />
  <path
     style="fill:none;fill-rule:evenodd;stroke:black;stroke-width:1px;stroke-linecap:butt;stroke-linejoin:miter;stroke-opacity:1"
     d="M 148.07882,126.25073 L 148.25561,131.0237"
     id="path11036" />
  <path
     style="fill:none;fill-rule:evenodd;stroke:black;stroke-width:1px;stroke-linecap:butt;stroke-linejoin:miter;stroke-opacity:1"
     d="M 157.62477,126.42751 L 157.80155,130.67014"
     id="path11038" />
  <path
     style="fill:none;fill-rule:evenodd;stroke:black;stroke-width:1px;stroke-linecap:butt;stroke-linejoin:miter;stroke-opacity:1"
     d="M 152.67503,120.94743 L 152.67503,126.07394"
     id="path11040" />
  <path
     style="fill:none;fill-rule:evenodd;stroke:black;stroke-width:1px;stroke-linecap:butt;stroke-linejoin:miter;stroke-opacity:1"
     d="M 161.69063,120.77065 L 161.86741,126.07394"
     id="path11042" />
  <path
     style="fill:none;fill-rule:evenodd;stroke:black;stroke-width:1px;stroke-linecap:butt;stroke-linejoin:miter;stroke-opacity:1"
     d="M 48.023219,122.18487 L 48.023219,126.42751"
     id="path11044" />
  <path
     style="fill:none;fill-rule:evenodd;stroke:black;stroke-width:1px;stroke-linecap:butt;stroke-linejoin:miter;stroke-opacity:1"
     d="M 57.03883,122.00808 L 57.03883,126.60428"
     id="path11046" />
  <path
     style="fill:none;fill-rule:evenodd;stroke:black;stroke-width:1px;stroke-linecap:butt;stroke-linejoin:miter;stroke-opacity:1"
     d="M 60.751141,126.60428 L 60.927917,132.08435"
     id="path11048" />
  <path
     style="fill:none;fill-rule:evenodd;stroke:black;stroke-width:1px;stroke-linecap:butt;stroke-linejoin:miter;stroke-opacity:1"
     d="M 45.725122,126.78105 L 45.901898,132.08435"
     id="path11050" />
  <path
     style="fill:none;fill-rule:evenodd;stroke:black;stroke-width:1px;stroke-linecap:butt;stroke-linejoin:miter;stroke-opacity:1"
     d="M 42.896694,132.61469 L 42.896694,138.09477"
     id="path11052" />
  <path
     style="fill:none;fill-rule:evenodd;stroke:black;stroke-width:1px;stroke-linecap:butt;stroke-linejoin:miter;stroke-opacity:1"
     d="M 48.907102,138.09477 L 48.907102,143.75161"
     id="path11054" />
  <path
     style="fill:none;fill-rule:evenodd;stroke:black;stroke-width:1px;stroke-linecap:butt;stroke-linejoin:miter;stroke-opacity:1"
     d="M 60.927917,137.74122 L 60.751141,143.57485"
     id="path11056" />
  <path
     style="fill:none;fill-rule:evenodd;stroke:black;stroke-width:1px;stroke-linecap:butt;stroke-linejoin:miter;stroke-opacity:1"
     d="M 55.624616,132.43792 L 55.624616,137.74122"
     id="path11058" />
  <path
     style="fill:none;fill-rule:evenodd;stroke:black;stroke-width:1px;stroke-linecap:butt;stroke-linejoin:miter;stroke-opacity:1"
     d="M 33.881083,154.88856 L 34.05786,159.83829"
     id="path11060" />
  <path
     style="fill:none;fill-rule:evenodd;stroke:black;stroke-width:1px;stroke-linecap:butt;stroke-linejoin:miter;stroke-opacity:1"
     d="M 27.163569,122.53842 L 26.986792,126.42751"
     id="path11062" />
  <path
     style="fill:none;fill-rule:evenodd;stroke:black;stroke-width:1px;stroke-linecap:butt;stroke-linejoin:miter;stroke-opacity:1"
     d="M 41.128928,104.68397 L 40.952151,109.8105"
     id="path11064" />
  <path
     style="fill:none;fill-rule:evenodd;stroke:black;stroke-width:1px;stroke-linecap:butt;stroke-linejoin:miter;stroke-opacity:1"
     d="M 40.952151,94.077368 L 40.952151,99.203895"
     id="path11066" />
  <path
     style="fill:none;fill-rule:evenodd;stroke:black;stroke-width:1px;stroke-linecap:butt;stroke-linejoin:miter;stroke-opacity:1"
     d="M 26.102908,99.203895 L 26.102908,104.33042"
     id="path11068" />
  <path
     style="fill:none;fill-rule:evenodd;stroke:black;stroke-width:1px;stroke-linecap:butt;stroke-linejoin:miter;stroke-opacity:1"
     d="M 45.901898,99.734225 L 45.901898,104.15363"
     id="path11070" />
  <path
     style="fill:none;fill-rule:evenodd;stroke:black;stroke-width:1px;stroke-linecap:butt;stroke-linejoin:miter;stroke-opacity:1"
     d="M 51.735529,104.68397 L 51.735529,109.45695"
     id="path11074" />
  <path
     style="fill:none;fill-rule:evenodd;stroke:black;stroke-width:1px;stroke-linecap:butt;stroke-linejoin:miter;stroke-opacity:1"
     d="M 51.912306,94.254145 L 51.912306,99.557445"
     id="path11082" />
  <path
     style="fill:none;fill-rule:evenodd;stroke:black;stroke-width:1px;stroke-linecap:butt;stroke-linejoin:miter;stroke-opacity:1"
     d="M 132.16893,95.138028 L 132.16893,100.44133"
     id="path11086" />
  <path
     style="fill:none;fill-rule:evenodd;stroke:black;stroke-width:1px;stroke-linecap:butt;stroke-linejoin:miter;stroke-opacity:1"
     d="M 126.86562,100.79488 L 126.86562,104.68397"
     id="path11088" />
  <path
     style="fill:none;fill-rule:evenodd;stroke:black;stroke-width:1px;stroke-linecap:butt;stroke-linejoin:miter;stroke-opacity:1"
     d="M 129.87083,105.56785 L 130.04761,109.45695"
     id="path11090" />
  <path
     style="fill:none;fill-rule:evenodd;stroke:black;stroke-width:1px;stroke-linecap:butt;stroke-linejoin:miter;stroke-opacity:1"
     d="M 142.77552,105.39108 L 142.77552,109.10339"
     id="path11092" />
  <path
     style="fill:none;fill-rule:evenodd;stroke:black;stroke-width:1px;stroke-linecap:butt;stroke-linejoin:miter;stroke-opacity:1"
     d="M 152.8518,105.56785 L 152.8518,109.28017"
     id="path11094" />
  <path
     style="fill:none;fill-rule:evenodd;stroke:black;stroke-width:1px;stroke-linecap:butt;stroke-linejoin:miter;stroke-opacity:1"
     d="M 140.30065,109.8105 L 140.16807,113.39022"
     id="path11096"
     sodipodi:nodetypes="cc" />
  <path
     style="fill:none;fill-rule:evenodd;stroke:black;stroke-width:1px;stroke-linecap:butt;stroke-linejoin:miter;stroke-opacity:1"
     d="M 150.02337,109.8105 L 149.66982,112.63893"
     id="path11098" />
  <path
     style="fill:none;fill-rule:evenodd;stroke:black;stroke-width:1px;stroke-linecap:butt;stroke-linejoin:miter;stroke-opacity:1"
     d="M 159.92287,109.63372 L 160.05545,114.18572"
     id="path11100"
     sodipodi:nodetypes="cc" />
  <path
     style="fill:none;fill-rule:evenodd;stroke:black;stroke-width:1px;stroke-linecap:butt;stroke-linejoin:miter;stroke-opacity:1"
     d="M 135.17413,115.29058 L 135.52768,120.94743"
     id="path11102" />
  <path
     style="fill:none;fill-rule:evenodd;stroke:black;stroke-width:1px;stroke-linecap:butt;stroke-linejoin:miter;stroke-opacity:1"
     d="M 145.42718,115.29058 L 145.78073,120.77065"
     id="path11104" />
  <path
     style="fill:none;fill-rule:evenodd;stroke:black;stroke-width:1px;stroke-linecap:butt;stroke-linejoin:miter;stroke-opacity:1"
     d="M 155.50345,114.93702 L 156.21056,120.59388"
     id="path11106" />
  <path
     style="fill:none;fill-rule:evenodd;stroke:black;stroke-width:1px;stroke-linecap:butt;stroke-linejoin:miter;stroke-opacity:1"
     d="M 35.825627,110.34083 L 36.355957,116.17445"
     id="path11108" />
  <path
     style="fill:none;fill-rule:evenodd;stroke:black;stroke-width:1px;stroke-linecap:butt;stroke-linejoin:miter;stroke-opacity:1"
     d="M 45.901898,110.16405 L 46.078675,115.99768"
     id="path11110" />
  <path
     style="fill:none;fill-rule:evenodd;stroke:black;stroke-width:1px;stroke-linecap:butt;stroke-linejoin:miter;stroke-opacity:1"
     d="M 41.305704,116.17445 L 41.836034,122.18487"
     id="path11112" />
  <path
     style="fill:none;fill-rule:evenodd;stroke:black;stroke-width:1px;stroke-linecap:butt;stroke-linejoin:miter;stroke-opacity:1"
     d="M 52.442636,116.17445 L 52.619413,121.83131"
     id="path11114" />
  <path
     style="fill:none;fill-rule:evenodd;stroke:black;stroke-width:1px;stroke-linecap:butt;stroke-linejoin:miter;stroke-opacity:1"
     d="M 57.392383,110.16405 L 57.56916,115.82091"
     id="path11116" />
  <path
     style="fill:none;fill-rule:evenodd;stroke:black;stroke-width:1px;stroke-linecap:butt;stroke-linejoin:miter;stroke-opacity:1"
     d="M 143.65942,94.961251 L 143.65942,100.61811"
     id="path11118" />
  <path
     style="fill:none;fill-rule:evenodd;stroke:black;stroke-width:1px;stroke-linecap:butt;stroke-linejoin:miter;stroke-opacity:1"
     d="M 138.70967,100.97166 L 138.53288,105.39108"
     id="path11120" />
  <path
     style="fill:none;fill-rule:evenodd;stroke:black;stroke-width:1px;stroke-linecap:butt;stroke-linejoin:miter;stroke-opacity:1"
     d="M 149.31626,101.14844 L 148.96272,104.86074"
     id="path11122" />
  <path
     style="fill:none;fill-rule:evenodd;stroke:black;stroke-width:1px;stroke-linecap:butt;stroke-linejoin:miter;stroke-opacity:1"
     d="M 159.74608,101.32522 L 160.09965,105.03753"
     id="path11124" />
  <path
     style="fill:none;fill-rule:evenodd;stroke:black;stroke-width:1px;stroke-linecap:butt;stroke-linejoin:miter;stroke-opacity:1"
     d="M 155.14989,95.668358 L 155.14989,100.61811"
     id="path11126"
     sodipodi:nodetypes="cc" />
  <g
     id="g10878"
     transform="translate(5.114713,-2.265625)"
     style="fill:#66503d;fill-opacity:1">
    <g
       id="g10868"
       style="fill:#66503d;fill-opacity:1">
      <path
         style="fill:#66503d;fill-opacity:1;stroke:black;stroke-width:1.00000048;stroke-miterlimit:4;stroke-dasharray:none;stroke-opacity:1"
         d="M 129.48818,113.57444 C 125.38884,113.57444 122.03419,116.79892 122.03419,120.73542 L 122.03419,121.43747 L 136.91392,121.43747 L 136.91392,120.73542 C 137.22342,116.81484 133.58749,113.57444 129.48818,113.57444 z "
         id="path10854" />
      <path
         id="path10856"
         d="M 148.93362,113.57444 C 144.83428,113.57444 141.47963,116.79892 141.47963,120.73542 L 141.47963,121.43747 L 156.35936,121.43747 L 156.35936,120.73542 C 156.66886,116.81484 153.03293,113.57444 148.93362,113.57444 z "
         style="fill:#66503d;fill-opacity:1;stroke:black;stroke-width:1.00000048;stroke-miterlimit:4;stroke-dasharray:none;stroke-opacity:1" />
    </g>
    <g
       transform="translate(-98.6414,0)"
       id="g10872"
       style="fill:#66503d;fill-opacity:1">
      <path
         id="path10874"
         d="M 129.48818,113.57444 C 125.38884,113.57444 122.03419,116.79892 122.03419,120.73542 L 122.03419,121.43747 L 136.91392,121.43747 L 136.91392,120.73542 C 137.22342,116.81484 133.58749,113.57444 129.48818,113.57444 z "
         style="fill:#66503d;fill-opacity:1;stroke:black;stroke-width:1.00000048;stroke-miterlimit:4;stroke-dasharray:none;stroke-opacity:1" />
      <path
         style="fill:#66503d;fill-opacity:1;stroke:black;stroke-width:1.00000048;stroke-miterlimit:4;stroke-dasharray:none;stroke-opacity:1"
         d="M 148.93362,113.57444 C 144.83428,113.57444 141.47963,116.79892 141.47963,120.73542 L 141.47963,121.43747 L 156.35936,121.43747 L 156.35936,120.73542 C 156.66886,116.81484 153.03293,113.57444 148.93362,113.57444 z "
         id="path10876" />
    </g>
  </g>
  <path
     style="fill:#d79d56;fill-opacity:1;stroke:black;stroke-width:1;stroke-miterlimit:4;stroke-dasharray:none;stroke-opacity:1"
     d="M 67.171875,26.765625 L 67.140625,43.453125 L 76.078125,50.546875 L 76.078125,98.578125 L 67.796875,115.39063 L 67.796875,178.35938 C 71.679335,180.21436 75.606283,182.07538 80.390625,184.42188 C 90.167318,189.21688 94.984375,197.67188 94.984375,197.67188 C 94.984375,197.67188 99.832689,189.21688 109.60938,184.42188 C 114.40321,182.07073 118.31832,180.1867 122.20313,178.32813 L 122.20313,115.39063 L 113.92188,98.578125 L 113.92188,50.546875 L 122.85938,43.453125 L 122.85938,26.765625 L 115.04688,26.765625 L 115.04688,38.578125 L 106.89063,38.578125 L 106.89063,26.765625 L 99.078125,26.765625 L 99.078125,38.578125 L 90.921875,38.578125 L 90.921875,26.765625 L 83.140625,26.765625 L 83.140625,38.578125 L 74.953125,38.578125 L 74.953125,26.765625 L 67.171875,26.765625 z "
     id="path6340" />
  <path
     style="fill:none;fill-rule:evenodd;stroke:black;stroke-width:1px;stroke-linecap:butt;stroke-linejoin:miter;stroke-opacity:1"
     d="M 67.115102,43.430845 L 122.97654,43.430845"
     id="path10886" />
  <path
     style="fill:none;fill-rule:evenodd;stroke:black;stroke-width:1px;stroke-linecap:butt;stroke-linejoin:miter;stroke-opacity:1"
     d="M 113.96093,50.590301 L 76.130713,50.590301"
     id="path10888" />
  <path
     style="fill:none;fill-rule:evenodd;stroke:black;stroke-width:1px;stroke-linecap:butt;stroke-linejoin:miter;stroke-opacity:1"
     d="M 76.219101,58.898806 L 113.78415,58.898806"
     id="path10890" />
  <path
     id="path10892"
     d="M 76.219101,67.472476 L 113.78415,67.472476"
     style="fill:none;fill-rule:evenodd;stroke:black;stroke-width:1px;stroke-linecap:butt;stroke-linejoin:miter;stroke-opacity:1" />
  <path
     style="fill:none;fill-rule:evenodd;stroke:black;stroke-width:1px;stroke-linecap:butt;stroke-linejoin:miter;stroke-opacity:1"
     d="M 76.219101,76.576476 L 113.78415,76.576476"
     id="path10894" />
  <path
     id="path10896"
     d="M 76.219101,86.122418 L 113.78415,86.122418"
     style="fill:none;fill-rule:evenodd;stroke:black;stroke-width:1px;stroke-linecap:butt;stroke-linejoin:miter;stroke-opacity:1" />
  <path
     style="fill:none;fill-rule:evenodd;stroke:black;stroke-width:1px;stroke-linecap:butt;stroke-linejoin:miter;stroke-opacity:1"
     d="M 76.219101,94.961253 L 113.78415,94.961253"
     id="path10898" />
  <path
     id="path10900"
     d="M 72.860344,105.39108 L 117.14291,105.39108"
     style="fill:none;fill-rule:evenodd;stroke:black;stroke-width:1px;stroke-linecap:butt;stroke-linejoin:miter;stroke-opacity:1"
     sodipodi:nodetypes="cc" />
  <path
     sodipodi:nodetypes="cc"
     style="fill:none;fill-rule:evenodd;stroke:black;stroke-width:1px;stroke-linecap:butt;stroke-linejoin:miter;stroke-opacity:1"
     d="M 69.32481,112.90408 L 120.50167,112.90408"
     id="path10902" />
  <path
     id="path10904"
     d="M 68.175761,123.33391 L 121.91588,123.33391"
     style="fill:none;fill-rule:evenodd;stroke:black;stroke-width:1px;stroke-linecap:butt;stroke-linejoin:miter;stroke-opacity:1"
     sodipodi:nodetypes="cc" />
  <path
     sodipodi:nodetypes="cc"
     style="fill:none;fill-rule:evenodd;stroke:black;stroke-width:1px;stroke-linecap:butt;stroke-linejoin:miter;stroke-opacity:1"
     d="M 68.175761,132.43791 L 121.91588,132.43791"
     id="path10906" />
  <path
     id="path10908"
     d="M 68.175761,132.43791 L 121.91588,132.43791"
     style="fill:none;fill-rule:evenodd;stroke:black;stroke-width:1px;stroke-linecap:butt;stroke-linejoin:miter;stroke-opacity:1"
     sodipodi:nodetypes="cc" />
  <path
     sodipodi:nodetypes="cc"
     style="fill:none;fill-rule:evenodd;stroke:black;stroke-width:1px;stroke-linecap:butt;stroke-linejoin:miter;stroke-opacity:1"
     d="M 68.175761,141.36513 L 121.91588,141.36513"
     id="path10910" />
  <path
     id="path10912"
     d="M 68.175761,141.36513 L 121.91588,141.36513"
     style="fill:none;fill-rule:evenodd;stroke:black;stroke-width:1px;stroke-linecap:butt;stroke-linejoin:miter;stroke-opacity:1"
     sodipodi:nodetypes="cc" />
  <path
     sodipodi:nodetypes="cc"
     style="fill:none;fill-rule:evenodd;stroke:black;stroke-width:1px;stroke-linecap:butt;stroke-linejoin:miter;stroke-opacity:1"
     d="M 68.175761,150.46912 L 121.91588,150.46912"
     id="path10914" />
  <path
     id="path10916"
     d="M 68.175761,158.07053 L 121.91588,158.07053"
     style="fill:none;fill-rule:evenodd;stroke:black;stroke-width:1px;stroke-linecap:butt;stroke-linejoin:miter;stroke-opacity:1"
     sodipodi:nodetypes="cc" />
  <path
     sodipodi:nodetypes="cc"
     style="fill:none;fill-rule:evenodd;stroke:black;stroke-width:1px;stroke-linecap:butt;stroke-linejoin:miter;stroke-opacity:1"
     d="M 68.175761,165.31837 L 121.91588,165.31837"
     id="path10918" />
  <path
     id="path10920"
     d="M 68.175761,172.74299 L 121.91588,172.74299"
     style="fill:none;fill-rule:evenodd;stroke:black;stroke-width:1px;stroke-linecap:butt;stroke-linejoin:miter;stroke-opacity:1"
     sodipodi:nodetypes="cc" />
  <path
     sodipodi:nodetypes="cc"
     style="fill:none;fill-rule:evenodd;stroke:black;stroke-width:1px;stroke-linecap:butt;stroke-linejoin:miter;stroke-opacity:1"
     d="M 79.047528,184.05669 L 110.42539,184.05669"
     id="path10922" />
  <path
     style="fill:none;fill-rule:evenodd;stroke:black;stroke-width:1px;stroke-linecap:butt;stroke-linejoin:miter;stroke-opacity:1"
     d="M 62.695684,105.03753 L 62.872461,109.63372"
     id="path11076" />
  <path
     style="fill:none;fill-rule:evenodd;stroke:black;stroke-width:1px;stroke-linecap:butt;stroke-linejoin:miter;stroke-opacity:1"
     d="M 68.706092,100.08777 L 68.706092,104.5072"
     id="path11078" />
  <path
     style="fill:none;fill-rule:evenodd;stroke:black;stroke-width:1px;stroke-linecap:butt;stroke-linejoin:miter;stroke-opacity:1"
     d="M 64.817005,94.430921 L 64.817005,99.557445"
     id="path11080" />
  <path
     style="fill:none;fill-rule:evenodd;stroke:black;stroke-width:1px;stroke-linecap:butt;stroke-linejoin:miter;stroke-opacity:1"
     d="M 122.62299,95.138028 L 122.79976,100.44133"
     id="path11084" />
  <path
     style="fill:none;fill-rule:evenodd;stroke:black;stroke-width:1px;stroke-linecap:butt;stroke-linejoin:miter;stroke-opacity:1"
     d="M 84.085664,50.943854 L 83.732111,58.722029"
     id="path11128" />
  <path
     style="fill:none;fill-rule:evenodd;stroke:black;stroke-width:1px;stroke-linecap:butt;stroke-linejoin:miter;stroke-opacity:1"
     d="M 98.051023,50.767078 L 97.69747,58.545252"
     id="path11130" />
  <path
     style="fill:none;fill-rule:evenodd;stroke:black;stroke-width:1px;stroke-linecap:butt;stroke-linejoin:miter;stroke-opacity:1"
     d="M 108.65763,50.943854 L 108.65763,59.075582"
     id="path11132" />
  <path
     style="fill:none;fill-rule:evenodd;stroke:black;stroke-width:1px;stroke-linecap:butt;stroke-linejoin:miter;stroke-opacity:1"
     d="M 93.808383,59.075582 L 93.985159,67.20731"
     id="path11134" />
  <path
     style="fill:none;fill-rule:evenodd;stroke:black;stroke-width:1px;stroke-linecap:butt;stroke-linejoin:miter;stroke-opacity:1"
     d="M 97.520693,67.560864 L 97.520693,76.222922"
     id="path11136" />
  <path
     style="fill:none;fill-rule:evenodd;stroke:black;stroke-width:1px;stroke-linecap:butt;stroke-linejoin:miter;stroke-opacity:1"
     d="M 108.83441,67.384087 L 109.18796,76.222922"
     id="path11138" />
  <path
     style="fill:none;fill-rule:evenodd;stroke:black;stroke-width:1px;stroke-linecap:butt;stroke-linejoin:miter;stroke-opacity:1"
     d="M 80.373354,67.73764 L 80.726907,76.576475"
     id="path11140" />
  <path
     style="fill:none;fill-rule:evenodd;stroke:black;stroke-width:1px;stroke-linecap:butt;stroke-linejoin:miter;stroke-opacity:1"
     d="M 88.858635,76.576475 L 88.858635,85.94564"
     id="path11142" />
  <path
     style="fill:none;fill-rule:evenodd;stroke:black;stroke-width:1px;stroke-linecap:butt;stroke-linejoin:miter;stroke-opacity:1"
     d="M 102.64722,76.576475 L 102.47044,85.94564"
     id="path11144" />
  <path
     style="fill:none;fill-rule:evenodd;stroke:black;stroke-width:1px;stroke-linecap:butt;stroke-linejoin:miter;stroke-opacity:1"
     d="M 95.222596,86.122417 L 95.222596,94.961251"
     id="path11146" />
  <path
     style="fill:none;fill-rule:evenodd;stroke:black;stroke-width:1px;stroke-linecap:butt;stroke-linejoin:miter;stroke-opacity:1"
     d="M 83.201781,85.94564 L 83.201781,94.784475"
     id="path11148" />
  <path
     style="fill:none;fill-rule:evenodd;stroke:black;stroke-width:1px;stroke-linecap:butt;stroke-linejoin:miter;stroke-opacity:1"
     d="M 110.24862,86.122417 L 110.07183,94.607698"
     id="path11150" />
  <g
     id="g10858"
     transform="translate(4.673304,-2.265625)"
     style="fill:#66503d;fill-opacity:1">
    <path
       id="rect7285"
       d="M 82.5,60.90625 C 80.570393,60.90625 79,62.476643 79,64.40625 L 79,74.40625 L 86,74.40625 L 86,64.40625 C 86.14569,62.484454 84.429604,60.906248 82.5,60.90625 z "
       style="fill:#66503d;fill-opacity:1;stroke:black;stroke-width:1;stroke-miterlimit:4;stroke-dasharray:none;stroke-opacity:1" />
    <path
       style="fill:#66503d;fill-opacity:1;stroke:black;stroke-width:1;stroke-miterlimit:4;stroke-dasharray:none;stroke-opacity:1"
       d="M 98.144737,60.90625 C 96.21513,60.90625 94.644737,62.476643 94.644737,64.40625 L 94.644737,74.40625 L 101.64474,74.40625 L 101.64474,64.40625 C 101.79043,62.484454 100.07434,60.906248 98.144737,60.90625 z "
       id="path9071" />
  </g>
  <path
     style="fill:#66503d;fill-opacity:1;stroke:black;stroke-width:1.00000036;stroke-miterlimit:4;stroke-dasharray:none;stroke-opacity:1"
     d="M 104.89342,97.708324 C 102.18425,97.708324 99.97942,99.875065 99.97942,102.53743 L 99.97942,116.33486 L 109.80742,116.33486 L 109.80742,102.53743 C 110.01197,99.885835 107.60259,97.708324 104.89342,97.708324 z "
     id="path10843" />
  <path
     id="path10862"
     d="M 85.094434,97.708324 C 82.38526,97.708324 80.18043,99.875065 80.18043,102.53743 L 80.18043,116.33486 L 90.008434,116.33486 L 90.008434,102.53743 C 90.212974,99.885835 87.803594,97.708324 85.094434,97.708324 z "
     style="fill:#66503d;fill-opacity:1;stroke:black;stroke-width:1.00000036;stroke-miterlimit:4;stroke-dasharray:none;stroke-opacity:1" />
  <path
     style="fill:#66503d;fill-opacity:1;stroke:black;stroke-width:1.00000024;stroke-miterlimit:4;stroke-dasharray:none;stroke-opacity:1"
     d="M 94.984375,151.26563 C 88.753741,151.26563 83.671875,156.137 83.671875,162.10938 L 83.671875,186.26563 C 91.245027,191.10612 94.984375,197.67188 94.984375,197.67188 C 94.984375,197.67188 98.741866,191.13513 106.29688,186.29688 L 106.29688,162.10938 C 106.76728,156.16116 101.21498,151.26563 94.984375,151.26563 z "
     id="path10926" />
  <path
     style="fill:none;fill-rule:evenodd;stroke:black;stroke-width:1px;stroke-linecap:butt;stroke-linejoin:miter;stroke-opacity:1"
     d="M 88.151528,94.961251 L 87.974752,98.673565"
     id="path12037" />
  <path
     style="fill:none;fill-rule:evenodd;stroke:black;stroke-width:1px;stroke-linecap:butt;stroke-linejoin:miter;stroke-opacity:1"
     d="M 101.58656,95.138028 L 101.58656,98.673565"
     id="path12039" />
  <path
     style="fill:none;fill-rule:evenodd;stroke:black;stroke-width:1px;stroke-linecap:butt;stroke-linejoin:miter;stroke-opacity:1"
     d="M 94.692266,105.2143 L 94.692266,112.8157"
     id="path12041" />
  <path
     style="fill:none;fill-rule:evenodd;stroke:black;stroke-width:1px;stroke-linecap:butt;stroke-linejoin:miter;stroke-opacity:1"
     d="M 76.30749,105.2143 L 76.30749,112.99248"
     id="path12043" />
  <path
     style="fill:none;fill-rule:evenodd;stroke:black;stroke-width:1px;stroke-linecap:butt;stroke-linejoin:miter;stroke-opacity:1"
     d="M 84.262441,116.35124 L 84.439218,123.24553"
     id="path12045" />
  <path
     style="fill:none;fill-rule:evenodd;stroke:black;stroke-width:1px;stroke-linecap:butt;stroke-linejoin:miter;stroke-opacity:1"
     d="M 104.41499,116.17445 L 104.41499,123.4223"
     id="path12047" />
  <path
     style="fill:none;fill-rule:evenodd;stroke:black;stroke-width:1px;stroke-linecap:butt;stroke-linejoin:miter;stroke-opacity:1"
     d="M 113.07705,105.56785 L 113.07705,112.99248"
     id="path12049" />
  <path
     style="fill:none;fill-rule:evenodd;stroke:black;stroke-width:1px;stroke-linecap:butt;stroke-linejoin:miter;stroke-opacity:1"
     d="M 78.252033,123.24553 L 77.721703,132.26114"
     id="path12051" />
  <path
     style="fill:none;fill-rule:evenodd;stroke:black;stroke-width:1px;stroke-linecap:butt;stroke-linejoin:miter;stroke-opacity:1"
     d="M 93.985159,123.24553 L 93.985159,132.26114"
     id="path12053" />
  <path
     style="fill:none;fill-rule:evenodd;stroke:black;stroke-width:1px;stroke-linecap:butt;stroke-linejoin:miter;stroke-opacity:1"
     d="M 113.07705,123.06875 L 112.90027,132.61469"
     id="path12055" />
  <path
     style="fill:none;fill-rule:evenodd;stroke:black;stroke-width:1px;stroke-linecap:butt;stroke-linejoin:miter;stroke-opacity:1"
     d="M 103.70788,132.26114 L 103.88466,141.45353"
     id="path12057" />
  <path
     style="fill:none;fill-rule:evenodd;stroke:black;stroke-width:1px;stroke-linecap:butt;stroke-linejoin:miter;stroke-opacity:1"
     d="M 84.439218,132.61469 L 84.439218,141.27675"
     id="path12059" />
  <path
     style="fill:none;fill-rule:evenodd;stroke:black;stroke-width:1px;stroke-linecap:butt;stroke-linejoin:miter;stroke-opacity:1"
     d="M 75.600383,141.45353 L 75.77716,150.29235"
     id="path12061" />
  <path
     style="fill:none;fill-rule:evenodd;stroke:black;stroke-width:1px;stroke-linecap:butt;stroke-linejoin:miter;stroke-opacity:1"
     d="M 93.808383,141.45353 L 93.985159,150.46913"
     id="path12063" />
  <path
     style="fill:none;fill-rule:evenodd;stroke:black;stroke-width:1px;stroke-linecap:butt;stroke-linejoin:miter;stroke-opacity:1"
     d="M 114.13771,141.63029 L 114.13771,150.46913"
     id="path12065" />
  <path
     style="fill:none;fill-rule:evenodd;stroke:black;stroke-width:1px;stroke-linecap:butt;stroke-linejoin:miter;stroke-opacity:1"
     d="M 106.18276,150.46913 L 107.24342,157.71697"
     id="path12067" />
  <path
     style="fill:none;fill-rule:evenodd;stroke:black;stroke-width:1px;stroke-linecap:butt;stroke-linejoin:miter;stroke-opacity:1"
     d="M 80.903684,150.64592 L 80.373354,158.07054"
     id="path12069" />
  <path
     style="fill:none;fill-rule:evenodd;stroke:black;stroke-width:1px;stroke-linecap:butt;stroke-linejoin:miter;stroke-opacity:1"
     d="M 74.539723,157.89376 L 74.7165,165.67192"
     id="path12071" />
  <path
     style="fill:none;fill-rule:evenodd;stroke:black;stroke-width:1px;stroke-linecap:butt;stroke-linejoin:miter;stroke-opacity:1"
     d="M 114.66804,157.71697 L 114.31448,165.31838"
     id="path12073" />
  <path
     style="fill:none;fill-rule:evenodd;stroke:black;stroke-width:1px;stroke-linecap:butt;stroke-linejoin:miter;stroke-opacity:1"
     d="M 113.78415,172.91977 L 113.4306,182.73088"
     id="path12075"
     sodipodi:nodetypes="cc" />
  <path
     style="fill:none;fill-rule:evenodd;stroke:black;stroke-width:1px;stroke-linecap:butt;stroke-linejoin:miter;stroke-opacity:1"
     d="M 76.30749,172.91977 L 75.600383,182.20055"
     id="path12077"
     sodipodi:nodetypes="cc" />
  <path
     id="path2203"
     d="M 4.359375,2.328125 C 12.205525,7.739266 21.671875,16.097097 21.671875,34.796875 L 23.828125,127.32813 C 23.828126,147.36488 24.233335,156.55954 42.765625,166.01563 C 60.367746,174.9971 67.050175,177.879 80.390625,184.42188 C 90.167318,189.21688 94.984375,197.67188 94.984375,197.67188 C 94.984375,197.67188 99.832689,189.21688 109.60938,184.42188 C 122.94983,177.879 129.601,174.9971 147.20313,166.01563 C 165.73541,156.55954 166.14062,147.36488 166.14063,127.32813 L 168.32813,34.796875 C 168.32813,16.097097 177.79448,7.739266 185.64063,2.328125 L 94.984375,2.328125 L 4.359375,2.328125 z "
     style="fill:none;fill-opacity:1;fill-rule:evenodd;stroke:black;stroke-width:2;stroke-linecap:butt;stroke-linejoin:miter;stroke-miterlimit:4;stroke-dasharray:none;stroke-opacity:1" />
</svg>
