<?xml version="1.0" encoding="UTF-8" standalone="no"?>
<svg
   xmlns:dc="http://purl.org/dc/elements/1.1/"
   xmlns:cc="http://creativecommons.org/ns#"
   xmlns:rdf="http://www.w3.org/1999/02/22-rdf-syntax-ns#"
   xmlns:svg="http://www.w3.org/2000/svg"
   xmlns="http://www.w3.org/2000/svg"
   xmlns:xlink="http://www.w3.org/1999/xlink"
   xmlns:sodipodi="http://sodipodi.sourceforge.net/DTD/sodipodi-0.dtd"
   xmlns:inkscape="http://www.inkscape.org/namespaces/inkscape"
   version="1.0"
   width="208.86046"
   height="244.65999"
   id="svg2780"
   inkscape:version="1.0.2-2 (e86c870879, 2021-01-15)"
   sodipodi:docname="Cermes-Stemma.svg">
  <metadata
     id="metadata27">
    <rdf:RDF>
      <cc:Work
         rdf:about="">
        <dc:format>image/svg+xml</dc:format>
        <dc:type
           rdf:resource="http://purl.org/dc/dcmitype/StillImage" />
        <dc:title />
      </cc:Work>
    </rdf:RDF>
  </metadata>
  <sodipodi:namedview
     pagecolor="#ffffff"
     bordercolor="#666666"
     borderopacity="1"
     objecttolerance="10"
     gridtolerance="10"
     guidetolerance="10"
     inkscape:pageopacity="0"
     inkscape:pageshadow="2"
     inkscape:window-width="1920"
     inkscape:window-height="986"
     id="namedview25"
     showgrid="false"
     inkscape:zoom="1.3555754"
     inkscape:cx="-106.02213"
     inkscape:cy="10.329807"
     inkscape:window-x="-11"
     inkscape:window-y="-11"
     inkscape:window-maximized="1"
     inkscape:current-layer="layer5"
     inkscape:measure-start="104.255,149.787"
     inkscape:measure-end="104.255,126.383"
     showguides="false"
     inkscape:object-paths="true"
     inkscape:snap-intersection-paths="true"
     inkscape:snap-global="true"
     inkscape:document-rotation="0" />
  <defs
     id="defs2782">
    <clipPath
       id="clip0">
      <rect
         x="1381"
         y="359"
         width="400"
         height="226"
         id="rect977" />
    </clipPath>
    <linearGradient
       inkscape:collect="always"
       xlink:href="#linearGradient10567"
       id="linearGradient10573"
       x1="16.381609"
       y1="292.85181"
       x2="538.30701"
       y2="337.58191"
       gradientUnits="userSpaceOnUse" />
    <linearGradient
       id="linearGradient10567">
      <stop
         style="stop-color:#ff7436;stop-opacity:1;"
         offset="0"
         id="stop10569" />
      <stop
         id="stop10575"
         offset="0.57101637"
         style="stop-color:#bc3800;stop-opacity:1;" />
      <stop
         style="stop-color:#f44800;stop-opacity:1;"
         offset="1"
         id="stop10571" />
    </linearGradient>
    <radialGradient
       inkscape:collect="always"
       xlink:href="#linearGradient2885"
       id="radialGradient10630"
       cx="526.11279"
       cy="160.82518"
       fx="526.11279"
       fy="160.82518"
       r="54.698215"
       gradientTransform="matrix(3.3660607,2.8748457e-8,-4.9311915e-8,3.1861324,-1244.8147,-345.74593)"
       gradientUnits="userSpaceOnUse" />
    <linearGradient
       id="linearGradient2885">
      <stop
         id="stop2887"
         offset="0"
         style="stop-color:white;stop-opacity:1;" />
      <stop
         style="stop-color:white;stop-opacity:1;"
         offset="0.47866169"
         id="stop2891" />
      <stop
         id="stop2889"
         offset="1"
         style="stop-color:black;stop-opacity:1;" />
    </linearGradient>
    <radialGradient
       inkscape:collect="always"
       xlink:href="#linearGradient2893"
       id="radialGradient3163"
       gradientUnits="userSpaceOnUse"
       gradientTransform="matrix(28.280199,0,0,28.485434,-21231.058,-2877.8682)"
       cx="221.44487"
       cy="226.33101"
       fx="221.44487"
       fy="226.33101"
       r="300" />
    <linearGradient
       id="linearGradient2893">
      <stop
         style="stop-color:white;stop-opacity:0.3137255;"
         offset="0"
         id="stop2895" />
      <stop
         id="stop2897"
         offset="0.19"
         style="stop-color:white;stop-opacity:0.25098041;" />
      <stop
         style="stop-color:#6b6b6b;stop-opacity:0.1254902;"
         offset="0.60000002"
         id="stop2901" />
      <stop
         style="stop-color:black;stop-opacity:0.1254902;"
         offset="1"
         id="stop2899" />
    </linearGradient>
    <clipPath
       id="clip0-5">
      <rect
         x="1082"
         y="242"
         width="96"
         height="194"
         id="rect1083" />
    </clipPath>
    <clipPath
       id="clip0-0">
      <rect
         x="302"
         y="589"
         width="420"
         height="93"
         id="rect1283" />
    </clipPath>
  </defs>
  <path
     inkscape:connector-curvature="0"
     style="fill:#ffff00;fill-opacity:1;fill-rule:evenodd;stroke:#000000;stroke-width:1.99999988;stroke-linecap:butt;stroke-miterlimit:4;stroke-dashoffset:0;stroke-opacity:1"
     id="path4212"
     d="m 1,1 3.761095,158.00304 c 2.686489,112.85918 196.651755,112.85918 199.338255,0 L 207.86045,1 Z" />
  <path
     inkscape:connector-curvature="0"
     style="fill:none;fill-opacity:1;fill-rule:evenodd;stroke:#000000;stroke-width:1.99999988;stroke-linecap:butt;stroke-miterlimit:4;stroke-dashoffset:0;stroke-opacity:1"
     id="path4212-8"
     d="M 1,0.99999834 4.761095,159.00304 c 2.686489,112.85918 196.651755,112.85918 199.338255,0 l 3.7611,-158.00304166 z" />
  <g
     style="display:inline;fill:#e20909;fill-opacity:1;stroke:#000000;stroke-width:24.8683;stroke-miterlimit:4;stroke-dasharray:none;stroke-opacity:1"
     inkscape:r_cy="true"
     inkscape:r_cx="true"
     id="use18154"
     inkscape:label="Ebene 1"
     transform="matrix(0.04785037,0,0,0.04735501,24.523123,142.4046)">
    <g
       inkscape:r_cy="true"
       inkscape:r_cx="true"
       transform="matrix(0.70788804,0,0,0.5925032,7926.8171,-1825.5735)"
       id="g1805"
       style="fill:#e20909;stroke:#000000;stroke-width:24.8683;stroke-miterlimit:4;stroke-dasharray:none;stroke-opacity:1">
      <g
         id="g10015"
         transform="matrix(6.9208196,0,0,10.059546,-10661.355,-1171.0343)"
         style="display:inline;stroke:#000000;stroke-width:4.97274">
        <g
           transform="translate(-60.92763,-40.391678)"
           style="display:inline;stroke:#000000;stroke-width:4.97274"
           inkscape:label="Meubles-Renard-fond"
           id="layer5">
          <path
             d="m 334.10725,120.28745 c 0,8.46426 -24.6118,15.32577 -54.9717,15.32577 -30.3601,0 -54.9716,-6.86151 -54.9716,-15.32577 22.7701,8.46426 65.8405,10.17955 96.2004,3.83144 5.2089,-1.08915 9.8362,-2.37923 13.7429,-3.83144 z"
             stroke="#000000"
             stroke-width="0.423269"
             stroke-miterlimit="8"
             fill="#ff0000"
             fill-rule="evenodd"
             id="path1288" />
          <path
             sodipodi:nodetypes="cccszzsscsccssssssssscsssscscscsssscccccssscsczczsssscccccccccccccccsscscscsczcssccsscccccssscscscssscczcccccccscccccccccccccccsccccccsccccscccccccccccccc"
             inkscape:connector-curvature="0"
             id="path3020"
             d="m 381.58063,41.891848 c 0,0 -16.88284,19.831449 -21.9103,29.616576 -13.7198,-2.185311 -38.66474,-2.464795 -53.48038,5.737524 -40.7148,19.298159 -62.90479,14.784813 -71.8462,9.941552 -8.9414,-4.843262 -4.56037,11.878622 -0.375,18.63439 4.18537,6.75576 19.86618,10.01279 28.6875,10.80311 8.82132,0.79032 30.73157,-0.73888 33.53125,3.34375 8.10854,11.8243 9.22373,25.78967 3.2628,25.78967 -5.96094,0 -50.76781,-1.42875 -50.76781,-1.42875 0,0 -0.94275,13.63908 16.56751,13.63908 17.51025,0 38.75,1.125 38.75,1.125 0.95437,7.90016 2.76784,11.54746 1.6875,19.375 0,0 -6.9021,18.6189 -25.34375,17.6875 -18.44165,-0.93139 -20.84619,-2.4314 -21.21875,-1.5 -0.37256,0.93139 12.2705,10.4375 1.09375,10.4375 -11.17676,0 -27.01099,5.40308 -28.6875,9.6875 -1.67652,4.28442 17.88233,1.10108 19,2.21875 1.11768,1.11768 7.26685,4.67212 -4.46875,7.09375 -11.7356,2.42163 -29.05933,9.86621 -33.34375,18.0625 -4.28443,8.19629 18.25977,-7.07911 19.75,-4.84375 1.49024,2.23535 -0.18677,5.3982 -4.84375,8.9375 -1.36661,1.03862 -4.22601,3.56474 -7.46875,6.71875 -8.62199,-2.83999 -20.1095,-10.04238 -35.75,-26.34375 -37.40829,-38.98893 -44.27058,-54.23933 -54.28125,-64.25 -10.01067,-10.01067 -15.79553,-18.9919 -36.34375,-14.25 -20.548219,4.74189 -20.575777,1.32086 -22.167198,4.30723 -1.591417,2.98636 3.479394,5.93432 3.479394,5.93432 0,0 -4.138908,0.91613 -4.554799,6.12772 -0.296262,3.7125 5.084073,5.86974 5.084073,5.86974 0,0 -4.307843,4.3464 -3.484394,7.03232 1.549777,5.05505 5.984328,4.45962 6.293449,5.4161 -0.349477,0.42961 -4.79676,3.2796 -2.711267,6.8167 1.938761,3.28823 10.158226,2.5708 14.373245,1.71462 22.075877,-4.48416 29.520577,-8.69477 39.531247,7.375 23.8121,38.22471 32.66062,54.26247 33.1875,59.53125 0.52688,5.26877 4.75,-3.6875 4.75,-3.6875 l 12.09375,20.5625 6.84375,-7.90625 6.34375,10.53125 c 0,0 4.41836,17.13338 16.71875,25.15625 -5.352,2.93906 -25.5055,5.21241 -32.806,9.07125 -36.88142,19.49446 -62.94516,12.14441 -81.912747,4.24125 -18.967586,-7.90316 -31.829065,1.03074 -32.040777,2.33024 -0.69887,4.2897 6.216463,5.51072 6.216463,5.51072 0,0 -6.521509,1.10848 -6.590689,6.32364 -0.08356,6.29933 4.537299,6.95995 4.537299,6.95995 0,0 -4.521627,1.1495 -3.802649,6.86082 0.718979,5.71133 7.13556,6.67821 7.13556,6.67821 -2.839955,1.28429 -5.141883,2.48811 -3.792731,5.80981 1.349152,3.3217 19.898334,1.05646 25.15393,0.70312 8.050539,-0.54124 5.66644,-3.51456 26.919431,-7.69238 15.89123,-3.12382 19.98716,-2.39973 46.85791,0.23462 26.87075,2.63438 35.31302,0.52687 57.96875,0 7.71288,-0.17937 15.55473,-0.61282 22.59375,-1.09375 l 11.9375,26.8125 -0.5,0.625 c -2.98047,0 -23.08691,-7.45361 -45.81299,29.42969 19.37305,-6.70606 26.06299,-6.33594 26.06299,-6.33594 0,0 -29.81103,-2.2378 -35.39941,46.19482 13.54253,-12.93017 7.85131,-5.34074 14.89941,-10.19482 -10.12376,13.43345 -12.22851,21.39643 -6.31494,45.96875 1.96994,8.18559 1.60301,-9.95797 11.42285,-22.17773 -1.2397,7.8888 -3.91011,40.63033 -1.73291,46.02148 7.94296,-12.8685 14.84439,-9.58112 20.34375,-25.4375 -3.58005,12.59568 3.49707,15.28138 -1.71875,34.375 5.07696,-9.04554 14.79785,-14.13916 14.79785,-14.13916 0,0 -1.44735,8.28765 -6.23535,20.10791 9.02068,2.16375 11.9375,-10.8125 11.9375,-10.8125 0,0 7.15079,5.99453 -2.99707,25.35352 -24.21631,46.19726 -47.69482,49.16796 -65.57764,46.93261 -17.88281,-2.23535 -18.25536,4.56238 -24.2163,13.13123 -0.27941,2.79419 -3.12904,9.50074 -2.05005,12.11645 2.46004,5.96375 5.58398,1.77357 5.58398,1.77357 0,0 -4.26166,5.90645 -1.93592,9.30468 1.53186,2.23826 6.60804,-0.009 6.60804,-0.009 0,0 -2.40575,4.51947 0.84363,7.74036 2.97279,2.94673 11.16992,-1.69312 11.16992,-1.69312 0,0 -3.92191,9.85117 -1.12744,12.10425 2.79446,2.25308 10.83723,1.41642 14.55225,-2.22607 7.07861,-4.84326 8.83702,-6.80457 12.93517,-7.17713 4.09814,-0.37256 16.77735,-5.95801 19.38526,-10.80127 3.5326,-6.56054 4.07178,-13.41797 4.07178,-13.41797 l 60.00683,-51.78564 c 0,0 20.11279,5.23582 18.62256,-10.78418 -1.49024,-16.02002 -6.33057,-45.45313 5.21875,-57.375 11.54931,-11.92187 8.5625,10.0625 8.5625,10.0625 l 10.21875,-8.09375 c 6.19495,45.69926 61.6875,58.75 61.6875,58.75 0,0 16.75537,7.08594 21.59863,23.47852 1.49024,-13.78468 0.37012,-14.16602 0.37012,-14.16602 0,0 20.86426,-3.35011 10.80518,27.94482 -8.24007,25.63576 -24.84549,68.59971 -40.21875,64.09375 -21.6084,-6.33349 -23.11817,4.46485 -27.96143,14.52393 -4.84326,10.05908 7.10346,10.13342 7.10346,10.13342 0,0 -6.14518,6.65397 -2.07765,11.52113 1.30205,1.558 7.80312,-0.46535 7.80312,-0.46535 0,0 -4.8032,5.473 -1.89516,9.10954 3.23848,4.04977 10.35655,-0.62799 10.35655,-0.62799 0,0 -6.07745,5.84924 -0.72603,9.33786 1.33329,0.86918 7.64653,1.78173 13.42204,-0.22464 5.77552,-2.00641 -0.70322,-7.96463 8.61075,-12.43533 9.31396,-4.47071 16.35204,0.009 18.55349,-10.19473 7.2265,-29.25084 24.21613,-59.52124 36.48224,-86.20856 2.23535,-7.45117 15.37883,-7.86622 17.8794,-18.99316 2.50056,-11.12695 -13.03657,-22.86292 -17.15869,-38.75 8.17231,-0.61219 14.17578,7.08838 14.17578,7.08838 0,0 -3.07626,-25.05949 -5.22168,-32.79004 5.36823,2.2529 15.27148,13.79736 15.27148,13.79736 0,0 0.17174,-20.61871 -7.0791,-40.23535 5.48971,2.58789 13.78125,14.15625 13.78125,14.15625 0,0 -2.61966,-26.29528 -3.34375,-46.96875 8.62909,4.17121 39.00491,6.50819 56.625,-27.5625 10.1388,-19.60466 8.5625,-56.6128 11.54297,-84.18213 -7.45118,1.86279 -8.4722,14.49711 -16.76172,12.65088 -0.83835,-30.53324 18.25537,-43.97071 23.84375,-87.1875 -11.54932,-1.49023 -22.12621,23.05459 -27.92773,20.50732 -1.33083,-20.80264 24.94287,-39.4912 32.02148,-70.41357 -3.35303,-6.3335 -32.78125,7.0625 -32.78125,7.0625 0,0 35.77978,-18.98584 43.97607,-50.65332 -20.51741,4.79789 -24.23095,6.70117 -24.23095,6.70117 0,0 42.11132,-30.18017 23.11084,-61.4751 -11.92189,17.1377 -13.41846,26.0835 -13.41846,26.0835 0,0 5.59179,-58.476563 -42.84082,-67.790527 13.03954,38.746097 5.96582,61.821777 5.96582,61.821777 0,0 -3.14823,-15.7491 -11.92529,-13.7666 0.5369,15.39461 -8.57471,39.11279 -11.92774,42.83838 -0.37256,-15.27491 0.98994,-28.32005 -5.21191,-33.51612 -8.4372,7.09837 -23.46386,23.45021 -24.9541,34.62696 -1.49023,11.17676 -3.3584,15.27441 -3.3584,15.27441 0,0 -3.88773,-16.70329 -11.93701,-20.85547 -5.44138,11.86785 -4.4668,48.05469 -4.4668,48.05469 0,0 -16.50793,-12.26717 -18.61523,-11.92725 -7.32313,35.36044 2.97119,51.0376 28.67773,72.646 -7.07861,1.86279 -13.28884,1.61978 -26.44678,-1.0957 6.96023,31.18735 52.89161,61.09619 49.16602,61.46875 -3.72559,0.37255 -13.81411,-1.15795 -23.4541,-3.34815 5.58838,22.72608 40.98486,39.4751 40.98486,39.4751 l -18.28125,1.875 c 0,0 51.04785,65.17822 1.125,68.53125 -12.29443,-29.80468 -39.47802,-51.40967 -83.8125,-85.3125 -37.40747,-28.60571 -42.9841,-84.54615 -38.375,-108.78125 6.84445,2.58912 8.55518,16.39648 8.55518,16.39648 0,0 12.11352,-21.62158 1.12304,-63.34814 5.41195,4.97347 13.04053,16.04541 13.04053,16.04541 0,0 0.58324,-25.76332 -3.71875,-38 7.06105,0.0578 14.53125,16 14.53125,16 0,0 0.36035,-22.33252 -1.875,-30.15625 3.72558,1.67651 10.0791,8.36353 10.0791,8.36353 0,0 0.25312,-15.85658 -4.48535,-21.80103 -2.31684,-3.15026 -2.43579,-9.87378 -2.43579,-9.87378 0,0 33.82969,-9.22184 42.40081,-49.475947 -42.53996,1.944313 -34.94565,-6.286051 -58.40252,-2.244023 1.69803,-21.399524 -5.32562,-38.076902 -5.32562,-38.076902 z"
             style="fill:url(#linearGradient10573);fill-opacity:1;stroke:none" />
          <path
             d="m 255.55966,114.61223 -5.51505,15.3082 -5.51505,-15.3082 z"
             stroke="#000000"
             stroke-width="0.984525"
             stroke-miterlimit="8"
             fill="#ffffff"
             fill-rule="evenodd"
             id="path1088"
             style="fill:#ffffff;fill-opacity:1;stroke:#000000;stroke-opacity:1;stroke-width:0.9835565;stroke-miterlimit:8;stroke-dasharray:none" />
          <path
             d="m 267.61563,115.82942 -5.51505,15.3082 -5.51505,-15.3082 z"
             stroke="#000000"
             stroke-width="0.984525"
             stroke-miterlimit="8"
             fill="#ffffff"
             fill-rule="evenodd"
             id="path1088-9"
             style="display:inline;fill:#ffffff;fill-opacity:1;stroke:#000000;stroke-width:0.983557;stroke-miterlimit:4;stroke-dasharray:none;stroke-opacity:1" />
          <path
             d="m 279.71434,117.0085 -5.51505,15.3082 -5.51505,-15.3082 z"
             stroke="#000000"
             stroke-width="0.984525"
             stroke-miterlimit="8"
             fill="#ffffff"
             fill-rule="evenodd"
             id="path1088-9-6"
             style="display:inline;fill:#ffffff;fill-opacity:1;stroke:#000000;stroke-width:0.983557;stroke-miterlimit:4;stroke-dasharray:none;stroke-opacity:1" />
          <path
             d="m 292.80936,118.21186 -5.51505,15.3082 -5.51505,-15.3082 z"
             stroke="#000000"
             stroke-width="0.984525"
             stroke-miterlimit="8"
             fill="#ffffff"
             fill-rule="evenodd"
             id="path1088-9-6-4"
             style="display:inline;fill:#ffffff;fill-opacity:1;stroke:#000000;stroke-width:0.983557;stroke-miterlimit:4;stroke-dasharray:none;stroke-opacity:1" />
          <path
             d="m 262.16035,144.75061 -5.51505,-15.3082 -5.51505,15.3082 z"
             stroke="#000000"
             stroke-width="0.984525"
             stroke-miterlimit="8"
             fill="#ffffff"
             fill-rule="evenodd"
             id="path1088-9-6-4-7"
             style="display:inline;fill:#ffffff;fill-opacity:1;stroke:#000000;stroke-width:0.983557;stroke-miterlimit:4;stroke-dasharray:none;stroke-opacity:1" />
          <path
             d="m 273.1903,144.75061 -5.51505,-15.3082 -5.51505,15.3082 z"
             stroke="#000000"
             stroke-width="0.984525"
             stroke-miterlimit="8"
             fill="#ffffff"
             fill-rule="evenodd"
             id="path1088-9-6-4-7-0"
             style="display:inline;fill:#ffffff;fill-opacity:1;stroke:#000000;stroke-width:0.983557;stroke-miterlimit:4;stroke-dasharray:none;stroke-opacity:1" />
          <path
             d="m 287.06349,145.48294 -5.51505,-15.3082 -5.51505,15.3082 z"
             stroke="#000000"
             stroke-width="0.984525"
             stroke-miterlimit="8"
             fill="#ffffff"
             fill-rule="evenodd"
             id="path1088-9-6-4-7-0-1"
             style="display:inline;fill:#ffffff;fill-opacity:1;stroke:#000000;stroke-width:0.983557;stroke-miterlimit:4;stroke-dasharray:none;stroke-opacity:1" />
          <path
             d="m 300.03316,145.53518 -5.51505,-15.3082 -5.51505,15.3082 z"
             stroke="#000000"
             stroke-width="0.984525"
             stroke-miterlimit="8"
             fill="#ffffff"
             fill-rule="evenodd"
             id="path1088-9-6-4-7-0-1-6"
             style="display:inline;fill:#ffffff;fill-opacity:1;stroke:#000000;stroke-width:0.983557;stroke-miterlimit:4;stroke-dasharray:none;stroke-opacity:1" />
        </g>
        <g
           transform="translate(-60.92763,-40.391678)"
           id="g3807"
           inkscape:label="Meubles-Renard-blanc"
           style="display:inline;stroke:#000000;stroke-width:4.97274">
          <path
             sodipodi:nodetypes="cccccccccccsccccc"
             inkscape:connector-curvature="0"
             id="path3818"
             d="m 522.91572,210.65192 c 0,0 12.59949,-4.23825 21.61884,-4.13364 11.52202,-5.95449 29.58897,-8.31658 37.78526,-39.98406 -20.51741,4.79789 -24.23095,6.70117 -24.23095,6.70117 0,0 42.11132,-30.18017 23.11084,-61.4751 -11.92189,17.1377 -13.41846,26.0835 -13.41846,26.0835 0,0 5.59179,-58.476563 -42.84082,-67.790527 13.03954,38.746097 5.96582,61.821777 5.96582,61.821777 0,0 -3.14823,-15.7491 -11.92529,-13.7666 0.5369,15.39461 -8.57471,39.11279 -11.92774,42.83838 -0.37256,-15.27491 0.98994,-28.32005 -5.21191,-33.51612 -8.4372,7.09837 -23.46386,23.45021 -24.9541,34.62696 -1.49023,11.17676 7.9222,7.60133 8.75978,28.57807 4.39401,-5.1037 11.25999,-11.69796 18.095,-12.82059 2.33006,10.1555 -1.24165,13.36389 -0.91037,28.56022 11.76474,-12.89803 12.81875,-22.59643 28.93545,-29.57764 -7.85623,18.44063 -8.85135,33.8542 -8.85135,33.8542 z"
             style="fill:url(#radialGradient10630);fill-opacity:1;stroke:none" />
          <path
             sodipodi:nodetypes="ccsssssssssccccccccccccczc"
             inkscape:connector-curvature="0"
             id="path3816"
             d="m 305.98812,170.08619 c 0,0 0.68251,1.25938 -0.30062,8.38256 0,0 -6.9021,18.6189 -25.34375,17.6875 -18.44165,-0.93139 -20.84619,-2.4314 -21.21875,-1.5 -0.37256,0.93139 12.2705,10.4375 1.09375,10.4375 -11.17676,0 -27.01099,5.40308 -28.6875,9.6875 -1.67652,4.28442 17.88233,1.10108 19,2.21875 1.11768,1.11768 7.26685,4.67212 -4.46875,7.09375 -11.7356,2.42163 -29.05933,9.86621 -33.34375,18.0625 -4.28443,8.19629 18.25977,-7.07911 19.75,-4.84375 1.49024,2.23535 -0.18677,5.3982 -4.84375,8.9375 -1.36661,1.03862 -4.22601,3.56474 -7.46875,6.71875 -8.22683,5.85349 -20.96879,27.42243 -20.96879,27.42243 0,0 20.22993,-11.82936 23.66797,-10.53319 -0.11839,1.95477 -13.4914,30.17641 -11.77905,32.94252 9.89347,-24.70844 27.31995,-30.68432 29.69336,-36.94293 8.03735,2.03972 24.13028,-2.69543 30.86975,-10.17673 -2.87605,-2.60767 -8.05595,0.77905 -11.40629,-1.57475 12.45598,-5.25163 27.33299,-9.22978 29.73243,-18.01975 0,0 -10.29676,1.73868 -18.25971,-0.9007 16.66857,-20.02635 35.28542,-9.25286 41.12755,-22.77255 -5.74918,-1.92837 -9.35208,-2.37095 -9.35208,-2.37095 0,0 5.06214,-6.89764 15.27945,-16.59663 -7.03793,-0.34692 -12.51334,0.6586 -12.51334,0.6586 0,0 3.1994,-5.80806 2.8017,-11.22059 -0.3977,-5.41254 -3.06108,-12.79734 -3.06108,-12.79734 z"
             style="fill:#ffffff;fill-opacity:1;stroke:none" />
          <path
             inkscape:connector-curvature="0"
             id="path3814"
             d="m 301.48439,158.96877 c 1.60294,0.0766 2.51561,0.12498 2.51561,0.12498 0.0859,0.7109 0.17871,1.38736 0.27577,2.03552"
             style="fill:#ffffff;fill-opacity:1;stroke:#000000;stroke-width:4.97274;stroke-linecap:butt;stroke-linejoin:miter;stroke-miterlimit:4;stroke-dasharray:none;stroke-opacity:1" />
          <path
             inkscape:connector-curvature="0"
             id="path3809"
             d="m 252.97301,144.46517 c -2.66825,-0.0838 -4.29052,-0.1355 -4.29052,-0.1355 0,0 -0.94275,13.63908 16.56751,13.63908 13.88051,0 30.10458,0.70693 36.23439,1.00002"
             style="fill:#ffffff;fill-opacity:1;stroke:#000000;stroke-width:4.97274;stroke-linecap:butt;stroke-linejoin:miter;stroke-miterlimit:4;stroke-dasharray:none;stroke-opacity:1" />
          <path
             inkscape:connector-curvature="0"
             id="path3847"
             d="m 255.94775,371.44092 3.53931,-11.92188 c 0,0 22.16724,22.16724 25.52026,22.72608 3.35303,0.55884 -3.91186,-15.64746 -3.91186,-15.64746 0,0 29.99096,24.03003 35.39306,25.1477 5.4021,1.11768 -5.4021,-12.85327 -5.4021,-14.90234 0,-2.04907 34.2754,13.41211 36.13819,17.13769 1.86279,3.72559 -5.58838,-17.51025 -8.19629,-18.25537 -2.60791,-0.74511 -12.29443,-1.11767 -12.29443,-1.11767 0,0 4.4707,-1.49024 7.07861,-4.09815 2.60791,-2.60791 -14.15723,-1.86279 -23.84375,-13.22583 -9.68652,-11.36303 -14.90234,-13.59839 -16.57886,-13.97094 -1.67651,-0.37256 -1.11767,5.58837 -2.23535,6.33349 -1.11768,0.74512 -13.78467,-9.8728 -14.52979,-8.75513 -0.74511,1.11768 -3.25988,4.65699 -9.77966,5.96094 -6.51977,1.30396 -19.7456,2.51477 -20.49072,2.32849 -0.74512,-0.18628 9.59338,22.26038 9.59338,22.26038 z"
             style="fill:#ffffff;fill-opacity:1;stroke:none" />
          <path
             sodipodi:nodetypes="cssc"
             inkscape:connector-curvature="0"
             id="path3849"
             d="m 311.4317,89.873143 c 0,0 -3.97772,10.810817 -5.46796,10.624537 -1.49023,-0.18628 15.46119,0.4657 20.86329,-3.539304 5.4021,-4.005005 -15.39533,-7.085233 -15.39533,-7.085233 z"
             style="fill:#ffffff;fill-opacity:1;stroke:#000000;stroke-width:4.97274" />
        </g>
        <g
           transform="translate(-60.92763,-40.391678)"
           id="g3826"
           inkscape:label="Meubles-Renard-contour"
           style="display:inline;stroke:#000000;stroke-width:4.97274">
          <path
             style="fill:none;stroke:#000000;stroke-width:4.97274;stroke-linecap:butt;stroke-linejoin:miter;stroke-miterlimit:4;stroke-dasharray:none;stroke-opacity:1"
             d="m 381.58063,41.891848 c 0,0 -16.88284,19.831449 -21.9103,29.616576 -13.7198,-2.185311 -38.66474,-2.464795 -53.48038,5.737524 -40.7148,19.298159 -62.90479,14.784813 -71.8462,9.941552 -8.9414,-4.843262 -4.56037,11.878622 -0.375,18.63439 4.18537,6.75576 19.86618,10.01279 28.6875,10.80311 8.82132,0.79032 30.73157,-0.73888 33.53125,3.34375 8.10854,11.8243 9.22373,25.78967 3.2628,25.78967 -5.96094,0 -50.76781,-1.42875 -50.76781,-1.42875 0,0 -0.94275,13.63908 16.56751,13.63908 17.51025,0 38.75,1.125 38.75,1.125 0.95437,7.90016 2.76784,11.54746 1.6875,19.375 0,0 -4.85303,16.01099 -23.29468,15.07959 -18.44165,-0.93139 -22.89526,-7.46094 -23.26782,-6.52954 -0.37256,0.93139 -2.01248,15.29537 -12.8772,12.67285 -10.8042,-2.60791 -13.82637,0.76339 -26.45215,13.78564 -9.1016,9.38742 29.80421,3.52272 30.92188,4.64039 1.11768,1.11768 7.08057,3.55444 -4.65503,5.97607 -11.7356,2.42163 -27.94165,5.95434 -35.02026,20.48413 -4.05058,8.31435 13.34676,-1.54843 14.72046,-2.23584 0.92983,-0.46529 -1.11817,2.79029 -3.35352,4.83936 -1.26532,1.15987 -2.8522,-0.3937 -3.48703,3.69171 -8.62199,-2.83999 -18.8754,-7.94674 -34.5159,-24.24811 -37.40829,-38.98893 -44.27058,-54.23933 -54.28125,-64.25 -10.01067,-10.01067 -15.79553,-18.9919 -36.34375,-14.25 -20.548219,4.74189 -20.575777,1.32086 -22.167198,4.30723 -1.591417,2.98636 1.98916,6.86572 1.98916,6.86572 0,0 -2.648674,1.00927 -3.064565,5.19632 -0.368115,3.70607 5.084073,5.86974 5.084073,5.86974 0,0 -4.307843,4.3464 -3.484394,7.03232 1.549777,5.05505 5.984328,4.45962 6.293449,5.4161 -0.349477,0.42961 -4.79676,3.2796 -2.711267,6.8167 1.938761,3.28823 10.158226,2.5708 14.373245,1.71462 22.075877,-4.48416 29.520577,-8.69477 39.531247,7.375 23.8121,38.22471 32.66062,54.26247 33.1875,59.53125 0.52688,5.26877 4.75,-3.6875 4.75,-3.6875 l 12.09375,20.5625 6.84375,-7.90625 6.34375,10.53125 c 0,0 4.41836,17.13338 16.71875,25.15625 -5.352,2.93906 -25.5055,5.21241 -32.806,9.07125 -36.88142,19.49446 -62.94516,12.14441 -81.912747,4.24125 -18.967586,-7.90316 -31.829065,1.03074 -32.040777,2.33024 -0.69887,4.2897 5.953024,6.30104 5.953024,6.30104 0,0 -6.25807,0.31816 -6.32725,5.53332 -0.08356,6.29933 4.537299,6.95995 4.537299,6.95995 0,0 -4.521627,1.1495 -3.802649,6.86082 0.718979,5.71133 7.003841,4.96586 7.003841,4.96586 -2.839955,1.28429 -5.010164,4.20046 -3.661012,7.52216 1.349152,3.3217 19.898334,1.05646 25.15393,0.70312 8.050539,-0.54124 5.66644,-3.51456 26.919431,-7.69238 15.89123,-3.12382 19.98716,-2.39973 46.85791,0.23462 26.87075,2.63438 35.31302,0.52687 57.96875,0 7.71288,-0.17937 15.55473,-0.61282 22.59375,-1.09375 l 11.9375,26.8125 -0.5,0.625 c -2.98047,0 -23.08691,-7.45361 -45.81299,29.42969 19.37305,-6.70606 26.06299,-6.33594 26.06299,-6.33594 0,0 -29.81103,-2.2378 -35.39941,46.19482 13.54253,-12.93017 7.85131,-5.34074 14.89941,-10.19482 -10.12376,13.43345 -12.22851,21.39643 -6.31494,45.96875 1.96994,8.18559 1.60301,-9.95797 11.42285,-22.17773 -1.2397,7.8888 -3.91011,40.63033 -1.73291,46.02148 7.94296,-12.8685 14.84439,-9.58112 20.34375,-25.4375 -3.58005,12.59568 3.49707,15.28138 -1.71875,34.375 5.07696,-9.04554 14.79785,-14.13916 14.79785,-14.13916 0,0 -1.44735,8.28765 -6.23535,20.10791 9.02068,2.16375 11.9375,-10.8125 11.9375,-10.8125 0,0 7.15079,5.99453 -2.99707,25.35352 -24.21631,46.19726 -47.69482,49.16796 -65.57764,46.93261 -17.88281,-2.23535 -18.25536,4.56238 -24.2163,13.13123 -0.27941,2.79419 -3.12904,9.50074 -2.05005,12.11645 2.46004,5.96375 5.58398,1.77357 5.58398,1.77357 0,0 -4.26166,5.90645 -1.93592,9.30468 1.53186,2.23826 6.60804,-0.009 6.60804,-0.009 0,0 -2.40575,4.51947 0.84363,7.74036 2.97279,2.94673 11.16992,-1.69312 11.16992,-1.69312 0,0 -3.92191,9.85117 -1.12744,12.10425 2.79446,2.25308 10.83723,1.41642 14.55225,-2.22607 7.07861,-4.84326 8.83702,-6.80457 12.93517,-7.17713 4.09814,-0.37256 16.77735,-5.95801 19.38526,-10.80127 3.5326,-6.56054 4.07178,-13.41797 4.07178,-13.41797 l 60.00683,-51.78564 c 0,0 20.11279,5.23582 18.62256,-10.78418 -1.49024,-16.02002 -6.33057,-45.45313 5.21875,-57.375 11.54931,-11.92187 8.5625,10.0625 8.5625,10.0625 l 10.21875,-8.09375 c 6.19495,45.69926 61.6875,58.75 61.6875,58.75 0,0 16.75537,7.08594 21.59863,23.47852 1.49024,-13.78468 0.37012,-14.16602 0.37012,-14.16602 0,0 20.86426,-3.35011 10.80518,27.94482 -8.24007,25.63576 -24.84549,68.59971 -40.21875,64.09375 -21.6084,-6.33349 -23.11817,4.46485 -27.96143,14.52393 -4.84326,10.05908 7.10346,10.13342 7.10346,10.13342 0,0 -6.14518,6.65397 -2.07765,11.52113 1.30205,1.558 7.80312,-0.46535 7.80312,-0.46535 0,0 -4.8032,5.473 -1.89516,9.10954 3.23848,4.04977 10.35655,-0.62799 10.35655,-0.62799 0,0 -6.07745,5.84924 -0.72603,9.33786 1.33329,0.86918 7.64653,1.78173 13.42204,-0.22464 5.77552,-2.00641 -0.70322,-7.96463 8.61075,-12.43533 9.31396,-4.47071 16.35204,0.009 18.55349,-10.19473 7.2265,-29.25084 24.21613,-59.52124 36.48224,-86.20856 2.23535,-7.45117 15.37883,-7.86622 17.8794,-18.99316 2.50056,-11.12695 -13.03657,-22.86292 -17.15869,-38.75 8.17231,-0.61219 14.17578,7.08838 14.17578,7.08838 0,0 -3.07626,-25.05949 -5.22168,-32.79004 5.36823,2.2529 15.27148,13.79736 15.27148,13.79736 0,0 0.17174,-20.61871 -7.0791,-40.23535 5.48971,2.58789 13.78125,14.15625 13.78125,14.15625 0,0 -2.61966,-26.29528 -3.34375,-46.96875 8.62909,4.17121 39.00491,6.50819 56.625,-27.5625 10.1388,-19.60466 8.5625,-56.6128 11.54297,-84.18213 -7.45118,1.86279 -8.4722,14.49711 -16.76172,12.65088 -0.83835,-30.53324 18.25537,-43.97071 23.84375,-87.1875 -11.54932,-1.49023 -22.12621,23.05459 -27.92773,20.50732 -1.33083,-20.80264 24.94287,-39.4912 32.02148,-70.41357 -3.35303,-6.3335 -32.78125,7.0625 -32.78125,7.0625 0,0 35.77978,-18.98584 43.97607,-50.65332 -20.51741,4.79789 -24.23095,6.70117 -24.23095,6.70117 0,0 42.11132,-30.18017 23.11084,-61.4751 -11.92189,17.1377 -13.41846,26.0835 -13.41846,26.0835 0,0 5.59179,-58.476563 -42.84082,-67.790527 13.03954,38.746097 5.96582,61.821777 5.96582,61.821777 0,0 -3.14823,-15.7491 -11.92529,-13.7666 0.5369,15.39461 -8.57471,39.11279 -11.92774,42.83838 -0.37256,-15.27491 0.98994,-28.32005 -5.21191,-33.51612 -8.4372,7.09837 -23.46386,23.45021 -24.9541,34.62696 -1.49023,11.17676 -3.3584,15.27441 -3.3584,15.27441 0,0 -3.88773,-16.70329 -11.93701,-20.85547 -5.44138,11.86785 -4.4668,48.05469 -4.4668,48.05469 0,0 -16.50793,-12.26717 -18.61523,-11.92725 -7.32313,35.36044 2.97119,51.0376 28.67773,72.646 -7.07861,1.86279 -13.28884,1.61978 -26.44678,-1.0957 6.96023,31.18735 52.89161,61.09619 49.16602,61.46875 -3.72559,0.37255 -13.81411,-1.15795 -23.4541,-3.34815 5.58838,22.72608 40.98486,39.4751 40.98486,39.4751 l -18.28125,1.875 c 0,0 51.04785,65.17822 1.125,68.53125 -12.29443,-29.80468 -39.47802,-51.40967 -83.8125,-85.3125 -37.40747,-28.60571 -42.9841,-84.54615 -38.375,-108.78125 6.84445,2.58912 8.55518,16.39648 8.55518,16.39648 0,0 12.11352,-21.62158 1.12304,-63.34814 5.41195,4.97347 13.04053,16.04541 13.04053,16.04541 0,0 0.58324,-25.76332 -3.71875,-38 7.06105,0.0578 14.53125,16 14.53125,16 0,0 0.36035,-22.33252 -1.875,-30.15625 3.72558,1.67651 10.0791,8.36353 10.0791,8.36353 0,0 0.25312,-15.85658 -4.48535,-21.80103 -2.31684,-3.15026 -2.43579,-9.87378 -2.43579,-9.87378 0,0 33.82969,-9.22184 42.40081,-49.475947 -42.53996,1.944313 -34.94565,-6.286051 -58.40252,-2.244023 1.69803,-21.399524 -5.32562,-38.076902 -5.32562,-38.076902 z"
             id="path3828"
             inkscape:connector-curvature="0"
             sodipodi:nodetypes="cccszzsscsccssssssssscsssscscscsssscccccssscsczczsssscccccccccccccccsscscscsczcssccsscccccssscscscssscczcccccccscccccccccccccccsccccccsccccscccccccccccccc" />
        </g>
        <g
           transform="translate(-60.92763,-40.391678)"
           style="display:inline;stroke:#000000;stroke-width:4.97274"
           inkscape:label="Meuble-Renard-Details"
           id="layer8">
          <path
             sodipodi:nodetypes="csc"
             inkscape:connector-curvature="0"
             id="path3835"
             d="m 295.57823,95.973194 c 0,0 10.33996,-1.646492 13.23779,-6.12495 2.89783,-4.478458 4.93948,4.544317 22.32643,2.173369"
             style="fill:none;stroke:#000000;stroke-width:4.97274;stroke-linecap:round;stroke-linejoin:miter;stroke-miterlimit:4;stroke-dasharray:none;stroke-opacity:1" />
          <path
             inkscape:connector-curvature="0"
             id="path3837"
             d="m 358.0132,99.924774 c 0,0 8.43004,-17.650393 29.2417,-19.757903"
             style="fill:none;stroke:#000000;stroke-width:4.97274;stroke-linecap:butt;stroke-linejoin:miter;stroke-miterlimit:4;stroke-dasharray:none;stroke-opacity:1" />
          <path
             inkscape:connector-curvature="0"
             id="path3839"
             d="m 383.03988,134.17181 c 0,0 8.95692,5.79565 20.54822,-3.16127"
             style="fill:none;stroke:#000000;stroke-width:4.97274;stroke-linecap:butt;stroke-linejoin:miter;stroke-miterlimit:4;stroke-dasharray:none;stroke-opacity:1" />
          <path
             inkscape:connector-curvature="0"
             id="path3841"
             d="m 379.61518,110.46232 11.5913,0.52688 -3.68814,-6.84941 c 0,0 11.85474,2.89783 17.38695,0.79032"
             style="fill:none;stroke:#000000;stroke-width:4.97274;stroke-linecap:butt;stroke-linejoin:miter;stroke-miterlimit:4;stroke-dasharray:none;stroke-opacity:1" />
          <path
             inkscape:connector-curvature="0"
             id="path3843"
             d="m 241.04642,90.70442 c 0,0 2.37095,6.322529 -8.95692,11.06443"
             style="fill:none;stroke:#000000;stroke-width:4.97274;stroke-linecap:butt;stroke-linejoin:miter;stroke-miterlimit:4;stroke-dasharray:none;stroke-opacity:1" />
          <path
             inkscape:connector-curvature="0"
             id="path3845"
             d="m 236.56796,349.13779 c 0,0 30.55889,0.79032 37.4083,-5.26877 6.8494,-6.05909 -0.79032,-22.12885 -0.79032,-22.12885 l 9.48379,-8.43004"
             style="fill:none;stroke:#000000;stroke-width:4.97274;stroke-linecap:butt;stroke-linejoin:miter;stroke-miterlimit:4;stroke-dasharray:none;stroke-opacity:1" />
          <path
             sodipodi:nodetypes="csscc"
             inkscape:connector-curvature="0"
             id="path3851"
             d="m 305.78648,98.805159 c 0,0 -8.89106,-1.448913 -10.86686,-3.227124 -0.80735,-0.726618 11.1303,-0.922036 12.18405,-2.897826 1.05376,-1.97579 0.96454,-2.03195 3.09541,-2.897825 -0.89868,5.193215 -4.4126,9.022775 -4.4126,9.022775 z"
             style="fill:#000000;fill-opacity:1;stroke:#000000;stroke-width:4.97274;stroke-linecap:butt;stroke-linejoin:miter;stroke-miterlimit:4;stroke-dasharray:none;stroke-opacity:1" />
          <path
             sodipodi:nodetypes="csc"
             inkscape:connector-curvature="0"
             id="path3853"
             d="m 352.44043,70.599856 c 0,0 9.43388,0.846633 15.08862,4.470703 4.81791,3.087751 6.89234,8.196289 6.89234,8.196289"
             style="fill:none;stroke:#000000;stroke-width:4.97274;stroke-linecap:butt;stroke-linejoin:miter;stroke-miterlimit:4;stroke-dasharray:none;stroke-opacity:1" />
          <path
             sodipodi:nodetypes="czsssssssc"
             inkscape:connector-curvature="0"
             id="path3855"
             d="m 257.2479,373.90103 c 0,0 1.36308,-12.83489 1.97579,-13.96225 0.61271,-1.12736 26.21215,24.4998 28.18794,25.1584 1.97579,0.65859 -5.92737,-17.38696 -6.19081,-18.44071 -0.62029,-2.48116 36.0911,27.52934 37.01313,27.00246 0.92204,-0.52688 -5.53221,-14.22569 -6.71768,-15.93804 -1.18547,-1.71235 26.69669,9.66114 35.56423,16.72836 10.71919,8.54294 23.44604,13.83053 16.72835,29.2417 -6.71768,15.41116 -15.41116,16.20148 -18.83586,30.16373 -3.42471,13.96225 -5.53222,29.10997 -5.00534,31.74436"
             style="fill:none;stroke:#000000;stroke-width:4.97274;stroke-linecap:butt;stroke-linejoin:miter;stroke-miterlimit:4;stroke-dasharray:none;stroke-opacity:1" />
          <path
             inkscape:connector-curvature="0"
             id="path3857"
             d="m 317.8388,393.13206 c 0,0 6.98113,7.37628 10.80099,19.7579 3.81986,12.38162 19.62618,31.74436 19.62618,31.74436"
             style="fill:none;stroke:#000000;stroke-width:4.97274;stroke-linecap:butt;stroke-linejoin:miter;stroke-miterlimit:4;stroke-dasharray:none;stroke-opacity:1" />
          <path
             inkscape:connector-curvature="0"
             id="path3859"
             d="m 318.36568,393.39549 c 0,0 20.28478,24.10465 33.45671,24.89496 13.17194,0.79032 13.17194,0.79032 13.17194,0.79032"
             style="fill:none;stroke:#000000;stroke-width:4.97274;stroke-linecap:butt;stroke-linejoin:miter;stroke-miterlimit:4;stroke-dasharray:none;stroke-opacity:1" />
          <path
             sodipodi:nodetypes="cc"
             inkscape:connector-curvature="0"
             id="path3863"
             d="m 74.077981,158.81908 c -1.990564,1.99056 10.640827,-3.23759 20.365622,-2.34447"
             style="fill:none;stroke:#000000;stroke-width:4.97274;stroke-linecap:butt;stroke-linejoin:miter;stroke-miterlimit:4;stroke-dasharray:none;stroke-opacity:1" />
          <path
             inkscape:connector-curvature="0"
             id="path3865"
             d="m 75.815674,170.25928 c 0,0 10.617919,-3.72559 18.44165,-2.04907"
             style="fill:none;stroke:#000000;stroke-width:4.97274;stroke-linecap:butt;stroke-linejoin:miter;stroke-miterlimit:4;stroke-dasharray:none;stroke-opacity:1" />
          <path
             sodipodi:nodetypes="cc"
             inkscape:connector-curvature="0"
             id="path3867"
             d="m 78.446183,182.68543 c 0,0 7.801131,-5.7201 15.99742,-4.7887"
             style="fill:none;stroke:#000000;stroke-width:4.97274;stroke-linecap:butt;stroke-linejoin:miter;stroke-miterlimit:4;stroke-dasharray:none;stroke-opacity:1" />
          <path
             sodipodi:nodetypes="cc"
             inkscape:connector-curvature="0"
             id="path3869"
             d="m 67.619385,325.04802 c 0,0 12.666992,-3.71623 17.510253,-1.85344"
             style="fill:none;stroke:#000000;stroke-width:4.97274;stroke-linecap:butt;stroke-linejoin:miter;stroke-miterlimit:4;stroke-dasharray:none;stroke-opacity:1" />
          <path
             sodipodi:nodetypes="cc"
             inkscape:connector-curvature="0"
             id="path3871"
             d="m 66.874267,337.16553 c 0,0 21.794678,-0.18628 25.147705,-1.30396"
             style="fill:none;stroke:#000000;stroke-width:4.97274;stroke-linecap:butt;stroke-linejoin:miter;stroke-miterlimit:4;stroke-dasharray:none;stroke-opacity:1" />
          <path
             sodipodi:nodetypes="cc"
             inkscape:connector-curvature="0"
             id="path3873"
             d="m 69.854737,349.23785 c 0,0 13.253913,-0.73576 16.420661,-2.41228"
             style="fill:none;stroke:#000000;stroke-width:4.97274;stroke-linecap:butt;stroke-linejoin:miter;stroke-miterlimit:4;stroke-dasharray:none;stroke-opacity:1" />
          <path
             sodipodi:nodetypes="csc"
             inkscape:connector-curvature="0"
             id="path3875"
             d="m 169.95451,609.4739 c 1.09509,-2.63439 4.17143,-3.17062 7.38338,-6.11526 3.86909,-3.54709 2.79419,-8.56884 11.36304,-8.56884"
             style="fill:none;stroke:#000000;stroke-width:4.97274;stroke-linecap:butt;stroke-linejoin:miter;stroke-miterlimit:4;stroke-dasharray:none;stroke-opacity:1" />
          <path
             sodipodi:nodetypes="csc"
             inkscape:connector-curvature="0"
             id="path3877"
             d="m 174.94822,618.25163 c 0,0 5.7427,-3.34367 8.53689,-8.18693 2.79419,-4.84326 10.8042,-3.91187 11.92187,-3.72559"
             style="fill:none;stroke:#000000;stroke-width:4.97274;stroke-linecap:butt;stroke-linejoin:miter;stroke-miterlimit:4;stroke-dasharray:none;stroke-opacity:1" />
          <path
             sodipodi:nodetypes="cc"
             inkscape:connector-curvature="0"
             id="path3879"
             d="m 186.95662,623.83064 c 4.65698,-4.28442 6.58757,-7.99128 12.54851,-7.99128"
             style="fill:none;stroke:#000000;stroke-width:4.97274;stroke-linecap:butt;stroke-linejoin:miter;stroke-miterlimit:4;stroke-dasharray:none;stroke-opacity:1" />
          <path
             inkscape:connector-curvature="0"
             id="path3881"
             d="m 373.42437,668.4255 c 6.8494,-8.43003 4.74189,-8.95691 8.82519,-10.53754 4.0833,-1.58064 8.43004,-0.26344 8.43004,-0.26344"
             style="fill:none;stroke:#000000;stroke-width:4.97274;stroke-linecap:butt;stroke-linejoin:miter;stroke-miterlimit:4;stroke-dasharray:none;stroke-opacity:1" />
          <path
             sodipodi:nodetypes="cc"
             inkscape:connector-curvature="0"
             id="path3883"
             d="m 378.16626,680.80713 c 5.13706,-6.19082 8.03488,-11.98647 12.2499,-11.98647"
             style="fill:none;stroke:#000000;stroke-width:4.97274;stroke-linecap:butt;stroke-linejoin:miter;stroke-miterlimit:4;stroke-dasharray:none;stroke-opacity:1" />
          <path
             inkscape:connector-curvature="0"
             id="path3885"
             d="m 386.85974,689.10544 c 0,0 3.55642,-6.05909 4.0833,-9.48379 0.52688,-3.4247 9.08864,-2.10751 9.08864,-2.10751"
             style="fill:none;stroke:#000000;stroke-width:4.97274;stroke-linecap:butt;stroke-linejoin:miter;stroke-miterlimit:4;stroke-dasharray:none;stroke-opacity:1" />
        </g>
      </g>
    </g>
  </g>
</svg>
