<?xml version="1.0" encoding="UTF-8" standalone="no"?>
<svg
   xmlns:dc="http://purl.org/dc/elements/1.1/"
   xmlns:cc="http://creativecommons.org/ns#"
   xmlns:rdf="http://www.w3.org/1999/02/22-rdf-syntax-ns#"
   xmlns:svg="http://www.w3.org/2000/svg"
   xmlns="http://www.w3.org/2000/svg"
   xmlns:sodipodi="http://sodipodi.sourceforge.net/DTD/sodipodi-0.dtd"
   xmlns:inkscape="http://www.inkscape.org/namespaces/inkscape"
   width="100%"
   height="100%"
   viewBox="0 0 2400 3000"
   version="1.1"
   xml:space="preserve"
   style="fill-rule:evenodd;clip-rule:evenodd;stroke-linecap:round;stroke-linejoin:round;stroke-miterlimit:1.5;"
   id="svg203"
   sodipodi:docname="Corvara in Badia-Stemma.svg"
   inkscape:version="1.0.2-2 (e86c870879, 2021-01-15)"><metadata
     id="metadata209"><rdf:RDF><cc:Work
         rdf:about=""><dc:format>image/svg+xml</dc:format><dc:type
           rdf:resource="http://purl.org/dc/dcmitype/StillImage" /></cc:Work></rdf:RDF></metadata><defs
     id="defs207"><clipPath
       id="clip0"><rect
         x="770"
         y="327"
         width="385"
         height="256"
         id="rect231" /></clipPath><clipPath
       id="clip0-9"><rect
         x="1153"
         y="316"
         width="218"
         height="318"
         id="rect277" /></clipPath><clipPath
       id="clip0-0"><rect
         x="857"
         y="342"
         width="395"
         height="198"
         id="rect430" /></clipPath></defs><sodipodi:namedview
     pagecolor="#ffffff"
     bordercolor="#666666"
     borderopacity="1"
     objecttolerance="10"
     gridtolerance="10"
     guidetolerance="10"
     inkscape:pageopacity="0"
     inkscape:pageshadow="2"
     inkscape:window-width="1920"
     inkscape:window-height="986"
     id="namedview205"
     showgrid="false"
     inkscape:zoom="0.050114345"
     inkscape:cx="-5644.7724"
     inkscape:cy="1127.9115"
     inkscape:window-x="-11"
     inkscape:window-y="-11"
     inkscape:window-maximized="1"
     inkscape:current-layer="svg203" /><path
     d="M2362.65,107.661c0,574.324 0,1109.67 0,1548.81c0,755.378 -550.934,1235.87 -1163.55,1235.87c-612.616,0 -1163.55,-480.491 -1163.55,-1235.87c-0,-454.118 -0,-974.486 -0,-1548.81l2327.1,-0Z"
     style="fill:none;"
     id="path5" /><clipPath
     id="_clip1"><path
       d="M2362.65,107.661c0,574.324 0,1109.67 0,1548.81c0,755.378 -550.934,1235.87 -1163.55,1235.87c-612.616,0 -1163.55,-480.491 -1163.55,-1235.87c-0,-454.118 -0,-974.486 -0,-1548.81l2327.1,-0Z"
       id="path7" /></clipPath><path
     d="m 2362.65,107.661 c 0,574.32403 0,1109.67 0,1548.81 0,755.378 -550.934,1235.87 -1163.55,1235.87 -612.61597,0 -1163.55,-480.491 -1163.55,-1235.87 0,-454.118 0,-974.48597 0,-1548.81 z"
     style="clip-rule:evenodd;fill:#ececec;fill-rule:evenodd;stroke:#000000;stroke-width:20.83px;stroke-linecap:round;stroke-linejoin:round;stroke-miterlimit:1.5"
     id="path201-5" /><path
     d="M 245.49148,380.26523 643.07248,269.54772 751.50366,1671.9696 149.10821,1807.291 Z"
     fill="#ff0000"
     fill-rule="evenodd"
     id="path236"
     style="stroke-width:6.08713" /><path
     d="M 980.41395,380.26523 1377.995,269.54772 1486.4261,1671.9696 884.03067,1807.291 Z"
     fill="#ff0000"
     fill-rule="evenodd"
     id="path238"
     style="stroke-width:6.08713" /><path
     d="m 1715.3364,380.26523 397.581,-110.71751 108.4312,1402.42188 -602.3955,135.3214 z"
     fill="#ff0000"
     fill-rule="evenodd"
     id="path240"
     style="stroke-width:6.08713" /><path
     d="M 456.3299,1419.7798 40.677017,1525.884 v 318.3129 L 456.3299,1738.0926 Z"
     fill="#ff0000"
     fill-rule="evenodd"
     id="path242"
     style="stroke-width:6.08713" /><path
     d="m 1022.5816,1419.7798 -409.62889,104.5664 v 319.8507 l 409.62889,-104.5666 z"
     fill="#ff0000"
     fill-rule="evenodd"
     id="path244"
     style="stroke-width:6.08713" /><path
     d="m 1757.5041,1419.7798 -409.6288,104.5664 v 319.8507 l 409.6288,-104.5666 z"
     fill="#ff0000"
     fill-rule="evenodd"
     id="path246"
     style="stroke-width:6.08713" /><path
     d="m 2359.8995,1419.7798 -409.6288,104.5664 v 319.8507 l 409.6288,-104.5666 z"
     fill="#ff0000"
     fill-rule="evenodd"
     id="path248"
     style="stroke-width:6.08713" /><path
     d="m 61.1729,1915.7639 c -19.036434,-94.5237 12.567242,-182.9655 70.591,-197.5401 58.02375,-14.5745 120.4918,50.2379 139.52824,144.7617 19.03643,94.5238 -12.56725,182.9655 -70.59101,197.5401 -58.02375,14.5746 -120.491799,-50.2379 -139.52823,-144.7617 z"
     fill="#ff0000"
     fill-rule="evenodd"
     id="path282"
     inkscape:transform-center-x="-69.428778"
     inkscape:transform-center-y="5.9644331"
     style="stroke-width:1.04403" /><path
     d="m 85.499635,2025.2342 c -19.03643,-94.5237 12.56724,-182.9655 70.591005,-197.5401 58.02375,-14.5745 120.4918,50.2379 139.52824,144.7617 19.03643,94.5238 -12.56725,182.9655 -70.59101,197.5401 -58.02375,14.5746 -120.4918,-50.2379 -139.528235,-144.7617 z"
     fill="#ff0000"
     fill-rule="evenodd"
     id="path282-5"
     inkscape:transform-center-x="-69.428778"
     inkscape:transform-center-y="5.9644331"
     style="clip-rule:evenodd;fill-rule:evenodd;stroke-width:1.04403;stroke-linecap:round;stroke-linejoin:round;stroke-miterlimit:1.5" /><path
     d="m 116.58377,2113.0806 c -19.036429,-94.5237 12.56724,-182.9655 70.591,-197.5401 58.02375,-14.5745 120.4918,50.2379 139.52824,144.7617 19.03643,94.5238 -12.56725,182.9655 -70.59101,197.5401 -58.02375,14.5746 -120.4918,-50.2379 -139.52823,-144.7617 z"
     fill="#ff0000"
     fill-rule="evenodd"
     id="path282-5-1"
     inkscape:transform-center-x="-69.428778"
     inkscape:transform-center-y="5.9644331"
     style="clip-rule:evenodd;fill-rule:evenodd;stroke-width:1.04403;stroke-linecap:round;stroke-linejoin:round;stroke-miterlimit:1.5" /><path
     d="m 2144.7361,1784.7576 c 13.7784,-95.432 73.2216,-168.1455 132.7723,-162.4091 59.5504,5.7365 96.6543,87.75 82.8757,183.1821 -13.7784,95.4322 -73.2216,168.1455 -132.7722,162.4091 -59.5506,-5.7365 -96.6544,-87.75 -82.8758,-183.1821 z"
     fill="#ff0000"
     fill-rule="evenodd"
     id="path282-5-1-3"
     inkscape:transform-center-x="-63.403995"
     inkscape:transform-center-y="28.911322"
     style="clip-rule:evenodd;fill-rule:evenodd;stroke-width:1.04403;stroke-linecap:round;stroke-linejoin:round;stroke-miterlimit:1.5" /><path
     d="m 2118.335,1901.4912 c 13.7784,-95.432 73.2216,-168.1455 132.7723,-162.4091 59.5504,5.7365 96.6543,87.75 82.8757,183.1821 -13.7784,95.4322 -73.2216,168.1455 -132.7722,162.4091 -59.5506,-5.7365 -96.6544,-87.75 -82.8758,-183.1821 z"
     fill="#ff0000"
     fill-rule="evenodd"
     id="path282-5-1-3-9"
     inkscape:transform-center-x="-63.403995"
     inkscape:transform-center-y="28.911322"
     style="clip-rule:evenodd;fill-rule:evenodd;stroke-width:1.04403;stroke-linecap:round;stroke-linejoin:round;stroke-miterlimit:1.5" /><path
     d="m 2100.3703,1996.7422 c 13.7784,-95.432 73.2216,-168.1455 132.7723,-162.4091 59.5504,5.7365 96.6543,87.75 82.8757,183.1821 -13.7784,95.4322 -73.2216,168.1455 -132.7722,162.4091 -59.5506,-5.7365 -96.6544,-87.75 -82.8758,-183.1821 z"
     fill="#ff0000"
     fill-rule="evenodd"
     id="path282-5-1-3-9-9"
     inkscape:transform-center-x="-63.403995"
     inkscape:transform-center-y="28.911322"
     style="clip-rule:evenodd;fill-rule:evenodd;stroke-width:1.04403;stroke-linecap:round;stroke-linejoin:round;stroke-miterlimit:1.5" /><rect
     x="217.95268"
     y="1646.1969"
     width="1961.1953"
     height="610.71362"
     fill="#ff0000"
     id="rect435"
     style="stroke-width:3.91334" /><path
     d="m 2073.9143,2076.1102 c 13.7784,-95.432 73.2216,-168.1455 132.7723,-162.4091 59.5504,5.7365 96.6543,87.75 82.8757,183.1821 -13.7784,95.4322 -73.2216,168.1455 -132.7722,162.4091 -59.5506,-5.7365 -96.6544,-87.75 -82.8758,-183.1821 z"
     fill="#ff0000"
     fill-rule="evenodd"
     id="path282-5-1-3-9-9-4"
     inkscape:transform-center-x="-63.403995"
     inkscape:transform-center-y="28.911322"
     style="clip-rule:evenodd;fill-rule:evenodd;stroke-width:1.04403;stroke-linecap:round;stroke-linejoin:round;stroke-miterlimit:1.5" /><g
     clip-path="url(#_clip1)"
     id="g199"
     style="stroke:none"><path
       d="M1562.71,2227.32c67.164,-118.495 204.837,-199.796 363.61,-199.796c224.763,-0 407.243,162.928 407.243,363.609c-0,200.682 -189.507,585.114 -1134.46,585.114c-944.956,-0 -1134.46,-384.432 -1134.46,-585.114c-0,-200.681 182.479,-363.609 407.242,-363.609c158.773,-0 296.446,81.301 363.61,199.796c67.164,-118.495 204.837,-199.796 363.61,-199.796c158.773,-0 296.446,81.301 363.609,199.796Z"
       style="fill:#07752e;stroke:none;stroke-width:12.5px"
       id="path10" /></g><path
     d="M2362.65,107.661c0,574.324 0,1109.67 0,1548.81c0,755.378 -550.934,1235.87 -1163.55,1235.87c-612.616,0 -1163.55,-480.491 -1163.55,-1235.87c-0,-454.118 -0,-974.486 -0,-1548.81l2327.1,-0Z"
     style="fill:none;stroke:#000;stroke-width:20.83px;"
     id="path201" /></svg>
