<?xml version="1.0" encoding="UTF-8" standalone="no"?>
<svg
   xmlns:dc="http://purl.org/dc/elements/1.1/"
   xmlns:cc="http://creativecommons.org/ns#"
   xmlns:rdf="http://www.w3.org/1999/02/22-rdf-syntax-ns#"
   xmlns:svg="http://www.w3.org/2000/svg"
   xmlns="http://www.w3.org/2000/svg"
   xmlns:sodipodi="http://sodipodi.sourceforge.net/DTD/sodipodi-0.dtd"
   xmlns:inkscape="http://www.inkscape.org/namespaces/inkscape"
   width="100%"
   height="100%"
   viewBox="0 0 2400 3000"
   version="1.1"
   xml:space="preserve"
   style="fill-rule:evenodd;clip-rule:evenodd;stroke-linecap:round;stroke-linejoin:round;stroke-miterlimit:1.5;"
   id="svg203"
   sodipodi:docname="Fortezza (Italia)-Stemma.svg"
   inkscape:version="1.0.2-2 (e86c870879, 2021-01-15)"><metadata
     id="metadata209"><rdf:RDF><cc:Work
         rdf:about=""><dc:format>image/svg+xml</dc:format><dc:type
           rdf:resource="http://purl.org/dc/dcmitype/StillImage" /><dc:title></dc:title></cc:Work></rdf:RDF></metadata><defs
     id="defs207"><clipPath
       id="clip0"><rect
         x="770"
         y="327"
         width="385"
         height="256"
         id="rect231" /></clipPath><clipPath
       id="clip0-9"><rect
         x="1153"
         y="316"
         width="218"
         height="318"
         id="rect277" /></clipPath><clipPath
       id="clip0-0"><rect
         x="857"
         y="342"
         width="395"
         height="198"
         id="rect430" /></clipPath><clipPath
       id="clip0-3"><rect
         x="663"
         y="276"
         width="462"
         height="359"
         id="rect857" /></clipPath><clipPath
       id="clip0-02"><rect
         x="725"
         y="276"
         width="348"
         height="347"
         id="rect881" /></clipPath><clipPath
       id="clip0-96"><rect
         x="328"
         y="233"
         width="1"
         height="447"
         id="rect911" /></clipPath><clipPath
       id="clip0-2"><rect
         x="672"
         y="285"
         width="218"
         height="330"
         id="rect933" /></clipPath><clipPath
       id="clip0-7"><rect
         x="1402"
         y="212"
         width="621"
         height="607"
         id="rect953" /></clipPath></defs><sodipodi:namedview
     pagecolor="#ffffff"
     bordercolor="#666666"
     borderopacity="1"
     objecttolerance="10"
     gridtolerance="10"
     guidetolerance="10"
     inkscape:pageopacity="0"
     inkscape:pageshadow="2"
     inkscape:window-width="1920"
     inkscape:window-height="986"
     id="namedview205"
     showgrid="false"
     inkscape:zoom="0.033966888"
     inkscape:cx="-3326.8137"
     inkscape:cy="6093.226"
     inkscape:window-x="-11"
     inkscape:window-y="-11"
     inkscape:window-maximized="1"
     inkscape:current-layer="svg203"
     inkscape:document-rotation="0" /><path
     d="m 2362.65,107.661 c 0,574.32403 0,1109.67 0,1548.81 0,755.378 -550.934,1235.87 -1163.55,1235.87 -612.61597,0 -1163.55,-480.491 -1163.55,-1235.87 0,-454.118 0,-974.48597 0,-1548.81 z"
     style="clip-rule:evenodd;fill:#008000;fill-rule:evenodd;stroke:#000000;stroke-width:20.83px;stroke-linecap:round;stroke-linejoin:round;stroke-miterlimit:1.5"
     id="path201-5" /><path
     d="M 43.18536,1799.388 C 537.65437,2726.5906 1173.5621,919.65564 1173.5621,107.68757 L 32.368387,104.00752 Z"
     fill="#ff0000"
     fill-rule="evenodd"
     id="path938"
     sodipodi:nodetypes="cccc"
     style="stroke-width:5.15065" /><path
     d="M 2351.833,1803.0415 C 1857.364,2730.2441 1221.4563,923.30912 1221.4563,111.34105 L 2362.65,107.661 Z"
     fill="#ff0000"
     fill-rule="evenodd"
     id="path938-3"
     sodipodi:nodetypes="cccc"
     style="clip-rule:evenodd;fill:#0000ff;fill-rule:evenodd;stroke-width:5.15065;stroke-linecap:round;stroke-linejoin:round;stroke-miterlimit:1.5" /><path
     d="m 53.447767,1902.2939 c -26.282566,-143.5536 14.631724,-257.3522 91.380363,-254.1753 76.74859,3.177 160.27555,122.1265 186.55813,265.6802 26.28255,143.5538 -14.63172,257.3522 -91.38036,254.1755 -76.7486,-3.1771 -160.275571,-122.1266 -186.558133,-265.6804 z"
     fill="#ff0000"
     fill-rule="evenodd"
     id="path958"
     style="stroke-width:0.61677"
     inkscape:transform-center-x="-82.241177"
     inkscape:transform-center-y="-54.103689" /><path
     d="M2362.65,107.661c0,574.324 0,1109.67 0,1548.81c0,755.378 -550.934,1235.87 -1163.55,1235.87c-612.616,0 -1163.55,-480.491 -1163.55,-1235.87c-0,-454.118 -0,-974.486 -0,-1548.81l2327.1,-0Z"
     style="fill:none;"
     id="path5" /><clipPath
     id="_clip1"><path
       d="M2362.65,107.661c0,574.324 0,1109.67 0,1548.81c0,755.378 -550.934,1235.87 -1163.55,1235.87c-612.616,0 -1163.55,-480.491 -1163.55,-1235.87c-0,-454.118 -0,-974.486 -0,-1548.81l2327.1,-0Z"
       id="path7" /></clipPath><path
     d="m 2341.5706,1905.9474 c 26.2826,-143.5536 -14.6317,-257.3522 -91.3804,-254.1753 -76.7486,3.177 -160.2755,122.1265 -186.5581,265.6802 -26.2825,143.5538 14.6317,257.3522 91.3804,254.1755 76.7486,-3.1771 160.2755,-122.1266 186.5581,-265.6804 z"
     fill="#ff0000"
     fill-rule="evenodd"
     id="path958-5"
     style="clip-rule:evenodd;fill:#0000ff;fill-rule:evenodd;stroke-width:0.61677;stroke-linecap:round;stroke-linejoin:round;stroke-miterlimit:1.5"
     inkscape:transform-center-x="82.241177"
     inkscape:transform-center-y="-54.103689" /><path
     style="fill:#ff0000;stroke:none;stroke-width:1px;stroke-linecap:butt;stroke-linejoin:miter;stroke-opacity:1"
     d="m 58.54931,1880.7339 c -0.59691,37.7228 4.003049,76.9642 20.166984,109.2921 2.047396,4.0948 0.183847,10.4936 1.301096,14.9626 2.039844,8.1594 4.490214,16.6597 6.505479,24.7208 1.211161,4.8447 -0.267368,11.8257 1.951644,16.2637 4.848087,9.6962 3.923937,22.1599 8.457122,31.2263 0.520438,1.0409 -0.520438,2.8624 0,3.9033 0.603264,1.2065 11.696975,32.8462 12.360415,33.1779 3.33345,1.6668 7.64835,8.1407 9.75821,12.3604 3.86617,7.7324 7.56647,23.8302 12.36041,28.6242 2.51866,2.5186 7.41826,3.2107 10.40877,5.2043 10.59079,7.0606 20.99474,-1.8864 30.57575,-7.156 3.90939,-2.1502 13.98489,-4.2267 17.56479,-7.8066 11.19148,-11.1914 26.14196,-20.3567 28.62411,-37.7317 2.67392,-18.7175 0.44112,-38.727 -7.15603,-55.9472 -1.6995,-3.8522 -5.27305,-6.6428 -7.15602,-10.4087 -5.68048,-11.361 -8.78425,-23.4992 -13.66151,-35.1296 -3.85408,-9.1905 -17.47116,-18.5804 -23.41972,-24.7208 -5.70181,-5.8858 -10.7764,-12.1793 -16.2637,-18.2154 -2.58736,-2.8461 -3.85877,-7.1115 -6.50548,-9.7582 -5.4888,-5.4888 -10.85345,-10.8535 -16.2637,-16.2637 -6.46728,-6.4673 -5.8226,-20.1347 -12.36041,-26.6725 -5.91885,-5.9188 -16.502306,-9.2179 -22.769172,-14.9626 -5.535574,-5.0742 -14.745518,-28.4073 -26.021916,-22.7691 -2.590564,1.2952 -3.666395,6.3475 -5.854931,7.8065"
     id="path973" /><path
     d="M 198.79649,2175.9934 C 758.53101,1930.9544 1147.8017,1101.4311 1147.8017,153.68826"
     stroke="#ffffff"
     stroke-width="108.192"
     stroke-miterlimit="8"
     fill="none"
     fill-rule="evenodd"
     id="path886"
     style="stroke-linecap:square;stroke:#ffffff;stroke-opacity:1" /><path
     style="clip-rule:evenodd;fill:#0000ff;fill-rule:evenodd;stroke:none;stroke-width:1px;stroke-linecap:butt;stroke-linejoin:miter;stroke-miterlimit:1.5;stroke-opacity:1"
     d="m 2336.4691,1884.3874 c 0.5969,37.7228 -4.0031,76.9642 -20.167,109.2921 -2.0474,4.0948 -0.1839,10.4936 -1.3011,14.9626 -2.0399,8.1594 -4.4902,16.6597 -6.5055,24.7208 -1.2112,4.8447 0.2674,11.8257 -1.9516,16.2637 -4.8481,9.6962 -3.924,22.1599 -8.4572,31.2263 -0.5204,1.0409 0.5205,2.8624 0,3.9033 -0.6032,1.2065 -11.6969,32.8462 -12.3604,33.1779 -3.3334,1.6668 -7.6483,8.1407 -9.7582,12.3604 -3.8662,7.7324 -7.5665,23.8302 -12.3604,28.6242 -2.5187,2.5186 -7.4183,3.2107 -10.4088,5.2043 -10.5908,7.0606 -20.9947,-1.8864 -30.5757,-7.156 -3.9094,-2.1502 -13.9849,-4.2267 -17.5648,-7.8066 -11.1915,-11.1914 -26.142,-20.3567 -28.6241,-37.7317 -2.6739,-18.7175 -0.4411,-38.727 7.156,-55.9472 1.6995,-3.8522 5.2731,-6.6428 7.156,-10.4087 5.6805,-11.361 8.7843,-23.4992 13.6615,-35.1296 3.8541,-9.1905 17.4712,-18.5804 23.4198,-24.7208 5.7018,-5.8858 10.7764,-12.1793 16.2637,-18.2154 2.5873,-2.8461 3.8587,-7.1115 6.5054,-9.7582 5.4888,-5.4888 10.8535,-10.8535 16.2637,-16.2637 6.4673,-6.4673 5.8226,-20.1347 12.3604,-26.6725 5.9189,-5.9188 16.5024,-9.2179 22.7692,-14.9626 5.5356,-5.0742 14.7455,-28.4073 26.0219,-22.7691 2.5906,1.2952 3.6664,6.3475 5.855,7.8065"
     id="path973-2" /><path
     d="M 2202.7622,2175.9928 C 1642.9982,1930.9563 1253.7275,1101.4311 1253.7275,153.68826"
     stroke="#ffffff"
     stroke-width="108.192"
     stroke-miterlimit="8"
     fill="none"
     fill-rule="evenodd"
     id="path888"
     style="stroke-linecap:square;stroke:#ffffff;stroke-opacity:1" /><path
     d="M2362.65,107.661c0,574.324 0,1109.67 0,1548.81c0,755.378 -550.934,1235.87 -1163.55,1235.87c-612.616,0 -1163.55,-480.491 -1163.55,-1235.87c-0,-454.118 -0,-974.486 -0,-1548.81l2327.1,-0Z"
     style="fill:none;stroke:#000;stroke-width:20.83px;"
     id="path201" /></svg>
