<?xml version="1.0" encoding="UTF-8" standalone="no"?>
<svg
   xmlns:dc="http://purl.org/dc/elements/1.1/"
   xmlns:cc="http://creativecommons.org/ns#"
   xmlns:rdf="http://www.w3.org/1999/02/22-rdf-syntax-ns#"
   xmlns:svg="http://www.w3.org/2000/svg"
   xmlns="http://www.w3.org/2000/svg"
   xmlns:sodipodi="http://sodipodi.sourceforge.net/DTD/sodipodi-0.dtd"
   xmlns:inkscape="http://www.inkscape.org/namespaces/inkscape"
   height="765"
   width="605"
   version="1.0"
   id="svg20"
   sodipodi:version="0.32"
   inkscape:version="0.91 r13725"
   sodipodi:docname="Funes-Stemma.svg"
   inkscape:output_extension="org.inkscape.output.svg.inkscape"
   sodipodi:modified="true">
  <metadata
     id="metadata31">
    <rdf:RDF>
      <cc:Work
         rdf:about="">
        <dc:format>image/svg+xml</dc:format>
        <dc:type
           rdf:resource="http://purl.org/dc/dcmitype/StillImage" />
        <dc:date />
        <dc:creator>
          <cc:Agent>
            <dc:title />
          </cc:Agent>
        </dc:creator>
        <cc:license
           rdf:resource="http://creativecommons.org/publicdomain/zero/1.0/" />
        <dc:coverage />
        <dc:description />
        <dc:subject>
          <rdf:Bag />
        </dc:subject>
        <dc:language />
        <dc:title></dc:title>
      </cc:Work>
      <cc:License
         rdf:about="http://creativecommons.org/publicdomain/zero/1.0/">
        <cc:permits
           rdf:resource="http://creativecommons.org/ns#Reproduction" />
        <cc:permits
           rdf:resource="http://creativecommons.org/ns#Distribution" />
        <cc:permits
           rdf:resource="http://creativecommons.org/ns#DerivativeWorks" />
      </cc:License>
    </rdf:RDF>
  </metadata>
  <defs
     id="defs29" />
  <sodipodi:namedview
     inkscape:window-height="674"
     inkscape:window-width="1232"
     inkscape:pageshadow="2"
     inkscape:pageopacity="0.0"
     guidetolerance="10.0"
     gridtolerance="10.0"
     objecttolerance="10.0"
     borderopacity="1.0"
     bordercolor="#666666"
     pagecolor="#ffffff"
     id="base"
     inkscape:zoom="0.47449367"
     inkscape:cx="395.56526"
     inkscape:cy="441.30321"
     inkscape:window-x="46"
     inkscape:window-y="16"
     inkscape:current-layer="layer1"
     showgrid="false"
     showguides="true"
     inkscape:guide-bbox="true"
     inkscape:window-maximized="0"
     inkscape:snap-bbox="true"
     inkscape:bbox-paths="true"
     inkscape:bbox-nodes="true"
     inkscape:snap-bbox-edge-midpoints="true"
     inkscape:snap-bbox-midpoints="true"
     inkscape:object-paths="true"
     inkscape:snap-intersection-paths="true"
     inkscape:object-nodes="true"
     inkscape:snap-smooth-nodes="true"
     inkscape:snap-midpoints="true" />
  <desc
     id="desc22">Coat of arms of Funes/Villnöß</desc>
  <g
     inkscape:groupmode="layer"
     id="layer1"
     inkscape:label="Fond écu"
     style="opacity:1"
     transform="translate(1,1.00002)">
    <path
       id="path1899"
       d="M 1.5,1.49998 L 1.5,460.3679 C 1.5,626.6785 135.81456,761.5 301.49999,761.5 C 467.18543,761.5 601.5,626.6785 601.5,460.3679 L 601.5,1.49998 L 1.5,1.49998 z "
       style="fill:white;fill-opacity:1;stroke:black;stroke-width:0;stroke-miterlimit:4;stroke-dasharray:none;stroke-opacity:1" />
    <path
       style="fill:#00a7ec;fill-opacity:1;fill-rule:nonzero;stroke:#00a7ec;stroke-width:0.07451172;stroke-miterlimit:4;stroke-dasharray:none;stroke-opacity:1"
       d="m 0.632988,230.77041 0,-230.24120746 302.145022,0 302.14502,0 0,230.24120746 c 0,204.16212 -0.12659,230.24122 -1.11768,230.24122 -0.61472,0 -1.11767,-0.15603 -1.11767,-0.34673 0,-0.38277 -98.81497,-454.1689233 -99.5486,-457.1552287 C 502.71286,1.7747623 502.64379,1.7491855 502.133,3.1371127 501.83135,3.9567416 479.32582,106.81103 452.12072,231.70221 424.91561,356.59338 402.44953,458.19011 402.19608,457.47272 401.94263,456.75532 379.4794,353.99209 352.27781,229.10998 325.07621,104.22787 302.60765,2.2958417 302.34766,2.5943572 302.08768,2.8928728 279.65527,105.2368 252.49787,230.0253 225.34047,354.8138 202.90673,457.15218 202.64512,457.44392 202.38351,457.73567 179.91613,355.80364 152.7176,230.9283 125.51907,106.05296 102.98414,3.3792758 102.63999,2.7645541 102.29582,2.1498324 102.00404,1.9677861 101.99159,2.3600067 101.96575,3.1729944 2.9917659,457.70904 2.405375,459.70767 c -0.2104168,0.71718 -0.6952835,1.30396 -1.0774815,1.30396 -0.4282966,0 -0.6949055,-88.33483 -0.6949055,-230.24122 z"
       id="path4154"
       inkscape:connector-curvature="0"
       transform="translate(-1,-1.00002)" />
    <path
       style="fill:none;fill-rule:evenodd;stroke:#000000;stroke-width:3;stroke-linecap:butt;stroke-linejoin:miter;stroke-miterlimit:4;stroke-dasharray:none;stroke-opacity:1"
       d="m 1.5,460.3679 100,-458.86792 100,458.868 100,-458.868 100,458.868 100,-458.868 100,458.86792"
       id="path4139"
       inkscape:connector-curvature="0"
       sodipodi:nodetypes="ccccccc" />
    <path
       style="fill:#000000;fill-opacity:1;stroke:none;stroke-width:5;stroke-miterlimit:4;stroke-dasharray:none;stroke-opacity:1"
       d="m -1,-1.00002 0,2.5 0,458.875 c 0,167.65663 135.4584,303.625 302.5,303.625 167.0416,0 302.4999,-135.96838 302.4999,-303.625 l 0,-458.875 0,-2.5 -2.5,0 -599.9999,0 -2.5,0 z m 5,5 594.9999,0 0,456.375 c 0,164.96458 -133.1707,298.625 -297.4999,298.625 C 137.1708,758.99998 4,625.33957 4,460.37498 L 4,3.99998 Z"
       id="path2843"
       inkscape:connector-curvature="0" />
  </g>
  <g
     inkscape:groupmode="layer"
     id="layer2"
     inkscape:label="Meubles"
     style="opacity:1;display:inline"
     transform="translate(1,1.00002)" />
  <g
     inkscape:groupmode="layer"
     id="layer3"
     inkscape:label="Reflet final"
     style="display:inline"
     transform="translate(1,1.00002)" />
  <g
     inkscape:groupmode="layer"
     id="layer4"
     inkscape:label="Contour final"
     style="display:inline"
     transform="translate(1,1.00002)" />
</svg>
