<?xml version="1.0" encoding="UTF-8" standalone="no"?>
<!-- Generator: Adobe Illustrator 18.1.1, SVG Export Plug-In . SVG Version: 6.00 Build 0)  -->

<svg
   xmlns:dc="http://purl.org/dc/elements/1.1/"
   xmlns:cc="http://creativecommons.org/ns#"
   xmlns:rdf="http://www.w3.org/1999/02/22-rdf-syntax-ns#"
   xmlns:svg="http://www.w3.org/2000/svg"
   xmlns="http://www.w3.org/2000/svg"
   xmlns:sodipodi="http://sodipodi.sourceforge.net/DTD/sodipodi-0.dtd"
   xmlns:inkscape="http://www.inkscape.org/namespaces/inkscape"
   version="1.1"
   id="Livello_1"
   x="0px"
   y="0px"
   viewBox="0 0 155 311"
   enable-background="new 0 0 237 397.5"
   xml:space="preserve"
   inkscape:version="0.48.4 r9939"
   width="100%"
   height="100%"
   sodipodi:docname="Gavi-Stemma.svg"><title
   id="title3387">Stemma comune di Gavi</title><metadata
   id="metadata410"><rdf:RDF><cc:Work
       rdf:about=""><dc:format>image/svg+xml</dc:format><dc:type
         rdf:resource="http://purl.org/dc/dcmitype/StillImage" /><dc:title>Stemma comune di Gavi</dc:title><dc:date>15-JUL-2015</dc:date><dc:creator><cc:Agent><dc:title>https://commons.wikimedia.org/wiki/User:Strega_Comandacolor</dc:title></cc:Agent></dc:creator><dc:language>it, en</dc:language><dc:subject><rdf:Bag><rdf:li>Stemma</rdf:li><rdf:li>coat of arms</rdf:li><rdf:li>Gavi</rdf:li></rdf:Bag></dc:subject><dc:description>Stemma concesso con D.C.G del 7 aprile 1933: fasciato di rosso e d'argento, di sei pezzi</dc:description><cc:license
         rdf:resource="https://creativecommons.org/licenses/by-sa/4.0/" /></cc:Work><cc:License
       rdf:about="http://creativecommons.org/licenses/by-sa/3.0/"><cc:permits
         rdf:resource="http://creativecommons.org/ns#Reproduction" /><cc:permits
         rdf:resource="http://creativecommons.org/ns#Distribution" /><cc:requires
         rdf:resource="http://creativecommons.org/ns#Notice" /><cc:requires
         rdf:resource="http://creativecommons.org/ns#Attribution" /><cc:permits
         rdf:resource="http://creativecommons.org/ns#DerivativeWorks" /><cc:requires
         rdf:resource="http://creativecommons.org/ns#ShareAlike" /></cc:License></rdf:RDF></metadata><defs
   id="defs408" /><sodipodi:namedview
   pagecolor="#ffffff"
   bordercolor="#666666"
   borderopacity="1"
   objecttolerance="10"
   gridtolerance="10"
   guidetolerance="10"
   inkscape:pageopacity="0"
   inkscape:pageshadow="2"
   inkscape:window-width="1920"
   inkscape:window-height="1018"
   id="namedview406"
   showgrid="false"
   fit-margin-top="0"
   fit-margin-left="0"
   fit-margin-right="0"
   fit-margin-bottom="0"
   inkscape:zoom="1.6792674"
   inkscape:cx="-42.687336"
   inkscape:cy="149.35"
   inkscape:window-x="-8"
   inkscape:window-y="-8"
   inkscape:window-maximized="1"
   inkscape:current-layer="g3" />
<g
   id="g3"
   transform="translate(-45.66077,-37.1)">
	<path
   d="m 198.8,56.9 c -0.1,-0.1 -3.3,-1.2 -7.2,0.1 -4.8,-4.6 -6.8,-5.2 -7.2,-5.2 h 0 0 0 -2.3 c 0,0 0,0 0,0 v -1.3 c 0,-0.1 0,-0.1 -0.1,-0.2 -0.1,-0.1 -0.2,-0.1 -0.2,-0.1 l -5.9,0.2 c -0.6,-0.7 -3.6,-4.1 -6.6,-4.1 -1.4,0 -2.6,0 -3.3,0 l 0.3,-1.7 c 0,-0.1 0,-0.2 0,-0.2 -0.1,-0.1 -0.1,-0.1 -0.2,-0.1 -0.2,0 -5.1,-0.6 -7.3,0.9 -3.1,-2.7 -7.5,-3.3 -9.3,-3.2 v -1.1 c 0,-0.1 0,-0.2 -0.1,-0.2 -0.1,-0.1 -0.2,-0.1 -0.3,-0.1 0,0 -3.2,0.8 -6.2,2.4 -2.8,-1.7 -5.4,-2.7 -7.2,-3.3 -0.1,0 -0.1,0 -0.2,-0.1 0,0 -0.1,-0.1 -0.2,-0.1 0,0 0,0 -0.1,0 -1.2,-0.2 -2.4,0.1 -2.4,0.1 -0.1,0 -0.3,0.2 -0.3,0.3 v 5.6 l 0,0 v 0 c 0,0 0,0 0,0 0,0 0,0 0,0 0,0 0,0.1 0,0.1 v 0 l 0.1,0 0,0 1.3,1.3 v 9.2 l -3.4,-0.2 v -9.3 l 1.3,-0.9 c 0.1,-0.1 0.1,-0.2 0.1,-0.3 V 39 c 0,-0.1 0,-0.2 -0.1,-0.2 -0.1,-0.1 -0.2,-0.1 -0.2,-0.1 l -2.5,0 c -0.2,0 -4.1,0.3 -5.4,2.1 -2.2,-2 -4.5,-2.2 -4.6,-2.2 h -3.7 c -0.2,0 -0.3,0.1 -0.3,0.3 V 45 l 0,0 c 0,0.1 0,0.1 0.1,0.2 l 0,0 1.4,1.5 V 56 l -3.5,0.1 V 47 l 1.3,-1.3 0,0 c 0,0 0,0 0,-0.1 0,0 0,0 0,0 0,0 0,0 0,0 v 0 0 -5.6 c 0,-0.2 -0.1,-0.3 -0.2,-0.3 -0.1,0 -1.5,-0.4 -2.9,0 -1.7,0.5 -4.4,1.5 -7.2,3.3 -3,-1.6 -6.2,-2.4 -6.2,-2.4 -0.1,0 -0.2,0 -0.3,0.1 -0.1,0.1 -0.1,0.1 -0.1,0.3 v 1 c -1.8,-0.1 -6.3,0.5 -9.3,3.1 -2.2,-1.5 -7.1,-0.9 -7.4,-0.9 -0.1,0 -0.2,0.1 -0.2,0.1 -0.1,0.1 -0.1,0.2 -0.1,0.2 l 0.3,1.7 c -0.6,0 -1.8,0 -3.2,0 0,0 0,0 -0.1,0 -3.1,0 -6,3.4 -6.6,4.1 l -6,-0.2 c -0.1,0 -0.2,0 -0.2,0.1 -0.1,0.1 -0.1,0.1 -0.1,0.2 v 1.4 h -2.4 c -0.1,0 -2,0.3 -7.2,5.2 -3.8,-1.3 -7,-0.2 -7.1,-0.1 -0.2,0 -0.3,0.2 -0.2,0.4 l 1.6,7.7 c 0,0 0,0 0,0 0,0 0,0.1 0,0.1 l 0,0 c 0,0 0,0 0.1,0.1 0,0 0,0 0.1,0.1 0,0 0,0 0,0 l 1.9,0.8 3,12.1 c 0,0 0,0.1 0,0.1 h 0 l 1.4,5.6 c 0,0 0,0 0,0 0,0 0,0 0.1,0.1 v 0 l 0,0 10,11.3 0,0 c -0.3,0.9 -0.4,1.5 0.9,2.5 0.7,3.6 2.5,15.3 2.7,16.7 -0.3,0.6 -0.5,1.2 -0.5,1.8 0,7.5 24.1,13.4 54.9,13.4 30.8,0 54.9,-5.9 54.9,-13.4 0,-0.6 -0.2,-1.2 -0.5,-1.8 0,0 0,0 0,0 0,-0.1 -0.1,-0.2 -0.1,-0.2 -0.1,-0.3 -0.3,-0.5 -0.5,-0.7 0,0 0,0 0,-0.1 0,-0.1 1.4,-11.4 2.6,-14.7 0.6,-0.5 0.8,-1 0.9,-1.7 0,-0.8 -0.4,-1.4 -0.7,-1.8 l 10,-11.2 c 0,0 0,0 0,0 l 0,0 c 0,0 0,-0.1 0,-0.1 h 0 l 4.5,-17.8 1.9,-0.7 0,0 c 0,0 0.1,0 0.1,-0.1 0,0 0,0 0.1,-0.1 l 0,0 c 0,0 0,0 0,0 0,0 0,0 0,0 l 1.6,-7.7 c 0.3,-0.5 0.2,-0.7 0.1,-0.7 z m -130.9,10.6 -2,-8.5 0.8,-2.3 1.2,0.8 1.9,9.4 -1.9,0.6 z m 15,-5.9 -1.5,-8 c 0,-0.1 0,-0.1 0,-0.2 l 0.9,-2.1 1.5,1.1 0.6,8.6 -1.5,0.6 z m 14.6,-3.2 -0.5,-8.5 1.4,-2.1 1.5,1.5 0.1,8.8 -2.5,0.3 z m 52,-0.2 -2.6,-0.3 0.1,-8.8 1.6,-1.5 1.3,2.1 -0.4,8.5 z m 14.6,3.2 -1.6,-0.6 0.6,-8.6 1.5,-1.1 0.9,2.1 -1.4,8.2 z m 15,6 -1.9,-0.6 1.9,-9.4 1.2,-0.8 0.8,2.3 -2,8.5 z"
   id="path5"
   inkscape:connector-curvature="0" />
	<path
   d="M 197.7,143.4 H 49.3 c -0.5,0 -0.8,0.4 -0.8,0.9 v 174.4 c 0,7.5 1.8,15.2 15.2,15.2 h 48.1 c 9.1,0 10.8,10.6 10.9,11.1 0.1,0.4 0.4,0.7 0.8,0.7 0,0 0,0 0,0 0.4,0 0.8,-0.3 0.8,-0.8 0.1,-0.5 1.1,-11 10.9,-11 h 48.1 c 13.3,0 15.1,-7.7 15.1,-15.2 V 144.3 c 0.1,-0.5 -0.3,-0.9 -0.7,-0.9 z"
   id="path7"
   inkscape:connector-curvature="0" />
	<path
   d="M 50.107771,239 H 196.70777 c 0,0 0,0 0.1,0 v 29.8 c 0,0 -0.1,0 -0.1,0 H 50.107771 V 239 z"
   id="path9"
   inkscape:connector-curvature="0"
   style="fill:#ffffff;stroke:#000000;stroke-width:0.2746" />
	<path
   d="M 196.70777,238.1 H 50.107771 V 208.3 H 196.70777 c 0,0 0,0 0.1,0 l -0.1,29.8 c 0,0 0,0 0,0 z"
   id="path11"
   inkscape:connector-curvature="0"
   style="fill:#d51317;stroke:#000000;stroke-width:0.2746" />
	<path
   d="M 196.70777,207.5 H 50.107771 V 177.7 H 196.70777 c 0,0 0,0 0.1,0 l -0.1,29.8 c 0,0 0,0 0,0 z"
   id="path13"
   inkscape:connector-curvature="0"
   style="fill:#ffffff;stroke:#000000;stroke-width:0.2746" />
	<path
   d="M 50.107771,269.6 H 196.70777 c 0,0 0,0 0.1,0 v 29.8 c 0,0 -0.1,0 -0.1,0 H 50.107771 v -29.8 z"
   id="path15"
   inkscape:connector-curvature="0"
   style="fill:#d51317;stroke:#000000;stroke-width:0.2746" />
	<path
   d="m 196.75777,145.1 v 31.8 c 0,0 -0.1,0 -0.1,0 H 50.157771 V 145.1 H 196.75777 z"
   id="path17"
   inkscape:connector-curvature="0"
   style="fill:#d51317;stroke:#000000;stroke-width:0.2746" />
	<path
   d="m 183.30777,332.1 h -48.1 c -7.6,0 -10.6,5.5 -11.8,9.2 -1.4,-3.7 -4.6,-9.2 -11.6,-9.2 H 63.607771 c -11.2,0 -13.5,-5.4 -13.5,-13.5 V 300.1 H 196.70777 c 0,0 0,0 0.1,0 v 18.5 c 0,8.2 -2.3,13.5 -13.5,13.5 z"
   id="path19"
   inkscape:connector-curvature="0"
   style="fill:#ffffff;stroke:#000000;stroke-width:0.2746" />
	<path
   d="m 180.3,94.6 c -0.1,-0.1 -0.2,-0.1 -0.4,-0.2 0.3,-0.5 0.8,-1.1 1.4,-2 1,-1.5 2.3,-3.3 3.2,-4.8 0.9,-1.4 1.2,-2.8 0.8,-4 -0.5,-1.3 -1.7,-2.2 -3.4,-2.8 -2.8,-0.8 -6.7,-0.9 -9.4,3.8 -0.6,1 -1.2,2.3 -1.9,3.8 -0.2,0.4 -0.4,0.9 -0.6,1.3 -0.4,-0.1 -0.7,-0.3 -1.1,-0.4 l 1,-2.2 c 0,0 0.1,-0.1 0.1,-0.1 0.2,-0.4 0.4,-0.8 0.6,-1.2 l 1.8,-3.7 c 0.7,-1.4 0.7,-2.9 0.1,-4 -0.7,-1.3 -2,-2.1 -3.8,-2.3 -2.8,-0.4 -6.6,0 -8.7,4.4 -0.3,0.6 -0.6,1.5 -1,2.5 -0.4,1.1 -1,2.3 -1.4,3.3 -0.3,-0.1 -0.5,-0.1 -0.8,-0.2 l 2.5,-8.2 c 0.4,-1.5 0.3,-2.9 -0.5,-4 -0.8,-1.3 -2.3,-2 -4.2,-2.2 -3.5,-0.3 -7.1,1.9 -7.9,4.9 -0.2,0.6 -0.4,1.4 -0.6,2.4 -0.4,1.7 -0.9,3.6 -1.3,4.8 -0.4,-0.1 -0.8,-0.1 -1.2,-0.2 l 1,-8.3 c 0.2,-1.5 -0.2,-2.8 -1.1,-3.9 -1,-1.2 -2.6,-1.9 -4.5,-1.9 0,0 -0.1,0 -0.1,0 -3.5,0 -6.5,2.9 -6.8,5.5 l -0.9,7.4 c -0.4,0 -0.7,0 -1.1,0 v -8.3 c 0,-2.7 -2.7,-5.6 -6.3,-5.6 -3.6,0 -6.3,2.4 -6.3,5.6 v 8.3 c -0.4,0 -0.7,0 -1.1,0.1 l -0.9,-7.4 c -0.3,-2.6 -3.3,-5.5 -6.8,-5.5 0,0 -0.1,0 -0.1,0 -1.9,0 -3.5,0.7 -4.5,1.9 -0.9,1 -1.3,2.4 -1.1,3.9 l 1,8.2 c -0.4,0 -0.8,0.1 -1.2,0.2 0,0 0,0 0,0 -0.4,-1.2 -0.8,-3 -1.2,-4.7 -0.2,-0.9 -0.4,-1.7 -0.6,-2.4 -0.8,-3 -4.4,-5.2 -7.8,-4.9 -1.9,0.2 -3.3,0.9 -4.2,2.2 -0.8,1.1 -0.9,2.5 -0.5,4 l 2.4,8 c -0.3,0.1 -0.6,0.1 -0.8,0.2 -0.4,-1 -0.9,-2.1 -1.4,-3.1 -0.4,-0.9 -0.7,-1.8 -1,-2.5 -2,-4.3 -5.8,-4.8 -8.6,-4.4 -1.8,0.3 -3.2,1.1 -3.8,2.3 -0.6,1.1 -0.6,2.5 0.1,4 l 3.4,7 c -0.4,0.1 -0.8,0.3 -1.2,0.4 l -0.5,-1.1 c -0.7,-1.5 -1.3,-2.8 -1.9,-3.8 -1.7,-3 -4,-4 -6.1,-4.2 0,0 -0.1,0 -0.1,0 -1.1,-0.1 -2.2,0.1 -3.2,0.4 -1.7,0.5 -3,1.5 -3.4,2.8 -0.4,1.2 -0.2,2.6 0.8,4 1,1.5 2.2,3.3 3.3,4.8 l 1.1,1.6 c -0.4,0.2 -0.7,0.4 -0.9,0.5 L 57,83.7 c 2.7,-1.9 25.6,-16.9 65.4,-16.9 39.9,0 64.8,15.1 67.8,17 l -9.9,10.8 z"
   id="path21"
   inkscape:connector-curvature="0"
   style="fill:#616160" />
	<linearGradient
   id="SVGID_1_"
   gradientUnits="userSpaceOnUse"
   x1="166.0271"
   y1="85.268402"
   x2="182.8663"
   y2="85.268402"
   gradientTransform="translate(2,0)">
		<stop
   offset="1"
   style="stop-color:#4A451A"
   id="stop24" />
		<stop
   offset="1"
   style="stop-color:#06933E"
   id="stop26" />
	</linearGradient>
	<path
   d="m 180.4,81.3 c 0.5,0 0.9,0.1 1.3,0.3 1.5,0.4 2.6,1.3 3,2.4 0.4,1 0.1,2.2 -0.7,3.4 -1,1.5 -2.2,3.3 -3.2,4.8 -0.6,0.8 -1,1.6 -1.4,2 -0.3,-0.2 -0.7,-0.4 -1.1,-0.6 4.2,-4.6 2.7,-10.7 2.1,-12.3 z M 168,76.4 c 0.2,0 0.3,0 0.5,0 1.6,0.2 2.8,0.9 3.4,2 0.5,1 0.5,2.2 -0.1,3.4 l -0.6,1.3 c 0.2,-3.6 -2.1,-5.9 -3.2,-6.7 z"
   id="path28"
   inkscape:connector-curvature="0"
   style="fill:url(#SVGID_1_)" />
	<linearGradient
   id="SVGID_2_"
   gradientUnits="userSpaceOnUse"
   x1="153.96271"
   y1="78.841698"
   x2="156.8009"
   y2="78.841698"
   gradientTransform="translate(2,0)">
		<stop
   offset="1"
   style="stop-color:#4A451A"
   id="stop31" />
		<stop
   offset="1"
   style="stop-color:#06933E"
   id="stop33" />
	</linearGradient>
	<path
   d="m 158.8,76.2 c 0,0.4 -0.1,0.8 -0.2,1.3 l -1.6,5.3 c 0,-3.5 -0.8,-7 -1,-7.9 1.5,0.1 2.6,1.1 2.8,1.3 z"
   id="path35"
   inkscape:connector-curvature="0"
   style="fill:url(#SVGID_2_)" />
	<g
   id="g37"
   transform="translate(2,0)">
		<linearGradient
   id="SVGID_3_"
   gradientUnits="userSpaceOnUse"
   x1="171.5773"
   y1="83.9972"
   x2="178.2146"
   y2="90.870399">
			<stop
   offset="0.3865"
   style="stop-color:#504F4E"
   id="stop40" />
			<stop
   offset="1"
   style="stop-color:#DADADA"
   id="stop42" />
		</linearGradient>
		<path
   d="m 177.7,81.2 c 0.3,0.9 2.4,7.3 -1.9,12 0,0 0,0.1 0,0.1 -1.7,-0.8 -4.1,-2 -7.2,-3.2 0.2,-0.4 0.4,-0.9 0.6,-1.3 0.7,-1.4 1.3,-2.8 1.8,-3.7 1.9,-3.3 4.5,-4.1 6.7,-3.9 z"
   id="path44"
   inkscape:connector-curvature="0"
   style="fill:url(#SVGID_3_)" />
		<linearGradient
   id="SVGID_4_"
   gradientUnits="userSpaceOnUse"
   x1="158.8698"
   y1="79.400902"
   x2="167.3378"
   y2="88.169701">
			<stop
   offset="0.3865"
   style="stop-color:#504F4E"
   id="stop47" />
			<stop
   offset="1"
   style="stop-color:#DADADA"
   id="stop49" />
		</linearGradient>
		<path
   d="m 165.1,76.3 c 0,0.1 0.1,0.2 0.1,0.2 0.2,0.1 5,3.2 2.8,9 l -1.7,3.6 c -2.9,-1 -6.3,-2.1 -10.1,-3 0.5,-1 1,-2.2 1.4,-3.2 0.4,-0.9 0.7,-1.8 1,-2.5 1.5,-3.2 4.1,-4.1 6.5,-4.1 z"
   id="path51"
   inkscape:connector-curvature="0"
   style="fill:url(#SVGID_4_)" />
		<linearGradient
   id="SVGID_5_"
   gradientUnits="userSpaceOnUse"
   x1="148.4458"
   y1="78.213799"
   x2="154.9079"
   y2="84.905502">
			<stop
   offset="0.3865"
   style="stop-color:#504F4E"
   id="stop54" />
			<stop
   offset="1"
   style="stop-color:#DADADA"
   id="stop56" />
		</linearGradient>
		<path
   d="m 152.8,75 c 0.2,-0.1 0.3,-0.1 0.5,-0.1 0.2,0.9 1.6,6.6 0.8,10.8 -2.5,-0.6 -5.2,-1.1 -8,-1.6 1.8,-5.4 4.1,-8.5 6.7,-9.1 z"
   id="path58"
   inkscape:connector-curvature="0"
   style="fill:url(#SVGID_5_)" />
		<linearGradient
   id="SVGID_6_"
   gradientUnits="userSpaceOnUse"
   x1="135.8739"
   y1="76.198601"
   x2="141.9655"
   y2="82.506699">
			<stop
   offset="0.3865"
   style="stop-color:#504F4E"
   id="stop61" />
			<stop
   offset="1"
   style="stop-color:#DADADA"
   id="stop63" />
		</linearGradient>
		<path
   d="m 137,75.2 c 2,-1.5 4.4,-1.4 5.1,-1.3 0,0.4 0,0.7 0,1.2 l -1,8.3 c -2.4,-0.3 -4.8,-0.6 -7.4,-0.8 0.3,-3.5 1.4,-6 3.3,-7.4 z"
   id="path65"
   inkscape:connector-curvature="0"
   style="fill:url(#SVGID_6_)" />
		<linearGradient
   id="SVGID_7_"
   gradientUnits="userSpaceOnUse"
   x1="120.4989"
   y1="76.002403"
   x2="128.2897"
   y2="81.061897">
			<stop
   offset="0.3865"
   style="stop-color:#504F4E"
   id="stop68" />
			<stop
   offset="1"
   style="stop-color:#DADADA"
   id="stop70" />
		</linearGradient>
		<path
   d="m 122.3,82.1 c 0,0 -0.1,0 -0.1,0 -0.4,0 -0.8,0 -1.3,0 -0.1,0 -0.1,0 -0.2,0 h 0 c -1,0 -2,0 -3,0 0,0 0,0 0,0 1.4,-8.3 8.5,-9.6 9.4,-9.7 0.2,0.5 0.3,1 0.3,1.5 v 8.3 c -1.6,0 -3.3,-0.1 -5.1,-0.1 z"
   id="path72"
   inkscape:connector-curvature="0"
   style="fill:url(#SVGID_7_)" />
		<linearGradient
   id="SVGID_8_"
   gradientUnits="userSpaceOnUse"
   x1="105.6899"
   y1="76.134499"
   x2="114.2472"
   y2="81.691704">
			<stop
   offset="0.3865"
   style="stop-color:#504F4E"
   id="stop75" />
			<stop
   offset="1"
   style="stop-color:#DADADA"
   id="stop77" />
		</linearGradient>
		<path
   d="m 104.2,82.9 c 0,-8.7 5.7,-11.2 6.5,-11.5 1.2,1 2.1,2.2 2.2,3.5 l 0.9,7.4 c -3.4,0.2 -6.6,0.4 -9.7,0.8 0.1,-0.1 0.1,-0.1 0.1,-0.2 z"
   id="path79"
   inkscape:connector-curvature="0"
   style="fill:url(#SVGID_8_)" />
		<linearGradient
   id="SVGID_9_"
   gradientUnits="userSpaceOnUse"
   x1="92.023804"
   y1="78.383904"
   x2="100.1588"
   y2="83.666901">
			<stop
   offset="0.3865"
   style="stop-color:#504F4E"
   id="stop82" />
			<stop
   offset="1"
   style="stop-color:#DADADA"
   id="stop84" />
		</linearGradient>
		<path
   d="M 91.2,85.2 C 90.9,74.8 96.7,74.4 97,74.3 c 0,0 0.1,0 0.1,0 0.7,0.6 1.2,1.5 1.4,2.3 0.2,0.6 0.4,1.5 0.6,2.4 0.4,1.6 0.8,3.4 1.2,4.6 -3.3,0.5 -6.3,1 -9.1,1.6 z"
   id="path86"
   inkscape:connector-curvature="0"
   style="fill:url(#SVGID_9_)" />
		<linearGradient
   id="SVGID_10_"
   gradientUnits="userSpaceOnUse"
   x1="79.107498"
   y1="81.597298"
   x2="87.032501"
   y2="86.743896">
			<stop
   offset="0.3865"
   style="stop-color:#504F4E"
   id="stop89" />
			<stop
   offset="1"
   style="stop-color:#DADADA"
   id="stop91" />
		</linearGradient>
		<path
   d="m 79.4,88.3 c -1.8,-6.9 2.3,-10.5 2.9,-11 1.1,0.6 2.1,1.6 2.8,3.2 0.3,0.6 0.6,1.5 1,2.5 0.4,1 0.8,2.1 1.3,3.1 -2.9,0.6 -5.5,1.4 -8,2.2 z"
   id="path93"
   inkscape:connector-curvature="0"
   style="fill:url(#SVGID_10_)" />
		<linearGradient
   id="SVGID_11_"
   gradientUnits="userSpaceOnUse"
   x1="65.593803"
   y1="83.748596"
   x2="75.010696"
   y2="89.863998">
			<stop
   offset="0.3865"
   style="stop-color:#504F4E"
   id="stop96" />
			<stop
   offset="1"
   style="stop-color:#DADADA"
   id="stop98" />
		</linearGradient>
		<path
   d="m 70.7,91.6 c -0.4,-0.6 -2.1,-3.3 -3.4,-5.8 -1.2,-2.2 -0.3,-4.1 0,-4.6 1.9,0.2 3.9,1.2 5.5,3.9 0.6,0.9 1.2,2.3 1.9,3.7 l 0.5,1 C 73.4,90.4 72,91 70.7,91.6 z"
   id="path100"
   inkscape:connector-curvature="0"
   style="fill:url(#SVGID_11_)" />
	</g>
	<linearGradient
   id="SVGID_12_"
   gradientUnits="userSpaceOnUse"
   x1="143.4897"
   y1="78.070297"
   x2="156.7377"
   y2="78.070297"
   gradientTransform="translate(2,0)">
		<stop
   offset="0.2515"
   style="stop-color:#000000"
   id="stop103" />
		<stop
   offset="1"
   style="stop-color:#877615"
   id="stop105" />
	</linearGradient>
	<path
   d="m 154.7,74.4 c -2.8,0.6 -5.3,3.9 -7.2,9.7 -0.6,-0.1 -1.3,-0.2 -1.9,-0.3 0.3,-1.2 0.8,-3.1 1.2,-4.8 0.3,-0.9 0.5,-1.7 0.6,-2.4 0.7,-2.7 4,-4.7 7.2,-4.5 1.6,0.2 3,0.8 3.7,1.9 0.3,0.4 0.4,0.8 0.5,1.3 -0.8,-0.6 -2.3,-1.4 -4.1,-0.9 z"
   id="path107"
   inkscape:connector-curvature="0"
   style="fill:url(#SVGID_12_)" />
	<linearGradient
   id="SVGID_13_"
   gradientUnits="userSpaceOnUse"
   x1="129.8969"
   y1="76.283203"
   x2="141.9713"
   y2="76.283203"
   gradientTransform="translate(2,0)">
		<stop
   offset="0.2515"
   style="stop-color:#000000"
   id="stop110" />
		<stop
   offset="1"
   style="stop-color:#877615"
   id="stop112" />
	</linearGradient>
	<path
   d="m 131.9,82.4 0.9,-7.4 c 0.3,-2.3 3,-4.9 6.2,-4.9 0,0 0.1,0 0.1,0 1.7,0 3.2,0.6 4,1.7 0.4,0.5 0.7,1 0.9,1.6 -1,-0.1 -3.3,-0.1 -5.4,1.4 -2.1,1.6 -3.2,4.2 -3.6,7.9 -1,-0.2 -2,-0.3 -3.1,-0.3 z"
   id="path114"
   inkscape:connector-curvature="0"
   style="fill:url(#SVGID_13_)" />
	<linearGradient
   id="SVGID_14_"
   gradientUnits="userSpaceOnUse"
   x1="116.229"
   y1="75.564598"
   x2="126.9114"
   y2="75.564598"
   gradientTransform="translate(2,0)">
		<stop
   offset="0.2515"
   style="stop-color:#000000"
   id="stop117" />
		<stop
   offset="1"
   style="stop-color:#877615"
   id="stop119" />
	</linearGradient>
	<path
   d="m 119.2,82.2 c -0.3,0 -0.7,0 -1,0 v -8.3 c 0,-2.9 2.4,-5 5.6,-5 2.2,0 4.1,1.3 5,3 -1.5,0.3 -8.3,2.1 -9.7,10.2 0.1,0 0.1,0 0.1,0.1 z"
   id="path121"
   inkscape:connector-curvature="0"
   style="fill:url(#SVGID_14_)" />
	<linearGradient
   id="SVGID_15_"
   gradientUnits="userSpaceOnUse"
   x1="101.6229"
   y1="76.633499"
   x2="110.1246"
   y2="76.633499"
   gradientTransform="translate(2,0)">
		<stop
   offset="0.2515"
   style="stop-color:#000000"
   id="stop124" />
		<stop
   offset="1"
   style="stop-color:#877615"
   id="stop126" />
	</linearGradient>
	<path
   d="m 104.7,83.3 -1,-8.2 c -0.2,-1.3 0.2,-2.5 1,-3.4 0.9,-1 2.3,-1.7 4,-1.7 0,0 0.1,0 0.1,0 1.2,0 2.4,0.4 3.4,1 -1.5,0.8 -6.5,3.8 -6.5,11.9 0,0.1 0,0.2 0.1,0.2 -0.5,0.1 -0.8,0.1 -1.1,0.2 z"
   id="path128"
   inkscape:connector-curvature="0"
   style="fill:url(#SVGID_15_)" />
	<linearGradient
   id="SVGID_16_"
   gradientUnits="userSpaceOnUse"
   x1="86.944"
   y1="78.82"
   x2="96.4785"
   y2="78.82"
   gradientTransform="translate(2,0)">
		<stop
   offset="0.2515"
   style="stop-color:#000000"
   id="stop131" />
		<stop
   offset="1"
   style="stop-color:#877615"
   id="stop133" />
	</linearGradient>
	<path
   d="m 91.6,85.5 -2.4,-8 c -0.4,-1.3 -0.3,-2.5 0.4,-3.4 0.7,-1.1 2,-1.7 3.7,-1.9 1.9,-0.2 3.8,0.5 5.2,1.6 -1.5,0.3 -6.2,2.1 -5.9,11.5 -0.4,0.1 -0.7,0.1 -1,0.2 z"
   id="path135"
   inkscape:connector-curvature="0"
   style="fill:url(#SVGID_16_)" />
	<linearGradient
   id="SVGID_17_"
   gradientUnits="userSpaceOnUse"
   x1="73.494698"
   y1="82.665604"
   x2="81.764397"
   y2="82.665604"
   gradientTransform="translate(2,0)">
		<stop
   offset="0.2515"
   style="stop-color:#000000"
   id="stop138" />
		<stop
   offset="1"
   style="stop-color:#877615"
   id="stop140" />
	</linearGradient>
	<path
   d="M 79.4,89 76,81.9 c -0.6,-1.3 -0.7,-2.5 -0.1,-3.4 0.6,-1.1 1.8,-1.8 3.4,-2 1.4,-0.2 3,-0.2 4.5,0.5 -1.1,1 -4.7,4.9 -2.9,11.5 l 0,0 c -0.5,0.1 -1,0.3 -1.5,0.5 z"
   id="path142"
   inkscape:connector-curvature="0"
   style="fill:url(#SVGID_17_)" />
	<linearGradient
   id="SVGID_18_"
   gradientUnits="userSpaceOnUse"
   x1="60.885799"
   y1="87.482903"
   x2="70.118698"
   y2="87.482903"
   gradientTransform="translate(2,0)">
		<stop
   offset="0.2515"
   style="stop-color:#000000"
   id="stop145" />
		<stop
   offset="1"
   style="stop-color:#877615"
   id="stop147" />
	</linearGradient>
	<path
   d="M 68.1,93.8 67,92.1 c -1,-1.5 -2.3,-3.3 -3.2,-4.8 -0.8,-1.2 -1.1,-2.4 -0.7,-3.4 0.4,-1.1 1.5,-1.9 3,-2.4 0.8,-0.3 1.6,-0.4 2.5,-0.4 -0.4,0.9 -1.1,2.8 0.2,5 1.3,2.4 2.9,4.9 3.4,5.7 -1.8,0.8 -3.1,1.5 -4.1,2 z"
   id="path149"
   inkscape:connector-curvature="0"
   style="fill:url(#SVGID_18_)" />
	<linearGradient
   id="SVGID_19_"
   gradientUnits="userSpaceOnUse"
   x1="60.808498"
   y1="54.3311"
   x2="182.1017"
   y2="54.3311"
   gradientTransform="translate(2,0)">
		<stop
   offset="0"
   style="stop-color:#877615"
   id="stop152" />
		<stop
   offset="1"
   style="stop-color:#68430F"
   id="stop154" />
	</linearGradient>
	<path
   d="m 64.9,52.4 1.3,3.8 -3,0.8 -0.5,-4.6 h 2.2 z m 16.8,-1.1 -0.8,1.8 -1.6,0.4 0.8,-1.9 1.6,-0.3 z m 16,-3.6 -1.2,1.8 -1.2,-0.2 0.3,-1.6 2.1,0 z m 14.8,8.6 -0.8,0.1 v -9.1 l 0.8,0 v 9 z m 38.8,-8.9 0.3,1.6 -1.3,0.3 -1.3,-2 2.3,0.1 z m 15.5,4.1 0.8,1.9 -1.5,-0.3 v 0 l -0.9,-2.1 1.6,0.5 z m 15.1,0.9 h 2.2 l -0.4,4.1 -3,-0.6 c 0,0 0,-0.1 0,-0.1 l 1.2,-3.4 z m -0.3,6.2 -0.7,-1.9 2.7,0.5 v 0 l 0.3,2.1 -2.3,-0.7 z m -118.3,-1 2.7,-0.7 -0.7,1.9 -2.4,0.9 0.4,-2.1 z m 17.6,-3.8 1.5,8 -0.4,0.1 -1,0.4 -1.8,-8.1 1.7,-0.4 z m 15.5,-3.7 0.4,8.4 -1.2,0.2 -0.3,-8.8 1.1,0.2 z m 54.1,-0.2 1.2,-0.3 -0.4,8.8 -1.2,-0.2 0.4,-8.3 z m 15.6,3.9 1.7,0.3 -1.9,8 -1,-0.4 -0.2,-0.1 1.4,-7.8 z m -103.2,6.5 2.5,-0.9 1.9,8.3 -2.7,0.8 -1.7,-8.2 z m 71.9,-14.7 0.3,0.9 -1,-0.1 c 0,0 0,0 -0.1,0 l -0.7,-0.7 1.5,-0.1 z m -0.3,1.4 0.8,0.1 v 9.2 h -0.8 V 47 z m 47.9,21.4 -2.7,-0.8 1.9,-8.3 2.4,0.7 0,0 -1.6,8.4 z M 168,46.9 l -1.1,3.9 -1.7,-0.5 0.7,-3.4 c 0.3,0 1.1,0 2.1,0 z m -16.6,-4.2 -0.2,4 -2.3,-0.1 0.4,-4.1 c 0.5,0.1 1.2,0.1 2.1,0.2 z m -16.5,-2.5 -0.1,4.8 -1.7,0.2 v -5 c 0.3,0 1,-0.1 1.8,0 z m -22.3,6.4 c -0.1,0 -0.1,0 -0.2,0 l -0.6,0 0.3,-1.1 1.4,0.2 -0.9,0.9 z m 1.3,-6.4 v 4.9 l -1.7,-0.2 -0.1,-4.7 c 0.7,-0.1 1.4,0 1.8,0 z M 97.6,42.6 98,47.1 95.7,47 95.5,42.8 c 0,0 0,0 0,-0.1 0.9,-0.1 1.6,-0.1 2.1,-0.1 z m -16.5,4.3 0.8,3.7 -1.8,0.4 -1.2,-4.1 c 1,0 1.8,0 2.2,0 z"
   id="path156"
   inkscape:connector-curvature="0"
   style="fill:url(#SVGID_19_)" />
	<linearGradient
   id="SVGID_20_"
   gradientUnits="userSpaceOnUse"
   x1="57.909"
   y1="87.5718"
   x2="186.0564"
   y2="33.176399"
   gradientTransform="translate(2,0)">
		<stop
   offset="0"
   style="stop-color:#686867"
   id="stop159" />
		<stop
   offset="0.1779"
   style="stop-color:#ACACAC"
   id="stop161" />
		<stop
   offset="0.2577"
   style="stop-color:#FFFFFF"
   id="stop163" />
		<stop
   offset="0.3926"
   style="stop-color:#CDCDCD"
   id="stop165" />
		<stop
   offset="0.8282"
   style="stop-color:#5F5E5E"
   id="stop167" />
	</linearGradient>
	<path
   d="m 191.7,57.7 c 3.1,-1.1 5.8,-0.5 6.7,-0.3 l -1.5,7 -12.6,-7.6 0.4,-4.3 c 0.7,0.3 2.7,1.3 6.6,5.1 0.1,0.1 0.2,0.1 0.4,0.1 z M 169.2,46.9 c 0,0 0,0 0,0 3.1,0 6.2,3.9 6.2,4 0.1,0.1 0.2,0.1 0.3,0.1 l 5.8,-0.2 v 1.1 l -1.3,3.6 -12.8,-4.5 1.2,-4.1 c 0.2,0 0.4,0 0.6,0 z m -10.4,-1.1 c 1.6,-1.3 5.6,-1.1 6.8,-1 l -0.3,1.7 -0.8,3.7 -12.6,-3.3 0.2,-4 c 2,0.4 4.5,1.2 6.3,2.9 0.1,0.1 0.3,0.1 0.4,0 z m -16.3,-2.2 c 0.1,0.1 0.2,0.1 0.3,0 2.4,-1.3 4.9,-2.1 5.8,-2.3 v 1 l -0.4,4.4 c 0,0 0,0 0,0.1 -1.2,-0.3 -4.4,-0.7 -12.9,-1.8 l 0.1,-4.6 c 1.8,0.5 4.4,1.5 7.1,3.2 z M 98.2,41.3 c 1,0.3 3.5,1 5.8,2.3 0.1,0.1 0.2,0.1 0.3,0 2.8,-1.7 5.4,-2.7 7,-3.3 l 0.1,4.6 -12.7,2.1 -0.4,-4.6 c 0,0 0,0 0,-0.1 0,0 0,-0.1 0,-0.1 v -0.9 z m -10,4.5 c 0.1,0.1 0.3,0.1 0.4,0 1.9,-1.7 4.3,-2.6 6.3,-3 l 0.2,4.2 -12.7,3.4 -0.8,-3.7 c 0,0 0,0 0,0 0,-0.1 0,-0.1 0,-0.2 l -0.3,-1.7 c 1.2,-0.1 5.2,-0.3 6.9,1 z m 30.9,-6.4 c 0,0 2.4,0.2 4.5,2.3 0.1,0.1 0.2,0.1 0.3,0.1 0.1,0 0.2,-0.1 0.2,-0.2 0.6,-1.5 3.8,-2.1 5,-2.1 h 2.1 v 5.4 l -15.5,-0.2 v -5.3 h 3.4 z M 71.2,51 c 0.1,0 0.2,0 0.3,-0.1 0,0 3.2,-4 6.2,-4 0,0 0,0 0,0 0.2,0 0.4,0 0.5,0 0,0 0,0.1 0,0.1 l 1.2,4.2 -12.8,4.4 -1.2,-3.6 v -1.3 l 5.8,0.3 z m -15.9,6.7 c 0.1,0.1 0.2,0 0.3,-0.1 3.9,-3.8 5.9,-4.8 6.6,-5.1 l 0.5,4.7 -12.6,7.3 -1.5,-7 c 0.8,-0.3 3.6,-1 6.7,0.2 z"
   id="path169"
   inkscape:connector-curvature="0"
   style="fill:url(#SVGID_20_)" />
	<path
   d="m 173.7,99.9 c 0.1,0 2.3,0.4 2,3.2 -0.1,1.8 -1.1,6.6 -1.4,7.5 -1.2,-0.6 -2.5,-1.2 -4.1,-1.8 0.2,-1 1,-5.5 2.3,-7.8 0.3,-0.6 0.7,-0.9 1.2,-1.1 -0.1,0 -0.1,0 0,0 z"
   id="path171"
   inkscape:connector-curvature="0"
   style="fill:#d51317" />
	<path
   d="m 73.1,111.2 c 0,0 -1,-2.8 -1,-7.4 0,-4.3 1.7,-4.4 1.8,-4.4 v 0 c 0.6,0.6 1.1,1.5 1.3,2.8 0.5,3.5 0.9,6.4 1,7.3 -1.1,0.6 -2.2,1.1 -3.1,1.7 0,0 0,0 0,0 z"
   id="path173"
   inkscape:connector-curvature="0"
   style="fill:#b02120" />
	<linearGradient
   id="SVGID_21_"
   gradientUnits="userSpaceOnUse"
   x1="116.0828"
   y1="95.953499"
   x2="127.3411"
   y2="95.953499"
   gradientTransform="translate(2,0)">
		<stop
   offset="0"
   style="stop-color:#000000"
   id="stop176" />
		<stop
   offset="0.5644"
   style="stop-color:#D01519"
   id="stop178" />
		<stop
   offset="1"
   style="stop-color:#D51317"
   id="stop180" />
	</linearGradient>
	<path
   d="m 125,89.3 c 0,0 0,-0.1 0,-0.2 2.3,0.6 4.3,4.5 4.3,7.4 v 6.2 c -1.7,0 -3.4,-0.1 -5.1,-0.1 -2.1,0 -4.1,0 -6.2,0.1 v -6.3 c 0,-2.9 1.9,-6.7 4.2,-7.4 0.1,0.1 0.1,0.2 0.1,0.2 0.2,0.3 0.9,0.4 1.4,0.4 0.1,0 0.3,0 0.3,0 0.6,0.1 0.9,0 1,-0.3 z"
   id="path182"
   inkscape:connector-curvature="0"
   style="fill:url(#SVGID_21_)" />
	<linearGradient
   id="SVGID_22_"
   gradientUnits="userSpaceOnUse"
   x1="71.657997"
   y1="116.1446"
   x2="172.8447"
   y2="116.1446"
   gradientTransform="translate(2,0)">
		<stop
   offset="0"
   style="stop-color:#000000"
   id="stop185" />
		<stop
   offset="0.5644"
   style="stop-color:#D01519"
   id="stop187" />
		<stop
   offset="1"
   style="stop-color:#D51317"
   id="stop189" />
	</linearGradient>
	<path
   d="m 77.4,112.9 c 0,0 0.1,0 0,0 0.1,0 0.1,0 0.2,-0.1 7.3,-3 24.2,-5.6 46.6,-5.6 2.4,0 4.7,0 7,0.1 0,0 0.1,0 0.1,0 0,0 0,0 0.1,0 2.4,0.1 4.7,0.2 6.9,0.3 0,0 0,0 0,0 0,0 0.1,0 0.1,0 0,0 0.1,0 0.1,0 22.1,1.1 36.2,4.9 36.2,8.5 0,4.3 -20.3,8.9 -50.6,8.9 -30.3,0 -50.6,-4.6 -50.6,-8.9 0.2,-1 1.5,-2.1 3.9,-3.2 z"
   id="path191"
   inkscape:connector-curvature="0"
   style="fill:url(#SVGID_22_)" />
	<g
   id="g193"
   transform="translate(2,0)">
		<path
   d="m 177.6,99.5 -1.6,-0.1 -0.1,-2.6 c 1.2,0.8 1.8,1.4 2.1,1.6 -0.1,0.3 -0.3,0.7 -0.4,1.1 z"
   id="path195"
   inkscape:connector-curvature="0"
   style="fill:#5a5a59" />
		<path
   d="m 122.4,89 c -0.2,0.2 -1.3,0.1 -1.5,0 -0.1,-0.2 -0.5,-1.3 -0.9,-2.5 l 0,0 c 0,-0.1 0,-0.1 -0.1,-0.2 -0.1,-0.3 -0.2,-0.6 -0.3,-0.9 0.9,0 1.8,0 2.8,0 0.3,0 0.6,0 0.9,0 -0.3,1.3 -0.8,3.4 -0.9,3.6 z"
   id="path197"
   inkscape:connector-curvature="0"
   style="fill:#5a5a59" />
		<path
   d="m 68.7,95.7 0.1,2.6 -1.4,0.4 v -2.1 c 0,0 0,-0.1 0,-0.1 0.3,-0.2 0.7,-0.5 1.3,-0.8 z"
   id="path199"
   inkscape:connector-curvature="0"
   style="fill:#5a5a59" />
	</g>
	<linearGradient
   id="SVGID_23_"
   gradientUnits="userSpaceOnUse"
   x1="63.7878"
   y1="104.7891"
   x2="187.0687"
   y2="52.459499"
   gradientTransform="translate(2,0)">
		<stop
   offset="0"
   style="stop-color:#7D7D7C"
   id="stop202" />
		<stop
   offset="0.1779"
   style="stop-color:#ACACAC"
   id="stop204" />
		<stop
   offset="0.2577"
   style="stop-color:#FFFFFF"
   id="stop206" />
		<stop
   offset="0.3926"
   style="stop-color:#CDCDCD"
   id="stop208" />
		<stop
   offset="0.8282"
   style="stop-color:#7D7D7C"
   id="stop210" />
	</linearGradient>
	<path
   d="m 188,62.2 0,0.2 c -1.1,-0.6 -2.2,-1.2 -3.4,-1.8 l 0,-0.2 3.4,1.8 z m 6.5,4.3 c -2,-1.4 -4.1,-2.8 -6.4,-4.1 l 0.1,-0.2 6.5,3.5 -0.2,0.8 z m -0.7,2.8 c -0.7,-0.5 -1.5,-1 -2.3,-1.5 0.5,-1.7 0.7,-2.4 0.7,-2.6 0.8,0.5 1.5,1 2.2,1.5 l -0.6,2.6 z m -0.7,2.9 c -0.8,-0.5 -1.6,-1 -2.4,-1.5 0,0 0,0 -0.1,-0.1 h 0 c -1.3,-0.8 -2.7,-1.6 -4.1,-2.4 l 0.8,-2.7 c 1.4,0.8 2.8,1.6 4.1,2.4 v 0 h 0 c 0.8,0.5 1.6,1.1 2.4,1.6 l -0.7,2.7 z m -0.7,2.9 c -0.8,-0.5 -1.6,-1.1 -2.5,-1.6 l 0.8,-2.6 c 0.8,0.5 1.6,1 2.4,1.6 l -0.7,2.6 z m -0.8,2.8 c -1.9,-1.2 -4.2,-2.6 -7,-4 l 0.8,-2.7 c 2.4,1.3 4.7,2.6 6.8,4.1 l -0.6,2.6 z m -0.7,2.9 c -0.8,-0.5 -1.7,-1 -2.6,-1.6 l 0.8,-2.6 c 0.9,0.5 1.8,1.1 2.6,1.6 l -0.8,2.6 z m -0.5,2.4 c -0.9,-0.6 -3.4,-2.1 -7.3,-4 l 0.7,-2.2 c 1.6,0.8 3,1.6 4.3,2.3 0,0 0,0 0.1,0.1 h 0 c 0,0 0,0 0,0 1,0.6 1.9,1.1 2.7,1.6 l -0.5,2.2 z M 56,80.8 c 0.7,-0.4 1.4,-0.9 2.2,-1.3 l 0.6,2.2 c -1.1,0.7 -1.8,1.1 -2.2,1.4 L 56,80.8 z m -0.7,-3 c 1.4,-0.8 3,-1.7 4.7,-2.7 l 0.8,2.7 c -1.7,0.9 -3.4,1.8 -4.8,2.7 l -0.7,-2.7 z m -1.5,-5.7 c 1.4,-0.9 2.8,-1.8 4.4,-2.6 l 0.8,2.7 c -1.5,0.9 -3,1.7 -4.5,2.6 l -0.7,-2.7 z m -0.7,-2.9 c 0.4,-0.3 0.8,-0.5 1.3,-0.8 l 0.8,2.6 v 0 c -0.5,0.3 -0.9,0.6 -1.4,0.9 L 53.1,69.2 z M 52.4,66.3 52.8,66 c 1,-0.7 2.1,-1.4 3.3,-2.2 l 0,0 0.8,2.7 c -1.3,0.8 -2.6,1.6 -3.9,2.4 l -0.6,-2.6 z m 58.7,-11.8 c -0.5,0 -0.9,0.1 -1.4,0.1 l -0.2,-3.1 c 0.5,0 1,-0.1 1.5,-0.1 v 3.1 z m 11.6,-7.5 0,0.3 c -1.8,0 -3.7,0 -5.5,0.1 v -0.5 l 5.5,0.1 z m 0.7,7.1 c -0.2,0 -0.4,0 -0.6,0 l 0,-3.1 c 2.3,0 4.6,0 6.9,0.1 v 3.1 c -2,-0.1 -4.1,-0.1 -6.3,-0.1 z m -6.2,-6.4 c 0.3,0 0.6,0 0.8,0 l 0,3.1 c -0.3,0 -0.5,0 -0.8,0 v -3.1 z m 1,-0.1 c 1.7,0 3.4,-0.1 5.2,-0.1 0,0 0,0 0,0 2,0 4,0.1 6,0.1 l -0.1,3.1 c -3.7,-0.1 -7.5,-0.1 -11.2,0 l 0.1,-3.1 z m 11.6,3.2 c -0.1,0 -0.1,0 -0.2,0 l 0,-3.2 c 0.1,0 0.1,0 0.1,0 v 3.2 z m 0,-3.3 c -2.1,-0.1 -4.2,-0.1 -6.4,-0.1 -0.2,0 -0.4,0 -0.5,0 V 47 l 6.9,0.1 v 0.4 z M 117.2,51 c 1.8,-0.1 3.7,-0.1 5.5,-0.1 l 0,3.1 c -1.9,0 -3.7,0 -5.5,0.1 V 51 z m 0.9,3.3 c 1.8,-0.1 3.5,-0.1 5.3,-0.1 h 0 c 2,0 4,0 5.9,0.1 l 0,3.1 c -2,-0.1 -3.9,-0.1 -5.9,-0.1 -1.8,0 -3.6,0 -5.4,0.1 0,0 0.1,0 0.1,-0.1 l 0,-3 z m 29.5,5 -0.3,3.1 c -3.9,-0.6 -8.1,-1 -12.4,-1.3 l 0.2,-3.2 c 4.2,0.4 8.4,0.8 12.5,1.4 z m 36.9,1.4 c 2.7,1.4 5.2,2.8 7.5,4.4 -0.1,0.4 -0.6,2.1 -0.7,2.6 -2.3,-1.4 -4.7,-2.8 -7.3,-4.2 l 0.5,-2.8 z m -0.6,3 c 1.1,0.6 2.1,1.1 3.1,1.7 l -0.8,2.7 c -1,-0.5 -1.9,-1 -2.9,-1.5 l 0.6,-2.9 z m -0.6,3.1 c 2.5,1.2 4.9,2.6 7.1,3.9 l -0.7,2.6 C 187,71.7 184.1,70.1 181,68.7 l 0,-0.2 1.5,0.4 c 0,0 0.1,0 0.1,0 0.1,0 0.1,0 0.2,-0.1 0.1,0 0.1,-0.1 0.1,-0.2 l 0.4,-1.8 z m -4,7.9 0.8,-2.7 c 3.4,1.5 6.3,3.1 8.7,4.5 l -0.8,2.7 c -2.3,-1.5 -5.3,-3 -8.7,-4.5 z m -5.8,0.4 0.6,-2.3 c 3.6,1.4 6.7,2.7 9.4,4.1 l -0.7,2.2 c -2.5,-1.2 -5.6,-2.6 -9.3,-4 z M 59,81.6 58.4,79.4 c 0,0 0,0 0,0 2,-1.1 4.3,-2.3 6.7,-3.4 l 0.6,2 c -2.9,1.4 -5.1,2.6 -6.7,3.6 z m -1.7,-5.2 -0.8,-2.7 c 2.1,-1.3 4.4,-2.4 6.7,-3.6 l 0.8,2.7 c 0,0 0,0 0,0 -2.5,1.3 -4.8,2.5 -6.7,3.6 z m -1.9,-5.5 -0.8,-2.6 c 2.1,-1.3 4.3,-2.5 6.6,-3.7 l 0.8,2.7 c -2.4,1.1 -4.6,2.3 -6.6,3.6 z m 1.1,-7.2 0,0 5.9,-3.2 0.6,2.9 c -2,1 -3.9,2 -5.7,3.1 l -0.8,-2.7 c 0,0 0,0 0,0 -0.1,-0.1 -0.1,-0.1 0,-0.1 z m 22,-9.3 0.6,2.6 h 0 c -1.4,0.4 -2.9,0.9 -4.3,1.4 l -0.7,-2.6 4.4,-1.4 z m 4.2,7.9 c 0,0 0,0 0,0 0.1,0 0.2,0 0.2,-0.1 l 1.4,-0.5 0.1,0.4 c -2.7,0.7 -5.3,1.5 -7.9,2.4 l -0.8,-2.8 v 0 c 1.4,-0.5 2.8,-0.9 4.2,-1.4 l 0.6,2.5 c 0,0.1 0.1,0.2 0.2,0.2 0,0 0.1,0 0.1,0 0,0 0.1,0 0.1,0 l 1.3,-0.5 0.5,-0.2 0,0 z m 11.9,-12.5 0.1,3.3 c -0.5,0.1 -1,0.2 -1.5,0.3 L 93,50.3 94.6,49.8 z m 16.5,-2 c -1.3,0.1 -2.9,0.3 -4.3,0.4 l 4.3,-0.8 v 0.4 z m -6.2,0.7 c 0.1,0.1 0.1,0.1 0,0 l 0.1,0 c 1.7,-0.2 4.1,-0.4 6.1,-0.6 V 51 c -0.5,0 -1.1,0.1 -1.6,0.1 l 0,0 c 0,0 0,0 0,0 -1.6,0.1 -3.2,0.3 -4.7,0.5 -0.1,-1.9 -0.1,-2.7 -0.2,-3.1 l 0.3,0 z m -0.5,0.2 0.1,3.1 c -1.3,0.1 -2.6,0.3 -3.9,0.5 l 0,-2.8 3.8,-0.8 z m -10.8,8 c 0,0 0,0 0,0 -0.1,0 -0.1,0 -0.1,0.1 -1.7,0.3 -3.3,0.6 -5,1 l -0.5,-3 c 2.2,-0.5 4.5,-1 6.8,-1.4 l 0.1,3.1 c -0.4,0.1 -0.9,0.2 -1.3,0.2 z m -8.9,-1.1 c 1,-0.3 2.1,-0.5 3.1,-0.8 l 0.5,3 c -1.1,0.3 -2.3,0.5 -3.4,0.8 l -0.2,-3 z m 8.1,-5.3 0.3,3.2 c -2.8,0.5 -5.7,1.2 -8.3,1.9 l -0.2,-2.9 8.2,-2.2 z m -7.9,11.2 c 0.1,-0.1 0.2,-0.2 0.2,-0.3 L 85,58.9 c 1.1,-0.3 2.3,-0.6 3.5,-0.8 l 0,0 h 0 l 0,0 c 1.6,-0.4 3.3,-0.7 5,-1 l 0.3,3 c -3.1,0.6 -6.2,1.3 -9.2,2.1 l -0.1,-0.4 0.4,-0.3 z m 13.9,-2.1 0.3,3.1 c -1.6,0.3 -3.2,0.5 -4.7,0.8 0,0 0,0 0,0 0,0 0,0 0,0 -1.6,0.3 -3.1,0.6 -4.6,0.9 l -0.5,-3.1 c 3,-0.6 6.2,-1.2 9.5,-1.7 z m 19,1.6 0,3.1 c 0,0 0,0.1 0,0.1 -2.7,0.1 -5.2,0.2 -7.7,0.4 0,0 0,0 -0.1,0 0,0 -0.1,0 -0.1,0 -1.6,0.1 -3.1,0.3 -4.6,0.4 0,-0.2 0,-0.9 -0.2,-3.1 4.1,-0.4 8.3,-0.7 12.7,-0.9 z m 5.6,0 c 2,0 3.9,0 5.8,0.1 l -0.1,3.1 c -1.9,-0.1 -3.8,-0.1 -5.8,-0.1 l 0,0 c -0.3,0 -0.5,0 -0.7,0 l 0,0 0,0 h 0 c -1.6,0 -3.2,0 -4.7,0.1 l 0,0 0,-3.1 c 1.9,-0.1 3.7,-0.1 5.5,-0.1 z m 17.7,0.9 -0.2,3.1 0,0 c -3.6,-0.4 -7.5,-0.7 -11.5,-0.8 l 0.1,-3.1 c 4,0.1 7.9,0.4 11.6,0.8 z m 21.9,0.6 -0.6,3 c -4.5,-1.2 -9.5,-2.3 -14.9,-3.1 l 0.3,-3.1 c 5.3,0.8 10.4,1.9 15.2,3.2 z M 135.9,51.1 V 48 c 2.1,0.1 4.1,0.3 6.2,0.6 l -0.2,3.1 c -2,-0.2 -4,-0.4 -6,-0.6 z m 6.1,-2.7 c -2,-0.2 -4.1,-0.4 -6.1,-0.6 v -0.6 l 6.1,1.2 z m 0.3,0.2 c 0.8,0.1 1.6,0.2 2.5,0.3 l 1.6,0.3 0,3 C 145,52 143.6,51.8 142.1,51.7 l 0.2,-3.1 z m 13.4,1.9 c -1.1,-0.2 -2.3,-0.5 -3.4,-0.7 v -0.2 l 3.4,0.9 z m 16.4,4.9 -0.7,2.8 c -1.2,-0.4 -2.5,-0.9 -3.7,-1.2 l 0.6,-2.8 3.8,1.2 z m 4.4,11.4 c -2,-0.8 -4.1,-1.6 -6.3,-2.3 l 0.7,-2.9 c 2.1,0.7 4.2,1.5 6.2,2.3 l -0.6,2.9 z m -7.7,3.9 0.7,-2.9 c 3.9,1.3 7.4,2.7 10.5,4.1 l -0.8,2.7 c -3.1,-1.3 -6.6,-2.6 -10.4,-3.9 z m -6.9,-2 c 0,0 0,0 0,0 -0.1,0 -0.1,0 -0.1,0 -2.1,-0.6 -4.3,-1.1 -6.6,-1.5 0.1,-0.2 0.2,-1 0.5,-3 5,1 9.5,2.3 13.6,3.6 l -0.7,2.9 c -2.1,-0.7 -4.3,-1.3 -6.7,-2 z m 0.7,-3.1 0.6,-3 c 4.3,1.2 8.4,2.5 12.4,4.1 l -0.8,2.8 c -3.6,-1.4 -7.7,-2.7 -12.2,-3.9 z m 5.1,-8.4 c 3.3,1 6.5,2.2 9.6,3.5 l -0.8,2.8 c -1.8,-0.7 -3.7,-1.4 -5.6,-2.1 0,0 0,0 0,0 0,0 -0.1,0 -0.1,0 -1.2,-0.4 -2.5,-0.9 -3.8,-1.2 l 0.7,-3 z m 9.4,6.5 c -0.1,0 -0.3,-0.1 -0.4,-0.1 l 0.8,-2.8 c 0.1,0 0.1,0 0.2,0.1 l -0.6,2.8 z m 0.6,-3.1 c -0.1,0 -0.1,0 -0.2,-0.1 0,0 0,0 -0.1,0 0,0 0,0 0,0 -1.9,-0.8 -3.8,-1.5 -5.8,-2.2 l 0.7,-2.9 6.1,1.9 -0.7,3.3 z M 152.3,50.1 c 1.7,0.3 3.3,0.7 5,1 l -0.4,3 c -1.6,-0.3 -3.1,-0.6 -4.7,-0.9 l 0.1,-3.1 z m 5.1,1 c 1.7,0.4 3.4,0.8 5,1.2 l -0.2,3.1 C 160.5,55 158.8,54.5 157,54.2 l 0.4,-3.1 z m -5.3,2.3 c 3.4,0.6 6.8,1.4 10.1,2.2 l -0.2,3.1 c -3.2,-0.8 -6.6,-1.6 -10,-2.2 l 0.1,-3.1 z m 9.9,5.5 -0.1,2.1 c 0,0.1 0.1,0.3 0.2,0.3 l 2.7,0.9 1.4,0.5 c 0,0 0.1,0 0.1,0 0,0 0.1,0 0.1,0 0.1,0 0.2,-0.1 0.2,-0.2 l 0.5,-2.3 c 1.2,0.4 2.4,0.8 3.7,1.2 l -0.7,2.9 c -2.2,-0.7 -4.5,-1.5 -6.8,-2.1 0,0 0,0 -0.1,0 l 0,0 c -2.3,-0.6 -4.6,-1.2 -7,-1.7 l 0.4,-3 c 1.8,0.5 3.6,0.9 5.4,1.4 z m -6.5,5.2 c -0.1,0.6 -0.4,2.7 -0.5,3 -2.5,-0.5 -5.2,-1 -7.9,-1.4 0,0 0,0 0,0 0,0 0,0 0,0 -1.9,-0.3 -3.9,-0.5 -5.9,-0.8 0,0 0,0 0,0 l 0.2,-3.1 c 5,0.6 9.7,1.4 14.1,2.3 z m -50.3,0.9 0,0 0,0 0,0 z m -0.3,-3 c 0.1,1.2 0.2,3 0.2,3.1 -3.6,0.4 -7.1,0.9 -10.4,1.5 l -0.3,-3 c 3.4,-0.7 6.9,-1.2 10.5,-1.6 z m -26.7,8.6 -0.8,-2.8 c 2.4,-0.8 5,-1.5 7.7,-2.2 0.1,0.5 0.5,2.4 0.6,2.9 -2.7,0.7 -5.1,1.4 -7.5,2.1 z m -9.6,3.6 c 0,0 0,0 0,0 l -0.8,-2.7 c 2.8,-1.2 5.9,-2.4 9.4,-3.5 l 0.8,2.8 c -3.4,1 -6.5,2.2 -9.4,3.4 z m -6.5,-7.1 -0.8,-2.7 c 0.5,-0.3 1.1,-0.6 1.6,-0.8 l 0.6,2.8 c -0.5,0.3 -0.9,0.5 -1.4,0.7 z m 8.2,0.4 0,0 c 0.1,0 0.1,0 0.1,-0.1 0,0 0,0 0,0 0,0 0,0 0,0 0,-0.1 0,-0.1 0,-0.1 0,0 0,-0.1 0,-0.1 0,0 0,-0.1 0,-0.1 0,0 0,0 0,0 l 0,-0.2 c 0.1,0 0.2,-0.1 0.3,-0.1 l 0.8,2.8 c 0,0 0,0 0.1,0 -2.7,1 -5.2,2.1 -7.4,3.2 0,0 0,0 0,0 l -0.8,-2.7 c 1.1,-0.5 2.1,-1 3.2,-1.5 l 3.7,-1.1 z m 8.2,-10.1 0.7,2.8 c 0,0 0.1,0 0.1,0 -3.1,1 -6.1,2 -9.1,3.2 l -0.8,-2.8 0,0 c 3,-1.1 6,-2.2 9.1,-3.2 z m 0.7,-0.2 0.7,2.9 c -0.1,0 -0.3,0.1 -0.4,0.1 0,0 0,-0.1 0,-0.1 l -0.7,-2.8 c 0.1,0 0.2,0 0.4,-0.1 l 0,0 z m -10,3.6 0.8,2.8 c -0.1,0 -0.2,0.1 -0.3,0.1 l -0.5,-2.9 0,0 z m 6.3,0.9 0.8,2.9 c -2,0.7 -4,1.4 -5.9,2.2 l -0.6,-2.9 c 1.9,-0.8 3.8,-1.5 5.7,-2.2 z m 13.5,-0.5 0.5,3.1 c -1.5,0.3 -3,0.7 -4.4,1 l 0,0 c 0,0 -0.1,0 -0.1,0 -1.4,0.3 -2.7,0.7 -4,1.1 l -0.7,-3 C 83.1,62.7 86,61.9 89,61.2 z m -8.9,2.4 0.8,3 c -3.3,1 -6.3,2 -9.1,3.1 0,0 0,0 0,0 L 71,66.9 c 2.9,-1.3 6,-2.3 9.1,-3.3 z m 5.8,4.9 c -0.4,-1.9 -0.5,-2.6 -0.6,-2.9 2.8,-0.7 5.8,-1.4 9,-2 l 0.3,3 0,0 c -3.1,0.5 -6,1.1 -8.7,1.9 z M 74,55.8 l 0.7,2.6 c -1.9,0.7 -3.7,1.4 -5.5,2.1 l -0.6,-3 5.4,-1.7 z M 63.6,66.7 64,69 c 0,0.1 0.1,0.2 0.1,0.2 0.1,0 0.1,0.1 0.2,0.1 0,0 0.1,0 0.1,0 l 0.7,-0.2 c -0.6,0.3 -1.3,0.6 -1.9,0.9 h 0 l 0,0 c -1.4,0.7 -2.7,1.4 -4.1,2.1 l -0.8,-2.7 v 0 c 1.7,-1 3.5,-1.9 5.3,-2.7 z m 4,4.8 0.8,2.7 0,0 c -2.7,1.2 -5.2,2.4 -7.5,3.5 L 60.1,75 c 2.2,-1.1 4.7,-2.3 7.5,-3.5 z m -1.7,6.4 -0.6,-2 c 2.3,-1.1 4.8,-2.1 7.5,-3.1 l 0.6,2 c -2.9,1 -5.3,2.1 -7.5,3.1 z M 73.5,74.6 73,72.7 c 1.6,-0.6 3.4,-1.2 5.2,-1.8 l 0,0 h 0 l 0,0 c 1.1,-0.4 2.3,-0.7 3.5,-1.1 l 0.4,1.9 c -3.2,1 -6,2 -8.6,2.9 z m 8.7,-2.9 -0.4,-1.9 c 2.6,-0.8 5.4,-1.5 8.3,-2.1 0,0 0,0.1 0,0.1 l 0.3,1.8 c -2.9,0.6 -5.6,1.3 -8.2,2.1 z m 8.4,-2.2 -0.3,-1.8 c 0,-0.1 0,-0.1 -0.1,-0.1 2.9,-0.6 6,-1.2 9.3,-1.7 l 0.1,1.8 c -3.1,0.6 -6.1,1.2 -9,1.8 z M 99.9,67.8 99.7,66 c 3.2,-0.5 6.6,-0.9 10.2,-1.1 l 0.1,1.8 c -3.6,0.2 -6.9,0.6 -10.1,1.1 z m 10.3,-1.2 -0.1,-1.8 c 4,-0.3 8.1,-0.5 12.5,-0.5 l 0,1.8 c -0.1,0 -0.1,0 -0.2,0 -4.3,0 -8.4,0.2 -12.2,0.5 z m 12.6,-2.3 c 0.2,0 0.4,0 0.6,0 2,0 3.9,0 5.9,0.1 h 0 l 0,0 h 0 c 1.7,0.1 3.4,0.1 5.1,0.2 l -0.1,1.9 C 130.6,66.2 126.8,66 122.8,66 l 0,-1.7 z m 11.8,0.4 c 4.4,0.3 8.5,0.7 12.3,1.3 l -0.2,2.1 c -3.9,-0.6 -7.9,-1.1 -12.2,-1.5 l 0.1,-1.9 z m 12.6,1.3 c 5.3,0.8 10.2,1.8 14.6,2.9 l -0.5,2.3 C 157,70 152.2,68.9 147,68.1 l 0.2,-2.1 z m 14.7,3 c 4.4,1.1 8.4,2.4 12,3.8 l -0.7,2.3 c -3.5,-1.3 -7.4,-2.6 -11.8,-3.8 l 0.5,-2.3 z m 18.2,2.7 0,0 0,0 C 178.5,71 176.8,70.3 175,69.6 h 0 l 0.8,-2.8 c 0.2,0.1 0.4,0.2 0.6,0.2 0,0 0,0 0,0 0,0 0,0 0,0 0,0 0,0 0,0.1 0,0 0,0 0.1,0 0,0 0,0 0,0 0,0 0,0 0.1,0.1 l 0,0 1.6,0.5 c 2.5,1 4.8,2.2 7.1,3.4 l -0.8,2.7 c -1.4,-0.7 -2.8,-1.4 -4.4,-2.1 z m 0.7,-3 c -0.3,-0.1 -0.6,-0.3 -0.8,-0.4 l 0.9,0.3 -0.1,0.1 z M 135.9,51.3 c 2,0.2 4,0.3 6,0.6 0,0 0,0 0.1,0 l 0,0 c 0,0 0,0 0.1,0 1.5,0.2 2.9,0.4 4.3,0.6 l 0,3.1 c -3.4,-0.5 -6.9,-0.8 -10.5,-1.1 v -3.2 z m 10.4,4.5 0,2.4 0,0 c 0,0.1 0,0.1 0.1,0.2 h 0 c 0,0.1 0.1,0.1 0.2,0.1 l 0,0 3.1,0.4 c 0,0 0.1,0 0.1,0 0,0 0,0 0.1,0 l 1.8,0.3 c 0,0 0,0 0,0 0.1,0 0.1,0 0.2,-0.1 C 152,59 152,59 152,58.9 l 0.1,-2.1 c 1.5,0.3 2.9,0.5 4.4,0.8 l -0.4,3 c -4.7,-1 -9.5,-1.7 -14.5,-2.3 0.1,-0.2 0.1,-0.9 0.3,-3.1 1.4,0.2 2.9,0.4 4.4,0.6 z m -11.7,5.3 c -3.6,-0.2 -7.3,-0.4 -11.2,-0.4 -0.2,0 -0.4,0 -0.6,0 l 0,0 c 0,-0.1 0,-2.2 0,-3.1 0.2,0 0.4,0 0.6,0 3.9,0 7.7,0.1 11.4,0.4 l -0.2,3.1 z m -12,-3.5 c 0,0.4 0,3 0,3.1 0,0 0,0 0,0 -1.6,0 -3.2,0 -4.7,0.1 l 0,0 c 0,0 0,0 -0.1,0 -2.7,0.1 -5.4,0.2 -8,0.4 l -0.1,-3.1 c 4.3,-0.3 8.5,-0.5 12.9,-0.5 z m -13,0.6 0.1,3.1 c -3.6,0.3 -7.1,0.7 -10.4,1.2 L 99,59.4 c 1.9,-0.3 4,-0.5 6,-0.8 l 0,0 h 0 c 0,0 0.1,0 0.1,0 1.4,-0.2 2.9,-0.3 4.5,-0.4 z M 94,60 93.7,57 c 0.4,-0.1 0.8,-0.2 1.2,-0.2 L 95,59 c 0,0.1 0,0.2 0.1,0.2 0,0 0.1,0.1 0.2,0.1 0,0 0,0 0,0 l 1.8,-0.2 c 0,0 0,0 0.1,0 0,0 0,0 0,0 l 3.2,-0.4 0,0 c 0.1,0 0.1,-0.1 0.2,-0.1 0,0 0,0 0,0 0.1,0 0.1,-0.1 0.1,-0.2 v 0 l 0,-2.5 c 1.3,-0.2 2.7,-0.4 4.1,-0.5 l 0.2,3.1 c -3.9,0.3 -7.4,0.8 -11,1.5 z m 6.6,-4.4 0,-3.1 c 2.9,-0.4 5.8,-0.7 8.8,-1 l 0.2,3.1 c -3.1,0.3 -6.1,0.6 -9,1 z m -48.3,10.3 1.8,-1 c -0.5,0.3 -0.9,0.6 -1.4,0.9 l -0.4,0.3 0,-0.2 z m 4,8 0.8,2.7 c -0.7,0.4 -1.3,0.7 -1.9,1.1 L 54.5,75 c 0.6,-0.4 1.2,-0.8 1.8,-1.1 z m 77.8,-17 0,0 0,0 h 1.4 c 0.2,0 0.3,-0.1 0.3,-0.3 v -1.9 c 1.9,0.1 3.8,0.3 5.7,0.5 l -0.3,3.1 0,0 c -2.1,-0.2 -4.2,-0.4 -6.3,-0.6 0,0 0,0 -0.1,0 0,0 0,0 -0.1,0 -1.8,-0.1 -3.5,-0.2 -5.3,-0.3 l 0,-3.1 c 0.1,0 0.1,0 0.2,0 v 2 c 0,0.2 0.1,0.3 0.3,0.3 l 4.2,0.3 z m -17.2,-0.2 c 0.2,0 0.3,-0.1 0.3,-0.3 0,0 0,-0.1 0,-0.1 0,0 0,-0.1 0,-0.1 v -1.8 c 0.3,0 0.5,0 0.7,0 l 0,3.1 c 0,0 0,0 0,0 -4.4,0.2 -8.6,0.5 -12.8,0.9 l -0.2,-3.1 c 1.5,-0.2 3.1,-0.3 4.7,-0.4 0,0 0,0 0.1,0 h 0 c 0,0 0,0 0.1,0 0.5,0 0.9,-0.1 1.4,-0.1 v 2 c 0,0.1 0,0.2 0.1,0.3 0.1,0 0.1,0.1 0.2,0.1 0,0 0,0 0,0 l 1.4,-0.2 4,-0.3 z m -41.6,37.4 0,0 0,0 c 1.2,-0.4 2.5,-0.8 3.7,-1.2 l 0.8,2.9 c -1.2,0.4 -2.4,0.7 -3.6,1.1 0,0 0,0 0,0 -1,-1 -2.1,-1.7 -3,-2.1 0.7,-0.2 1.4,-0.4 2.1,-0.7 z m 11.6,-3.4 c 0,0.1 0.2,0.6 0.4,1.4 l 0.4,1.6 c -1,0.2 -2,0.5 -3,0.7 0,0 0,0 -0.1,0 0,0 0,0 0,0 -1.5,0.4 -3,0.8 -4.5,1.3 l -0.8,-2.9 c 2.4,-0.7 5,-1.4 7.6,-2.1 z m 7.2,-1.5 0.6,3 c -2.3,0.4 -4.5,0.9 -6.8,1.4 L 87.5,92 c -0.3,-0.9 -0.3,-1.3 -0.4,-1.4 2.3,-0.5 4.6,-1 7,-1.4 z m 3.6,-0.6 0,0 0,0 0,0 c 1.3,-0.2 2.5,-0.4 3.8,-0.6 l 0.3,3.1 c -1.2,0.1 -2.4,0.3 -3.6,0.5 0,0 0,0 -0.1,0 0,0 0,0 0,0 -1.1,0.2 -2.1,0.3 -3.2,0.5 L 94.4,89 c 1,0 2.1,-0.3 3.3,-0.4 z m 13.1,-1.6 0.1,3.1 c -1.5,0.1 -2.9,0.3 -4.4,0.4 0,0 -0.1,0 -0.1,0 0,0 -0.1,0 -0.1,0 -1.5,0.1 -3,0.3 -4.5,0.5 l -0.2,-3 c 3,-0.4 6.1,-0.7 9.2,-1 z m 9.1,-0.4 c -1.3,0.6 -2.5,1.8 -3.5,3.2 -1.8,0.1 -3.6,0.2 -5.3,0.3 L 111,87 c 2.9,-0.2 5.9,-0.3 8.9,-0.4 z m 13.4,0.3 -0.2,3.1 c -0.7,0 -1.4,-0.1 -2.2,-0.1 -1,-1.4 -2.3,-2.6 -3.5,-3.2 2.1,0 4,0 5.9,0.2 z m 6.4,0.4 0,0 c 0,0 0,0 0,0 l 0,0 c 1.7,0.1 3.4,0.3 5.1,0.5 l -0.3,3.1 c -1.6,-0.2 -3.2,-0.4 -4.9,-0.5 0,0 0,0 0,0 0,0 0,0 0,0 -2,-0.2 -4,-0.3 -6.1,-0.4 l 0.2,-3.2 c 1.9,0.2 4,0.3 6,0.5 z m 17.8,2.8 -0.6,3 C 155,92.7 153.1,92.3 151.2,92 l 0,0 v 0 c -2.2,-0.4 -4.4,-0.7 -6.6,-1 l 0.3,-3.1 c 4.3,0.6 8.5,1.3 12.6,2.2 z m 10.7,2.9 -0.8,2.9 c -3.3,-1 -6.7,-1.9 -10.2,-2.7 l 0.6,-3 c 3.5,0.8 7,1.7 10.4,2.8 z m 4.1,1.4 -0.9,2.8 c -1.3,-0.4 -2.5,-0.9 -3.8,-1.2 l 0.8,-2.9 c 1.3,0.4 2.6,0.9 3.9,1.3 z m -86.1,6.3 0,0 c -1.5,0.4 -3,0.8 -4.5,1.2 L 80.9,99 c 2.5,-0.7 5,-1.4 7.6,-2 l 0.3,1.5 c 0.1,0.5 0.3,1 0.4,1.5 -0.9,0.2 -2,0.5 -3,0.7 l 0,0 z m 5.1,-7.6 0.6,3 c -2.2,0.4 -4.3,0.9 -6.4,1.5 l -0.7,-3 c 2.1,-0.5 4.2,-1.1 6.5,-1.5 z M 98,91.9 98.4,95 c -1,0.1 -2,0.3 -3,0.5 0,0 0,0 -0.1,0 0,0 0,0 -0.1,0.1 -1.1,0.2 -2.1,0.4 -3.2,0.6 l -0.6,-3 c 2.2,-0.6 4.4,-1 6.6,-1.3 z m 8.3,-1.1 c 0,0.3 0.1,1 0.2,3.1 -2.7,0.3 -5.3,0.6 -7.9,1 l -0.4,-3.1 c 2.7,-0.4 5.4,-0.8 8.1,-1 z m 10,-0.7 c -0.6,1 -1.2,2.1 -1.4,3.2 -1.2,0 -2.5,0.1 -3.7,0.2 h 0 0 c -1.5,0.1 -2.9,0.3 -4.4,0.4 l -0.1,-3.1 c 3.1,-0.4 6.3,-0.6 9.6,-0.7 z m -4.7,13 -0.1,-2.7 c 1,-0.1 2.1,-0.1 3.1,-0.2 v 2.8 c -1,0 -2,0 -3,0.1 z m -8.6,0.6 -0.2,-2.5 c 2.8,-0.4 5.6,-0.6 8.5,-0.8 l 0.1,2.7 c -2.9,0.2 -5.7,0.4 -8.4,0.6 z m -6,0.7 -0.4,-2.3 c 2,-0.3 4,-0.6 6,-0.9 l 0.2,2.5 c -2,0.2 -3.9,0.5 -5.8,0.7 z m -6.1,1 -0.5,-2.1 c 2,-0.4 4,-0.8 6,-1.2 l 0.4,2.3 c -2,0.3 -4,0.6 -5.9,1 z m 1.9,-6.1 0,0 c -1.1,0.2 -2.2,0.4 -3.3,0.7 -0.1,-0.5 -0.3,-1 -0.4,-1.5 L 88.7,97 c 2.1,-0.5 4.3,-0.9 6.5,-1.3 l 0.5,3 c -0.9,0.2 -1.9,0.4 -2.9,0.6 0,0 0,0 0,0 z m 9.2,-4.7 0.3,3.1 c -1.1,0.2 -2.3,0.3 -3.4,0.5 0,0 0,0 -0.1,0 0,0 0,0 -0.1,0.1 -0.9,0.1 -1.9,0.3 -2.8,0.4 l -0.5,-3.1 c 2.2,-0.4 4.4,-0.7 6.6,-1 z m 9,-0.9 0.1,3.1 c -1.4,0.1 -2.9,0.3 -4.3,0.4 0,0 -0.1,0 -0.1,0 0,0 -0.1,0 -0.1,0.1 -1.4,0.1 -2.8,0.3 -4.2,0.5 0,-0.2 -0.1,-0.8 -0.3,-3.1 3,-0.5 5.9,-0.8 8.9,-1 z m 3.6,6.3 c -1.1,0.1 -2.1,0.1 -3.2,0.2 l 0,0 c 0,0 0,0 0,0 -1.4,0.1 -2.9,0.2 -4.3,0.4 l -0.2,-3.1 c 2.6,-0.3 5.1,-0.5 7.7,-0.6 v 3.1 z m -11.9,1 c 0,0 0,0 0,0 -0.1,0 -0.1,0 -0.1,0 -1.1,0.1 -2.2,0.3 -3.3,0.4 l -0.4,-3 c 2.5,-0.4 5.1,-0.7 7.7,-1 0,0.3 0.1,1 0.2,3.1 -1.3,0.2 -2.7,0.3 -4.1,0.5 z m 11.9,-6 v 1.6 c -1.1,0.1 -2.2,0.1 -3.2,0.2 l -0.1,-3.1 c 1.2,-0.1 2.3,-0.2 3.5,-0.2 -0.1,0.5 -0.2,1 -0.2,1.5 z m -15.8,3.4 0.4,3.1 c -0.9,0.1 -1.8,0.3 -2.6,0.4 0,0 0,0 -0.1,0 0,0 0,0 0,0 -1,0.1 -1.9,0.3 -2.9,0.5 l -0.6,-3 c 1.8,-0.3 3.8,-0.7 5.8,-1 z m -6.1,1.1 0.6,3 c -2.1,0.4 -4.2,0.8 -6.2,1.4 L 86.3,101 c 2.1,-0.6 4.3,-1.1 6.4,-1.5 z m -2.5,3.9 0.5,2.1 c -2.7,0.5 -5.3,1.1 -7.6,1.7 l -0.5,-1.9 c 2.5,-0.8 5,-1.4 7.6,-1.9 z m 49.2,-12.7 -0.2,3.1 c -2,-0.2 -4,-0.4 -6.1,-0.5 l 0,0 0,0 c -0.2,0 -0.3,0 -0.5,0 -0.3,-1.1 -0.8,-2.2 -1.4,-3.2 2.7,0.1 5.5,0.3 8.2,0.6 z m 11.7,1.5 -0.5,3 c -2.1,-0.4 -4.2,-0.7 -6.4,-1 0,0 0,0 0,0 0,0 -0.1,0 -0.1,0 -1.6,-0.2 -3.1,-0.4 -4.7,-0.5 l 0.2,-3.1 c 3.9,0.5 7.7,1 11.5,1.6 z m 5.8,1.2 c 0,0 0.1,0 0,0 l 0,0 c 0.1,0 0.1,0 0,0 1.9,0.4 3.8,0.9 5.6,1.4 l -0.8,2.9 c -3.6,-0.9 -7.2,-1.7 -11,-2.4 l 0.5,-3.1 c 2,0.4 3.9,0.8 5.7,1.2 z m 4.3,7.4 c 0,0 0,0 0,0 -0.1,-0.1 -0.1,-0.1 -0.1,-0.1 -1.7,-0.4 -3.5,-0.8 -5.3,-1.2 l 0.6,-3 c 3.4,0.7 6.7,1.6 9.9,2.6 l -0.8,2.9 c -1.4,-0.4 -2.8,-0.8 -4.3,-1.2 z m -6.4,4.1 0.4,-1.9 c 3.3,0.7 6.4,1.4 9.5,2.3 -0.2,0.8 -0.3,1.2 -0.4,1.5 -2.9,-0.7 -6.1,-1.3 -9.5,-1.9 z m -11.5,-1.4 0.3,-2.4 c 3.9,0.5 7.7,1.1 11.4,1.8 l -0.4,1.9 c -3.5,-0.5 -7.3,-0.9 -11.3,-1.3 z m 0.7,-9 -0.3,3.1 c -1.5,-0.2 -3.1,-0.3 -4.6,-0.5 l 0,0 c 0,0 0,0 0,0 -2,-0.2 -4,-0.4 -6,-0.5 l 0.2,-3.1 c 3.6,0.3 7.2,0.6 10.7,1 z m 6.6,1 0,0 0,0 0,0 c 1.9,0.3 3.8,0.7 5.6,1 l -0.6,3 c -1.8,-0.4 -3.5,-0.7 -5.4,-1 0,0 -0.1,-0.1 -0.1,-0.1 0,0 0,0 -0.1,0 -2,-0.4 -4.1,-0.6 -6.2,-0.9 l 0.3,-3.1 c 2.3,0.4 4.4,0.7 6.5,1.1 z m -17.8,0.9 V 95 c 0,-0.5 -0.1,-1 -0.1,-1.5 0.1,0 0.2,0 0.3,0 l -0.2,2.9 z m 0,0.5 c 2.1,0.1 4.1,0.3 6.1,0.5 l -0.2,3.1 c -2,-0.2 -3.9,-0.3 -5.9,-0.4 v -3.2 z m 6.4,0.4 c 3.7,0.4 7.3,0.8 10.9,1.4 l -0.5,3.1 c -2,-0.3 -4,-0.6 -6.1,-0.9 0,0 0,0 -0.1,0 0,0 0,0 0,0 -1.4,-0.2 -3,-0.3 -4.4,-0.5 l 0.2,-3.1 z m 15.9,5.5 c 0,0 0,0 0,0 -0.1,-0.1 -0.1,0 -0.1,0 -1.7,-0.3 -3.5,-0.7 -5.2,-1 l 0.5,-3.1 c 1.8,0.3 3.6,0.6 5.4,1 h 0 c 0,0 0,0 0,0 h 0 c 1.8,0.4 3.5,0.8 5.3,1.2 -0.5,2 -0.7,2.7 -0.7,2.9 -1.7,-0.3 -3.4,-0.6 -5.2,-1 z m -22.3,-2.6 c 3.6,0.2 7.1,0.5 10.5,0.9 l -0.3,2.4 c -3.3,-0.3 -6.7,-0.5 -10.3,-0.6 v -2.7 z m 31.6,6.7 c 0.1,-0.3 0.2,-0.8 0.4,-1.5 1,0.3 2,0.6 2.9,0.9 -0.2,0.6 -0.3,1.2 -0.4,1.5 -0.9,-0.3 -1.9,-0.6 -2.9,-0.9 z m 3.4,-0.9 c -2.4,-0.7 -4.8,-1.4 -7.3,-2 0.1,-0.4 0.6,-2.4 0.7,-2.9 2.5,0.6 4.9,1.3 7.3,2.1 -0.3,1 -0.5,2 -0.7,2.8 z m 0.8,-3 c -0.9,-0.3 -1.9,-0.6 -2.8,-0.9 l 0.8,-2.9 c 1,0.3 1.9,0.6 2.8,0.9 -0.2,0.8 -0.5,1.8 -0.8,2.9 z m 1.1,-3.7 c -0.1,0.2 -0.1,0.4 -0.2,0.6 -1,-0.3 -1.9,-0.6 -2.9,-0.9 h 0 0 c -1.5,-0.4 -3,-0.9 -4.5,-1.3 l 0.7,-2.9 c 1.5,0.4 3,0.9 4.6,1.3 l 0,0 c 0,0 0,0 0,0 0,0 0,0 0,0 1.3,0.4 2.5,0.8 3.8,1.2 -0.6,0.6 -1.2,1.3 -1.5,2 z m 2,-2.3 0.9,-2.6 c 1.2,0.4 2.3,0.9 3.4,1.3 -1.7,0.1 -3.2,0.5 -4.3,1.3 z m -87.2,-2.3 0.7,2.9 c -1.5,0.4 -3,0.8 -4.5,1.2 l 0,0 0,0 c -1,0.3 -2.1,0.6 -3.1,0.9 0,-0.1 0,-0.2 -0.1,-0.3 -0.3,-0.9 -0.7,-1.7 -1.3,-2.4 2.8,-0.8 5.5,-1.6 8.3,-2.3 z m -3.8,4.4 0.7,2.9 c -1,0.3 -2,0.6 -3.1,1 -0.2,-1 -0.4,-2 -0.6,-2.9 1,-0.4 2,-0.7 3,-1 z m 5.4,1.9 0.8,2.9 c -1.5,0.4 -3,0.8 -4.5,1.2 l 0,0 c 0,0 0,0 0,0 -1,0.3 -2.1,0.6 -3.1,0.9 l -0.9,-2.7 c 0,-0.1 0,-0.1 0,-0.2 2.6,-0.8 5.1,-1.5 7.7,-2.1 z m -6.9,5 c -0.1,0 -0.1,0 -0.2,0.1 -0.1,-0.4 -0.1,-0.9 -0.2,-1.3 l 0.4,1.2 z m 3.2,-0.7 0.5,1.9 c -1.3,0.4 -2.5,0.7 -3.7,1.2 0,-0.5 -0.1,-1.2 -0.3,-2.1 1.2,-0.4 2.4,-0.7 3.5,-1 z m 97.1,-5.1 c -0.1,0.3 -0.1,0.6 -0.2,0.9 -0.1,-0.4 -0.3,-0.7 -0.4,-0.9 l 0.6,0 z m -6.9,-5.9 0.1,-0.3 c 1.1,0.5 2.1,1 2.9,1.5 -1,-0.5 -2,-0.8 -3,-1.2 z m -0.2,-0.1 c -1.3,-0.5 -2.7,-0.9 -4,-1.4 v 0 h 0 c -1.6,-0.5 -3.1,-0.9 -4.7,-1.4 l 0.2,-1 c 3.5,1.1 6.4,2.3 8.7,3.4 l -0.2,0.4 z m -9,-2.8 c -3.7,-1 -7.6,-1.9 -11.6,-2.6 l 0.2,-1.2 c 4.5,0.8 8.3,1.8 11.6,2.8 0,0.3 -0.1,0.5 -0.2,1 z m -11.8,-2.7 c -3.8,-0.7 -7.8,-1.2 -11.8,-1.6 l 0.1,-1.1 c 4.4,0.4 8.3,0.9 11.9,1.6 l -0.2,1.1 z m -12,-1.6 c -3.5,-0.3 -7.1,-0.5 -10.7,-0.7 l 0,-1 c 3.9,0.1 7.4,0.3 10.8,0.6 l -0.1,1.1 z m -11,-0.6 c -0.6,0 -1.1,0 -1.7,0 -0.4,-0.1 -0.8,-0.3 -1.2,-0.3 0.1,-0.3 0.1,-0.6 0.2,-0.7 0.9,0 1.8,0 2.7,0 l 0,1 z M 121,85.4 c 0.1,0.2 0.1,0.4 0.3,0.8 -0.3,0 -0.5,0.1 -0.8,0.2 l 0,0 c -1,0 -2,0 -3,0.1 l 0,-1 c 1.2,0 2.3,0 3.5,-0.1 z m -3.7,1.1 c -3.7,0.1 -7.3,0.4 -10.9,0.7 l 0,-1 c 3.4,-0.3 7.1,-0.6 11,-0.7 v 1 z m -11.2,-0.2 0.1,1 c -2.9,0.3 -5.7,0.7 -8.4,1.1 l -0.1,-1 c 2.5,-0.5 5.4,-0.8 8.4,-1.1 z m -8.7,1.1 0.1,1 c -2.3,0.4 -4.7,0.8 -6.9,1.3 l -0.2,-0.9 c 2.2,-0.5 4.5,-1 7,-1.4 z m -7.2,1.4 0.2,0.9 c -2.2,0.5 -4.5,1 -6.6,1.6 l -0.2,-0.8 c 2,-0.6 4.1,-1.2 6.6,-1.7 z m -6.8,1.7 0.2,0.8 c -2.8,0.8 -5.6,1.6 -8.2,2.5 l -0.1,-0.4 c 2.1,-0.9 4.8,-1.9 8.1,-2.9 z M 75,93.6 75.1,94 c -0.8,0.3 -1.5,0.5 -2.3,0.8 -0.1,0 -0.2,-0.1 -0.3,-0.1 0.9,-0.4 1.7,-0.7 2.5,-1.1 z m -6.3,5 C 68.4,98.7 68.2,99 68,99.2 67.9,98.6 67.8,98 67.7,97.6 c 0.2,-0.1 0.5,-0.4 1,-0.7 v 1.7 z"
   id="path212"
   inkscape:connector-curvature="0"
   style="fill:url(#SVGID_23_);stroke:#000000;stroke-width:0.01801338" />
	<g
   id="g214"
   transform="translate(2,0)">
		<linearGradient
   id="SVGID_24_"
   gradientUnits="userSpaceOnUse"
   x1="170.73689"
   y1="112.6205"
   x2="176.1633"
   y2="114.5955">
			<stop
   offset="0"
   style="stop-color:#DADADA"
   id="stop217" />
			<stop
   offset="1"
   style="stop-color:#504F4E"
   id="stop219" />
		</linearGradient>
		<path
   d="m 176,114.8 c 0,0.4 -0.2,0.7 -0.4,0.8 -0.6,0.4 -1.8,-0.1 -2.2,-0.3 -0.1,0 -0.1,0 -0.1,0 -0.4,-0.9 -1.3,-1.7 -2.7,-2.4 0.4,0 0.8,-0.2 1.1,-0.5 0.3,-0.3 0.5,-0.6 0.5,-1 2,1.1 3.3,2.2 3.8,3.4 z"
   id="path221"
   inkscape:connector-curvature="0"
   style="fill:url(#SVGID_24_)" />
		<linearGradient
   id="SVGID_25_"
   gradientUnits="userSpaceOnUse"
   x1="68.942299"
   y1="113.4607"
   x2="71.576599"
   y2="114.4195">
			<stop
   offset="0"
   style="stop-color:#DADADA"
   id="stop224" />
			<stop
   offset="1"
   style="stop-color:#504F4E"
   id="stop226" />
		</linearGradient>
		<path
   d="m 68.1,116.2 c 0,-1.7 1.5,-3.3 4.2,-4.8 -0.3,4.2 -3.3,5.1 -4.2,5.2 0.1,-0.2 0,-0.3 0,-0.4 z"
   id="path228"
   inkscape:connector-curvature="0"
   style="fill:url(#SVGID_25_)" />
		<linearGradient
   id="SVGID_26_"
   gradientUnits="userSpaceOnUse"
   x1="73.140198"
   y1="110.708"
   x2="76.736298"
   y2="112.0169">
			<stop
   offset="0"
   style="stop-color:#DADADA"
   id="stop231" />
			<stop
   offset="1"
   style="stop-color:#504F4E"
   id="stop233" />
		</linearGradient>
		<path
   d="m 73,111 c 1.3,-0.7 3,-1.3 4.8,-2 -0.5,1.7 -1.5,2.6 -2.1,3 -1.4,0.6 -2.4,1.1 -3.2,1.8 0.3,-0.7 0.5,-1.7 0.5,-2.8 z"
   id="path235"
   inkscape:connector-curvature="0"
   style="fill:url(#SVGID_26_)" />
		<linearGradient
   id="SVGID_27_"
   gradientUnits="userSpaceOnUse"
   x1="165.99049"
   y1="109.9509"
   x2="171.4913"
   y2="111.953">
			<stop
   offset="0"
   style="stop-color:#DADADA"
   id="stop238" />
			<stop
   offset="1"
   style="stop-color:#504F4E"
   id="stop240" />
		</linearGradient>
		<path
   d="m 171.7,111.1 c 0,0.4 -0.1,0.7 -0.4,0.9 -0.6,0.5 -1.9,0.3 -1.9,0.3 -0.1,0 -0.1,0 -0.2,0 -1.1,-0.4 -2.3,-0.9 -3.7,-1.3 0.6,-0.1 1.3,-0.3 1.7,-0.8 0.2,-0.2 0.4,-0.5 0.4,-0.8 1.6,0.6 3,1.1 4.1,1.7 z"
   id="path242"
   inkscape:connector-curvature="0"
   style="fill:url(#SVGID_27_)" />
		<linearGradient
   id="SVGID_28_"
   gradientUnits="userSpaceOnUse"
   x1="159.2672"
   y1="107.9702"
   x2="166.642"
   y2="110.6544">
			<stop
   offset="0"
   style="stop-color:#DADADA"
   id="stop245" />
			<stop
   offset="1"
   style="stop-color:#504F4E"
   id="stop247" />
		</linearGradient>
		<path
   d="m 166.9,109.8 c -0.7,0.7 -2.4,0.7 -3.2,0.7 -1.5,-0.4 -3.2,-0.7 -5,-1 0.4,-0.2 0.9,-0.5 1.2,-0.9 0.3,-0.3 0.4,-0.8 0.5,-1.2 2.5,0.6 4.7,1.2 6.7,1.9 0,0.1 -0.1,0.3 -0.2,0.5 z"
   id="path249"
   inkscape:connector-curvature="0"
   style="fill:url(#SVGID_28_)" />
		<linearGradient
   id="SVGID_29_"
   gradientUnits="userSpaceOnUse"
   x1="131.30341"
   y1="104.2399"
   x2="137.9558"
   y2="106.6612">
			<stop
   offset="0"
   style="stop-color:#DADADA"
   id="stop252" />
			<stop
   offset="1"
   style="stop-color:#504F4E"
   id="stop254" />
		</linearGradient>
		<path
   d="m 130.4,106.8 c 0.7,-0.6 1.7,-1.5 2.3,-3 2.1,0.1 4.2,0.2 6.2,0.4 -1.3,2.4 -2.1,2.8 -2.3,2.8 -2.1,-0.1 -4.1,-0.2 -6.2,-0.2 z"
   id="path256"
   inkscape:connector-curvature="0"
   style="fill:url(#SVGID_29_)" />
		<linearGradient
   id="SVGID_30_"
   gradientUnits="userSpaceOnUse"
   x1="124.7776"
   y1="104.0435"
   x2="131.0457"
   y2="106.3249">
			<stop
   offset="0"
   style="stop-color:#DADADA"
   id="stop259" />
			<stop
   offset="1"
   style="stop-color:#504F4E"
   id="stop261" />
		</linearGradient>
		<path
   d="m 123.8,106.6 c 0.8,-0.5 1.8,-1.4 2.2,-3.1 2,0 4,0.1 6,0.2 -0.8,1.8 -2.2,2.7 -2.7,3 -1.8,0 -3.6,0 -5.5,-0.1 z"
   id="path263"
   inkscape:connector-curvature="0"
   style="fill:url(#SVGID_30_)" />
		<linearGradient
   id="SVGID_31_"
   gradientUnits="userSpaceOnUse"
   x1="78.322998"
   y1="108.5535"
   x2="82.974998"
   y2="110.2467">
			<stop
   offset="0"
   style="stop-color:#DADADA"
   id="stop266" />
			<stop
   offset="1"
   style="stop-color:#504F4E"
   id="stop268" />
		</linearGradient>
		<path
   d="m 78.5,108.8 c 1.7,-0.5 3.5,-1 5.5,-1.5 -2,2.7 -3.3,3.2 -3.3,3.2 l 0,0 c -1.3,0.3 -2.4,0.7 -3.4,1 0.4,-0.6 0.9,-1.5 1.2,-2.7 0,0 0,0 0,0 z"
   id="path270"
   inkscape:connector-curvature="0"
   style="fill:url(#SVGID_31_)" />
		<linearGradient
   id="SVGID_32_"
   gradientUnits="userSpaceOnUse"
   x1="83.623001"
   y1="106.6281"
   x2="90.734299"
   y2="109.2164">
			<stop
   offset="0"
   style="stop-color:#DADADA"
   id="stop273" />
			<stop
   offset="1"
   style="stop-color:#504F4E"
   id="stop275" />
		</linearGradient>
		<path
   d="m 85,107.1 c 2.2,-0.5 4.5,-1 7,-1.3 -1.4,2.2 -3.8,3.1 -3.8,3.1 -0.1,0 -0.1,0.1 -0.1,0.1 -2,0.3 -3.9,0.7 -5.7,1.1 0.6,-0.6 1.5,-1.5 2.6,-3 z"
   id="path277"
   inkscape:connector-curvature="0"
   style="fill:url(#SVGID_32_)" />
		<linearGradient
   id="SVGID_33_"
   gradientUnits="userSpaceOnUse"
   x1="90.929001"
   y1="105.587"
   x2="97.5457"
   y2="107.9952">
			<stop
   offset="0"
   style="stop-color:#DADADA"
   id="stop280" />
			<stop
   offset="1"
   style="stop-color:#504F4E"
   id="stop282" />
		</linearGradient>
		<path
   d="m 92.8,105.6 c 1.9,-0.3 3.9,-0.6 5.9,-0.8 -1.4,2 -3.7,3.1 -3.8,3.1 -0.1,0 -0.1,0.1 -0.1,0.2 -1.7,0.2 -3.4,0.4 -5,0.7 0.9,-0.6 2.2,-1.7 3,-3.2 z"
   id="path284"
   inkscape:connector-curvature="0"
   style="fill:url(#SVGID_33_)" />
		<linearGradient
   id="SVGID_34_"
   gradientUnits="userSpaceOnUse"
   x1="97.293701"
   y1="104.9333"
   x2="103.6528"
   y2="107.2479">
			<stop
   offset="0"
   style="stop-color:#DADADA"
   id="stop287" />
			<stop
   offset="1"
   style="stop-color:#504F4E"
   id="stop289" />
		</linearGradient>
		<path
   d="m 99.5,104.7 c 1.7,-0.2 3.5,-0.4 5.3,-0.5 -0.6,1.7 -2.9,3.1 -2.9,3.2 0,0 0,0 0,0 -1.9,0.1 -3.8,0.3 -5.6,0.5 0.8,-0.5 2.3,-1.6 3.2,-3.2 z"
   id="path291"
   inkscape:connector-curvature="0"
   style="fill:url(#SVGID_34_)" />
		<linearGradient
   id="SVGID_35_"
   gradientUnits="userSpaceOnUse"
   x1="104.0266"
   y1="104.411"
   x2="110.2941"
   y2="106.6922">
			<stop
   offset="0"
   style="stop-color:#DADADA"
   id="stop294" />
			<stop
   offset="1"
   style="stop-color:#504F4E"
   id="stop296" />
		</linearGradient>
		<path
   d="m 105.4,104.2 c 1.9,-0.1 3.9,-0.3 5.9,-0.4 -1.5,2.5 -3.3,3.1 -3.3,3.1 -0.1,0 -0.1,0.1 -0.2,0.1 -1.6,0.1 -3.3,0.2 -4.9,0.3 0.9,-0.6 2.2,-1.8 2.5,-3.1 z"
   id="path298"
   inkscape:connector-curvature="0"
   style="fill:url(#SVGID_35_)" />
		<linearGradient
   id="SVGID_36_"
   gradientUnits="userSpaceOnUse"
   x1="110.3625"
   y1="103.9307"
   x2="117.6252"
   y2="106.5741">
			<stop
   offset="0"
   style="stop-color:#DADADA"
   id="stop301" />
			<stop
   offset="1"
   style="stop-color:#504F4E"
   id="stop303" />
		</linearGradient>
		<path
   d="m 112.1,103.8 c 2.2,-0.1 4.4,-0.2 6.6,-0.2 -1.2,1.9 -3.4,3.1 -3.4,3.1 0,0 -0.1,0.1 -0.1,0.1 -2,0.1 -4,0.1 -5.9,0.2 0.7,-0.6 1.9,-1.5 2.8,-3.2 z"
   id="path305"
   inkscape:connector-curvature="0"
   style="fill:url(#SVGID_36_)" />
		<linearGradient
   id="SVGID_37_"
   gradientUnits="userSpaceOnUse"
   x1="117.4423"
   y1="103.8586"
   x2="124.3957"
   y2="106.3894">
			<stop
   offset="0"
   style="stop-color:#DADADA"
   id="stop308" />
			<stop
   offset="1"
   style="stop-color:#504F4E"
   id="stop310" />
		</linearGradient>
		<path
   d="m 119.5,103.5 c 0.9,0 1.9,0 2.8,0 1.1,0 2.1,0 3.2,0 -0.6,2.2 -2.5,2.9 -2.6,2.9 -0.1,0 -0.1,0.1 -0.2,0.2 -0.1,0 -0.3,0 -0.4,0 -1.9,0 -3.9,0 -5.8,0.1 0.8,-0.6 2.2,-1.7 3,-3.2 z"
   id="path312"
   inkscape:connector-curvature="0"
   style="fill:url(#SVGID_37_)" />
		<linearGradient
   id="SVGID_38_"
   gradientUnits="userSpaceOnUse"
   x1="138.4344"
   y1="104.7504"
   x2="145.0954"
   y2="107.1747">
			<stop
   offset="0"
   style="stop-color:#DADADA"
   id="stop315" />
			<stop
   offset="1"
   style="stop-color:#504F4E"
   id="stop317" />
		</linearGradient>
		<path
   d="m 139.5,104.2 c 2.2,0.2 4.3,0.4 6.3,0.6 0.1,1.4 -2.4,2.5 -2.4,2.5 -0.1,0 -0.1,0.1 -0.1,0.1 -1.9,-0.2 -3.7,-0.3 -5.7,-0.4 0.5,-0.4 1.2,-1.3 1.9,-2.8 z"
   id="path319"
   inkscape:connector-curvature="0"
   style="fill:url(#SVGID_38_)" />
		<linearGradient
   id="SVGID_39_"
   gradientUnits="userSpaceOnUse"
   x1="145.17239"
   y1="105.4035"
   x2="152.48039"
   y2="108.0633">
			<stop
   offset="0"
   style="stop-color:#DADADA"
   id="stop322" />
			<stop
   offset="1"
   style="stop-color:#504F4E"
   id="stop324" />
		</linearGradient>
		<path
   d="m 146.5,104.9 c 2.3,0.3 4.5,0.6 6.6,1 0.1,0.2 0.1,0.3 0,0.5 -0.3,0.9 -2.1,1.6 -2.7,1.8 0,0 0,0 0,0 -1.9,-0.2 -3.9,-0.4 -6,-0.6 0.8,-0.5 2.1,-1.5 2.1,-2.7 z"
   id="path326"
   inkscape:connector-curvature="0"
   style="fill:url(#SVGID_39_)" />
		<linearGradient
   id="SVGID_40_"
   gradientUnits="userSpaceOnUse"
   x1="152.2957"
   y1="106.4981"
   x2="159.24561"
   y2="109.0276">
			<stop
   offset="0"
   style="stop-color:#DADADA"
   id="stop329" />
			<stop
   offset="1"
   style="stop-color:#504F4E"
   id="stop331" />
		</linearGradient>
		<path
   d="m 153.7,106.6 c 0.1,-0.2 0.1,-0.4 0.1,-0.7 2.1,0.4 4.1,0.8 6,1.2 0,0.4 -0.1,0.7 -0.4,1 -0.6,0.8 -1.9,0.9 -1.9,0.9 -0.1,0 -0.1,0.1 -0.2,0.1 -1.8,-0.3 -3.7,-0.6 -5.7,-0.8 0.8,-0.3 1.8,-0.9 2.1,-1.7 z"
   id="path333"
   inkscape:connector-curvature="0"
   style="fill:url(#SVGID_40_)" />
		<linearGradient
   id="SVGID_41_"
   gradientUnits="userSpaceOnUse"
   x1="68.380898"
   y1="122.3082"
   x2="176.342"
   y2="122.3082">
			<stop
   offset="0"
   style="stop-color:#DADADA"
   id="stop336" />
			<stop
   offset="1"
   style="stop-color:#797979"
   id="stop338" />
		</linearGradient>
		<path
   d="m 122.3,128.8 c -27.8,0 -51.5,-5.2 -53.9,-11.6 0.5,-0.1 1.7,-0.4 2.7,-1.3 0,0.1 -0.1,0.2 -0.1,0.3 0,5.9 26,9.5 51.2,9.5 25.2,0 51.2,-3.6 51.2,-9.5 0,0 0,-0.1 0,-0.1 0.4,0.1 1,0.3 1.5,0.3 0.3,0 0.7,-0.1 1,-0.3 0.1,-0.1 0.2,-0.2 0.3,-0.3 0,0.1 0,0.2 0,0.3 0.1,6.9 -24.6,12.7 -53.9,12.7 z"
   id="path340"
   inkscape:connector-curvature="0"
   style="fill:url(#SVGID_41_)" />
	</g>
	<g
   id="g342"
   transform="translate(2,0)">
		<linearGradient
   id="SVGID_42_"
   gradientUnits="userSpaceOnUse"
   x1="113.2445"
   y1="94.849403"
   x2="120.0315"
   y2="94.849403">
			<stop
   offset="0.2761"
   style="stop-color:#B7B6B6"
   id="stop345" />
			<stop
   offset="1"
   style="stop-color:#5A5A59"
   id="stop347" />
		</linearGradient>
		<path
   d="m 120,88.5 c -2.6,0.8 -4.6,4.9 -4.6,8 v 6.3 c -0.7,0 -1.5,0.1 -2.2,0.1 V 95 c 0,-3.7 3.7,-7.9 6.2,-8.2 0.2,0.6 0.5,1.3 0.6,1.7 z"
   id="path349"
   inkscape:connector-curvature="0"
   style="fill:url(#SVGID_42_)" />
		<linearGradient
   id="SVGID_43_"
   gradientUnits="userSpaceOnUse"
   x1="123.2038"
   y1="94.8097"
   x2="130.16859"
   y2="94.8097">
			<stop
   offset="0.2761"
   style="stop-color:#B7B6B6"
   id="stop352" />
			<stop
   offset="1"
   style="stop-color:#5A5A59"
   id="stop354" />
		</linearGradient>
		<path
   d="m 123.6,86.8 c 0.1,0 0.1,0 0,0 2.6,0 6.5,4.4 6.5,8.2 v 7.9 c -0.7,0 -1.4,-0.1 -2.2,-0.1 v -6.2 c 0,-3.2 -2.1,-7.4 -4.8,-8 0.2,-0.6 0.4,-1.2 0.5,-1.8 z"
   id="path356"
   inkscape:connector-curvature="0"
   style="fill:url(#SVGID_43_)" />
		<linearGradient
   id="SVGID_44_"
   gradientUnits="userSpaceOnUse"
   x1="166.0271"
   y1="102.4905"
   x2="175.3166"
   y2="102.4905">
			<stop
   offset="0.2761"
   style="stop-color:#B7B6B6"
   id="stop359" />
			<stop
   offset="1"
   style="stop-color:#5A5A59"
   id="stop361" />
		</linearGradient>
		<path
   d="m 170,100.6 c -1.3,2.3 -2.1,6.7 -2.3,7.9 -0.5,-0.2 -1.1,-0.4 -1.7,-0.6 0.3,-1.3 1.4,-6.3 2.3,-8.4 0.9,-2.2 3.8,-3.5 6.9,-3 l 0.1,2.5 c -1,-0.2 -4,-0.8 -5.3,1.6 z"
   id="path363"
   inkscape:connector-curvature="0"
   style="fill:url(#SVGID_44_)" />
		<linearGradient
   id="SVGID_45_"
   gradientUnits="userSpaceOnUse"
   x1="69.290901"
   y1="102.1776"
   x2="76.6539"
   y2="102.1776">
			<stop
   offset="0.2761"
   style="stop-color:#B7B6B6"
   id="stop366" />
			<stop
   offset="1"
   style="stop-color:#5A5A59"
   id="stop368" />
		</linearGradient>
		<path
   d="m 69.8,95.1 c 0.6,0.2 4.2,1.3 5.2,4.6 0.9,3.2 1.5,7.6 1.7,8.9 -0.6,0.2 -1.2,0.4 -1.7,0.7 -0.1,-1.1 -0.5,-3.8 -1,-7.2 -0.6,-4 -3.7,-4.4 -4.5,-4.5 l -0.1,-2.2 c 0,-0.1 0.2,-0.2 0.4,-0.3 z"
   id="path370"
   inkscape:connector-curvature="0"
   style="fill:url(#SVGID_45_)" />
		<linearGradient
   id="SVGID_46_"
   gradientUnits="userSpaceOnUse"
   x1="66.139397"
   y1="105.9118"
   x2="71.333"
   y2="105.9118">
			<stop
   offset="0.2761"
   style="stop-color:#B7B6B6"
   id="stop373" />
			<stop
   offset="1"
   style="stop-color:#5A5A59"
   id="stop375" />
		</linearGradient>
		<path
   d="m 66.1,100.1 c 0.1,0 0.1,0 0,0 0,0 0.3,-0.5 0.6,-0.7 0,0 0,0.1 0.1,0.1 0,0.1 0.1,0.1 0.2,0.1 0,0 0,0 0.1,0 l 2.1,-0.5 c 0.1,0 0.2,-0.2 0.2,-0.3 l 0,-0.3 c 0.4,0 1.2,0.1 1.9,0.7 -0.2,0.1 -0.4,0.2 -0.6,0.4 -0.8,0.8 -1.2,2.3 -1.2,4.5 0,4.7 0.9,7.5 1,7.6 0,0.1 0.1,0.1 0.1,0.1 -1,0.7 -1.7,1.3 -2.3,2.1 -0.3,-2.7 -1.4,-9.6 -2.2,-13.8 z"
   id="path377"
   inkscape:connector-curvature="0"
   style="fill:url(#SVGID_46_)" />
		<linearGradient
   id="SVGID_47_"
   gradientUnits="userSpaceOnUse"
   x1="172.5405"
   y1="106.0921"
   x2="176.8465"
   y2="106.0921">
			<stop
   offset="0.2761"
   style="stop-color:#B7B6B6"
   id="stop380" />
			<stop
   offset="1"
   style="stop-color:#5A5A59"
   id="stop382" />
		</linearGradient>
		<path
   d="m 175.4,112.7 c -0.6,-0.6 -1.5,-1.2 -2.5,-1.8 v 0 c 0.1,-0.2 1.3,-5.8 1.4,-7.8 0.2,-2.2 -1,-3.2 -1.8,-3.6 1.2,-0.2 2.5,0.1 2.8,0.2 l 0,0 c 0,0.2 0.2,0.3 0.3,0.3 h 0.3 c 0.2,0.2 1.2,1.3 0.7,3.7 0,0.1 0,0.1 0,0.1 -0.5,3.6 -1,7.6 -1.2,8.9 z"
   id="path384"
   inkscape:connector-curvature="0"
   style="fill:url(#SVGID_47_)" />
	</g>
	<linearGradient
   id="SVGID_48_"
   gradientUnits="userSpaceOnUse"
   x1="64.623199"
   y1="90.313004"
   x2="178.82671"
   y2="90.313004"
   gradientTransform="translate(2,0)">
		<stop
   offset="0"
   style="stop-color:#DADADA"
   id="stop387" />
		<stop
   offset="1"
   style="stop-color:#504F4E"
   id="stop389" />
	</linearGradient>
	<path
   d="m 180.3,97.9 c -0.4,-0.3 -1.2,-1 -2.5,-1.9 -0.1,-0.1 -0.1,-0.1 -0.2,-0.1 -6,-3.8 -21.6,-11.1 -53.1,-11.1 -39.6,0 -55.2,10.8 -57.1,12.3 -0.9,-0.7 -0.8,-1 -0.6,-1.7 l 0,-0.1 c 1.1,-0.7 17.6,-10.8 49.3,-12.3 0,0 0.1,0 0.1,0 0,0 0,0 0.1,0 2.1,-0.1 4.3,-0.2 6.6,-0.2 37.3,0 56.6,12.1 57.2,12.5 0.1,0.1 0.7,0.8 0.6,1.5 0.1,0.4 -0.1,0.8 -0.4,1.1 z"
   id="path391"
   inkscape:connector-curvature="0"
   style="fill:url(#SVGID_48_)" />
	<linearGradient
   id="SVGID_49_"
   gradientUnits="userSpaceOnUse"
   x1="48.576199"
   y1="55.337399"
   x2="194.3558"
   y2="55.337399"
   gradientTransform="translate(2,0)">
		<stop
   offset="0"
   style="stop-color:#7D7D7C"
   id="stop394" />
		<stop
   offset="0.1779"
   style="stop-color:#ACACAC"
   id="stop396" />
		<stop
   offset="0.2577"
   style="stop-color:#FFFFFF"
   id="stop398" />
		<stop
   offset="0.3926"
   style="stop-color:#CDCDCD"
   id="stop400" />
		<stop
   offset="0.8282"
   style="stop-color:#7D7D7C"
   id="stop402" />
	</linearGradient>
	<path
   d="m 50.6,64.9 12,-6.9 -0.3,1.9 -10.4,5.5 -1.3,-0.5 z m 128.1,-8.1 -10.3,-3.3 -0.8,-1.8 12.3,4.3 -1.2,0.8 z m -16,-5.1 -10.4,-2.7 -0.3,-1.4 12.1,3.2 -1.4,0.9 z m -16.1,-3.1 -10.8,-2.1 -0.3,-0.9 c 4.5,0.6 10.6,1.4 12.4,1.8 l -1.3,1.2 z m -35.4,-1.9 -10.8,2.1 -1.3,-1.2 12.4,-2 -0.3,1.1 z M 94.7,49.2 84.2,51.9 82.9,51 95,47.7 94.7,49.2 z M 78.5,53.7 68.2,57 66.9,56.1 79.3,51.9 78.5,53.7 z m 37.6,-8.4 15,0.2 -1.2,0.8 c -0.1,0.1 -0.1,0.1 -0.1,0.2 l -12.8,-0.2 -0.9,-1 z m 79.1,20 c 0,0 -0.1,0 0,0 l -10.6,-5.7 -0.3,-2.1 12.1,7.3 -1.2,0.5 z"
   id="path404"
   inkscape:connector-curvature="0"
   style="fill:url(#SVGID_49_)" />
</g>
</svg>