<svg height="629.58679" width="500" xmlns="http://www.w3.org/2000/svg"><g transform="translate(6 -139.41322)"><path d="m230.92295 761.50559c-1.6429-.0918-6.73162-.54519-11.30827-1.00759-48.74445-4.92489-93.10106-23.69858-131.645331-55.71818-7.136296-5.92828-23.481783-22.27321-29.415561-29.41455-29.76695-35.82473-48.414469-77.40381-54.8303523-122.25733-2.1540182-15.05877-2.2639268-17.64487-2.4710022-58.14158l-.1958364-38.29877h242.8446529 242.84464l-.006 35.09832c-.006 34.76164-.21947 42.29377-1.52321 53.8743-9.21756 81.87589-59.32185 153.69572-132.94231 190.56015-26.85649 13.44801-54.67378 21.44409-85.29257 24.51734-6.36959.63933-29.62256 1.14741-36.05845.78789z" fill="#fcdd09"/><path d="m1.2629008 404.61238v-50.9939h242.8077592 242.80775v50.9939 50.99389h-242.80775-242.8077592z" fill="#da121a"/><path d="m1.2629008 197.86307v-51.20726h242.8077592 242.80775v51.20726 51.20725h-242.80775-242.8077592z" fill="#e3001b"/><path d="m1.2654707 301.34015v-50.99389h242.8077493 242.80777v50.99389 50.99391h-242.80777-242.8077493z" fill="#fff"/><path d="m1.0247934 249.70246h485.9504166" fill="none" stroke="#000" stroke-width="2.429752"/><path d="m1.0247934 352.96693h485.9504166" fill="none" stroke="#000" stroke-width="2.429752"/><path d="m1.0247934 456.23139h485.9504166" fill="none" stroke="#000" stroke-width="2.429752"/><path d="m-1 144.41322v2.0248 371.65082c0 135.78802 109.71008 245.91116 245 245.91116s245-110.12315 245-245.91116v-371.65082-2.0248h-2.02479-485.9504166zm4.0495868 4.04959h481.9008232v369.62603c0 133.60768-107.85731 241.86157-240.95041 241.86157s-240.9504132-108.25388-240.9504132-241.86157z"/><g fill="#da121a"><circle cx="243.90123" cy="665.8941" r="47.433407" stroke="#000" stroke-width="2.429752"/><circle cx="373.58737" cy="552.31293" r="47.433407" stroke="#000" stroke-width="2.429752"/><circle cx="114.41382" cy="552.31293" r="47.433407" stroke="#000" stroke-width="2.429752"/></g></g></svg>