<?xml version="1.0" encoding="UTF-8" standalone="no"?>
<svg
   xmlns:dc="http://purl.org/dc/elements/1.1/"
   xmlns:cc="http://creativecommons.org/ns#"
   xmlns:rdf="http://www.w3.org/1999/02/22-rdf-syntax-ns#"
   xmlns:svg="http://www.w3.org/2000/svg"
   xmlns="http://www.w3.org/2000/svg"
   xmlns:xlink="http://www.w3.org/1999/xlink"
   xmlns:sodipodi="http://sodipodi.sourceforge.net/DTD/sodipodi-0.dtd"
   xmlns:inkscape="http://www.inkscape.org/namespaces/inkscape"
   data-name="Ebene 1"
   viewBox="0 0 441.01183 510.63256"
   version="1.1"
   sodipodi:docname="Martello (Italia)-Stemma.svg"
   inkscape:version="1.0.2-2 (e86c870879, 2021-01-15)"
   width="441.01184"
   height="510.63257"
   id="svg13">
  <metadata
     id="metadata15">
    <rdf:RDF>
      <cc:Work
         rdf:about="">
        <dc:format>image/svg+xml</dc:format>
        <dc:type
           rdf:resource="http://purl.org/dc/dcmitype/StillImage" />
        <dc:title></dc:title>
      </cc:Work>
    </rdf:RDF>
  </metadata>
  <sodipodi:namedview
     id="namedview29"
     pagecolor="#505050"
     bordercolor="#eeeeee"
     borderopacity="1"
     inkscape:pageshadow="0"
     inkscape:pageopacity="0"
     inkscape:pagecheckerboard="0"
     showgrid="false"
     showguides="true"
     inkscape:guide-bbox="true"
     inkscape:snap-midpoints="true"
     inkscape:snap-smooth-nodes="true"
     inkscape:snap-intersection-paths="true"
     inkscape:object-paths="true"
     inkscape:snap-global="true"
     inkscape:zoom="1.0176262"
     inkscape:cx="10.863836"
     inkscape:cy="169.7356"
     inkscape:window-width="1920"
     inkscape:window-height="986"
     inkscape:window-x="-11"
     inkscape:window-y="-11"
     inkscape:window-maximized="1"
     inkscape:current-layer="g7781"
     fit-margin-top="5"
     lock-margins="true"
     fit-margin-left="5"
     fit-margin-right="5"
     fit-margin-bottom="5"
     inkscape:document-rotation="0" />
  <defs
     id="defs4">
    <clipPath
       id="clip0">
      <rect
         x="-202"
         y="177"
         width="403"
         height="402"
         id="rect101" />
    </clipPath>
  </defs>
  <g
     id="g857"
     inkscape:groupmode="layer"
     inkscape:label="moos_in_passeier"
     transform="translate(8.031127,5.316293)">
    <g
       id="g950"
       inkscape:label="coa"
       transform="scale(4.3786671)">
      <path
         d="M 0.13,0.67 H 97 V 68.016737 C 97,70.581469 96.567052,113.52 48.564999,113.52 0.56294673,113.52 0.0469534,70.581467 0.05,68.016737 Z"
         id="path5356"
         style="fill:#0f47af;fill-opacity:1;stroke:none;stroke-width:1.48447;stroke-miterlimit:4;stroke-dasharray:none"
         inkscape:label="coa-0"
         sodipodi:nodetypes="ccszsc" />
      <g
         id="g7781"
         inkscape:label="trimount">
        <path
           id="polygon22"
           style="fill:#e7e7e7;stroke:#000000;stroke-width:1.53033"
           class="b6e8037d-dba2-4618-9fe5-978c6c11c36b"
           d="M 48.747307,5.8296958 C 80.339182,54.29102 30.783397,-21.726567 62.375285,26.734758 l 1.20193,-1.509432 29.606135,50.67378 H 4.4175907 L 38.372798,19.391883 v 0 0 l 2.371375,2.825928 z"
           inkscape:label="mount-c"
           sodipodi:nodetypes="cccccccccc" />
        <path
           d="m 39.820122,37.045479 c 0,-2.537646 1.979593,-4.594826 4.421528,-4.594826 2.441933,0 4.421528,2.05718 4.421528,4.594826 0,2.537646 -1.979595,4.594825 -4.421528,4.594825 -2.441935,0 -4.421528,-2.057179 -4.421528,-4.594825 z"
           fill="#ffff00"
           fill-rule="evenodd"
           id="path106"
           style="stroke-width:0.0223967" />
        <path
           d="m 49.805144,37.04051 c 0,-2.537646 1.979593,-4.594824 4.421528,-4.594824 2.441935,0 4.421528,2.057178 4.421528,4.594824 0,2.537648 -1.979593,4.594826 -4.421528,4.594826 -2.441935,0 -4.421528,-2.057178 -4.421528,-4.594826 z"
           fill="#ffff00"
           fill-rule="evenodd"
           id="path106-3"
           style="stroke-width:0.0223967" />
        <path
           d="m 54.226672,32.445686 a 4.6371864,4.6365783 0 0 0 -4.637233,4.636689 4.6371864,4.6365783 0 0 0 4.637233,4.636554 4.6371864,4.6365783 0 0 0 4.637233,-4.636554 4.6371864,4.6365783 0 0 0 -4.637233,-4.636689 z m 0,0.429051 a 4.2081515,4.2076005 0 0 1 4.208046,4.207638 4.2081515,4.2076005 0 0 1 -4.208046,4.207638 4.2081515,4.2076005 0 0 1 -4.208179,-4.207638 4.2081515,4.2076005 0 0 1 4.208179,-4.207638 z m -9.770375,-0.429051 a 4.6371864,4.6365783 0 0 0 -4.637233,4.636689 4.6371864,4.6365783 0 0 0 4.637233,4.636554 4.6371864,4.6365783 0 0 0 4.637232,-4.636554 4.6371864,4.6365783 0 0 0 -4.637232,-4.636689 z m 0,0.429051 a 4.2081515,4.2076005 0 0 1 4.208044,4.207638 4.2081515,4.2076005 0 0 1 -4.208044,4.207638 4.2081515,4.2076005 0 0 1 -4.208181,-4.207638 4.2081515,4.2076005 0 0 1 4.208181,-4.207638 z"
           fill-rule="evenodd"
           stroke="#313131"
           stroke-linejoin="round"
           stroke-width="1.34179"
           id="path13"
           style="stroke:none" />
        <g
           stroke="#313131"
           stroke-width="1.00186"
           transform="matrix(0.06971599,0,0,0.0696017,28.391536,29.692822)"
           id="g41">
          <path
             d="m 328.18632,69.810842 c -4.71409,5.74415 -6.91598,15.87279 6.96222,19.28596 -12.98077,1.99107 -8.69092,25.202168 -30.70566,17.104348 4.64312,9.86451 11.77373,10.22207 22.58393,2.53217 -10.6025,8.52734 -5.34623,32.49537 -23.83331,26.00511 4.03558,9.30754 10.74454,9.29969 17.31685,5.409 -7.6212,5.91481 -0.24855,35.96622 -13.21099,19.54839 -0.98093,6.29316 3.12994,12.25976 9.72878,12.91541 -1.50987,9.11001 -6.42466,16.95597 -16.95994,18.76113 -10.53528,-1.80516 -15.45007,-9.65112 -16.95994,-18.76113 6.59884,-0.65565 10.70971,-6.62225 9.72878,-12.91541 -12.96244,16.41783 -5.58979,-13.63358 -13.21099,-19.54839 6.57231,3.89069 13.28127,3.89854 17.31685,-5.409 -18.48708,6.49026 -13.23081,-17.47777 -23.83331,-26.00511 10.8102,7.6899 17.94081,7.33234 22.58393,-2.53217 -22.01474,8.09782 -17.72489,-15.113278 -30.70566,-17.104348 13.8782,-3.41317 11.67631,-13.54181 6.96221,-19.28596 -10.56796,25.415288 -39.69157,-1.18402 -68.28585,12.480649 -5.9839,4.85425 -1.35239,11.226449 -1.25129,17.364809 10.0172,5.84226 22.0683,10.39068 32.13493,16.14475 8.99654,9.56759 5.3983,17.39714 5.53505,25.74269 l 3.66,-2.09349 c 5.04954,25.91445 -46.74019,61.90273 -59.0925,32.11326 -13.33474,30.60133 49.57972,28.62255 61.59118,3.49176 0.68301,7.14843 0.43406,16.73601 2.67858,24.6088 l 0.89154,8.55217 c -1.07453,-0.43654 -2.29118,-0.91017 -3.74799,-1.31015 -3.57401,-0.98116 -7.9046,-1.76625 -12.0516,-1.48247 -9.51729,0.65117 -17.28293,4.08763 -24.81476,7.41632 -7.5315,3.32873 -14.73668,6.57624 -23.20766,7.15585 -22.82058,1.56152 -40.23775,-11.58874 -42.13361,-28.53531 -1.10255,-9.85571 5.51862,-16.56308 12.22948,-22.42718 3.35558,-2.93204 6.68804,-5.72151 9.19514,-8.46405 2.5068,-2.7425 4.09685,-5.51654 3.74799,-8.6403 -0.53435,-4.77367 -4.01096,-8.55786 -9.19314,-11.5191 -5.18217,-2.9612 -12.00745,-5.17979 -19.2817,-6.98157 -10.0229,-2.48257 -21.15274,-6.61593 -27.22554,-12.04197 -3.03716,-2.713 -4.87366,-5.69628 -4.73141,-8.98889 0.14164,-3.29259 1.53155,-7.48465 6.4272,-11.47503 -6.86792,1.38475 -11.31839,4.19624 -13.56772,7.81092 -2.27977,3.66318 -2.27496,7.98147 -0.71364,12.3044 2.26965,6.28441 22.0739,16.5754 30.09762,20.16528 -1.68304,1.68825 -3.31464,3.35741 -4.89568,5.00557 -92.256001,96.17024 10.28005,126.07879 76.83018,120.01613 23.07694,-2.10228 31.59791,21.40569 40.1642,0.89522 0.86489,7.77136 1.49405,16.75778 1.60515,25.13168 0.14606,10.98872 -1.42932,21.5149 -3.50327,26.52781 4.39936,-1.27696 8.95646,-4.83761 10.91399,-9.59794 1.95743,-4.76031 2.90171,-10.82755 3.30223,-17.19248 0.0751,-1.19588 0.0549,-2.36766 0.0901,-3.57793 3.62826,5.79125 7.28135,10.76685 9.46101,16.75576 1.12767,3.09838 1.90398,6.4102 1.78506,9.68608 -0.12814,3.53323 -1.09375,7.09633 -2.67658,10.29707 -0.40452,0.81799 -1.07952,1.49378 -1.69706,2.18162 -2.5902,2.88455 -5.13102,5.31035 -8.3896,8.11741 -6.51606,5.61408 -14.14808,11.53529 -18.30019,17.36482 -1.30485,1.83152 -2.68328,4.86939 -4.37375,8.46405 -1.69154,3.59459 -3.64827,7.71901 -6.06878,11.60722 -4.84314,7.77635 -11.38551,14.57413 -20.88887,14.57414 -3.21654,-6e-5 -5.69142,-0.87778 -7.3181,-2.35591 -1.62728,-1.47818 -2.46325,-3.57233 -2.67995,-6.11001 -3.56617,2.48867 -4.5672,7.06115 -2.94592,10.9963 1.62138,3.93514 5.93115,7.24399 13.301,7.24399 5.97168,-6e-5 8.89331,-0.77307 13.3009,-3.31746 l 12.31747,18.67496 c 1.68355,-0.54648 5.98792,-2.25601 8.12362,-2.87881 4.05642,-1.18346 8.31544,-2.72241 10.89021,-5.67337 0.48529,1.22046 1.02696,2.40164 1.69516,3.49176 2.16024,3.52517 5.46986,6.17699 10.9353,6.63214 -2.182,-11.44513 -1.62112,-20.43309 0.93673,-26.96555 1.96154,-5.00775 8.2897,-11.45939 13.47889,-14.66032 0.40732,3.66881 0.21382,8.86334 -0.62565,14.92274 -1.0623,7.67367 -3.07699,16.47977 -6.15879,24.43451 -3.08211,7.95465 -7.17755,15.07086 -12.2295,19.46026 -5.05263,4.3893 -11.06327,6.05589 -18.12029,3.22934 -0.03,-0.003 -0.0591,-0.003 -0.0881,0 -0.03,-0.003 -0.0611,-0.003 -0.0901,0 -0.03,-0.003 -0.0591,-0.003 -0.0901,0 -0.034,0.0246 -0.0631,0.053 -0.0881,0.0861 -0.03,-0.003 -0.0611,-0.003 -0.0901,0 v 0.0881 c -0.034,0.0246 -0.0631,0.053 -0.0881,0.0861 v 0.0881 0.0861 0.0881 c 2.22321,8.89387 10.35244,13.43829 18.56606,13.43829 6.83059,-1.1e-4 12.42899,-2.83282 16.78111,-7.33016 0.14255,-0.14764 0.30662,-0.28567 0.44776,-0.43671 -0.98322,4.21816 -2.93064,9.29754 -6.51656,13.70071 -4.67224,5.7369 -12.13939,10.29903 -24.1012,10.29903 -8.42354,-1.2e-4 -16.55117,1.71854 -21.33463,7.67874 -2.03291,2.53371 -3.61595,6.51425 -3.92789,10.81997 -0.31131,4.3056 0.6744,9.02168 4.28503,12.61092 0.57486,-3.70562 2.06601,-6.73622 5.08865,-8.85863 3.02242,-2.12253 7.64031,-3.31551 14.28241,-3.31551 11.49142,-1.3e-4 21.94026,-4.17029 29.45635,-11.43097 -2.75616,6.56035 -7.19766,13.64437 -12.49545,19.63455 -5.69521,6.43936 -12.93442,11.12435 -19.37161,13.00157 -3.21894,0.93851 -6.22485,1.0956 -8.74736,0.52485 -2.52192,-0.57088 -4.54553,-1.8815 -6.07011,-4.27604 -2.35115,-0.34171 -4.0409,0.31134 -5.17658,1.56967 -1.13688,1.25821 -1.74621,3.02887 -1.87495,4.97423 -0.25746,3.89064 1.27132,8.46957 4.37363,11.08436 2.63203,2.21895 6.40466,3.50768 10.17657,3.92652 2.96748,0.32931 5.67007,-0.32864 8.21162,-1.04773 -21.80502,14.01742 -44.81009,0.32489 -44.81009,-15.09703 -3e-4,-3.50968 1.32206,-7.79779 3.66,-10.81995 2.33772,-3.02228 5.57338,-4.79603 9.77531,-3.97048 -1.63262,-4.20132 -5.00502,-7.28597 -9.86426,-7.28598 -6.61186,-1.1e-4 -12.64782,3.52517 -16.959,8.81266 -4.31077,5.28735 -6.96232,12.40113 -6.96232,19.63454 -3e-4,8.92179 3.1807,17.9908 10.17466,24.87124 6.99455,6.88031 17.85442,11.51908 33.02836,11.51908 9.17572,-1.1e-4 17.444,-2.98598 24.90474,-7.76687 -14.41527,28.42345 11.02634,48.3853 27.58131,32.20139 -15.68918,-1.55199 -11.98024,-19.44964 -0.62366,-26.79042 11.23886,-7.26492 17.31958,-16.92726 20.26323,-27.66386 -1.24228,23.66466 -2.46145,45.84632 -14.01453,61.95871 -3.4625,4.82866 3.15977,7.50404 11.42395,7.50447 -0.0761,13.01588 23.41108,13.50639 23.74532,0 8.26418,-4.3e-4 14.88645,-2.67581 11.42395,-7.50447 -11.55308,-16.11239 -12.77225,-38.29405 -14.01453,-61.95871 2.94365,10.7366 9.02437,20.39894 20.26323,27.66386 11.35658,7.34078 15.06552,25.23843 -0.62366,26.79042 16.55497,16.18391 41.99658,-3.77794 27.58131,-32.20139 7.46074,4.78089 15.72902,7.76676 24.90474,7.76687 15.17394,0 26.03381,-4.63877 33.02836,-11.51908 6.99396,-6.88044 10.17496,-15.94945 10.17466,-24.87124 0,-7.23341 -2.65155,-14.34719 -6.96232,-19.63454 -4.31118,-5.28749 -10.34714,-8.81277 -16.959,-8.81266 -4.85924,1e-5 -8.23164,3.08466 -9.86426,7.28598 4.20193,-0.82555 7.43759,0.9482 9.77531,3.97048 2.33794,3.02216 3.6603,7.31027 3.66,10.81995 0,15.42192 -23.00507,29.11445 -44.81009,15.09703 2.54155,0.71909 5.24414,1.37704 8.21162,1.04773 3.77191,-0.41884 7.54454,-1.70757 10.17657,-3.92652 3.10231,-2.61479 4.63109,-7.19372 4.37363,-11.08436 -0.12874,-1.94536 -0.73807,-3.71602 -1.87495,-4.97423 -1.13568,-1.25833 -2.82543,-1.91138 -5.17658,-1.56967 -1.52458,2.39454 -3.54819,3.70516 -6.07011,4.27604 -2.52251,0.57075 -5.52842,0.41366 -8.74736,-0.52485 -6.43719,-1.87722 -13.6764,-6.56221 -19.37161,-13.00157 -5.29779,-5.99018 -9.73929,-13.0742 -12.49545,-19.63455 7.51609,7.26068 17.96493,11.43084 29.45635,11.43097 6.6421,0 11.25999,1.19298 14.28241,3.31551 3.02264,2.12241 4.51379,5.15301 5.08865,8.85863 3.61063,-3.58924 4.59634,-8.30532 4.28503,-12.61092 -0.31194,-4.30572 -1.89498,-8.28626 -3.92789,-10.81997 -4.78346,-5.9602 -12.91109,-7.67886 -21.33463,-7.67874 -11.96181,0 -19.42896,-4.56213 -24.1012,-10.29903 -3.58592,-4.40317 -5.53334,-9.48255 -6.51656,-13.70071 0.14114,0.15104 0.30521,0.28907 0.44776,0.43671 4.35212,4.49734 9.95052,7.33005 16.78111,7.33016 8.21362,0 16.34285,-4.54442 18.56606,-13.43829 v -0.0881 -0.0861 -0.0881 c -0.025,-0.0331 -0.0541,-0.0615 -0.0881,-0.0861 v -0.0881 c -0.029,-0.003 -0.0601,-0.003 -0.0901,0 -0.025,-0.0331 -0.0541,-0.0615 -0.0881,-0.0861 -0.031,-0.003 -0.0601,-0.003 -0.0901,0 -0.029,-0.003 -0.0601,-0.003 -0.0901,0 -0.029,-0.003 -0.0581,-0.003 -0.0881,0 -7.05702,2.82655 -13.06766,1.15996 -18.12029,-3.22934 -5.05195,-4.3894 -9.14739,-11.50561 -12.2295,-19.46026 -3.0818,-7.95474 -5.09649,-16.76084 -6.15879,-24.43451 -0.83947,-6.0594 -1.03297,-11.25393 -0.62565,-14.92274 5.18919,3.20093 11.51735,9.65257 13.47889,14.66032 2.55785,6.53246 3.11873,15.52042 0.93673,26.96555 5.46544,-0.45515 8.77506,-3.10697 10.9353,-6.63214 0.6682,-1.09012 1.20987,-2.2713 1.69516,-3.49176 2.57477,2.95096 6.83379,4.48991 10.89021,5.67337 2.1357,0.6228 6.44007,2.33233 8.12362,2.87881 l 12.31747,-18.67496 c 4.40759,2.54439 7.32922,3.3174 13.3009,3.31746 7.36985,0 11.67962,-3.30885 13.301,-7.24399 1.62128,-3.93515 0.62025,-8.50763 -2.94592,-10.9963 -0.2167,2.53768 -1.05267,4.63183 -2.67995,6.11001 -1.62668,1.47813 -4.10156,2.35585 -7.3181,2.35591 -9.50336,-1e-5 -16.04573,-6.79779 -20.88887,-14.57414 -2.42051,-3.88821 -4.37724,-8.01263 -6.06878,-11.60722 -1.69047,-3.59466 -3.0689,-6.63253 -4.37375,-8.46405 -4.15211,-5.82953 -11.78413,-11.75074 -18.30019,-17.36482 -3.25858,-2.80706 -5.7994,-5.23286 -8.3896,-8.11741 -0.61754,-0.68784 -1.29254,-1.36363 -1.69706,-2.18162 -1.58283,-3.20074 -2.54844,-6.76384 -2.67658,-10.29707 -0.11892,-3.27588 0.65739,-6.5877 1.78506,-9.68608 2.17966,-5.98891 5.83275,-10.96451 9.46101,-16.75576 0.0352,1.21027 0.015,2.38205 0.0901,3.57793 0.40052,6.36493 1.3448,12.43217 3.30223,17.19248 1.95753,4.76033 6.51463,8.32098 10.91399,9.59794 -2.07395,-5.01291 -3.64933,-15.53909 -3.50327,-26.52781 0.1111,-8.3739 0.74026,-17.36032 1.60515,-25.13168 8.56629,20.51047 17.08726,-2.9975 40.1642,-0.89522 66.55013,6.06266 169.08618,-23.84589 76.83018,-120.01613 -1.58104,-1.64816 -3.21264,-3.31732 -4.89568,-5.00557 8.02372,-3.58988 27.82797,-13.88087 30.09762,-20.16528 1.56132,-4.32293 1.56613,-8.64122 -0.71364,-12.3044 -2.24933,-3.61468 -6.6998,-6.42617 -13.56772,-7.81092 4.89565,3.99038 6.28556,8.18244 6.4272,11.47503 0.14225,3.29261 -1.69425,6.27589 -4.73141,8.98889 -6.0728,5.42604 -17.20264,9.5594 -27.22554,12.04197 -7.27425,1.80178 -14.09953,4.02037 -19.2817,6.98157 -5.18218,2.96124 -8.65879,6.74543 -9.19314,11.5191 -0.34886,3.12376 1.24119,5.8978 3.74799,8.6403 2.5071,2.74254 5.83956,5.53201 9.19514,8.46405 6.71086,5.8641 13.33203,12.57147 12.22948,22.42718 -1.89586,16.94657 -19.31303,30.09683 -42.13361,28.53531 -8.47098,-0.57961 -15.67616,-3.82712 -23.20766,-7.15585 -7.53183,-3.32869 -15.29747,-6.76515 -24.81476,-7.41632 -4.147,-0.28378 -8.47759,0.50131 -12.0516,1.48247 -1.45681,0.39998 -2.67346,0.87361 -3.74799,1.31015 l 0.89154,-8.55217 c 2.24452,-7.87279 1.99557,-17.46037 2.67858,-24.6088 12.01146,25.13079 74.92592,27.10957 61.59118,-3.49176 -12.35231,29.78947 -64.14204,-6.19881 -59.0925,-32.11326 l 3.66,2.09349 c 0.13675,-8.34555 -3.46149,-16.1751 5.53505,-25.74269 10.06663,-5.75407 22.11773,-10.30249 32.13493,-16.14475 0.1011,-6.13836 4.73261,-12.510559 -1.25129,-17.364809 C 367.8779,68.626822 338.75429,95.22613 328.18632,69.810842 Z"
             stroke="#313131"
             stroke-linecap="round"
             stroke-linejoin="round"
             stroke-width="2.50465"
             id="path15" />
          <path
             d="m 382.10083,393.91697 c 9.43424,14.53916 23.93452,32.68642 45.21829,51.77257 3.7169,2.34666 9.14662,3.79647 13.21097,3.75244 3.25081,-0.0353 7.19145,-1.84158 11.15792,-3.66517 3.96645,-1.82363 7.95465,-3.66516 11.51495,-3.66516 2.3827,-4e-5 4.67634,0.6684 6.42696,1.83257 l 3.12422,7.59214 c -0.73408,4.28494 -4.01657,6.98127 -7.94444,6.98127 -1.46064,-3e-5 -2.77719,-0.78813 -4.10611,-1.48352 -1.32892,-0.69543 -2.66464,-1.30898 -4.10611,-1.30898 -0.88235,-4e-5 -1.77902,0.56429 -2.76716,1.30898 -0.98816,0.74465 -1.98176,1.66107 -3.30274,2.00712 -0.66707,0.17472 -1.43656,0.28977 -2.23158,0.34906 0.29266,0.0602 0.60996,0.12952 0.89263,0.17454 3.22716,0.51378 9.65591,-0.5236 15.44255,-0.5236 2.58397,-3e-5 4.70047,1.28564 6.0699,3.0543 l 0.7141,8.90112 c -0.31852,0.67437 -0.67356,1.32937 -1.16041,1.91985 -1.44988,1.75839 -3.69991,3.05431 -6.51623,3.05431 -1.64861,-3e-5 -2.88649,-0.51573 -3.83831,-1.22172 -0.95183,-0.70603 -1.62172,-1.63546 -2.14232,-2.53071 -0.52062,-0.89528 -0.92797,-1.74831 -1.33896,-2.35618 -0.41098,-0.60791 -0.74769,-0.87266 -1.24968,-0.87266 -1.62805,-3e-5 -2.94458,0.27947 -4.3739,0.5236 -0.9699,0.16562 -1.96094,0.2698 -3.12422,0.26179 1.08365,0.63371 2.14074,1.29542 3.21348,1.91985 3.14835,1.83264 6.18736,3.63875 8.56928,5.49776 2.38191,1.85896 4.14973,3.81576 4.73095,5.93408 0.20895,0.76154 0.22591,1.50434 0.17853,2.26891 l -5.62359,9.59925 c -1.44173,1.37014 -3.68079,2.35176 -5.98064,2.44345 -2.29985,0.0916 -4.66798,-0.68979 -6.24842,-2.79251 -1.96052,-2.60835 -2.32119,-6.35808 -2.76717,-9.86106 -0.44598,-3.50301 -1.03688,-6.70894 -3.30275,-8.55205 -2.42376,-1.97157 -4.65329,-2.85506 -7.05179,-3.40337 -2.39852,-0.54834 -4.97239,-0.74773 -7.94444,-1.39625 -5.08754,-1.11017 -9.61452,-4.43823 -13.21097,-10.55918 -2.47557,-0.91307 -6.13885,-1.43661 -8.56927,0 -1.26742,0.74914 -2.53775,2.27129 -4.01684,3.66517 -1.47908,1.39385 -3.26952,2.70524 -5.53433,2.70524 -2.24905,-3e-5 -4.74033,-0.82423 -6.69475,-2.26891 -1.95441,-1.44471 -3.30273,-3.56112 -3.30273,-6.19588 0,-0.40922 0.0623,-0.8127 0.0892,-1.22173 l 4.28464,-10.38463 c 1.69389,-1.6828 3.85261,-2.79251 6.3377,-2.79251 2.17462,-3e-5 5.29795,1.21365 8.48,2.70524 2.05687,0.9641 3.74935,2.00683 5.53433,3.05431 -10.84964,-11.26429 -28.31465,-23.82419 -39.98995,-36.47718 -0.58894,-0.63826 -1.88684,-2.42849 -3.57053,-2.97489 z m -164.24478,0 c -9.43423,14.53916 -25.95189,32.68642 -47.23566,51.77257 -3.71689,2.34666 -9.14662,3.79647 -13.21097,3.75244 -3.2508,-0.0353 -7.19145,-1.84158 -11.1579,-3.66517 -3.96647,-1.82363 -7.95466,-3.66516 -11.51497,-3.66516 -2.38268,-4e-5 -4.67633,0.6684 -6.42696,1.83257 l -3.1242,7.59214 c 0.73406,4.28494 4.01655,6.98127 7.94442,6.98127 1.46064,-3e-5 2.77719,-0.78813 4.10611,-1.48352 1.32893,-0.69543 2.66465,-1.30898 4.10611,-1.30898 0.88235,-4e-5 1.77902,0.56429 2.76717,1.30898 0.98815,0.74465 1.98175,1.66107 3.30274,2.00712 0.66706,0.17472 1.43655,0.28977 2.23158,0.34906 -0.29266,0.0602 -0.60996,0.12952 -0.89263,0.17454 -3.22716,0.51378 -9.65591,-0.5236 -15.44255,-0.5236 -2.58398,-3e-5 -4.70048,1.28564 -6.0699,3.0543 l -0.71411,8.90112 c 0.31852,0.67437 0.67358,1.32937 1.16043,1.91985 1.44986,1.75839 3.69989,3.05431 6.51621,3.05431 1.64862,-3e-5 2.88651,-0.51573 3.83833,-1.22172 0.95182,-0.70603 1.6217,-1.63546 2.14232,-2.53071 0.52061,-0.89528 0.92796,-1.74831 1.33894,-2.35618 0.41098,-0.60791 0.7477,-0.87266 1.24969,-0.87266 1.62804,-3e-5 2.94457,0.27947 4.3739,0.5236 0.9699,0.16562 1.96094,0.2698 3.12421,0.26179 -1.08363,0.63371 -2.14074,1.29542 -3.21348,1.91985 -3.14835,1.83264 -6.18736,3.63875 -8.56927,5.49776 -2.38192,1.85896 -4.14972,3.81576 -4.73095,5.93408 -0.20895,0.76154 -0.22592,1.50434 -0.17853,2.26891 l 5.62359,9.59925 c 1.44172,1.37014 3.68078,2.35176 5.98064,2.44345 2.29985,0.0916 4.66797,-0.68979 6.24843,-2.79251 1.9605,-2.60835 2.32119,-6.35808 2.76716,-9.86106 0.44598,-3.50301 1.03688,-6.70894 3.30274,-8.55205 2.42376,-1.97157 4.65329,-2.85506 7.0518,-3.40337 2.39851,-0.54834 4.97238,-0.74773 7.94443,-1.39625 5.08755,-1.11017 9.61453,-4.43823 13.21097,-10.55918 2.47557,-0.91307 6.13886,-1.43661 8.56928,0 1.26741,0.74914 2.53776,2.27129 4.01684,3.66517 1.47909,1.39385 3.26952,2.70524 5.53432,2.70524 2.24907,-3e-5 4.74033,-0.82423 6.69475,-2.26891 1.95443,-1.44471 3.30274,-3.56112 3.30274,-6.19588 0,-0.40922 -0.0623,-0.8127 -0.0892,-1.22173 l -4.28463,-10.38463 c -1.6939,-1.6828 -3.85261,-2.79251 -6.3377,-2.79251 -2.17462,-3e-5 -5.29795,1.21365 -8.48001,2.70524 -2.05685,0.9641 -3.74934,2.00683 -5.53432,3.05431 10.84964,-11.26429 28.31465,-23.82419 39.98995,-36.47718 0.58894,-0.63826 1.88684,-1.48823 3.57053,-2.03463 z"
             stroke="#313131"
             stroke-linecap="round"
             stroke-linejoin="round"
             stroke-width="2.50465"
             id="path17" />
          <path
             d="m 121.68305,442.26447 c -7.32911,0.29169 -12.93657,8.45349 -4.90947,14.66068 -1.15133,-4.8237 4.27898,-8.23118 10.08674,-4.01424 2.37165,-0.97349 4.0082,-5.42953 2.32085,-7.9412 -2.3811,-2.01543 -5.05506,-2.80247 -7.49812,-2.70524 z m 354.64302,0 c -2.44305,-0.0973 -5.117,0.68981 -7.49812,2.70524 -1.68737,2.51167 -0.0508,6.96771 2.32084,7.9412 5.80777,-4.21694 11.23809,-0.80946 10.08676,4.01424 8.02709,-6.20719 2.41964,-14.36899 -4.90948,-14.66068 z m -261.8092,3.75243 c -2.21246,0.15703 -4.43114,0.72626 -6.42696,1.74532 -3.8268,3.54881 -2.24195,10.23921 2.85643,12.04269 4.50581,-5.66058 12.62954,-2.87267 12.31833,3.49064 5.77598,-5.96815 4.71679,-11.61474 0.9819,-14.66067 -2.45707,-2.00382 -6.04225,-2.87969 -9.7297,-2.61798 z m 166.74381,0 c -2.89969,0.16343 -5.62173,1.01492 -7.58739,2.61798 -3.73489,3.04593 -4.70478,8.69252 1.07116,14.66067 -0.3112,-6.36331 7.81255,-9.15122 12.31833,-3.49064 5.09838,-1.80348 6.68324,-8.49388 2.85643,-12.04269 -2.66107,-1.35877 -5.75886,-1.90872 -8.65853,-1.74532 z m -258.14941,15.70786 c -0.57814,-0.0125 -1.14925,0.0451 -1.696,0.0872 -3.64503,0.28089 -6.58209,1.84484 -8.48002,4.3633 -2.88497,3.82819 -2.15471,11.60611 4.90949,13.26441 -2.56721,-5.40942 2.54585,-11.08019 10.4438,-7.50486 2.54819,-1.71743 2.97477,-6.69493 0.35705,-9.25019 -1.94128,-0.58997 -3.7999,-0.92257 -5.53432,-0.95993 z m 351.16175,0.0872 c -1.55984,0.0916 -3.1839,0.34826 -4.90949,0.87266 -2.61765,2.55526 -2.19113,7.53276 0.35705,9.25019 7.89794,-3.57533 12.92175,2.09544 10.35454,7.50486 7.0642,-1.6583 7.88374,-9.43622 4.99875,-13.26441 -2.27749,-3.02217 -6.12132,-4.63806 -10.80085,-4.3633 z m -337.68299,22.07827 c -5.67825,1.90812 -9.49596,6.69857 -9.81896,11.69363 -0.3069,4.74549 3.73566,10.64105 10.89012,9.77378 -4.93918,-4.1555 -1.41085,-11.7781 5.89137,-11.08276 2.16723,-4.85869 -1.69542,-10.65985 -6.96253,-10.38465 z m 324.82907,0 c -5.26711,-0.2752 -9.12976,5.52596 -6.96253,10.38465 7.30218,-0.69534 10.83056,6.92726 5.89137,11.08276 7.15442,0.86727 11.19702,-5.02829 10.89012,-9.77378 -0.32301,-4.99506 -4.14073,-9.78551 -9.81896,-11.69363 z"
             stroke="#313131"
             stroke-linecap="round"
             stroke-linejoin="round"
             stroke-width="2.50465"
             id="path19" />
          <use
             height="100%"
             stroke="#313131"
             transform="matrix(-1,0,0,1,601.00832,-1.00365)"
             width="100%"
             xlink:href="#b"
             id="use21"
             x="0"
             y="0" />
          <path
             id="b"
             d="m 123.69674,164.09245 c -31.061557,-3.0254 -61.296237,-12.7171 -74.195317,-26.70368 -0.237389,6.76482 17.011324,27.91 66.477327,36.90118 m -16.583666,23.63822 c -19.486402,2.43109 -66.153799,2.92699 -80.432035,-8.45894 2.805801,14.7578 35.01437,23.81664 84.733221,17.74717 m 43.59847,79.49428 c -16.56097,21.68322 -54.5924,62.35998 -92.60477,81.83568 23.377828,0.76223 81.52824,-49.50867 110.9328,-81.09172 M 116.90881,259.9281 c -15.09448,23.86667 -54.709729,41.55128 -77.652969,47.61348 38.006863,-0.76831 74.298579,-24.64107 91.398989,-40.17387 m -21.5821,-40.74552 c -23.652348,20.84407 -68.679924,28.58234 -83.442841,30.18676 15.212087,11.65309 77.125321,-7.22714 90.539801,-21.23025"
             stroke="#313131"
             stroke-linecap="round"
             stroke-linejoin="round"
             stroke-width="2.50465" />
          <path
             d="m 459.56942,140.68179 c 30.28343,-6.25813 48.92586,-18.9684 64.62498,-31.99552 23.84363,-4.28642 20.20751,42.52818 -46.88282,54.40253 m 3.44095,8.79065 c 33.72739,-2.08928 69.48868,-7.08231 82.15248,-20.73267 10.1643,-2.57529 14.44946,6.60755 11.43714,13.82646 -6.47606,15.51961 -41.06501,37.99794 -80.6861,33.27817 m 0,0 c 30.28365,19.50571 74.46057,21.4244 81.72238,11.77616 19.27515,32.20961 -49.6021,35.47191 -89.98245,20.92062 27.64356,30.66994 76.39207,39.73705 90.62762,37.96016 3.46369,8.85689 -13.45293,16.47921 -32.6746,16.15585 -26.93523,-0.45312 -62.61965,-11.29752 -75.11791,-29.10432 14.66747,22.22174 62.21964,66.41223 99.7915,70.29301 8.35844,6.30045 -1.16137,14.87921 -20.2573,14.87921 -47.18233,0 -100.86814,-54.33895 -114.3405,-76.32009 34.22392,49.40724 59.61958,91.26261 93.45589,112.14168 17.67686,10.90771 28.71367,8.68199 28.71367,14.74519 0,4.93099 -10.31436,9.99832 -21.61646,9.99832 -18.59731,0 -41.25801,-11.05439 -61.57006,-24.46783 -32.20897,-21.26978 -71.35191,-83.99571 -77.36048,-111.35498 1.56797,20.32982 13.56769,59.9459 22.01017,73.39781 3.96294,6.31444 12.0587,18.34053 15.60258,23.61186 2.90289,4.31788 11.88946,9.63634 11.88946,11.72627 0,3.96598 -3.18121,7.78787 -13.02254,7.43961 -5.39111,0 -14.93636,-4.30687 -28.03968,-12.39784 -20.60058,-12.72029 -38.01023,-51.16137 -46.46958,-102.5325 M 132.82525,256.95226 c -14.71549,22.23301 -62.267662,66.4235 -99.839517,70.30428 -8.358445,6.30045 1.161362,14.87921 20.257294,14.87921 47.182333,0 100.868143,-54.33895 114.340503,-76.32009 -34.22392,49.40724 -59.61958,91.26261 -93.455892,112.14168 -17.676856,10.90771 -28.713666,8.68199 -28.713666,14.74519 0,4.93099 10.314357,9.99832 21.616461,9.99832 18.59731,0 41.258007,-11.05439 61.570057,-24.46783 32.20897,-21.26978 71.35191,-83.99571 77.36048,-111.35498 -1.56797,20.32982 -13.56769,59.9459 -22.01017,73.39781 -3.96294,6.31444 -12.0587,18.34053 -15.60258,23.61186 -2.90289,4.31788 -11.88946,9.63634 -11.88946,11.72627 0,3.96598 3.18121,7.78787 13.02254,7.43961 5.39111,0 14.93636,-4.30687 28.03968,-12.39784 20.60058,-12.72029 36.9589,-52.16502 45.41825,-103.53615 M 141.4389,141.68544 c -30.28343,-6.25813 -48.925857,-18.9684 -64.624983,-31.99552 -23.84363,-4.28642 -20.20751,42.52818 46.882823,54.40253 m -3.44095,8.79065 c -33.727386,-2.08928 -69.488682,-7.08231 -82.152483,-20.73267 -10.1643,-2.57529 -14.449456,6.60755 -11.437134,13.82646 6.476062,15.51961 41.065006,37.99794 80.686097,33.27817 m 0,0 c -30.283653,19.50571 -74.460574,21.4244 -81.722381,11.77616 -19.2751529,32.20961 49.602104,35.47191 89.982451,20.92062 m 0,0 c -27.643561,30.66994 -76.392071,39.73705 -90.627623,37.96016 -3.46369,8.85689 13.45293,16.47921 32.674606,16.15585 26.935222,-0.45312 62.619647,-11.29752 75.069887,-29.09304"
             stroke="#313131"
             stroke-linecap="round"
             stroke-linejoin="round"
             stroke-width="2.50465"
             id="path24" />
          <path
             d="m 437.99789,122.45259 c -3.67353,3.42619 -8.04242,6.72589 -15.78401,7.05184 -10.44558,0.43981 -26.65275,-12.27551 -39.08117,-11.75223 -10.31932,0.4345 -18.20565,5.57289 -23.35019,10.04279 l 2.19331,12.50246 c 3.09629,-3.86927 10.66919,-13.1459 21.15313,-13.58731 11.5178,-0.48495 25.58805,10.84036 37.66411,10.33191 9.69015,-0.408 16.49976,-9.61352 17.20482,-14.58946 z m -276.03957,8.1e-4 c 3.67352,3.42621 8.0424,6.72592 15.78397,7.05187 10.44556,0.4398 26.65271,-12.27554 39.08111,-11.75225 10.31929,0.43449 18.20561,5.57289 23.35015,10.0428 l -2.19331,12.50247 c -3.09627,-3.86926 -10.66917,-13.14591 -21.1531,-13.58733 -11.51778,-0.48494 -25.58801,10.84039 -37.66404,10.33194 -9.69014,-0.408 -16.49974,-9.61355 -17.20478,-14.5895 z"
             stroke="#313131"
             stroke-linecap="round"
             stroke-linejoin="round"
             stroke-width="2.50465"
             id="path26" />
          <path
             d="m 399.30027,91.203834 c 11.52179,-2.408896 30.67689,11.069606 17.03146,29.169806 -2.45917,-12.30217 -17.73916,-14.79553 -23.80114,-9.11027 -13.19023,-1.4661 -30.6893,1.88122 -29.93041,20.30389 13.844,-0.44103 36.15836,0.22567 39.53424,15.63708 -16.67514,-6.39117 -46.52551,8.47457 -45.92034,-7.75404 1.29822,2.94793 2.31344,0.0765 2.981,-0.73387 -1.407,-5.76945 -8.49854,-13.84267 -3.03049,-17.97175 14.87656,-11.23372 22.9759,-15.49156 43.13568,-29.540846 z m -198.64441,7.71e-4 c -11.52177,-2.408896 -30.67684,11.069615 -17.03142,29.169855 2.45916,-12.30219 17.73912,-14.79556 23.80109,-9.11028 13.19022,-1.4661 30.68924,1.88122 29.93036,20.30392 -13.84398,-0.44103 -36.1583,0.22566 -39.53418,15.63711 16.67512,-6.3912 46.52544,8.47458 45.92027,-7.75406 -1.29822,2.94794 -2.31344,0.0765 -2.98099,-0.73387 1.40698,-5.76946 8.49852,-13.84269 3.03047,-17.97179 -14.87653,-11.23372 -22.97586,-15.49157 -43.1356,-29.540885 z"
             fill-rule="evenodd"
             stroke="#313131"
             stroke-linecap="round"
             stroke-linejoin="round"
             stroke-width="2.50465"
             id="path28" />
          <path
             d="m 399.30027,91.203832 c -16.61499,1.471251 -27.038,-2.023157 -42.84188,-4.71307 6.90925,0.684086 14.76253,3.714453 19.01075,7.822608 2.59049,2.50506 6.84874,4.955075 9.88327,3.433245 2.25269,-1.129731 3.85449,-4.143188 5.86227,-5.050838 2.00777,-0.90768 4.42152,0.290519 8.08559,-1.491945 z M 200.86833,91.078744 c 16.61499,1.471251 27.038,-2.023157 42.84188,-4.71307 -6.90925,0.684086 -14.76253,3.714453 -19.01075,7.822608 -2.59049,2.50506 -6.84874,4.955075 -9.88327,3.433245 -2.25269,-1.129731 -3.85449,-4.143188 -5.86227,-5.050838 -2.00777,-0.90768 -4.42152,0.290519 -8.08559,-1.491945 z"
             fill="none"
             stroke="#313131"
             stroke-linecap="round"
             stroke-linejoin="round"
             stroke-width="2.50465"
             id="path30" />
          <path
             d="m -381.08138,94.592949 a 1.6597657,1.7929116 0 0 1 -1.65977,1.792912 1.6597657,1.7929116 0 0 1 -1.65977,-1.792912 1.6597657,1.7929116 0 0 1 1.65977,-1.792912 1.6597657,1.7929116 0 0 1 1.65977,1.792912 z m 161.99415,-0.125092 a 1.6597657,1.7929116 0 0 0 1.65977,1.792912 1.6597657,1.7929116 0 0 0 1.65977,-1.792912 1.6597657,1.7929116 0 0 0 -1.65977,-1.792911 1.6597657,1.7929116 0 0 0 -1.65977,1.792911 z"
             fill="#313131"
             stroke="#313131"
             stroke-linecap="round"
             stroke-linejoin="round"
             stroke-width="2.50465"
             transform="scale(-1,1)"
             id="path32" />
          <path
             id="c"
             d="m 94.930344,140.47189 c 11.005666,8.07652 20.328626,11.29937 34.958506,13.69937 1e-5,0 2.30847,-2.26895 2.30847,-2.26895 -14.49882,-2.37851 -25.13812,-5.16186 -36.208922,-12.47037 -0.998102,-0.65891 -1.855537,0.45472 -1.058054,1.03995 z M 69.23786,177.62821 c 10.976486,7.96344 24.168912,11.05937 45.93482,8.9812 l 2.80785,-2.56778 c -21.147517,2.47365 -37.359593,0.25444 -47.579213,-7.46097 -0.899057,-0.67875 -1.885961,0.52337 -1.163457,1.04755 z m 47.74251,34.86426 c -6.72909,5.11235 -16.77852,9.03585 -26.03471,10.90125 -9.256175,1.8654 -17.999639,2.26327 -22.635145,1.89617 -1.193602,-0.0945 -1.366596,1.23125 -0.177879,1.32695 5.006795,0.40306 14.214407,0.54528 23.648396,-1.35595 9.433988,-1.90122 20.029388,-5.61399 26.099258,-10.29271 l -0.89989,-2.47545 z m 21.30572,22.81296 c 1e-5,-1e-5 -3.4508,0.51193 -3.4508,0.51193 -10.87894,13.29005 -25.54243,24.47776 -46.546116,29.81349 -1.081397,0.29024 -0.574154,1.66669 0.569069,1.35986 21.781737,-5.11877 38.624287,-16.8938 49.671477,-30.38941 l -0.24373,-1.2964 z m 17.64868,20.88872 c -10.87465,21.88227 -47.47534,53.09434 -47.47534,53.09434 -0.86744,0.86886 0.46617,1.667 1.16476,0.96726 0,0 38.26996,-30.778 49.29496,-52.96283 l -2.98437,-1.09865 z m 69.53086,3.35941 c 1.61766,25.02519 -4.22697,47.19542 -16.64885,67.33872 -0.5418,0.87858 1.02555,1.43878 1.54937,0.58945 12.54238,-20.3363 19.69344,-42.78488 18.06002,-68.05373 l -2.96063,0.12616 z m -40.57382,4.24189 c -5.1955,34.32968 -24.07547,59.01359 -51.1559,88.48717 -0.60966,0.66354 0.48113,1.64772 1.35714,0.77838 21.7824,-21.61672 48.90567,-52.34359 53.31414,-89.1685 l -3.51537,-0.0967 z"
             fill="#313131"
             stroke="none" />
          <g
             stroke="#313131"
             id="g39">
            <use
               height="100%"
               transform="matrix(-1,0,0,1,600.0101,-0.29587)"
               width="100%"
               xlink:href="#c"
               id="use35"
               x="0"
               y="0" />
            <path
               d="M 356.57116,541.57126 C 332.8551,525.95634 317.64944,490.78406 311.8409,469.40958 m -46.83446,-173.948 c 0,0 4.78742,9.90319 8.71401,13.82989 2.26146,2.26152 4.74748,8.156 4.70575,15.0737 m -24.1097,45.29386 c 0,0 13.95484,-22.42517 28.02497,-3.43671 m 51.78123,-33.04898 c 7.07473,4.15482 12.70249,9.17805 18.0027,18.20394 M 300,384.55236 v 54.45391 m 0,142.17757 v -51.6735 m -56.43476,12.06092 c 23.71606,-15.61492 38.79541,-50.7872 44.60395,-72.16168 M 239.61661,240.57214 c -10.2084,13.7766 4.52958,23.47833 15.61697,15.24792 M 223.0725,241.76588 c -10.64841,14.37038 4.97861,24.95803 16.16022,14.73359 m -37.24981,-12.27446 c -12.50649,16.37231 9.13069,27.42338 18.86576,12.53684 M 178.11376,244.6974 c -13.46282,16.44132 9.54843,27.39321 20.04316,12.45186 m -56.87594,-107.2669 c -10.15524,-4.37792 -18.80486,10.35393 -8.74295,14.51756 -12.10586,-0.70184 -17.1946,15.2205 -4.84053,14.58531 -21.93984,4.92035 -17.87385,25.78761 -0.92453,20.35917 -18.70858,5.01388 -8.81748,26.3934 4.51992,17.25779 -12.85965,13.2557 -0.39584,27.10988 9.90777,14.90258 -10.65467,14.52515 6.25018,20.83116 14.53635,7.62027 -13.46283,16.44132 8.16779,27.29096 18.66254,12.34959 m 185.99393,-11.19836 c 10.20839,13.7766 -4.52958,23.47833 -15.61697,15.24791 m 32.16108,-14.05417 c 10.6484,14.37038 -4.97861,24.95803 -16.16022,14.73359 m 37.24981,-12.27447 c 12.50648,16.37231 -9.1307,27.42339 -18.86576,12.53685 m 42.73491,-12.06445 c 13.46282,16.44132 -9.54843,27.39321 -20.04316,12.45185 m 56.87594,-107.26689 c 10.15524,-4.37792 18.80486,10.35393 8.74295,14.51756 12.10586,-0.70184 17.1946,15.2205 4.84053,14.58531 21.93983,4.92035 17.87385,25.7876 0.92453,20.35917 18.70857,5.01388 8.81748,26.3934 -4.51992,17.25779 12.85964,13.2557 0.39584,27.10988 -9.90777,14.90258 10.65466,14.52515 -6.25019,20.83116 -14.53635,7.62026 13.46283,16.44132 -8.1678,27.29097 -18.66254,12.34959"
               fill="none"
               stroke-linecap="round"
               stroke-linejoin="round"
               stroke-width="2.50465"
               id="path37" />
          </g>
        </g>
      </g>
      <path
         d="M 0.13,0.67 H 97 V 68.016737 C 97,70.581469 96.567052,113.52 48.564999,113.52 0.56294673,113.52 0.0469534,70.581467 0.05,68.016737 Z"
         id="path2187"
         style="fill:none;fill-opacity:1;stroke:#000000;stroke-width:1.48447;stroke-miterlimit:4;stroke-dasharray:none"
         inkscape:label="coa-f"
         sodipodi:nodetypes="ccszsc" />
    </g>
  </g>
</svg>
