<svg xmlns="http://www.w3.org/2000/svg" viewBox="0 0 745.09 892.8"><defs><style>.cls-1{fill:none;}.cls-2{fill:#1d1d1b;}.cls-3{fill:#3c3c3b;}.cls-4{fill:#2695c1;}.cls-5{fill:#008962;}.cls-6{fill:#007859;}.cls-7{fill:#6e5d53;}.cls-8{fill:#8c7763;}.cls-9{fill:#35204e;}.cls-10{fill:#fff;}.cls-11{fill:#91ae88;}.cls-12{fill:#8c7a72;}.cls-13{fill:#d90912;}.cls-14{fill:#cd5e65;}.cls-15{fill:#407960;}.cls-16{fill:#52514f;}.cls-17{fill:#fcce4d;}.cls-18{fill:#fdc300;}.cls-19{fill:#a07c16;}.cls-20{fill:#077ca1;}.cls-21{fill:#bdbcbc;}.cls-22{fill:#e6a400;}.cls-23{fill:#14708c;}.cls-24{fill:#dadada;}.cls-25{fill:#c6c6c6;}.cls-26{fill:#d0d0d0;}.cls-27{fill:#ccc;}</style></defs><g id="Livello_2" data-name="Livello 2"><g id="Livello_1-2" data-name="Livello 1"><rect class="cls-1" width="745.09" height="892.8"/><path class="cls-2" d="M264.28,713c1.15.19,2.67.74,3.45.83.23.05.69.42.69,1.38s.18,3,.28,4.05-.28,1.56-.69,1.56c-.23,0-.56-.5-.74-1.24a7.26,7.26,0,0,0-1.93-3.36,11.21,11.21,0,0,0-7.27-2.48c-7.36,0-11.82,6.07-11.82,13a17,17,0,0,0,1.56,7.64,13,13,0,0,0,11.41,7.22,10.42,10.42,0,0,0,4.88-1.15,10.67,10.67,0,0,0,4.23-4.42c.55-1,.78-1.24,1-1.24.51,0,.51,1,.41,1.52a18.5,18.5,0,0,1-1.74,4.55,4,4,0,0,1-1.48,1.25,28.58,28.58,0,0,1-8.32,1.28c-6.54,0-11.32-3.17-13.16-5.33a15.52,15.52,0,0,1-3.87-10.54,15.06,15.06,0,0,1,5.11-11,18.88,18.88,0,0,1,12.42-4.19A30,30,0,0,1,264.28,713Z"/><path class="cls-2" d="M305.78,727.41a15.85,15.85,0,0,1-6.39,13.16,17,17,0,0,1-9.25,2.8,16.07,16.07,0,0,1-12-5.19,15.22,15.22,0,0,1-3.87-10.45,15.06,15.06,0,0,1,6-12.24,16.58,16.58,0,0,1,9.53-3.22C298.93,712.27,305.78,718.94,305.78,727.41Zm-23.09-11.09c-2,1.89-3.5,5.34-3.5,10.77,0,6.85,4.88,14.67,12.05,14.67,3.59,0,5.34-1.56,5.8-2.11,1.89-1.75,3.86-5.48,3.86-10.86,0-4.69-2-9.71-5.43-12.51a11.4,11.4,0,0,0-6.71-2.49A9.57,9.57,0,0,0,282.69,716.32Z"/><path class="cls-2" d="M311.9,713c3,0,3.55.1,6.4.1.14,0,.46.41.55.64a25.81,25.81,0,0,0,1.7,4.14c2.53,5.29,7.69,15.92,8.38,16.84,0,.14.36.27.46.18.55-1.06,8.41-16.05,9.29-18.31.09-.27.83-1.93,1.15-2.85.05-.18.37-.64.51-.64,2,0,5.65-.14,6.07-.14.6,0,1.24.09,1.24.5s-.41.6-1.2.79a7.67,7.67,0,0,0-2.07.64c-.73.28-1.38,1.15-1.38,3.54,0,11.73.42,18.22.6,19.79.28,1.93.74,2.43,3,3.08.83.23,1.24.55,1.24.87s-.64.65-1.33.65c-.51,0-4.23-.23-5.94-.23-.82,0-2.57.13-3.63.13-.6,0-1.29-.18-1.29-.64s.6-.69,1.24-.87c1.89-.51,1.94-1.66,2.07-3.36.19-2.12.14-15.18.05-17.49,0-.36-.23-.64-.46-.18-.74,1.29-5.61,11-7.31,14.63-1.11,2.44-2.12,4.88-2.81,6.58-.51,1.33-.83,1.33-1.1,1.33s-.6-.41-.79-.92a35,35,0,0,0-1.7-4.83c-2.44-6-6.26-13.57-7.77-17.07-.14-.27-.28-.27-.33.14a161.23,161.23,0,0,0-.69,17.44c0,2.39.46,3.08,2.81,3.77,1,.28,1.2.51,1.2.92s-.51.55-1.25.55c-1.47,0-3.31-.13-4.5-.13s-2.67.13-3.78.13c-.69,0-1.24-.09-1.24-.64,0-.23.37-.51,1-.69,2.8-.83,3.13-1.57,3.54-4.33.41-3.22,1.43-16,1.52-19.59a2.72,2.72,0,0,0-2-2.72c-.78-.18-1.38-.37-2-.5-.32-.1-.78-.42-.78-.79S310.89,713,311.9,713Z"/><path class="cls-2" d="M351.7,712.92c1.94,0,3.22.14,4.93.14s3.58-.1,4.6-.1c.87,0,1.38.19,1.38.56s-.46.64-1.34.82c-1.65.33-2.48.83-2.76,2.67-.18,1.52-.18,6.21-.18,12.75,0,5.24,1.15,7.13,2.62,8.74,1.24,1.42,4.28,2.39,6.4,2.39,3,0,7.36-1.24,8.51-6.35a76.88,76.88,0,0,0,.78-17.39c-.14-1.7-.55-2.35-3-2.94-.46-.1-1.06-.46-1.06-.79s.33-.5,1.15-.5c1.11,0,2.49.14,4,.14,1.89,0,2.9-.1,4.19-.1.73,0,1.15.19,1.15.56s-.42.55-1.06.78c-2,.6-2.95,1.38-3,4.23-.05,2.07-.32,7.22-.42,9.62-.27,8-2.48,11.82-5.75,13.7a13.39,13.39,0,0,1-6.58,1.43,12.92,12.92,0,0,1-8.37-2.71c-2.57-2.44-3.72-5.71-3.72-13.34,0-6-.1-10.36-.14-11-.09-.88-.74-1.61-2.49-2-.55-.14-1.05-.42-1.05-.83S351,712.92,351.7,712.92Z"/><path class="cls-2" d="M386.26,712.92c1.06,0,3.59.14,5.93.14a2,2,0,0,1,1,.59c.69.83,1.84,2.26,3.64,4.56,2.11,2.67,12,13.29,15,16.51.28.28.46-.18.46-.32.23-1.42.09-6.44.09-12.51,0-1.57-.14-3.27-.23-4.65,0-1-.41-2.07-2.9-2.76-.92-.27-1.28-.6-1.28-1s.59-.46,1.24-.46c1.15,0,2.39,0,3.77,0,1.75,0,3.31-.19,4.51-.19.78,0,1.06.19,1.06.51s-.28.73-1.11.92c-2,.55-2.76,1.06-2.9,3.4-.13,1.61-.5,11.27-.5,18.31,0,1.93.32,5.52.32,6.35,0,.46-.32,1-.69,1-.73,0-1.7-1-2.16-1.57-.78-1-1.66-2.16-2.9-3.68-4.32-5.15-12.15-13.94-16.29-18.86-.18-.23-.55-.09-.55.09,0,1.25-.18,2.53-.18,6.12,0,4.6-.19,10.9,0,12.51.14,2,.64,2.72,2.9,3.36.92.23,1.15.55,1.15.83,0,.46-.6.65-1.48.65-1.33,0-3.08-.23-4.73-.23-1,0-2.49.09-3.27.09s-1.2-.09-1.2-.51.46-.69.92-.83c2.17-.69,3.09-.87,3.27-4.32.23-4,.87-14.59.87-18.31,0-1.7-.23-2.16-.36-2.3-1.15-1.38-1.61-1.61-3.78-2.12-.5-.14-1-.41-1-.73S385.29,712.92,386.26,712.92Z"/><path class="cls-2" d="M437.19,713.06a33.47,33.47,0,0,0,4.23-.19c.14,0,.37.32.42.55,0,1.84.09,3.55.09,4.47,0,.64-.32,1.24-.74,1.24s-.64-.65-.73-1.15c-.6-2.44-1.66-3-3-3.18a53,53,0,0,0-6.53-.23c-.09,0-.55.23-.65,1.34s-.23,9.34-.13,10.4a.37.37,0,0,0,.36.41h3.09c4.14,0,4.23-.14,5.06-2.25.27-.7.59-1,.87-1s.46.69.41,1.11c-.09,1.24-.13,2.16-.13,3.26s.09,1.89.13,2.9c0,.83-.18,1.29-.55,1.29s-.64-.51-.78-1c-.64-2.11-.92-2.3-3.5-2.43-1.47-.1-3.31-.1-4.6-.1-.18,0-.41.33-.41.42-.18,1.06-.14,5.2-.14,7.08a16.73,16.73,0,0,0,.37,3.77,1.78,1.78,0,0,0,.92,1.06,25.16,25.16,0,0,0,4.09.33,21.89,21.89,0,0,0,4.37-.37,5.86,5.86,0,0,0,3.73-3.41c.55-1.06.87-1.33,1.15-1.33s.46.78.37,1.29a35.76,35.76,0,0,1-1.66,5,1.66,1.66,0,0,1-.87.51c-.51,0-8.37-.32-15-.32-2.54,0-3.45.23-5.16.23-.87,0-1.42-.1-1.42-.6s.55-.6,1.28-.79c2.35-.5,3.18-.91,3.36-3.4.14-1.89.32-6.9.32-12.6,0-5.53.1-6.72,0-8.06-.13-1.93-.59-2.57-2.57-3-1-.23-1.38-.41-1.38-.78s.69-.64,1.33-.64c2.16,0,4.37.14,7.27.14Z"/><path class="cls-2" d="M483.48,717.1a15,15,0,0,1,4.23,10.13,15.59,15.59,0,0,1-7.32,13.25,22.37,22.37,0,0,1-10.9,2.53c-1.88,0-6.07-.14-9.06-.33-1,0-1.84,0-2.58,0-1,0-1.47-.33-1.47-.69s.46-.65,1.06-.69c3.08-.37,3.31-1.2,3.45-5,.09-2.21.14-3.73.14-6.26s0-8-.23-11.59c-.1-3-.14-3.64-2.9-4.05-.51-.09-1.06-.37-1.06-.69s.46-.64,1.15-.64h1.52c2.3,0,7.5-.37,11.31-.37A19,19,0,0,1,483.48,717.1Zm-17.67-2.57a.91.91,0,0,0-.46.6c-.09.69-.18,4.51-.18,8.6v6.67c0,3.17,0,5.89.18,7.91a3.34,3.34,0,0,0,1,2.12,8.09,8.09,0,0,0,3.64,1.2,14,14,0,0,0,8.23-3c2.76-2.35,4.65-6.44,4.65-11.41a14,14,0,0,0-4.69-10.35c-2.21-1.75-6-2.81-9.39-2.81A6.64,6.64,0,0,0,465.81,714.53Z"/><path class="cls-2" d="M496,717.66c-.14-2.17-.14-2.86-2.63-3.32-1.06-.23-1.33-.55-1.33-.82s.5-.6,1.24-.6c1.2,0,3.54.14,5.06.14,2.26,0,3.41-.14,5-.14.78,0,1.24.18,1.24.6s-.51.64-1.24.78c-2.58.5-2.63,1.65-2.76,2.9-.19,1.47-.28,4.14-.28,13,0,3.13.05,5.8.14,7.27.18,2.53.37,3.36,3.26,3.95.83.19,1.25.46,1.25.83s-.74.6-1.29.6c-2.26,0-5.48-.27-6.86-.27s-2,.09-3.68.09c-.92,0-1.24-.33-1.24-.69s.41-.6,1.38-.78c2.25-.51,2.44-1.25,2.62-3.36.14-1.66.23-6.44.23-10.35C496.13,724.74,496.09,719.22,496,717.66Z"/><path class="cls-2" d="M97.73,768.71a3.18,3.18,0,0,0-1.8.57c-.25.2-.57.9-.64,2.44-.06,1.35-.06,9.37-.13,16.68,0,5.83.13,10.9.13,12.5.07,4.17.52,4.75,3.91,5.71,1.22.32,1.67.71,1.67,1.28s-1.15.77-2.05.77c-1.67,0-4.23-.25-7.06-.25-1.86,0-4.61.25-6.54.25-1.22,0-2-.32-2-1,0-.45.76-.83,1.41-1,3.46-.77,4.23-2,4.36-4.68.19-3,.32-8.08.32-11.28,0-2.12-.07-15.85-.19-17.83-.07-2.31-.07-3.27-3.66-3.79-1.22-.13-1.86-.57-1.86-1s.58-.77,1.41-.83a20.17,20.17,0,0,1,2.12-.07c2.88,0,7.95-.51,11-.51,6,0,9.81,1.47,12.18,3.78a12.74,12.74,0,0,1-.64,18.6,12.83,12.83,0,0,1-7.44,2.82,14.66,14.66,0,0,1-3.46-.44c-.71-.33-1.09-.71-1.09-1.1s.32-.57.83-.57H100c3.27,0,7.89-3.08,7.89-10.26C107.86,773.84,103.63,768.71,97.73,768.71Z"/><path class="cls-2" d="M165.07,787.31c0,8.85-4.23,14.94-8.92,18.34a23.59,23.59,0,0,1-12.89,3.91,22.4,22.4,0,0,1-16.67-7.25,21.23,21.23,0,0,1-5.39-14.55c0-7.83,3.53-13.15,8.34-17.06a23,23,0,0,1,13.28-4.49C155.51,766.21,165.07,775.51,165.07,787.31Zm-32.2-15.46c-2.75,2.63-4.87,7.44-4.87,15,0,9.55,6.8,20.46,16.8,20.46,5,0,7.44-2.18,8.08-3,2.63-2.44,5.39-7.64,5.39-15.14,0-6.54-2.82-13.53-7.57-17.44a15.89,15.89,0,0,0-9.36-3.47A13.39,13.39,0,0,0,132.87,771.85Z"/><path class="cls-2" d="M206.69,767.55c1.22.26,1.8.39,2.57.52.19,0,.7.51.77,1.54,0,1.6.83,4.74.83,7.18,0,.83-.32,1.47-.83,1.47s-.84-.57-1.16-1.54a17.91,17.91,0,0,0-2.5-4.49c-1.41-1.66-5.13-4-10.26-4-10.71,0-17,8.92-17,19a22.63,22.63,0,0,0,2.82,11.67,17.75,17.75,0,0,0,15.13,8.72,13.05,13.05,0,0,0,5.45-1.47,6.57,6.57,0,0,0,1.29-3.59c0-2.25-.07-5.71-.2-6.48-.44-1.48-1-2.63-5.57-3-1-.06-1.74-.57-1.74-1.09s.77-1,2-1c1.41,0,5.84.26,7.63.26,1.54,0,4-.26,6.16-.26,1.09,0,1.73.39,1.73.9s-.7.83-1.47,1.09c-2,.58-2.06,1.28-2.31,2a76.5,76.5,0,0,0-.32,8,2.19,2.19,0,0,0,1,1.86c1,.58,1,.77,1,1.16s-.32.7-1,.9c-1.15.32-3.33.83-5.83,1.47a42.49,42.49,0,0,1-9,1.22c-7.12,0-13.22-2.24-17.06-5.77A21.55,21.55,0,0,1,172.19,788a20.62,20.62,0,0,1,7.18-16c4-3.59,10.33-5.77,16.61-5.77A48.08,48.08,0,0,1,206.69,767.55Z"/><path class="cls-2" d="M255.18,767.55c1.22.26,1.8.39,2.57.52.19,0,.7.51.77,1.54,0,1.6.83,4.74.83,7.18,0,.83-.32,1.47-.83,1.47s-.84-.57-1.16-1.54a17.91,17.91,0,0,0-2.5-4.49c-1.41-1.66-5.13-4-10.26-4-10.71,0-17,8.92-17,19a22.63,22.63,0,0,0,2.82,11.67,17.78,17.78,0,0,0,15.14,8.72A13.05,13.05,0,0,0,251,806.1a6.65,6.65,0,0,0,1.28-3.59c0-2.25-.06-5.71-.19-6.48-.45-1.48-1-2.63-5.58-3-1-.06-1.73-.57-1.73-1.09s.77-1,2-1c1.41,0,5.83.26,7.63.26,1.54,0,4-.26,6.16-.26,1.09,0,1.73.39,1.73.9s-.71.83-1.48,1.09c-2,.58-2.05,1.28-2.3,2a73.13,73.13,0,0,0-.33,8,2.2,2.2,0,0,0,1,1.86c1,.58,1,.77,1,1.16s-.32.7-1,.9c-1.15.32-3.33.83-5.84,1.47a42.41,42.41,0,0,1-9,1.22c-7.12,0-13.21-2.24-17.06-5.77a21.55,21.55,0,0,1-6.6-15.84,20.59,20.59,0,0,1,7.18-16c4-3.59,10.33-5.77,16.61-5.77A48.17,48.17,0,0,1,255.18,767.55Z"/><path class="cls-2" d="M273.2,773.71c-.19-3-.19-4-3.65-4.62-1.48-.32-1.86-.77-1.86-1.15s.7-.84,1.73-.84c1.67,0,4.94.2,7.05.2,3.15,0,4.75-.2,7-.2,1.09,0,1.74.26,1.74.84s-.71.9-1.74,1.09c-3.59.7-3.65,2.31-3.84,4-.26,2-.39,5.77-.39,18.08,0,4.37.06,8.08.19,10.14.26,3.52.52,4.68,4.56,5.51,1.15.26,1.73.64,1.73,1.16s-1,.83-1.8.83c-3.14,0-7.63-.38-9.55-.38s-2.76.12-5.13.12c-1.29,0-1.74-.44-1.74-1s.58-.83,1.93-1.09c3.14-.7,3.4-1.73,3.65-4.68.2-2.31.33-9,.33-14.43C273.4,783.59,273.33,775.89,273.2,773.71Z"/><path class="cls-2" d="M335,787.31c0,8.85-4.23,14.94-8.91,18.34a23.61,23.61,0,0,1-12.89,3.91,22.4,22.4,0,0,1-16.68-7.25,21.23,21.23,0,0,1-5.38-14.55c0-7.83,3.52-13.15,8.33-17.06a23,23,0,0,1,13.28-4.49C325.41,766.21,335,775.51,335,787.31Zm-32.19-15.46c-2.76,2.63-4.88,7.44-4.88,15,0,9.55,6.8,20.46,16.81,20.46,5,0,7.44-2.18,8.08-3,2.63-2.44,5.38-7.64,5.38-15.14,0-6.54-2.82-13.53-7.56-17.44a15.91,15.91,0,0,0-9.37-3.47A13.36,13.36,0,0,0,302.77,771.85Z"/><path class="cls-2" d="M374.47,767.75c.58,1.73,1.67,4.68,2.82,7.82,3.4,9.49,8.15,22,9.24,24.75,2.11,5.2,3.2,5.71,6,6.48,1,.26,1.61.58,1.61,1s-.52.9-2.12.9c-2,0-5.52-.32-8.15-.32-2.11,0-3.27.12-4.93.12s-2-.44-2-.83.38-.83,1.6-1c2.95-.57,2.76-1.86,2.57-3.14-.45-2.44-2.06-6.54-3.53-10.64-.07-.26-.39-.71-2-.71-4.23,0-9.3.13-10.58.26-.26,0-.58.38-.71.57-1.79,4.36-3.27,9.24-3.27,10.78,0,.83.39,1.92,3.21,2.76,1.09.32,1.73.7,1.73,1.21s-1,.84-1.86.84c-1.09,0-2.69-.19-5.07-.19s-5.64.32-6.6.32c-1.22,0-1.54-.32-1.54-.71s.38-1,1.47-1.28c3.21-1,4.05-1.35,5.84-5.45,1.54-3.27,8.72-22.45,11.42-28.86.32-.84.45-1.22.57-1.61a6.64,6.64,0,0,1,.45-1c.45-.71,1.35-2,1.8-2.76s.77-.83,1.09-.83S374,766.4,374.47,767.75Zm1.67,21c-1-3.15-4.23-12.45-4.88-13.6-.19-.38-.38-.38-.57.07-1.16,3.07-4.43,11.86-4.94,13.78a.36.36,0,0,0,.38.45c2.5-.06,7.7,0,9.88-.13C376.07,789.29,376.2,789,376.14,788.72Z"/><path class="cls-2" d="M442.2,767.17c1.6.26,3.72,1,4.81,1.15.32.07,1,.58,1,1.93s.26,4.17.38,5.64-.38,2.18-1,2.18c-.32,0-.77-.7-1-1.73a10.1,10.1,0,0,0-2.7-4.68,15.54,15.54,0,0,0-10.13-3.47c-10.26,0-16.48,8.47-16.48,18.15A23.64,23.64,0,0,0,419.24,797a18.14,18.14,0,0,0,15.9,10.07,14.55,14.55,0,0,0,6.8-1.6,14.86,14.86,0,0,0,5.9-6.16c.77-1.41,1.09-1.73,1.41-1.73.71,0,.71,1.41.58,2.11a25.27,25.27,0,0,1-2.44,6.35,5.4,5.4,0,0,1-2.05,1.73,39.33,39.33,0,0,1-11.61,1.8c-9.11,0-15.78-4.42-18.34-7.44A21.59,21.59,0,0,1,410,787.43,21,21,0,0,1,417.12,772a26.3,26.3,0,0,1,17.32-5.83A41,41,0,0,1,442.2,767.17Z"/><path class="cls-2" d="M477.09,767.75c.57,1.73,1.66,4.68,2.82,7.82,3.4,9.49,8.14,22,9.23,24.75,2.12,5.2,3.21,5.71,6,6.48,1,.26,1.6.58,1.6,1s-.51.9-2.12.9c-2,0-5.51-.32-8.14-.32-2.12,0-3.27.12-4.94.12s-2-.44-2-.83.39-.83,1.61-1c2.95-.57,2.75-1.86,2.56-3.14-.45-2.44-2.05-6.54-3.53-10.64-.06-.26-.38-.71-2-.71-4.24,0-9.3.13-10.59.26-.25,0-.57.38-.7.57-1.8,4.36-3.27,9.24-3.27,10.78,0,.83.38,1.92,3.2,2.76,1.1.32,1.74.7,1.74,1.21s-1,.84-1.86.84c-1.09,0-2.7-.19-5.07-.19s-5.64.32-6.61.32c-1.21,0-1.53-.32-1.53-.71s.38-1,1.47-1.28c3.21-1,4-1.35,5.84-5.45,1.54-3.27,8.72-22.45,11.41-28.86.32-.84.45-1.22.58-1.61a5.08,5.08,0,0,1,.45-1c.45-.71,1.35-2,1.79-2.76s.77-.83,1.09-.83S476.64,766.4,477.09,767.75Zm1.66,21c-1-3.15-4.23-12.45-4.87-13.6-.19-.38-.39-.38-.58.07-1.15,3.07-4.42,11.86-4.94,13.78a.36.36,0,0,0,.39.45c2.5-.06,7.69,0,9.88-.13C478.69,789.29,478.82,789,478.75,788.72Z"/><path class="cls-2" d="M505.31,773.71c-.2-3-.2-4-3.66-4.62-1.47-.32-1.86-.77-1.86-1.15s.71-.84,1.73-.84c1.67,0,4.94.2,7.06.2,3.14,0,4.74-.2,7-.2,1.09,0,1.73.26,1.73.84s-.71.9-1.73,1.09c-3.59.7-3.66,2.31-3.85,4-.26,2-.39,5.77-.39,18.08,0,4.37.07,8.08.2,10.14.25,3.52.51,4.68,4.55,5.51,1.15.26,1.73.64,1.73,1.16s-1,.83-1.79.83c-3.15,0-7.64-.38-9.56-.38s-2.76.12-5.13.12c-1.28,0-1.73-.44-1.73-1s.58-.83,1.92-1.09c3.14-.7,3.4-1.73,3.66-4.68.19-2.31.32-9,.32-14.43C505.5,783.59,505.43,775.89,505.31,773.71Z"/><path class="cls-2" d="M543.59,767.75c.58,1.73,1.67,4.68,2.82,7.82,3.4,9.49,8.15,22,9.24,24.75,2.12,5.2,3.21,5.71,6,6.48,1,.26,1.61.58,1.61,1s-.52.9-2.12.9c-2,0-5.51-.32-8.14-.32-2.12,0-3.27.12-4.94.12s-2-.44-2-.83.38-.83,1.6-1c3-.57,2.76-1.86,2.57-3.14-.45-2.44-2.05-6.54-3.53-10.64-.06-.26-.38-.71-2-.71-4.23,0-9.3.13-10.58.26-.26,0-.58.38-.7.57-1.8,4.36-3.28,9.24-3.28,10.78,0,.83.39,1.92,3.21,2.76,1.09.32,1.73.7,1.73,1.21s-1,.84-1.86.84c-1.09,0-2.69-.19-5.06-.19s-5.65.32-6.61.32c-1.22,0-1.54-.32-1.54-.71s.39-1,1.48-1.28c3.2-1,4-1.35,5.83-5.45,1.54-3.27,8.72-22.45,11.42-28.86.32-.84.45-1.22.58-1.61a5.51,5.51,0,0,1,.44-1c.45-.71,1.35-2,1.8-2.76s.77-.83,1.09-.83S543.14,766.4,543.59,767.75Zm1.67,21c-1-3.15-4.23-12.45-4.87-13.6-.2-.38-.39-.38-.58.07-1.16,3.07-4.43,11.86-4.94,13.78a.36.36,0,0,0,.39.45c2.5-.06,7.69,0,9.87-.13C545.2,789.29,545.32,789,545.26,788.72Z"/><path class="cls-2" d="M566.94,767.1c1.47,0,5,.2,8.27.2a2.73,2.73,0,0,1,1.41.83c1,1.15,2.57,3.14,5.07,6.35,2.95,3.72,16.74,18.53,20.84,23,.39.39.64-.25.64-.45.32-2,.13-9,.13-17.44,0-2.18-.19-4.55-.32-6.48-.06-1.34-.58-2.88-4-3.85-1.28-.38-1.8-.83-1.8-1.41s.84-.64,1.74-.64c1.6,0,3.33.07,5.25.07,2.44,0,4.62-.26,6.29-.26,1.09,0,1.47.26,1.47.71s-.38,1-1.53,1.28c-2.83.77-3.85,1.47-4.05,4.74-.19,2.25-.7,15.72-.7,25.53,0,2.69.45,7.69.45,8.85,0,.64-.45,1.35-1,1.35-1,0-2.38-1.41-3-2.18-1.09-1.42-2.31-3-4-5.13-6-7.19-16.93-19.44-22.7-26.3-.26-.32-.77-.13-.77.13,0,1.73-.26,3.53-.26,8.53,0,6.41-.25,15.2,0,17.44.2,2.76.9,3.79,4,4.68,1.29.32,1.61.77,1.61,1.16,0,.64-.84.9-2.06.9-1.86,0-4.29-.32-6.6-.32-1.41,0-3.46.12-4.56.12-.89,0-1.66-.12-1.66-.7s.64-1,1.28-1.16c3-1,4.3-1.21,4.55-6,.32-5.58,1.22-20.33,1.22-25.53,0-2.37-.32-3-.51-3.21-1.6-1.92-2.25-2.24-5.26-2.95-.71-.19-1.41-.57-1.41-1S565.59,767.1,566.94,767.1Z"/><path class="cls-2" d="M660.89,787.31c0,8.85-4.23,14.94-8.91,18.34a23.61,23.61,0,0,1-12.89,3.91,22.42,22.42,0,0,1-16.68-7.25A21.23,21.23,0,0,1,617,787.76c0-7.83,3.52-13.15,8.33-17.06a23,23,0,0,1,13.28-4.49C651.34,766.21,660.89,775.51,660.89,787.31ZM628.7,771.85c-2.76,2.63-4.88,7.44-4.88,15,0,9.55,6.8,20.46,16.81,20.46,5,0,7.44-2.18,8.08-3,2.63-2.44,5.39-7.64,5.39-15.14,0-6.54-2.83-13.53-7.57-17.44a15.91,15.91,0,0,0-9.37-3.47A13.36,13.36,0,0,0,628.7,771.85Z"/><path class="cls-3" d="M287.85,471.88l49.31,6.74a50.91,50.91,0,0,1,27.5,12.95l11.06,10.1,11.07-10.1a50.85,50.85,0,0,1,27.49-12.95l49.35-6.74c16.1-2.67,27.78-16.81,27.78-33.62V220.64a3.38,3.38,0,0,0-3.35-3.41H263.38a3.38,3.38,0,0,0-3.34,3.41V438.26C260,455.07,271.72,469.21,287.85,471.88Z"/><path class="cls-3" d="M621.64,443.41a6.76,6.76,0,0,0-2.3-4.43,10.35,10.35,0,0,0,1.37-3.54,9.15,9.15,0,0,0-.52-5.41,6.58,6.58,0,0,0-3.09-3.53,6.34,6.34,0,0,0-2.6-.59l-.61,0c-2.31.28-4.34,2.13-5.44,4.88a13.82,13.82,0,0,0-1.41-.49,11.74,11.74,0,0,0-3.45-.65h-.36c-3.26.16-5.48,2.55-6.55,3.7a13.57,13.57,0,0,0-1.68,2.23,10.17,10.17,0,0,0-5.6-1.63,10.32,10.32,0,0,0-1.66.13,9.74,9.74,0,0,0-6.59,3.73,9.23,9.23,0,0,0-1.66,6.4l-.42.18a5.2,5.2,0,0,0-2.41,3.69c-.75,3.27.26,9.84.78,12.76a25.2,25.2,0,0,0-6.72,4.07c-.37.3-.72.62-1.07.94.25-1.1.36-1.8.49-2.65.17-1.12.38-2.51,1-5.58.2-.92.34-1.55.46-2.08.21-.9.34-1.49.55-2.63.34-1.93.7-4.68,1-7.95.26-2.61.31-3.69.34-4.33a7.52,7.52,0,0,1,.15-1.4,17.17,17.17,0,0,1,1-3.67,41.76,41.76,0,0,0,1.43-4.38,51.76,51.76,0,0,0,1.54-7.7c.19-1.58.22-2.5.25-3.24a14.4,14.4,0,0,1,.24-2.52,20.51,20.51,0,0,1,1.27-4.39,24.93,24.93,0,0,0,.86-2.47,19.07,19.07,0,0,0,.69-3.69,11.85,11.85,0,0,1,1.78-.13h.41a12.69,12.69,0,0,1,4.39,1,10.9,10.9,0,0,1,2.13,1.13,8.08,8.08,0,0,0-1.4,2.48c-.28.77-1.14,3.1.17,5a3.38,3.38,0,0,0,2.61,1.59h0a16.26,16.26,0,0,0,5.22,5.46,4.55,4.55,0,0,0,2.21.64,3.49,3.49,0,0,0,.65-.06,4.71,4.71,0,0,0,3-2.51c1.63-2.84.16-6.65-1-8.85a1,1,0,0,0,.09-.22,2.49,2.49,0,0,0-.4-2.09,7.09,7.09,0,0,0-3.58-2.81,9.24,9.24,0,0,0-3.23-.72,6,6,0,0,0-1,.09,15.93,15.93,0,0,0-3.71-2.9,17.39,17.39,0,0,0-5.39-2c.88-1.18,2-2.68,3.34-4.57.4-.54.66-.87,1-1a2.89,2.89,0,0,1,.49-.06,8.52,8.52,0,0,0,1.8-.27,2.6,2.6,0,0,0,1.84-1.22,1,1,0,0,1,.07-.15q.47,0,1,0a8.56,8.56,0,0,0,2.51-.34,6.23,6.23,0,0,0,3.4-2.19,5.56,5.56,0,0,0,1-3.66l1.76-.18c3.23-.37,4-.55,5-.94a6.49,6.49,0,0,0,3.63-2.91,4.68,4.68,0,0,0,.16-4.38,4.29,4.29,0,0,0-1.2-1.44l.33-.3a6.9,6.9,0,0,0,1.93-2.59,6,6,0,0,0,.43-2.3,3.64,3.64,0,0,0,1.44-1.51,4.47,4.47,0,0,0,.22-2.8,6,6,0,0,0-.65-2.43,4.74,4.74,0,0,0,1.37-1.41c.7-1.14.64-2.24.54-4.07-.11-2-.18-3.35-1.28-4.38-.92-.86-2-.94-3.45-1-.41,0-.88-.07-1.37-.07a7.65,7.65,0,0,0-4.16,1.11h0a5.43,5.43,0,0,0-.62-.78,6.09,6.09,0,0,0-4.18-1.77,4.93,4.93,0,0,0-.61,0,6.67,6.67,0,0,0-3.7,1.09,6.53,6.53,0,0,0-2.77,4.18,6.2,6.2,0,0,0-.07,1.7l-1-.11c-1.34-.13-2.2-.21-2.93-.21a5,5,0,0,0-1.9.31c-1.77.7-3.05,2.29-3.83,4.72s-.18,4.39.38,6.31l0,.1a18.3,18.3,0,0,0,2.19,4.81c-.37.17-.74.36-1.09.55-1.79,1-3.48,1.89-4.56,3.74q.15-3.6.4-7.66l.06-1.06-.08,0,.27-14.1v0a1.58,1.58,0,0,1,.26-.73,2.19,2.19,0,0,1,1.25-.66l.12,0a14.28,14.28,0,0,0,5.93-3.67A12.11,12.11,0,0,0,591.9,349a7.56,7.56,0,0,0,.25-4.88,6.67,6.67,0,0,0-1.78-2.76.36.36,0,0,0,0-.09,3.76,3.76,0,0,0,1-.71,4.23,4.23,0,0,0,1.24-2.52,4.13,4.13,0,0,0-.84-2.89,5.06,5.06,0,0,0-3.63-2,20.09,20.09,0,0,0,.31-2.44c.19-2.86.35-5.32-1.44-6.78a4.28,4.28,0,0,0-2.77-.89c-.25,0-.51,0-.76,0a11,11,0,0,0-.24-3.8,6.86,6.86,0,0,0-2.34-4.21,6.64,6.64,0,0,0-4.19-1.21h-.54a6,6,0,0,0-4,1.16c-.13.11-.26.22-.38.34a14,14,0,0,0-3.26-3.7,9.28,9.28,0,0,0-4.7-2.2,8,8,0,0,0-1.14-.08,7.41,7.41,0,0,0-4.47,1.43,7.78,7.78,0,0,0-3,6.51,7,7,0,0,0,.86,2.83,8.88,8.88,0,0,0-3.16,2.17,9.72,9.72,0,0,0-2.26,4.71c-.46,1.94-1.17,4.85.62,6.67a7,7,0,0,0,4,1.58l.51.05-1,1.74-.16.28a7,7,0,0,0-.57,4.91c.59,2.7,2.7,4.29,3.95,5.25a30.8,30.8,0,0,0,4.49,2.72l.15.08c.74.35,1.23.62,1.42,1.05a.83.83,0,0,1,.07.37,4.5,4.5,0,0,0,.23,1.12,5.67,5.67,0,0,0,2.89,2.93,11.86,11.86,0,0,0,5.81,1.44h.25a2.22,2.22,0,0,1,.62.24,3.82,3.82,0,0,1,1.6,2.22,5.26,5.26,0,0,1,.25,1l-.09,11.94.09,0v.61c0,5.56-.06,10.89-.1,16.07v.5a8.17,8.17,0,0,0-.71-.61c-.34-.25-.67-.46-1-.66-.71-.43-1-.62-1.08-1-.23-.72.34-1.87.75-2.71a6.88,6.88,0,0,1,.63-1.07,6.73,6.73,0,0,0,.94-1.86c.3-.92,1-3.07-.36-4.2a2,2,0,0,0-1.3-.46,4,4,0,0,0-.74.08,2.49,2.49,0,0,1-.52.07,1.65,1.65,0,0,1-.38,0,2,2,0,0,1-.52-.2c0-.26,0-.9,0-1.43l0-.27a2.57,2.57,0,0,0-.37-1.9l-.11-.15a5,5,0,0,0,.63-2.09,3.77,3.77,0,0,0-1.2-3.46,3.68,3.68,0,0,0-2.15-.65l-.59-.07c.78-3,.17-5.95-1.69-7.64a7.81,7.81,0,0,0-4.86-1.78c-.22,0-.44,0-.65,0s-.68,0-1,.05a4.83,4.83,0,0,0-.49-2.25c-1.35-2.7-4.62-2.87-6.2-2.95-.29,0-.63,0-1,0a5.54,5.54,0,0,0-4.23,1.58,5.42,5.42,0,0,0-1.27,3.14,5.3,5.3,0,0,0,0,.8l-.21,0a6.7,6.7,0,0,0-4.65,1.87,5.12,5.12,0,0,0-1.22,4.82,3.24,3.24,0,0,0,.77,1.17c.24.27.6.69,1.15,1.37.76.92,1,1.23,1,1.56a.39.39,0,0,1-.06.31,2,2,0,0,0-.83,1.16,2.2,2.2,0,0,0,.41,1.76,4.87,4.87,0,0,0,3.21,1.88l.51,0h.26a3.34,3.34,0,0,0-1.45,1.44c-.91,1.88.51,3.87,1,4.61a12.44,12.44,0,0,0,5.39,3.89l.84.37a10.34,10.34,0,0,0,.21,3.42,6.53,6.53,0,0,0,1.52,3.23c1.35,1.44,3.08,1.66,5.28,1.94a21.68,21.68,0,0,0,2.43.22,5.86,5.86,0,0,0,1.84-.28c.87-.28,1.3-.59,4.14-2.62l1-.7a17.35,17.35,0,0,1,2.18,1.62,18.92,18.92,0,0,1,4.61,6.08l0,3.33c0,4.82,0,8.63-1.29,13.51l0,.14a7.42,7.42,0,0,0-1.69-3.56,7.06,7.06,0,0,0-2.89-1.9,5.59,5.59,0,0,0-1.69-.34,2.2,2.2,0,0,0-1.38.43,17.18,17.18,0,0,0-1.94-.29,14.22,14.22,0,0,0-1.45-.09,5.76,5.76,0,0,0-3.83,1.26,5.7,5.7,0,0,0-1.65,2.26,11.21,11.21,0,0,0-1.1-.89,6.27,6.27,0,0,0-3.41-1.45,3,3,0,0,0-1.11.22,3.35,3.35,0,0,0-1.34,1.08c-.24.29-.28.33-.42.37a.78.78,0,0,1-.22,0,1.1,1.1,0,0,1-.4-.08,1.7,1.7,0,0,1-.74-.71,12.9,12.9,0,0,0-5-4.35,7.51,7.51,0,0,0-2.81-.57,5.43,5.43,0,0,0-2.11.4c-2.29.93-3.78,3.43-4,6.5l-.62-.09a17.55,17.55,0,0,0-2.45-.22,8.67,8.67,0,0,0-3.08.54,8.93,8.93,0,0,0-4.27,3.48,9.91,9.91,0,0,0-1.13,7.51,6.1,6.1,0,0,0,2,4.13,5.08,5.08,0,0,0,1,.61,7.61,7.61,0,0,0-.29,1,6,6,0,0,0,.06,3.65,5.08,5.08,0,0,0,2.13,2.5,7.17,7.17,0,0,0-3.43.77c-2.07,1.18-2.68,3.39-3.08,4.85a12,12,0,0,0-.39,4.05,5.89,5.89,0,0,0-4.66,5.6,6.88,6.88,0,0,0,1.94,4.93,8.35,8.35,0,0,0,1.29,1.16,6.53,6.53,0,0,0-.8,2.26,6.74,6.74,0,0,0,.62,4,6.92,6.92,0,0,0,3.28,3.35,4.05,4.05,0,0,0,1.75.36c1.55,0,3.52-.65,6.78-1.72A5.18,5.18,0,0,0,534.1,464a2.22,2.22,0,0,0,0,.37c.23,1.63,1.85,2.45,5,3.48s4.74,1.57,6.77,1.57a9,9,0,0,0,5.55-1.34,8.53,8.53,0,0,0,3.12-4.35,9.31,9.31,0,0,0,.5-3.45c0-.56,0-1.19.08-2a20.64,20.64,0,0,1,1-5.46,10.49,10.49,0,0,1,4-5.78,8.53,8.53,0,0,1,4.47-1.37H565a7.69,7.69,0,0,1,1.9.34c-.15.68-.3,1.44-.47,2.31-.94,4.84-1.31,7.87-1.64,10.55-.16,1.36-.32,2.65-.53,4-2.58,16.1-11.24,28-14.09,31.9a61.06,61.06,0,0,1-13.37,14.2c-.52.39-1,.71-1.43,1l1.12-1.68c1.24-1.86,1.6-2.41,1.77-2.76a8.12,8.12,0,0,0,.95-4.75,5.27,5.27,0,0,0-.34-1.22,5.55,5.55,0,0,1-.32-1.27,3.31,3.31,0,0,1-.06-1.17h0c.07-.11.38-.19.62-.25,2.09-.58,3.4-2.33,4.92-4.35,2.76-3.68,4.16-11.39.45-14.53a7,7,0,0,0-4.26-1.53,3.22,3.22,0,0,0-2.45.91,3,3,0,0,0-.5.77l-.09.17a4.76,4.76,0,0,1-.3-1.08c-.31-2.47-3.69-4.89-7-5h-.35a6.3,6.3,0,0,0-4,1.31,6,6,0,0,0-1.13,1.18,12.2,12.2,0,0,0-2.93-2.08,9.23,9.23,0,0,0-4.27-1.34,5.58,5.58,0,0,0-1.62.24,6.59,6.59,0,0,0-3.85,3.37,7,7,0,0,0-.29,5.8,5.74,5.74,0,0,0,.4.78,6.59,6.59,0,0,0-3.56,3.34,7.18,7.18,0,0,0,.12,5.45c.35,1,1.43,4.16,4.25,4.69l.32,0a5.83,5.83,0,0,1-.22.63,7,7,0,0,1-.56,1.16,3.81,3.81,0,0,0-.61,1.73c-.24,2.58,2,4.53,2.43,4.9a7.67,7.67,0,0,0,3.74,1.54,9.41,9.41,0,0,0,1.28.13l.12.33a12.54,12.54,0,0,1,.36,1.38,6.77,6.77,0,0,0,.55,1.65,4.52,4.52,0,0,0,2.11,2.33,2.72,2.72,0,0,0,1.12.24c.18,0,.38,0,.65,0s.69-.06,1.27-.08l1,0a4.32,4.32,0,0,1,.89.07,4.66,4.66,0,0,1,1.53.64,2.87,2.87,0,0,1,.54.45c.16.16.35.35.64.6l.68.58c-.61.42-1.24.88-1.92,1.37-3.05,2.21-5.07,3.81-6.5,5a31.8,31.8,0,0,0-3.24-2.53,7.3,7.3,0,0,0-5.56-7.66,7.53,7.53,0,0,0-1.73-.28,2.36,2.36,0,0,0-.92.17c-.78-.1-1.68-.13-2.67-.16h-.59a10.92,10.92,0,0,0-5,1.06,3.94,3.94,0,0,0-2.41,2.62,3.55,3.55,0,0,0,.65,2.51,6,6,0,0,0,1.94,1.82l.23.15a12.31,12.31,0,0,1,1.82,1.42,4.22,4.22,0,0,0,1.74,1.07l.27.07a5.44,5.44,0,0,0,.37.56,6.65,6.65,0,0,0,3.27,2.26,6.85,6.85,0,0,0,1.79.23,7.14,7.14,0,0,0,4.55-1.58c.5.48,1,1,1.4,1.47-.22.16-.45.31-.69.46-5.52,3.47-11,3.68-16.8,3.89l-1.51.06c-.74,0-5.43.65-17.82,2.36a5.65,5.65,0,0,0,1.2-3.07,5.09,5.09,0,0,0,0-.95c0-.08,0-.16,0-.23s.42-.3.87-.59.79-.52,1-.67a3.93,3.93,0,0,0,1.22-1,3.85,3.85,0,0,0,.75-1.82,10,10,0,0,0,3.53-1.87,10.28,10.28,0,0,0,3.59-6.85,8.86,8.86,0,0,0-.71-5,9.54,9.54,0,0,0-.63-1.08,9.17,9.17,0,0,0,3.55-3.86,9.42,9.42,0,0,0,.49-6.52c-.33-1.11-1.1-3.72-3.66-4.74a5.66,5.66,0,0,0-2.08-.4,4.94,4.94,0,0,0-2.48.65,4.82,4.82,0,0,0-1.43,1.21,9.39,9.39,0,0,0-4.23-1.88,11,11,0,0,0-1.74-.17,5.16,5.16,0,0,0-3.07.92,6.21,6.21,0,0,0-2.21,3.78,9.87,9.87,0,0,0-.33,2.42,13.73,13.73,0,0,0-2.85-.3h-.32a6.46,6.46,0,0,0-4.29,1.16c-1.37,1.14-1.62,2.63-1.91,4.36-.33,2-.94,5.63,1.29,8l.63.57a4,4,0,0,1,.95,1c.38.6.45.85.48.86a2.63,2.63,0,0,1-.41.27l-.1.06a14.26,14.26,0,0,0-3.89,3,6.45,6.45,0,0,0-1.21,4.42,7,7,0,0,0,2.25,4.38,12.44,12.44,0,0,0,3,2.26l.38.18a2.71,2.71,0,0,1-.2.51,13.44,13.44,0,0,1-2.17,3l-4.42.61c-5,.69-22.36,3.32-37.75,8.23-2.07.66-4.14,1.37-6.27,2.17,1.63-4.07,4.47-11.44,3.75-20.53,0-.36-.06-.72-.1-1.06-.58-5.32-2.18-7.81-3.34-9.22-3.16-3.88-7.46-4.92-9.76-5.49a25.91,25.91,0,0,0-6.15-.75,21.67,21.67,0,0,0-13,4.11c-5.82,4.24-9.05,11.13-9.09,19.4,0,2.88,0,9.62,5.08,14.42a15.07,15.07,0,0,0,4.34,2.83h0a8.06,8.06,0,0,0-4.79,2,7.76,7.76,0,0,0-1.42,1.43,7,7,0,0,1-1.1,1.12l-.22.19a4.36,4.36,0,0,1-2.06,1.13l-.31,0a3.39,3.39,0,0,1-1.25-.28c-.18-.06-.34-.14-.53-.22a4.49,4.49,0,0,1-1.3-.82,4.92,4.92,0,0,0-1.83-1.06,6.67,6.67,0,0,0-1.68-.29c0-.42,0-.84-.05-1.26a61.09,61.09,0,0,0-1-8.33,46.14,46.14,0,0,0-5.88-15.65c-2.09-3.4-5.59-9.1-11.07-9.18h-.11c-3.72,0-6.56,2.33-7.93,3.45a18.08,18.08,0,0,0-5.16,7.29,24.4,24.4,0,0,0-1.74,10.88l-.28-.07A50.69,50.69,0,0,1,335,529a54.3,54.3,0,0,1-2.54-5.36c-.57-1.36-1.17-2.76-2.06-4.58A85.62,85.62,0,0,0,324,508.26c-3.17-4.38-9.53-10.42-21.86-14.28l-2-.63.18,2.11a46.64,46.64,0,0,0,1.42,8.12,42.24,42.24,0,0,0,7.24,15.24c.83,1.09,1.66,2.08,2.48,3a3.21,3.21,0,0,0-2,1.85,3.9,3.9,0,1,0-1.77,5.48l.74.66c.59.52,1.2,1.07,1.86,1.58l.65.5.66.5c-2.32-.37-4.66-.78-7-1.2-3.88-5.28-7.45-10.66-10.61-16-.79-1.33-1.52-2.6-2.28-3.92-1.61-2.79-3.43-6-6.25-10.47-3.33-5.3-5-8-6.63-9.83A40.18,40.18,0,0,0,262,479.87l-1.79-.65-.11,1.9a36.59,36.59,0,0,0,1,11.1c1,3.86,4.18,13.54,13,20.13a52.55,52.55,0,0,0,12.51,6.53c1.39.53,2.29.81,2.94,1a10,10,0,0,1,1.91.75c3.08,1.62,5.53,4.79,7.3,9.44-1.49-.3-2.92-.59-4.22-.87-4.12-.88-6.89-1.56-9.12-2.1a63.42,63.42,0,0,0-6.44-1.36l-6-5.6a3.38,3.38,0,0,0,.18-1.1,3.44,3.44,0,1,0-3.43,3.43H270a19.12,19.12,0,0,0,1.89,2.55l.24.26c-1.93-.07-4.31-.19-7.56-.48a76.06,76.06,0,0,1-9.72-1.23c-.54-.11-1-.23-1.5-.34l-7-7.19a10.15,10.15,0,0,1-.78-3.95,13.44,13.44,0,0,1,.93-4.32,40,40,0,0,1,2.3-5.95c1.86-3.79,1.4-12-1.39-25.05l0-.12,0-.12c-4.86-11.81-7.45-13.4-9.34-13.4a2.42,2.42,0,0,0-.47,0c-3.8.67-4.32,8.61-4.92,22.59-.27,6.14.07,9.37,1.33,12.81.37,1,.82,2,1.3,3a46.16,46.16,0,0,0-8.74-7.88,62.43,62.43,0,0,0-14.72-8.19l-1.44-.57-.43,1.49a16.18,16.18,0,0,0-.55,6.58,17.77,17.77,0,0,0,2.57,6.93c5.08,8.42,14.32,12.26,17.8,13.71,1.19.5,1.87.72,2.41.9a14.71,14.71,0,0,1,2,.82,29.36,29.36,0,0,1,6.7,4.45,24,24,0,0,0-2.88-.3,20.18,20.18,0,0,1-3.42-.44c-4.13-.85-6.58-2.18-14.72-6.58l-3.52-1.91c-4.11-2.21-6.27-3.34-7.56-4-.91-.48-1.37-.72-1.79-1a21.13,21.13,0,0,1-3.46-2.54l-.19-.47a46.88,46.88,0,0,1-1.94-5.52,31.52,31.52,0,0,1-1.21-11.59,13.39,13.39,0,0,1,1.7-5.33,44.11,44.11,0,0,0,2.48-5.87,60.5,60.5,0,0,0,3.08-16,67.12,67.12,0,0,0-.9-16.48l-.43-2.45L204.23,441a37.46,37.46,0,0,0-6.5,7.28,34.15,34.15,0,0,0-5.85,14.6,42,42,0,0,0,2,17.92c.22.68.45,1.36.68,2.18a36.4,36.4,0,0,1,1.29,10.62c-4-6.24-7.92-14.45-11.69-24.46a12.72,12.72,0,0,1,1.49-5.09,3.48,3.48,0,0,0,.9.12,3.71,3.71,0,1,0-3.7-3.7,3.49,3.49,0,0,0,.06.65,16.84,16.84,0,0,0-1.18,1.21q-.77-2.25-1.5-4.53a36.32,36.32,0,0,0,.11-3.76,35.4,35.4,0,0,0-.66-5.61A15.9,15.9,0,0,0,181,446.2a34.09,34.09,0,0,1,3-5,6.32,6.32,0,0,1,1.64-1.58,6.39,6.39,0,0,1,2.28-.89c3.57-.77,6.64-5.41,8.47-8.19s4.55-6.9,5.14-12.38c.08-.74.09-3.47.09-10.06v-6.72L199.32,403a43.33,43.33,0,0,0-9.14,9.05,42.25,42.25,0,0,0-4.91,8.5,3.78,3.78,0,0,0-3.69-3h-.12a3.24,3.24,0,1,0-5-2.76,2.59,2.59,0,0,0,0,.48,17.2,17.2,0,0,0-2.17,2.32c-.15-3.29-.29-6.58-.44-9.87l-.14-3c1.65-1.73,3.27-3.55,4.82-5.42.87-1.06,1.45-1.81,2-2.56.41-.53.82-1.06,1.34-1.71,2.4-3,4.3-4.93,5.68-6.37l1.14-1.18c5.73-6.19,8.17-14,9-17.12a39.94,39.94,0,0,0,.39-17.76l-.46-2.33-1.83,1.51a61.71,61.71,0,0,0-11.14,12c-3.83,5.45-7.13,10.16-8.36,17.2a40,40,0,0,0-.52,5.63,24.69,24.69,0,0,1-1.42,8.39c-.3.83-.63,1.65-1,2.46-.08-1.52-.15-3.27-.25-6.16-.1-2.62-.17-5.07-.22-7.33h.23l-.09-1.49a13.72,13.72,0,0,0-.2-1.53c-.06-3.2-.09-5.9-.1-8v-.7l-.44-.33a4.2,4.2,0,0,0,.45-2.51c0-.37,0-.79,0-1.26a8.41,8.41,0,0,1,.33-1.92c.08-.31.16-.66.26-1.08.65-2.81,2.1-10.42,2.53-14.42a43.05,43.05,0,0,0-1-14.65c-2.43-9.19-8.39-15.6-13-19.36l-1.4-1.15-.78,1.63a46.18,46.18,0,0,0-4,13,41.62,41.62,0,0,0,1.69,20.83c1.09,3,3.62,9.93,7.57,13.5a8.31,8.31,0,0,1,2.95,5.77l0,1.13,0,1.07.07,0c0,.2,0,.36,0,.43-.62-.67-1.24-1.35-1.83-2.05l-.92-1.06a3.07,3.07,0,1,0-2.85,1.94,2.36,2.36,0,0,0,.38,0l.8,1.14c.79,1.18,1.64,2.31,2.45,3.4a15.67,15.67,0,0,1,1.93,3.08,6.26,6.26,0,0,1,.21.61c.09,3.82.16,7.07.2,9.6.06,2.86.1,5.35.13,7.57a22.74,22.74,0,0,1-1.33-2.54,24.67,24.67,0,0,1-1.77-6.28,28.11,28.11,0,0,1-.35-4v-.33c-.1-2.7-1.35-7-10.28-16.19a119.35,119.35,0,0,0-13.92-12.28l-1.63-1.23-.58,2a26.63,26.63,0,0,0-.79,12c1.2,7.15,5.21,12,8.44,15.8a54.3,54.3,0,0,0,10.15,9.25,40.36,40.36,0,0,0,4.18,2.62,14,14,0,0,1,2.83,1.92,18.94,18.94,0,0,1,5.19,8.17c0,1.43,0,2.95.09,4.57-.36-.41-.74-.82-1.11-1.22a3.85,3.85,0,0,0,.1-.83,3.36,3.36,0,0,0-6.18-1.84l-.12-.26a72,72,0,0,0-5.89-10.86c-4.8-6.72-13.7-11.08-25.73-12.58l-2.52-.32,1,2.31c1.45,3.18,3.07,6.33,4.81,9.37,3.55,6.19,8,13.9,15.7,20.39a49.32,49.32,0,0,0,10.57,6.83c1.09.51,2.22,1,3.36,1.41l7,8.81c.11,1.31.24,2.55.38,3.85a45.17,45.17,0,0,0-8.41-6.57,16.28,16.28,0,0,0-2.84-1.33c-1.88-.76-5.37-2.19-13.33-5.63-3.75-1.63-6.83-3-8.87-3.88l-1.69-.74-.28,1.83a16.3,16.3,0,0,0,0,4.93c.78,5,3.74,8.14,6.87,11.5a46,46,0,0,0,8.78,7.36,49.71,49.71,0,0,0,11.31,5.28,32.3,32.3,0,0,0,3.2.91,12.78,12.78,0,0,1,1.87.56,20,20,0,0,1,6.58,4.32c.56,2.48,1.14,4.85,1.77,7.24a118.15,118.15,0,0,0,4.22,13.64c.14.38.29.75.44,1.13a51.81,51.81,0,0,0-16-3.55c-1-.06-2-.09-3-.09a54,54,0,0,0-19.93,3.93,60.36,60.36,0,0,0-19.21,11.78L119.82,490l2.19.81a50.87,50.87,0,0,0,15.57,3.09c.95,0,2.18.07,3.58.07,8.6,0,15.35-1.76,20.07-5.23,1.19-.87,2.39-1.72,3.58-2.58,1.67-1.19,3.4-2.42,5.06-3.68l1-.74c1.73-1.32,2-1.49,2.55-1.65a5.36,5.36,0,0,1,1.46-.19c2.48,0,5,1.52,6.73,2.52.46.28.86.51,1.21.7a117.37,117.37,0,0,0,6.33,11.22c2.29,3.56,4.08,6.36,5.69,8.6l-3.57-.95a3.46,3.46,0,1,0-3.41,4,3.49,3.49,0,0,0,2.47-1.05c1.19.41,2.39.79,3.57,1.13,1.48.42,3,.8,4.48,1.13l.16.16h-.65a30.16,30.16,0,0,0-5,.42,3.21,3.21,0,0,0-2.15-.83,3.24,3.24,0,1,0,3.11,4.14h10.07l2.58,1.37c3.19,1.68,6.49,3.41,8.36,5.27l.21.22a7.48,7.48,0,0,0,3.2,2.13,8.16,8.16,0,0,0,2.21.34,3.67,3.67,0,0,1,3,1.22,63.15,63.15,0,0,1-17.79-.06c-.83-.12-1.18-.19-1.6-.27s-.93-.18-2-.36a113.72,113.72,0,0,0-17.47-1.85,39.81,39.81,0,0,0-12.32,1.78,32.94,32.94,0,0,0-6.62,3,46.57,46.57,0,0,1-10.37,4.48c-2.14.67-4.33,1.24-6.51,1.72l-4.77,1,4.59,1.67A61.55,61.55,0,0,0,165,536.39c1.47.11,2.88.16,4.3.16a82.42,82.42,0,0,0,11.12-.92c8.83-1.14,19.9-3.88,22.1-7.92a3.81,3.81,0,0,1,1.5-1.61,3.37,3.37,0,0,1,1.55-.35h.3c14.23-.06,23-.31,26.66-.75l1.88.29c1,.15,2.07.3,3.15.48,2.11.36,3.78.74,7.09,1.49,1,.22,1.86.43,2.66.63q-.81.27-1.56.57a3.14,3.14,0,0,0-1.88-.62,3.2,3.2,0,1,0,3,4.36l1.54-.23c1.37-.24,2.78-.48,4.19-.84l.13,0a13.46,13.46,0,0,0-1.09,1.4h-.19A3.5,3.5,0,0,0,248,536a3.46,3.46,0,0,0,1.37,2.77l-1.6.48a37,37,0,0,0-4.24,1.66c-1,.44-2,.9-3.58,1.49a59.41,59.41,0,0,1-10.87,2.93l-3.1.54,2.46,2a34.45,34.45,0,0,0,19,7.94c.69.05,1.4.07,2.11.07A54.81,54.81,0,0,0,262,554a100,100,0,0,0,12.17-3.8c2.07-.76,3.65-1.39,5-2a63.69,63.69,0,0,1,7.61-2.65c1.41-.39,2.67-.69,3.78-.93l-1.22.52c-6,2.59-11.39,5.54-22.13,11.44-9.16,5-12.35,7.14-15.33,9.51A72.35,72.35,0,0,0,238.53,580l-1.47,2,2.47.26a61.16,61.16,0,0,0,6.17.32,49.34,49.34,0,0,0,23.21-5.48,56.59,56.59,0,0,0,14.71-11.45,57.33,57.33,0,0,0,5.11-6.83,39.73,39.73,0,0,1,7.53-9,47,47,0,0,1,8.86-6.19c.82-.45,1.69-.87,2.71-1.35,1-.13,2-.29,3-.47q-.85.69-1.68,1.41A3.1,3.1,0,0,0,308,543a3.18,3.18,0,1,0,3.18,3.17c0-.1,0-.21,0-.31A42.07,42.07,0,0,1,323.68,541c8.44,1.65,13.57,2.73,17.43,3.89a21.9,21.9,0,0,0-4.17,2.2,2.74,2.74,0,0,0-1.1-.23,2.86,2.86,0,1,0,2.74,3.66l6.83-1.63c.71,1,1.38,1.83,2,2.64,8.81,11,16.46,14.72,20.76,16,0,.19,0,.36,0,.51a5.13,5.13,0,0,1-.07,1.77l0,.17a8,8,0,0,0-.09,3.22A202.27,202.27,0,0,0,349,592.82a185,185,0,0,0-20.28,28.76,5.58,5.58,0,0,0-.71,3,18.86,18.86,0,0,0,2.78,9.31c.88,1.41,2.37,3.78,4.83,3.79,2.13,0,3.67-1.85,4.33-2.64a9,9,0,0,0,1.79-3.46,176.28,176.28,0,0,1,11-20.07q1.75-2.75,3.66-5.49c-.38,1.71-.85,3.53-1.52,5.74-1.76,5.72-3.42,11.13-7.57,17.24-.07.1-6.67,9.68-16.1,14.41-2.59,1.31-4,2-6,2.11h-.43c-.49,0-1,0-1.45,0s-1.16-.07-1.81-.07a16.78,16.78,0,0,0-3,.26,17.71,17.71,0,0,0-3.13.82A26.05,26.05,0,0,1,306.3,648a33.42,33.42,0,0,1-11.09-1.92l-2.88-1.15,1,2.93c.18.51,2,5.11,11.61,9.34a16.39,16.39,0,0,0,2,.67l.22.06a26.17,26.17,0,0,0,4.59.88c3.29.34,6.4.67,8.84,1l.91.14c1.95.3,3.72.69,5.44,1.06a52,52,0,0,0,5.69,1c.62.06,1.12.09,1.53.09h6.06c1.17,0,3.47.59,7.76,3.28l1.08.69.79-1a29.11,29.11,0,0,1,4.93-4.93c.75-.59,1.33-1,1.75-1.28,3.22-2.19,6.08-4,7.62-5l1.22-.79c2.7-1.84,4.52-5.59,5.29-18.6a104.93,104.93,0,0,0,0-12.86c-.12-2.66-.26-5.67-.24-10.07.06-11.75.19-17.15,2.73-22.26a32,32,0,0,1,3.41-5.47,9.54,9.54,0,0,0,1.88-1.6c.59-.59,1.33-1.33,2.3-2.15a7.66,7.66,0,0,1,2-1.46,1.55,1.55,0,0,1,.35-.05,19.85,19.85,0,0,1,2.85.51l.66.14a20.84,20.84,0,0,0,3.53.62h.32a7.57,7.57,0,0,0,3-1c.4.34.81.72,1.27,1.15l1,2c1.9,3.7,2.22,4.43,2.51,5.58a21.78,21.78,0,0,1,.46,6.14,52,52,0,0,1-.49,6.34c-.51,4-.87,6-1.1,7.41a26.74,26.74,0,0,0-.41,2.91c-.59,7.79,3.06,14.06,4.82,17.08.55,1,5.54,9.33,10.21,10.65l.11,0a11.84,11.84,0,0,1,3,1.31A17.72,17.72,0,0,1,417,641c4.08,3.45,4.21,3.56,4.86,3.91a9.42,9.42,0,0,0,4.65,1.55h.17a9.7,9.7,0,0,0,1.3-.1,8,8,0,0,1,.92-.08,3,3,0,0,1,.88.13,4.38,4.38,0,0,1,1.34.68c2.18,1.49,5.35,1.8,7.62,1.8.83,0,1.44,0,1.65,0a19.38,19.38,0,0,0,9.33-3.24,19.14,19.14,0,0,0,6.35-7.17c1.48-3,1.72-5.52,2-8.76a40.17,40.17,0,0,0-.13-8.56l-.18-1.46-1.46.24a26.21,26.21,0,0,0-7.35,2.31,9.26,9.26,0,0,0-1.54-5.37,8.9,8.9,0,0,0-2.32-2.34,229,229,0,0,1-18.84-17.36c-1.38-1.43-2.77-2.91-4.41-4.65-2.65-2.81-5.94-6.32-10.85-11.36-.52-.53-1-1.17-1.6-1.83a29.13,29.13,0,0,0-5.59-5.46,26.12,26.12,0,0,0-4.95-2.81,24.83,24.83,0,0,0,.75-3.51c.79-.61,1.8-1.42,2.82-2.3a53.48,53.48,0,0,0,8.95-10.12l.54-.29a142.88,142.88,0,0,1,13.15-6.52c-.19.49-.36,1-.53,1.5h-.28a6,6,0,0,0-3.23.88,5.07,5.07,0,0,0-2,2.29,4.58,4.58,0,0,0-.07,3.7l-.13,1a12.73,12.73,0,0,0-.08,3.65,11.72,11.72,0,0,0,1.71,4.72,4.37,4.37,0,0,0,2,2.15,3.15,3.15,0,0,0,1.19.23,5.87,5.87,0,0,0,3.54-1.59,9.29,9.29,0,0,0,2.83-5.07c.11-.43.2-.8.28-1.15a6.6,6.6,0,0,0,1.28-1.1,4.67,4.67,0,0,0,1.59-2.63c.21-1.68-.94-2.84-2-3.87a11.37,11.37,0,0,0-2.46-2c.17-.3.35-.59.52-.87a19.92,19.92,0,0,1,2.32-2.94l.27,0a81.75,81.75,0,0,1,8.25,2s2.88.79,9.87,3.46a8.63,8.63,0,0,1,2.39,1.29,8.87,8.87,0,0,1,2.37,2.93c.72,1.35,1,1.93,1.7,2.07.84,1.4,2.6,4.53,6.3,11.44l.33.6a49.21,49.21,0,0,0,4.29,7,10.85,10.85,0,0,0,4.11,3.81,9.6,9.6,0,0,0,4,.91,8,8,0,0,0,3.39-.74,8.45,8.45,0,0,0,4.22-4.41,8.27,8.27,0,0,0,.61-2.76,15,15,0,0,0,2.24.9,12.42,12.42,0,0,0,3.86.76,7.63,7.63,0,0,0,2.23-.34c1.34-.41,4.52-1.7,5.07-4.86a5.62,5.62,0,0,0-.48-3.35,24.93,24.93,0,0,0,3,.19,11.18,11.18,0,0,0,2.8-.29c1.41-.36,3.54-.91,4-2.78s-1.12-3.38-2-4.2a9.59,9.59,0,0,0-2.55-1.76,12.81,12.81,0,0,0,.85-1.54,9.29,9.29,0,0,0,1-3.62c.11-2.38-.51-4.06-1.87-5a4.09,4.09,0,0,0-2.23-.72,3,3,0,0,0-1.54.41l-.28.19c0-.21,0-.41,0-.62a7.16,7.16,0,0,0-.72-4.67l0,0c.27-1.2-.73-2.4-1.55-3.24a9.55,9.55,0,0,0-5.44-2.68,12.75,12.75,0,0,0-1.67-.14h-.33l-.75-.67c1.93.18,3.86.38,5.8.58a21.19,21.19,0,0,1,6.91,1.64,18.42,18.42,0,0,1,6.34,4.63,19,19,0,0,1,2.87,4.58,13.6,13.6,0,0,1,1,3.15,14,14,0,0,0,1.14,3.45,24.62,24.62,0,0,0,4.3,6.08c2.36,2.71,3.75,3.51,4.58,3.87a8.93,8.93,0,0,0,3.68.82c.28,0,.57,0,.88,0a8.05,8.05,0,0,0,4.53-1.93,7.67,7.67,0,0,0,2.39-3.77,22.19,22.19,0,0,0,4.06,2.56,16.13,16.13,0,0,0,4.44,1.62,14.34,14.34,0,0,0,2.73.3,9.35,9.35,0,0,0,3.67-.72,6.38,6.38,0,0,0,3.44-2.79,5.87,5.87,0,0,0,.56-4.09c0-.13-.07-.26-.11-.39l.88.12a30.51,30.51,0,0,0,3.65.33,7.65,7.65,0,0,0,1.16-.09,7.17,7.17,0,0,0,4.27-1.79,6.63,6.63,0,0,0,1.81-3.26,7.64,7.64,0,0,0,.24-1.79,24,24,0,0,0,4.12-1.06,11.12,11.12,0,0,0,4.4-2.54A6.09,6.09,0,0,0,573,542.5a6,6,0,0,0-1.15-3.8,7.9,7.9,0,0,0-4.9-3.36,7.47,7.47,0,0,0-1.49-.16,9.38,9.38,0,0,0-4.17,1.1A27.93,27.93,0,0,0,557,539.1l-.12.09a3.25,3.25,0,0,1-1.45.81,2.28,2.28,0,0,1-.45,0h-.12a7.19,7.19,0,0,0-.21-1.73,9,9,0,0,0-4.08-5.26,9.43,9.43,0,0,0-5.39-1.92h-.5a8.83,8.83,0,0,0-4.83,1.94,10.87,10.87,0,0,0-2.38,2.43,9.05,9.05,0,0,0-3-2.7,8.94,8.94,0,0,0-4.33-1.08,9.29,9.29,0,0,0-1.88.19c-2.09.41-3.54,1.54-6.18,3.6a23.94,23.94,0,0,0-2.43,2.12,2.76,2.76,0,0,1-1,.72,8,8,0,0,1-3.55.76,11.71,11.71,0,0,1-2.75-.35,12.65,12.65,0,0,1-1.9-.73l-.89-.37c-1.1-.46-2.2-.91-3.31-1.35l-3-1.24a25.45,25.45,0,0,0-5.23-1.35,65.73,65.73,0,0,0,15-2.48A62.07,62.07,0,0,0,523.76,527a65.2,65.2,0,0,0,12.25-8.5c1.12-.92,2.17-1.82,3.2-2.74.23,0,.48,0,.73,0a5.44,5.44,0,0,1,2.74,1,10.07,10.07,0,0,1,2.44,3.2l.2.4a5.15,5.15,0,0,0,1.41,1.87,5.39,5.39,0,0,0,3.09,1.15H550a5.46,5.46,0,0,0,.93-.08,6,6,0,0,0,.14.9,6.78,6.78,0,0,0,2.17,3.46,8.47,8.47,0,0,0,4.9,2.21,8,8,0,0,0,1,.06,7.7,7.7,0,0,0,7.08-4.48,8.36,8.36,0,0,0,7.58-.72,10.26,10.26,0,0,0,3.31-3.93c.17-.32.29-.58.4-.82a4.3,4.3,0,0,1,.63-1.06c.26-.33.8-1,1.2-1a3.58,3.58,0,0,0-.06.78,4.84,4.84,0,0,0,1.83,3.3,8.86,8.86,0,0,0,6.22,2.67h.14a7,7,0,0,0,5.17-1.94,6.66,6.66,0,0,0,1.61-5.69,6.33,6.33,0,0,0-1.51-3,9.66,9.66,0,0,0,1-.55,8.79,8.79,0,0,0,2.81-3,8.62,8.62,0,0,0,1-4.75,10.32,10.32,0,0,0-2-5.49,10.05,10.05,0,0,0-4.45-3.84,9.7,9.7,0,0,0-2.18-.62,7,7,0,0,0,.46-2.06,6.27,6.27,0,0,0-1-4.07,6.86,6.86,0,0,0-4.72-2.58,11.57,11.57,0,0,0-2.3-.29,4.82,4.82,0,0,0-3.24,1.1,2.23,2.23,0,0,0-.27.26,7.31,7.31,0,0,0-1.42-.95,7,7,0,0,0-3.13-.73,8.91,8.91,0,0,0-1.78.19,8.24,8.24,0,0,0-5,3.05,9.81,9.81,0,0,0-1.69,4.9q0,.36,0,.66a2.54,2.54,0,0,1-.13,1,3,3,0,0,1-.81,1.15,20.55,20.55,0,0,0-2.93-.24H560a11,11,0,0,0-3.73.49c3.68-4.57,5.75-8.08,6.3-10.69a35.55,35.55,0,0,1,1.27-4.58c.41-1.2.8-2.12,1.05-2.71a16.72,16.72,0,0,1,6.7-2.13,7.2,7.2,0,0,0,1.15,3.88,7.58,7.58,0,0,0,6.26,3.45h.33a3.74,3.74,0,0,0,1.58-.41,7,7,0,0,0,2.34.41,7.38,7.38,0,0,0,4.82-1.9,5,5,0,0,0,2.15-3.38,5.2,5.2,0,0,0-1.29-3.56,9.31,9.31,0,0,0-3.17-2.77,9.76,9.76,0,0,0-3.27-1.12l-.31,0a3.1,3.1,0,0,0-1.16-.95,4.55,4.55,0,0,0-2.05-.46,7.66,7.66,0,0,0-2.8.59,7.93,7.93,0,0,0-3.32,2.51l-.47,0h-.74a20.85,20.85,0,0,0-4.51.5l.24-.64a26.48,26.48,0,0,1,6.93-6.07c2-1.18,4-2.3,5.5-2.3l0-1.42.08,1.42h.2a4,4,0,0,0,1.84-.4,4,4,0,0,0,1.57-1.43,3.33,3.33,0,0,1,.88-.93,2,2,0,0,1,.55-.33,1.21,1.21,0,0,1,.46.35,4,4,0,0,1,1,1.69c1,2.92,4.28,4.71,6.06,5.31a10.36,10.36,0,0,0,3.29.57,7,7,0,0,0,4.16-1.26,8.27,8.27,0,0,0,3.06-5.29,9.08,9.08,0,0,0,.2-2c.47,0,.94.06,1.42.06,1.84,0,3.92,0,5.75-1.36,2.32-1.7,2.77-4.49,3-5.84a10.94,10.94,0,0,0,.11-2.62,6.18,6.18,0,0,0,1.07.09,6.41,6.41,0,0,0,1.31-.14c2.86-.63,4.2-3.08,4.78-4.12A7.17,7.17,0,0,0,621.64,443.41Zm-38.5-50.64.23.22a1.86,1.86,0,0,1,.59.74,3,3,0,0,1-.43,2.14c-.56,1.1-1.67,3.18-2.75,5.14l-.07-.65a105,105,0,0,1-.4-11.64A13.91,13.91,0,0,0,583.14,392.77Zm-31.69,45.38a.23.23,0,0,0,.07-.07l0,.08ZM167.86,420.83a50.18,50.18,0,0,1-3.81-8.06c-.1-.26-.2-.52-.31-.78a4.21,4.21,0,0,0,.62.05,3.59,3.59,0,0,0,1-.14,49.52,49.52,0,0,1,3.66,6.47l.22,4.61C168.75,422.28,168.3,421.56,167.86,420.83Zm11.67-2.78h.2c-.12.07-.24.14-.35.22Zm-1.27,24.84a33.05,33.05,0,0,0-1.53-4,16.72,16.72,0,0,1-1.09-3,27.84,27.84,0,0,1-.83-8.32v-.07l0-.68h0a6.76,6.76,0,0,1,1.9-1.83,10.93,10.93,0,0,1,2-1.21,3.74,3.74,0,0,0,5.08.68,52.31,52.31,0,0,0-2.92,14.19Zm63.24,72.2,0,0a31.55,31.55,0,0,0-1.88-6.2,7.77,7.77,0,0,1,1.71,3A8.41,8.41,0,0,1,241.5,515.09Zm48.94,23.52c-1.26,0-2.54,0-3.84-.05-8-.2-12.15-.5-12.19-.5-2.77-.2-4.82-.4-6.47-.57a55.68,55.68,0,0,0-5.91-.4c-.85,0-1.72,0-2.69.1-1.14.07-2.78.17-4.78.47A3.55,3.55,0,0,0,255,536a3.33,3.33,0,0,0-.21-1.18,17.79,17.79,0,0,1,4.21-2.66c.56-.26,1.18-.51,1.92-.77a26.64,26.64,0,0,0,4.07.3l1.74,0c.67,0,1.38,0,2.19,0,1.45,0,2.89,0,4.51.17a80.49,80.49,0,0,1,13.82,2.36l2.64.61c5.33,1.22,7.41,1.55,10.85,2.11,1.52.24,3.33.53,5.84,1C302.11,538.25,296.57,538.61,290.44,538.61ZM332,535.08c-2.46-.43-3.54-.52-5-.66s-3.5-.31-7.9-.92a18.81,18.81,0,0,0-1.12-3.49,19.05,19.05,0,0,0-2.53-4.19l.06-.23c1.48,1.23,2.77,2.13,3.72,2.79a42.59,42.59,0,0,0,10.49,5.44,7.49,7.49,0,0,0,1.76.31,3.8,3.8,0,0,1,2.08.6,3.38,3.38,0,0,1,.72.74Zm32.45,12.61c-5-3.82-5.07-3.89-5.89-4.33a59.52,59.52,0,0,0-5.85-2.78v-.11a5,5,0,0,1,.31-1.8,1.31,1.31,0,0,1,.84-.21,10.93,10.93,0,0,1,3.64,1c3.16,1.31,5.8,5,7.83,8.93Zm54.74,58.46c1.19,1.12,2.39,2.32,3.57,3.57,0,0,1.93,2.07,3.6,4.1a83.17,83.17,0,0,1,7.85,12l-.22-.26-9.25.36c-.16-.48-.3-.92-.43-1.34-2.05-6.67-3.45-12.15-4.13-14.78l-.23-.91c-.24-.94-.5-1.87-.77-2.79Zm-4.55-81.91a32.64,32.64,0,0,1-.48,5,14.6,14.6,0,0,1-.72,3.18,3.89,3.89,0,0,1-.83,1,6.45,6.45,0,0,0-1.44,1.87,5.51,5.51,0,0,0-.56,1.63,13.72,13.72,0,0,1-.52,1.81,6.42,6.42,0,0,1-1.07,2.34l.66,1.25-.79-1.23h-.41a5.14,5.14,0,0,0-1.62.26,7.49,7.49,0,0,0-2.58,1.5,8.56,8.56,0,0,0-1.56,1.67c-.17.22-.34.45-.58.71a1.21,1.21,0,0,1-.16.16,17.18,17.18,0,0,0,.78-1.85,23.88,23.88,0,0,0,.69-11.31c-.14-.9-.3-1.64-.43-2.29a5.91,5.91,0,0,1-.12-3.44,7.41,7.41,0,0,1,1.92-3,7.59,7.59,0,0,1,4.41-2.45,4.51,4.51,0,0,1,.72,0,10.8,10.8,0,0,1,3.08.63,6.6,6.6,0,0,1,1,.35,3,3,0,0,1,.38.24l0,0C414.5,522.53,414.61,522.79,414.59,524.24Zm79.55,29.08a3.43,3.43,0,0,0,1.69-.39c0,.13-.08.26-.11.39a3.17,3.17,0,0,0-.08.51,5.26,5.26,0,0,1-.89-.08,5.15,5.15,0,0,1-1.48-.49A6.15,6.15,0,0,0,494.14,553.32Zm-20.84-23a1,1,0,0,1,.53-.31,1.76,1.76,0,0,1,.47.22l.3.16-1.62.22ZM486,550.66a6.09,6.09,0,0,0-.78-1.23,7.49,7.49,0,0,0-4-2.49,10.64,10.64,0,0,0-2.71-.34,9,9,0,0,0-4.92,1.32,1.48,1.48,0,0,1-.8.31,1.55,1.55,0,0,1-.86-.32c-.27-.19-.34-.34-.53-.82a6,6,0,0,0-.85-1.57,6.83,6.83,0,0,0-4.35-2.27,8.91,8.91,0,0,0-1.63-.15,9.17,9.17,0,0,0-4,.94,6.74,6.74,0,0,0-1.7,1.15,7.92,7.92,0,0,1-1.1.84,13.79,13.79,0,0,1-4,1.48,8.24,8.24,0,0,1-1.75.17c-3.69,0-8.59-1.7-10.94-2.52l-.81-.28a29.44,29.44,0,0,0-3.44-.92l.15,0c7.53-2.32,15.29-3.63,31.67-6.23l0,.15,1.45-.35c.38-.09.76-.15,1.14-.22l.62-.1a18.86,18.86,0,0,1,2.7-.19c.54,0,1.09,0,1.63.07a18.32,18.32,0,0,1,6,1.59,17.12,17.12,0,0,1,1.65.84,5.58,5.58,0,0,0-1.36,3c-.22,1.93.52,4.33,2.32,5l.22.06c.07.16.13.3.2.43a7.24,7.24,0,0,0,2,2.53A11.53,11.53,0,0,0,486,550.66Zm62.57-44.27a14,14,0,0,1-2.88,3.2c-.12.1-.26.19-.39.28,1.11-1.15,2.2-2.33,3.34-3.58A.86.86,0,0,0,548.55,506.39Zm17.66-78.28a12.39,12.39,0,0,0-5.2-2.64,25.09,25.09,0,0,0,.28-3.35v-.22a7.71,7.71,0,0,0,3,1.94,8.07,8.07,0,0,0,2.71.48,7,7,0,0,0,2.83-.58,7.15,7.15,0,0,0,1.41-.83l.09.85-.07.25c-.61,2.46-.83,3.82-1.16,5.87-.13.85-.29,1.82-.5,3.05A12.08,12.08,0,0,0,566.21,428.11Z"/><path class="cls-3" d="M296.77,170.93a5.73,5.73,0,0,0,.61,2.33c1.35,2.76,5,5.29,10.86,7.53,8.4,3.21,20.83,5.7,35.93,7.19,10,1,20.59,1.49,31.55,1.49,27.6,0,53.46-3.32,67.48-8.68,5.86-2.24,9.52-4.77,10.86-7.53a5.77,5.77,0,0,0,.61-2.33L469.56,111a2.45,2.45,0,0,0-.63-2.32,51.13,51.13,0,0,0-8.21-6.5,2.4,2.4,0,0,0-1.32-.39,2.43,2.43,0,0,0-2.36,1.85l-3.14,12.6a45.64,45.64,0,0,0-7.53-4.7l2.92-13.3a2.44,2.44,0,0,0-1.42-2.77c-2.71-1.15-5.62-2.25-8.64-3.26l-.27-.08-2.47-.54-3.24,14.73c-2.52-.79-5.21-1.54-8-2.22l2-13a2.44,2.44,0,0,0-1.84-2.75c-2.92-.68-5.95-1.32-9-1.87a2.25,2.25,0,0,0-.44,0,2.44,2.44,0,0,0-2.41,2.06l-2,12.91q-2.93-.47-5.93-.85l1-13.3a2.42,2.42,0,0,0-2.12-2.6c-3.17-.39-6.43-.72-9.7-1h-.19a2.44,2.44,0,0,0-2.43,2.26l-1,13.26c-2.56-.16-5.16-.28-7.76-.36V85.67A2.43,2.43,0,0,0,381,83.24H370.43A2.43,2.43,0,0,0,368,85.67V98.81c-2.61.08-5.23.2-7.75.36l-1-13.26a2.46,2.46,0,0,0-2.43-2.26h-.2c-3.27.26-6.53.59-9.69,1a2.43,2.43,0,0,0-2.13,2.6l1,13.3c-2,.26-4,.54-5.92.85l-2-12.91a2.46,2.46,0,0,0-2.41-2.06,2.12,2.12,0,0,0-.44,0c-1.42.25-2.81.53-4.18.81-1.74.36-3.32.71-4.83,1.06a2.44,2.44,0,0,0-1.84,2.75l2,13c-2.79.68-5.47,1.43-8,2.22L315,91.62l-2.46.54-.27.08c-3,1-5.93,2.11-8.65,3.26a2.45,2.45,0,0,0-1.42,2.77l2.92,13.3a45.64,45.64,0,0,0-7.53,4.7l-3.13-12.6a2.44,2.44,0,0,0-2.37-1.85,2.34,2.34,0,0,0-1.31.39,50.69,50.69,0,0,0-8.21,6.5,2.45,2.45,0,0,0-.64,2.32Z"/><path class="cls-4" d="M488.06,218.65H263.38a2,2,0,0,0-1.93,2V438.26c0,16,11.27,29.68,26.59,32.22l49.31,6.73a52.51,52.51,0,0,1,28.26,13.31l10.11,9.23,10.11-9.23a52.51,52.51,0,0,1,28.26-13.31l49.31-6.73c15.32-2.54,26.59-16.19,26.59-32.22V220.64A2,2,0,0,0,488.06,218.65Z"/><path class="cls-5" d="M440.49,547.85s2.83.77,10,3.51a9.63,9.63,0,0,1,2.75,1.5,10.14,10.14,0,0,1,2.75,3.37c2.78,5.21-3.46-7.86,8,13.51a51.44,51.44,0,0,0,4.51,7.37c1.41,1.9,2.3,2.77,3.58,3.38a7.43,7.43,0,0,0,6.17.17,7,7,0,0,0,3.58-8.76,13.43,13.43,0,0,0,4.51,2.42,8.43,8.43,0,0,0,5.25.42c.49-.15,3.62-1.11,4.08-3.75a5.23,5.23,0,0,0-3.33-5.34c.78.2,1.92.45,3.33.67,4,.62,5.81.22,6.34.08,1.15-.29,2.73-.69,3-1.75s-.88-2.15-1.59-2.83a8.35,8.35,0,0,0-3.83-2.09,12.25,12.25,0,0,0,1.83-2.83,7.69,7.69,0,0,0,.92-3.09c0-.67.14-2.8-1.25-3.75a2.32,2.32,0,0,0-2.25-.25,2.17,2.17,0,0,0-.83,2.42,2.52,2.52,0,0,0-.92,1.42,2.43,2.43,0,0,0,.08,1.41,6.49,6.49,0,0,1-2.67.09,6.65,6.65,0,0,1-2.66-1.09,6.74,6.74,0,0,1-1.92-2,10,10,0,0,0-1.75-.16,10.8,10.8,0,0,0-3.09.41,5.42,5.42,0,0,0-1-2,6.09,6.09,0,0,0-3.25-2,8.65,8.65,0,0,0-6.42.75,3,3,0,0,1-1.5.59,2.93,2.93,0,0,1-1.83-.59c-1.07-.77-.86-1.63-1.67-2.66a5.53,5.53,0,0,0-3.5-1.76,7.66,7.66,0,0,0-4.75.67c-1.24.6-1.31,1.06-2.67,1.92a15,15,0,0,1-4.42,1.67c-4.45,1-11.9-1.88-14.25-2.67-3.86-1.29-9.69-2.32-17.93-.67a42.73,42.73,0,0,1,10.18.25A78.87,78.87,0,0,1,440.49,547.85Z"/><path class="cls-5" d="M477.09,534.39c4.85.38,10.28.87,16.26,1.5a22.73,22.73,0,0,1,7.33,1.75,19.85,19.85,0,0,1,6.84,5,19.53,19.53,0,0,1,3.08,4.92c1.45,3.16.83,3.73,2.17,6.59a23.24,23.24,0,0,0,4.09,5.75c2.35,2.69,3.59,3.28,4.08,3.5a7.37,7.37,0,0,0,3.84.67,6.63,6.63,0,0,0,3.75-1.59,6.25,6.25,0,0,0,2.08-3.66,6,6,0,0,0-.08-2.25,20.65,20.65,0,0,0,2.08,2,20.36,20.36,0,0,0,3.92,2.5,15.34,15.34,0,0,0,4.09,1.5,9.36,9.36,0,0,0,5.58-.34,5.05,5.05,0,0,0,2.75-2.16,4.51,4.51,0,0,0,.42-3.09,4.45,4.45,0,0,0-1.75-2.58c1.63.26,3,.45,4.08.58a15.43,15.43,0,0,0,4.42.25,5.84,5.84,0,0,0,3.5-1.42,5.31,5.31,0,0,0,1.42-2.58,6,6,0,0,0,.08-2.67,22.54,22.54,0,0,0,5.17-1.16,9.19,9.19,0,0,0,3.84-2.17,4.67,4.67,0,0,0,1.41-2.84,4.6,4.6,0,0,0-.91-2.91,6.58,6.58,0,0,0-4-2.76,7.23,7.23,0,0,0-4.75.84,26.27,26.27,0,0,0-4,2.67,4.89,4.89,0,0,1-2.17,1.16,4.17,4.17,0,0,1-2.33-.25,6.35,6.35,0,0,0-.08-2.5,7.69,7.69,0,0,0-3.5-4.42,7.87,7.87,0,0,0-5-1.66,7.48,7.48,0,0,0-4.08,1.66,9.65,9.65,0,0,0-3.25,4.34,8,8,0,0,0-3.67-4.5,7.81,7.81,0,0,0-5.25-.75c-1.76.34-3,1.34-5.59,3.33-2.72,2.13-2.35,2.37-3.67,3a11.05,11.05,0,0,1-7.25.5,20,20,0,0,1-3-1.16c-2.1-.89-4.23-1.71-6.34-2.59-2.27-.95-7.49-2.08-20.59-2.75Z"/><path class="cls-5" d="M535.61,515.13a8.31,8.31,0,0,1,4.5-.75,6.93,6.93,0,0,1,3.42,1.25,11.43,11.43,0,0,1,2.84,3.67,5,5,0,0,0,1.25,1.84,3.92,3.92,0,0,0,2.25.83,4.05,4.05,0,0,0,2.83-1.08,5.11,5.11,0,0,0-.25,3,5.39,5.39,0,0,0,1.75,2.75,7.14,7.14,0,0,0,4.09,1.83,6.61,6.61,0,0,0,4.17-.83,6.8,6.8,0,0,0,3-4.17,7.06,7.06,0,0,0,3.83,1.17,6.85,6.85,0,0,0,3.75-1.09,8.92,8.92,0,0,0,2.84-3.41,10.39,10.39,0,0,1,1.17-2.09,3.32,3.32,0,0,1,2.33-1.58,1.68,1.68,0,0,1,1.33.58c.3.47,0,.92,0,1.58a3.62,3.62,0,0,0,1.42,2.34,7.51,7.51,0,0,0,5.34,2.25,5.57,5.57,0,0,0,4.16-1.5,5.24,5.24,0,0,0,1.25-4.42,5.1,5.1,0,0,0-3.58-3.83A7.35,7.35,0,0,0,593,512.3a7.21,7.21,0,0,0,2.33-2.5,7.34,7.34,0,0,0,.84-4,8.85,8.85,0,0,0-1.76-4.75,8.63,8.63,0,0,0-3.83-3.34,8.17,8.17,0,0,0-4.08-.58,6,6,0,0,0,1.5-3.5,4.93,4.93,0,0,0-.75-3.17,5.58,5.58,0,0,0-3.84-2c-1.2-.24-3-.62-4.33.5a3.29,3.29,0,0,0-1,1.58,5.71,5.71,0,0,0-2.26-2.08,6,6,0,0,0-4-.42,6.87,6.87,0,0,0-4.17,2.5,8.35,8.35,0,0,0-1.41,4.17,6.35,6.35,0,0,1-.25,2,4.8,4.8,0,0,1-1.75,2.17,19.58,19.58,0,0,0-3.34-.34,10.43,10.43,0,0,0-4.83.67c-1.51.71-2.32,1.8-3.59,3.5-1.44,2-1.26,2.44-2.75,4.5a15.12,15.12,0,0,1-3.17,3.51,12.05,12.05,0,0,1-6.17,2.33,3.78,3.78,0,0,0-4,.67A3,3,0,0,0,535.61,515.13Z"/><path class="cls-5" d="M565.87,473.12a28.25,28.25,0,0,1,7.67-6.84c2.26-1.31,4.32-2.51,6.26-2.5a3,3,0,0,0,1.5-.25c1-.49,1-1.35,2.25-2.25a2.25,2.25,0,0,1,1.5-.58,2.08,2.08,0,0,1,1.33.75,5.49,5.49,0,0,1,1.34,2.25c.76,2.26,3.44,3.84,5.16,4.42.62.2,3.72,1.24,6.17-.5a6.9,6.9,0,0,0,2.5-4.42,8.38,8.38,0,0,0,0-3.42,13.17,13.17,0,0,0,3,.33c1.72,0,3.45,0,4.91-1.08,1.85-1.36,2.22-3.64,2.42-4.92a10.23,10.23,0,0,0-.33-4.58,5.48,5.48,0,0,0,3.92.75c2.23-.5,3.31-2.48,3.83-3.42a5.82,5.82,0,0,0,.92-3.34,6,6,0,0,0-2.84-4.25,8.81,8.81,0,0,0,1.92-4.08,7.73,7.73,0,0,0-.42-4.59,5.19,5.19,0,0,0-2.41-2.83,4.86,4.86,0,0,0-2.42-.42c-2.12.25-4,2.42-4.75,5.42a14.28,14.28,0,0,0-2.67-1.08,9.71,9.71,0,0,0-3.34-.59c-2.68.14-4.58,2.18-5.58,3.25a12.46,12.46,0,0,0-2.25,3.42,8.86,8.86,0,0,0-3.5-2,9.14,9.14,0,0,0-4-.25,8.38,8.38,0,0,0-5.67,3.17,8.24,8.24,0,0,0-1.17,6.75,2.64,2.64,0,0,0-1.42.25,3.83,3.83,0,0,0-1.66,2.75c-.86,3.69.86,12.62,1,13.34a24.14,24.14,0,0,0-13.18,11.34Z"/><path class="cls-5" d="M579.38,406.09s.15,0,6.84-9.17a3.37,3.37,0,0,1,1.75-1.5c.6-.17,1.09,0,2.33-.33.51-.13.78-.24.92-.5a1.21,1.21,0,0,0-.17-1.08,13.27,13.27,0,0,0,1.5.16,8.51,8.51,0,0,0,3.09-.25,4.85,4.85,0,0,0,2.66-1.67,4.79,4.79,0,0,0,.5-4.08c.8-.07,1.92-.18,3.25-.33,3.11-.35,3.81-.51,4.59-.84a5.14,5.14,0,0,0,2.92-2.25,3.47,3.47,0,0,0,.16-3.08,3.38,3.38,0,0,0-3.25-1.67,9.62,9.62,0,0,0,2.67-1.75,5.57,5.57,0,0,0,1.58-2.08A4.81,4.81,0,0,0,611,373a2.69,2.69,0,0,0,1.67-1.25,3.35,3.35,0,0,0,.08-2,3.9,3.9,0,0,0-.66-2.17,3.1,3.1,0,0,0-1.25-.92,4.06,4.06,0,0,0,2.83-1.66c.47-.76.42-1.59.34-3.26-.1-1.85-.15-2.77-.84-3.41s-1.23-.57-2.58-.67a7.28,7.28,0,0,0-4.67.83,5.63,5.63,0,0,0-1.33,1.17,4.38,4.38,0,0,0-1.09-2.17,4.7,4.7,0,0,0-3.25-1.33,5.34,5.34,0,0,0-3.42.83,5.13,5.13,0,0,0-2.17,3.25,5,5,0,0,0,.51,3.17c-.75-.13-1.81-.29-3.09-.42-2.22-.22-3.35-.32-4.17,0-2,.81-2.79,3.19-3,3.84-.65,2-.12,3.76.42,5.58a17.66,17.66,0,0,0,3,5.84,19.64,19.64,0,0,0-2.59,1.17c-1.77,1-3.31,1.8-4.16,3.5a5.67,5.67,0,0,0-.59,2.17c-.17,3.31,2.84,6.34,3.17,6.66a3.86,3.86,0,0,1,1.17,1.51,4.3,4.3,0,0,1-.5,3.25C583.48,399.1,579.58,406.23,579.38,406.09Z"/><path class="cls-5" d="M577.05,373.58l2.41.59c.09-4.42.17-10.84.25-15.26a3,3,0,0,1,.5-1.42,3.56,3.56,0,0,1,2.17-1.25,13.08,13.08,0,0,0,5.34-3.33,10.67,10.67,0,0,0,2.83-4.34,6.13,6.13,0,0,0,.25-4,5.37,5.37,0,0,0-1.58-2.33c-.47-.88-.4-1.38-.25-1.67.24-.48.72-.39,1.33-1a2.89,2.89,0,0,0,.83-1.67,2.85,2.85,0,0,0-.58-1.92c-1.27-1.78-4.12-1.43-4.25-1.41a19.57,19.57,0,0,0,.67-3.92c.17-2.59.3-4.6-.92-5.59-1.49-1.2-4.07-.17-4.5,0a10,10,0,0,0,.25-5.41,5.61,5.61,0,0,0-1.84-3.42,5.74,5.74,0,0,0-3.83-.92,4.75,4.75,0,0,0-3.17.83,4,4,0,0,0-1.33,2.34,13.1,13.1,0,0,0-4.09-5.67,7.82,7.82,0,0,0-4-1.92,6,6,0,0,0-7,6.34,6,6,0,0,0,1.83,3.75,7.73,7.73,0,0,0-4.5,2.33A8.42,8.42,0,0,0,552,327.4c-.4,1.68-1,4.08.25,5.33a5.73,5.73,0,0,0,3.17,1.17c1.18.15,2,0,2.25.42.13.26,0,.56-.42,1.25-.79,1.43-1.33,2.34-1.41,2.5a5.87,5.87,0,0,0-.42,3.92c.47,2.19,2.2,3.5,3.42,4.41A29.5,29.5,0,0,0,563,349a4.06,4.06,0,0,1,2.25,1.83c.27.63.1.93.33,1.59a4.36,4.36,0,0,0,2.26,2.16,10.67,10.67,0,0,0,5.5,1.26,3.87,3.87,0,0,1,1.16.41,5.26,5.26,0,0,1,2.26,3,7.28,7.28,0,0,1,.33,1.42C577.1,364.3,577.07,369.94,577.05,373.58Z"/><path class="cls-5" d="M466.42,533.64a17.75,17.75,0,0,0,3.5-4.5,2.08,2.08,0,0,0,.25-1.75,2,2,0,0,0-1.08-.84,11.24,11.24,0,0,1-2.59-2,5.76,5.76,0,0,1-1.83-3.5,5,5,0,0,1,.92-3.42,13.25,13.25,0,0,1,3.5-2.66c.47-.28.9-.51,1.08-1a2.67,2.67,0,0,0-.58-2.17,8.88,8.88,0,0,0-1.75-1.83c-1.74-1.82-1.21-5-.92-6.76.27-1.57.45-2.7,1.42-3.5a5.17,5.17,0,0,1,3.42-.83,12.35,12.35,0,0,1,4.75.83,8.62,8.62,0,0,1,.08-4,4.93,4.93,0,0,1,1.67-3,4.84,4.84,0,0,1,3.75-.5,8.57,8.57,0,0,1,4.84,2.75,3.81,3.81,0,0,1,1.75-2.25,4,4,0,0,1,3.33-.17c1.93.77,2.55,2.86,2.83,3.84a7.64,7.64,0,0,1-5,9.5,6.77,6.77,0,0,1,1.67,2.17,7.3,7.3,0,0,1,.58,4.25,9,9,0,0,1-3.08,5.92,8.68,8.68,0,0,1-4,1.83,3,3,0,0,1-.5,2.09c-.26.33-.45.36-1.92,1.33-1,.68-1.2.83-1.33,1.08-.3.57-.09.94-.17,1.75a4.34,4.34,0,0,1-.92,2.34,4.27,4.27,0,0,1-4.33.75c-.88-.33-1.32-.87-2.17-.75a2.23,2.23,0,0,0-1.25.67c-1.13,1-2.8,2.57-4.84,4.5Z"/><path class="cls-5" d="M533.45,513.05c-.57.32-1.91-.84-2.67-1.5a10.82,10.82,0,0,0-1.34-1.17,5.9,5.9,0,0,0-2-.83,9.3,9.3,0,0,0-2.25-.09c-1.68.06-1.9.24-2.41,0a3.13,3.13,0,0,1-1.42-1.66,21.84,21.84,0,0,1-.84-2.84,13.68,13.68,0,0,0-.5-1.33,8.42,8.42,0,0,1-2-.08,6.48,6.48,0,0,1-3.08-1.25c-.22-.18-2.09-1.75-1.92-3.67.08-.89.52-1.05,1.09-2.5a10.59,10.59,0,0,0,.66-2.84,3.12,3.12,0,0,1-1.83.25c-2-.37-2.88-2.91-3.17-3.75a5.86,5.86,0,0,1-.17-4.42,5.68,5.68,0,0,1,4.92-3.08,5.31,5.31,0,0,1-1.75-2.17,5.58,5.58,0,0,1,.25-4.58,5.24,5.24,0,0,1,3-2.67c1.81-.55,3.4.26,4.84,1a11.31,11.31,0,0,1,3.92,3.33,4.9,4.9,0,0,1,1.66-2.58,5.08,5.08,0,0,1,3.42-1c2.81.08,5.39,2.2,5.59,3.75a5.56,5.56,0,0,0,.41,1.5c.36.83.65,1,.75,1a1.39,1.39,0,0,0,1.17-.25c.66-.42.68-1,1-1.33.78-.85,3.35-.44,4.75.75,2.94,2.48,1.83,9.26-.66,12.58-1.41,1.87-2.54,3.39-4.17,3.84a2.36,2.36,0,0,0-1.42.83c-.17.26-.38.74-.17,2.17s.53,1.58.67,2.5a6.69,6.69,0,0,1-.83,3.92c-.13.27-.65,1-1.67,2.58a11.75,11.75,0,0,0-1.5,2.42C533.23,511.59,534,512.76,533.45,513.05Z"/><path class="cls-5" d="M569.54,443.19c.74-.22.6-4-.5-7.5a12.8,12.8,0,0,0-3.75-6.5,11.29,11.29,0,0,0-5.92-2.59,23.37,23.37,0,0,0,.5-4.5,13.11,13.11,0,0,0-.58-5.17,10,10,0,0,0-3.5-4.58c-.88-.62-2.15-1.51-3.17-1.09-.79.33-.87,1.21-1.92,1.5a2.45,2.45,0,0,1-1.5-.08,3.1,3.1,0,0,1-1.42-1.25,11.63,11.63,0,0,0-4.41-3.84,5.46,5.46,0,0,0-3.84-.16c-2.11.86-3.41,3.7-3.08,7a13.88,13.88,0,0,0-2.25-.5,9.32,9.32,0,0,0-4.84.25,7.54,7.54,0,0,0-3.58,2.92,8.57,8.57,0,0,0-.92,6.5,4.72,4.72,0,0,0,1.5,3.25,3.81,3.81,0,0,0,2.25.75,6.74,6.74,0,0,0-1,2.25,4.78,4.78,0,0,0,0,2.84c.58,1.51,2.13,2.15,3.17,2.58a8,8,0,0,0,3.75.58,8.39,8.39,0,0,0,5.17-2.5c0-.05.58-.65.92-.5s.24.43.25.92c0,1.71-.49,2.27-.34,3.08a3.1,3.1,0,0,0,1.59,1.84,6.17,6.17,0,0,0,4.5.75,7.49,7.49,0,0,0,4.83-3.67c.12-.08.69-.45,1-.25.1.07.17.19.25.83.12.93,0,1.08.17,1.26s.31.3,1.75.08a7,7,0,0,0,2.67-.75,5.77,5.77,0,0,0,1.58-1.34,5.69,5.69,0,0,1,3.59.5c1.25.61,2.1,1.61,3.75,3.59.47.57.67.83,1.25,1.5C568.67,442.58,569.28,443.27,569.54,443.19Z"/><path class="cls-5" d="M569,445c-.19.34-1.67-.71-4-.83a9.9,9.9,0,0,0-5.67,1.58,11.78,11.78,0,0,0-4.58,6.51,22.1,22.1,0,0,0-1.09,5.83c-.18,2.54.12,3.37-.5,5.09a7.13,7.13,0,0,1-2.58,3.67,7.83,7.83,0,0,1-4.75,1.08c-1.78,0-3.3-.49-6.34-1.5s-3.9-1.61-4-2.34a8.13,8.13,0,0,1,.25-2c.15-.85.26-1.13.08-1.33s-1.27-.19-1.83.33-.35.95-.75,1.59a3.45,3.45,0,0,1-2,1.25c-4.12,1.35-6.18,2-7.5,1.42a5.64,5.64,0,0,1-2.59-2.67,5.43,5.43,0,0,1-.5-3.17,5.35,5.35,0,0,1,1.5-2.92,6.47,6.47,0,0,1-2.33-1.67,5.48,5.48,0,0,1-1.59-3.91,4.69,4.69,0,0,1,1.17-2.92,4.86,4.86,0,0,1,3.67-1.5,10.71,10.71,0,0,1,.17-4.92c.36-1.32.85-3.11,2.41-4a6.19,6.19,0,0,1,2.84-.59c1.29-.08,1.58.12,3.75.17a12.12,12.12,0,0,0,2.5-.08,10.26,10.26,0,0,0,3-1.25,13,13,0,0,1,5.34-1.25,7.5,7.5,0,0,1,5.08,1.5,6.63,6.63,0,0,1,2.09,3.33l2.16.09c3.65.11,4.12,0,4.59-.25.79-.42.78-.8,2.17-1.59,1.11-.63,1.52-.62,1.75-.58.6.1.9.56,1.66,1.42.6.67,1.3,1.25,1.92,1.91C567.12,443.29,569.27,444.63,569,445Z"/><path class="cls-5" d="M577.21,397.51a20.5,20.5,0,0,0-5.33-7.34,20.92,20.92,0,0,0-3.17-2.25L567,389.17c-2.76,2-3.12,2.22-3.75,2.42a8.1,8.1,0,0,1-3.67,0c-2.08-.27-3.42-.44-4.42-1.5A5.28,5.28,0,0,1,554,387.5a8.77,8.77,0,0,1,0-4c-.44-.16-1.08-.4-1.83-.75a11.1,11.1,0,0,1-4.84-3.42c-.43-.61-1.46-2.05-.91-3.16a2.13,2.13,0,0,1,1.25-1,2.57,2.57,0,0,1,2,.16,2.62,2.62,0,0,0-.34-1.5,2.67,2.67,0,0,0-1.41-1.17c-.8-.26-1,.12-1.92,0-1.35-.17-2.56-1.31-2.42-1.91.08-.32.47-.31.75-.84a1.9,1.9,0,0,0,.17-1.08c-.07-.78-.49-1.31-1.33-2.33-1.54-1.86-1.58-1.81-1.67-2.09a3.7,3.7,0,0,1,.92-3.42,5.39,5.39,0,0,1,3.75-1.41,7.76,7.76,0,0,1,1.75,0,4.71,4.71,0,0,1-.25-2.09,4.16,4.16,0,0,1,.91-2.33c1.11-1.24,2.93-1.15,4.09-1.09,1.36.07,4,.21,5,2.17a4.34,4.34,0,0,1-.08,3.5,8.34,8.34,0,0,1,3.42-.5,6.87,6.87,0,0,1,4,1.42c1.74,1.59,2.06,4.73.75,7.75l1.16.17c2,.26,2.24.22,2.59.5a2.73,2.73,0,0,1,.67,2.25,4.09,4.09,0,0,1-1.5,2.75,1.5,1.5,0,0,1,1.25.42c.18.25.13.52.08,1.25a4.88,4.88,0,0,0,.08,2.17,2.17,2.17,0,0,0,1.42.91c1.26.35,1.93-.32,2.42.09s.09,2.12-.09,2.66c-.42,1.28-.85,1.43-1.5,2.76-.52,1.06-1.21,2.49-.83,3.75s1.54,1.54,2.58,2.33C575.31,391.37,576.77,393.27,577.21,397.51Z"/><path class="cls-6" d="M261.51,481.2a35.71,35.71,0,0,0,1,10.68c.6,2.36,3.42,12.57,12.51,19.34a53.29,53.29,0,0,0,12.17,6.33c3,1.15,3.53,1.06,5,1.84,3,1.58,6.65,5,9,13.33l2.84.17a197.09,197.09,0,0,1-11.34-17c-2.49-4.19-4.39-7.78-8.5-14.33-3.3-5.26-4.95-7.89-6.5-9.67C275,488.77,270.11,484.35,261.51,481.2Z"/><path class="cls-6" d="M301.69,495.33a45.5,45.5,0,0,0,1.38,7.88,40,40,0,0,0,16.88,24,40.28,40.28,0,0,0,10.13,5.25c1.25.42,2.85.06,4.25,1.13,1.68,1.28,2.2,3.46,2.38,5.13l3.12-.13a52.66,52.66,0,0,1-6.12-8.88c-2.06-3.75-2.59-5.81-4.63-10a85,85,0,0,0-6.25-10.63C320.66,506.09,315,499.5,301.69,495.33Z"/><path class="cls-6" d="M211.29,486.83a14.63,14.63,0,0,0-.5,6,15.92,15.92,0,0,0,2.37,6.38c4.75,7.87,13.39,11.57,17.13,13.13,2.51,1,2.57.82,4.5,1.75a32.41,32.41,0,0,1,10.88,8.63c1,.3,1.49.34,1.63.12q.54-.84-7.13-7a30.35,30.35,0,0,0-3.25-9.25c-3-5.51-7-8.57-11.25-11.76A61.17,61.17,0,0,0,211.29,486.83Z"/><path class="cls-6" d="M237.8,464.57c-2.87.51-3.3,10.67-3.76,21.26-.24,5.73,0,8.89,1.25,12.26a54.92,54.92,0,0,0,3.88,7.75c1.21,2.12,2.85,3.19,3.5,5.63a10.07,10.07,0,0,1,.13,4.5l6,7.75,4,1-7.63-7.88a11.84,11.84,0,0,1-1-4.75,14.92,14.92,0,0,1,1-4.75,40.29,40.29,0,0,1,2.38-6.13c1.32-2.7,1.73-9-1.5-24.13C241.59,466.25,239.18,464.33,237.8,464.57Z"/><path class="cls-6" d="M205.16,442.07a35.17,35.17,0,0,0-6.25,7,32.75,32.75,0,0,0-5.63,14,35.3,35.3,0,0,0,.62,12.51,68.15,68.15,0,0,0,2,7,40.1,40.1,0,0,1,.87,16.88c4.2,5.22,5.53,6.23,5.88,6,.51-.33-1.3-3.19-2.63-8a33.07,33.07,0,0,1-1.25-12.13c.52-4.65,2-5.09,4.25-11.5a58.24,58.24,0,0,0,3-15.63A65.07,65.07,0,0,0,205.16,442.07Z"/><path class="cls-6" d="M183,479.33a51.05,51.05,0,0,0-19.39-5.13A52.44,52.44,0,0,0,141.26,478a59.23,59.23,0,0,0-18.76,11.51,49.22,49.22,0,0,0,15.13,3c4.55.16,15.37.55,22.76-4.88,2.86-2.1,5.8-4.11,8.63-6.25,2.64-2,3-2.35,4-2.63,5.3-1.47,10.81,4.21,11.51,3.38C184.7,481.88,184.59,481.27,183,479.33Z"/><path class="cls-6" d="M149,531.47c1.54-.33,3.86-.89,6.63-1.75,9.92-3.08,10.68-5.47,17-7.5,9.37-3,19.13-1.46,29.13.12,2.14.34,1.93.38,3.63.63a63.86,63.86,0,0,0,23.88-1c3.35.43,5,.81,5,1.12q0,1.13-28.38,1.26a4.71,4.71,0,0,0-2.5.5,5.15,5.15,0,0,0-2.13,2.25c-1.48,2.73-9.82,5.68-21,7.12a67,67,0,0,1-15.13.75A60.11,60.11,0,0,1,149,531.47Z"/><path class="cls-6" d="M136.13,419.68a15.12,15.12,0,0,0,0,4.5c.7,4.44,3.33,7.35,6.51,10.76a44.58,44.58,0,0,0,8.5,7.13,48.13,48.13,0,0,0,11,5.12c3.09,1,3.3.79,5.13,1.5,2.77,1.08,6.52,3.27,10.25,8.26a18.9,18.9,0,0,0,.13-3.51c-.72-13.29-15-22-16.63-23s-.76-.28-16-6.88C141.25,421.93,138.17,420.58,136.13,419.68Z"/><path class="cls-6" d="M129.63,384.54c1,2.26,2.6,5.5,4.75,9.26,3.66,6.37,8,13.8,15.38,20A47.77,47.77,0,0,0,160,420.43c1.46.68,2.72,1.17,3.62,1.5l8.63,10.88v-3.62a49.13,49.13,0,0,1-5.63-7.63c-3-5-3.62-8.14-6.5-14.38a77.41,77.41,0,0,0-5.75-10.63C152.08,393.31,145.91,386.58,129.63,384.54Z"/><path class="cls-6" d="M140,356.78a25.42,25.42,0,0,0-.75,11.38c1.14,6.78,4.89,11.26,8.13,15.13a52.66,52.66,0,0,0,9.88,9c3.91,2.76,4.94,2.69,7.12,4.62,2.49,2.2,5.38,6,6.76,13.13l-.13-7.37a24.09,24.09,0,0,1-5.13-7.38,26.25,26.25,0,0,1-1.87-6.63,32.84,32.84,0,0,1-.38-4.5c-.07-2-.88-6-9.88-15.26A117.19,117.19,0,0,0,140,356.78Z"/><path class="cls-6" d="M161,317.89a44.5,44.5,0,0,0-3.88,12.63,40.47,40.47,0,0,0,1.63,20.14c1,2.81,3.49,9.6,7.12,12.88a9.84,9.84,0,0,1,3.51,8,1.85,1.85,0,0,0,1.62-.13c.62-.51.3-1.59.38-3.25a15.59,15.59,0,0,1,.62-3.25c.68-2.92,2.09-10.4,2.5-14.25a41.35,41.35,0,0,0-1-14.13C171.08,327.29,165,321.14,161,317.89Z"/><path class="cls-6" d="M196.78,352.91a59.78,59.78,0,0,0-10.88,11.75c-3.72,5.3-7,9.9-8.13,16.63-.94,5.41.12,8.31-2,14.26a31.62,31.62,0,0,1-3.62,7.13l-.25,2c1.35-1.39,3.35-3.51,5.62-6.26,1.49-1.79,2.11-2.67,3.38-4.25,3.19-3.95,5.52-6.16,6.88-7.63,5.84-6.3,8.1-14.44,8.63-16.5A38.9,38.9,0,0,0,196.78,352.91Z"/><path class="cls-6" d="M200.16,404.18a41.55,41.55,0,0,0-8.84,8.75,42.76,42.76,0,0,0-5.75,10.67A50.78,50.78,0,0,0,182.23,439q-2.37,4-4.75,7.92c.14.78.34,1,.5,1,.84.16,2-3.85,4.84-7.58a7.52,7.52,0,0,1,2-1.92,7.89,7.89,0,0,1,2.75-1.09c3-.64,5.93-5.07,7.58-7.58,1.94-2.93,4.37-6.62,4.92-11.76.08-.66.08-3.83.09-10.17Z"/><path class="cls-6" d="M229.29,546.73a62,62,0,0,0,11.13-3c3.63-1.36,4.5-2.08,7.75-3.13a44.41,44.41,0,0,1,11.26-2c5.06-.32,6.83.3,14.88.88,0,0,4.08.29,12.25.5,18.3.46,32.65-2.57,32.77-1.88.06.39-4.42,1.49-7.63,2.13-7.41,1.47-9.86.87-18,2.37-1.8.33-4.16.77-7.25,1.63-5.17,1.43-7.06,2.54-12.76,4.62a96.82,96.82,0,0,1-12,3.76c-4.59,1.06-9.1,2.1-14.13,1.75C244.3,554.13,237.19,553.06,229.29,546.73Z"/><path class="cls-6" d="M239.67,580.87a71.29,71.29,0,0,1,13.13-13.63c2.82-2.23,5.85-4.29,15.13-9.38,10.71-5.88,16.06-8.82,22-11.38A150.88,150.88,0,0,1,321,537a49.11,49.11,0,0,0-25.63,11.82c-6.69,5.92-7.4,9.88-12.76,16a55.47,55.47,0,0,1-14.32,11.12C257.76,581.39,247,581.62,239.67,580.87Z"/><path class="cls-7" d="M592.89,409.05a14.53,14.53,0,0,0-4.18-3.53,15.8,15.8,0,0,0-5.26-1.86,15.49,15.49,0,0,0-3.85-.13c-.08-1.07-.21-2.07-.3-3-.48-4.62-.7-12.37.16-26.34l-2.33-.84c0,9.62-.12,18.54-.17,27.18,0,5,0,8.91-1.33,14-.68,2.68-1.28,4-2,6.38a12.38,12.38,0,0,0-1.89-3.39,10.29,10.29,0,0,0-3.23-2.65,10.4,10.4,0,0,0-4-1.08,10.08,10.08,0,0,1,3.72,1.47A9.39,9.39,0,0,1,571,418a11.41,11.41,0,0,1,1.46,3.58,14.68,14.68,0,0,1,.32,2.29l-.12.46c-1,3.93-.93,5-2,10.84-1.24,6.73-1.72,7.56-2.84,13.34-1.42,7.34-1.53,10.55-2.17,14.5-2.57,16.11-11.18,28.19-14.33,32.51a62.52,62.52,0,0,1-13.68,14.51c-2.4,1.78-3.54,2.31-8.17,5.67-3.69,2.68-5.81,4.41-7.39,5.7a28.88,28.88,0,0,0-15.86-7.94,27.47,27.47,0,0,1,13.9,9.51c-.63.49-1.26.94-2,1.4-6.35,4-12.63,3.9-19,4.17-1,0-10.61,1.36-29.73,4h-.16l-7,1c-2.72.37-21.35,3-37.51,8.17-40.51,12.91-65.88,41.75-74.69,52a183,183,0,0,0-20.13,28.54,4.07,4.07,0,0,0-.52,2.22,17.42,17.42,0,0,0,2.56,8.63c.83,1.33,2,3.11,3.62,3.12,1.47,0,2.68-1.43,3.25-2.12a7.77,7.77,0,0,0,1.54-3,176.93,176.93,0,0,1,11.18-20.34c23.48-36.8,53.69-53.9,59.68-57.19a138.53,138.53,0,0,1,16.7-8,23.77,23.77,0,0,0-1.44,3,24.4,24.4,0,0,0-1.76,9.62,23.5,23.5,0,0,1,3.36-8.81,22.46,22.46,0,0,1,5.36-5.79c1-.34,2.05-.68,3.13-1,8-2.46,16.51-3.84,33.22-6.49v0c.41-.1.82-.18,1.24-.25l.65-.1a20.15,20.15,0,0,1,4.66-.13,19.8,19.8,0,0,1,6.48,1.7,20.28,20.28,0,0,1,5.69,3.81,21.69,21.69,0,0,1,4.27,5.54,22.27,22.27,0,0,0-3.62-6.15,21.4,21.4,0,0,0-5.5-4.78,22.41,22.41,0,0,0-2.8-1.44c5.77-.9,9.28-1.4,11.55-1.6,7.48-.63,12.5-.57,20.17-2.83a59,59,0,0,0,10.51-4.17,63,63,0,0,0,12-8.34c6.45-5.31,10.36-9.67,16.18-16.17,2.68-3,8.91-10.11,9.83-14.5a39.66,39.66,0,0,1,1.34-4.84c.54-1.56,1-2.69,1.29-3.23a18.18,18.18,0,0,1,8.54-2.61,18.71,18.71,0,0,1,10.32,2.59,19.05,19.05,0,0,0-10.32-3.48,19.26,19.26,0,0,0-7.59,1.28,73.47,73.47,0,0,0,3.43-10.22c.74-3.09.41-3,1.66-8.84.53-2.47.68-2.87,1-4.67.12-.63.53-3,1-7.83s.23-4.26.5-5.84c.59-3.38,1.27-3.63,2.5-8.17a49,49,0,0,0,1.5-7.5c.39-3.19.09-3.45.51-5.84.57-3.35,1.46-4.56,2.16-7a18.16,18.16,0,0,0,.7-4.48,13,13,0,0,1,3.58-.36,14.33,14.33,0,0,1,4.88,1.05,13.61,13.61,0,0,1,7.27,7A14.13,14.13,0,0,0,592.89,409.05Z"/><path class="cls-7" d="M446.25,617.63a7.78,7.78,0,0,0-2-2,228.72,228.72,0,0,1-19-17.51c-3.62-3.74-7.32-7.84-15.26-16-1.84-1.9-3.52-4.63-7-7.13-3.75-2.7-6.23-3.09-10.5-5.13-3.76-1.79-6.47-3.84-11.76-7.88-22.23-17-21.7-16.74-22.88-17.38-9.81-5.31-19.53-7-26.13-8.13-4.95-.85-4.16-.34-13.26-1.62l-.65-.09-.12-.73a18.34,18.34,0,0,0-1.08-3.44,16.11,16.11,0,0,0-4.2-5.79l-.15.1c.9,2.22,1.8,4.28,2.58,6.41.38,1,.82,2,1.17,3-.64-.72-1.25-1.46-1.82-2.24-.69-1-1.28-2-2.07-2.94a8.09,8.09,0,0,0-1.31-1.24,13.81,13.81,0,0,0-1.47-1,11.56,11.56,0,0,0-3.31-1.41l-.08.16c.84.86,1.72,1.61,2.57,2.37s1.68,1.52,2.57,2.23a18.56,18.56,0,0,1,2.65,2.22,11.33,11.33,0,0,1,1.32,1.88c-10.64-1.61-19-3.38-20.73-3.75-9.44-2-12.05-3-15.9-3.5l-8.6-8.05a17.84,17.84,0,0,0,3.13,5,17.33,17.33,0,0,0,3.14,2.8l-.66,0c-2.56-.14-5.57-.14-11-.63a77.27,77.27,0,0,1-9.88-1.25c-5.45-1.15-6.38-2.21-11.88-3.38-4.67-1-4.67-.36-8.38-1.12-4.9-1-7.51-2.64-18.63-8.63-7-3.79-8.35-4.41-9.38-5-10.19-5.86-18.53-24.06-23.57-37.5a14.34,14.34,0,0,1,4.21-9.39,15.63,15.63,0,0,0-5.68,5.33c-1-2.88-1.85-5.41-2.47-7.33a32.37,32.37,0,0,0,.13-3.88A38.84,38.84,0,0,0,177,443.69c-1.34-4.39-1.92-4.32-2.75-7.5a28.77,28.77,0,0,1-.87-8.76c0-.33,0-.66-.05-1,.08-.14.14-.29.23-.42a8.09,8.09,0,0,1,2.28-2.24,11.51,11.51,0,0,1,2.59-1.5,19.11,19.11,0,0,1,3.12-.86v-.18a6.33,6.33,0,0,0-3.51-.3,6.07,6.07,0,0,0-2.73,1.3c.34-.57.69-1.14,1-1.71,1.09-1.88,2.27-3.68,3.45-5.65l-.12-.13a15.42,15.42,0,0,0-4.95,4.76,17.72,17.72,0,0,0-1.56,3.07l-.66-14.78c-.41-9-.47-8.56-.75-16.38-.11-3.19-.19-6.13-.25-8.78h.17a10.39,10.39,0,0,0-.2-1.47c-.06-3.26-.08-6-.09-8.13l-2-1.5c0,1.88.09,3.68.14,5.39-.53-.69-1.09-1.32-1.65-1.93-.95-1-1.88-2-2.77-3.06l-2.7-3.11,2.35,3.39c.77,1.14,1.6,2.25,2.42,3.35a16.69,16.69,0,0,1,2.1,3.38,7.43,7.43,0,0,1,.32.94c.09,3.9.15,7.21.2,9.78.24,12.65.21,18,.47,25.21a52.63,52.63,0,0,0-5.48-6.24,50.69,50.69,0,0,1,5.61,9.39c0,.48.05,1,.07,1.49.37,7.82.56,11.73,1.17,16.83a182.23,182.23,0,0,0,4.83,24.85,115.67,115.67,0,0,0,4.17,13.5,106.75,106.75,0,0,0,9.67,18.84c3.61,5.63,6,9.33,8.27,11.86l-10.75-2.87c1.95.76,4.09,1.5,6.43,2.17,1.66.48,3.27.88,4.8,1.2a16.06,16.06,0,0,0,2.75,2.31c.52.34,1.07.67,1.65,1l-2.38-.27a29,29,0,0,0-10.38.71h13.55c4,2.2,8.93,4.44,11.57,7.06a6.69,6.69,0,0,0,2.83,2c1.6.5,2.72,0,4.34.83a5.62,5.62,0,0,1,1.5,1.17c2.45,2.42,7.56,2.7,13.34,3.67,2.14.36,3.82.74,7.17,1.5,4.27,1,6.71,1.71,8.7,2.32-.57,0-1.15,0-1.72.09a20.63,20.63,0,0,0-4.17.94,19.37,19.37,0,0,0-3.94,1.72l.06.17c1.44-.09,2.83-.32,4.21-.54s2.75-.47,4.11-.82c1.15-.31,2.29-.71,3.47-.95.53.15,1.07.3,1.64.44a12.13,12.13,0,0,0-5.71,6.26l.15.09a21.18,21.18,0,0,1,6.58-4.74,23.32,23.32,0,0,1,2.37-.93c4.7.73,6-.05,12.76.45,6.44.47,10.32,1.55,16.67,3,10.18,2.32,8.12,1.36,28.1,5.16A44.81,44.81,0,0,0,308,546.21a43.72,43.72,0,0,1,15.69-6.62c12.42,2.41,17.53,3.58,22.19,5.51l-.76.12a19.91,19.91,0,0,0-9.26,4.53l13.24-3.17a77.87,77.87,0,0,1,12.14,7.82c31.7,23.19,29.59,19.59,35.68,25.67,7.22,7.23,18.63,20.74,23.17,25,.31.29,1.79,1.68,3.67,3.67,0,0,1.95,2.07,3.67,4.17a100.28,100.28,0,0,1,10.17,16.34,5.62,5.62,0,0,0,1.54,2.87,4.14,4.14,0,0,0,2.38,1.38c2.86.16,5-6.24,5.12-6.5C447.15,625.41,448.58,621.08,446.25,617.63Z"/><path class="cls-8" d="M579.29,473.67a5.21,5.21,0,0,1,3-.18,8.45,8.45,0,0,1,2.78,1,7.73,7.73,0,0,1,2.7,2.35,3.92,3.92,0,0,1,1,2.61,3.8,3.8,0,0,1-1.65,2.43,6.08,6.08,0,0,1-3.91,1.57,6,6,0,0,1-4.35-2C577.52,477.7,577.82,474.51,579.29,473.67Z"/><path class="cls-8" d="M509.6,518.45a5.81,5.81,0,0,1-2.77-.08c-1.13-.36-.92-.78-3.21-2.32a5.17,5.17,0,0,1-1.76-1.55,2.17,2.17,0,0,1-.45-1.5c0-.25.22-.88,1.65-1.6a9.72,9.72,0,0,1,4.88-.91c2.5.09,3.76.13,4.73,1.06a4.36,4.36,0,0,1,.7,5.36C512.52,518.05,511,518.26,509.6,518.45Z"/><path class="cls-8" d="M486.06,544.75a3.76,3.76,0,0,0,.52,2.61,8,8,0,0,0,3.82,3.48,7.65,7.65,0,0,0,2.61,1,3.3,3.3,0,0,0,2.26-.18c1-.61,1.1-2,1.22-3.56a5.94,5.94,0,0,0-.52-3.83,5.05,5.05,0,0,0-2.61-2C490.56,541.24,486.65,542.51,486.06,544.75Z"/><path class="cls-8" d="M421.14,554.31c-.56.54-.68,1.52-.93,3.48a11.83,11.83,0,0,0-.09,3.3,10.39,10.39,0,0,0,1.52,4.17c.55.9.83,1.36,1.36,1.57,1.32.53,2.89-.8,3.29-1.13a7.89,7.89,0,0,0,2.36-4.35c.45-1.71.79-3,.26-4.35C427.71,554,422.76,552.73,421.14,554.31Z"/><path class="cls-8" d="M562.8,419.44a10.88,10.88,0,0,1-2.61-2.6c-.83-1.18-1.49-2.13-1.37-3.4a3.94,3.94,0,0,1,1.43-2.54,5.5,5.5,0,0,1,4.24-.85c1.47.15,3.49.35,4.63,2a5.19,5.19,0,0,1-1,6.65A5.29,5.29,0,0,1,562.8,419.44Z"/><path class="cls-8" d="M591.92,416.81c.65,1.11,2.64,4.29,5.13,5.65a2.8,2.8,0,0,0,1.91.44,3.33,3.33,0,0,0,2.08-1.83c1.75-3.05-1.38-8.17-1.65-8.6a4.89,4.89,0,0,0-7.47,4.34Z"/><circle class="cls-9" cx="187.84" cy="502.53" r="2.04"/><circle class="cls-9" cx="190.71" cy="510.18" r="1.83"/><circle class="cls-9" cx="186.53" cy="460.45" r="2.29"/><circle class="cls-9" cx="269.82" cy="519.05" r="2.02"/><circle class="cls-9" cx="243.91" cy="531.05" r="1.78"/><circle class="cls-9" cx="251.47" cy="536" r="2.09"/><circle class="cls-9" cx="305.98" cy="525.57" r="2.49"/><circle class="cls-9" cx="312.33" cy="524.85" r="1.77"/><circle class="cls-9" cx="307.98" cy="546.21" r="1.76"/><circle class="cls-9" cx="335.84" cy="549.75" r="1.44"/><circle class="cls-9" cx="181.58" cy="421.33" r="2.35"/><circle class="cls-9" cx="179.75" cy="414.81" r="1.83"/><circle class="cls-9" cx="164.36" cy="408.68" r="1.95"/><path class="cls-9" d="M164.07,368.83a1.66,1.66,0,1,0-1.65,1.65A1.65,1.65,0,0,0,164.07,368.83Z"/><circle class="cls-10" cx="162.1" cy="368.16" r="0.5"/><circle class="cls-10" cx="163.57" cy="408.18" r="0.5"/><circle class="cls-10" cx="180.25" cy="414.12" r="0.5"/><circle class="cls-10" cx="190.21" cy="509.47" r="0.5"/><circle class="cls-10" cx="307.36" cy="545.82" r="0.62"/><circle class="cls-10" cx="311.9" cy="524.3" r="0.5"/><circle class="cls-10" cx="250.56" cy="535.51" r="0.64"/><circle class="cls-10" cx="335.34" cy="549.47" r="0.5"/><circle class="cls-10" cx="243.38" cy="530.72" r="0.5"/><circle class="cls-10" cx="182.39" cy="420.72" r="0.78"/><circle class="cls-10" cx="187.31" cy="501.95" r="0.78"/><circle class="cls-10" cx="187.31" cy="459.67" r="0.78"/><circle class="cls-10" cx="305.49" cy="524.62" r="0.95"/><circle class="cls-10" cx="270.25" cy="518.09" r="0.61"/><path class="cls-11" d="M422.73,556.57a6.84,6.84,0,0,1,5.13,2.08c.49.51.64.82,1.05.87.58.08,1.09-.46,1.65-1,.71-.74,1.14-1.19,1.22-1.82.12-1-.68-1.81-1.57-2.7a8.18,8.18,0,0,0-3.82-2.43,5.84,5.84,0,0,0-4.61.34,3.68,3.68,0,0,0-1.48,1.66c-.38.89-.52,2.29.17,2.86C420.89,556.73,421.25,556.49,422.73,556.57Z"/><path class="cls-11" d="M580.86,474.36c-1,1.81-.64,5.4-.26,7.05a1.82,1.82,0,0,1-.09,1.47,1.69,1.69,0,0,1-1.3.53,6.15,6.15,0,0,1-5.31-2.79,5.59,5.59,0,0,1-.78-4.34,5.84,5.84,0,0,1,3.57-3.74,4.87,4.87,0,0,1,3.65-.18,1.49,1.49,0,0,1,.78.79A1.59,1.59,0,0,1,580.86,474.36Z"/><path class="cls-11" d="M511.82,511.94a3.63,3.63,0,0,1-.18,2.26,4.74,4.74,0,0,1-1,2.09A6.67,6.67,0,0,1,509,517.5c-.7.37-1.09.43-1.22.79s.2.91.43,1.21a5.21,5.21,0,0,0,2.53,1.74,5.61,5.61,0,0,0,6.17-2.34c1.83-3.15-.92-6.75-2.35-7.57a7.59,7.59,0,0,0-1.56-.61c-.41-.1-1.65-.43-1.83-.08S511.55,511.16,511.82,511.94Z"/><path class="cls-11" d="M487.45,545.71c1.61-.54,2-.75,3.13-1.13a16.89,16.89,0,0,1,3.39-1c1-.11,1.55,0,1.74-.34.32-.6-.9-1.85-1.13-2.09a8.19,8.19,0,0,0-4.61-2.26,5.56,5.56,0,0,0-3.74.43,4.72,4.72,0,0,0-2.26,3.31c-.15,1.31.31,3.09,1.39,3.48C485.65,546.25,485.91,546.23,487.45,545.71Z"/><path class="cls-11" d="M566.58,415.73c-.55,1.34-.83,2-1.5,2.41a4.84,4.84,0,0,1-2.22.52c-.9,0-1.36-.25-1.56,0s.41,1.47.52,1.63a6.1,6.1,0,0,0,2.93,2.22,6.25,6.25,0,0,0,4.5-.07c3-1.31,3.57-4.8,3.65-5.41a7.1,7.1,0,0,0-1.43-5.35,5.71,5.71,0,0,0-2.28-1.5c-.41-.13-1.45-.49-1.83-.06s0,.76.13,1.5C567.72,413,567.27,414,566.58,415.73Z"/><path class="cls-11" d="M593.57,414.88a6,6,0,0,1-.78,1.11,2.39,2.39,0,0,1-1.63.85,2.13,2.13,0,0,1-1.5-1c-.9-1.31-.24-3.08,0-3.72a5.35,5.35,0,0,1,2.86-3.32,6.94,6.94,0,0,1,7.24,2.54c.32.51.32.75.26.91-.18.56-1.13.51-2.8.91S594.27,413.9,593.57,414.88Z"/><path class="cls-10" d="M598.28,421.35a5.05,5.05,0,0,0,.73-2.2c0-.36-.16-.71,0-1a4.5,4.5,0,0,1,.66-1.2h0a.14.14,0,0,1,.17,0,1.73,1.73,0,0,1,1,1.27,2.14,2.14,0,0,1-.4,1.42,4,4,0,0,1-2,1.92.09.09,0,0,1-.12-.05A.1.1,0,0,1,598.28,421.35Z"/><path class="cls-10" d="M564.36,411.42a5.08,5.08,0,0,0-1.09.56,4.93,4.93,0,0,0-.85.71c-.25.27-.32.65-.62.82a4.86,4.86,0,0,1-1.27.52h0a.15.15,0,0,1-.16-.08,1.77,1.77,0,0,1,0-1.59c.22-.48.77-.66,1.21-.86a3.92,3.92,0,0,1,2.74-.26.08.08,0,0,1,.06.11S564.39,411.41,564.36,411.42Z"/><path class="cls-10" d="M583.38,481.92a4.91,4.91,0,0,0,1-.69,5.2,5.2,0,0,0,.75-.82c.21-.3.23-.69.51-.9a5.23,5.23,0,0,1,1.18-.69h0a.16.16,0,0,1,.17.05,1.76,1.76,0,0,1,.17,1.59c-.16.5-.68.75-1.08,1a4,4,0,0,1-2.68.63.09.09,0,0,1-.08-.11S583.35,481.94,583.38,481.92Z"/><path class="cls-10" d="M507.59,512a5.1,5.1,0,0,0-2,1.13c-.27.25-.37.63-.69.77a4.52,4.52,0,0,1-1.29.44h0a.12.12,0,0,1-.15-.08,1.78,1.78,0,0,1,.15-1.59c.25-.46.81-.6,1.26-.77a3.9,3.9,0,0,1,2.75-.08.09.09,0,0,1,.06.12A.12.12,0,0,1,507.59,512Z"/><path class="cls-10" d="M490.55,548.54a5.06,5.06,0,0,0,2.24.61c.36,0,.7-.2,1-.08a4.78,4.78,0,0,1,1.23.6h0a.13.13,0,0,1,.05.17,1.73,1.73,0,0,1-1.21,1,2.13,2.13,0,0,1-1.45-.32,4,4,0,0,1-2-1.87.11.11,0,0,1,0-.13Z"/><path class="cls-10" d="M422,561.41a4.53,4.53,0,0,0,.61,1.06,4.62,4.62,0,0,0,.76.82c.27.24.66.29.84.59a4.4,4.4,0,0,1,.59,1.23h0a.14.14,0,0,1-.07.16,1.75,1.75,0,0,1-1.59,0c-.49-.19-.7-.73-.92-1.16a3.92,3.92,0,0,1-.39-2.72.09.09,0,0,1,.11-.07S422,561.39,422,561.41Z"/><path class="cls-12" d="M330.71,626.2c.18,1.37.53,2,2,5.21,1,2.29,1.24,2.89,2,3.13A2.89,2.89,0,0,0,337,634a4.57,4.57,0,0,0,1.57-2.74c.47-1.69,1-3.42.13-5.35a5.79,5.79,0,0,0-4.31-3.52c-.26,0-2.44-.28-3.39,1.05C330.46,624.17,330.56,625,330.71,626.2Z"/><path class="cls-12" d="M444,618.24a3.93,3.93,0,0,0-3.26,1.17c-1.28,1.21-1.5,2.8-1.82,5.22a14.16,14.16,0,0,0,0,4.17c.22,1.48.43,2.94,1.43,3.39a2.56,2.56,0,0,0,2.09-.26c2.59-1.27,3.15-4.77,3.78-8.73.23-1.43.31-2.62-.39-3.65A3.14,3.14,0,0,0,444,618.24Z"/><path class="cls-6" d="M389.49,567a103.66,103.66,0,0,0-10.5,9.5,51.89,51.89,0,0,0-7.5,9.38,40.54,40.54,0,0,0-3,6.13c-.84,2.16-1.83,5.34-2.75,14.88-.31,3.13-.7,7.23-.88,12.75a109,109,0,0,1-.75,11.76c-.5,3.93-1,5.55-1.75,7.12s-1.75,3-5.13,6.13a60.8,60.8,0,0,1-10.38,8.38c-3.93,2.44-4.07,1.81-10.75,5.63-1.64.93-2.61,1.53-3.36,2,.5.05,1,.08,1.46.08h6c1.48,0,4,.67,8.5,3.5a31,31,0,0,1,5.17-5.16c.78-.61,1.38-1,1.84-1.34,4.44-3,8.16-5.38,8.83-5.83,2-1.34,3.89-4.19,4.67-17.51.58-9.89-.27-12.26-.22-22.86.05-11.51.14-17.38,2.87-22.88a32.39,32.39,0,0,1,10.76-12.5c3.94-2.64,7.64-3.66,13.85-8.08l.75-6.8C393.42,564.15,392.47,564.67,389.49,567Z"/><path class="cls-10" d="M346.85,653.06a60.8,60.8,0,0,0,10.38-8.38c3.38-3.18,4.39-4.63,5.13-6.13s1.25-3.19,1.75-7.12a109,109,0,0,0,.75-11.76c.18-5.52.57-9.62.88-12.75.92-9.54,1.91-12.72,2.75-14.88a40.54,40.54,0,0,1,3-6.13,51.89,51.89,0,0,1,7.5-9.38,103.66,103.66,0,0,1,10.5-9.5c3-2.36,3.93-2.88,7.73-5.75l.15-1.38,13.84-13.69c-.72-.41-3.34,2.27-8.09,7.06A166,166,0,0,1,381.87,571c-5.92,4.3-5.86,3.76-7.76,5.63s-6.44,6.74-10.25,19.25c-2.44,8-1.12,7.85-3.75,18.89-2.41,10.09-3.69,15.25-7.5,20.88a46.58,46.58,0,0,1-11.38,11.5,38.2,38.2,0,0,1-10,5.63c-2.55.91-3.79,1-6,2.25a22.09,22.09,0,0,0-4.47,3.38l.94.14c4.35.68,8,1.78,11.05,2.08.75-.44,1.72-1,3.36-2C342.78,654.87,342.92,655.5,346.85,653.06Z"/><path class="cls-10" d="M397.22,561.28c.79-.6,1.7-1.29,2.78-2.13,3.47-2.69,4.73-3.56,6.76-6.11,3.58-4.48,5.23-6.38,4.45-6.83L397.37,559.9Z"/><path class="cls-13" d="M416.88,536.89c1.38-5.13,1.75-8.5,1.25-10.38-.38-1.44-1.08-3.88-2.85-5.25a2.32,2.32,0,0,1,.22.25c.42.54.53,1.15.5,2.75a32.16,32.16,0,0,1-.5,5.25,13.06,13.06,0,0,1-.87,3.63c-.79,1.42-1.46,1.36-2.25,2.88-.55,1.05-.27,1.16-1,3.25-.64,1.8-1,2.71-1.75,3.12s-1.09,0-2.38.38a6,6,0,0,0-2.12,1.25,15.18,15.18,0,0,0-2,2.25,8.58,8.58,0,0,1-2.79,2l-3.46,5.16-4.64-3.89A31.2,31.2,0,0,1,386,563.4c-2.22,2.8-5,4.87-10.5,9C370.72,576,369.92,576,368,578c-3.08,3.22-4.45,6.67-6.13,12-3.54,11.26-3.16,14.1-5.63,22.13-1.78,5.79-3.48,11.34-7.75,17.63,0,0-6.74,9.92-16.63,14.88-2.71,1.36-4.3,2.16-6.63,2.25-2,.08-3.6-.38-6.5.13a16.14,16.14,0,0,0-2.88.75c-10.5,3.87-21.16-.4-21.16-.4s1.53,4.4,10.84,8.5a15.09,15.09,0,0,0,2,.67,25,25,0,0,0,4.34.83c3.35.35,6.43.67,8.89,1a22.09,22.09,0,0,1,4.47-3.38c2.21-1.25,3.45-1.34,6-2.25a38.2,38.2,0,0,0,10-5.63,46.58,46.58,0,0,0,11.38-11.5c3.81-5.63,5.09-10.79,7.5-20.88,2.63-11,1.31-10.89,3.75-18.89,3.81-12.51,8.44-17.48,10.25-19.25s1.84-1.33,7.76-5.63a166,166,0,0,0,21.25-17.76c4.75-4.79,7.37-7.47,8.09-7.06C411.21,546.21,415.5,542,416.88,536.89Z"/><path class="cls-14" d="M413.38,520.39a7.39,7.39,0,0,1,1.26.46A4.49,4.49,0,0,0,413.38,520.39Z"/><path class="cls-6" d="M420.38,522.14c0-.36-.06-.7-.1-1-.89-2.62-2.48-6.27-4.79-7.74-2.61-1.66-12-1.25-12-1.25L392.75,522l.62,22.51-1.21,1.12.46.13a26.18,26.18,0,0,1-.25,2.88c0,.29-.09.58-.14.86l4.64,3.89,3.46-5.16c-.62.26-1.13.35-1.33.16-.49-.47,1.26-2.11,2.37-5.26a22.41,22.41,0,0,0,.63-10.63c-.45-3-1.19-4.22-.5-6.37a8.7,8.7,0,0,1,2.25-3.5,8.91,8.91,0,0,1,5.25-2.88,9.82,9.82,0,0,1,4.38.63,4.49,4.49,0,0,1,1.26.46,3.24,3.24,0,0,1,.64.41c1.77,1.37,2.47,3.81,2.85,5.25.5,1.88.13,5.25-1.25,10.38s-5.67,9.32-5.67,9.32c.78.45-.87,2.35-4.45,6.83-2,2.55-3.29,3.42-6.76,6.11-1.08.84-2,1.53-2.78,2.13l-.75,6.8c.42-.29.84-.6,1.28-.93s2.14-1.6,3.75-3a57.73,57.73,0,0,0,15.13-21.88C418.38,537.89,421.08,530.9,420.38,522.14Z"/><path class="cls-15" d="M414.64,520.85a5.84,5.84,0,0,1,.64.41A3.24,3.24,0,0,0,414.64,520.85Z"/><path class="cls-13" d="M392.75,522l10.75-9.88s9.38-.41,12,1.25c2.31,1.47,3.9,5.12,4.79,7.74-.53-4.87-1.93-7.15-3-8.49-2.86-3.5-6.81-4.47-9-5-1.58-.38-10.27-2.51-18,3.13-8.45,6.15-8.49,16.29-8.5,18.25,0,2.7,0,9,4.63,13.38a14.29,14.29,0,0,0,5.79,3.25l1.21-1.12Z"/><path class="cls-10" d="M415.75,513.76c.13-.54-3.79-2.55-8.5-2.88a15.83,15.83,0,0,0-9.38,1.75c-3.06,1.8-2.77,3.41-7.12,7.13a8.1,8.1,0,0,0-2,2.38,9,9,0,0,0-1,3.62,12,12,0,0,0,.75,5.5,18.53,18.53,0,0,1,.88,1.88c.55,1.91-.22,2.65,0,4.75a9.29,9.29,0,0,0,1.25,3.63c.38.72,1.71,3.22,2.75,3,.62-.13.89-1.18,1-1.63.46-1.8-.52-2.51-.25-4.37.19-1.27.69-1.2,1-2.63a8.39,8.39,0,0,0-.25-3.88,33.46,33.46,0,0,1-.87-6.37,11.7,11.7,0,0,1,2.75-6.88c2.77-3.46,6.61-4.39,8.75-4.88C411.29,512.57,415.62,514.31,415.75,513.76Z"/><path class="cls-6" d="M343.75,533.81c.77-4.54,2.42-6.41,3.09-7.09a12.57,12.57,0,0,1,8.67-3.25c5.49.11,11.25,6.56,15.32,16.71a44.73,44.73,0,0,0-5.7-15.17c-2-3.28-5.23-8.44-9.87-8.5-3.26,0-5.86,2.08-7.13,3.13a16.5,16.5,0,0,0-4.75,6.75,22.44,22.44,0,0,0-1.63,10.25v.09a18.8,18.8,0,0,0,2.51,8A26.88,26.88,0,0,1,343.75,533.81Z"/><path class="cls-10" d="M347.38,535.64c.59-1.57,1.46-3.91,3.75-5a7.14,7.14,0,0,1,3.88-.5,11.1,11.1,0,0,1,5.5,2.25c2.09,1.51,3.18,3.08,5.5,6.63,3.42,5.22,5,7.78,5.76,9.3a60.18,60.18,0,0,0-.94-8.14c-4.07-10.15-9.83-16.6-15.32-16.71a12.57,12.57,0,0,0-8.67,3.25c-.67.68-2.32,2.55-3.09,7.09a26.88,26.88,0,0,0,.52,10.92,19.44,19.44,0,0,0,1.05,1.67q1.64,2.31,3.22,4.27a39.25,39.25,0,0,1-1.41-4.78A17.42,17.42,0,0,1,347.38,535.64Z"/><path class="cls-13" d="M367.26,560.4c-7.78-3.11-13.44-9.06-15.26-14.13a14.67,14.67,0,0,1-.75-5.88c.12-2.07.57-2.57.75-2.75,1.46-1.38,4.85,0,6,.5,7.24,3,11.68,16.6,12.88,20.51a2.87,2.87,0,0,0,2.5-.13,2.22,2.22,0,0,0,.72-1.69c-.77-.62-1.55-1.26-2.35-1.93.1-2,.12-4.24,0-6.58-.8-1.52-2.34-4.08-5.76-9.3-2.32-3.55-3.41-5.12-5.5-6.63a11.1,11.1,0,0,0-5.5-2.25,7.14,7.14,0,0,0-3.88.5c-2.29,1.09-3.16,3.43-3.75,5a17.42,17.42,0,0,0-.25,10.25,39.25,39.25,0,0,0,1.41,4.78c11.43,14.28,20.71,15.94,23.09,16.1l1,0-.48-4.91A31,31,0,0,1,367.26,560.4Z"/><path class="cls-10" d="M436.54,641.3a7.23,7.23,0,0,0,4.37-1.37,8.19,8.19,0,0,0,3.13-5c.3-2-.52-2.79,0-5a7.39,7.39,0,0,1-3,1,8.29,8.29,0,0,1-6.59-2.53,12.53,12.53,0,0,1,1.83,4.15,13.34,13.34,0,0,1-.93,8.59"/><path class="cls-13" d="M436.28,632.55a12.53,12.53,0,0,0-1.83-4.15,10.09,10.09,0,0,1-1.15-1.35l-2,.08-7.64.3a32.8,32.8,0,0,0,1.46,3.37,26.26,26.26,0,0,0,4.46,6.56h0l0,0,.55.55.08.08c.2.19.39.36.56.5l0,0c.17.15.32.27.45.37l0,0,.32.24.78.56.09.06a8,8,0,0,0,2.82,1.34A13.34,13.34,0,0,0,436.28,632.55Z"/><path class="cls-13" d="M419.53,637.76c-4.5-8.5-8.67-14.67-8.67-14.67l-2.42-28.34-7.42-13s-3.29-2.69-6.1-4.55c.56,1.08,1.25,2.43,2.1,4.09,1.94,3.78,2.3,4.58,2.63,5.88a23.53,23.53,0,0,1,.5,6.5,54.45,54.45,0,0,1-.5,6.5c-.92,7.26-1.34,8.05-1.5,10.26-.56,7.34,2.91,13.32,4.62,16.25,2,3.38,6.05,9.06,9.38,10a12.63,12.63,0,0,1,3.5,1.5,16.63,16.63,0,0,1,2.25,1.75c3.92,3.31,4.12,3.47,4.63,3.75a8.19,8.19,0,0,0,4,1.37C424.61,644.25,422,642.33,419.53,637.76Z"/><path class="cls-6" d="M419.53,637.76c-.43-.81-.86-1.59-1.28-2.36C418.7,636.34,419.15,637.13,419.53,637.76Z"/><path class="cls-6" d="M402.45,584.25a18.39,18.39,0,0,0-1.43-2.51Z"/><path class="cls-6" d="M456.54,621.3c-5.52.92-9.78,3.23-11.38,5.87A10.42,10.42,0,0,0,444,629.8c-.56,2.32.31,3.08,0,5.13a8.19,8.19,0,0,1-3.13,5,7.23,7.23,0,0,1-4.37,1.37,8.33,8.33,0,0,1-4.88-2.12c-.86-.64-3.79-2.93-6.5-8.38a34.63,34.63,0,0,1-2.25-5.75c-2.34-7.6-3.84-13.67-4.38-15.76a106.17,106.17,0,0,0-6.13-17.13c-3.42-7.79-5.49-12.36-10.13-16.63-3-2.8-5.41-3.84-9.13-5.88A128.34,128.34,0,0,1,374.7,557.3c.06,1,.12,2.07.15,3.18.07,2.79.13,4.85,0,6.37,2.12,0,3.65-.18,3.65-.18,8.23,0,5.22-1.07,8.11.23,2.64,1.19,4.09,3.37,6.5,7,.27.39.82,1.44,1.78,3.28,2.81,1.86,6.1,4.55,6.1,4.55a28.45,28.45,0,0,1,9.51,11.76c1.1,2.63,1.54,5.2,2.41,10.33.69,4,1,7.61,1.59,13.34.16,1.65.42,4.54,1,8.42a36.68,36.68,0,0,0,1.25,6.09,28.29,28.29,0,0,0,1.47,3.72c.42.77.85,1.55,1.28,2.36,2.42,4.57,5.08,6.49,7,7.29h.11c1.23,0,2.1-.41,3.5,0a5.49,5.49,0,0,1,1.75.87c2.77,1.89,7.69,1.55,8.38,1.5a17.82,17.82,0,0,0,14.5-9.63c1.36-2.72,1.58-5,1.88-8.25A38.44,38.44,0,0,0,456.54,621.3Z"/><path class="cls-6" d="M418.25,635.4a28.29,28.29,0,0,1-1.47-3.72,36.68,36.68,0,0,1-1.25-6.09c-.58-3.88-.84-6.77-1-8.42-.56-5.73-.9-9.31-1.59-13.34-.87-5.13-1.31-7.7-2.41-10.33A28.45,28.45,0,0,0,401,581.74a18.39,18.39,0,0,1,1.43,2.51c.14.29.28.59.41.91a19.09,19.09,0,0,1,1.25,5.17c.86,8.09.91,13.59.91,13.59,0,16.25,6.74,26.66,9.59,29.76a24.52,24.52,0,0,0,4.92,4.08C419.15,637.13,418.7,636.34,418.25,635.4Z"/><path class="cls-6" d="M378.06,553.23l-.59-.25c-1.68-.73-1.69-1.41-3-1.83a4.4,4.4,0,0,0-3.42.25c-1.14.79-1.23,2.38-1.33,4.5-.63,13.6.31,11.48-.17,14.17-.18,1-.55,2.66.34,3.92.42.6.87.76,1.91,2.08a4.76,4.76,0,0,1,1,1.67c.24.8,0,1,.17,1.92a5.12,5.12,0,0,0,.92,2,6.74,6.74,0,0,0,.66.78,45,45,0,0,0,3.51-29.21Z"/><path class="cls-13" d="M397.48,557a17.76,17.76,0,0,0-4.42-7.67,5.07,5.07,0,0,0-2.75-1.58c-2-.33-3.83,1.14-4.5,1.67-1.2.94-1.16,1.42-2.43,2.48,4.13,4.7,5,8.92,5.18,11a25.16,25.16,0,0,1-.25,5.75,67.16,67.16,0,0,1-1.72,9.11l.3.06c2.9.61,3.09.62,3.42.59a7.27,7.27,0,0,0,4.17-2.17,9.26,9.26,0,0,0,1.83-2.5A23.84,23.84,0,0,0,397.48,557Z"/><path class="cls-10" d="M388.56,562.9c-.21-2.1-1.05-6.32-5.18-11l-.32.27a5.51,5.51,0,0,1-2.75,1.41,4.58,4.58,0,0,1-2.25-.33,45,45,0,0,1-3.51,29.21,1.2,1.2,0,0,0,.5.3c1.06.27,1.94-1.37,4.76-3.75a7.31,7.31,0,0,1,2.58-1.75c.8-.21,1.34-.08,4.2.52a67.16,67.16,0,0,0,1.72-9.11A25.16,25.16,0,0,0,388.56,562.9Z"/><ellipse class="cls-16" cx="375.72" cy="170.75" rx="70.34" ry="12.45"/><path class="cls-1" d="M305.39,170.75c0,4.85,15.69,9.05,38.57,11.11l-.84-11.11-1.59-10.89C320,162,305.39,166.07,305.39,170.75Z"/><path class="cls-17" d="M305.39,170.75c0-4.68,14.58-8.76,36.14-10.89l-10.41-71.2c-1.62.34-3.22.68-4.78,1a1,1,0,0,0-.77,1.15l2.15,13.88a.51.51,0,0,1-.39.57q-5.13,1.23-9.67,2.7a.5.5,0,0,1-.64-.38l-3.15-14.32-1.09.24-.11,0q-4.5,1.52-8.55,3.23a1,1,0,0,0-.59,1.15l3.07,14a.5.5,0,0,1-.27.56,43.19,43.19,0,0,0-9,5.75.51.51,0,0,1-.83-.25c-.64-2.59-2.67-10.75-3.48-14a1,1,0,0,0-1.53-.61,48.53,48.53,0,0,0-8,6.32,1,1,0,0,0-.27,1l14.93,60.06h0a4.21,4.21,0,0,0,.48,1.89c1.2,2.47,4.73,4.78,10.09,6.83,8.18,3.12,20.63,5.62,35.56,7.1l-.35-4.71C321.08,179.8,305.39,175.6,305.39,170.75Z"/><path class="cls-18" d="M442.69,179.47c5.36-2.05,8.89-4.36,10.1-6.83a4.33,4.33,0,0,0,.47-1.89l14.93-60.06a1,1,0,0,0-.27-1,48.86,48.86,0,0,0-8-6.32,1,1,0,0,0-1.54.61l-3.48,14a.5.5,0,0,1-.82.25,43,43,0,0,0-9-5.75.5.5,0,0,1-.27-.56l3.07-14a1,1,0,0,0-.59-1.15c-2.69-1.14-5.55-2.22-8.55-3.23l-.11,0-1.09-.24-3.15,14.32a.5.5,0,0,1-.64.38q-4.53-1.47-9.67-2.7a.51.51,0,0,1-.39-.57l2.15-13.88a1,1,0,0,0-.77-1.15q-4.34-1-8.93-1.86a1,1,0,0,0-1.19.85l-2.14,13.82a.51.51,0,0,1-.58.42q-3.72-.61-7.64-1.1a.51.51,0,0,1-.45-.54l1.06-14.17a1,1,0,0,0-.89-1.08q-4.72-.58-9.63-1a1,1,0,0,0-1.1,1l-1.06,14.16a.49.49,0,0,1-.53.46c-2.95-.19-5.95-.34-9-.43a1,1,0,0,1-1-1V85.67a1,1,0,0,0-1-1H370.43a1,1,0,0,0-1,1V99.2a1,1,0,0,1-1,1c-3.05.09-6.05.24-9,.43a.5.5,0,0,1-.53-.46L357.83,86a1,1,0,0,0-1.1-1q-4.91.39-9.63,1a1,1,0,0,0-.89,1.08l1.06,14.17a.51.51,0,0,1-.45.54q-3.92.48-7.64,1.1a.5.5,0,0,1-.57-.42L336.47,88.7a1,1,0,0,0-1.2-.85c-1.4.26-2.78.53-4.15.81l10.41,71.2c10.12-1,21.78-1.57,34.19-1.57,38.85,0,70.34,5.58,70.34,12.46s-31.49,12.45-70.34,12.45c-11.43,0-22.22-.48-31.76-1.34l.35,4.71c9.6,1,20.23,1.49,31.41,1.49C404.3,188.06,429.24,184.6,442.69,179.47Z"/><circle class="cls-19" cx="375.72" cy="128.32" r="2.28"/><circle class="cls-20" cx="356.33" cy="129.21" r="2.28"/><circle class="cls-19" cx="338.05" cy="131.1" r="2.28"/><circle class="cls-20" cx="318.7" cy="135.66" r="2.28"/><circle class="cls-19" cx="297.37" cy="143.57" r="2.28"/><circle class="cls-20" cx="395.11" cy="129.21" r="2.28"/><circle class="cls-19" cx="413.4" cy="131.1" r="2.28"/><circle class="cls-20" cx="432.74" cy="135.66" r="2.28"/><circle class="cls-19" cx="454.07" cy="143.57" r="2.28"/><circle class="cls-19" cx="375.72" cy="158.29" r="3.65"/><circle class="cls-19" cx="443.44" cy="167.09" r="3.65"/><circle class="cls-19" cx="308.27" cy="167.09" r="3.65"/><path class="cls-3" d="M321.66,283.3a19.14,19.14,0,0,1-19.09-19.09,19.1,19.1,0,1,1,19.09,19.09Z"/><path class="cls-21" d="M313.89,280.07a17.67,17.67,0,1,0-9.9-15.86A17.62,17.62,0,0,0,313.89,280.07Z"/><path class="cls-3" d="M429.78,283.3a19.14,19.14,0,0,1-19.09-19.09,19.09,19.09,0,1,1,19.09,19.09Z"/><path class="cls-21" d="M422,280.07a17.67,17.67,0,1,0-9.91-15.86A17.62,17.62,0,0,0,422,280.07Z"/><path class="cls-3" d="M296.42,370.26a19.16,19.16,0,0,1-19.1-19.1,19.09,19.09,0,0,1,36.23-8.39,18.92,18.92,0,0,1,2,8.39A19.12,19.12,0,0,1,296.42,370.26Z"/><path class="cls-21" d="M296.42,333.49A17.66,17.66,0,0,0,288.65,367a17.46,17.46,0,0,0,7.77,1.82,17.68,17.68,0,0,0,0-35.35Z"/><path class="cls-3" d="M455,370.26a19.16,19.16,0,0,1-19.1-19.1,19.09,19.09,0,0,1,36.23-8.39,18.92,18.92,0,0,1,2,8.39A19.12,19.12,0,0,1,455,370.26Z"/><path class="cls-21" d="M470.89,343.39A17.67,17.67,0,1,0,447.26,367a17.42,17.42,0,0,0,7.77,1.82,17.66,17.66,0,0,0,15.86-25.45Z"/><path class="cls-3" d="M334,457.21a19.07,19.07,0,1,1,19.09-19.09A19,19,0,0,1,334,457.21Z"/><path class="cls-21" d="M334,420.44a17.71,17.71,0,1,0,15.86,9.91A17.67,17.67,0,0,0,334,420.44Z"/><path class="cls-3" d="M417.48,457.21a19.07,19.07,0,1,1,19.09-19.09A19,19,0,0,1,417.48,457.21Z"/><path class="cls-21" d="M417.48,420.44a17.71,17.71,0,1,0,15.86,9.91A17.67,17.67,0,0,0,417.48,420.44Z"/><path class="cls-3" d="M318.05,394.75a2.69,2.69,0,0,1-2.69-2.69v-5.54a2.7,2.7,0,0,1,2.69-2.69h8.27v-1.14a2,2,0,0,1,2-2h.62v-57h-.62a2,2,0,0,1-2-2v-.37a2.68,2.68,0,0,1-2.48-2.68V305.84a2.67,2.67,0,0,1,1.85-2.55l49.2-16a2.71,2.71,0,0,1,1.66,0l49.2,16a2.67,2.67,0,0,1,1.85,2.55v12.82a2.68,2.68,0,0,1-2.47,2.68v.37a2,2,0,0,1-2,2h-.62v57h.62a2,2,0,0,1,2,2v1.14h8.26a2.68,2.68,0,0,1,2.34,1.38,2.62,2.62,0,0,1,.35,1.31v5.54a2.69,2.69,0,0,1-2.69,2.69Z"/><path class="cls-21" d="M325.26,305.84v12.82a1.26,1.26,0,0,0,1.27,1.27h1.2v1.78a.57.57,0,0,0,.57.57h2v59.84h-2a.57.57,0,0,0-.57.57v2.56h-9.68a1.24,1.24,0,0,0-1.1.65,1.18,1.18,0,0,0-.17.62v5.54a1.27,1.27,0,0,0,1.27,1.27H433.39a1.27,1.27,0,0,0,1.27-1.27v-5.54a1.27,1.27,0,0,0-1.27-1.27h-9.68V382.7h0a.56.56,0,0,0-.57-.57h-2V322.28h2a.56.56,0,0,0,.57-.57v-1.78h1.21a1.27,1.27,0,0,0,1.27-1.27V305.84a1.27,1.27,0,0,0-.88-1.2l-49.2-16a1.3,1.3,0,0,0-.78,0l-49.2,16A1.26,1.26,0,0,0,325.26,305.84Z"/><path class="cls-22" d="M337.52,256.44c0,.32,0,.65,0,1a22.67,22.67,0,0,1-22.68,22.67l-1,0a17.65,17.65,0,0,0,23.63-23.63Z"/><path class="cls-18" d="M337.55,257.42c0-.33,0-.66,0-1a17.66,17.66,0,1,0-23.63,23.63l1,0A22.67,22.67,0,0,0,337.55,257.42Z"/><circle class="cls-17" cx="314.6" cy="257.23" r="5.06"/><path class="cls-22" d="M445.64,256.44c0,.32,0,.65,0,1A22.67,22.67,0,0,1,423,280.09l-1,0a17.65,17.65,0,0,0,23.63-23.63Z"/><path class="cls-18" d="M445.66,257.42c0-.33,0-.66,0-1A17.67,17.67,0,1,0,422,280.07l1,0A22.67,22.67,0,0,0,445.66,257.42Z"/><circle class="cls-17" cx="422.71" cy="257.23" r="5.06"/><path class="cls-22" d="M312.28,343.39c0,.33,0,.65,0,1a22.67,22.67,0,0,1-22.67,22.68c-.33,0-.66,0-1,0a17.46,17.46,0,0,0,7.77,1.82,17.66,17.66,0,0,0,15.86-25.45Z"/><path class="cls-18" d="M312.3,344.37c0-.33,0-.65,0-1A17.67,17.67,0,1,0,288.65,367c.32,0,.65,0,1,0A22.67,22.67,0,0,0,312.3,344.37Z"/><circle class="cls-17" cx="289.35" cy="344.18" r="5.06"/><path class="cls-22" d="M470.89,343.39c0,.33,0,.65,0,1a22.67,22.67,0,0,1-22.67,22.68c-.33,0-.66,0-1,0a17.42,17.42,0,0,0,7.77,1.82,17.66,17.66,0,0,0,15.86-25.45Z"/><path class="cls-18" d="M470.91,344.37c0-.33,0-.65,0-1A17.67,17.67,0,1,0,447.26,367c.32,0,.65,0,1,0A22.67,22.67,0,0,0,470.91,344.37Z"/><circle class="cls-17" cx="447.96" cy="344.18" r="5.06"/><path class="cls-22" d="M349.83,430.35c0,.32,0,.65,0,1A22.67,22.67,0,0,1,327.18,454l-1,0a17.65,17.65,0,0,0,23.63-23.63Z"/><path class="cls-18" d="M349.85,431.33c0-.33,0-.66,0-1A17.67,17.67,0,1,0,326.2,454l1,0A22.67,22.67,0,0,0,349.85,431.33Z"/><circle class="cls-17" cx="326.9" cy="431.14" r="5.06"/><path class="cls-22" d="M433.34,430.35c0,.32,0,.65,0,1A22.67,22.67,0,0,1,410.69,454l-1,0a17.65,17.65,0,0,0,23.63-23.63Z"/><path class="cls-18" d="M433.36,431.33c0-.33,0-.66,0-1A17.67,17.67,0,1,0,409.71,454l1,0A22.67,22.67,0,0,0,433.36,431.33Z"/><circle class="cls-17" cx="410.41" cy="431.14" r="5.06"/><rect class="cls-23" x="334.26" y="317.89" width="82.91" height="71.4"/><rect class="cls-24" x="327.73" y="382.12" width="15.39" height="4.69" rx="0.57"/><rect class="cls-24" x="327.73" y="317.59" width="15.39" height="4.69" rx="0.57"/><rect class="cls-24" x="330.34" y="320.83" width="10.17" height="63.64"/><rect class="cls-24" x="354.6" y="382.12" width="15.39" height="4.69" rx="0.57"/><rect class="cls-24" x="354.6" y="317.59" width="15.39" height="4.69" rx="0.57"/><rect class="cls-24" x="357.2" y="320.83" width="10.17" height="63.64"/><rect class="cls-24" x="381.46" y="382.12" width="15.39" height="4.69" rx="0.57"/><rect class="cls-24" x="381.46" y="317.59" width="15.39" height="4.69" rx="0.57"/><rect class="cls-24" x="384.07" y="320.83" width="10.17" height="63.64"/><rect class="cls-24" x="408.32" y="382.12" width="15.39" height="4.69" rx="0.57"/><rect class="cls-24" x="408.32" y="317.59" width="15.39" height="4.69" rx="0.57"/><rect class="cls-24" x="410.93" y="320.83" width="10.17" height="63.64"/><path class="cls-24" d="M375.33,288.62l-49.2,16a1.26,1.26,0,0,0-.87,1.2v12.82a1.26,1.26,0,0,0,1.27,1.27h98.39a1.27,1.27,0,0,0,1.27-1.27V305.84a1.27,1.27,0,0,0-.88-1.2l-49.2-16A1.3,1.3,0,0,0,375.33,288.62Z"/><rect class="cls-21" x="327.8" y="310.49" width="95.85" height="4.87"/><rect class="cls-21" x="338.08" y="322.28" width="2.43" height="59.84"/><rect class="cls-21" x="364.94" y="322.28" width="2.43" height="59.84"/><rect class="cls-21" x="391.8" y="322.28" width="2.43" height="59.84"/><rect class="cls-21" x="418.67" y="322.28" width="2.43" height="59.84"/><polygon class="cls-25" points="375.72 291.16 327.8 306.77 327.8 308.77 328.22 308.77 379.02 292.24 375.72 291.16"/><polygon class="cls-26" points="423.65 306.77 379.02 292.24 328.22 308.77 423.65 308.77 423.65 306.77"/><path class="cls-21" d="M433.39,385.25H318.05a1.24,1.24,0,0,0-1.1.65H434.5A1.27,1.27,0,0,0,433.39,385.25Z"/><path class="cls-27" d="M316.78,392.06a1.27,1.27,0,0,0,1.27,1.27H433.39a1.27,1.27,0,0,0,1.27-1.27v-5.54a1.27,1.27,0,0,0-.16-.62H317a1.18,1.18,0,0,0-.17.62Z"/><path class="cls-21" d="M339.58,319.93h3.54a0,0,0,0,1,0,0v1.78a.57.57,0,0,1-.57.57h-3a0,0,0,0,1,0,0v-2.35A0,0,0,0,1,339.58,319.93Z"/><path class="cls-21" d="M366.44,319.93H370a0,0,0,0,1,0,0v1.78a.57.57,0,0,1-.57.57h-3a0,0,0,0,1,0,0v-2.35A0,0,0,0,1,366.44,319.93Z"/><path class="cls-21" d="M393.31,319.93h3.54a0,0,0,0,1,0,0v1.78a.57.57,0,0,1-.57.57h-3a0,0,0,0,1,0,0v-2.35A0,0,0,0,1,393.31,319.93Z"/><path class="cls-21" d="M420.17,319.93h3.54a0,0,0,0,1,0,0v1.78a.57.57,0,0,1-.57.57h-3a0,0,0,0,1,0,0v-2.35A0,0,0,0,1,420.17,319.93Z"/><path class="cls-21" d="M339.58,382.13h3a.57.57,0,0,1,.57.57v2.55a0,0,0,0,1,0,0h-3.54a0,0,0,0,1,0,0v-3.12A0,0,0,0,1,339.58,382.13Z"/><path class="cls-21" d="M366.44,382.13h3a.57.57,0,0,1,.57.57v2.55a0,0,0,0,1,0,0h-3.54a0,0,0,0,1,0,0v-3.12A0,0,0,0,1,366.44,382.13Z"/><path class="cls-21" d="M393.31,382.13h3a.57.57,0,0,1,.57.57v2.55a0,0,0,0,1,0,0h-3.54a0,0,0,0,1,0,0v-3.12A0,0,0,0,1,393.31,382.13Z"/><path class="cls-21" d="M420.17,382.13h3a.57.57,0,0,1,.57.57v2.55a0,0,0,0,1,0,0h-3.54a0,0,0,0,1,0,0v-3.12A0,0,0,0,1,420.17,382.13Z"/></g></g></svg>