<svg width="419.7" height="540.8" xmlns="http://www.w3.org/2000/svg" xmlns:xlink="http://www.w3.org/1999/xlink"><linearGradient id="c" x1="-13" x2="285" y1="348" y2="-8" gradientUnits="userSpaceOnUse"><stop stop-color="#8d6339"/><stop stop-color="#f1c631" offset=".2"/><stop stop-color="#8d6339" offset=".4"/><stop stop-color="#f1c631" offset=".5"/><stop stop-color="#8d6339" offset=".6"/><stop stop-color="#f1c631" offset=".8"/><stop stop-color="#8d6339" offset="1"/></linearGradient><clipPath id="l"><path d="m9 33v433c0 19 19 39 50 52a186 194 0 0 0 79 13c20-1 48-7 66-27l6-6 6 6c19 20 46 26 66 27a186 194 0 0 0 79-13c31-13 50-32 50-52v-433c-62 0-105-1-160-22-12 5-29 6-41 6-11 0-28-1-41-6-55 21-98 22-160 22z" stroke="url(#j)" stroke-width="16"/></clipPath><linearGradient id="j" x1="9" x2="297" y1="348" y2="24" gradientUnits="userSpaceOnUse"><stop stop-color="#f1c631"/><stop stop-color="#8d6339" offset=".3"/><stop stop-color="#f1c631" offset=".5"/><stop stop-color="#8d6339" offset=".7"/><stop stop-color="#f1c631" offset="1"/></linearGradient><filter id="k" color-interpolation-filters="sRGB"><feGaussianBlur stdDeviation="22"/></filter><filter id="e" color-interpolation-filters="sRGB"><feGaussianBlur stdDeviation="1"/></filter><pattern id="i" width="9" height="124" stroke="#000" stroke-width="2" patternTransform="rotate(45.5 70 0)" patternUnits="userSpaceOnUse"><path d="m15 45h-30v-20h30" fill="#999" filter="url(#e)" stroke="none"/><path d="m10 22h-10" stroke="#28689d" stroke-width="36"/><path d="m10 41h-10"/><path d="m10 3h-10"/></pattern><linearGradient id="h" x1="-63" x2="377" y1="452" y2="-48" gradientUnits="userSpaceOnUse" xlink:href="#c"/><linearGradient id="g" x1="-27" x2="457" y1="-9" y2="572" gradientUnits="userSpaceOnUse" xlink:href="#c"/><path d="m169.2 1.1-2.9 1.1c-53.6 21-94.9 21.8-156.7 21.8h-8.5v441.9c0 12.7 6.1 24.6 15.7 34.6s22.8 18.6 39.3 25.4c26.2 10.6 54.4 15.4 82.6 13.5 20.9-1.4 50.4-7.5 71.3-29.7 20.9 22.2 50.4 28.1 71.3 29.7 28.2 1.7 56.2-2.9 82.6-13.5 16.3-6.8 29.7-15.4 39.3-25.4s15.7-21.9 15.7-34.6v-441.9h-8.5c-61.8 0-103-.8-156.7-21.8l-2.9-1.1-2.9 1.1c-10.8 4-27.3 5.7-37.6 5.6h-.2c-10.4 .2-26.8-1.6-37.6-5.6z" fill="#fff" stroke="url(#g)" stroke-width="2"/><path d="m9 33v433c0 19 19 39 50 52a186 194 0 0 0 79 13c20-1 48-7 66-28l6-6 6 6c19 20 46 26 66 28a186 194 0 0 0 79-13c31-13 50-32 50-52v-433c-62 0-105-1-160-22-12 5-29 6-40 6s-28-1-40-6c-55 21-98 22-160 22z" clip-path="url(#l)" fill="none" filter="url(#k)" stroke="#000" stroke-width="12"/><path d="m9.5 32.7v433c0 19.4 18.6 38.8 49.5 51.8a185.7 193.7 0 0 0 78.9 13c20-1.4 47.7-7.3 66.3-27.5l5.6-6 5.6 6c18.6 20 46.3 26.1 66.3 27.5a185.5 193.5 0 0 0 78.9-13c31.1-12.9 49.5-32.3 49.5-51.8v-433c-61.8 0-104.8-1-159.6-22.4-12.5 4.6-29.4 6.2-40.5 6.2-11.1 .2-28-1.4-40.5-6.2-55 21.4-97.8 22.4-159.6 22.4z" fill="none" stroke="url(#h)" stroke-width="16"/><path d="m169.6 19.8c13.6 4.4 29.1 5.9 40.2 5.7 11.1 .2 26.7-1.3 40.2-5.7 52.2 19.9 95.1 21.8 151.4 21.9v424.1c0 6.8-3.2 14.3-10.7 21.9-7.5 7.8-18.7 15.2-33.5 21.4-23.9 9.7-49.5 14-75.2 12.4-18.9-1.3-44.5-7.2-60.6-24.8l-11.9-12.7-11.9 12.7c-16.2 17.5-41.7 23.4-60.6 24.8-25.6 1.6-51.3-2.5-75.2-12.4-14.6-6.2-26-13.7-33.5-21.4-7.5-7.8-10.7-15.2-10.7-21.9v-424.1c56.4-.2 99.2-1.9 151.4-21.9z" fill="url(#i)" stroke="url(#g)" stroke-width="2"/><g id="a"><g id="d"><path id="sh" d="m60 91c-3 0-5 1-6 4l-11 36c-1 3 0 5 3 7 2 1 4 1 7 3 3 2 3 4 5 6 2 2 5 2 7 0 2-2 3-3 3-3 0-0 1 2 3 3 2 2 5 1 7-0 2-1 2-4 5-6 3-2 5-2 7-3 2-2 4-4 3-7-1-2-2-4-2-4-0-0 2-0 4-2 2-2 3-4 2-7-1-2-3-4-4-7-1-3 0-5-1-8-1-3-3-5-6-5-2 0-4 1-4 1-0 0-2-1-4-1-3-3-4-6-4-2 0-4 2-8 2-3-0-5-2-8-2" fill="#999" filter="url(#e)"/><g id="b" transform="matrix(1.438 0 0 1.438 192.5-2.156)" stroke-width=".5"><path id="lf" d="m-89.2 63.8c-2.2 0-3.4-1.1-5-1.1-1.9 0-3.5 .9-4.1 2.6-.5 1.6-.1 3 .9 4.5l8.1 11.2" fill="#d97c82" stroke="#000"/><use transform="matrix(-1,0,0,1,-178.5,0)" xlink:href="#lf"/><path d="m-87.5 79.8c-.9-3.3-1.5-6.8-1.8-10.2-.2 3.5-.8 6.9-1.8 10.2" fill="#da7d32" stroke="#000" stroke-width=".3"/></g><use transform="rotate(72 64 114)" xlink:href="#b"/><use transform="rotate(144 64 114)" xlink:href="#b"/><use transform="rotate(216 64 114)" xlink:href="#b"/><use transform="rotate(-72 64 114)" xlink:href="#b"/><circle cx="64" cy="114" r="10" fill="#4a2822" stroke="#000"/></g><use transform="translate(150-21)" xlink:href="#d"/><use transform="translate(301-43)" xlink:href="#d"/></g><use transform="translate(0 175)" xlink:href="#a"/><use transform="translate(0 349)" xlink:href="#a"/></svg>
