<svg height="629.58679" width="500" xmlns="http://www.w3.org/2000/svg"><g transform="translate(6 -139.4132)"><path d="m1.0247934 146.438v371.64509c0 134.69784 108.7836966 243.89211 242.9751966 243.89211 134.19152 0 242.97522-109.19427 242.97522-243.89211v-371.64509z"/><path d="m224.59599 760.72599c-41.33023-3.66328-79.42106-16.83887-113.38843-39.221-16.983001-11.19061-30.726732-22.92238-45.795514-39.09148-6.459138-6.93077-7.107514-7.90525-6.286437-9.44818.503525-.9462 3.178306-5.54722 5.943956-10.22449 20.145522-34.07014 49.640795-88.9335 62.918525-117.03306 10.26213-21.71766 32.77888-76.06729 44.79516-108.12396 28.76791-76.74622 51.43932-167.04429 69.43999-276.57293l1.86123-11.325 1.4493 9.70516c2.13742 14.31302 7.33354 43.33235 11.96179 66.80434 15.66777 79.45854 33.03039 143.90049 54.99049 204.09917 10.4505 28.64772 36.04448 90.81086 47.51824 115.41322 12.78952 27.42365 45.83276 88.49135 68.242 126.11906l1.79357 3.01161-14.03598 14.07642c-15.47732 15.52189-22.80359 21.64992-37.92855 31.72518-31.94269 21.27814-65.44833 33.80114-104.07438 38.89862-11.69228 1.54303-38.20341 2.18015-49.40496 1.18732z" fill="#fcdd09" stroke="#fcdd09" stroke-width=".404959"/><path d="m243.99999 145.89959s15.29922 109.09615 46.86893 217.33683c18.59698 63.76204 41.90329 118.03986 61.34205 164.05675 14.15948 33.51938 43.56808 87.28563 67.39335 128.6963 3.63081 6.3107 7.27293 12.50183 10.88049 18.52411" fill="none" stroke="#fcdd09" stroke-width="2.429752"/><path d="m244.00001 145.89959s-15.29922 109.09615-46.86893 217.33683c-18.59698 63.76204-41.90329 118.03986-61.34205 164.05675-14.15948 33.51938-43.568077 87.28563-67.393351 128.6963-3.632313 6.31331-7.27594 12.50695-10.884961 18.53158" fill="none" stroke="#e7d831" stroke-width="2.429752"/><path d="m-1 144.4132v2.0248 371.65082c0 135.78802 109.71011 245.91116 245 245.91116s245-110.12315 245-245.91116v-371.65082-2.0248h-2.02479-485.9504166zm4.0495868 4.04959h481.9008232v369.62603c0 133.60768-107.85734 241.86157-240.95041 241.86157s-240.9504132-108.25388-240.9504132-241.86157z" opacity=".96"/></g></svg>