<?xml version="1.0" encoding="UTF-8" standalone="no"?>
<!-- Created with Inkscape (http://www.inkscape.org/) -->

<svg
   xmlns:dc="http://purl.org/dc/elements/1.1/"
   xmlns:cc="http://creativecommons.org/ns#"
   xmlns:rdf="http://www.w3.org/1999/02/22-rdf-syntax-ns#"
   xmlns:svg="http://www.w3.org/2000/svg"
   xmlns="http://www.w3.org/2000/svg"
   xmlns:xlink="http://www.w3.org/1999/xlink"
   xmlns:sodipodi="http://sodipodi.sourceforge.net/DTD/sodipodi-0.dtd"
   xmlns:inkscape="http://www.inkscape.org/namespaces/inkscape"
   id="svg2"
   sodipodi:version="0.32"
   inkscape:version="0.92.5 (2060ec1f9f, 2020-04-08)"
   width="188.57411"
   height="263.75659"
   version="1.0"
   sodipodi:docname="San Giorgio Lucano-Stemma.svg"
   inkscape:output_extension="org.inkscape.output.svg.inkscape"
   sodipodi:modified="true">
  <metadata
     id="metadata7">
    <rdf:RDF>
      <cc:Work
         rdf:about="">
        <dc:format>image/svg+xml</dc:format>
        <dc:type
           rdf:resource="http://purl.org/dc/dcmitype/StillImage" />
        <dc:title></dc:title>
        <cc:license
           rdf:resource="http://creativecommons.org/publicdomain/zero/1.0/" />
        <dc:creator>
          <cc:Agent>
            <dc:title>Ruthven</dc:title>
          </cc:Agent>
        </dc:creator>
      </cc:Work>
      <cc:License
         rdf:about="http://creativecommons.org/publicdomain/zero/1.0/">
        <cc:permits
           rdf:resource="http://creativecommons.org/ns#Reproduction" />
        <cc:permits
           rdf:resource="http://creativecommons.org/ns#Distribution" />
        <cc:permits
           rdf:resource="http://creativecommons.org/ns#DerivativeWorks" />
      </cc:License>
    </rdf:RDF>
  </metadata>
  <defs
     id="defs5">
    <linearGradient
       id="linearGradient9653">
      <stop
         id="stop9649"
         offset="0"
         style="stop-color:white;stop-opacity:0.429" />
      <stop
         id="stop9651"
         offset="1"
         style="stop-color:white;stop-opacity:0;" />
    </linearGradient>
    <radialGradient
       inkscape:collect="always"
       xlink:href="#linearGradient9653"
       id="radialGradient9605"
       cx="245.87315"
       cy="253.39449"
       fx="245.87315"
       fy="253.39449"
       r="93.269112"
       gradientTransform="matrix(-1.3887298,-0.00985278,0.01245266,-1.7551788,598.28173,629.12591)"
       gradientUnits="userSpaceOnUse" />
    <radialGradient
       id="XMLID_7_-5"
       cx="151.815"
       cy="663.31232"
       r="53.129299"
       gradientTransform="translate(0.0752,-286.9102)"
       gradientUnits="userSpaceOnUse">
      <stop
         offset="0.0056"
         style="stop-color:#9F0033"
         id="stop24700" />
      <stop
         offset="0.5"
         style="stop-color:#F34A48"
         id="stop24702" />
      <stop
         offset="1"
         style="stop-color:#F3F048"
         id="stop24704" />
    </radialGradient>
    <linearGradient
       id="XMLID_8_-8"
       gradientUnits="userSpaceOnUse"
       x1="221.047"
       y1="379.73511"
       x2="240.76131"
       y2="411.06201"
       gradientTransform="translate(0.0752,-286.9102)">
      <stop
         offset="0.0056"
         style="stop-color:#C8763D"
         id="stop24790" />
      <stop
         offset="1"
         style="stop-color:#F3F048"
         id="stop24792" />
    </linearGradient>
  </defs>
  <sodipodi:namedview
     inkscape:window-height="1020"
     inkscape:window-width="1920"
     inkscape:pageshadow="2"
     inkscape:pageopacity="0.0"
     guidetolerance="10.0"
     gridtolerance="10.0"
     objecttolerance="10.0"
     borderopacity="1.0"
     bordercolor="#666666"
     pagecolor="#ffffff"
     id="base"
     inkscape:zoom="1.604692"
     inkscape:cx="48.706745"
     inkscape:cy="130.9468"
     inkscape:window-x="0"
     inkscape:window-y="0"
     inkscape:current-layer="layer2"
     showgrid="false"
     inkscape:window-maximized="1"
     fit-margin-top="0"
     fit-margin-left="0"
     fit-margin-right="0"
     fit-margin-bottom="0" />
  <g
     transform="translate(367.01836,13.28513)"
     id="g5405" />
  <g
     inkscape:groupmode="layer"
     id="layer6"
     inkscape:label="Stemma"
     style="display:inline"
     transform="translate(-117.86504,-132.98708)">
    <path
       id="path12910"
       d="m 118.88298,134.00502 v 209.42384 c -1e-5,19.08679 13.42432,30.41107 27.73897,30.41107 h 33.33767 c 20.85802,0 32.19248,10.38055 32.19248,22.90374 0,-12.52319 11.33446,-22.90374 32.19247,-22.90374 h 33.33767 c 14.31466,0 27.73897,-11.32428 27.73897,-30.41107 V 134.00502 H 212.1521 Z"
       style="display:inline;fill:#fcdd09;fill-opacity:1;fill-rule:evenodd;stroke:none;stroke-width:2.03588796px;stroke-linecap:butt;stroke-linejoin:miter;stroke-opacity:1"
       sodipodi:nodetypes="ccccscccccc"
       inkscape:connector-curvature="0" />
    <path
       sodipodi:nodetypes="ccccscccccc"
       style="display:inline;fill:#da121a;fill-opacity:1;fill-rule:evenodd;stroke:#000000;stroke-width:2.03588796px;stroke-linecap:butt;stroke-linejoin:miter;stroke-opacity:1"
       d="m 118.88298,134.00502 v 209.42384 c -1e-5,19.08679 13.42432,30.41107 27.73897,30.41107 h 33.33767 c 20.85802,0 32.19248,10.38055 32.19248,22.90374 0,-12.52319 11.33446,-22.90374 32.19247,-22.90374 h 33.33767 c 14.31466,0 27.73897,-11.32428 27.73897,-30.41107 V 134.00502 H 212.1521 Z"
       id="path6280"
       inkscape:connector-curvature="0" />
    <path
       sodipodi:nodetypes="cccccc"
       style="display:inline;fill:#000000;fill-opacity:1;fill-rule:evenodd;stroke:none;stroke-width:1.61342478px;stroke-linecap:butt;stroke-linejoin:miter;stroke-opacity:1"
       d="M 118.88298,134.00502 V 265.5323 H 305.42121 V 134.00502 H 212.1521 Z"
       id="path6280-8"
       inkscape:connector-curvature="0" />
    <g
       transform="matrix(-0.39811691,0,0,0.39811691,293.72337,144.08143)"
       id="g24853">
      <circle
         style="fill:#fafa75;stroke:#000000;stroke-width:1.06130004"
         cx="200.77"
         cy="62.464001"
         r="45.501999"
         id="circle24695" />
      <path
         style="fill:#ff0008;stroke:#313030;stroke-width:1.08019996"
         inkscape:connector-curvature="0"
         d="m 269.712,226.741 c 4.447,4.729 7.733,10.292 11.61,15.38 4.029,5.283 7.563,9.729 13.291,13.249 3.958,2.435 8.781,4.123 13.391,4.43 4.747,0.314 8.969,2.399 13.544,3.726 4.882,1.418 9.016,1.192 14.049,1.021 10.271,-0.354 20.129,-3.259 29.505,-7.291 3.795,-1.629 8.768,-3.707 11.278,-7.021 0.886,-1.168 1.283,-1.881 1.149,-3.239 -0.147,-1.562 -2.146,-3.129 -1.979,-4.658 0.456,-4.19 6.296,-0.245 8.354,0.004 2.618,0.319 5.207,-1.181 7.597,-2.097 3.52,-1.348 6.507,-1.768 10.26,-1.563 2.789,0.156 4.983,0.983 7.479,2.135 -2.363,-1.442 -2.422,-6.848 -3.425,-9.273 -2.793,-6.768 -8.354,-8.775 -14.531,-11.658 -7.477,-3.486 -15.079,-6.918 -22.549,-10.492 -3.244,-1.553 -6.46,-2.722 -9.85,-3.918 -2.243,-0.793 -5.087,-2.742 -7.393,-3.063 -1.696,-0.236 -0.933,-0.224 -2.098,0.818 -1.987,1.772 -3.513,3.232 -6.229,4.084 -4.937,1.551 -11.937,1.966 -16.973,0.819 -4.542,-1.034 -9.313,-2.857 -13.833,-4.135 -2.454,-0.696 -3.54,-0.536 -5.899,-0.709 -0.149,2.215 1.622,4.327 1.287,6.671 -2.055,-0.839 -3.966,-4.694 -5.373,-6.43 -2.26,-2.779 -5.086,-6.287 -8.635,-7.519 -2.431,-0.842 -5.449,1.025 -7.564,-0.102 -1.688,-0.9 -2.094,-3.713 -2.638,-5.295 -0.93,-2.707 -2.247,-2.919 -5.125,-3.246 -3.466,-0.391 -6.871,-0.347 -10.326,-1.061 -5.77,-1.191 -11.963,-2.838 -16.765,-6.214 -0.648,2.339 -1.276,4.175 -2.666,6.341 -2.05,3.193 -3.403,6.754 -4.49,10.373 -1.154,3.85 0.46,5.065 2.239,8.243 1.791,3.198 3.243,5.886 6.021,8.414 5.389,4.889 12.282,7.951 17.287,13.276 z"
         id="path24697" />
      <path
         style="fill:#fbfbfc;stroke:#000000;stroke-width:1.51460004"
         inkscape:connector-curvature="0"
         id="path3237_2_"
         d="m 209.074,319.188 c -16.794,17.895 -16.563,18.135 -16.611,26.985 -0.046,9.349 1.903,7.869 13.154,19.242 11.254,11.367 16.15,15.336 -0.166,32.467 -16.316,17.13 -2.563,24.082 19.688,0.104 7.173,-7.73 9.051,-13.607 8.235,-18.418 -11.084,-9.666 -26.426,-21.367 -24.089,-37.375 2.198,-15.035 3.667,-19.843 -0.211,-23.005 z" />
      <g
         id="g24761">
        <g
           id="g24715">
          <radialGradient
             id="radialGradient25429"
             cx="151.815"
             cy="663.31232"
             r="53.129299"
             gradientTransform="translate(0.0752,-286.9102)"
             gradientUnits="userSpaceOnUse">
            <stop
               offset="0.0056"
               style="stop-color:#9F0033"
               id="stop25423" />
            <stop
               offset="0.5"
               style="stop-color:#F34A48"
               id="stop25425" />
            <stop
               offset="1"
               style="stop-color:#F3F048"
               id="stop25427" />
          </radialGradient>
          <path
             style="fill:url(#XMLID_7_-5);stroke:#000000;stroke-width:0.61430001"
             inkscape:connector-curvature="0"
             d="m 150.947,352.805 c 2.845,-5.306 8.432,-15.789 7.316,-21.841 -0.86,-4.672 -5.938,-5.717 -6.253,-0.239 -6.62,-3.953 4.826,-16.363 10.862,-5.92 4.036,6.985 -2.642,19.94 -6.72,25.68 5.102,-4.945 6.207,-11.535 8.958,-17.49 2.779,-6.012 9.104,-10.152 12.814,-16.156 0.764,9.734 -1.941,19.33 -8.554,26.602 -5.626,6.183 -13.199,9.564 -15.775,18.187 4.555,-3.976 8.504,-12.737 15.591,-13.61 7.354,-0.906 11.384,8.811 6.297,13.61 0.42,-4.211 -1.954,-8.658 -6.926,-7.299 1.601,0.514 3.511,1.853 3.938,3.873 -11.191,-4.644 -15.747,9.774 -18.604,17.463 -1.038,2.785 -2.606,10.907 -6.646,9.465 -2.484,-0.892 -2.643,-6.731 -2.793,-8.817 -0.596,-8.332 2.649,-16.328 6.495,-23.508 z"
             id="path24707" />
          <path
             style="fill:#7eba4f"
             inkscape:connector-curvature="0"
             d="m 177.921,408.735 c 17.438,-11.938 37.713,-17.084 57.983,-10.44 11.576,3.793 22.017,11.567 28.183,21.892 9.925,16.606 7.392,45.797 -10.551,56.102 -15.283,8.785 -33.457,9.932 -48.166,19.797 -6.444,4.326 -15.329,11.055 -17.094,19.109 -2.742,12.526 12.474,19.791 22.331,21.606 8.548,1.574 25.569,0.828 32.578,-4.797 -4.688,11.252 -17.834,17.047 -28.9,19.193 -21.399,4.155 -48.981,-10.568 -51.866,-33.582 -2.669,-21.279 15.646,-39.709 34.614,-45.742 9.075,-2.891 21.342,-3.146 26.781,-12.207 4.684,-7.803 -0.09,-16.916 -8.507,-12.879 -7.436,3.57 -12.592,8.588 -20.989,11.111 -5.442,1.633 -18.371,0.778 -22.046,5.084 -4.464,5.227 3.196,9.604 2.811,14.418 -5.611,-0.55 -22.874,7.211 -22.004,13.102 -4.86,2.025 -7.855,1.684 -12.718,0.139 -4.044,-1.284 -10.896,-4.192 -6.908,3.175 -3.927,-0.771 -8.563,-3.359 -5.462,-8.019 -3.188,1.463 -4.078,4.73 -2.911,8.019 -5.474,-5.033 -2.781,-12.076 3.033,-15.625 7.667,-4.688 7.114,1.768 12.916,4.637 7.521,3.723 11.494,-2.396 13.837,-8.738 3.075,-8.328 -4.93,-8.608 -10.09,-12.557 -6.515,-4.976 -13.68,-11.539 -19.257,-17.607 -10.271,-11.174 -10.354,-22.379 -11.604,-36.568 -0.516,-5.848 -4.358,-5.549 -0.813,-11.225 3.725,-5.963 2.297,-7.811 2.693,-14.865 0.876,-15.59 22.229,-27.102 21.276,-42.94 9.096,5.766 11.476,30.11 7.663,39.428 6.295,0.699 19.211,-5.588 19.638,-12.752 5.667,-3.431 5.431,5.953 4.184,8.908 -2.188,5.176 -8.917,7.262 -13.176,10.239 -9.482,6.638 -15.293,15.3 -12.949,27.113 1.675,8.451 15.7,24.804 23.24,12.354 1.094,-1.806 0.522,-4.113 2,-6.177 2.454,-3.425 6.859,-6.378 10.25,-8.706 z"
             id="path24709" />
          <path
             style="fill:#2b603b"
             inkscape:connector-curvature="0"
             d="m 237.73,455.066 c 0,-0.64 -0.085,-1.222 -0.282,-1.724 -0.752,-1.895 -1.444,-2.444 -1.706,-2.473 -1.59,-0.16 -4.961,5 -6.229,6.94 l -1.318,1.972 -3.317,-2.359 c -0.258,0.687 -0.564,1.367 -0.953,2.047 2.02,1.142 2.822,3.152 3.252,5.316 2.522,-0.135 5.158,0.399 7.146,2.08 0.562,0.473 4.389,6.018 3.549,6.367 2.392,-1 5.986,-0.636 8.026,1.032 2.059,-3.799 6.661,-13.737 4.365,-18.036 -0.189,-0.355 -0.687,-1.291 -3.076,-1.068 -2.359,0.215 -5.951,4.92 -8.938,11.709 l -3.756,-1.633 0.461,-1.047 c 1.086,-2.472 2.776,-6.308 2.776,-9.123 z m -25.894,28.735 c -0.62,0.103 -1.183,0.248 -1.629,0.451 0.133,2.811 -1.098,5.182 -3.354,6.797 2.183,-1.561 5.161,0.939 7.502,0.23 3.036,-0.92 6.015,-2.563 9.076,-3.607 0.133,-0.047 -4.813,-3.559 -5.709,-3.734 -1.475,-0.298 -3.962,-0.442 -5.886,-0.137 z m 15.456,54.89 c -0.146,-0.404 -0.252,-0.941 -0.231,-1.55 -1.325,0.14 -2.656,0.24 -3.972,0.302 -2.104,2.815 -1.56,5.383 -0.302,6.815 1.646,1.877 5.063,2.697 8.667,0.053 l 0.251,0.343 c 0.578,-0.359 1.145,-0.729 1.699,-1.115 -2.747,-0.996 -5.338,-2.649 -6.112,-4.848 z m -9.765,-60.668 c -1.214,0.832 -2.44,1.635 -3.516,2.688 3.979,0.119 6.469,2.512 9.771,4.127 1.206,-1.604 2.811,-2.561 4.438,-3.709 1.351,-0.953 5.996,-3.637 6.549,-5.063 0.643,-1.65 -1.256,-4.771 -2.436,-5.904 -2.063,-1.982 -4.962,-1.488 -7.46,-2.574 0.715,0.312 -3.362,6.926 -3.855,7.504 -1.03,1.207 -2.251,2.084 -3.491,2.931 z m 3.831,-14.687 c -0.261,-0.063 -0.555,-0.084 -0.881,-0.059 -2.713,0.229 -3.723,4.498 -6.885,4.262 1.222,1.24 4.145,8.182 1.288,9.35 3.233,-1.323 7.043,-4.936 8.019,-8.35 0.519,-1.822 0.432,-4.717 -1.541,-5.203 z m -98.237,-66.408 c 0.009,2.788 -0.554,4.883 1.438,7.014 2.022,2.164 4.391,3.049 5.476,6.172 0.884,-1.404 1.404,-3.252 2.653,-4.684 2.094,-2.404 6.494,-6.48 9.618,-3.4 1.451,-7.65 6.886,-13.557 13.087,-17.887 4.255,-2.979 10.978,-5.063 13.162,-10.236 1.247,-2.949 1.482,-12.334 -4.184,-8.902 -0.427,7.16 -13.343,13.447 -19.638,12.746 3.813,-9.313 1.433,-33.662 -7.663,-39.426 1.14,0.721 -0.938,6.945 -1.308,7.932 -1.038,2.781 -2.596,5.334 -4.265,7.773 -3.531,5.164 -7.833,9.771 -11.185,15.059 -2.874,4.535 -4.022,9.822 -4.362,15.094 -0.323,5.039 -2.742,8.381 -4.526,13.008 -1.188,3.076 -2.534,6.449 -2.853,9.734 4.357,0.408 5.771,-5.23 7.662,-7.949 -0.037,2.334 -1.289,4.65 -1.235,7.033 1.718,-1.334 3.618,-2.172 5.484,-3.289 2.272,-1.364 2.648,-2.782 2.639,-5.792 z m 4.516,18.361 c 0.498,-0.104 1.028,-0.144 1.593,-0.104 -1.129,-2.981 -1.6,-7.506 -4.783,-9.098 -3.806,-1.898 -9.122,0.646 -10.231,4.633 -0.953,3.418 0.861,9.793 1.522,13.267 0.243,1.271 4.067,11.446 3.898,11.657 0.326,-0.418 0.675,-0.803 1.062,-1.145 -0.573,-3.109 0.258,-8.736 0.269,-8.809 0.517,-3.744 2.437,-9.502 6.67,-10.401 z m 19.502,13.646 c 0.94,-1.557 2.642,-5.473 2.557,-5.557 -3.671,-3.614 -6.562,-8.563 -7.266,-12.112 -0.456,-2.283 0.16,-4.302 -2.046,-5.404 -4.903,-2.465 -9.654,4.91 -9.7,9.008 5.325,0.152 10.309,7.033 10.235,12.283 1.349,-0.072 2.625,0.196 3.813,0.778 0.451,0.229 1.396,1.691 1.896,1.634 0.102,-0.018 0.282,-0.253 0.511,-0.63 z m -17.946,18.815 c 0.279,-0.316 0.57,-0.641 0.912,-0.957 4.257,-3.963 9.698,-2.596 13.429,-1.063 0.422,-4.563 1.902,-8.771 4.246,-11.894 0,0 -0.304,-0.197 -0.306,-0.197 -7.88,-5.141 -14.103,-0.178 -11.53,8.55 -1.566,-2.041 -4.677,-4.865 -7.168,-5.734 -1.089,-0.379 -8.269,0.941 -6.755,3.115 1.014,1.455 2.167,2.899 3.498,4.354 1.16,1.259 2.395,2.543 3.674,3.826 z m 5.099,-28.484 c -1.508,-0.982 -3.279,-1.103 -5.269,-0.359 -3.949,1.49 -4.533,9.701 -4.4,13.61 2.193,-0.479 4.884,-0.338 8.208,0.386 1.012,-2.742 2.782,-4.156 4.269,-4.808 0.438,-0.192 0.886,-0.338 1.342,-0.444 -0.295,-3.602 -1.929,-6.944 -4.15,-8.385 z m 62.741,52.607 c -0.654,0.207 -1.305,0.434 -1.958,0.67 2.667,1 5.269,7.301 2.484,9.461 2.862,-2.221 8.765,-6.043 11.209,-0.908 4.14,-1.985 4.702,-9.487 2.006,-12.709 -4.596,1.359 -9.512,2.14 -13.741,3.486 z m 34.107,65.414 c 0,0.045 0.103,0.32 0.575,0.731 1.315,1.16 3.712,2.011 5.589,2.349 2.484,-2.371 4.538,-5.137 5.883,-8.363 -2.653,2.131 -6.743,3.557 -11.267,4.426 -0.679,0.527 -0.78,0.851 -0.78,0.857 z m -12.815,0.219 c -2.907,-0.059 -5.578,-0.313 -7.718,-0.705 -1.916,-0.35 -4.035,-0.916 -6.182,-1.68 0,0 2.66,1.709 2.658,1.709 -1.487,2.315 -4.991,4.789 -3.979,7.916 1.04,3.215 5.267,3.438 7.946,2.596 -1.976,-2.621 -0.831,-7.021 2.473,-7.811 -2.648,3.012 -1.179,9.662 3.122,5.865 -0.146,2.229 -5.838,3.463 -0.459,5.356 -2.083,-0.131 -3.697,-1.146 -5.34,-1.363 -2.293,-0.303 -5.354,0.313 -7.134,1.777 0.089,0.252 0.22,0.598 0.351,0.877 3.375,0.236 6.904,-0.203 10.223,-0.848 2.626,-0.513 5.368,-1.232 8.091,-2.179 -1.032,-0.526 -1.94,-1.231 -2.667,-2.061 -2.025,-2.301 -2.92,-5.817 -1.385,-9.449 z m 45.762,-117.32 c -6.166,-10.316 -16.604,-18.095 -28.183,-21.888 -20.271,-6.646 -40.544,-1.493 -57.983,10.443 -3.391,2.319 -7.795,5.272 -10.251,8.694 -1.478,2.063 -0.906,4.371 -2,6.179 -3.493,5.768 -8.38,5.35 -12.784,2.399 -0.727,1.361 -1.271,2.884 -1.781,4.591 0.869,-2.91 8.337,-2.103 10.295,-2.132 2.865,-0.043 4.823,-2.793 7.747,-2.932 -1.72,2.855 -4.717,5.473 -5.858,9.506 -1.2,4.24 -0.102,7.629 1.434,11.502 -2.6,-2.313 -5.114,-5.487 -5.01,-9.112 0.052,-1.654 0.996,-3.033 -0.188,-4.193 -1.653,-1.621 -5.376,0.088 -6.683,1.16 -3.613,2.957 -7.56,12.059 -5.063,16.647 1.46,-1.219 4.319,-2.127 5.947,-0.721 -4.182,1.479 -4.88,8.041 -1.634,10.869 -1.958,-1.314 -3.177,-2.771 -4.145,-4.931 -1.464,-3.27 -1.653,-4.92 -5.042,-6.385 -3.097,-1.342 -7.169,-2.74 -10.009,-0.102 -0.305,0.283 -0.55,0.563 -0.771,0.85 4.098,3.914 8.502,7.729 12.649,10.896 5.16,3.944 13.165,4.229 10.089,12.563 -2.342,6.342 -6.313,12.459 -13.836,8.738 -5.802,-2.875 -5.249,-9.33 -12.916,-4.644 -2.209,1.347 -5.777,4.523 -5.973,7.324 2.355,-0.662 4.111,-3.979 6.665,-5.092 -1.316,0.695 -1.403,2.553 -1.309,4.055 -2.098,0.484 -3.174,2.658 -4.128,4.361 -0.303,-0.176 -0.791,-0.303 -1.054,-0.479 -0.278,2.518 2.05,3.444 2.759,5.448 -1.059,-2.989 -0.317,-6.58 2.819,-7.936 -1.396,1.822 -0.612,4.307 1.063,5.69 -1.616,-2.459 -0.498,-7.582 3.257,-7.047 -2.063,-0.295 -2.239,4.574 -0.57,5.408 2.115,-2.324 6.324,-0.045 8.719,0.713 4.861,1.545 7.855,1.883 12.718,-0.139 -0.869,-5.892 16.394,-13.646 22.004,-13.103 0.386,-4.813 -7.273,-9.188 -2.811,-14.414 3.675,-4.305 16.604,-3.45 22.046,-5.088 8.396,-2.522 13.554,-7.539 20.989,-11.104 7.587,-3.642 12.187,3.396 9.601,10.531 l 1.175,-1.75 c 2.246,-3.439 4.959,-7.57 8.181,-8.566 -3.081,-8.855 8.599,-12.68 14.813,-8.324 -1.545,-1.08 0.103,-10.438 0.86,-11.971 2.075,-4.193 6.453,-6.084 10.936,-4.601 -1.313,-1.717 -1.271,-4.146 -2.217,-6.071 1.378,2.313 4.021,4.241 4.998,6.74 0.658,1.674 0.205,3.602 1.127,5.321 -1.844,-2.158 -7.646,-4.016 -10.079,-2.002 -1.405,1.164 -2.217,4.863 -2.358,6.543 -0.254,3.072 0.818,7.808 2.142,10.563 -0.271,-0.57 7.194,-1.972 8.583,-0.433 -0.229,-2.073 0.979,-3.713 1.73,-5.516 0.261,-0.623 2.008,-3.789 1.938,-4.172 0.36,2.012 0.853,4.188 0.769,6.271 -0.004,0.104 -2.195,2.797 -2.344,3.976 -0.194,1.563 -0.174,4.02 1.582,4.742 -0.367,1.771 -0.911,4.67 -1.929,6.059 0.11,-3.059 -0.792,-8.32 -4.527,-9 -2.507,-0.455 -6.051,4.182 -6.52,6.236 -3.658,-1.052 -1.103,-4.431 -2.198,-6.938 -0.882,-2.018 -3.189,-3.102 -5.207,-3.586 -2.31,-0.553 -4.928,-0.393 -7.066,0.691 -1.436,0.729 -5.063,3.821 -4.08,5.868 0.7,1.46 3.447,1.351 4.472,3.646 0.849,1.898 1.197,4.729 0.55,6.738 1.104,-3.431 6.677,-5.746 9.945,-5.037 6.971,1.514 3.77,9.647 1.633,13.985 2.569,-1.051 4.823,-3.694 7.492,-4.979 1.781,-0.853 3.826,-1.488 5.473,-2.705 -0.36,1.658 -1.589,4.479 -2.764,5.766 -1.227,1.347 -3.278,1.568 -5.116,2.554 -2.86,1.53 -7.304,5.055 -8.146,8.227 0.807,0.057 1.168,0.555 1.711,0.738 -1.205,1.086 -2.932,1.377 -4.139,2.613 1.036,-1.062 -3.093,-1.748 -3.375,-1.773 -1.511,-0.125 -3.76,0.453 -5.206,0.916 -4.154,1.338 -7.654,4.582 -10.74,7.531 0.176,0.235 0.335,0.473 0.495,0.709 8.857,-2.83 17.86,-5.351 26.038,-10.045 17.94,-10.293 20.473,-39.482 10.549,-56.089 z M 157.981,470.48 c -0.496,-0.314 -0.875,-0.582 -1.036,-0.748 -2.093,-2.15 -2.933,-5.211 -2.633,-8.164 0.38,-3.781 2.584,-6.873 5.892,-8.271 l 1.595,3.773 c -2.746,1.16 -3.299,3.815 -3.41,4.91 -0.216,2.151 0.548,4.291 1.862,5.188 3.526,2.426 6.169,-5.68 8.653,-3.813 -3.388,0.938 -2.815,5.809 -1.797,8.146 -0.282,0.146 -0.446,0.16 -0.615,0.309 0.844,0.427 1.493,1.07 1.958,1.916 -5.14,-2.471 -12.976,7.267 -16.198,10.691 3.165,-4.242 7.793,-7.916 10.671,-12.182 -0.455,0.671 -3.32,-0.743 -4.942,-1.755 z m 88.132,-46.334 c -1.737,-0.507 -3.722,-0.822 -5.284,-1.386 -2.843,-1.018 -6.959,-3.396 -9.875,-1.361 -2.592,1.81 -2.038,5.89 -1.181,8.456 1.233,3.684 3.365,5.411 7.236,5.952 -2.05,1.789 -3.392,3.685 -4.429,6.183 -2.147,-4.299 -10.787,-5.808 -15.183,-4.295 -2.451,0.84 -6.56,3.313 -6.229,6.465 -0.43,-4.111 2.334,-7.191 5.583,-9.183 3.684,-2.26 7.256,-1.387 11.347,-0.377 -1.056,-2.727 -2.323,-7.459 -2.323,-10.996 0,-1.438 0.209,-2.67 0.729,-3.477 1.149,-1.785 2.914,-2.924 5.104,-3.305 1.16,-0.197 2.396,-0.033 3.634,0.141 -1.216,-1.996 -2.192,-4.137 -2.705,-6.283 -0.293,-1.211 -0.435,-2.375 -0.435,-3.477 0,-4.775 2.426,-7.77 7.353,-5.883 -0.608,1.684 -2.424,2.662 -3.033,4.359 -0.728,2.016 -0.594,5.674 0.134,7.618 1.688,4.522 7.88,9.629 12.028,11.887 -0.685,-0.442 -1.543,-0.768 -2.471,-1.038 z m -45.548,117.135 c 0.954,-2.746 2.196,-5.244 2.979,-6.492 -8.64,-3.283 -17.4,-9.832 -15.267,-19.596 1.765,-8.058 10.646,-14.785 17.094,-19.109 1.488,-0.996 3.02,-1.887 4.574,-2.723 -0.691,0.366 -3.958,-0.244 -5.32,0.301 -2.038,0.811 -4.179,1.91 -5.41,3.805 -0.479,-0.186 -1.266,-0.77 -1.568,-1.244 2.116,-2.051 10.903,-9.272 7.379,-12.709 -2.659,-2.596 -12.177,1.812 -12.699,5.189 -0.483,3.145 0.808,6.141 -1.854,8.813 1.904,-0.036 3.663,-1.047 5.526,-0.356 0.456,0.164 3.718,2.738 2.498,3.346 -1.351,0.674 -2.628,1.447 -3.588,2.633 0.271,-5.438 -8.813,-1.733 -9.965,1.052 0.032,-0.076 2.918,-7.041 2.918,-7.041 0.813,-1.974 1.534,-4.773 1.142,-6.49 l -0.755,0.334 0.54,-0.908 c -0.176,-0.356 -0.405,-0.662 -0.765,-0.813 -0.414,-0.179 -1.08,0.106 -1.438,0.295 -1.293,0.662 -2.669,2.073 -3.849,3.561 -0.473,1.166 -1.109,2.367 -1.891,3.603 1.153,0.896 4.517,7.793 2.388,8.932 2.718,-1.447 6.53,0.047 6.972,3.414 -0.183,-1.406 -3.098,-1.541 -4.01,-1.226 -1.341,0.462 -2.235,1.996 -2.928,3.128 -2.542,4.155 -1.827,6.506 3.616,6.713 0.135,0.557 0.204,1.653 0.075,2.221 -2.962,-2.018 -6.938,-2.137 -10.251,-0.82 -4.269,1.701 -4.071,5.563 -5.685,9.152 2.947,0.17 6.094,3.371 8.335,5.061 0.359,-4.342 1.962,-11.953 8.199,-10.846 0.211,1.061 0.486,2.115 0.948,3.061 -3.051,-1.727 -5.864,2.523 -6.024,5.164 -0.197,3.306 1.329,6.785 2.781,9.701 -1.816,-2.713 -5.316,-3.811 -7.905,-5.584 -2.715,-1.854 -4.936,-4.397 -8.524,-4.397 -0.598,0 -1.187,0.092 -1.765,0.252 4.012,6.559 11.198,13.748 18.723,16.021 -0.342,-0.104 -0.831,-0.301 -1.215,-0.436 0.691,-0.582 1.717,-0.967 2.667,-1.357 -1.616,-4.072 -1.002,-9.043 2.357,-12.166 3.851,-3.567 6.755,-1.065 10.167,1.338 -4.021,-2.836 -9.289,-1.811 -10.518,3.039 -1.257,4.976 4.769,8.611 9.245,8.592 -0.084,0.613 -0.367,1.648 -0.705,2.281 -2.12,-0.688 -5.755,-2.438 -7.414,0.295 0.052,-0.08 9.638,3.752 10.849,3.967 -2.984,-1.537 -2.189,-6.558 -0.659,-10.951 z m -22.616,-41.572 c -0.296,-0.141 -0.792,-0.283 -1.672,0.07 -2.949,1.199 -6.165,6.084 -7.127,8.469 1.983,2.105 3.351,5.586 3.972,9.229 0.239,-0.182 0.426,-0.399 0.685,-0.567 1.717,-1.127 3.622,-1.76 5.522,-1.916 l -1.291,-0.094 c -0.104,-1.404 0.211,-3.212 0.573,-5.306 0.645,-3.735 1.528,-8.848 -0.662,-9.885 z m -15.045,6.771 c 0.985,-0.349 1.889,-0.396 2.674,-0.271 1.422,-3.156 5.04,-8.553 9.165,-10.223 0.569,-0.232 1.131,-0.359 1.691,-0.437 0.778,-1.883 6.969,-11.61 0.384,-11.684 0.774,-0.709 1.438,-1.498 2.021,-2.373 2.781,1.709 3.024,5.242 2.357,8.127 0.727,-3.152 7.618,-5.063 9.823,-3.271 l 0.522,-0.879 c 0.578,-0.961 1.494,-1.891 2.552,-2.764 2.719,-2.244 -0.598,-8.262 -3.72,-7.916 -2.569,0.305 -6.538,3.326 -8.611,4.814 -3.022,2.17 -5.84,4.633 -8.358,7.371 -5.046,5.502 -8.949,12.164 -10.5,19.506 z m 6.492,15.735 c 0.004,-0.065 0.018,-0.123 0.018,-0.188 0,-4.582 -1.658,-10.236 -3.902,-11.56 -1.036,-0.604 -2.263,0.275 -3.309,1.443 -0.09,1.873 -0.024,3.774 0.217,5.705 0.414,3.309 1.354,6.438 2.698,9.371 1.079,-0.396 2.191,-0.625 3.328,-0.662 0.035,-1.439 0.402,-2.811 0.95,-4.109 z"
             id="path24711" />
          <path
             style="fill:#313030"
             inkscape:connector-curvature="0"
             d="m 157.075,380.961 c 5.771,-4.146 16.976,-9.06 10.599,-18.517 -1.94,2.199 -3.107,13.115 -8.586,6.812 0.343,2.164 -0.527,3.015 -1.637,4.574 -0.507,0.698 -1.672,-0.302 -2.221,0.015 -1.055,0.604 -0.203,1.852 -0.787,2.395 -1.271,1.178 -1.862,4.607 -4.571,4.363 -5.649,-0.523 -1.604,-8.564 -1.084,-11.836 1.389,-8.724 0.787,-22.771 -6.64,-29.109 -6.914,-5.902 -11.564,8.018 -6.416,10.451 3.681,1.733 5.372,-2.717 2.998,-5.426 5.036,3.381 9.815,13.967 5.424,19.436 -1.76,2.189 -6.16,3.604 -8.567,5.252 -3.789,2.602 -7.518,5.549 -9.926,9.523 -3.46,5.694 -5.708,12.155 -6.295,18.752 0.567,-6.371 4.966,-14.355 8.94,-19.229 1.646,-2.015 3.544,-2.967 5.418,-4.676 -0.154,1.334 -0.496,3.272 -1.287,4.393 -1.156,1.64 -2.839,1.354 -4.108,2.386 -2.06,1.655 -4.407,7.36 -4.807,9.785 0.201,-1.222 4.747,-3.188 5.849,-4.019 2.366,-1.8 3.604,-3.729 4.595,-6.522 0.638,-1.789 0.887,-3.705 1.451,-5.459 0.645,-2 2.281,-3.498 3.832,-4.789 0.406,-0.345 5.879,-3.646 5.949,-2.974 0.858,8.313 -4.878,15.912 -5.562,24.024 -0.321,3.795 5.742,14.574 8.94,7.148 2.117,-4.916 -5.387,-6.4 -6.021,-0.76 0.638,-5.661 9.655,-12.499 14.52,-15.993 z"
             id="path24713" />
        </g>
        <g
           id="g24721">
          <path
             style="fill:#ef7754"
             inkscape:connector-curvature="0"
             d="m 232.685,414.375 c -17.992,18.498 -22.104,-21.785 -24.415,-30.465 -6.92,19.746 -21.342,7.756 -27.718,-4.039 0.193,8.688 0.057,16.235 -2.793,24.188 -1.429,3.985 -10.641,19.958 -14.69,8.571 4.793,13.476 -1.222,20.98 -9.677,30.912 -2.84,3.338 -6.95,13.018 0.864,13.676 -3.531,-3.764 0.094,-8.436 4.145,-7.418 0.887,0.221 3.565,3.717 4.631,4.408 2.294,1.486 5.365,2.512 8.063,2.865 5.856,0.76 13.186,-1.674 18.742,-3.521 9.874,-3.28 19.195,-8.641 26.878,-15.666 7.361,-6.728 9.71,-17.075 15.97,-23.511 z"
             id="path24717" />
          <path
             style="fill:#313030"
             inkscape:connector-curvature="0"
             d="m 178.204,459.004 c 8.44,-1.502 17.006,-5.025 22.392,-7.912 12.886,-6.912 22.667,-19.192 26.671,-32.426 -4.283,14.15 -17.541,23.008 -29.671,30.084 -6.076,3.545 -26.516,12.32 -31.241,3.447 8.235,-3.742 17.49,-4.785 25.016,-10.131 21.114,-15.015 16.169,-35.076 16.195,-57.574 -0.026,21.516 0.225,44.43 -20.787,56.629 -3.111,1.807 -6.738,3.565 -10.099,4.746 -0.234,0.086 -10.498,2.596 -9.267,0.104 2.588,-5.229 8.18,-8.694 11.675,-13.313 3.632,-4.801 5.494,-9.92 6.405,-15.924 1.643,-10.857 0.511,-22.945 -3.014,-33.351 3.024,11.962 2.502,24.871 -1.426,36.564 -1.987,5.914 -4.854,11.586 -8.659,16.543 -2,2.6 -5.219,5.182 -7.954,6.934 -6.35,4.066 -3.688,-2.637 -2.038,-6.047 1.313,-2.713 2.038,-5.193 2.371,-8.193 0.596,-5.418 0.751,-10.86 -1.733,-15.928 2.776,5.104 1.998,13.211 -0.464,18.31 -2.367,4.895 -7.333,8.168 -10.438,12.375 -2.552,3.454 -5.136,7.625 -4.283,12.116 0.891,4.691 7.271,8.607 11.332,4.091 3.711,-4.132 -1.771,-9.269 -5.235,-5.359 0.701,-5.979 5.833,-1.303 8.563,0.283 4.927,2.865 9.687,4.998 15.689,3.932 z"
             id="path24719" />
        </g>
        <path
           style="fill:none;stroke:#313030;stroke-width:1.02380002;stroke-linecap:round"
           inkscape:connector-curvature="0"
           d="m 135.35,347.627 c -0.449,2.192 -2.771,4.043 -0.283,5.724 1.646,1.108 4.967,0.553 5.761,-1.164 -0.167,4.479 -6.494,4.346 -8.892,2.063 -2.544,3.586 -5.405,6.924 -8.104,10.436 -2.643,3.431 -6.167,6.572 -6.898,10.928 -0.727,4.291 -0.803,8.695 -2.06,12.896 -1.733,5.789 -7.038,12.127 -7.454,18.109 3.42,0.461 6.994,-6.013 8.151,-8.726 -0.208,2.478 -0.406,5.418 -0.993,7.726 0.312,-1.224 7.693,-4.769 9.173,-5.718 2.426,-1.563 6.667,-4.151 9.554,-2.446"
           id="path24723" />
        <path
           style="fill:none;stroke:#313030;stroke-width:1.02380002;stroke-linecap:round"
           inkscape:connector-curvature="0"
           d="m 114.192,401.205 c 0.652,4.375 -0.338,8.582 -0.304,12.92 0.053,6.604 2.731,16.139 6.744,21.473 -0.478,0.156 -0.657,0.527 -0.928,0.677 -0.098,0.055 7.329,8.672 7.879,9.282 3.699,4.113 7.699,7.938 11.805,11.642 4.259,3.836 7.813,7.694 13.667,8.807 -1.487,-4.932 -4.22,-14.033 -10.427,-14.961 1.335,-0.592 2.765,0.754 3.856,1.383 -2.684,-3.76 1.16,-12.272 3.54,-15.047"
           id="path24725" />
        <path
           style="fill:none;stroke:#313030;stroke-width:1.02380002;stroke-linecap:round"
           inkscape:connector-curvature="0"
           d="m 131.597,481.404 c -4.413,-0.174 -3.291,1.557 -4.771,4.52 -1.409,2.818 -2.956,3.783 -2.116,7.389 -3.406,-2.438 -3.842,-8.788 -0.88,-11.489 2.058,-1.877 5.609,-5.517 8.633,-5.447 3.67,0.08 4.903,4.166 7.396,6.035 2.807,2.1 7.652,1.877 10.496,-0.242 2.882,-2.146 6.171,-8.578 5.196,-11.99 1.169,1.056 2.782,1.427 4.249,2.045 -3.485,-2.034 -5.892,-4.561 -6.705,-8.905"
           id="path24727" />
        <path
           style="fill:none;stroke:#313030;stroke-width:1.02380002;stroke-linecap:round"
           inkscape:connector-curvature="0"
           d="m 176.644,516.211 c -2.387,0.965 -6.556,2.775 -6.125,6.021 -0.48,-1.062 -6.771,-16.738 -8.215,-9.527 0.038,-5.465 1.404,-9.477 3.173,-14.506 0.775,-2.207 9.289,-15.828 10.916,-13.767 -0.884,-1.127 13.344,-10.047 14.522,-10.76 -0.014,0.353 0.126,0.844 0.113,1.215 2.305,-1.387 4.838,-3.149 7.456,-3.801 3.771,-0.938 9.312,-1 12.235,-3.916 0.04,0.287 0.077,0.582 0.1,0.877 2.814,-1.197 7.459,-1.754 8.891,-5.371 2.792,1.992 3.156,-2.854 3.755,-4.364 0.401,0.309 0.964,0.756 1.222,1.223 1.202,-4.24 1.624,-11.404 -3.604,-13.139 -4.101,-1.355 -9.633,1.69 -13.081,3.647 -3.802,2.156 -6.35,5.203 -10.541,6.443 -5.928,1.756 -11.685,2.262 -17.745,3.08 -3.229,0.438 -8.253,2.938 -8.682,6.465 -0.456,3.754 3.229,7.76 3.569,11.51 -0.245,-1 -1.024,-1.742 -2.014,-2.143 0.321,0.434 0.363,1.036 0.604,1.514 -2.874,0.063 -5.093,0.793 -7.548,2.174 -4.264,2.396 -9.627,4.148 -12.047,8.742 -1.511,2.873 -1.217,3.52 -4.598,3.672 -4.896,0.219 -7.949,-0.818 -12.547,-2.334 -3.116,-1.029 -7.032,0.236 -3.618,3.861 -4.177,-0.134 -7.708,-6.402 -3.053,-8.945 -1.036,0.623 -1.8,1.6 -2.208,2.674 -0.094,-0.498 -0.121,-1.065 -0.076,-1.604"
           id="path24729" />
        <path
           style="fill:none;stroke:#313030;stroke-width:1.02380002;stroke-linecap:round"
           inkscape:connector-curvature="0"
           d="m 161.286,475.26 c 2.135,-1.401 3.966,-3.104 6.705,-2.713 -0.883,-0.658 -1.375,-1.641 -1.245,-2.746"
           id="path24731" />
        <path
           style="fill:none;stroke:#313030;stroke-width:1.02380002;stroke-linecap:round"
           inkscape:connector-curvature="0"
           d="m 183.126,530.201 c -0.004,-2.986 2.797,-6.818 5.835,-4.215 -2.129,-3.164 -2.688,-6.992 -1.16,-10.439 0.751,-1.695 4.7,-6.252 2.278,-7.91 0.188,0.222 0.45,0.438 0.648,0.685 0.018,0.021 8.447,-6.734 7.46,-9.295 2.175,2.196 8.896,-4.728 11.144,-5.941 1.383,-0.75 4.021,-2.004 0.772,-2.666 1.582,0.291 2.419,0.59 3.804,0.283 6.896,-1.523 13.069,-4.748 19.733,-6.832 2.344,-0.734 4.606,-1.287 6.902,-2.211 1.867,-0.752 4.66,-1.099 6.014,-2.479 -1.485,-1.938 -5.947,-2.223 -8.146,-1.528"
           id="path24733" />
        <path
           style="fill:none;stroke:#313030;stroke-width:1.02380002;stroke-linecap:round"
           inkscape:connector-curvature="0"
           d="m 172.548,497.783 c 2.089,-3.051 7.018,-2.256 9.578,-0.125 -1.131,-2.178 2.558,-6.373 4.755,-6.701"
           id="path24735" />
        <path
           style="fill:none;stroke:#313030;stroke-width:1.02380002;stroke-linecap:round"
           inkscape:connector-curvature="0"
           d="m 207.697,479.695 c 1.586,1.248 3.021,4.844 2.106,6.705 0.446,-2.625 2.961,-1.931 5.063,-1.927"
           id="path24737" />
        <path
           style="fill:none;stroke:#313030;stroke-width:1.02380002;stroke-linecap:round"
           inkscape:connector-curvature="0"
           d="m 226.127,460.927 c 1.323,3.601 -1.173,8.771 -3.633,11.313 2.695,-2.367 3.042,-6.211 7.729,-5.854"
           id="path24739" />
        <path
           style="fill:none;stroke:#313030;stroke-width:1.02380002;stroke-linecap:round"
           inkscape:connector-curvature="0"
           d="m 168.111,370.834 c -0.302,8.94 -10.495,10.269 -16.048,15.688 -2.422,2.367 -5.163,5.25 -6.898,8.123 -3.68,6.084 -3.638,14.004 -0.877,20.43 1.824,4.254 4.831,8.817 9.084,10.971 3.309,1.666 9.061,2.516 11.33,-1.295"
           id="path24741" />
        <path
           style="fill:none;stroke:#313030;stroke-width:1.02380002;stroke-linecap:round"
           inkscape:connector-curvature="0"
           d="m 247.627,479.011 c -0.514,0.076 -0.65,0.207 -0.42,0.386 9.291,-3.47 16.243,-10.353 18.813,-19.498 -2.333,-1.38 -4.76,1.088 -6.757,1.916 2.892,-2.709 7.769,-1.019 8.779,-5.418 0.819,-3.564 -0.942,-7.873 -2.969,-10.728 1.129,1.928 2.878,3.992 3.376,6.283 -0.333,-6.342 3.042,-14.396 -1.118,-20.242 -0.922,1.236 -1.653,3.123 -1.97,4.537 0.923,-4.199 2.303,-4.812 0.947,-9.021 -1.896,-5.872 -5.54,-12.807 -10.564,-16.62 -4.495,-3.412 -9.333,-8.451 -14.713,-10.426 -2.738,-1.005 -5.849,1.127 -8.643,1.385 2.182,-1.021 5.271,-1.437 7.103,-1.367 -2.441,-0.756 -4.77,-1.643 -7.233,-2.33 -3.272,-0.91 -6.873,-1.307 -10.188,-2.066 -3.412,-0.779 -7.962,-1.316 -11.302,-0.055"
           id="path24743" />
        <path
           style="fill:none;stroke:#313030;stroke-width:1.02380002;stroke-linecap:round"
           inkscape:connector-curvature="0"
           d="m 225.785,438.062 c 1.749,-0.352 4.729,1.601 5.818,3.07 1.162,1.57 0.767,2.92 1.354,4.676 -1.018,-4.276 1.769,-10.438 7.16,-9.793"
           id="path24745" />
        <path
           style="fill:none;stroke:#313030;stroke-width:1.02380002;stroke-linecap:round"
           inkscape:connector-curvature="0"
           d="m 241.822,417.928 c 1.458,3.61 4.789,5.716 7.441,8.155 -1.021,-2.883 3.964,-4.192 6.213,-4.399"
           id="path24747" />
        <path
           style="fill:none;stroke:#313030;stroke-width:1.02380002;stroke-linecap:round"
           inkscape:connector-curvature="0"
           d="m 232.611,416.223 c 0.616,0.186 1.283,0.131 1.916,0.024 -0.625,-1.183 -0.674,-2.781 -0.553,-4.123"
           id="path24749" />
        <path
           style="fill:none;stroke:#313030;stroke-width:1.02380002;stroke-linecap:round"
           inkscape:connector-curvature="0"
           d="m 162.31,512.797 c 0.053,5.812 1.342,13.08 5.064,17.695 -0.438,-0.18 -0.839,-0.121 -1.26,-0.236 -0.021,1.9 2.718,3.549 4.063,4.803 2.653,2.474 4.971,4.742 8.104,6.765 2.082,1.348 4.138,2.541 6.403,3.405 1.818,0.691 4.006,1.168 5.564,2.455 -0.22,0.183 -0.662,1.025 -0.942,1.226 3.711,0.604 9.562,3.717 13.271,3.143 1.685,-0.258 2.262,-2.295 4.333,-2.059 -1.326,0.258 -2.742,0.721 -3.28,2 0.054,-0.127 8.041,-0.136 8.788,-0.211 3.104,-0.313 6.439,-0.818 9.15,-2.479 -1.332,-0.365 -2.885,-1.953 -3.323,-3.276 4.481,3.717 6.807,2.858 11.295,-0.464"
           id="path24751" />
        <path
           style="fill:none;stroke:#313030;stroke-width:1.02380002;stroke-linecap:round"
           inkscape:connector-curvature="0"
           d="m 187.904,516.894 c -2.495,8.968 8.487,18.043 16.62,18.761 -1.699,0.186 -2.617,1.938 -3.353,3.319 3.132,-5.606 11.607,-1.934 16.987,-1.553 -0.58,0.971 -0.759,2.146 -0.58,3.273 0.679,-3.172 1.959,-3.553 5.108,-3.324 4.685,0.342 17.568,0.393 18.795,-6.145"
           id="path24753" />
        <g
           id="g24759">
          <path
             style="fill:#ef7754"
             inkscape:connector-curvature="0"
             d="m 260.87,524.24 c 1.877,-13.334 -2.545,-24.582 2.97,-37.748 -7.797,3.94 -12.403,10.567 -16.104,18.545 -2.368,5.109 0.525,8.768 -5.515,3.84 -2.763,-2.254 -3.809,-5.646 -4.05,-9.127 -6.319,4.945 -1.896,20.09 -0.497,25.33 -6.155,-4.869 -16.027,-5.221 -23.591,-4.938 2.522,-0.178 5.076,0.103 7.446,1 1.08,0.408 1.994,0.695 2.967,1.382 1.103,0.77 2.117,1.659 3.268,2.364 1.813,1.113 3.764,2.459 4.961,4.24 1.136,1.697 2.071,3.553 2.313,5.586 0.178,1.482 -0.016,3 -0.22,4.476 -0.264,1.924 -0.68,3.153 -2.266,4.407 -1.034,0.814 -2.58,1.131 -3.519,-0.008 -0.529,-0.646 -0.664,-2.094 0.241,-2.479 0.443,-0.189 0.799,-0.029 0.986,0.403 0.059,0.136 0.106,0.427 0.062,0.578 -0.033,0.109 -0.414,0.455 -0.461,0.478 0.85,0.811 1.903,0.52 2.614,-0.396 0.922,-1.188 0.336,-2.641 -0.721,-3.477 -0.837,-0.658 -1.544,-1.037 -2.643,-0.709 -1.063,0.319 -1.733,0.895 -2.235,1.844 -0.577,1.102 -1.344,3.824 -0.015,4.713 -0.116,-0.393 -0.418,-0.236 -0.714,-0.404 -0.179,-0.102 -0.188,-0.313 -0.39,-0.407 -0.437,-0.218 -0.949,-0.119 -1.414,-0.152 -1.698,-0.121 -3.521,-0.338 -4.683,-1.637 1.617,2.604 5.063,4.248 7.946,4.836 1.105,0.227 2.236,0.299 3.343,0.196 1.53,-0.145 2.952,-0.366 4.456,-0.676 1.577,-0.32 2.958,-0.967 4.506,-1.342 2.438,-0.59 5.057,-1.303 7.229,-2.561 2.179,-1.269 4.257,-2.716 6.131,-4.396 4.034,-3.626 6.838,-8.361 7.599,-13.761 z"
             id="path24755" />
          <path
             style="fill:#313030"
             inkscape:connector-curvature="0"
             d="m 241.671,531.64 c 0.794,2.127 1.087,4.4 0.821,6.658 -0.05,0.418 -0.731,4.644 -1.989,3.76 -0.32,-0.229 -0.171,-0.821 -0.187,-1.182 -0.946,0.342 -1.169,1.992 -0.394,2.621 -0.358,0.059 -2.291,0.889 -2.014,1.422 0.248,0.467 1.676,-0.291 1.927,-0.439 2.111,-1.262 4.045,-2.938 5.947,-4.483 0.822,-0.666 1.582,-1.451 2.313,-2.215 1.479,-1.545 2.627,-3.523 3.269,-5.607 0.254,-0.828 0.396,-1.629 0.4,-2.494 0.004,-0.789 -0.298,-1.578 -0.521,-2.33 -0.779,-2.627 -1.782,-4.815 -3.563,-6.946 -1.751,-2.099 -3.787,-3.931 -5.647,-5.927 -1.771,-1.891 -3.46,-3.981 -4.296,-6.477 -0.938,-2.808 -0.555,-5.764 0.55,-8.465 -2.33,5.705 3.063,10.553 6.767,14.057 6.068,5.742 7.406,7.99 10.415,15.543 7.836,-11.645 -9.236,-33.338 7.782,-42.154 -4.819,7.216 -4.566,13.263 -3.007,21.183 0.493,2.518 0.906,5.059 1.118,7.619 0.347,4.198 0.136,8.502 -1.302,12.498 -1.458,4.059 -4.003,7.653 -7.193,10.52 -2.687,2.41 -5.54,4.359 -8.725,6.076 -1.315,0.709 -2.394,1.418 -3.836,1.852 -1.675,0.504 -3.369,0.785 -5.114,0.931 -1.354,0.108 -2.608,0.309 -3.932,0.6 -0.925,0.203 -1.869,0.502 -2.707,0.941 -0.916,0.479 -1.223,1.069 -1.744,1.838 -0.085,-1.045 0.24,-2.244 1.02,-2.939 -1.876,-0.494 -3.82,-1.334 -5.809,-1.069 0.17,-0.021 0.69,-0.57 0.959,-0.664 0.524,-0.179 1.152,-0.222 1.703,-0.197 1.173,0.047 2.324,0.393 3.526,0.393 1.385,0 2.751,0.019 4.094,-0.381 1.169,-0.342 2.354,-0.869 3.359,-1.561 1.397,-0.957 1.771,-2.433 2.829,-3.607 1.071,-1.186 1.286,-2.69 1.408,-4.254 0.125,-1.586 0.021,-3.16 -0.464,-4.674 -0.791,-2.474 -2.026,-4.672 -3.911,-6.474 -1.789,-1.709 -3.975,-2.639 -6.313,-3.271 -0.836,-0.229 -1.601,-0.313 -2.493,-0.396 -1.263,-0.12 -3.047,-0.108 -4.132,-0.821 0.654,-0.313 1.677,0.084 2.363,0.164 1.582,0.182 3.155,0.319 4.72,0.577 2.636,0.437 5.502,0.822 7.65,2.558 2.265,1.798 3.37,4.587 4.353,7.216 z"
             id="path24757" />
        </g>
      </g>
      <path
         style="fill:#8c8c8c;stroke:#000000;stroke-width:1.51460004"
         inkscape:connector-curvature="0"
         id="path3293_2_"
         d="m 325.483,266.02 c 1.793,-0.625 3.618,-1.144 5.489,-1.506 15.418,-3 28.549,9.274 31.065,23.953 1.975,11.486 -5.198,24.611 -11.994,33.205 -3.86,4.881 -5.904,9.322 -6.463,15.474 -0.465,5.135 1.719,9.342 -0.745,14.323 0.896,-2.625 0.137,-5.385 -1.06,-7.84 -0.873,-1.795 -3.609,-3.944 -2.651,-6.086 -4.814,3.246 -6.648,9.724 -5.777,15.063 -2.497,-3.262 -4.844,-9.828 -3.484,-13.912 -3.232,2.841 -2.516,8.742 -2.845,12.601 -0.299,3.488 -0.4,7.056 -1.713,10.354 -1.709,4.287 -8.766,12.235 -14.004,8.254 6.907,0.967 7.424,-7.494 6.093,-12.313 -1.527,-5.521 -5.314,-9.864 -6.553,-15.418 -1.314,-5.879 -1.489,-11.963 -0.306,-17.881 0.513,-2.558 1.282,-4.994 2.438,-7.301 0.688,-1.371 1.707,-2.146 1.456,-3.832 -1.08,1.666 -2.907,2.942 -3.912,4.541 0.832,-6.039 3.807,-10.453 6.777,-15.734 1.586,-2.821 2.985,-6.146 2.886,-9.459 -0.067,-2.239 -1.314,-4.225 -1.15,-6.434 -1.189,0.428 -2.329,1.733 -3.5,2.444 1.745,-4.057 1.739,-10.878 -4,-7.604 -3.975,2.27 -8.186,6.571 -11.088,10.147 -0.352,-4.137 -0.087,-7.354 -2.123,-11.188 1.771,-2.434 5.03,-2.823 7.54,-4.145 2.817,-1.484 5.49,-3.308 8.372,-4.726 3.668,-1.799 7.383,-3.635 11.252,-4.98 z" />
      <path
         style="fill:#fbfbfc;stroke:#000000;stroke-width:1.51460004"
         inkscape:connector-curvature="0"
         id="path3224_3_"
         d="m 89.719,124.418 c -0.638,-0.625 -1.685,-0.539 -3.296,-1.105 -2.891,-1.017 -10.231,-4.812 -7.929,-8.933 1.874,-0.405 4.215,0.673 6.042,1.117 5.313,1.288 11.324,5.265 16.702,3.545 4.616,-1.476 8.572,-4.999 13.656,-4.788 2.54,0.105 4.968,1.267 7.482,1.616 4.456,0.619 8.942,0.215 13.405,1.056 11.444,2.156 17.442,8.969 24.76,17.201 6.038,6.794 9.958,17.748 12.509,26.329 0.9,3.026 0.924,5.813 0.451,8.935 -0.993,6.578 -6.026,16.376 -0.193,21.763 4.478,4.135 9.478,8.173 14.147,12.219 11.909,10.32 24.279,20.135 37.004,29.431 14.667,10.718 31.553,24.234 49.548,28.722 28.478,7.102 38.038,25.506 25.009,73.152 -3.231,11.818 -45.616,12.979 -51.934,23.728 -6.313,10.746 17.283,20.258 17.229,30.688 -0.053,10.432 -49.66,55.381 -49.66,55.381 l -2.044,-8.35 c 0,0 31.449,-29.748 31.514,-42.264 0.064,-12.521 -38.458,-26.976 -34.854,-51.646 3.604,-24.668 5.326,-21.877 -15.5,-29.287 -20.827,-7.408 -65.147,-43.451 -65.147,-43.451 0,0 4.84,5.586 -23.676,5.443 -28.508,-0.148 -35.444,-3.663 -35.542,15.113 -0.097,18.777 3.354,24.014 3.354,24.014 l -10.515,15.596 c 0,0 -5.558,-1.424 -5.358,-39.319 0.193,-37.903 3.625,-28.844 29.389,-35.321 25.763,-6.474 14.696,-18.004 14.767,-31.912 0.004,-0.864 0.135,-1.717 0.305,-2.565 0.738,-3.709 2.753,-6.498 4.157,-9.898 1.069,-2.591 1.464,-4.751 3.221,-7.11 4.061,-5.451 9.659,-9.536 13.699,-15.007 7.092,-9.606 11.276,-19.262 8.119,-31.368 -0.454,-1.734 -1.038,-3.632 -2.024,-5.144 -1.103,-1.685 -4.103,-3.191 -4.292,-5.327 -0.24,-2.697 -0.313,-5.146 -1.088,-7.789 1.275,3.336 1.982,7.459 1.051,10.973 -1.044,3.936 -4.211,2.984 -6.156,6.039 -2.446,3.842 -3.575,9.192 -3.318,13.264 0.081,1.296 0.563,1.829 0.369,3.422 -0.146,1.204 -3.438,17.297 -7.771,12.246 -0.72,-0.841 0.791,-4.974 0.667,-6.294 -1.417,2.37 -0.096,5.431 -2.168,7.379 -1.502,1.411 -3.335,0.734 -4.771,0.161 -1.546,-0.618 -3.459,-1.767 -4.867,-2.683 -5.278,-3.43 -2.928,-12.576 -3.207,-17.921 -0.187,-3.582 -1.159,-6.981 -2.08,-10.425 -1.902,-7.116 -2.506,-14.502 -1.802,-21.833 0.215,-2.213 1.633,-4.747 1.333,-6.965 -0.137,-0.955 -0.355,-1.493 -0.697,-1.828 z" />
      <path
         style="fill:#fbfbfc;stroke:#000000;stroke-width:1.51460004"
         inkscape:connector-curvature="0"
         id="path3232_2_"
         d="M 54.958,209.251 C 41.68,209.184 7.502,256.245 11.827,276.43 c 7.892,-4.385 19.215,-9.746 19.215,-9.746 0,0 1.046,-11.832 11.442,-25.549 10.401,-13.715 9.436,-17.125 26.562,-0.81 8.4,8.002 12.207,12.551 16.109,14.942 0.389,-0.093 0.739,-0.177 1.136,-0.275 23.424,-5.889 16.42,-15.948 15.006,-28.18 -2.189,-1.151 -33.52,-17.496 -46.339,-17.561 z" />
      <path
         style="fill:#3f3f3f;stroke:#000000;stroke-width:1.51460004"
         inkscape:connector-curvature="0"
         id="path3306_2_"
         d="m 31.145,265.927 c -0.067,0.46 -0.103,0.757 -0.103,0.757 0,0 -11.324,5.361 -19.215,9.745 -0.076,-0.344 -0.089,-0.728 -0.14,-1.088 -0.325,7.515 3.532,12.893 3.532,12.893 0,0 25.4,-15.613 24.173,-16.111 -0.885,-0.362 -5.345,-3.875 -8.247,-6.196 z" />
      <path
         style="fill:#3f3f3f;stroke:#000000;stroke-width:1.51460004"
         inkscape:connector-curvature="0"
         id="path3304_2_"
         d="m 72.225,312.947 c 0.32,0.784 0.516,1.094 0.516,1.094 l -10.068,15 7.343,8.647 9.722,-22.336 z" />
      <path
         style="fill:#3f3f3f;stroke:#000000;stroke-width:1.08019996"
         inkscape:connector-curvature="0"
         id="path3242_2_"
         d="m 205.814,441.015 c -0.751,0.978 -1.484,1.953 -2.235,2.916 -3.154,4.029 -7.056,9.992 -7.347,15.148 5.405,1.488 18.343,4.121 23.025,-0.166 -0.859,-1.535 -1.281,-3.252 -0.779,-4.928 1.373,-0.229 2.713,-0.597 4.084,-0.884 3.742,-0.774 -0.685,-12.614 -1.494,-14.014 -1.557,-2.688 -4.894,-4.045 -5.981,-7.008 -1.174,1.981 -3.948,3.068 -5.782,4.883 -1.27,1.253 -2.4,2.641 -3.491,4.053 z" />
      <path
         style="fill:#3f3f3f"
         inkscape:connector-curvature="0"
         d="m 248.045,242.884 c -0.103,-0.586 -0.215,-1.165 -0.344,-1.733 -15.887,11.088 -38.477,-11.028 -47.291,-22.551 -5.925,-7.746 -11.341,-14.897 -17.676,-22.192 -4.553,-5.24 -2.38,-8.777 -10.393,-5.865 -3.349,1.215 -6.925,5.527 -8.983,8.331 -4.237,5.77 -6.344,13.441 -10.226,19.486 -5.734,8.938 -19.678,23.406 -30.347,24.998 -0.534,8.24 20.771,14.19 26.84,16.645 15.269,-1.916 32.831,12.154 44.337,21.25 10.729,8.477 24.368,18.451 32.352,29.568 6.399,-7.478 13.829,-21.478 17.042,-30.891 3.788,-11.092 6.685,-25.558 4.689,-37.046 z m -103.883,3.528 c -0.892,0.857 -2.354,0.329 -5.032,-1.046 -1.894,2.114 -3.969,4.151 -6.213,4.813 -0.571,0.17 -1.173,-0.156 -1.342,-0.729 -0.168,-0.57 0.157,-1.173 0.729,-1.343 1.578,-0.463 3.282,-2.068 4.838,-3.766 l -2.432,-1.189 c -0.533,-0.26 -0.897,-0.965 -0.64,-1.5 0.26,-0.536 0.763,-0.816 1.298,-0.558 l 3.213,1.55 c 0.014,0.008 0.028,0.017 0.044,0.022 0.054,-0.062 0.107,-0.125 0.161,-0.185 l 2.242,-2.477 c 0.401,-0.443 1.045,-0.436 1.487,-0.033 0.44,0.399 0.436,1.123 0.036,1.566 l -1.947,2.15 c 1.044,0.521 2.063,0.979 2.44,0.975 l -0.384,0.189 c 0.479,-0.235 1.191,-0.184 1.498,0.254 0.312,0.437 0.387,0.94 0.004,1.307 z m 14.779,1.958 c -0.542,0.433 -1.033,0.928 -1.511,1.448 l 0.635,0.192 c 0.572,0.169 0.867,0.765 0.694,1.333 -0.172,0.574 -0.803,0.889 -1.374,0.717 l -1.443,-0.435 c -0.43,0.574 -0.855,1.16 -1.287,1.769 l -3.164,4.051 c -0.367,0.47 -0.98,0.479 -1.452,0.111 -0.472,-0.367 -0.489,-1.121 -0.123,-1.591 l 2.976,-3.821 c 0.285,-0.402 0.576,-0.808 0.869,-1.211 l -3.212,-1.066 c -0.563,-0.186 -0.788,-0.766 -0.603,-1.333 0.187,-0.563 0.883,-0.841 1.45,-0.654 l 3.765,1.245 c 0.733,-0.882 1.524,-1.723 2.428,-2.443 0.467,-0.373 1.146,-0.297 1.52,0.17 0.372,0.462 0.296,1.144 -0.168,1.518 z m 47.313,29.025 c -0.536,0.258 -1.184,0.024 -1.438,-0.516 -0.229,-0.48 -1.083,-1.24 -2.115,-1.99 -1.14,2.351 -2.371,4.717 -4.241,6.607 -0.417,0.426 -1.102,0.43 -1.526,0.012 -0.424,-0.418 -0.429,-1.104 -0.008,-1.527 1.691,-1.717 2.854,-4.013 3.955,-6.287 -0.896,-0.522 -1.759,-0.94 -2.357,-1.084 -0.58,-0.139 -0.938,-0.721 -0.8,-1.301 0.138,-0.58 0.722,-0.939 1.302,-0.801 0.705,0.167 1.745,0.648 2.835,1.27 l 1.391,-2.67 c 0.275,-0.527 0.894,-0.674 1.422,-0.396 0.527,0.273 0.7,0.987 0.427,1.518 l -1.411,2.717 c 1.409,0.994 2.656,2.105 3.084,3.01 0.251,0.539 0.021,1.184 -0.52,1.438 z m 14.093,11.652 c -0.412,0.435 -1.061,0.479 -1.49,0.068 l -1.048,-1 c -1.303,1.959 -2.852,3.747 -4.268,5.034 -0.441,0.4 -1.124,0.371 -1.526,-0.071 -0.4,-0.438 -0.369,-1.125 0.071,-1.522 1.392,-1.267 2.92,-3.048 4.149,-4.972 -0.895,-0.863 -1.794,-1.643 -2.84,-2.186 -0.526,-0.273 -0.735,-0.926 -0.463,-1.455 0.273,-0.527 0.929,-0.736 1.458,-0.463 1.118,0.58 2.063,1.355 2.939,2.18 0.388,-0.777 0.709,-1.561 0.923,-2.322 0.16,-0.572 0.758,-0.908 1.331,-0.75 0.576,0.164 0.909,0.762 0.749,1.334 -0.307,1.09 -0.798,2.203 -1.387,3.295 l 1.324,1.271 c 0.438,0.409 0.489,1.125 0.078,1.559 z m 12.127,7.424 c -0.236,0.711 -0.644,1.653 -1.147,2.668 l 0.506,0.454 c 0.442,0.398 0.547,1.136 0.147,1.58 -0.396,0.441 -1.011,0.535 -1.456,0.14 l -0.264,-0.232 c -1.245,2.098 -2.786,4.135 -4.243,4.914 -0.523,0.283 -1.18,0.086 -1.461,-0.438 -0.283,-0.527 -0.085,-1.183 0.439,-1.466 1.068,-0.571 2.479,-2.487 3.626,-4.485 -0.403,-0.357 -0.813,-0.664 -1.3,-0.826 0.565,0.188 1.181,-0.117 1.367,-0.682 0.188,-0.566 -0.113,-1.181 -0.68,-1.367 0.64,0.215 1.171,0.543 1.644,0.91 0.316,-0.67 0.592,-1.312 0.77,-1.849 0.188,-0.563 0.8,-0.875 1.364,-0.685 0.567,0.186 0.875,0.796 0.688,1.364 z"
         id="path24769" />
      <path
         style="fill:#ff0008;stroke:#313030;stroke-width:1.08019996"
         inkscape:connector-curvature="0"
         id="path3285_2_"
         d="m 244.68,308.016 c 2.542,1.741 4.771,3.766 7.521,4.967 -3.757,7.465 -5.416,11.426 -1.094,19.836 2.355,-0.668 3.415,-3.098 5.897,-3.279 0.825,-2.229 0.325,-9.604 2.918,-10.625 1.402,-0.555 5.672,2.314 7.387,2.727 -1.162,2.32 -2.593,6.152 -3.069,8.64 -0.849,4.411 2.272,8.688 2.136,13.338 3.771,-1.701 4.89,-2.271 6.646,-5.978 1.848,-3.897 1.831,-7.502 4.054,-11.028 1.993,0.938 4.398,1.174 6.019,2.469 -2.869,5.929 -7.563,20.067 0.365,24.263 0.468,-2.394 2.165,-2.878 3.402,-4.726 1.339,-1.992 1.39,-2.429 2.08,-5.024 1.646,-6.189 1.474,-12.117 8.083,-12.255 -3.349,5.574 -2.44,14.222 -2.684,19.443 1.563,-5.229 1.462,-10.822 3.105,-16.029 1.483,-4.676 5.154,-6.271 7.008,-10.366 -20.854,-0.925 -55.459,-8.935 -58.408,-34.841 -0.715,-6.285 -6.615,-11.98 -10.773,-16.236 -7.164,-7.324 -15.211,-13.806 -23.317,-20.041 -15.357,-11.819 -31.521,-22.389 -47.664,-33.072 -4.805,-3.18 -9.749,-7.316 -15.205,-9.274 -3.493,-1.251 -7.813,-1.557 -11.453,-1.738 -7.874,-0.388 -25.392,1.557 -25.343,-10.707 0.002,-0.487 -0.155,-0.922 -0.504,-1.268 -6.026,3.473 -12.614,13.063 -13.645,20.004 1.946,-3.224 3.269,-7.259 6.313,-9.58 -2.902,6.703 -4.874,13.859 -5.098,21.899 1.458,-1.454 3.351,-1.016 4.896,-1.985 2.287,-1.438 1.536,-0.821 2.57,-3.769 1.446,-4.121 3.277,-7.938 5.115,-11.828 1.438,0.791 2.98,1.275 4.684,1.646 -2.526,6.92 -8.322,15.443 -1.697,20.889 4.069,-4.24 6.195,-5.689 7.693,-11.26 0.456,-1.699 0.958,-6.9 2.282,-7.992 1.354,-1.117 7.26,-0.975 8.142,0.584 0.773,1.371 -2.697,8.168 -2.849,10.135 -0.226,3.002 1.453,6.473 2.82,9.652 2.137,-1.903 4.701,-2.006 7.342,-2.752 0.882,-0.246 2.94,-13.218 3.572,-14.806 0.496,-1.247 6.458,1.106 7.073,2.293 1.146,2.208 -0.896,6.308 -1.527,8.435 -1.652,5.541 0.527,8.365 0.229,13.865 1.598,-0.861 4.014,-2.414 5.326,-3.748 3.023,-3.07 4.009,-12.078 8.634,-12.303 1.575,-0.078 5.738,1.803 7.01,2.551 4.604,2.713 9.235,7.26 13.542,10.67 2.813,2.224 11.542,7.639 11.23,11.502 -0.184,2.299 -4.306,5.396 -4.772,8.131 -0.429,2.498 0.637,7.729 1.753,10.158 1.54,-1.192 3.757,-1.187 5.708,-1.091 -0.365,-0.017 3.895,-8.426 4.962,-9.165 3.958,-2.738 6.537,0.973 10.039,3.967 -2.998,5.885 -5.657,8.459 -5.103,15.5 1.66,0.063 5.781,2.09 6.924,1.729 2.4,-0.757 3.904,-6.491 5.956,-8.232 2.171,1.65 3.924,4.096 5.871,6.1 -3.762,6.383 -7.235,11.641 -5.251,19.293 1.864,-1.07 4.163,-1.215 6.308,-1.106 0.943,-4.236 2.903,-7.507 7.021,-9.044 0.6,2.832 3.761,6.574 3.778,9.138 0.022,2.637 -2.679,4.676 -4.104,6.883 -4.8,7.416 -2.843,10.049 -2.16,18.488 1.979,-2.615 5.651,-1.929 7.885,-3.871 1.847,-1.607 3.202,-7.834 4.958,-10.166" />
      <path
         style="fill:#d60400"
         inkscape:connector-curvature="0"
         d="m 358.92,241.438 c 3.732,-0.052 6.356,1.315 9.511,3.144 0.473,0.274 7.477,4.942 7.637,4 0.211,-1.229 -0.266,-1.954 -0.762,-2.998 -0.447,-0.94 -0.896,-2.74 -1.335,-3.454 -1.118,-1.814 -3.433,-2.249 -4.808,-3.779 -1.243,-1.381 -1.089,-3 -1.836,-4.568 1.184,-0.059 2.249,0.354 3.401,0.525 1.282,0.189 2.689,0.244 3.987,0.233 0.379,-0.004 1.046,-0.597 1.377,-0.554 3.842,0.509 5.342,5.525 9.188,6.214 2.398,0.426 4.073,-1.004 5.898,-2.099 3.898,-2.341 6.953,-1.61 11.076,-2.236 -1.985,-0.858 -3.405,-2.732 -5.399,-3.758 -3.228,-1.662 -7.331,-3.235 -10.979,-3.244 -6.424,-0.018 -12.642,1.984 -18.912,-0.401 -0.628,1.243 -1.86,3.249 -2.949,4.198 -3.222,2.811 -7.479,-0.16 -10.738,-1.303 -3.68,-1.286 -6.348,-3.74 -9.087,-6.625 -3.698,-3.896 -6.864,-8.52 -11.301,-11.646 -3.625,-2.562 -9.051,-3.325 -13.214,-4.755 -3.411,-1.173 -7.411,-3.177 -11.002,-3.481 2.002,1.165 3.228,2.863 5.266,4.015 4.865,2.753 9.207,7.41 10.178,13.044 0.362,2.093 0.93,6.437 0.151,8.257 -2.764,-0.189 -4.313,-3.616 -5.709,-5.607 -1.464,-2.091 -3.367,-4.117 -3.797,-6.695 -3.527,-1.141 -0.525,4.257 -0.049,5.392 -2.677,0.261 -4.226,-4.219 -5.293,-5.973 -1.593,-2.612 -3.198,-5.128 -4.68,-7.825 -1.679,-3.061 -4.515,-9.337 -8.053,-10.241 -1.466,2.633 1.479,7.093 1.663,9.875 0.192,2.95 -0.618,6.445 -2.014,9.042 -3.503,6.534 -9.117,3.396 -12.505,-1.529 -2.958,-4.299 -4.098,-9.922 -3.413,-15.145 0.369,-2.82 0.586,-15.283 -4.747,-6.882 -1.854,2.92 -0.691,10.439 -6.828,7.49 -3.072,-1.475 -1.612,-9.675 -2.829,-12.131 -2.563,-5.165 -4.996,-0.705 -7.036,4.466 -2.542,6.445 -2.693,13.821 -2.213,20.631 9.733,0.762 12.904,10.564 18.486,16.447 -0.3,-5.344 -3.237,-10.676 -1.526,-16.123 3.982,4.166 4.378,12.537 6.871,17.781 2.291,4.813 5.051,8.221 8.505,12.084 6.685,7.477 20.544,16.549 31.42,11.657 -6.667,-1.362 -10.772,-6.948 -15.049,-11.713 -3.441,-3.833 -12.65,-9.231 -10.698,-15.642 0.771,-2.532 3.225,0.059 4.938,-3.405 1.202,-2.424 -0.237,-10.736 3.335,-11.567 1.215,-0.283 7.367,5.281 8.422,6.188 3.253,2.806 3.926,4.207 5.679,8.093 3.063,6.785 9.441,19.934 18.513,20.018 -6.188,-0.06 -10.38,-16.967 -2.548,-18.828 8.567,-2.035 14.402,7.516 21.223,10.705 1.508,0.708 3.048,0.728 4.584,0.708 z"
         id="path24772" />
      <path
         style="fill:#8c8c8c;stroke:#000000;stroke-width:1.08019996"
         inkscape:connector-curvature="0"
         d="m 180.235,140.751 c -1.242,-2.368 -2.793,-4.589 -4.641,-6.604 -2.152,-2.344 -5.305,-3.508 -7.063,-5.771 -2.597,-3.345 -3.824,-6.209 -7.209,-9.018 -1.148,-0.955 -7.402,-5.854 -7.713,-2.26 -2.813,-3.585 -4.882,-6.64 -8.938,-8.904 -2.135,-1.191 -11.202,-3.271 -7.857,1.703 -2.789,-2.299 -5.629,-6.798 -8.816,-8.294 -4.534,-2.131 -9.303,2.104 -13.911,0.48 -1.509,-0.532 -2.733,-0.988 -3.98,-1.173 -1.295,-0.192 -2.616,-0.091 -4.312,0.525 -6.148,2.236 -12.6,2.994 -18.54,5.978 0.954,-0.06 2.118,0.145 2.958,0.702 -1.646,1.126 -6.262,3.294 -6.22,5.771 0.06,3.464 11.122,2.354 12.891,5.112 1.271,1.985 1.289,6.349 -1.384,6.851 2.086,2.444 6.693,-1.935 6.769,-4.285 2.171,1.599 3.424,3.512 5.311,5.434 2.597,2.646 5.217,3.554 8.567,4.646 -2.402,-0.785 -3.753,-3.29 -4.223,-5.713 0.188,0.967 5.761,3.085 6.877,3.705 2.792,1.545 5.692,2.773 7.696,5.387 3.8,4.957 4.916,11.522 9.575,15.901 -0.766,-2.112 -2.048,-3.42 -2.551,-5.643 -0.568,-2.515 -0.287,-5.118 0.422,-7.562 -0.207,0.709 6.688,8.889 7.631,9.806 0.392,-1.701 1,-3.253 0.943,-5.038 -0.401,4.354 0.649,9.659 1.438,13.935 0.384,2.094 1.249,4.263 2.304,6.104 0.521,0.91 3.827,3.934 3.847,4.597 -0.102,-3.496 -0.349,-8.287 0.695,-11.651 0.207,1.312 0.703,2.589 1.16,3.847 1.074,-0.942 1.843,-2.777 2.458,-4.187 -1.573,3.605 3.229,11.683 5.06,14.52 -1.422,-2.206 1.02,-5.2 1.426,-7.331 -0.649,3.402 1.738,9.239 2.658,12.52 0.874,3.11 0.729,6.128 1.333,9.271 0.231,1.193 4.693,-5.132 4.904,-6.006 0.315,4.047 2.652,7.348 5.863,9.681 1.542,1.12 7.408,4.416 6.182,7.181 2.019,-4.548 3.762,-9.906 3.519,-15.131 -0.207,-4.482 -2.926,-8.485 -2.904,-13.086 0.018,-3.976 1.588,-7.645 1.466,-11.738 -0.148,-5.007 -1.396,-9.886 -3.691,-14.262 z"
         id="path24774" />
      <path
         style="fill:#108ece;stroke:#313030;stroke-width:1.08019996"
         inkscape:connector-curvature="0"
         d="m 250.525,257.623 c 1.156,-1.123 0.452,-1.729 0.374,-3.249 -0.146,-2.781 -0.378,-5.558 0.078,-8.199 1.6,-9.239 1.24,-19.067 2.354,-28.534 1.16,-9.863 2.357,-19.693 3.6,-29.527 0.54,-4.28 1.583,-8.427 2.329,-12.656 0.619,-3.51 1.807,-7.171 2.018,-10.74 0.385,-6.548 -0.933,-13.418 1.225,-19.801 2.658,-7.867 16.671,-4.618 22.624,-4.321 2.827,0.141 7.207,0.754 8.914,-2.105 2.861,-4.802 -3.758,-10.06 -6.458,-13.219 -1.992,-2.323 -2.729,-4.304 -3.688,-7.069 -1.263,-3.646 -3.151,-6.635 -4.318,-10.331 -1.347,-4.266 -3.905,-8.036 -5.291,-12.282 -0.972,-2.971 -1.411,-6.785 -4.273,-8.651 -2.76,-1.798 -8.118,-1.799 -11.176,-2.088 -6.994,-0.661 -15.225,0.302 -21.979,2.196 -8.476,2.378 -16.857,4.218 -24.044,9.579 -0.048,-0.211 -0.095,-0.422 -0.143,-0.633 -8.09,3.864 -13.957,11.158 -18.374,18.654 -2.493,4.228 -4.982,8.921 -7.129,13.347 -1.617,3.339 -3.317,6.926 -4.602,10.442 -1.151,3.161 -2.813,6.023 -0.438,8.643 2.405,2.658 7.674,4.577 11.072,5.488 2.671,0.716 6.088,0.908 7.56,3.848 1.204,2.41 0.677,6.916 -0.333,9.295 -1.505,3.537 -3.15,7.452 -5.682,10.156 -0.793,0.85 -1.743,1.538 -2.48,2.436 0.038,-0.497 -0.152,-1.154 -0.118,-1.654 -2.563,0.808 -3.183,5.259 -5.309,7.083 0.254,-0.986 0.976,-1.903 1.371,-2.794 -3.111,3.524 -4.197,8.282 -9.986,7.961 -0.123,4.588 -3.633,5.01 -4.797,8.92 -0.245,-0.215 -1.063,-0.439 -1.309,-0.656 -0.785,1.852 -2.327,2.452 -3.329,3.905 -1.207,1.749 -1.131,3.563 -2.231,5.45 -2.626,4.487 -6.479,8 -9.363,12.274 -2.426,3.595 -1.586,9.641 0.163,13.611 1.544,3.505 3.72,6.818 6.403,9.453 4.117,4.041 8.944,6.137 14.32,7.838 3.882,1.232 6.878,3.721 9.906,6.103 2.856,2.243 6.301,2.088 9.345,3.871 4.352,2.546 8.97,5.576 14.054,6.26 4.844,0.647 10.667,-1.071 15.389,-2.129 4.744,-1.062 9.604,-1.837 14.276,-3.253 2.21,-0.671 7.826,-1.318 9.475,-2.922 z"
         id="path24776" />
      <path
         style="fill:#5d10d2;stroke:#000000;stroke-width:1.08019996"
         inkscape:connector-curvature="0"
         d="m 170.423,238.007 c -0.195,-0.021 -0.388,-0.036 -0.575,-0.042 -2.327,-0.072 -3.417,1.803 -4.889,3.332 -0.982,1.025 -2.406,2.027 -2.986,3.371 -0.556,1.278 0.211,1.741 0.091,2.637 -0.022,0.187 -0.235,0.215 -0.191,0.403 0.681,0.962 1.753,1.61 2.271,2.694 0.51,1.063 0.084,2.246 0.899,3.253 1.843,2.268 4.892,1.057 7.141,2.298 2.243,1.236 4.682,4.646 7.386,4.675 0.947,0.011 1.688,-0.724 2.604,-0.844 1.625,-0.213 2.97,0.606 4.52,0.926 1.347,-2.658 2.405,-5.317 3.498,-8.074 1.687,-4.247 1.689,-8.368 -3.287,-9.799 -5.268,-1.516 -11.068,-4.208 -16.482,-4.83 z"
         id="path24778" />
      <path
         inkscape:connector-curvature="0"
         d="m 112.432,304.895 36.447,8.836 c 0,0 3.208,0.521 5.654,-4.86 l 4.337,-14.563 c 0,0 26.571,-32.979 26.583,-32.993 0.685,-0.853 -11.182,-7.953 -12.238,-8.573 -0.595,-0.351 -10.742,-5.236 -10.971,-4.156 -1.568,7.504 -4.354,14.604 -7.705,21.449 -3.807,7.778 -10.145,19.011 -17.191,24.222 -2.94,2.178 -7.143,2.119 -10.627,1.869 -3.451,-0.248 -6.903,-0.029 -10.358,-0.355 -0.001,-0.001 -10.131,5.671 -3.931,9.124 z"
         id="path24780" />
      <path
         style="fill:#3f3f3f"
         inkscape:connector-curvature="0"
         d="m 144.647,285.908 c -0.339,0.204 -0.731,0.354 -1.188,0.438 -1.38,0.238 -2.858,-0.959 -4.34,-0.114 -1.134,0.646 -1.861,3.012 -2.367,4.063 4.526,3.363 -1.125,8.383 -3.177,11.436 -2.132,3.17 -4.26,6.334 -6.389,9.502 l 8.643,5.4 c 1.538,-3.572 3.075,-7.146 4.615,-10.719 0.856,-1.99 1.262,-5.996 3.051,-7.369 0.908,-0.695 1.962,-0.676 2.96,-1.107 2.689,-1.166 2.615,-3.521 5.626,-1.479 2.161,1.469 3.191,3.818 5.107,5.352 0.036,-0.567 0.496,-1.094 0.596,-1.571 1.213,0.331 1.521,1.448 2.162,2.391 0.949,1.396 2.058,2.488 3.265,3.697 -0.655,-1.894 -1.479,-3.738 -2.179,-5.586 -1.921,-5.064 -8.507,-5.271 -10.974,-9.228 -1.474,-2.359 -0.349,-6.846 0.026,-9.352 1.092,-7.307 3.167,-14.38 4.858,-21.553 -0.435,-0.26 -1.249,-0.399 -1.7,-0.361 -2.058,5.637 -4.291,12.287 -5.745,18.211 -0.683,2.795 -0.635,6.598 -2.85,7.949 z m -1.245,9.418 c -1.737,0 -3.144,-1.486 -3.144,-3.32 0,-1.83 1.404,-3.313 3.144,-3.313 1.734,0 3.145,1.483 3.145,3.313 -0.002,1.834 -1.41,3.32 -3.145,3.32 z"
         id="path24782" />
      <path
         style="fill:#108ece;stroke:#313030;stroke-width:1.08019996"
         inkscape:connector-curvature="0"
         d="m 171.686,201.099 c -2.991,3.167 -5.929,6.051 -8.771,9.274 -2.924,3.316 -5.583,6.611 -7.072,10.907 -0.982,2.831 -0.104,4.874 0.358,7.793 -0.351,-1.776 -0.991,-4.854 0.635,-5.981 3.227,5.375 4.243,12.272 9.529,16.434 1.836,1.447 4.416,1.738 6.749,2.627 4.423,1.688 10.689,2.875 14.152,6.367 2.617,2.645 4.113,6.027 7.454,8.107 1.852,1.154 4.195,1.711 6.121,2.434 1.912,0.713 3.592,2.109 5.401,2.797 2.079,0.793 4.583,0.451 6.829,0.451 7.51,0 15.417,-0.966 22.7,-2.783 5.967,-1.486 10.183,-2.082 12.93,4.078 -2.027,0.1 -4.797,-0.277 -6.805,0.504"
         id="path24784" />
      <path
         style="fill:#108ece;stroke:#313030;stroke-width:1.08019996"
         inkscape:connector-curvature="0"
         d="m 205.08,127.018 c 0.208,-0.799 -0.467,1.9 -0.544,2.181 -0.163,0.565 -0.345,1.477 -0.474,1.852 -0.637,-1.858 -1.313,-3.565 -1.695,-5.536 -0.06,3.875 2.125,7.505 2.384,11.165 0.26,3.675 -0.929,8.181 -1.267,11.812 -2.668,1.226 -3,0.872 -5.637,-0.344 -2.044,-0.943 -4.351,-2.354 -6.554,-2.847 -3.282,-0.736 -6.593,0.644 -9.884,0.608 0.602,0.316 1.042,0.819 1.699,1.086 -0.103,0.267 -0.513,1.041 -0.715,1.26 -1.111,-2.33 -2.511,-1.813 -1.813,-4.495 2.263,-8.723 7.866,-16.055 10.871,-24.456 2.42,-6.768 6.896,-13.011 12.173,-17.843 2.204,-2.019 4.534,-4.254 7.272,-5.462 3.096,-1.366 6.845,-1.028 9.574,-3.277"
         id="path24786" />
      <path
         style="fill:#156584"
         inkscape:connector-curvature="0"
         d="m 200.637,163.511 c 2.063,-4.745 3.083,-9.653 3.453,-15.682 0.172,-2.788 -0.135,-8.806 1.354,-11.196 2.415,-3.886 7.478,2.604 10.854,0.094 2.606,-1.94 0.576,-4.316 1.103,-6.559 0.146,-0.628 0.887,-1.104 1.006,-1.532 0.365,-1.293 0.443,-1.548 0.531,-3.116 0.243,-4.345 1.599,-8.961 0.667,-13.292 -0.454,-2.108 -1.616,-3.48 -1.185,-5.801 0.482,-2.595 3.118,-6.139 4.656,-8.257 4.824,-6.65 13.32,-9.456 21.352,-9.777 2.077,-0.083 5.981,-0.88 6.854,1.429 0.819,2.175 -2.463,3.787 -2.132,6.111 1.843,-0.983 4.694,-1.95 5.72,0.006 1.153,2.205 0.364,8.6 0.354,11.131 -0.056,11.003 4.604,22.092 5.868,33.067 1.407,0.031 3.554,-0.124 4.874,-0.766 -0.211,-0.055 -1.277,-0.563 -2.031,-0.669 2.229,-5.818 8.854,-8.906 15.064,-8.533 2.273,0.137 13.038,1.94 12.313,5.795 -0.424,2.252 -13.673,4.171 -15.931,4.301 -6.021,0.346 -9.742,-2.688 -13.376,3.542 3.278,-5.621 -3.5,-15.653 -7.117,-19.508 -5.674,-6.045 -12.823,-3.519 -19.35,0.78 0.287,0.105 0.606,0.361 0.916,0.479 -0.521,4.741 -1.397,7.73 0.502,12.561 1.269,3.227 2.894,5.485 4.934,8.224 2.862,3.842 6.233,8.016 8.34,12.276 1.704,3.446 1.775,7.673 2.502,11.419 -3.056,-5.072 -6.707,-12.357 -12.218,-15.035 -3.969,-1.929 -5.518,1.157 -8.031,4.461 -3.323,4.365 -8.293,9.439 -7.504,15.61 0.76,5.944 10.938,0.415 14.377,-0.959 -0.563,4.086 -5.648,7.438 -7.835,10.77 -2.509,3.823 -4.466,8.134 -6.88,12.132 -2.455,4.063 -5.669,7.958 -7.548,12.321 -0.907,2.116 -1.279,3.481 -2.522,5.38 -5.485,8.398 -2.813,17.485 -0.463,26.374 0.429,1.618 2.235,19.209 3.539,19.027 -3.476,0.481 -6.24,-5.747 -7.173,-8.253 -1.098,-2.954 -2.615,-5.313 -3.854,-8.178 -2.422,3.748 -4.409,9.06 -5.128,13.478 -1.396,-1.147 -2.645,0.038 -4.26,-0.24 -0.844,-0.144 -1.964,-1.021 -2.709,-1.45 2.106,-3.857 4.305,-7.613 5.869,-11.953 0.884,-2.459 1.764,-7.041 1.205,-9.645 -0.491,-2.277 -2.789,-4.146 -3.916,-6.122 -2.46,-4.313 -4.425,-8.625 -4.76,-13.532 -0.378,-5.553 -0.438,-11.123 -0.792,-16.68 -0.324,-5.131 -3.182,-4.54 -7.802,-3.694 0.24,-0.45 0.278,-1.065 0.733,-1.618 -3.189,1.578 -6.002,3.907 -8.966,5.975 3.324,-3.586 6.877,-7.19 9.709,-11.16 2.331,-3.266 4.181,-7.08 6.422,-10.153 1.205,-1.65 2.428,-3.284 3.6,-4.959 2.021,-2.881 3.596,-5.624 4.812,-8.424 z"
         id="path24788" />
      <linearGradient
         id="linearGradient25480"
         gradientUnits="userSpaceOnUse"
         x1="221.047"
         y1="379.73511"
         x2="240.76131"
         y2="411.06201"
         gradientTransform="translate(0.0752,-286.9102)">
        <stop
           offset="0.0056"
           style="stop-color:#C8763D"
           id="stop25476" />
        <stop
           offset="1"
           style="stop-color:#F3F048"
           id="stop25478" />
      </linearGradient>
      <path
         style="fill:url(#XMLID_8_-8)"
         inkscape:connector-curvature="0"
         d="m 213.719,95.975 c 5.262,-2.02 9.922,-5.346 15.323,-7.121 2.268,-0.747 7.299,-2.574 8.437,0.763 0.955,2.802 -2.793,7.612 -3.896,9.992 -0.352,0.757 -3.147,10.77 -4.089,10.067 2.453,1.831 2.494,7.224 1.244,9.786 -0.967,1.986 -1.278,0.56 -0.477,2.966 0.759,2.286 1.245,4.9 0.812,7.301 -0.315,1.748 -1.759,3.806 -1.703,5.563 -0.095,-2.966 -0.845,-5.519 -1.81,-8.274 -0.357,-1.018 -0.84,-1.749 -0.62,-2.906 0.188,-1.005 1.257,-1.771 0.969,-2.838 -0.117,-0.432 -1.902,-2.243 -2.302,-2.813 -1.187,-1.697 -4.752,-5.057 -2.3,-7.052 -2.413,-1.479 -5.604,-1.132 -8.146,-2.503 -3.116,-1.684 -5.827,-4.272 -6.425,-7.884 -0.615,-3.731 2.134,-3.953 4.983,-5.047 z"
         id="path24795" />
      <path
         style="fill:none;stroke:#130f6d;stroke-width:2.16030002;stroke-linecap:round"
         inkscape:connector-curvature="0"
         d="m 225.333,122.427 c 1.477,-1.5 4.82,-2.017 6.752,-1.35"
         id="path24797" />
      <path
         style="fill:none;stroke:#130f6d;stroke-width:2.16030002;stroke-linecap:round"
         inkscape:connector-curvature="0"
         d="m 232.085,109.735 c -3.578,0 -7.282,1.294 -10.262,3.241"
         id="path24799" />
      <path
         style="fill:#ff0008;stroke:#313030;stroke-width:1.08019996"
         inkscape:connector-curvature="0"
         d="m 225.095,135.736 c -0.362,-5.537 -1.488,-10.698 -0.959,-16.269 0.597,-6.288 1.088,-12.883 2.157,-19.112 0.313,-1.804 0.084,-4.642 2.103,-4.862 1.648,-0.179 3.337,1.28 4.608,2.106 1.613,1.049 2.989,1.747 4.885,2.353 4.484,1.437 9.315,1.835 14,1.487 2.773,-0.206 5.473,-1.149 7.824,-2.633 2.875,-1.813 4.289,-4.383 5.881,-7.358 1.564,-2.924 2.684,-5.173 5.69,-3.276 -0.038,-0.89 0.533,-2.146 0.254,-2.934 -0.348,-0.979 -0.96,-0.827 -1.616,-1.547 -3.606,-3.958 -5.798,-3.201 -10.744,-3.572 -5.736,-0.429 -11.548,-2.74 -17.28,-2.712 -2.362,0.012 -3.651,1.684 -5.461,2.97 -1.853,1.317 -3.272,1.944 -5.342,2.904 -4.695,2.171 -10.16,4.138 -14.588,6.869 -2.563,1.581 -5.425,3.374 -8.366,3.939 -4.357,0.836 -6.438,4.064 -8.566,7.829 -2.374,4.193 -3.239,8.808 -5.685,12.977 -2.116,3.609 -4.729,7.597 -5.978,11.617 5.944,-0.542 8.195,9.581 10.434,13.536 1.938,3.425 3.58,2.997 6.824,2.168 3.637,-0.93 8.896,-1.477 9.22,3.434 0.202,3.04 -1.449,6.572 -2.685,9.283 -1.15,2.524 -2.432,5.003 -3.502,7.561 -0.85,2.017 -1.034,4.07 -1.911,6.075 -2.236,5.11 -4.629,9.911 -5.348,15.503 -0.438,3.402 -0.922,6.854 -1.197,10.233 -0.182,2.251 -0.115,4.527 -0.322,6.793 -1.007,11.001 -0.065,23.274 6.622,32.405 4.098,5.597 4.279,12.587 6.752,18.886 1.479,3.767 3.408,7.11 5.872,10.254 2.546,3.237 5.982,5.502 8.748,8.494 3.117,3.377 6.328,6.84 10.216,9.342 2.703,1.738 5.806,6.057 9.446,5.645 1.936,-1.328 1.62,-5.127 2.309,-7.271 0.729,-2.264 2.936,-3.739 5.469,-2.968 2.109,0.642 3.683,4.79 4.592,6.741 1.564,3.361 3.195,6.689 6.464,8.701 2.972,1.826 6.648,2.076 10.009,2.654 3.6,0.619 8.479,-0.75 11.648,-2.578 -4.808,1.789 -7.281,-4.301 -8.655,-7.607 -2.223,-5.357 -5.008,-10.468 -7.313,-15.791 -2.479,-5.724 -5.018,-11.335 -8.311,-16.635 -3.775,-6.076 -7.938,-11.667 -12.434,-17.27 -3.693,-4.61 -7.971,-8.481 -12.427,-12.321 -4.537,-3.907 -8.271,-8.351 -10.24,-14.211 -2.842,-8.456 -4.85,-16.762 -4.399,-25.713 0.271,-5.387 1.309,-10.569 1.459,-15.916 0.167,-5.858 0.812,-11.688 0.567,-17.556 -0.175,-4.22 -0.449,-8.433 -0.724,-12.647 z"
         id="path24801" />
      <path
         style="fill:#d60400"
         inkscape:connector-curvature="0"
         d="m 218.907,154.668 c 4.918,3.432 3.159,18.205 2.577,23.435 -0.926,8.317 -3.637,16.297 -4.711,24.565 -1.851,14.236 -0.799,28.9 11.937,37.865 3.955,2.785 10.776,2.842 11.521,7.544 0.691,4.384 -3.031,11.409 -2.718,16.724 0.32,5.414 0.627,13.43 4.858,17.479 5.781,5.527 6.313,-1.885 6.053,-7.288 1.193,0.177 2.718,-0.431 3.958,-0.074 -1.794,-0.515 -7.423,-5.812 -8.691,-7.612 -1.601,-2.271 -2.662,-6.718 -2.151,-9.469 4.346,0.502 7.979,8.764 10.731,11.835 2.504,2.795 4.563,4.937 6.336,8.063 1.782,3.143 2.675,7.547 5.142,10.184 1.604,1.711 7.167,5.111 9.613,3.924 4.214,-2.045 -4.741,-8.533 -6.357,-11.039 -4.625,-7.173 -9.507,-15.602 -12.189,-23.722 -0.817,-2.479 -1.253,-3.306 -2.54,-5.095 -1.04,-1.445 -2.831,-2.454 -3.386,-4.469 -1.263,-4.576 2.229,-6.613 5.906,-3.166 -5.878,-9.586 -16.476,-15.834 -22.963,-24.756 0.367,0.842 0.188,1.692 0.374,2.456 -8.747,0.354 -12.4,-14.451 -12.394,-20.991 0.021,-13.448 4.661,-26.673 3.439,-40.365 -1.1,-12.34 -4.215,-24.35 -4.106,-37.103 -0.021,2.521 -0.202,5.604 -1.187,7.939 -1.366,-0.205 -2.202,-1.939 -2.469,-3.141 0.961,4.346 -3.089,7.436 -7.062,7.572 9.541,-0.327 7.931,13.556 5.965,18.68 -2.821,7.349 -7.209,13.974 -10.064,21.284 -2.546,6.521 -2.48,12.82 -2.827,19.745 -0.355,7.097 -0.722,14.836 0.512,21.838 0.649,3.688 1.688,7.345 3.464,10.658 0.51,0.952 6.729,8.233 6.762,8.129 -0.887,2.705 -1.011,8.713 1.7,10.207 0.441,0.243 0.993,-1.144 1.175,-1.05 0.648,0.333 2.847,1.128 3.634,1.377 3.876,1.225 6.489,2.02 10.676,1.673 -2.385,-2.901 -5.969,-5.249 -9.057,-7.478 -0.854,-0.615 -3.979,-2.336 -4.466,-3.229 -0.695,-1.278 0.205,-2.31 -0.334,-3.253 -4.204,-7.355 -9.769,-11.42 -11.496,-20.084 -1.791,-8.968 -1.291,-17.454 0.565,-26.403 0.525,-2.517 13.016,-34.263 14.27,-33.389 z"
         id="path24803" />
      <path
         style="fill:#d60400"
         inkscape:connector-curvature="0"
         d="m 195.248,118.616 c -3.54,6.328 0.769,9.008 4.492,14.394 -1.855,-4.347 -7.158,-13.541 -0.685,-17.602 0.155,1.921 1.113,3.633 2.753,4.676 -3.852,-2.454 1.091,-15.443 4.016,-13.027 0.306,6.254 2.687,13.477 6.789,18.36 -2.28,-7.192 -0.479,-22.16 6.174,-27.025 3.988,3.549 4.32,15.455 3.216,20.435 2.098,-7.406 -0.094,-20.026 4.455,-26.242 1.021,-1.395 14.367,6.344 15.916,6.711 4.5,1.065 9.014,0.775 13.514,-0.542 3.511,-1.029 6.135,-3.162 8.03,-6.254 0.741,-1.208 3.143,-8.621 5.683,-6.697 -1.478,-1.118 -2.929,-4.619 -5.322,-3.467 -0.908,5.027 -2.854,10.444 -7.716,13.058 -4.143,2.228 -10.725,2.53 -14.958,0.396 -1.986,-1.002 -4.349,-2.772 -4.502,-5.245 -0.251,-4.021 3.76,-4.29 6.323,-6.494 -1.85,-3.228 4.488,-4.38 6.791,-5.004 -6.676,-0.583 -13.738,2.137 -19.175,6.06 -6.821,4.924 -13.124,8.799 -21.07,10.814 -7.924,2.01 -11.234,16.453 -14.724,22.695 z"
         id="path24805" />
      <path
         style="fill:none;stroke:#313030;stroke-width:1.08019996"
         inkscape:connector-curvature="0"
         d="m 224.552,154.624 c 2.5,4.376 0.138,14.5 -0.345,19.753 -0.688,7.515 -3.73,15.009 -5.96,22.178 -1.753,5.647 -2.317,11.168 -2.336,17.067 -0.024,9.249 4.935,21.133 12.284,26.835 3.552,2.751 11.097,2.691 12.561,6.869 1.801,5.133 -3.279,12.722 -3.322,18.236 -0.044,5.776 0.713,14.254 5.84,17.963"
         id="path24807" />
      <path
         style="fill:#08f7ff;stroke:#000000;stroke-width:1.08019996"
         inkscape:connector-curvature="0"
         d="m 200.377,150.151 c 0.669,-0.958 1.058,-2.152 0.996,-3.629 -0.171,-4.043 -9.062,-6.088 -12.436,-5.751 -1.233,0.124 -3.86,0.518 -4.671,1.627 -0.178,0.242 -0.337,1.838 -0.458,2.227 -1.614,5.255 -4.722,9.9 -6.251,15.251 -2.733,9.559 -1.313,21.794 11.627,18.015 6.522,-1.906 12.187,-9.104 16.757,-13.575 3.854,-3.77 3.922,-3.791 3.95,-8.444 0.016,-2.619 -0.46,-6.52 -0.669,-9.429 -1.536,-0.594 -6.701,3.481 -8.006,4.265 -4.007,2.402 -8.676,3.435 -12.65,5.9 2.522,-1.322 4.873,-2.718 7.602,-3.613 1.643,-0.538 3.226,-1.435 4.209,-2.844 z"
         id="path24809" />
      <path
         style="fill:#f56d4c;stroke:#000000;stroke-width:1.08019996"
         inkscape:connector-curvature="0"
         d="m 223.747,134.877 c 2.567,0.511 4.46,3.049 5.61,5.258 -0.637,-0.45 -1.154,-1.26 -1.348,-2.012 1.275,-0.106 3.946,-0.542 4.307,1.019 0.364,1.591 -1.954,2.641 -2.68,1.804 1.606,1.071 3.604,3.918 1.86,5.617 -1.968,-1.182 -2.717,-3.643 -4.224,-5.298 1.149,1.264 5.57,6.675 3.894,8.361 -1.793,1.804 -5.498,-4.837 -5.924,-5.81 1.086,1.275 6.3,7.017 4.032,8.51 -2.353,1.552 -5.424,-5.343 -5.909,-6.613 1.07,2.162 3.157,3.724 4.034,6.012 1.207,3.143 -0.595,3.42 -3.256,4.227 -3.428,1.039 -4.563,-0.177 -7.142,-2.017 1.47,-0.981 3.865,-0.744 5.08,-0.744 -2.404,-0.021 -2.697,-0.045 -3.486,-2.376 -0.521,-1.543 -1.018,-3.384 -0.188,-4.952 -0.364,1.406 -0.175,3.479 -1.951,3.825 1.658,0.602 1.589,1.887 0.938,3.233 -0.494,1.023 -1.045,0.782 -1.231,1.884 -0.245,1.438 1.364,3.254 -0.914,3.808 -1.039,0.253 -4.084,-0.628 -4.897,-1.282 -2.034,-1.628 -2.364,-6.058 -1.744,-8.378 0.869,-3.262 3.498,-5.428 5.813,-7.702 2.076,-2.041 4.592,-5.999 7.733,-6.421 0.558,-0.074 1.089,-0.053 1.593,0.047 z"
         id="path24811" />
      <path
         style="fill:#313030"
         inkscape:connector-curvature="0"
         d="m 170.033,298.147 c 4.504,-6.073 7.958,-12.684 12.346,-18.796 0.982,-1.369 1.854,-2.836 2.761,-4.254 -1.674,0.914 -5.614,-0.869 -4.317,-3.207 -1.453,2.62 -3.402,4.775 -5.108,7.195 -1.98,2.809 -4.187,5.455 -6.027,8.357 -2.215,3.492 -3.767,7.356 -5.958,10.86 1.32,1.037 3.102,1.294 4.295,2.421 0.695,-0.842 1.363,-1.703 2.008,-2.576 z"
         id="path24813" />
      <path
         inkscape:connector-curvature="0"
         d="m 99.246,148.059 c 1.74,0.129 0.86,-2.437 0.771,-3.424 -0.098,-1.063 0.036,-2.403 -0.089,-3.555 -0.403,1.294 -3.918,6.737 -0.682,6.979 z"
         id="path24815" />
      <path
         style="fill:#666666"
         inkscape:connector-curvature="0"
         d="m 143.551,139.786 c 0.017,0.198 0.033,0.394 0.05,0.586 0.185,2.419 0.004,4.648 0,7.065 0,1.77 0.388,3.833 0.713,5.569 0.654,3.508 2.389,7.002 4.484,9.867 -1.133,-2.924 -1.061,-5.672 -1.061,-8.784 0,-2.035 0.463,-4.922 -0.557,-6.776 0.555,1.142 0.517,2.748 1.059,3.709 -0.662,-1.176 1.14,-0.834 1.523,-0.657 0.675,0.311 0.966,0.763 1.287,1.417 0.551,1.118 0.479,3.051 1.32,3.919 1.084,-1.334 2.474,-3.606 2.744,-5.322 0.425,0.632 1.045,1.828 1.13,2.599 0.084,0.78 -0.46,1.995 -0.625,2.922 -0.516,2.951 0.928,7.322 3.064,9.342 0.153,-1.92 -0.251,-4.227 0.349,-6.048 1.188,1.728 2.319,-1.606 2.617,-2.4 0.916,-2.438 0.871,-4.767 0.847,-7.337 0.396,1.994 0.573,3.998 0.544,6.042 -0.024,1.655 -0.695,2.987 -0.867,4.49 0.201,-0.301 0.476,-0.457 0.665,-0.655 -0.06,1.201 -0.629,2.35 -0.695,3.621 -0.08,1.5 0.146,2.798 0.54,4.237 0.769,2.806 1.569,8.083 3.928,9.957 0.094,-1.25 1.063,-2.554 1.481,-3.745 0.444,-1.271 0.817,-2.641 1.075,-3.956 -0.024,1.865 -0.484,3.875 -0.333,5.689 0,0.03 3.098,-0.989 3.394,-1.244 0.391,-0.334 0.526,-1.103 0.996,-1.29 0.367,-0.146 0.966,0.372 1.245,0.21 1.668,-0.972 0.024,-6.042 0.135,-7.768 0.215,-3.35 1.428,-6.99 2.832,-10.039 0.979,-2.125 3.249,-4.615 2.896,-7.034 -0.231,-1.578 -2.098,-3.026 -0.925,-4.818 -0.393,0.599 -7.299,-9.624 -8.262,-9.782 -0.839,-0.133 -0.689,1.063 -0.729,1.451 -0.431,4.178 1.071,8.396 -0.313,12.594 -0.309,-3.043 -0.046,-5.988 -0.76,-9.02 -0.509,-2.172 -1.343,-4.728 -1.04,-6.965 0.075,-0.004 0.131,0.026 0.167,0.091 -0.901,-0.809 -1.614,-1.694 -2.338,-2.681 -0.089,1.221 -0.194,2.234 -0.034,3.428 0.173,1.292 -0.24,2.463 -0.142,3.646 0.171,2.005 1.218,3.956 0.951,6.013 -0.407,3.153 -3.827,2.156 -5.836,0.942 -0.151,0.719 -0.539,0.941 -1.046,0.375 -0.242,1.796 0.287,3.605 0.325,5.405 -3.426,-9.028 -3.994,-18.77 -5.771,-28.162 -0.231,3.691 0.709,7.812 1.042,11.505 0.253,2.805 0.526,5.857 -0.004,8.643 -0.149,0.786 -0.365,2.161 -0.86,2.688 -0.396,-0.832 -0.498,-2.267 -0.712,-3.282 -0.555,-2.639 -1.448,-5.307 -1.824,-7.969 0.695,2.962 0.557,6.203 0.562,9.232 0.002,2.35 0.064,5.156 -0.767,7.342 -1.049,-2.445 -2.872,-4.776 -3.37,-7.462 -0.46,1.325 0.038,2.991 -0.59,4.26 -0.625,-0.784 -0.363,-1.826 -0.538,-2.722 -0.225,-1.135 -0.715,-2.236 -1.024,-3.354 -0.678,-2.436 -1.132,-4.926 -1.554,-7.416 -0.82,-4.844 -1.458,-9.785 -3.231,-14.399 -1.147,-2.984 -2.629,-5.768 -4.058,-8.581 0.034,1.244 0.118,1.731 0.72,2.777 1.165,2.028 1.462,4.181 1.669,6.538 0.151,1.747 0.231,3.576 0.14,5.353 -0.056,1.06 0.075,2.951 -0.321,3.8 -0.759,-5.997 -3.85,-11.888 -7.369,-16.727 -0.997,-1.37 -2.229,-2.49 -3.295,-3.767 -1.022,-1.225 -1.906,-2.902 -2.938,-4.004 -0.595,-0.637 -1.03,-0.745 -1.962,-0.725 -0.195,0.004 -1.902,0.479 -1.86,0.504 1.245,0.788 1.902,2.048 2.616,3.301 1.233,2.164 3.312,4.945 3.613,7.415 -1.369,-2.346 -2.542,-4.838 -4.269,-6.957 -0.651,-0.803 -1.418,-1.992 -2.251,-2.595 -0.451,-0.326 -1.13,-0.618 -1.7,-0.56 -0.458,0.048 -1.026,0.686 -1.313,0.691 1.976,-0.037 3.851,3.073 4.63,4.563 0.874,1.672 1.209,3.523 1.655,5.33 0.444,1.793 3.111,6.888 -0.242,6.451 -2.426,-0.316 -4.479,-3.014 -5.691,-4.925 -2.354,-3.707 -2.442,-9.857 -6.606,-11.948 2.562,2.084 3.215,4.78 3.944,7.902 0.626,2.678 0.789,5.617 2.685,7.709 -1.906,-1.495 -4.344,-1.803 -6.469,-2.85 -1.427,-0.703 -4.262,-2.903 -4.494,-4.623 0.046,0.349 -0.058,0.806 -0.028,1.18 -1.09,-0.773 -1.845,-2.218 -2.714,-3.204 -1.48,-1.678 -2.751,-3.203 -4.619,-4.488 2.173,2.075 4.224,4.941 5.659,7.764 1.196,2.349 3.233,6.48 3.07,9.172 -3.076,-2.16 -5.878,-5.04 -9.293,-6.83 -0.049,0.508 -0.047,1.054 -0.074,1.556 -2.558,-3.603 -6.68,-5.245 -10.896,-3.717 3.145,0.446 5.548,0.105 8.03,2.528 1.502,1.467 3.544,5.314 1.625,7.301 1.193,-1.234 1.806,-2.731 2.022,-4.408 1.677,-0.072 4.391,1.68 5.687,2.672 1.393,1.066 2.442,2.371 3.3,3.911 0.018,-0.725 -0.16,-1.416 -0.342,-2.096 0.573,0.866 1.653,1 2.653,1.046 -0.45,-2.879 -2.607,-5.76 -2.512,-8.774 0.385,1.54 2.856,2.249 4.138,2.813 3.891,1.713 8.138,2.408 10.82,6.165 1.225,1.708 2.258,4.937 1.456,6.976 1.255,0.59 2.189,3.138 2.818,4.36 0.775,1.516 1.527,3.082 2.213,4.632 0.068,-2.257 -1.905,-4.585 -2.134,-6.782 -0.231,-2.235 0.131,-5.133 -0.101,-7.187 0.925,1.709 1.421,3.63 2.219,5.396 0.929,2.048 2.046,3.814 3.366,5.658 -4.224,-5.483 -1.253,-12.383 -4.239,-18.214 2.267,4.421 3.146,9.729 5.016,14.34 0.751,1.855 1.521,5.17 3.396,6.114 0.205,-1.809 -0.36,-3.881 -0.469,-5.712 -0.12,-1.997 -0.155,-4.861 -1.24,-6.598 0.702,3.282 2.604,6.259 3.071,9.575 0.389,2.734 -0.08,5.363 -0.076,8.088 0.127,-2.604 1.676,-4.835 1.812,-7.516 0.091,-1.827 0.017,-3.699 -0.021,-5.532 0.715,2.412 1.162,5.375 1.396,7.97 z"
         id="path24817" />
      <path
         style="fill:#666666"
         inkscape:connector-curvature="0"
         d="m 323.987,291.162 c -0.069,5.248 -3.42,9.188 -5.896,13.432 1.713,-0.825 2.616,-2.52 4.196,-2.979 -1.23,7.75 -5.422,15.569 -6.29,23.821 -0.913,8.672 0.21,18.414 4.788,25.883 -1.729,-5.436 -0.102,-14.6 3.147,-20.493 2.485,-4.507 5.718,-8.152 7.627,-13.107 1.118,-2.903 1.833,-6.635 2.569,-9.106 0.829,5.039 -1.823,10.176 -3.065,14.934 2.354,-2.24 4.498,-6.836 5.765,-9.531 1.271,6.752 -3.611,13.277 -3.155,19.783 1.726,-2.9 2.498,-6.633 5.906,-7.914 -0.573,2.615 -0.617,4.928 0.742,7.389 0.937,-5.369 3.149,-6.176 6.957,-10.098 3.849,-3.963 5.226,-10.84 6.994,-16 2.694,-7.844 2.647,-15.549 -0.063,-23.381 0.121,7.73 -1.118,19.17 -8.428,23.699 1.092,-2.734 0.776,-5.363 0.229,-8.172 -0.749,2.305 -1.646,5.68 -4.698,5.406 0.764,-4.226 0.416,-7.265 -1.648,-11.119 -2.057,3.235 -5.604,4.483 -7.979,7.36 -2.571,3.119 -6.141,8.854 -6.639,12.894 0.408,-10.189 8.802,-19.67 4.229,-30.139 -1.647,-3.781 -6.943,-9.66 -11.059,-10.207 1.042,1.476 1.937,3.062 2.484,4.748 -1.517,-0.438 -2.888,-0.875 -4.474,-0.914 3.801,2.887 7.83,8.862 7.761,13.811 z"
         id="path24819" />
      <path
         style="fill:#ff0008;stroke:#313030;stroke-width:1.08019996"
         inkscape:connector-curvature="0"
         d="m 109.905,160.789 c 0.61,-4.068 1.604,-8.062 2.583,-12.052 0.58,-2.362 0.154,-6.697 2.813,-7.942 3.057,-1.431 7.804,4.161 8.869,6.732 -0.031,-1.8 0.335,-3.976 -0.352,-5.566 -0.688,-1.598 -2.667,-3.184 -3.97,-4.334 -6.354,-5.608 -24.004,-12.483 -31.231,-4.861 -1.029,1.088 -0.625,4.096 -0.658,5.536 3.229,-3.426 8.769,-3.764 13.151,-3.323 3.432,0.344 6.507,0.81 7.894,4.321 1.233,3.129 -0.031,6.427 -0.575,9.609 -0.741,4.334 -1.292,8.727 -2.032,13.039 -1.311,7.634 -9.509,3.272 -14.125,1.557 -0.586,1.055 -1.68,7.818 -0.464,8.903 0.944,0.843 5.777,-0.661 6.912,-0.755 5.428,-0.453 12.099,1.916 16.257,5.575 1.138,-2.119 1.833,-5.054 1.578,-7.428 -1.663,-0.013 -5.231,-1.096 -6.405,-2.21 -1.533,-1.455 -0.603,-4.407 -0.245,-6.801 z"
         id="path24821" />
      <path
         style="fill:#ff0008;stroke:#313030;stroke-width:1.08019996"
         inkscape:connector-curvature="0"
         d="m 128.874,186.751 c -0.249,0.727 -6.402,7.447 -6.121,7.783 -2.038,-2.414 -3.207,-7.793 -6.159,-9.943 -0.918,2.532 -4.104,4.031 -6.525,4.896 1.872,-6.413 -1.831,-12.414 -2.866,-18.381 4.824,1.178 8.68,6.709 13.7,8.596 5.498,2.064 11.441,2.818 17.281,2.988 11.163,0.326 22.502,-1.627 33.171,-4.834 11.783,-3.541 22.484,-9.935 32.239,-17.325 3.242,-2.459 5.845,-5.752 9.072,-8.277 2.56,-2.002 2.791,-2.036 5.62,-1.182 4.859,1.462 10.511,-8.494 10.294,-12.652 0.778,1.586 2,3.336 3.098,4.752 -0.303,-0.144 -0.698,-0.125 -0.952,-0.208 -0.233,-0.077 -4.835,7.25 -5.313,7.813 -2.69,3.173 -8.755,6.277 -8.5,-0.755 -0.104,2.855 -1.901,5.393 -2.42,8.28 -0.461,2.577 -0.988,7.078 0.647,9.389 -1.604,-2.264 -3.512,-5.27 -5.664,-6.123 -0.699,4.457 -0.615,8.94 -0.993,13.53 -1.812,-1.732 -3.912,-4.076 -5.491,-6.206 -0.708,3.875 -1.805,8.021 -3.005,11.806 -0.715,-3.246 -3.449,-5.326 -4.86,-7.646 -1.315,4.178 -1.804,8.619 -3.583,12.65 -2.646,-2.551 -3.12,-7.697 -6.569,-9.046 0.103,1.358 -3.229,11.891 -3.511,11.387 -1.428,-2.543 -3.455,-4.721 -5.291,-6.91 0.262,3.881 -1.515,8.923 -4.091,11.788 -1.771,-2.51 -4.544,-5.837 -6.518,-7.607 -0.824,2.855 -2.165,5.569 -3.185,8.489 -2.737,-2.983 -4.94,-6.55 -9.055,-8.313 -1.183,3.562 -2.845,7.635 -5.747,9.774 -1.335,-2.675 -2.851,-5.329 -4.46,-7.809 -2.998,1.682 -3.449,6.446 -6.343,8.526 -1.462,-4.135 -5.09,-6.405 -7.9,-9.23 z"
         id="path24823" />
      <ellipse
         style="fill:#08f7ff;stroke:#313030;stroke-width:1.08019996"
         cx="107.2"
         cy="169.485"
         rx="3.961"
         ry="4.1409998"
         id="ellipse24825" />
      <path
         style="fill:#b2b2b2;stroke:#000000;stroke-width:1.51460004"
         inkscape:connector-curvature="0"
         d="m 78.878,117.992 c -0.991,0.802 -1.633,2.879 -2.169,4.005 -0.986,2.07 -1.759,4.105 -1.934,6.426 -0.257,3.441 0.401,6.495 1.592,9.691 -0.014,-0.652 -0.034,-1.306 0.024,-1.953 2.018,3.979 7.729,6.638 7.928,11.52 0.527,-0.7 0.443,-2.073 0.709,-2.991 1.371,1.25 3.056,2.544 4.118,4.026 0.231,-2.682 -0.691,-5.564 -0.52,-8.348 0.604,0.505 1.532,0.769 1.912,1.373 0.291,-2.917 1.098,-5.831 1.131,-8.777 0.029,-2.383 -0.165,-6.594 -1.493,-8.672 -1.216,-1.905 -4.747,-1.056 -6.772,-2.16 -1.944,-1.063 -3.426,-2.863 -4.573,-4.653 -0.109,0.046 -0.187,0.109 -0.313,0.152"
         id="path24827" />
      <path
         style="fill:#666666"
         inkscape:connector-curvature="0"
         d="m 82.01,132.674 c -0.042,0.1 -0.084,0.204 -0.126,0.31 -0.313,0.813 -0.313,1.58 -0.892,2.231 -0.769,-1.372 -1.3,-3.525 -1.393,-5.108 -0.004,2.336 -0.292,5.33 0.853,7.458 0.92,-1.751 1.685,-4.09 3.705,-4.926 0.067,0.768 -0.132,1.589 -0.014,2.489 0.183,1.372 0.818,2.411 1.169,3.695 0.447,1.64 0.046,3.084 0.405,4.694 0.079,-2.457 0.037,-4.424 1.033,-6.761 0.578,-1.351 1.325,-3.038 0.807,-4.486 -0.131,1.813 1.046,3.439 1.95,4.925 -0.447,-0.739 -0.305,-3.083 -0.353,-3.994 -0.088,-1.736 0.395,-3.273 0.57,-4.961 0.109,-1.053 0.494,-2.961 0.135,-3.946 -0.357,-0.992 -0.948,-0.646 -1.982,-0.722 -1.619,-0.117 -3,-0.976 -4.468,-1.236 0.131,1.94 0.408,3.933 0.229,5.884 -0.186,1.967 -0.932,2.772 -1.628,4.454 z"
         id="path24829" />
      <polygon
         style="fill:#666666;stroke:#000000;stroke-width:1.08019996"
         points="179.105,313.815 159.799,345.678 170.404,311.539 178.28,299.354 280.102,72.551 266.733,65.935 261.29,67.065 259.174,60.804 265.469,58.323 267.452,62.474 281.752,69.416 286.853,57.969 286.263,52.362 292.929,48.922 294.785,56.188 290.094,59.454 284.828,70.934 298.623,76.872 304.27,75.521 306.7,82.272 300.4,84.618 297.734,79.922 283.611,73.901 181.979,300.533 "
         id="polygon24831" />
      <path
         style="fill:#f56d4c;stroke:#000000;stroke-width:1.08019996"
         inkscape:connector-curvature="0"
         d="m 246.769,172.124 c -0.942,-4.95 -14.354,-14.708 -14.504,-4.424 -2.711,0.164 -4.302,2.285 -4.338,5.021 -1.765,0.912 -3.162,4.904 -1.896,7.164 1.923,3.423 5.183,1.91 8.339,1.439 4.715,-0.702 13.331,-1.08 14.56,-7.04"
         id="path24833" />
      <path
         style="fill:#08f7ff;stroke:#000000;stroke-width:1.08019996"
         inkscape:connector-curvature="0"
         d="m 261.893,170.682 c -5.989,3.278 -12.257,10.896 -18.729,4.994 -3.082,-2.812 -2.737,-3.384 -2.063,-7.598 2.059,-0.847 4.46,-0.815 6.36,-1.824 5.495,-2.913 10.178,-8.424 15.024,-12.312 3.63,-2.911 5.632,-8.125 10.763,-8.112 -1.005,0.506 -2.561,0.994 -3.629,1.398 -7.327,-13.158 14.852,-23.471 18.193,-11.124 1.116,4.126 0.396,15.012 -1.587,18.7 -3.682,6.855 -17.783,12.29 -24.332,15.878 z"
         id="path24835" />
      <g
         id="g24851">
        <g
           id="g24847">
          <path
             style="fill:#f56d4c;stroke:#000000;stroke-width:1.08019996"
             inkscape:connector-curvature="0"
             d="m 190.588,57.971 c -3.207,3.035 -3.934,6.169 -5.626,10.024 -0.951,2.165 -2.364,4.262 -2.705,6.645 1.313,1.367 1.729,3.192 2.998,4.616 2.687,-1.575 4.161,8.328 5.803,9.452 0.775,-0.636 1.771,-0.942 2.747,-1.193 -0.789,1.994 5.55,6.703 7.59,6.641 2.004,-0.063 3.809,-2.753 5.081,-4.145 1.619,-1.77 3.299,-3.526 4.655,-5.487 -0.354,1.438 -1.355,3.148 -2.361,4.225 1.633,2.287 0.687,4.643 3.479,6.277 2.378,1.389 6.273,1.801 8.855,0.939 4.755,-1.589 10.596,-8.847 8.643,-13.967 -1.205,-3.155 -3.64,-5.731 -5.351,-8.427 -2.925,-4.612 -3.123,-9.724 -7.354,-13.803 -7.259,-6.995 -18.838,-9.008 -26.454,-1.797 z"
             id="path24837" />
          <g
             id="g24841">
            <path
               inkscape:connector-curvature="0"
               d="m 192.264,76.062 c -1.282,0.675 -2.734,1.44 -3.211,0.991 l -1.481,1.574 c 1.603,1.505 3.779,0.357 5.699,-0.654 1.635,-0.862 3.327,-1.754 4.438,-1.162 l 1.018,-1.905 c -2.122,-1.134 -4.43,0.081 -6.463,1.156 z"
               id="path24839" />
          </g>
          <path
             inkscape:connector-curvature="0"
             d="m 194.501,80.608 c -0.531,0.344 -1.036,0.676 -1.044,0.732 0.076,-0.513 -0.609,-0.686 -0.929,-0.892 -0.462,-0.297 -0.726,-0.462 -0.893,-1.052 0.428,1.518 2.029,0.787 2.902,0.329 0.851,-0.444 2.237,-0.652 2.417,-1.677 0.106,1.016 -0.522,1.209 -1.249,1.771 -0.134,0.106 -0.682,0.452 -1.204,0.789 z"
             id="path24843" />
          <path
             style="stroke:#8c8c8c;stroke-width:1.08019996"
             inkscape:connector-curvature="0"
             d="m 211.69,67.618 c 0.887,1.314 1.422,4.131 1.636,5.665 0.142,1.018 0.482,2.021 -0.687,2.451 -0.338,0.126 -2.078,-0.356 -2.229,-0.729 1.262,3.125 2.953,5.64 6.109,6.991 1.713,0.734 4.4,1.466 6.202,0.812 1.231,-0.448 2.282,-1.563 0.089,-2.388 2.169,1.896 6.561,0.887 8.611,-0.84 2.963,-2.489 1.144,-4.791 -0.7,-7.211 -1.586,-2.083 -2.835,-4.622 -2.875,-7.33 -0.031,-2.245 0.875,-4.303 0.815,-6.482 -0.143,-4.998 -4.875,-11.929 -8.742,-14.891 -0.563,-0.432 -6.803,-3.927 -6.412,-4.334 0.492,-0.513 1.172,-1.02 1.847,-1.371 -2.42,1.253 -6.606,0.64 -9.26,0.741 -3.798,0.145 -7.611,0.77 -11.031,2.501 -3.829,1.937 -7.491,4.531 -10.389,7.711 -1.466,1.61 -2.504,3.313 -3.493,5.234 -0.438,0.85 -2.263,5.638 -2.929,5.731 0.996,-0.138 1.775,-0.698 2.584,-1.288 -1.942,3.024 -5.1,6.838 -4.846,10.716 0.286,4.385 5.313,7.156 9.388,6.021 -3.028,-2.356 0.867,-7.246 3.256,-8.391 3.36,-1.61 5.477,0.258 7.893,2.55 0.16,-0.8 0.321,-1.554 0.586,-2.293 1.685,-0.128 3.761,-0.291 5.361,0.163 1.707,0.483 1.802,1.116 2.918,2.469 -0.49,-1.16 0.092,-4.081 1.249,-4.858 2.133,-1.436 4.142,1.304 5.049,2.65 z"
             id="path24845" />
        </g>
        <path
           style="fill:#ff0008;stroke:#000000;stroke-width:1.08019996"
           inkscape:connector-curvature="0"
           d="m 229.294,96.143 c -0.5,-0.417 -5.308,-0.863 -5.195,-0.333 0.339,1.64 0.171,2.458 -0.413,4.084 -0.709,-0.076 -1.629,-0.462 -2.376,-0.724 -2.898,-1.017 -5.755,-2.023 -8.898,-2.137 -2.162,-0.079 -2.515,0.251 -3.493,-1.422 -0.497,-0.845 -0.979,-1.808 -1.748,-2.4 0.687,-1.075 1.301,-1.607 2.143,-1.029 0.526,0.362 0.905,1.189 1.439,1.619 0.754,0.603 1.199,0.71 2.111,0.941 2.321,0.586 4.573,0.016 6.934,0.14 1.39,0.073 2.909,0.434 4.261,0.337 -0.521,-3.052 1.84,-4.488 3.657,-6.484 1.36,-1.496 3.851,-4.438 2.32,-6.595 0.831,-0.358 3.251,-1.887 3.773,-0.903 0.606,1.146 -2.038,6.042 -2.482,7.128 -1.104,2.684 -2.56,5.094 -2.031,7.958"
           id="path24849" />
      </g>
    </g>
  </g>
  <g
     inkscape:groupmode="layer"
     id="layer2"
     inkscape:label="riflesso"
     sodipodi:insensitive="true"
     transform="translate(-117.86504,-126.07395)">
    <path
       transform="translate(-2.672492e-7,-6.9131223)"
       id="path4570"
       d="M 118.88298,134.00502 V 341.6656 c -1e-5,19.08679 13.42432,30.41107 27.73897,30.41107 l 33.33767,-0.3181 c 20.85802,0 32.19248,10.69865 32.19248,23.22184 0,-12.52319 11.33446,-23.22184 32.19247,-23.22184 l 33.33767,0.3181 c 14.31466,0 27.73897,-11.32428 27.73897,-30.41107 V 134.00502 H 212.1521 Z"
       style="display:inline;opacity:0.78500001;fill:url(#radialGradient9605);fill-opacity:1;fill-rule:evenodd;stroke:none;stroke-width:2.03588796px;stroke-linecap:butt;stroke-linejoin:miter;stroke-opacity:1"
       inkscape:connector-curvature="0" />
  </g>
</svg>
