<svg width="312" height="334" viewBox="0 0 312 334" fill="none" xmlns="http://www.w3.org/2000/svg">
<path d="M9.91471 6.11588C9.94059 5.93235 9.95353 5.66311 9.95353 5.30816C9.95353 4.9532 9.88554 4.63153 9.74948 4.34313C9.61331 4.04767 9.42868 3.81776 9.19536 3.65339C8.78717 3.37104 8.17154 3.22987 7.34859 3.22987C6.532 3.22987 5.80947 3.38113 5.18091 3.68364C4.55881 3.9791 4.03715 4.39556 3.61601 4.93404C2.76708 6.01705 2.34266 7.49131 2.34266 9.35582C2.34266 11.1215 2.77355 12.5292 3.63542 13.58C4.52965 14.6761 5.73821 15.2246 7.2611 15.2246C8.75801 15.2246 9.92436 14.8929 10.7604 14.2304C11.0131 14.0327 11.2431 13.82 11.4504 13.59C11.6449 13.6495 11.8037 13.823 11.9268 14.1124C11.9656 14.2102 11.9851 14.3413 11.9851 14.5057C11.9851 14.663 11.8685 14.9 11.6352 15.2146C11.4083 15.5231 11.0746 15.8216 10.6339 16.111C9.58415 16.8068 8.32702 17.1547 6.86256 17.1547C4.76296 17.1547 3.09107 16.5083 1.84688 15.2146C0.615625 13.948 0 12.2509 0 10.1232C0 8.82339 0.204146 7.65165 0.61244 6.60797C1.02063 5.56429 1.57793 4.67791 2.28433 3.94885C2.99064 3.21373 3.81359 2.64904 4.75321 2.25576C5.69939 1.86148 6.61631 1.66485 7.50406 1.66485C8.39829 1.66485 9.11435 1.74048 9.65223 1.89073C10.1901 2.04199 10.6372 2.2487 10.9937 2.51189C11.7064 3.04936 12.0629 3.76532 12.0629 4.65774C12.0629 5.34143 11.8133 5.82344 11.3144 6.10579C11.146 6.20461 10.9645 6.25402 10.7701 6.25402C10.3683 6.25402 10.0832 6.20764 9.91471 6.11588ZM13.9875 11.5118C13.9875 10.7111 14.0652 9.99211 14.2208 9.35582C14.3763 8.71852 14.5901 8.15786 14.8623 7.67181C15.1344 7.18577 15.4552 6.77233 15.8246 6.43049C16.194 6.0826 16.5892 5.80025 17.0105 5.58345C17.8334 5.1569 18.7374 4.94413 19.7224 4.94413C20.986 4.94413 22.0585 5.41 22.9398 6.34176C23.9183 7.36628 24.4075 8.71852 24.4075 10.3995C24.4075 12.6048 23.8146 14.3221 22.6288 15.5494C21.5985 16.6061 20.3639 17.1355 18.9253 17.1355C17.422 17.1355 16.2167 16.6001 15.3094 15.5302C14.4281 14.4996 13.9875 13.1595 13.9875 11.5118ZM19.4989 15.5302C19.933 15.5302 20.3218 15.4283 20.6653 15.2246C21.0087 15.0149 21.3003 14.7285 21.5401 14.3675C22.0196 13.6193 22.2594 12.6482 22.2594 11.4533C22.2594 10.1403 22.0067 9.02406 21.5012 8.10441C20.931 7.04762 20.1112 6.51923 19.042 6.51923C18.1801 6.51923 17.49 6.85402 16.9716 7.52359C16.4207 8.23249 16.1453 9.22373 16.1453 10.4983C16.1453 12.0936 16.4921 13.3541 17.1855 14.2798C17.8076 15.1127 18.5787 15.5302 19.4989 15.5302ZM31.6491 16.9974C31.5195 16.9641 31.3122 16.948 31.027 16.948H27.9263C27.3042 16.948 26.9057 16.836 26.7307 16.6132C26.6594 16.5275 26.6238 16.4297 26.6238 16.3177C26.6238 16.0424 26.6757 15.8388 26.7793 15.7077C26.9348 15.7601 27.1098 15.7863 27.3042 15.7863C27.5051 15.7863 27.6541 15.7036 27.7513 15.5403C27.855 15.3759 27.9036 15.0704 27.8972 14.6237V8.18408C27.8972 7.56695 27.7838 7.18275 27.5569 7.03149C27.4662 6.972 27.3463 6.94276 27.1973 6.94276C27.0482 6.94276 26.9284 6.96594 26.8376 7.01132C26.7534 7.0577 26.6821 7.09099 26.6238 7.11015C26.5719 7.13032 26.5266 7.13032 26.4877 7.11015C26.4488 7.08393 26.4099 7.04762 26.3711 7.00224C26.2738 6.89737 26.2253 6.78847 26.2253 6.67654C26.2253 6.55856 26.2642 6.43755 26.3419 6.31251C26.4261 6.18142 26.559 6.03319 26.7405 5.86983C26.9219 5.6984 27.1292 5.54412 27.3625 5.40698C27.8874 5.09841 28.4123 4.94413 28.9372 4.94413C29.5139 4.94413 29.8606 5.31521 29.9772 6.05638C30.0162 6.28024 30.042 6.50915 30.0551 6.74612C31.027 5.96462 32.0445 5.42009 33.1072 5.11152C33.496 4.99959 33.8719 4.94413 34.2348 4.94413C35.7771 4.94413 36.7523 5.56126 37.1605 6.79553C38.1715 5.98075 39.1986 5.42009 40.2418 5.11152C40.6372 4.99959 41.0389 4.94413 41.4472 4.94413C41.8554 4.94413 42.2475 4.99959 42.6233 5.11152C43.0056 5.22244 43.3329 5.40295 43.605 5.65303C44.2012 6.19151 44.4993 7.01133 44.4993 8.11451V14.7225C44.4993 15.2609 44.6808 15.5957 45.0436 15.7268C45.1473 15.7662 45.2704 15.7994 45.413 15.8256C45.5556 15.8519 45.6852 15.8841 45.8019 15.9235C45.9185 15.9567 46.0092 15.9961 46.074 16.0425C46.1841 16.1272 46.2388 16.2653 46.2388 16.4559C46.2388 16.6858 46.1871 16.8663 46.0837 16.9974C45.9541 16.9641 45.7467 16.948 45.4616 16.948H42.3608C41.7387 16.948 41.3402 16.836 41.1653 16.6132C41.094 16.5275 41.0583 16.4297 41.0583 16.3177C41.0583 16.0424 41.1102 15.8388 41.2139 15.7077C41.3694 15.7601 41.5411 15.7863 41.7291 15.7863C41.917 15.7863 42.0595 15.7238 42.1568 15.5988C42.2604 15.4677 42.3187 15.2277 42.3317 14.8798V8.81433C42.3317 7.69804 42.0045 7.07385 41.3499 6.94276C41.1491 6.90343 40.9093 6.88427 40.6307 6.88427C40.3585 6.88427 40.0604 6.91956 39.7364 6.99216C39.4189 7.05771 39.1143 7.14947 38.8226 7.26745C38.2589 7.49736 37.7665 7.7898 37.3452 8.14476V14.7225C37.3452 15.267 37.5267 15.6018 37.8896 15.7268C37.9932 15.7662 38.1163 15.7994 38.2589 15.8256C38.4015 15.8519 38.5278 15.8841 38.638 15.9235C38.7547 15.9567 38.8453 15.9961 38.9101 16.0425C39.0203 16.1272 39.0755 16.2653 39.0755 16.4559C39.0755 16.6918 39.0268 16.8723 38.9296 16.9974C38.8 16.9641 38.5926 16.948 38.3075 16.948H35.2067C34.5846 16.948 34.1861 16.836 34.0112 16.6132C33.9399 16.5275 33.9042 16.4297 33.9042 16.3177C33.9042 16.0354 33.9529 15.8317 34.05 15.7077C34.2121 15.7601 34.3871 15.7863 34.575 15.7863C34.7629 15.7863 34.9054 15.7167 35.0027 15.5796C35.1063 15.4415 35.1646 15.1884 35.1776 14.8213V8.81433C35.1776 7.69804 34.8504 7.07385 34.1958 6.94276C33.995 6.90343 33.7519 6.88427 33.4668 6.88427C33.1817 6.88427 32.8706 6.92359 32.5337 7.00224C32.1967 7.0809 31.876 7.18578 31.5714 7.31687C30.9882 7.55989 30.486 7.86846 30.0647 8.24257V14.7225C30.0647 15.2609 30.2495 15.5957 30.6188 15.7268C30.716 15.7662 30.8359 15.7994 30.9785 15.8256C31.121 15.8519 31.2506 15.8841 31.3672 15.9235C31.4839 15.9567 31.5746 15.9961 31.6395 16.0425C31.7496 16.1272 31.8047 16.2653 31.8047 16.4559C31.8047 16.6858 31.7529 16.8663 31.6491 16.9974ZM52.9365 16.9974C52.8071 16.9641 52.5991 16.948 52.3144 16.948H49.2139C48.5918 16.948 48.1927 16.836 48.0185 16.6132C47.9468 16.5275 47.911 16.4297 47.911 16.3177C47.911 16.0424 47.9628 15.8388 48.0663 15.7077C48.2226 15.7601 48.3967 15.7863 48.5918 15.7863C48.7929 15.7863 48.9412 15.7036 49.0387 15.5403C49.1423 15.3759 49.191 15.0704 49.1841 14.6237V8.18408C49.1841 7.56695 49.0716 7.18275 48.8446 7.03149C48.7541 6.972 48.6336 6.94276 48.4843 6.94276C48.336 6.94276 48.2156 6.96594 48.125 7.01132C48.0404 7.0577 47.9697 7.09099 47.911 7.11015C47.8593 7.13032 47.8145 7.13032 47.7746 7.11015C47.7358 7.08393 47.697 7.04762 47.6582 7.00224C47.5616 6.89737 47.5129 6.78847 47.5129 6.67654C47.5129 6.55856 47.5517 6.43755 47.6293 6.31251C47.7139 6.18142 47.8463 6.03319 48.0275 5.86983C48.2096 5.6984 48.4166 5.54412 48.6496 5.40698C49.1751 5.09841 49.6997 4.94413 50.2242 4.94413C50.8015 4.94413 51.1479 5.31521 51.2643 6.05638C51.3032 6.28024 51.329 6.50915 51.342 6.74612C52.3144 5.96462 53.3317 5.42009 54.3947 5.11152C54.7829 4.99959 55.1592 4.94413 55.5225 4.94413C57.0643 4.94413 58.0397 5.56126 58.4478 6.79553C59.4591 5.98075 60.4863 5.42009 61.5294 5.11152C61.9246 4.99959 62.3267 4.94413 62.7348 4.94413C63.1429 4.94413 63.5351 4.99959 63.9103 5.11152C64.2925 5.22244 64.62 5.40295 64.8927 5.65303C65.4889 6.19151 65.7866 7.01133 65.7866 8.11451V14.7225C65.7866 15.2609 65.9677 15.5957 66.331 15.7268C66.4345 15.7662 66.558 15.7994 66.7003 15.8256C66.8426 15.8519 66.973 15.8841 67.0895 15.9235C67.2059 15.9567 67.2965 15.9961 67.3612 16.0425C67.4717 16.1272 67.5264 16.2653 67.5264 16.4559C67.5264 16.6858 67.4747 16.8663 67.3712 16.9974C67.2418 16.9641 67.0337 16.948 66.7491 16.948H63.6485C63.0264 16.948 62.6273 16.836 62.4531 16.6132C62.3814 16.5275 62.3456 16.4297 62.3456 16.3177C62.3456 16.0424 62.3974 15.8388 62.5009 15.7077C62.6572 15.7601 62.8284 15.7863 63.0165 15.7863C63.2046 15.7863 63.3469 15.7238 63.4445 15.5988C63.548 15.4677 63.6057 15.2277 63.6187 14.8798V8.81433C63.6187 7.69804 63.2922 7.07385 62.6373 6.94276C62.4362 6.90343 62.1963 6.88427 61.9176 6.88427C61.6459 6.88427 61.3483 6.91956 61.0238 6.99216C60.7063 7.05771 60.4017 7.14947 60.1101 7.26745C59.5467 7.49736 59.054 7.7898 58.6329 8.14476V14.7225C58.6329 15.267 58.8141 15.6018 59.1774 15.7268C59.2809 15.7662 59.4033 15.7994 59.5467 15.8256C59.689 15.8519 59.8154 15.8841 59.9249 15.9235C60.0424 15.9567 60.1329 15.9961 60.1976 16.0425C60.3081 16.1272 60.3629 16.2653 60.3629 16.4559C60.3629 16.6918 60.3141 16.8723 60.2166 16.9974C60.0872 16.9641 59.8801 16.948 59.5945 16.948H56.4939C55.8718 16.948 55.4737 16.836 55.2985 16.6132C55.2268 16.5275 55.192 16.4297 55.192 16.3177C55.192 16.0354 55.2398 15.8317 55.3373 15.7077C55.4996 15.7601 55.6748 15.7863 55.8619 15.7863C56.05 15.7863 56.1923 15.7167 56.2899 15.5796C56.3934 15.4415 56.4521 15.1884 56.4651 14.8213V8.81433C56.4651 7.69804 56.1376 7.07385 55.4836 6.94276C55.2826 6.90343 55.0397 6.88427 54.7541 6.88427C54.4694 6.88427 54.1578 6.92359 53.8214 7.00224C53.484 7.0809 53.1635 7.18578 52.8589 7.31687C52.2756 7.55989 51.773 7.86846 51.3519 8.24257V14.7225C51.3519 15.2609 51.5371 15.5957 51.9064 15.7268C52.0029 15.7662 52.1233 15.7994 52.2657 15.8256C52.408 15.8519 52.5384 15.8841 52.6549 15.9235C52.7713 15.9567 52.8619 15.9961 52.9266 16.0425C53.0371 16.1272 53.0918 16.2653 53.0918 16.4559C53.0918 16.6858 53.0401 16.8663 52.9365 16.9974ZM69.8207 8.18408C69.8207 7.80997 69.7918 7.51047 69.7331 7.28762C69.6814 7.05771 69.5709 6.94276 69.4027 6.94276C69.2792 6.94276 69.1827 6.95587 69.111 6.98208L68.8781 7.0809C68.8323 7.09401 68.7776 7.06779 68.7129 7.00224C68.5895 6.86409 68.5278 6.73906 68.5278 6.62813C68.5278 6.50914 68.5636 6.38814 68.6343 6.2631C68.7129 6.13201 68.8263 5.98478 68.9747 5.82041C69.1309 5.65605 69.3051 5.51185 69.5002 5.38681C69.9401 5.09136 70.3393 4.94413 70.6956 4.94413C71.052 4.94413 71.3048 5.00665 71.4531 5.13068C71.6024 5.25572 71.7159 5.42008 71.7935 5.62378C71.9239 5.9515 71.9886 6.44764 71.9886 7.11015V13.2744C71.9886 14.3847 72.319 15.0048 72.98 15.1359C73.181 15.1752 73.4169 15.1954 73.6896 15.1954C73.9683 15.1954 74.263 15.1591 74.5735 15.0865C74.891 15.0149 75.1926 14.9191 75.4773 14.8011C76.0287 14.5712 76.5145 14.2798 76.9355 13.9248V8.18408C76.9355 7.55989 76.826 7.17569 76.605 7.03149C76.5145 6.972 76.395 6.94276 76.2457 6.94276C76.0964 6.94276 75.977 6.96594 75.8864 7.01132C75.8018 7.0577 75.7301 7.09099 75.6724 7.11015C75.6206 7.13032 75.5749 7.13032 75.536 7.11015C75.4972 7.08393 75.4554 7.04762 75.4096 7.00224C75.3121 6.89031 75.2643 6.77839 75.2643 6.66746C75.2643 6.55553 75.3031 6.43755 75.3808 6.31251C75.4644 6.18142 75.5977 6.03319 75.7789 5.86983C75.9601 5.6984 76.1681 5.54412 76.401 5.40698C76.9265 5.09841 77.4511 4.94413 77.9756 4.94413C78.6107 4.94413 78.974 5.39992 79.0646 6.31251C79.0904 6.56864 79.1034 6.83486 79.1034 7.11015V12.9396C79.1034 13.951 79.1422 14.5813 79.2198 14.8304C79.2975 15.0804 79.392 15.2448 79.5015 15.3235C79.612 15.3951 79.7484 15.4314 79.9106 15.4314C80.0719 15.4314 80.2052 15.4051 80.3087 15.3527L80.6004 15.2246C80.685 15.2045 80.7587 15.2448 80.8243 15.3426C80.9597 15.5463 80.9796 15.7298 80.8821 15.8942C80.7855 16.0586 80.6332 16.2159 80.4252 16.3671C80.2241 16.5184 79.9972 16.6495 79.7454 16.7604C78.6236 17.2596 77.8263 17.2495 77.3536 16.7312C77.1077 16.4619 76.9684 16.0354 76.9355 15.4515C75.983 16.1927 75.0075 16.705 74.0102 16.9873C73.6468 17.0861 73.2646 17.1355 72.8625 17.1355C72.4674 17.1355 72.0792 17.0791 71.6969 16.9682C71.3207 16.8562 70.9932 16.6757 70.7145 16.4256C70.1183 15.8942 69.8207 15.0734 69.8207 13.9642V8.18408ZM87.541 16.9974C87.4106 16.9641 87.2036 16.948 86.9189 16.948H83.8174C83.1953 16.948 82.7971 16.836 82.622 16.6132C82.5513 16.5275 82.5154 16.4297 82.5154 16.3177C82.5154 16.0424 82.5672 15.8388 82.6707 15.7077C82.826 15.7601 83.0012 15.7863 83.1953 15.7863C83.3963 15.7863 83.5456 15.7036 83.6432 15.5403C83.7467 15.3759 83.7955 15.0704 83.7885 14.6237V8.18408C83.7885 7.56695 83.675 7.18275 83.4481 7.03149C83.3575 6.972 83.2381 6.94276 83.0888 6.94276C82.9395 6.94276 82.82 6.96594 82.7295 7.01132C82.6448 7.0577 82.5732 7.09099 82.5154 7.11015C82.4637 7.13032 82.4179 7.13032 82.3791 7.11015C82.3403 7.08393 82.3014 7.04762 82.2626 7.00224C82.1651 6.89737 82.1163 6.78847 82.1163 6.67654C82.1163 6.55856 82.1551 6.43755 82.2338 6.31251C82.3174 6.18142 82.4507 6.03319 82.6319 5.86983C82.8131 5.6984 83.0211 5.54412 83.254 5.40698C83.7785 5.09841 84.3041 4.94413 84.8286 4.94413C85.4308 4.94413 85.7882 5.34748 85.8977 6.1552C85.9305 6.39116 85.9494 6.63419 85.9564 6.88427C86.9219 6.06344 87.971 5.47857 89.1057 5.13068C89.5138 5.00665 89.9249 4.94413 90.3399 4.94413C90.761 4.94413 91.1601 4.99959 91.5353 5.11152C91.9176 5.22244 92.248 5.40295 92.5267 5.65303C93.1169 6.1784 93.4116 6.99822 93.4116 8.11451V14.791C93.4315 15.3033 93.6186 15.6189 93.9749 15.7369C94.0725 15.7692 94.1929 15.7994 94.3353 15.8256C94.4776 15.8519 94.604 15.8841 94.7145 15.9235C94.831 15.9567 94.9215 15.9961 94.9862 16.0425C95.0967 16.1272 95.1515 16.2653 95.1515 16.4559C95.1515 16.6858 95.0997 16.8663 94.9962 16.9974C94.8668 16.9641 94.6587 16.948 94.3741 16.948H91.2736C90.6515 16.948 90.2523 16.836 90.0771 16.6132C90.0065 16.5275 89.9706 16.4297 89.9706 16.3177C89.9706 16.0424 90.0224 15.8388 90.1259 15.7077C90.2822 15.7601 90.4245 15.7863 90.5539 15.7863C90.6903 15.7863 90.8037 15.7692 90.8943 15.7369C90.9849 15.6976 91.0566 15.6351 91.1083 15.5494C91.1989 15.392 91.2437 15.0835 91.2437 14.6237V8.81433C91.2437 7.69804 90.9172 7.07385 90.2623 6.94276C90.0612 6.90343 89.8084 6.88427 89.5038 6.88427C89.2062 6.88427 88.8758 6.92965 88.5124 7.02141C88.1501 7.11318 87.8097 7.23216 87.4922 7.37636C86.883 7.65165 86.3704 7.99954 85.9564 8.42004V14.791C85.9753 15.3033 86.1604 15.6189 86.5098 15.7369C86.6143 15.7692 86.7337 15.7994 86.8701 15.8256C87.0124 15.8519 87.1418 15.8841 87.2583 15.9235C87.3757 15.9567 87.4663 15.9961 87.531 16.0425C87.6405 16.1272 87.6963 16.2653 87.6963 16.4559C87.6963 16.6858 87.6445 16.8663 87.541 16.9974ZM98.884 3.11188C98.6641 3.11188 98.46 3.07962 98.2719 3.01407C98.0907 2.94147 97.9315 2.83962 97.7951 2.70853C97.5104 2.43223 97.3681 2.06215 97.3681 1.59527C97.3681 1.14956 97.5363 0.771417 97.8727 0.46285C98.1972 0.154283 98.5864 0 99.0393 0C99.4932 0 99.8565 0.138145 100.128 0.414443C100.4 0.689733 100.536 1.06385 100.536 1.53679C100.536 1.9835 100.374 2.36063 100.051 2.6692C99.7331 2.96466 99.3439 3.11188 98.884 3.11188ZM98.2908 16.948C97.2934 16.948 96.7938 16.7181 96.7938 16.2582C96.7938 16.0223 96.8465 15.8388 96.95 15.7077C97.1053 15.7601 97.2477 15.7863 97.3771 15.7863C97.9802 15.7863 98.2749 15.3991 98.2619 14.6237V8.02575C98.2619 7.56694 98.1972 7.2483 98.0678 7.07082C97.9444 6.88729 97.7205 6.79553 97.397 6.79553C97.1571 6.79553 96.9401 6.82478 96.746 6.88427C96.6286 6.89738 96.5449 6.80461 96.4932 6.60797C96.4474 6.43049 96.4733 6.27621 96.5708 6.14512C96.6674 6.00697 96.8167 5.86579 97.0177 5.72159C97.2248 5.57033 97.4517 5.43924 97.6986 5.32832C98.2291 5.07219 98.673 4.94413 99.0303 4.94413C99.3867 4.94413 99.6485 4.99656 99.8177 5.10143C99.9919 5.20631 100.125 5.34748 100.216 5.52496C100.358 5.81335 100.43 6.28025 100.43 6.9236V14.791C100.449 15.3104 100.634 15.625 100.983 15.7369C101.081 15.7692 101.201 15.7994 101.344 15.8256C101.486 15.8519 101.612 15.8841 101.723 15.9235C101.839 15.9567 101.93 15.9961 101.995 16.0425C102.105 16.1272 102.16 16.2653 102.16 16.4559C102.16 16.6918 102.111 16.8723 102.014 16.9974C101.878 16.9641 101.671 16.948 101.392 16.948H98.2908ZM106.942 10.2321L106.932 12.8217C106.932 13.9047 106.987 14.5581 107.098 14.782C107.208 14.9978 107.338 15.1299 107.487 15.1752C107.635 15.2146 107.826 15.2347 108.06 15.2347C108.293 15.2347 108.504 15.2186 108.692 15.1853C108.886 15.146 109.067 15.0966 109.236 15.0371C109.405 14.9786 109.566 14.9131 109.722 14.8405L110.198 14.6337C110.309 14.5944 110.432 14.7094 110.567 14.9786C110.606 15.0502 110.626 15.1359 110.626 15.2347C110.626 15.3265 110.587 15.4475 110.51 15.5988C110.432 15.75 110.28 15.9235 110.053 16.1211C109.832 16.3107 109.573 16.4821 109.276 16.6334C108.627 16.9682 108.044 17.1355 107.526 17.1355C107.013 17.1355 106.595 17.1053 106.272 17.0468C105.947 16.9873 105.672 16.8693 105.445 16.6919C104.979 16.3248 104.746 15.6512 104.746 14.6731V6.9236H103.783C103.582 6.9236 103.437 6.85704 103.345 6.72595C103.19 6.52225 103.112 6.35184 103.112 6.21369C103.112 5.98479 103.167 5.85672 103.278 5.8305C104.308 5.65302 105.037 4.87858 105.464 3.50616C105.588 3.09272 105.685 2.60365 105.756 2.03896C106.067 1.98652 106.3 1.96031 106.456 1.96031C106.618 1.96031 106.757 2.04198 106.874 2.20635C106.991 2.37072 107.046 2.5603 107.039 2.7771C107.039 2.9939 107.036 3.1976 107.03 3.38819C107.023 3.57877 107.017 3.78549 107.01 4.00834L106.971 5.38681H110.335C110.419 5.53807 110.461 5.6984 110.461 5.86983V6.17436C110.461 6.45066 110.315 6.67654 110.023 6.85401C109.731 7.02544 109.408 7.11015 109.052 7.11015C108.701 7.11015 108.448 7.10711 108.293 7.10005C108.144 7.08695 107.998 7.07385 107.856 7.06074L107.428 7.00224C107.279 6.98913 107.121 6.97604 106.952 6.96293V7.07082L106.942 10.2321ZM119.103 15.6976C118.156 16.6555 117.012 17.1355 115.671 17.1355C114.634 17.1355 113.804 16.833 113.182 16.229C112.554 15.6189 112.24 14.8273 112.24 13.8563C112.24 12.6482 112.771 11.7417 113.834 11.1377C114.793 10.5861 116.144 10.3108 117.887 10.3108H119.103C119.109 10.0617 119.112 9.81868 119.112 9.58171V8.84356C119.112 7.96324 118.985 7.34309 118.732 6.98208C118.448 6.5757 117.962 6.37201 117.275 6.37201C115.701 6.37201 114.89 6.94275 114.845 8.08525C114.839 8.26273 114.842 8.40995 114.854 8.52793C114.725 8.63381 114.504 8.68626 114.194 8.68626C113.889 8.68626 113.665 8.64996 113.523 8.57736C113.386 8.50576 113.267 8.40694 113.163 8.2819C112.942 8.02577 112.833 7.70106 112.833 7.30678C112.833 6.90645 112.946 6.55856 113.173 6.2631C113.406 5.96159 113.721 5.71554 114.116 5.52496C114.887 5.13773 115.797 4.94413 116.847 4.94413C117.897 4.94413 118.685 5.049 119.209 5.25874C119.741 5.46244 120.162 5.73471 120.473 6.07655C121.024 6.68057 121.299 7.49131 121.299 8.50878L121.202 13.2351C121.202 14.0952 121.241 14.6408 121.318 14.8697C121.403 15.0996 121.499 15.2539 121.61 15.3325C121.726 15.4122 121.866 15.4515 122.028 15.4515C122.196 15.4515 122.333 15.4253 122.436 15.3729L122.709 15.2448C122.799 15.2115 122.877 15.2509 122.942 15.3628C123.013 15.4677 123.048 15.5625 123.048 15.6482C123.048 15.7268 123.013 15.8317 122.942 15.9628C122.877 16.0949 122.751 16.2361 122.562 16.3863C122.381 16.5315 122.173 16.6596 121.94 16.7705C120.651 17.3876 119.773 17.2434 119.307 16.3379C119.209 16.1604 119.141 15.9466 119.103 15.6976ZM119.073 14.4068C119.073 13.462 119.08 12.5232 119.093 11.5914C117.745 11.6439 116.827 11.7316 116.342 11.8566C115.862 11.9746 115.515 12.0896 115.301 12.2015C115.087 12.3134 114.919 12.4445 114.796 12.5958C114.596 12.8449 114.495 13.222 114.495 13.7282C114.495 14.2263 114.669 14.6277 115.02 14.9292C115.37 15.2246 115.872 15.3729 116.527 15.3729C117.453 15.3729 118.302 15.0502 119.073 14.4068ZM131.029 8.4392C131.029 7.42879 130.614 6.75923 129.785 6.43049C129.519 6.32562 129.23 6.27318 128.92 6.27318C128.615 6.27318 128.33 6.2994 128.064 6.35183C127.805 6.40427 127.575 6.48696 127.374 6.59788C126.92 6.84796 126.694 7.20594 126.694 7.67181C126.694 8.11752 126.881 8.50576 127.258 8.83348C127.673 9.18138 128.443 9.61195 129.571 10.1232C130.698 10.6294 131.566 11.184 132.176 11.7881C132.792 12.385 133.099 13.0748 133.099 13.8563C133.099 14.7356 132.743 15.4778 132.03 16.0818C131.194 16.7836 130.038 17.1355 128.559 17.1355C126.752 17.1355 125.502 16.7443 124.808 15.9628C124.568 15.6875 124.449 15.3366 124.449 14.91C124.449 13.8785 124.698 13.2785 125.197 13.107C125.32 13.0677 125.436 13.0485 125.547 13.0485C125.851 13.0485 126.016 13.1433 126.042 13.3339C126.185 14.9756 127.092 15.7954 128.765 15.7954C129.769 15.7954 130.44 15.51 130.776 14.9393C130.887 14.7557 130.941 14.5319 130.941 14.2697C130.941 14.0065 130.857 13.7675 130.689 13.5507C130.526 13.3339 130.3 13.1333 130.009 12.9497C129.717 12.7591 129.37 12.5756 128.969 12.3981L127.676 11.8072C125.693 10.8886 124.701 9.66742 124.701 8.14476C124.701 7.15956 125.131 6.37201 125.993 5.78109C126.811 5.22244 127.864 4.94413 129.153 4.94413C130.903 4.94413 131.991 5.32832 132.418 6.09571C132.529 6.29335 132.584 6.50915 132.584 6.74612C132.584 6.98208 132.571 7.19586 132.545 7.38645C132.519 7.56998 132.487 7.73737 132.448 7.88863C132.384 8.17703 132.309 8.38072 132.224 8.4987C132.056 8.62374 131.813 8.68626 131.496 8.68626C131.184 8.68626 131.029 8.60356 131.029 8.4392ZM150.577 6.00697C150.577 4.50447 150.048 3.56163 148.992 3.18146C148.629 3.04936 148.205 2.98382 147.719 2.98382C147.232 2.98382 146.814 3.04029 146.465 3.15121C146.115 3.26314 145.823 3.4144 145.59 3.60499C145.117 3.99221 144.88 4.50447 144.88 5.14076C144.88 6.10579 145.58 6.92965 146.979 7.61233L148.195 8.19315C148.785 8.46945 149.351 8.75181 149.896 9.0402C150.446 9.32255 150.933 9.64725 151.354 10.0153C152.281 10.816 152.744 11.8072 152.744 12.9891C152.744 14.2566 152.199 15.2771 151.111 16.0515C150.094 16.7735 148.817 17.1355 147.281 17.1355C146.063 17.1355 144.987 16.9409 144.054 16.5537C143.367 16.2784 142.878 15.8882 142.586 15.382C142.438 15.1258 142.363 14.8142 142.363 14.4472C142.363 13.7111 142.544 13.0254 142.907 12.3891C143.03 12.2378 143.199 12.1622 143.412 12.1622C143.827 12.1622 144.067 12.2872 144.132 12.5363C144.216 13.6717 144.56 14.4996 145.162 15.0179C145.771 15.5362 146.62 15.7954 147.709 15.7954C148.959 15.7954 149.798 15.382 150.226 14.5551C150.376 14.2657 150.45 13.9279 150.45 13.5406C150.45 13.1464 150.347 12.7954 150.139 12.4869C149.932 12.1783 149.656 11.8929 149.313 11.6308C148.788 11.2365 148.091 10.8553 147.222 10.4882C146.361 10.1202 145.688 9.7985 145.201 9.52321C144.721 9.24691 144.297 8.92524 143.928 8.55818C143.124 7.75651 142.722 6.76931 142.722 5.59353C142.722 4.39254 143.231 3.43053 144.248 2.70853C145.227 2.01274 146.491 1.66485 148.04 1.66485C150.002 1.66485 151.286 2.07527 151.889 2.89508C152.109 3.19054 152.219 3.57877 152.219 4.05776C152.219 4.53674 152.173 4.9532 152.083 5.30816C151.999 5.66311 151.914 5.89201 151.83 5.99789C151.687 6.17436 151.442 6.2631 151.091 6.2631C150.748 6.2631 150.577 6.1784 150.577 6.00697ZM161.91 15.6976C160.964 16.6555 159.821 17.1355 158.479 17.1355C157.442 17.1355 156.612 16.833 155.99 16.229C155.362 15.6189 155.048 14.8273 155.048 13.8563C155.048 12.6482 155.579 11.7417 156.641 11.1377C157.601 10.5861 158.952 10.3108 160.695 10.3108H161.91C161.917 10.0617 161.92 9.81868 161.92 9.58171V8.84356C161.92 7.96324 161.793 7.34309 161.54 6.98208C161.256 6.5757 160.77 6.37201 160.082 6.37201C158.508 6.37201 157.698 6.94275 157.653 8.08525C157.647 8.26273 157.65 8.40995 157.663 8.52793C157.533 8.63381 157.312 8.68626 157.002 8.68626C156.697 8.68626 156.473 8.64996 156.331 8.57736C156.194 8.50576 156.075 8.40694 155.971 8.2819C155.751 8.02577 155.641 7.70106 155.641 7.30678C155.641 6.90645 155.753 6.55856 155.98 6.2631C156.214 5.96159 156.528 5.71554 156.924 5.52496C157.694 5.13773 158.605 4.94413 159.655 4.94413C160.704 4.94413 161.492 5.049 162.017 5.25874C162.549 5.46244 162.97 5.73471 163.28 6.07655C163.832 6.68057 164.107 7.49131 164.107 8.50878L164.01 13.2351C164.01 14.0952 164.049 14.6408 164.126 14.8697C164.211 15.0996 164.308 15.2539 164.418 15.3325C164.535 15.4122 164.674 15.4515 164.836 15.4515C165.004 15.4515 165.141 15.4253 165.244 15.3729L165.516 15.2448C165.607 15.2115 165.685 15.2509 165.75 15.3628C165.82 15.4677 165.856 15.5625 165.856 15.6482C165.856 15.7268 165.82 15.8317 165.75 15.9628C165.685 16.0949 165.559 16.2361 165.371 16.3863C165.189 16.5315 164.981 16.6596 164.749 16.7705C163.459 17.3876 162.581 17.2434 162.114 16.3379C162.017 16.1604 161.949 15.9466 161.91 15.6976ZM161.881 14.4068C161.881 13.462 161.888 12.5232 161.901 11.5914C160.552 11.6439 159.635 11.7316 159.15 11.8566C158.67 11.9746 158.324 12.0896 158.11 12.2015C157.896 12.3134 157.727 12.4445 157.604 12.5958C157.403 12.8449 157.302 13.222 157.302 13.7282C157.302 14.2263 157.477 14.6277 157.828 14.9292C158.177 15.2246 158.68 15.3729 159.334 15.3729C160.26 15.3729 161.11 15.0502 161.881 14.4068ZM172.398 16.9974C172.268 16.9641 172.061 16.948 171.776 16.948H168.675C168.053 16.948 167.655 16.836 167.48 16.6132C167.408 16.5275 167.373 16.4297 167.373 16.3177C167.373 16.0424 167.425 15.8388 167.529 15.7077C167.684 15.7601 167.859 15.7863 168.053 15.7863C168.254 15.7863 168.403 15.7036 168.5 15.5403C168.605 15.3759 168.652 15.0704 168.646 14.6237V8.18408C168.646 7.56695 168.533 7.18275 168.306 7.03149C168.215 6.972 168.096 6.94276 167.947 6.94276C167.797 6.94276 167.678 6.96594 167.586 7.01132C167.503 7.0577 167.431 7.09099 167.373 7.11015C167.322 7.13032 167.276 7.13032 167.237 7.11015C167.198 7.08393 167.159 7.04762 167.12 7.00224C167.023 6.89737 166.974 6.78847 166.974 6.67654C166.974 6.55856 167.013 6.43755 167.091 6.31251C167.175 6.18142 167.309 6.03319 167.49 5.86983C167.671 5.6984 167.878 5.54412 168.112 5.40698C168.636 5.09841 169.162 4.94413 169.686 4.94413C170.289 4.94413 170.645 5.34748 170.755 6.1552C170.788 6.39116 170.807 6.63419 170.814 6.88427C171.78 6.06344 172.829 5.47857 173.963 5.13068C174.372 5.00665 174.783 4.94413 175.198 4.94413C175.619 4.94413 176.018 4.99959 176.393 5.11152C176.775 5.22244 177.106 5.40295 177.385 5.65303C177.975 6.1784 178.269 6.99822 178.269 8.11451V14.791C178.288 15.3033 178.476 15.6189 178.833 15.7369C178.93 15.7692 179.05 15.7994 179.193 15.8256C179.335 15.8519 179.462 15.8841 179.571 15.9235C179.689 15.9567 179.779 15.9961 179.844 16.0425C179.955 16.1272 180.009 16.2653 180.009 16.4559C180.009 16.6858 179.957 16.8663 179.854 16.9974C179.724 16.9641 179.517 16.948 179.232 16.948H176.13C175.508 16.948 175.11 16.836 174.935 16.6132C174.864 16.5275 174.828 16.4297 174.828 16.3177C174.828 16.0424 174.88 15.8388 174.984 15.7077C175.139 15.7601 175.282 15.7863 175.412 15.7863C175.548 15.7863 175.661 15.7692 175.752 15.7369C175.843 15.6976 175.913 15.6351 175.965 15.5494C176.057 15.392 176.102 15.0835 176.102 14.6237V8.81433C176.102 7.69804 175.774 7.07385 175.12 6.94276C174.919 6.90343 174.666 6.88427 174.362 6.88427C174.064 6.88427 173.734 6.92965 173.37 7.02141C173.007 7.11318 172.668 7.23216 172.35 7.37636C171.741 7.65165 171.228 7.99954 170.814 8.42004V14.791C170.833 15.3033 171.018 15.6189 171.368 15.7369C171.471 15.7692 171.592 15.7994 171.728 15.8256C171.87 15.8519 172 15.8841 172.116 15.9235C172.233 15.9567 172.324 15.9961 172.389 16.0425C172.498 16.1272 172.554 16.2653 172.554 16.4559C172.554 16.6858 172.502 16.8663 172.398 16.9974ZM188.456 8.53803L188.466 8.18408C188.466 8.05904 188.437 7.8493 188.378 7.55384C188.32 7.25133 188.132 7.00527 187.815 6.81468C187.503 6.6241 187.105 6.52931 186.619 6.52931C186.14 6.52931 185.712 6.65435 185.336 6.90343C184.966 7.14645 184.666 7.47418 184.432 7.88863C183.992 8.67618 183.771 9.72993 183.771 11.0489C183.771 12.2963 184.069 13.3107 184.666 14.0922C185.275 14.8929 186.078 15.2932 187.076 15.2932C187.983 15.2932 188.851 15.0411 189.681 14.5349C189.882 14.4109 190.037 14.302 190.148 14.2102C190.213 14.2102 190.286 14.2626 190.371 14.3675C190.533 14.5581 190.614 14.7124 190.614 14.8304C190.614 14.9423 190.569 15.0734 190.478 15.2246C190.387 15.3688 190.254 15.5261 190.079 15.6976C189.911 15.8619 189.707 16.0293 189.467 16.1998C189.227 16.3702 188.958 16.5245 188.66 16.6626C187.98 16.9772 187.283 17.1355 186.571 17.1355C185.858 17.1355 185.19 17.0135 184.568 16.7705C183.953 16.5214 183.421 16.1564 182.973 15.6774C182.015 14.66 181.535 13.2613 181.535 11.4825C181.535 9.4607 182.144 7.83619 183.363 6.60797C184.47 5.49874 185.75 4.94413 187.203 4.94413C188.155 4.94413 188.949 5.15085 189.584 5.56428C190.251 5.99789 190.585 6.56864 190.585 7.27754C190.585 7.66476 190.5 7.9572 190.332 8.15383C190.04 8.50173 189.7 8.67617 189.312 8.67617C188.93 8.67617 188.644 8.62979 188.456 8.53803ZM195.843 10.2321L195.833 12.8217C195.833 13.9047 195.889 14.5581 195.999 14.782C196.109 14.9978 196.238 15.1299 196.388 15.1752C196.537 15.2146 196.728 15.2347 196.961 15.2347C197.195 15.2347 197.405 15.2186 197.593 15.1853C197.787 15.146 197.969 15.0966 198.138 15.0371C198.306 14.9786 198.468 14.9131 198.623 14.8405L199.1 14.6337C199.21 14.5944 199.333 14.7094 199.469 14.9786C199.508 15.0502 199.527 15.1359 199.527 15.2347C199.527 15.3265 199.488 15.4475 199.411 15.5988C199.333 15.75 199.181 15.9235 198.954 16.1211C198.734 16.3107 198.474 16.4821 198.176 16.6334C197.528 16.9682 196.945 17.1355 196.427 17.1355C195.915 17.1355 195.497 17.1053 195.172 17.0468C194.849 16.9873 194.573 16.8693 194.346 16.6919C193.881 16.3248 193.647 15.6512 193.647 14.6731V6.9236H192.684C192.484 6.9236 192.338 6.85704 192.247 6.72595C192.092 6.52225 192.013 6.35184 192.013 6.21369C192.013 5.98479 192.069 5.85672 192.179 5.8305C193.21 5.65302 193.938 4.87858 194.366 3.50616C194.489 3.09272 194.586 2.60365 194.658 2.03896C194.968 1.98652 195.202 1.96031 195.358 1.96031C195.52 1.96031 195.659 2.04198 195.776 2.20635C195.892 2.37072 195.947 2.5603 195.941 2.7771C195.941 2.9939 195.938 3.1976 195.931 3.38819C195.925 3.57877 195.918 3.78549 195.912 4.00834L195.872 5.38681H199.235C199.32 5.53807 199.362 5.6984 199.362 5.86983V6.17436C199.362 6.45066 199.217 6.67654 198.925 6.85401C198.633 7.02544 198.309 7.11015 197.952 7.11015C197.603 7.11015 197.35 7.10711 197.195 7.10005C197.046 7.08695 196.899 7.07385 196.757 7.06074L196.329 7.00224C196.181 6.98913 196.021 6.97604 195.853 6.96293V7.07082L195.843 10.2321ZM203.396 3.11188C203.176 3.11188 202.972 3.07962 202.784 3.01407C202.603 2.94147 202.444 2.83962 202.307 2.70853C202.022 2.43223 201.88 2.06215 201.88 1.59527C201.88 1.14956 202.048 0.771417 202.385 0.46285C202.709 0.154283 203.098 0 203.551 0C204.005 0 204.369 0.138145 204.64 0.414443C204.912 0.689733 205.048 1.06385 205.048 1.53679C205.048 1.9835 204.886 2.36063 204.563 2.6692C204.245 2.96466 203.856 3.11188 203.396 3.11188ZM202.803 16.948C201.806 16.948 201.306 16.7181 201.306 16.2582C201.306 16.0223 201.359 15.8388 201.462 15.7077C201.617 15.7601 201.76 15.7863 201.889 15.7863C202.492 15.7863 202.787 15.3991 202.774 14.6237V8.02575C202.774 7.56694 202.709 7.2483 202.58 7.07082C202.456 6.88729 202.232 6.79553 201.909 6.79553C201.669 6.79553 201.452 6.82478 201.258 6.88427C201.141 6.89738 201.057 6.80461 201.005 6.60797C200.959 6.43049 200.985 6.27621 201.083 6.14512C201.179 6.00697 201.329 5.86579 201.53 5.72159C201.737 5.57033 201.964 5.43924 202.211 5.32832C202.741 5.07219 203.185 4.94413 203.542 4.94413C203.899 4.94413 204.161 4.99656 204.33 5.10143C204.504 5.20631 204.637 5.34748 204.728 5.52496C204.87 5.81335 204.942 6.28025 204.942 6.9236V14.791C204.961 15.3104 205.146 15.625 205.495 15.7369C205.593 15.7692 205.713 15.7994 205.856 15.8256C205.998 15.8519 206.124 15.8841 206.235 15.9235C206.351 15.9567 206.442 15.9961 206.507 16.0425C206.617 16.1272 206.672 16.2653 206.672 16.4559C206.672 16.6918 206.623 16.8723 206.526 16.9974C206.39 16.9641 206.183 16.948 205.904 16.948H202.803ZM222.175 17.0266C222.026 16.9742 221.706 16.948 221.213 16.948H216.217C215.88 16.948 215.611 16.8955 215.41 16.7907C215.21 16.6787 215.109 16.4791 215.109 16.1897C215.109 15.9799 215.157 15.8125 215.255 15.6875C215.502 15.753 215.737 15.7863 215.964 15.7863C216.191 15.7863 216.369 15.7631 216.499 15.7167C216.628 15.6643 216.742 15.5756 216.839 15.4515C217.033 15.1884 217.131 14.7517 217.131 14.1416V4.25439C217.131 3.64432 216.775 3.26314 216.062 3.11188C215.614 3.02012 215.322 2.91525 215.187 2.79727C215.051 2.67929 214.983 2.55122 214.983 2.41307C214.983 2.11055 215.035 1.90787 215.138 1.80199C215.255 1.83527 215.362 1.8514 215.459 1.8514H217.869L221.33 1.75359C224.362 1.75359 226.281 2.59055 227.084 4.26447C227.376 4.86849 227.521 5.47252 227.521 6.07655C227.521 6.68057 227.48 7.19586 227.395 7.62241C227.311 8.04895 227.165 8.46643 226.958 8.87281C226.757 9.27314 226.488 9.65431 226.151 10.0153C225.814 10.3703 225.393 10.6818 224.888 10.9511C223.793 11.5289 222.392 11.8173 220.688 11.8173H220.319C220.138 11.8173 220.047 11.6993 220.047 11.4634C220.047 10.944 220.187 10.6526 220.464 10.5861C222.901 10.6385 224.376 9.90338 224.888 8.38071C225.043 7.90173 225.121 7.38947 225.121 6.84393C225.121 6.2994 225.063 5.80025 224.945 5.34748C224.829 4.88766 224.619 4.48128 224.314 4.12633C223.641 3.35189 222.526 2.96466 220.97 2.96466C220.342 2.96466 219.924 3.10281 219.717 3.3781C219.522 3.62112 219.425 4.11322 219.425 4.85539V14.6932C219.457 15.2045 219.859 15.5171 220.63 15.628C221.323 15.7268 221.754 15.8186 221.923 15.9043C222.092 15.989 222.201 16.0747 222.253 16.1604C222.305 16.2391 222.331 16.3379 222.331 16.4559C222.331 16.705 222.279 16.8955 222.175 17.0266ZM229.048 11.6499C229.048 10.8553 229.129 10.1494 229.291 9.53229C229.452 8.91616 229.67 8.36458 229.942 7.87853C230.221 7.38644 230.544 6.95586 230.915 6.58881C231.29 6.22074 231.692 5.91521 232.119 5.67218C232.962 5.18715 233.791 4.94413 234.607 4.94413C235.425 4.94413 236.078 5.09136 236.571 5.38681C237.064 5.67622 237.466 6.06344 237.777 6.54948C238.353 7.47418 238.641 8.70542 238.641 10.2422C238.641 10.813 238.406 11.1054 237.932 11.1185L231.147 11.2657C231.186 12.6906 231.55 13.7443 232.236 14.427C232.82 15.0048 233.574 15.2932 234.501 15.2932C235.881 15.2932 237.002 15.0018 237.864 14.4169C237.923 14.4169 237.994 14.4663 238.078 14.5652C238.24 14.7618 238.321 14.9322 238.321 15.0774C238.321 15.392 237.932 15.7954 237.154 16.2885C236.261 16.8532 235.216 17.1355 234.025 17.1355C232.469 17.1355 231.248 16.6334 230.36 15.628C229.485 14.6438 229.048 13.3178 229.048 11.6499ZM231.206 9.99514C233.072 9.90338 234.78 9.78238 236.328 9.63112C236.4 7.54376 235.686 6.50007 234.19 6.50007C233.354 6.50007 232.67 6.8278 232.139 7.48426C231.653 8.08829 231.342 8.92524 231.206 9.99514ZM246.184 16.9974C246.049 16.9641 245.841 16.948 245.562 16.948H242.268C241.645 16.948 241.246 16.836 241.072 16.6132C241.001 16.5275 240.965 16.4297 240.965 16.3177C240.965 16.0424 241.016 15.8388 241.12 15.7077C241.276 15.7601 241.419 15.7863 241.548 15.7863C241.684 15.7863 241.798 15.7692 241.888 15.7369C241.979 15.6976 242.051 15.6351 242.102 15.5494C242.193 15.392 242.238 15.0835 242.238 14.6237V8.18408C242.238 7.56695 242.125 7.18275 241.898 7.03149C241.808 6.972 241.687 6.94276 241.538 6.94276C241.39 6.94276 241.269 6.96594 241.179 7.01132C241.094 7.0577 241.023 7.09099 240.965 7.11015C240.913 7.13032 240.868 7.13032 240.828 7.11015C240.789 7.08393 240.751 7.04762 240.712 7.00224C240.615 6.88426 240.567 6.77234 240.567 6.66746C240.567 6.55553 240.605 6.43755 240.683 6.31251C240.768 6.18142 240.9 6.03319 241.081 5.86983C241.263 5.6984 241.47 5.54412 241.703 5.40698C242.229 5.09841 242.753 4.94413 243.278 4.94413C243.874 4.94413 244.227 5.3374 244.338 6.12596C244.37 6.35486 244.39 6.59486 244.396 6.84393C245.342 5.9979 246.318 5.41605 247.322 5.10143C247.658 4.99656 247.963 4.94413 248.236 4.94413C248.514 4.94413 248.741 4.98345 248.916 5.06211C249.098 5.14076 249.24 5.24866 249.344 5.38681C249.538 5.65605 249.635 6.00091 249.635 6.42141C249.635 6.8409 249.616 7.1757 249.577 7.42578C249.538 7.67485 249.49 7.89467 249.431 8.08525C249.315 8.47248 249.204 8.71852 249.101 8.82339C248.92 9.01398 248.677 9.10978 248.372 9.10978C248.061 9.10978 247.905 9.01701 247.905 8.83348C247.905 8.13165 247.876 7.68191 247.818 7.48426C247.707 7.12326 247.5 6.94276 247.196 6.94276C246.891 6.94276 246.615 6.97906 246.369 7.05166C246.123 7.11721 245.884 7.20897 245.65 7.32695C245.177 7.56291 244.762 7.86846 244.406 8.24257V14.791C244.426 15.3104 244.648 15.625 245.076 15.7369C245.2 15.7692 245.339 15.7994 245.495 15.8256C245.65 15.8519 245.783 15.8841 245.893 15.9235C246.01 15.9567 246.101 15.9961 246.165 16.0425C246.275 16.1272 246.331 16.2653 246.331 16.4559C246.331 16.6918 246.282 16.8723 246.184 16.9974ZM251.035 11.6499C251.035 10.8553 251.116 10.1494 251.279 9.53229C251.44 8.91616 251.657 8.36458 251.929 7.87853C252.208 7.38644 252.532 6.95586 252.901 6.58881C253.277 6.22074 253.679 5.91521 254.106 5.67218C254.949 5.18715 255.778 4.94413 256.595 4.94413C257.412 4.94413 258.066 5.09136 258.559 5.38681C259.051 5.67622 259.452 6.06344 259.764 6.54948C260.34 7.47418 260.629 8.70542 260.629 10.2422C260.629 10.813 260.392 11.1054 259.919 11.1185L253.135 11.2657C253.174 12.6906 253.536 13.7443 254.223 14.427C254.806 15.0048 255.562 15.2932 256.488 15.2932C257.869 15.2932 258.99 15.0018 259.851 14.4169C259.909 14.4169 259.981 14.4663 260.065 14.5652C260.227 14.7618 260.308 14.9322 260.308 15.0774C260.308 15.392 259.919 15.7954 259.142 16.2885C258.247 16.8532 257.204 17.1355 256.011 17.1355C254.457 17.1355 253.235 16.6334 252.348 15.628C251.473 14.6438 251.035 13.3178 251.035 11.6499ZM253.193 9.99514C255.059 9.90338 256.767 9.78238 258.316 9.63112C258.386 7.54376 257.674 6.50007 256.177 6.50007C255.342 6.50007 254.658 6.8278 254.126 7.48426C253.64 8.08829 253.329 8.92524 253.193 9.99514ZM266.539 13.0193C266.292 13.2684 266.169 13.5114 266.169 13.7474C266.169 13.9843 266.238 14.1648 266.374 14.2889C266.509 14.4068 266.688 14.4996 266.909 14.5652C267.245 14.6569 267.618 14.7023 268.026 14.7023H268.862C270.975 14.7023 272.364 15.2146 273.032 16.2391C273.278 16.6192 273.401 17.0821 273.401 17.6276C273.401 18.1792 273.311 18.6612 273.129 19.0747C272.947 19.4891 272.704 19.8531 272.4 20.1678C272.095 20.4894 271.742 20.7657 271.341 20.9957C270.939 21.2256 270.515 21.4121 270.067 21.5563C269.193 21.8518 268.376 22 267.618 22C266.86 22 266.195 21.9375 265.626 21.8125C265.061 21.6945 264.559 21.5069 264.119 21.2518C263.166 20.6931 262.689 19.8925 262.689 18.8488C262.689 17.9624 263.127 17.1678 264.002 16.465C264.268 16.2552 264.55 16.0687 264.847 15.9043C264.498 15.6088 264.323 15.2115 264.323 14.7124C264.323 13.9309 264.705 13.2744 265.469 12.743C264.348 12.3094 263.613 11.5349 263.264 10.4187C263.153 10.0516 263.098 9.64119 263.098 9.18843C263.098 8.73465 263.166 8.30811 263.302 7.90778C263.445 7.50745 263.636 7.14947 263.876 6.83486C264.122 6.51923 264.407 6.24394 264.731 6.00697C265.055 5.77101 265.402 5.57437 265.771 5.41606C266.496 5.10144 267.258 4.94413 268.055 4.94413C269.371 4.94413 270.42 5.27891 271.204 5.94848C271.289 5.61975 271.331 5.28194 271.331 4.93404C271.331 4.58615 271.256 4.3038 271.107 4.087C271.36 3.78549 271.736 3.63423 272.235 3.63423C272.52 3.63423 272.747 3.71288 272.915 3.87019C273.239 4.15254 273.401 4.43489 273.401 4.71724C273.401 4.99354 273.359 5.23555 273.275 5.44631C273.19 5.65 273.081 5.84361 272.944 6.02713C272.704 6.36797 272.394 6.67654 272.012 6.95283C272.27 7.44493 272.4 8.01669 272.4 8.66609C272.4 9.30944 272.258 9.91044 271.973 10.4681C271.694 11.0197 271.318 11.4896 270.845 11.8768C269.873 12.6704 268.674 13.0677 267.248 13.0677C267.054 13.0677 266.817 13.0516 266.539 13.0193ZM266.062 10.9208C266.295 11.1508 266.561 11.3222 266.86 11.4331C267.157 11.545 267.475 11.6005 267.812 11.6005C268.156 11.6005 268.476 11.5511 268.775 11.4533C269.079 11.3544 269.341 11.2103 269.562 11.0197C270.035 10.6123 270.272 10.0355 270.272 9.28624C270.272 8.45936 270.061 7.76964 269.64 7.21906C269.16 6.60797 268.486 6.30243 267.618 6.30243C266.522 6.30243 265.813 6.7562 265.489 7.66173C265.379 7.9703 265.324 8.35147 265.324 8.80423C265.324 9.257 265.389 9.66439 265.518 10.0254C265.654 10.3864 265.836 10.6849 266.062 10.9208ZM266.072 16.4851C265.223 17.069 264.799 17.7325 264.799 18.4747C264.799 19.118 265.169 19.6071 265.907 19.9419C266.496 20.2172 267.222 20.3553 268.084 20.3553C268.868 20.3553 269.594 20.2242 270.262 19.9611C271.137 19.6132 271.574 19.0454 271.574 18.2579C271.574 17.2011 270.729 16.6727 269.037 16.6727L268.172 16.6818C267.291 16.6818 266.591 16.6162 266.072 16.4851ZM280.322 16.9974C280.186 16.9641 279.978 16.948 279.7 16.948H276.405C275.783 16.948 275.384 16.836 275.209 16.6132C275.138 16.5275 275.102 16.4297 275.102 16.3177C275.102 16.0424 275.154 15.8388 275.258 15.7077C275.414 15.7601 275.556 15.7863 275.686 15.7863C275.822 15.7863 275.935 15.7692 276.026 15.7369C276.117 15.6976 276.188 15.6351 276.24 15.5494C276.331 15.392 276.375 15.0835 276.375 14.6237V8.18408C276.375 7.56695 276.262 7.18275 276.036 7.03149C275.944 6.972 275.825 6.94276 275.676 6.94276C275.526 6.94276 275.407 6.96594 275.316 7.01132C275.232 7.0577 275.161 7.09099 275.102 7.11015C275.051 7.13032 275.005 7.13032 274.966 7.11015C274.927 7.08393 274.888 7.04762 274.849 7.00224C274.753 6.88426 274.704 6.77234 274.704 6.66746C274.704 6.55553 274.743 6.43755 274.821 6.31251C274.904 6.18142 275.038 6.03319 275.219 5.86983C275.401 5.6984 275.608 5.54412 275.841 5.40698C276.366 5.09841 276.891 4.94413 277.415 4.94413C278.012 4.94413 278.365 5.3374 278.476 6.12596C278.507 6.35486 278.527 6.59486 278.533 6.84393C279.48 5.9979 280.455 5.41605 281.46 5.10143C281.796 4.99656 282.101 4.94413 282.373 4.94413C282.652 4.94413 282.879 4.98345 283.053 5.06211C283.235 5.14076 283.378 5.24866 283.481 5.38681C283.675 5.65605 283.773 6.00091 283.773 6.42141C283.773 6.8409 283.753 7.1757 283.714 7.42578C283.675 7.67485 283.627 7.89467 283.569 8.08525C283.452 8.47248 283.342 8.71852 283.238 8.82339C283.057 9.01398 282.813 9.10978 282.509 9.10978C282.198 9.10978 282.043 9.01701 282.043 8.83348C282.043 8.13165 282.013 7.68191 281.955 7.48426C281.845 7.12326 281.638 6.94276 281.333 6.94276C281.029 6.94276 280.753 6.97906 280.507 7.05166C280.26 7.11721 280.02 7.20897 279.787 7.32695C279.315 7.56291 278.9 7.86846 278.543 8.24257V14.791C278.563 15.3104 278.786 15.625 279.214 15.7369C279.338 15.7692 279.477 15.7994 279.632 15.8256C279.787 15.8519 279.921 15.8841 280.03 15.9235C280.147 15.9567 280.238 15.9961 280.303 16.0425C280.412 16.1272 280.468 16.2653 280.468 16.4559C280.468 16.6918 280.419 16.8723 280.322 16.9974ZM287.438 3.11188C287.217 3.11188 287.013 3.07962 286.825 3.01407C286.643 2.94147 286.485 2.83962 286.349 2.70853C286.063 2.43223 285.921 2.06215 285.921 1.59527C285.921 1.14956 286.089 0.771417 286.426 0.46285C286.751 0.154283 287.139 0 287.593 0C288.047 0 288.409 0.138145 288.682 0.414443C288.954 0.689733 289.09 1.06385 289.09 1.53679C289.09 1.9835 288.928 2.36063 288.604 2.6692C288.287 2.96466 287.898 3.11188 287.438 3.11188ZM286.844 16.948C285.846 16.948 285.347 16.7181 285.347 16.2582C285.347 16.0223 285.399 15.8388 285.503 15.7077C285.659 15.7601 285.801 15.7863 285.931 15.7863C286.533 15.7863 286.829 15.3991 286.816 14.6237V8.02575C286.816 7.56694 286.751 7.2483 286.62 7.07082C286.498 6.88729 286.274 6.79553 285.951 6.79553C285.711 6.79553 285.494 6.82478 285.299 6.88427C285.182 6.89738 285.098 6.80461 285.046 6.60797C285.001 6.43049 285.027 6.27621 285.123 6.14512C285.221 6.00697 285.37 5.86579 285.571 5.72159C285.778 5.57033 286.005 5.43924 286.251 5.32832C286.783 5.07219 287.227 4.94413 287.583 4.94413C287.939 4.94413 288.202 4.99656 288.37 5.10143C288.545 5.20631 288.678 5.34748 288.769 5.52496C288.912 5.81335 288.982 6.28025 288.982 6.9236V14.791C289.002 15.3104 289.186 15.625 289.537 15.7369C289.634 15.7692 289.754 15.7994 289.896 15.8256C290.04 15.8519 290.166 15.8841 290.275 15.9235C290.392 15.9567 290.483 15.9961 290.548 16.0425C290.658 16.1272 290.713 16.2653 290.713 16.4559C290.713 16.6918 290.665 16.8723 290.567 16.9974C290.431 16.9641 290.224 16.948 289.945 16.948H286.844ZM297.381 16.9974C297.252 16.9641 297.044 16.948 296.759 16.948H293.659C293.037 16.948 292.637 16.836 292.462 16.6132C292.392 16.5275 292.356 16.4297 292.356 16.3177C292.356 16.0424 292.407 15.8388 292.511 15.7077C292.667 15.7601 292.841 15.7863 293.037 15.7863C293.237 15.7863 293.386 15.7036 293.483 15.5403C293.587 15.3759 293.636 15.0704 293.629 14.6237V8.18408C293.629 7.56695 293.515 7.18275 293.289 7.03149C293.198 6.972 293.078 6.94276 292.929 6.94276C292.78 6.94276 292.66 6.96594 292.57 7.01132C292.485 7.0577 292.414 7.09099 292.356 7.11015C292.304 7.13032 292.258 7.13032 292.219 7.11015C292.181 7.08393 292.142 7.04762 292.103 7.00224C292.005 6.89737 291.958 6.78847 291.958 6.67654C291.958 6.55856 291.996 6.43755 292.074 6.31251C292.158 6.18142 292.291 6.03319 292.472 5.86983C292.654 5.6984 292.861 5.54412 293.094 5.40698C293.62 5.09841 294.144 4.94413 294.669 4.94413C295.272 4.94413 295.628 5.34748 295.738 6.1552C295.771 6.39116 295.791 6.63419 295.797 6.88427C296.762 6.06344 297.812 5.47857 298.946 5.13068C299.354 5.00665 299.766 4.94413 300.18 4.94413C300.602 4.94413 301 4.99959 301.377 5.11152C301.759 5.22244 302.089 5.40295 302.368 5.65303C302.957 6.1784 303.252 6.99822 303.252 8.11451V14.791C303.272 15.3033 303.46 15.6189 303.816 15.7369C303.913 15.7692 304.033 15.7994 304.176 15.8256C304.318 15.8519 304.444 15.8841 304.555 15.9235C304.671 15.9567 304.762 15.9961 304.826 16.0425C304.937 16.1272 304.992 16.2653 304.992 16.4559C304.992 16.6858 304.94 16.8663 304.836 16.9974C304.707 16.9641 304.5 16.948 304.214 16.948H301.114C300.492 16.948 300.093 16.836 299.918 16.6132C299.847 16.5275 299.811 16.4297 299.811 16.3177C299.811 16.0424 299.863 15.8388 299.967 15.7077C300.122 15.7601 300.265 15.7863 300.394 15.7863C300.531 15.7863 300.644 15.7692 300.735 15.7369C300.825 15.6976 300.897 15.6351 300.949 15.5494C301.039 15.392 301.085 15.0835 301.085 14.6237V8.81433C301.085 7.69804 300.757 7.07385 300.103 6.94276C299.901 6.90343 299.65 6.88427 299.345 6.88427C299.046 6.88427 298.716 6.92965 298.353 7.02141C297.99 7.11318 297.65 7.23216 297.332 7.37636C296.723 7.65165 296.212 7.99954 295.797 8.42004V14.791C295.817 15.3033 296.001 15.6189 296.351 15.7369C296.455 15.7692 296.574 15.7994 296.71 15.8256C296.853 15.8519 296.982 15.8841 297.1 15.9235C297.216 15.9567 297.307 15.9961 297.371 16.0425C297.482 16.1272 297.537 16.2653 297.537 16.4559C297.537 16.6858 297.485 16.8663 297.381 16.9974ZM308.724 3.11188C308.504 3.11188 308.3 3.07962 308.112 3.01407C307.931 2.94147 307.772 2.83962 307.636 2.70853C307.351 2.43223 307.208 2.06215 307.208 1.59527C307.208 1.14956 307.377 0.771417 307.714 0.46285C308.038 0.154283 308.427 0 308.881 0C309.333 0 309.697 0.138145 309.968 0.414443C310.241 0.689733 310.378 1.06385 310.378 1.53679C310.378 1.9835 310.215 2.36063 309.891 2.6692C309.573 2.96466 309.185 3.11188 308.724 3.11188ZM308.132 16.948C307.134 16.948 306.635 16.7181 306.635 16.2582C306.635 16.0223 306.687 15.8388 306.79 15.7077C306.946 15.7601 307.088 15.7863 307.218 15.7863C307.82 15.7863 308.115 15.3991 308.102 14.6237V8.02575C308.102 7.56694 308.037 7.2483 307.908 7.07082C307.785 6.88729 307.562 6.79553 307.237 6.79553C306.997 6.79553 306.78 6.82478 306.586 6.88427C306.47 6.89738 306.385 6.80461 306.333 6.60797C306.288 6.43049 306.314 6.27621 306.411 6.14512C306.509 6.00697 306.658 5.86579 306.858 5.72159C307.066 5.57033 307.293 5.43924 307.539 5.32832C308.07 5.07219 308.514 4.94413 308.871 4.94413C309.227 4.94413 309.49 4.99656 309.658 5.10143C309.833 5.20631 309.965 5.34748 310.056 5.52496C310.198 5.81335 310.27 6.28025 310.27 6.9236V14.791C310.29 15.3104 310.474 15.625 310.824 15.7369C310.921 15.7692 311.041 15.7994 311.184 15.8256C311.326 15.8519 311.453 15.8841 311.563 15.9235C311.68 15.9567 311.77 15.9961 311.835 16.0425C311.945 16.1272 312 16.2653 312 16.4559C312 16.6918 311.952 16.8723 311.855 16.9974C311.718 16.9641 311.511 16.948 311.233 16.948H308.132Z" fill="#010101"/>
<path d="M22.8726 290.516C22.8726 290.516 39.5571 285.911 75.392 308.255C75.392 308.255 96.004 325.803 118.075 332.819C118.075 332.819 127.2 334.269 132.486 328.975L143.031 313.507C143.031 313.507 136.207 315.425 130.497 313.579L52.767 271.553C52.767 271.553 32.0169 262.84 21.2537 273.612C21.2546 273.612 15.2325 283.043 22.8726 290.516Z" fill="white" stroke="black" stroke-width="1.75"/>
<path d="M290.231 288.988C290.231 288.988 273.493 284.573 237.922 307.328C237.922 307.328 217.517 325.107 195.529 332.375C195.529 332.375 186.423 333.931 181.076 328.7L170.349 313.352C170.349 313.352 177.196 315.192 182.883 313.281L260.117 270.369C260.117 270.369 280.765 261.418 291.653 272.068C291.651 272.066 297.783 281.427 290.231 288.988Z" fill="white" stroke="black" stroke-width="1.75"/>
<path d="M121.806 321.145C121.806 321.145 137.201 322.379 127.664 331.924C127.664 331.924 137.438 331.204 146.997 309.539C146.997 309.539 149.423 302.195 139.548 302.252L121.806 321.145Z" fill="white" stroke="black" stroke-width="1.75"/>
<path d="M191.867 320.744C191.867 320.744 176.487 322.154 186.133 331.591C186.133 331.591 176.353 330.982 166.543 309.427C166.543 309.427 164.029 302.111 173.905 302.055L191.867 320.744Z" fill="white" stroke="black" stroke-width="1.75"/>
<path d="M19.0903 283.079C19.0903 283.079 24.4645 302.91 30.577 308.888C36.6894 314.866 136.898 309.011 158.546 308.888C180.197 308.762 275.424 313.842 283.362 305.988C294.828 294.643 293.35 275.925 293.35 275.925C293.35 275.925 281.345 291.226 248.28 288.032C215.159 289.32 158.546 288.032 158.546 288.032C158.546 288.032 90.6501 288.032 62.7401 288.032C27.0612 292.37 19.0903 283.079 19.0903 283.079Z" fill="white" stroke="black" stroke-width="1.75"/>
<path d="M53.1042 296.198C53.1042 294.918 52.6482 294.114 51.7362 293.79C51.4232 293.677 51.0572 293.622 50.6372 293.622C50.2172 293.622 49.8562 293.67 49.5542 293.764C49.2522 293.86 49.0002 293.989 48.7992 294.151C48.3912 294.481 48.1862 294.918 48.1862 295.46C48.1862 296.282 48.7912 296.984 49.9992 297.566L51.0482 298.061C51.5572 298.297 52.0472 298.537 52.5172 298.783C52.9922 299.024 53.4122 299.3 53.7762 299.614C54.5762 300.296 54.9762 301.141 54.9762 302.148C54.9762 303.229 54.5062 304.098 53.5662 304.758C52.6872 305.374 51.5852 305.682 50.2592 305.682C49.2072 305.682 48.2792 305.516 47.4732 305.186C46.8802 304.952 46.4582 304.619 46.2062 304.188C46.0772 303.969 46.0132 303.704 46.0132 303.391C46.0132 302.764 46.1692 302.179 46.4832 301.637C46.5892 301.508 46.7352 301.444 46.9192 301.444C47.2772 301.444 47.4842 301.55 47.5402 301.762C47.6132 302.73 47.9092 303.436 48.4302 303.877C48.9562 304.319 49.6892 304.54 50.6292 304.54C51.7082 304.54 52.4332 304.188 52.8022 303.483C52.9312 303.236 52.9952 302.948 52.9952 302.618C52.9952 302.282 52.9062 301.983 52.7272 301.72C52.5482 301.457 52.3102 301.214 52.0132 300.991C51.5602 300.655 50.9592 300.33 50.2092 300.017C49.4652 299.703 48.8832 299.429 48.4632 299.195C48.0492 298.959 47.6832 298.685 47.3642 298.372C46.6702 297.689 46.3232 296.848 46.3232 295.846C46.3232 294.822 46.7632 294.002 47.6412 293.387C48.4862 292.794 49.5772 292.498 50.9142 292.498C52.6092 292.498 53.7172 292.847 54.2372 293.546C54.4272 293.798 54.5232 294.129 54.5232 294.537C54.5232 294.945 54.4832 295.3 54.4052 295.602C54.3322 295.905 54.2602 296.1 54.1872 296.19C54.0642 296.341 53.8512 296.416 53.5492 296.416C53.2532 296.416 53.1042 296.344 53.1042 296.198ZM65.8102 305.589C65.6822 305.545 65.4052 305.522 64.9792 305.522H60.1792C59.8882 305.522 59.6532 305.478 59.4742 305.388C59.3012 305.293 59.2142 305.123 59.2142 304.876C59.2142 304.702 59.2592 304.56 59.3482 304.448C59.5612 304.504 59.7622 304.532 59.9522 304.532C60.1432 304.532 60.3222 304.512 60.4902 304.473C60.6572 304.434 60.8172 304.364 60.9682 304.263C61.3262 304.034 61.5162 303.684 61.5392 303.214V293.882H60.4482C59.6362 293.882 59.1052 293.922 58.8532 294C58.6072 294.072 58.4192 294.167 58.2912 294.285C58.1682 294.403 58.0672 294.562 57.9892 294.763C57.8492 295.11 57.7402 295.709 57.6612 296.559C57.5382 296.587 57.4262 296.601 57.3262 296.601C57.1022 296.601 56.9592 296.543 56.8982 296.425C56.8362 296.307 56.7942 296.187 56.7722 296.064C56.7492 295.935 56.7332 295.796 56.7212 295.645C56.6992 295.342 56.6882 295.021 56.6882 294.679C56.6882 293.745 56.7612 293.152 56.9062 292.9C57.0512 292.632 57.3422 292.498 57.7792 292.498C57.8632 292.498 57.9862 292.506 58.1482 292.522C58.3102 292.54 58.5452 292.559 58.8532 292.581C59.6872 292.632 60.6852 292.656 61.8492 292.656H63.2672C64.8902 292.656 65.9752 292.632 66.5242 292.581C67.0722 292.525 67.4132 292.498 67.5482 292.498C67.6822 292.498 67.8052 292.517 67.9172 292.556C68.0292 292.595 68.1182 292.651 68.1852 292.724C68.2922 292.847 68.3452 293.001 68.3452 293.186C68.3452 293.465 68.3362 293.689 68.3202 293.857C68.3032 294.025 68.2832 294.223 68.2612 294.453C68.2442 294.682 68.2192 294.92 68.1852 295.166C68.1072 295.748 68.0092 296.148 67.8922 296.366C67.7802 296.523 67.6432 296.601 67.4802 296.601C67.3242 296.601 67.1842 296.587 67.0612 296.559L67.0692 296.03C67.0692 295.533 67.0412 295.141 66.9852 294.856C66.9292 294.564 66.8122 294.349 66.6332 294.209C66.4542 294.064 66.1962 293.974 65.8612 293.94C65.5252 293.902 65.0772 293.882 64.5182 293.882H63.5112V303.541C63.5112 303.944 63.8322 304.225 64.4762 304.381C64.6332 304.414 64.7812 304.445 64.9212 304.473C65.0662 304.501 65.2062 304.532 65.3402 304.566C65.4752 304.593 65.5872 304.63 65.6762 304.675C65.8552 304.764 65.9452 304.915 65.9452 305.128C65.9452 305.324 65.9002 305.478 65.8102 305.589ZM77.7362 304.532C77.9712 304.571 78.1472 304.591 78.2652 304.591C78.3822 304.591 78.4972 304.579 78.6092 304.557C78.7262 304.529 78.8302 304.488 78.9192 304.431C79.1212 304.308 79.2212 304.115 79.2212 303.852C79.2212 303.634 79.1542 303.391 79.0202 303.122L78.2312 301.167H72.9192L71.9792 303.55C71.8892 303.768 71.8442 303.928 71.8442 304.029C71.8442 304.123 71.8582 304.196 71.8862 304.247C71.9202 304.292 71.9682 304.33 72.0292 304.364C72.0962 304.397 72.1772 304.426 72.2722 304.448L72.6162 304.54C72.9862 304.602 73.2242 304.658 73.3302 304.708C73.5482 304.814 73.6572 304.971 73.6572 305.178C73.6572 305.329 73.6152 305.458 73.5312 305.564C73.4252 305.536 73.3272 305.522 73.2372 305.522H69.8222C69.0782 305.522 68.7062 305.318 68.7062 304.909C68.7062 304.72 68.7482 304.566 68.8322 304.448C69.0392 304.504 69.2122 304.532 69.3522 304.532C69.4972 304.532 69.6182 304.51 69.7132 304.465C69.8132 304.42 69.9092 304.345 69.9982 304.238C70.1492 304.054 70.3252 303.684 70.5272 303.131L74.6732 293.093C74.7902 292.825 75.1232 292.64 75.6712 292.54C75.8222 292.511 75.9822 292.498 76.1502 292.498C76.4912 292.498 76.7012 292.589 76.7792 292.774L77.6182 294.872C79.2352 298.688 80.1702 300.915 80.4212 301.553L81.1772 303.534C81.3282 303.964 81.4542 304.23 81.5542 304.33C81.6552 304.431 81.7642 304.501 81.8822 304.54C81.9992 304.579 82.1192 304.613 82.2432 304.641C82.3712 304.664 82.4832 304.694 82.5782 304.733C82.7912 304.829 82.8972 304.974 82.8972 305.17C82.8972 305.321 82.8552 305.449 82.7712 305.556C82.6652 305.528 82.5702 305.514 82.4862 305.514H78.4832C78.1972 305.514 77.9742 305.48 77.8112 305.413C77.6552 305.34 77.5762 305.231 77.5762 305.086C77.5762 304.834 77.6292 304.649 77.7362 304.532ZM77.7442 299.975L75.5452 294.537L73.3892 299.975H77.7442ZM92.5152 305.589C92.3862 305.545 92.1092 305.522 91.6842 305.522H86.8842C86.5932 305.522 86.3582 305.478 86.1782 305.388C86.0052 305.293 85.9182 305.123 85.9182 304.876C85.9182 304.702 85.9632 304.56 86.0532 304.448C86.2652 304.504 86.4672 304.532 86.6572 304.532C86.8472 304.532 87.0262 304.512 87.1942 304.473C87.3622 304.434 87.5212 304.364 87.6722 304.263C88.0302 304.034 88.2212 303.684 88.2432 303.214V293.882H87.1522C86.3412 293.882 85.8092 293.922 85.5572 294C85.3112 294.072 85.1242 294.167 84.9952 294.285C84.8722 294.403 84.7712 294.562 84.6932 294.763C84.5532 295.11 84.4442 295.709 84.3662 296.559C84.2432 296.587 84.1312 296.601 84.0302 296.601C83.8062 296.601 83.6642 296.543 83.6022 296.425C83.5412 296.307 83.4992 296.187 83.4762 296.064C83.4542 295.935 83.4372 295.796 83.4262 295.645C83.4032 295.342 83.3922 295.021 83.3922 294.679C83.3922 293.745 83.4652 293.152 83.6102 292.9C83.7562 292.632 84.0472 292.498 84.4832 292.498C84.5672 292.498 84.6902 292.506 84.8532 292.522C85.0152 292.54 85.2502 292.559 85.5572 292.581C86.3912 292.632 87.3902 292.656 88.5542 292.656H89.9722C91.5942 292.656 92.6802 292.632 93.2282 292.581C93.7762 292.525 94.1182 292.498 94.2522 292.498C94.3862 292.498 94.5092 292.517 94.6212 292.556C94.7332 292.595 94.8232 292.651 94.8902 292.724C94.9962 292.847 95.0492 293.001 95.0492 293.186C95.0492 293.465 95.0412 293.689 95.0242 293.857C95.0072 294.025 94.9882 294.223 94.9652 294.453C94.9482 294.682 94.9232 294.92 94.8902 295.166C94.8112 295.748 94.7142 296.148 94.5962 296.366C94.4842 296.523 94.3472 296.601 94.1852 296.601C94.0282 296.601 93.8882 296.587 93.7652 296.559L93.7742 296.03C93.7742 295.533 93.7462 295.141 93.6902 294.856C93.6342 294.564 93.5162 294.349 93.3372 294.209C93.1582 294.064 92.9012 293.974 92.5652 293.94C92.2292 293.902 91.7822 293.882 91.2222 293.882H90.2152V303.541C90.2152 303.944 90.5372 304.225 91.1802 304.381C91.3372 304.414 91.4852 304.445 91.6252 304.473C91.7712 304.501 91.9112 304.532 92.0452 304.566C92.1792 304.593 92.2912 304.63 92.3802 304.675C92.5602 304.764 92.6492 304.915 92.6492 305.128C92.6492 305.324 92.6042 305.478 92.5152 305.589ZM108.267 293.639C107.841 293.639 107.62 294.08 107.604 294.965V300C107.604 301.847 107.148 303.256 106.236 304.23C105.341 305.197 104.063 305.682 102.401 305.682C100.991 305.682 99.8362 305.326 98.9352 304.616C97.7942 303.726 97.2232 302.249 97.2232 300.185V294.41C97.2172 294.17 97.1892 294.002 97.1392 293.907C97.0942 293.812 96.9882 293.748 96.8202 293.714C96.6522 293.681 96.5012 293.65 96.3672 293.622C96.2382 293.588 96.1292 293.549 96.0402 293.505C95.8602 293.414 95.7712 293.264 95.7712 293.051C95.7712 292.855 95.8162 292.701 95.9052 292.589C96.0342 292.634 96.3112 292.656 96.7362 292.656H99.9922C100.63 292.656 100.949 292.872 100.949 293.303C100.949 293.494 100.907 293.636 100.823 293.731C100.616 293.675 100.42 293.647 100.236 293.647C100.057 293.647 99.9112 293.67 99.7992 293.714C99.6932 293.753 99.5952 293.826 99.5062 293.933C99.3042 294.173 99.2032 294.545 99.2032 295.048V299.597C99.2032 301.326 99.5502 302.568 100.244 303.323C100.781 303.9 101.525 304.188 102.476 304.188C104.882 304.188 106.085 302.688 106.085 299.69V294.637C106.085 294.196 105.962 293.918 105.716 293.806C105.637 293.768 105.528 293.734 105.389 293.706C105.254 293.677 105.12 293.65 104.986 293.622C104.857 293.588 104.748 293.549 104.658 293.505C104.479 293.414 104.39 293.264 104.39 293.051C104.39 292.844 104.435 292.69 104.524 292.589C104.653 292.634 104.93 292.656 105.355 292.656H108.141C108.427 292.656 108.656 292.701 108.83 292.791C109.008 292.881 109.098 293.048 109.098 293.294C109.098 293.485 109.056 293.628 108.972 293.723C108.748 293.666 108.513 293.639 108.267 293.639ZM119.018 305.589C118.889 305.545 118.612 305.522 118.187 305.522H113.386C113.096 305.522 112.86 305.478 112.681 305.388C112.508 305.293 112.421 305.123 112.421 304.876C112.421 304.702 112.466 304.56 112.556 304.448C112.768 304.504 112.969 304.532 113.16 304.532C113.35 304.532 113.529 304.512 113.697 304.473C113.865 304.434 114.024 304.364 114.175 304.263C114.533 304.034 114.723 303.684 114.746 303.214V293.882H113.655C112.844 293.882 112.312 293.922 112.06 294C111.814 294.072 111.627 294.167 111.498 294.285C111.375 294.403 111.275 294.562 111.195 294.763C111.056 295.11 110.947 295.709 110.869 296.559C110.745 296.587 110.633 296.601 110.533 296.601C110.309 296.601 110.167 296.543 110.105 296.425C110.043 296.307 110.001 296.187 109.979 296.064C109.956 295.935 109.94 295.796 109.929 295.645C109.906 295.342 109.895 295.021 109.895 294.679C109.895 293.745 109.967 293.152 110.114 292.9C110.259 292.632 110.55 292.498 110.986 292.498C111.07 292.498 111.193 292.506 111.355 292.522C111.518 292.54 111.752 292.559 112.06 292.581C112.894 292.632 113.892 292.656 115.057 292.656H116.475C118.097 292.656 119.183 292.632 119.731 292.581C120.279 292.525 120.62 292.498 120.755 292.498C120.889 292.498 121.012 292.517 121.124 292.556C121.236 292.595 121.326 292.651 121.393 292.724C121.499 292.847 121.552 293.001 121.552 293.186C121.552 293.465 121.543 293.689 121.527 293.857C121.51 294.025 121.491 294.223 121.468 294.453C121.451 294.682 121.426 294.92 121.393 295.166C121.315 295.748 121.217 296.148 121.099 296.366C120.987 296.523 120.85 296.601 120.687 296.601C120.531 296.601 120.391 296.587 120.268 296.559L120.277 296.03C120.277 295.533 120.248 295.141 120.192 294.856C120.136 294.564 120.019 294.349 119.84 294.209C119.661 294.064 119.403 293.974 119.068 293.94C118.732 293.902 118.284 293.882 117.725 293.882H116.718V303.541C116.718 303.944 117.04 304.225 117.683 304.381C117.84 304.414 117.988 304.445 118.128 304.473C118.273 304.501 118.413 304.532 118.547 304.566C118.682 304.593 118.794 304.63 118.883 304.675C119.062 304.764 119.152 304.915 119.152 305.128C119.152 305.324 119.107 305.478 119.018 305.589ZM128.199 305.589C128.07 305.545 127.793 305.522 127.368 305.522H123.869C123.577 305.522 123.345 305.478 123.172 305.388C122.998 305.293 122.911 305.123 122.911 304.876C122.911 304.697 122.953 304.555 123.038 304.448C123.261 304.504 123.466 304.532 123.65 304.532C123.84 304.532 123.989 304.512 124.095 304.473C124.206 304.434 124.302 304.364 124.38 304.263C124.554 304.051 124.646 303.701 124.658 303.214V294.637C124.658 294.196 124.534 293.918 124.288 293.806C124.21 293.768 124.103 293.734 123.969 293.706C123.835 293.677 123.7 293.65 123.566 293.622C123.437 293.588 123.328 293.549 123.239 293.505C123.06 293.414 122.971 293.264 122.971 293.051C122.971 292.844 123.012 292.69 123.096 292.589C123.225 292.634 123.502 292.656 123.927 292.656H127.343C127.634 292.656 127.866 292.705 128.039 292.799C128.218 292.889 128.308 293.057 128.308 293.303C128.308 293.488 128.263 293.63 128.173 293.731C127.961 293.675 127.729 293.647 127.477 293.647C126.934 293.647 126.655 294.089 126.638 294.973V303.541C126.638 303.984 126.761 304.263 127.007 304.381C127.085 304.414 127.192 304.445 127.326 304.473C127.46 304.501 127.592 304.532 127.72 304.566C127.854 304.593 127.966 304.63 128.056 304.675C128.24 304.769 128.333 304.921 128.333 305.128C128.333 305.324 128.288 305.478 128.199 305.589ZM137.397 296.198C137.397 294.918 136.941 294.114 136.029 293.79C135.715 293.677 135.349 293.622 134.93 293.622C134.509 293.622 134.149 293.67 133.847 293.764C133.544 293.86 133.293 293.989 133.092 294.151C132.683 294.481 132.479 294.918 132.479 295.46C132.479 296.282 133.083 296.984 134.291 297.566L135.341 298.061C135.85 298.297 136.339 298.537 136.809 298.783C137.285 299.024 137.705 299.3 138.068 299.614C138.868 300.296 139.268 301.141 139.268 302.148C139.268 303.229 138.799 304.098 137.858 304.758C136.98 305.374 135.878 305.682 134.552 305.682C133.5 305.682 132.572 305.516 131.766 305.186C131.173 304.952 130.75 304.619 130.498 304.188C130.37 303.969 130.305 303.704 130.305 303.391C130.305 302.764 130.462 302.179 130.775 301.637C130.881 301.508 131.027 301.444 131.211 301.444C131.57 301.444 131.777 301.55 131.833 301.762C131.906 302.73 132.202 303.436 132.722 303.877C133.248 304.319 133.981 304.54 134.921 304.54C136.001 304.54 136.726 304.188 137.094 303.483C137.223 303.236 137.288 302.948 137.288 302.618C137.288 302.282 137.198 301.983 137.019 301.72C136.84 301.457 136.602 301.214 136.306 300.991C135.853 300.655 135.251 300.33 134.502 300.017C133.758 299.703 133.176 299.429 132.755 299.195C132.342 298.959 131.975 298.685 131.656 298.372C130.963 297.689 130.616 296.848 130.616 295.846C130.616 294.822 131.055 294.002 131.933 293.387C132.778 292.794 133.869 292.498 135.206 292.498C136.902 292.498 138.01 292.847 138.53 293.546C138.72 293.798 138.815 294.129 138.815 294.537C138.815 294.945 138.776 295.3 138.697 295.602C138.625 295.905 138.552 296.1 138.48 296.19C138.356 296.341 138.144 296.416 137.841 296.416C137.545 296.416 137.397 296.344 137.397 296.198ZM153.56 305.589C153.426 305.545 153.149 305.522 152.73 305.522H148.088C147.798 305.522 147.563 305.478 147.384 305.388C147.21 305.293 147.123 305.123 147.123 304.876C147.123 304.702 147.168 304.56 147.257 304.448C147.459 304.504 147.658 304.532 147.854 304.532C148.055 304.532 148.22 304.512 148.349 304.473C148.478 304.428 148.592 304.353 148.693 304.247C148.922 304.006 149.037 303.634 149.037 303.131V294.755C149.037 294.268 148.841 293.958 148.449 293.824C148.338 293.784 148.22 293.75 148.097 293.723C147.979 293.689 147.865 293.659 147.753 293.63C147.647 293.597 147.551 293.561 147.468 293.521C147.277 293.42 147.182 293.283 147.182 293.11C147.182 292.881 147.227 292.716 147.317 292.614C147.411 292.643 147.509 292.656 147.611 292.656H156.103C156.607 292.656 156.918 292.705 157.035 292.799C157.242 292.956 157.346 293.325 157.346 293.907C157.346 294.466 157.301 294.914 157.211 295.25C157.121 295.58 157.054 295.781 157.01 295.854C156.937 295.977 156.831 296.039 156.691 296.039C156.461 296.039 156.296 295.999 156.196 295.921C156.1 295.843 156.053 295.787 156.053 295.754C155.997 294.959 155.851 294.425 155.617 294.151C155.365 293.848 154.859 293.697 154.097 293.697H152.486C151.888 293.697 151.513 293.75 151.362 293.857C151.216 293.958 151.124 294.078 151.084 294.218C151.046 294.352 151.023 294.526 151.017 294.738V298.607H151.412C152.76 298.607 153.941 298.5 154.953 298.288C155.155 298.372 155.256 298.674 155.256 299.195C155.256 299.463 155.205 299.715 155.104 299.95C154.741 299.984 154.349 300 153.93 300C153.51 300 153.057 299.975 152.57 299.924L151.017 299.757V303.541C151.017 304.023 151.395 304.308 152.151 304.397C152.777 304.476 153.166 304.555 153.317 304.633C153.473 304.705 153.575 304.778 153.619 304.851C153.664 304.918 153.686 305.002 153.686 305.103C153.686 305.31 153.644 305.472 153.56 305.589ZM163.522 305.589C163.393 305.545 163.119 305.522 162.7 305.522H159.276C158.984 305.522 158.752 305.478 158.579 305.388C158.405 305.293 158.318 305.123 158.318 304.876C158.318 304.697 158.361 304.555 158.445 304.448C158.657 304.504 158.862 304.532 159.058 304.532C159.253 304.532 159.407 304.512 159.519 304.473C159.631 304.428 159.729 304.353 159.813 304.247C159.981 304.023 160.065 303.65 160.065 303.131V294.545C160.048 294.154 159.919 293.904 159.678 293.798C159.606 293.764 159.505 293.734 159.376 293.706C159.253 293.677 159.13 293.65 159.007 293.622C158.89 293.588 158.789 293.549 158.705 293.505C158.537 293.414 158.453 293.298 158.453 293.152C158.453 292.889 158.498 292.701 158.587 292.589C158.716 292.634 158.993 292.656 159.418 292.656H160.509L163.455 292.573L163.816 292.565C165.539 292.565 166.829 292.872 167.685 293.488C168.541 294.098 168.969 294.959 168.969 296.073C168.969 296.906 168.697 297.673 168.155 298.372C167.551 299.15 166.717 299.676 165.654 299.95C165.945 300.151 166.275 300.521 166.644 301.058L167.534 302.358C168.367 303.572 169.058 304.18 169.606 304.18C169.813 304.18 169.97 304.16 170.076 304.121L170.286 304.036C170.331 304.02 170.382 304.011 170.437 304.011C170.493 304.011 170.552 304.056 170.614 304.145C170.675 304.23 170.706 304.328 170.706 304.439C170.706 304.551 170.658 304.686 170.564 304.842C170.468 304.994 170.334 305.13 170.161 305.254C169.769 305.539 169.341 305.682 168.877 305.682C168.412 305.682 168.029 305.603 167.727 305.447C167.43 305.29 167.156 305.086 166.904 304.834C166.658 304.577 166.432 304.286 166.225 303.962C166.023 303.637 165.833 303.304 165.654 302.962L165.158 301.964C164.806 301.237 164.524 300.769 164.311 300.563C164.104 300.35 163.914 300.243 163.74 300.243H162.893C162.753 300.243 162.683 300.143 162.683 299.941C162.683 299.661 162.789 299.443 163.002 299.287C163.074 299.237 163.293 299.208 163.656 299.202C164.02 299.191 164.429 299.113 164.882 298.968C165.34 298.823 165.718 298.624 166.015 298.372C166.591 297.874 166.879 297.174 166.879 296.274C166.879 295.518 166.627 294.9 166.123 294.419C165.553 293.877 164.759 293.599 163.74 293.588C163.069 293.588 162.621 293.689 162.398 293.891C162.174 294.08 162.056 294.441 162.045 294.973V303.541C162.045 303.984 162.168 304.263 162.414 304.381C162.492 304.414 162.596 304.445 162.724 304.473C162.853 304.501 162.976 304.532 163.094 304.566C163.217 304.593 163.321 304.63 163.404 304.675C163.573 304.764 163.656 304.885 163.656 305.036C163.656 305.293 163.611 305.478 163.522 305.589ZM183.446 293.639C183.02 293.639 182.8 294.08 182.782 294.965V300C182.782 301.847 182.327 303.256 181.414 304.23C180.52 305.197 179.241 305.682 177.58 305.682C176.169 305.682 175.014 305.326 174.113 304.616C172.972 303.726 172.401 302.249 172.401 300.185V294.41C172.396 294.17 172.368 294.002 172.318 293.907C172.272 293.812 172.166 293.748 171.998 293.714C171.83 293.681 171.679 293.65 171.545 293.622C171.416 293.588 171.307 293.549 171.218 293.505C171.039 293.414 170.95 293.264 170.95 293.051C170.95 292.855 170.994 292.701 171.084 292.589C171.213 292.634 171.489 292.656 171.915 292.656H175.171C175.808 292.656 176.127 292.872 176.127 293.303C176.127 293.494 176.085 293.636 176.002 293.731C175.795 293.675 175.599 293.647 175.414 293.647C175.235 293.647 175.089 293.67 174.977 293.714C174.872 293.753 174.774 293.826 174.684 293.933C174.482 294.173 174.382 294.545 174.382 295.048V299.597C174.382 301.326 174.729 302.568 175.423 303.323C175.96 303.9 176.704 304.188 177.654 304.188C180.061 304.188 181.264 302.688 181.264 299.69V294.637C181.264 294.196 181.14 293.918 180.894 293.806C180.816 293.768 180.707 293.734 180.567 293.706C180.433 293.677 180.299 293.65 180.164 293.622C180.036 293.588 179.927 293.549 179.837 293.505C179.658 293.414 179.568 293.264 179.568 293.051C179.568 292.844 179.613 292.69 179.702 292.589C179.831 292.634 180.108 292.656 180.533 292.656H183.319C183.605 292.656 183.834 292.701 184.008 292.791C184.187 292.881 184.277 293.048 184.277 293.294C184.277 293.485 184.235 293.628 184.15 293.723C183.927 293.666 183.692 293.639 183.446 293.639ZM190.587 305.589C190.459 305.545 190.182 305.522 189.756 305.522H186.257C185.966 305.522 185.733 305.478 185.561 305.388C185.387 305.293 185.3 305.123 185.3 304.876C185.3 304.697 185.342 304.555 185.426 304.448C185.65 304.504 185.854 304.532 186.038 304.532C186.229 304.532 186.377 304.512 186.484 304.473C186.595 304.434 186.691 304.364 186.769 304.263C186.943 304.051 187.035 303.701 187.046 303.214V294.637C187.046 294.196 186.923 293.918 186.677 293.806C186.598 293.768 186.492 293.734 186.357 293.706C186.223 293.677 186.089 293.65 185.955 293.622C185.826 293.588 185.717 293.549 185.628 293.505C185.448 293.414 185.359 293.264 185.359 293.051C185.359 292.844 185.401 292.69 185.485 292.589C185.614 292.634 185.891 292.656 186.316 292.656H189.731C190.023 292.656 190.255 292.705 190.428 292.799C190.607 292.889 190.696 293.057 190.696 293.303C190.696 293.488 190.652 293.63 190.562 293.731C190.35 293.675 190.117 293.647 189.865 293.647C189.323 293.647 189.043 294.089 189.027 294.973V303.541C189.027 303.984 189.149 304.263 189.396 304.381C189.474 304.414 189.58 304.445 189.715 304.473C189.849 304.501 189.98 304.532 190.109 304.566C190.243 304.593 190.355 304.63 190.445 304.675C190.629 304.769 190.722 304.921 190.722 305.128C190.722 305.324 190.677 305.478 190.587 305.589ZM201.396 305.589C201.268 305.545 200.991 305.522 200.566 305.522H195.766C195.474 305.522 195.24 305.478 195.06 305.388C194.887 305.293 194.801 305.123 194.801 304.876C194.801 304.702 194.845 304.56 194.935 304.448C195.147 304.504 195.349 304.532 195.539 304.532C195.729 304.532 195.908 304.512 196.076 304.473C196.244 304.434 196.403 304.364 196.555 304.263C196.912 304.034 197.103 303.684 197.125 303.214V293.882H196.034C195.223 293.882 194.692 293.922 194.44 294C194.193 294.072 194.006 294.167 193.877 294.285C193.754 294.403 193.653 294.562 193.575 294.763C193.435 295.11 193.326 295.709 193.248 296.559C193.125 296.587 193.013 296.601 192.912 296.601C192.688 296.601 192.546 296.543 192.484 296.425C192.423 296.307 192.381 296.187 192.358 296.064C192.336 295.935 192.319 295.796 192.308 295.645C192.285 295.342 192.274 295.021 192.274 294.679C192.274 293.745 192.347 293.152 192.492 292.9C192.638 292.632 192.929 292.498 193.366 292.498C193.449 292.498 193.573 292.506 193.734 292.522C193.897 292.54 194.132 292.559 194.44 292.581C195.273 292.632 196.272 292.656 197.436 292.656H198.854C200.476 292.656 201.561 292.632 202.11 292.581C202.659 292.525 203 292.498 203.134 292.498C203.268 292.498 203.391 292.517 203.504 292.556C203.615 292.595 203.705 292.651 203.772 292.724C203.878 292.847 203.932 293.001 203.932 293.186C203.932 293.465 203.923 293.689 203.906 293.857C203.889 294.025 203.87 294.223 203.847 294.453C203.83 294.682 203.805 294.92 203.772 295.166C203.694 295.748 203.596 296.148 203.478 296.366C203.366 296.523 203.229 296.601 203.067 296.601C202.91 296.601 202.771 296.587 202.647 296.559L202.655 296.03C202.655 295.533 202.628 295.141 202.572 294.856C202.515 294.564 202.398 294.349 202.219 294.209C202.04 294.064 201.783 293.974 201.447 293.94C201.111 293.902 200.664 293.882 200.105 293.882H199.098V303.541C199.098 303.944 199.419 304.225 200.063 304.381C200.219 304.414 200.367 304.445 200.507 304.473C200.653 304.501 200.792 304.532 200.927 304.566C201.061 304.593 201.173 304.63 201.262 304.675C201.441 304.764 201.531 304.915 201.531 305.128C201.531 305.324 201.487 305.478 201.396 305.589ZM213.322 304.532C213.557 304.571 213.734 304.591 213.851 304.591C213.968 304.591 214.083 304.579 214.195 304.557C214.313 304.529 214.416 304.488 214.505 304.431C214.707 304.308 214.808 304.115 214.808 303.852C214.808 303.634 214.741 303.391 214.607 303.122L213.818 301.167H208.505L207.565 303.55C207.476 303.768 207.431 303.928 207.431 304.029C207.431 304.123 207.445 304.196 207.473 304.247C207.507 304.292 207.554 304.33 207.616 304.364C207.683 304.397 207.764 304.426 207.859 304.448L208.203 304.54C208.572 304.602 208.81 304.658 208.916 304.708C209.134 304.814 209.243 304.971 209.243 305.178C209.243 305.329 209.201 305.458 209.118 305.564C209.011 305.536 208.913 305.522 208.824 305.522H205.408C204.664 305.522 204.292 305.318 204.292 304.909C204.292 304.72 204.334 304.566 204.418 304.448C204.625 304.504 204.799 304.532 204.939 304.532C205.084 304.532 205.204 304.51 205.299 304.465C205.4 304.42 205.495 304.345 205.584 304.238C205.735 304.054 205.912 303.684 206.114 303.131L210.259 293.093C210.377 292.825 210.709 292.64 211.258 292.54C211.409 292.511 211.568 292.498 211.736 292.498C212.078 292.498 212.287 292.589 212.365 292.774L213.205 294.872C214.822 298.688 215.756 300.915 216.007 301.553L216.763 303.534C216.914 303.964 217.04 304.23 217.141 304.33C217.242 304.431 217.351 304.501 217.468 304.54C217.585 304.579 217.706 304.613 217.829 304.641C217.957 304.664 218.069 304.694 218.165 304.733C218.378 304.829 218.483 304.974 218.483 305.17C218.483 305.321 218.441 305.449 218.358 305.556C218.251 305.528 218.156 305.514 218.073 305.514H214.07C213.783 305.514 213.56 305.48 213.398 305.413C213.241 305.34 213.163 305.231 213.163 305.086C213.163 304.834 213.216 304.649 213.322 304.532ZM213.331 299.975L211.132 294.537L208.975 299.975H213.331ZM232.532 296.198C232.532 294.918 232.076 294.114 231.164 293.79C230.851 293.677 230.485 293.622 230.065 293.622C229.646 293.622 229.285 293.67 228.982 293.764C228.68 293.86 228.428 293.989 228.227 294.151C227.819 294.481 227.614 294.918 227.614 295.46C227.614 296.282 228.218 296.984 229.427 297.566L230.476 298.061C230.986 298.297 231.475 298.537 231.945 298.783C232.421 299.024 232.84 299.3 233.204 299.614C234.004 300.296 234.404 301.141 234.404 302.148C234.404 303.229 233.934 304.098 232.994 304.758C232.116 305.374 231.013 305.682 229.687 305.682C228.635 305.682 227.707 305.516 226.901 305.186C226.308 304.952 225.886 304.619 225.634 304.188C225.505 303.969 225.441 303.704 225.441 303.391C225.441 302.764 225.597 302.179 225.911 301.637C226.017 301.508 226.163 301.444 226.347 301.444C226.705 301.444 226.912 301.55 226.968 301.762C227.041 302.73 227.337 303.436 227.857 303.877C228.383 304.319 229.116 304.54 230.057 304.54C231.137 304.54 231.861 304.188 232.23 303.483C232.359 303.236 232.423 302.948 232.423 302.618C232.423 302.282 232.334 301.983 232.154 301.72C231.976 301.457 231.737 301.214 231.441 300.991C230.988 300.655 230.387 300.33 229.637 300.017C228.893 299.703 228.311 299.429 227.891 299.195C227.478 298.959 227.111 298.685 226.792 298.372C226.098 297.689 225.751 296.848 225.751 295.846C225.751 294.822 226.19 294.002 227.069 293.387C227.914 292.794 229.005 292.498 230.342 292.498C232.037 292.498 233.145 292.847 233.665 293.546C233.856 293.798 233.95 294.129 233.95 294.537C233.95 294.945 233.912 295.3 233.834 295.602C233.76 295.905 233.687 296.1 233.615 296.19C233.491 296.341 233.279 296.416 232.977 296.416C232.68 296.416 232.532 296.344 232.532 296.198ZM248.201 293.639C247.776 293.639 247.554 294.08 247.538 294.965V300C247.538 301.847 247.082 303.256 246.17 304.23C245.274 305.197 243.996 305.682 242.334 305.682C240.925 305.682 239.769 305.326 238.869 304.616C237.727 303.726 237.157 302.249 237.157 300.185V294.41C237.151 294.17 237.123 294.002 237.073 293.907C237.028 293.812 236.921 293.748 236.754 293.714C236.586 293.681 236.435 293.65 236.301 293.622C236.172 293.588 236.063 293.549 235.973 293.505C235.794 293.414 235.704 293.264 235.704 293.051C235.704 292.855 235.749 292.701 235.839 292.589C235.967 292.634 236.245 292.656 236.669 292.656H239.926C240.564 292.656 240.883 292.872 240.883 293.303C240.883 293.494 240.841 293.636 240.757 293.731C240.55 293.675 240.354 293.647 240.17 293.647C239.99 293.647 239.845 293.67 239.733 293.714C239.627 293.753 239.529 293.826 239.439 293.933C239.238 294.173 239.137 294.545 239.137 295.048V299.597C239.137 301.326 239.484 302.568 240.177 303.323C240.715 303.9 241.459 304.188 242.41 304.188C244.815 304.188 246.019 302.688 246.019 299.69V294.637C246.019 294.196 245.896 293.918 245.65 293.806C245.571 293.768 245.462 293.734 245.323 293.706C245.188 293.677 245.054 293.65 244.919 293.622C244.791 293.588 244.681 293.549 244.592 293.505C244.413 293.414 244.324 293.264 244.324 293.051C244.324 292.844 244.369 292.69 244.458 292.589C244.587 292.634 244.864 292.656 245.289 292.656H248.075C248.36 292.656 248.59 292.701 248.763 292.791C248.942 292.881 249.032 293.048 249.032 293.294C249.032 293.485 248.989 293.628 248.906 293.723C248.682 293.666 248.447 293.639 248.201 293.639ZM255.343 305.589C255.214 305.545 254.937 305.522 254.512 305.522H251.012C250.721 305.522 250.489 305.478 250.315 305.388C250.142 305.293 250.056 305.123 250.056 304.876C250.056 304.697 250.097 304.555 250.181 304.448C250.405 304.504 250.609 304.532 250.794 304.532C250.984 304.532 251.133 304.512 251.238 304.473C251.351 304.434 251.446 304.364 251.524 304.263C251.697 304.051 251.79 303.701 251.801 303.214V294.637C251.801 294.196 251.678 293.918 251.432 293.806C251.354 293.768 251.247 293.734 251.113 293.706C250.979 293.677 250.844 293.65 250.71 293.622C250.581 293.588 250.473 293.549 250.383 293.505C250.204 293.414 250.114 293.264 250.114 293.051C250.114 292.844 250.157 292.69 250.24 292.589C250.369 292.634 250.645 292.656 251.071 292.656H254.487C254.777 292.656 255.009 292.705 255.183 292.799C255.363 292.889 255.452 293.057 255.452 293.303C255.452 293.488 255.407 293.63 255.318 293.731C255.105 293.675 254.873 293.647 254.621 293.647C254.078 293.647 253.799 294.089 253.781 294.973V303.541C253.781 303.984 253.905 304.263 254.151 304.381C254.229 304.414 254.336 304.445 254.47 304.473C254.604 304.501 254.735 304.532 254.864 304.566C254.998 304.593 255.111 304.63 255.2 304.675C255.385 304.769 255.477 304.921 255.477 305.128C255.477 305.324 255.432 305.478 255.343 305.589ZM264.541 296.198C264.541 294.918 264.084 294.114 263.173 293.79C262.86 293.677 262.493 293.622 262.073 293.622C261.654 293.622 261.293 293.67 260.991 293.764C260.689 293.86 260.437 293.989 260.235 294.151C259.827 294.481 259.623 294.918 259.623 295.46C259.623 296.282 260.227 296.984 261.436 297.566L262.484 298.061C262.994 298.297 263.484 298.537 263.953 298.783C264.429 299.024 264.848 299.3 265.212 299.614C266.012 300.296 266.412 301.141 266.412 302.148C266.412 303.229 265.942 304.098 265.002 304.758C264.124 305.374 263.021 305.682 261.695 305.682C260.643 305.682 259.715 305.516 258.909 305.186C258.316 304.952 257.894 304.619 257.643 304.188C257.514 303.969 257.449 303.704 257.449 303.391C257.449 302.764 257.606 302.179 257.919 301.637C258.026 301.508 258.171 301.444 258.356 301.444C258.713 301.444 258.92 301.55 258.976 301.762C259.049 302.73 259.346 303.436 259.867 303.877C260.392 304.319 261.125 304.54 262.065 304.54C263.145 304.54 263.87 304.188 264.238 303.483C264.367 303.236 264.432 302.948 264.432 302.618C264.432 302.282 264.342 301.983 264.163 301.72C263.984 301.457 263.746 301.214 263.449 300.991C262.996 300.655 262.395 300.33 261.645 300.017C260.901 299.703 260.319 299.429 259.9 299.195C259.486 298.959 259.119 298.685 258.8 298.372C258.107 297.689 257.759 296.848 257.759 295.846C257.759 294.822 258.199 294.002 259.078 293.387C259.922 292.794 261.013 292.498 262.35 292.498C264.046 292.498 265.153 292.847 265.673 293.546C265.864 293.798 265.959 294.129 265.959 294.537C265.959 294.945 265.92 295.3 265.842 295.602C265.769 295.905 265.696 296.1 265.624 296.19C265.501 296.341 265.288 296.416 264.986 296.416C264.689 296.416 264.541 296.344 264.541 296.198Z" fill="#010101"/>
<path d="M65 232.053V28H247V232.053C247 250.65 233.902 262 219.935 262H187.409C167.058 262 156 271.798 156 284C156 271.798 144.941 262 124.59 262H92.0636C78.0973 262 65 250.65 65 232.053Z" fill="#DA0000"/>
<path d="M103 57H118V80H141V95H118V117H103V95H81V80H103V57Z" fill="white"/>
<path d="M194 174H209V197H232V212H209V234H194V212H172V197H194V174Z" fill="white"/>
<rect x="156" y="28" width="91" height="117" fill="white"/>
<path d="M156 145H65V232.053C65 250.65 78.0973 262 92.0636 262L124.59 262C144.941 262 155.999 271.798 155.999 284L156 145Z" fill="white"/>
<path d="M156 145L178.5 29V145H156Z" fill="#008F6B"/>
<path d="M201 145L223.5 29V145H201Z" fill="#008F6B"/>
<path d="M246 145L223.5 29V145H246Z" fill="#073224"/>
<path d="M201 145L178.5 29V145H201Z" fill="#073224"/>
<path d="M88.5 145V262L84.9488 261C78.2031 259.068 72.2259 254.399 68.6133 247.527L88.5 145Z" fill="#008F6B"/>
<path d="M111 262L133.5 145V262.699C130.765 262.243 127.793 262 124.59 262H111Z" fill="#008F6B"/>
<path d="M156 262L133.5 145V262V262.699C148.147 265.143 156 273.718 156 284L156 262Z" fill="#073224"/>
<path d="M111 262L88.5 145V262H111Z" fill="#073224"/>
<path d="M65 232.053V28H247V232.053C247 250.65 233.902 262 219.935 262H187.409C167.058 262 156 271.798 156 284C156 271.798 144.941 262 124.59 262H92.0636C78.0973 262 65 250.65 65 232.053Z" stroke="black" stroke-width="2"/>
</svg>
