<?xml version="1.0" encoding="UTF-8" standalone="no"?>
<svg
   xmlns:dc="http://purl.org/dc/elements/1.1/"
   xmlns:cc="http://creativecommons.org/ns#"
   xmlns:rdf="http://www.w3.org/1999/02/22-rdf-syntax-ns#"
   xmlns:svg="http://www.w3.org/2000/svg"
   xmlns="http://www.w3.org/2000/svg"
   xmlns:sodipodi="http://sodipodi.sourceforge.net/DTD/sodipodi-0.dtd"
   xmlns:inkscape="http://www.inkscape.org/namespaces/inkscape"
   width="419"
   height="502"
   viewBox="0 0 419 502"
   fill="none"
   version="1.1"
   id="svg1280"
   sodipodi:docname="San Lorenzo di Sebato-Stemma.svg"
   inkscape:version="1.0.2-2 (e86c870879, 2021-01-15)">
  <path
     d="M 3.5846975,2.6496144 V 305.90962 A 206.40068,192.9516 0 0 0 209.98503,498.86051 206.40068,192.9516 0 0 0 416.38649,305.90962 V 2.6496144 H 3.5845837"
     fill="#fff"
     id="path12"
     style="fill:#e6e6e6;stroke:#000000;stroke-width:4.34708;stroke-linecap:square;stroke-miterlimit:4;stroke-dasharray:none;stroke-opacity:1" />
  <metadata
     id="metadata1284">
    <rdf:RDF>
      <cc:Work
         rdf:about="">
        <dc:format>image/svg+xml</dc:format>
        <dc:type
           rdf:resource="http://purl.org/dc/dcmitype/StillImage" />
        <dc:title></dc:title>
      </cc:Work>
    </rdf:RDF>
  </metadata>
  <sodipodi:namedview
     pagecolor="#ffffff"
     bordercolor="#666666"
     borderopacity="1"
     objecttolerance="10"
     gridtolerance="10"
     guidetolerance="10"
     inkscape:pageopacity="0"
     inkscape:pageshadow="2"
     inkscape:window-width="1920"
     inkscape:window-height="986"
     id="namedview1282"
     showgrid="false"
     inkscape:zoom="0.76377417"
     inkscape:cx="558.20942"
     inkscape:cy="105.15322"
     inkscape:window-x="-11"
     inkscape:window-y="-11"
     inkscape:window-maximized="1"
     inkscape:current-layer="svg1280" />
  <g
     id="g2346"
     transform="matrix(-0.57008513,0,0,0.57008513,660.85895,-61.511312)">
    <path
       fill-rule="evenodd"
       clip-rule="evenodd"
       d="m 743.41244,850.50987 c -2.383,9.09657 -9.84304,23.44244 -17.50885,35.10863 -8.28309,6.71356 -10.63738,15.13063 -8.25916,23.30366 1.25849,6.48388 6.91932,7.98641 12.71413,10.14451 15.64265,5.08183 22.79644,-1.61738 29.8354,-8.7281 2.6079,-11.46522 5.19667,-22.93043 13.4989,-34.39086 3.07206,-7.09637 1.74179,-15.27419 1.09579,-23.28931 l -20.0689,-15.0445 z"
       fill="#f3c39a"
       stroke="#000000"
       stroke-width="2.39257"
       stroke-linecap="round"
       stroke-linejoin="round"
       id="path752" />
    <path
       fill-rule="evenodd"
       clip-rule="evenodd"
       d="m 741.5893,858.39101 c 2.40693,3.58886 3.89511,7.35477 10.94363,10.03445 12.93426,-2.21552 17.92995,-5.04354 22.25572,-10.03445 1.80879,6.41688 -4.45018,29.70619 -8.39314,26.15561 -1.33985,-1.21542 -2.91894,-10.39334 -2.91894,-10.39334 h -10.21151 c -3.82333,4.54111 -3.59843,9.07743 -3.65107,13.61375 5.11054,0.77519 8.85731,3.56015 15.6905,1.79443 l -4.74208,17.9108 c -0.1914,-6.20155 -2.74189,-8.70897 -5.83788,-11.10632 l -9.48894,-1.78965 c -4.14873,17.14997 0.87089,12.35525 -1.45469,25.43306 h -2.91894 c 6.87147,-11.02977 -1.52646,-20.9733 -1.45947,-27.2227 -7.05331,-3.7372 -14.10661,1.09101 -21.15992,3.57929 l 5.10575,-7.52226 c 8.03426,-3.75155 12.61365,-1.85185 17.87731,-1.07665 0.81348,-4.41669 0.30147,-8.83339 4.74208,-13.25486 -5.44549,-1.64609 -8.66111,-3.84247 -10.21629,-6.44559 z"
       fill="#a05815"
       stroke="#000000"
       stroke-width="2.39257"
       stroke-linecap="round"
       stroke-linejoin="round"
       id="path754" />
    <path
       d="m 748.15931,908.63027 c -2.15332,4.00517 -5.82352,8.00555 -5.92401,11.3408 z"
       fill="#a05815"
       id="path756"
       style="stroke-width:4.78515" />
    <path
       d="m 748.15931,908.63027 c -2.15332,4.00517 -5.82352,8.00555 -5.92401,11.3408"
       stroke="#000000"
       stroke-width="2.39257"
       stroke-linecap="round"
       stroke-linejoin="round"
       id="path758" />
    <path
       d="m 733.19616,918.57859 4.3784,-8.9578 z"
       fill="#a05815"
       id="path760"
       style="stroke-width:4.78515" />
    <path
       d="m 733.19616,918.57859 4.3784,-8.9578"
       stroke="#000000"
       stroke-width="2.39257"
       stroke-linecap="round"
       stroke-linejoin="round"
       id="path762" />
    <path
       d="m 723.59236,915.60701 6.96239,-9.1492 z"
       fill="#a05815"
       id="path764"
       style="stroke-width:4.78515" />
    <path
       d="m 723.59236,915.60701 6.96239,-9.1492"
       stroke="#000000"
       stroke-width="2.39257"
       stroke-linecap="round"
       stroke-linejoin="round"
       id="path766" />
    <path
       d="m 718.04159,908.71162 8.49843,-6.78534 z"
       fill="#a05815"
       id="path768"
       style="stroke-width:4.78515" />
    <path
       d="m 718.04159,908.71162 8.49843,-6.78534"
       stroke="#000000"
       stroke-width="2.39257"
       stroke-linecap="round"
       stroke-linejoin="round"
       id="path770" />
    <path
       d="m 718.23779,909.17577 c 5.42157,-3.42616 7.51746,3.13428 6.01971,5.64169 z"
       fill="#f3c39a"
       id="path772"
       style="stroke-width:4.78515" />
    <path
       d="m 718.23779,909.17577 c 5.42157,-3.42616 7.51746,3.13428 6.01971,5.64169"
       stroke="#000000"
       stroke-width="2.39257"
       stroke-linecap="round"
       stroke-linejoin="round"
       id="path774" />
    <path
       d="m 724.98963,915.80799 c 3.23954,-5.47421 8.14432,-0.56943 7.97684,2.33037 z"
       fill="#f3c39a"
       id="path776"
       style="stroke-width:4.78515" />
    <path
       d="m 724.98963,915.80799 c 3.23954,-5.47421 8.14432,-0.56943 7.97684,2.33037"
       stroke="#000000"
       stroke-width="2.39257"
       stroke-linecap="round"
       stroke-linejoin="round"
       id="path778" />
    <path
       d="m 733.47369,917.8656 c 3.23955,-5.46942 8.14432,-0.56465 7.97684,2.33515 z"
       fill="#f3c39a"
       id="path780"
       style="stroke-width:4.78515" />
    <path
       d="m 733.47369,917.8656 c 3.23955,-5.46942 8.14432,-0.56465 7.97684,2.33515"
       stroke="#000000"
       stroke-width="2.39257"
       stroke-linecap="round"
       stroke-linejoin="round"
       id="path782" />
    <path
       d="m 743.64692,918.84177 c 1.00009,-12.47488 8.53191,-7.13465 9.67078,-1.67958 z"
       fill="#f3c39a"
       id="path784"
       style="stroke-width:4.78515" />
    <path
       d="m 743.64692,918.84177 c 1.00009,-12.47488 8.53191,-7.13465 9.67078,-1.67958"
       stroke="#000000"
       stroke-width="2.39257"
       stroke-linecap="round"
       stroke-linejoin="round"
       id="path786" />
    <path
       d="m 716.4625,899.96915 c 6.17284,-1.82792 6.34989,5.04355 4.21092,7.04852 z"
       fill="#f3c39a"
       id="path788"
       style="stroke-width:4.78515" />
    <path
       d="m 716.4625,899.96915 c 6.17284,-1.82792 6.34989,5.04355 4.21092,7.04852"
       stroke="#000000"
       stroke-width="2.39257"
       stroke-linecap="round"
       stroke-linejoin="round"
       id="path790" />
    <path
       fill-rule="evenodd"
       clip-rule="evenodd"
       d="m 851.65726,851.52432 c 2.383,9.09657 9.84783,23.44244 17.51364,35.10863 8.2783,6.70877 10.63259,15.12585 8.25916,23.30366 -1.25849,6.47909 -6.92411,7.98641 -12.71892,10.14452 -15.64265,5.08182 -22.79644,-1.61738 -29.83539,-8.72811 -2.60791,-11.46522 -5.19667,-22.93043 -13.4989,-34.39564 -3.07207,-7.09637 -1.7418,-15.27419 -1.09102,-23.28453 l 20.06413,-15.0445 z"
       fill="#f3c39a"
       stroke="#000000"
       stroke-width="2.39257"
       stroke-linecap="round"
       stroke-linejoin="round"
       id="path792" />
    <path
       fill-rule="evenodd"
       clip-rule="evenodd"
       d="m 853.48518,859.40546 c -2.40693,3.58886 -3.89989,7.35477 -10.94363,10.02967 -12.93425,-2.21074 -17.92994,-5.03876 -22.25572,-10.02967 -1.81357,6.4121 4.45019,29.70619 8.38837,26.15083 1.34462,-1.21064 2.91894,-10.38856 2.91894,-10.38856 h 10.21628 c 3.82334,4.53632 3.59365,9.07743 3.64629,13.61375 -5.10575,0.77519 -8.85253,3.56015 -15.68572,1.78964 l 4.74209,17.91559 c 0.18662,-6.20633 2.74188,-8.71375 5.83788,-11.10632 l 9.48416,-1.78965 c 4.14872,17.14997 -0.86611,12.35525 1.45947,25.43306 h 2.91894 c -6.87147,-11.02977 1.52167,-20.9733 1.45947,-27.22749 7.0533,-3.73241 14.10661,1.09102 21.15992,3.58408 l -5.10576,-7.52225 c -8.03426,-3.75156 -12.61364,-1.85186 -17.8773,-1.07666 -0.81348,-4.41669 -0.30147,-8.83817 -4.74209,-13.25486 5.4455,-1.64609 8.65634,-3.84247 10.21629,-6.45038 z"
       fill="#a05815"
       stroke="#000000"
       stroke-width="2.39257"
       stroke-linecap="round"
       stroke-linejoin="round"
       id="path794" />
    <path
       d="m 846.91518,909.64472 c 2.15331,4.00517 5.82352,8.00077 5.92401,11.3408 z"
       fill="#a05815"
       id="path796"
       style="stroke-width:4.78515" />
    <path
       d="m 846.91518,909.64472 c 2.15331,4.00517 5.82352,8.00077 5.92401,11.3408"
       stroke="#000000"
       stroke-width="2.39257"
       stroke-linecap="round"
       stroke-linejoin="round"
       id="path798" />
    <path
       d="m 861.87355,919.59304 -4.37841,-8.9578 z"
       fill="#a05815"
       id="path800"
       style="stroke-width:4.78515" />
    <path
       d="m 861.87355,919.59304 -4.37841,-8.9578"
       stroke="#000000"
       stroke-width="2.39257"
       stroke-linecap="round"
       stroke-linejoin="round"
       id="path802" />
    <path
       d="m 871.47734,916.62146 -6.96239,-9.1492 z"
       fill="#a05815"
       id="path804"
       style="stroke-width:4.78515" />
    <path
       d="m 871.47734,916.62146 -6.96239,-9.1492"
       stroke="#000000"
       stroke-width="2.39257"
       stroke-linecap="round"
       stroke-linejoin="round"
       id="path806" />
    <path
       d="m 877.02811,909.72607 -8.49842,-6.79013 z"
       fill="#a05815"
       id="path808"
       style="stroke-width:4.78515" />
    <path
       d="m 877.02811,909.72607 -8.49842,-6.79013"
       stroke="#000000"
       stroke-width="2.39257"
       stroke-linecap="round"
       stroke-linejoin="round"
       id="path810" />
    <path
       d="m 876.83192,910.18544 c -5.42157,-3.42138 -7.51747,3.13906 -6.01972,5.64169 z"
       fill="#f3c39a"
       id="path812"
       style="stroke-width:4.78515" />
    <path
       d="m 876.83192,910.18544 c -5.42157,-3.42138 -7.51747,3.13906 -6.01972,5.64169"
       stroke="#000000"
       stroke-width="2.39257"
       stroke-linecap="round"
       stroke-linejoin="round"
       id="path814" />
    <path
       d="m 870.08007,916.81765 c -3.23954,-5.46942 -8.14432,-0.56464 -7.97684,2.33516 z"
       fill="#f3c39a"
       id="path816"
       style="stroke-width:4.78515" />
    <path
       d="m 870.08007,916.81765 c -3.23954,-5.46942 -8.14432,-0.56464 -7.97684,2.33516"
       stroke="#000000"
       stroke-width="2.39257"
       stroke-linecap="round"
       stroke-linejoin="round"
       id="path818" />
    <path
       d="m 861.59601,918.88005 c -3.23955,-5.47421 -8.14432,-0.56943 -7.97684,2.33037 z"
       fill="#f3c39a"
       id="path820"
       style="stroke-width:4.78515" />
    <path
       d="m 861.59601,918.88005 c -3.23955,-5.47421 -8.14432,-0.56943 -7.97684,2.33037"
       stroke="#000000"
       stroke-width="2.39257"
       stroke-linecap="round"
       stroke-linejoin="round"
       id="path822" />
    <path
       d="m 851.42757,919.85622 c -1.00488,-12.47488 -8.5367,-7.13465 -9.67078,-1.67958 z"
       fill="#f3c39a"
       id="path824"
       style="stroke-width:4.78515" />
    <path
       d="m 851.42757,919.85622 c -1.00488,-12.47488 -8.5367,-7.13465 -9.67078,-1.67958"
       stroke="#000000"
       stroke-width="2.39257"
       stroke-linecap="round"
       stroke-linejoin="round"
       id="path826" />
    <path
       d="m 878.60721,900.9836 c -6.17284,-1.82792 -6.34989,5.04355 -4.21093,7.04852 z"
       fill="#f3c39a"
       id="path828"
       style="stroke-width:4.78515" />
    <path
       d="m 878.60721,900.9836 c -6.17284,-1.82792 -6.34989,5.04355 -4.21093,7.04852"
       stroke="#000000"
       stroke-width="2.39257"
       stroke-linecap="round"
       stroke-linejoin="round"
       id="path830" />
    <path
       fill-rule="evenodd"
       clip-rule="evenodd"
       d="m 723.78856,680.15863 -1.09102,159.71864 c 26.548,15.76706 123.39938,20.08805 154.69424,0.82305 l -1.09101,-164.65691 z"
       fill="#f5f5f5"
       stroke="#000000"
       stroke-width="2.39257"
       stroke-linecap="round"
       stroke-linejoin="round"
       id="path832" />
    <path
       d="M 742.85258,691.68605 V 846.27502"
       stroke="#000000"
       stroke-width="2.39257"
       stroke-linecap="round"
       stroke-linejoin="round"
       id="path834" />
    <path
       d="m 764.12735,699.24658 -0.25362,150.79913"
       stroke="#000000"
       stroke-width="2.39257"
       stroke-linecap="round"
       stroke-linejoin="round"
       id="path836" />
    <path
       d="m 830.54997,699.96914 0.54551,151.24415 m 17.97301,-155.35937 1.63652,153.18213 z"
       stroke="#000000"
       stroke-width="2.39257"
       stroke-linecap="round"
       stroke-linejoin="round"
       id="path838" />
    <path
       d="m 717.27058,220.8573 c 0,41.8462 34.67124,75.88724 77.28194,75.88724 42.61586,0 77.28709,-34.04104 77.28709,-75.88724 0,-41.84619 -34.67123,-75.89239 -77.28709,-75.89239 -42.6107,0 -77.28194,34.0462 -77.28194,75.89239 z"
       fill="#ffe24b"
       stroke="#000000"
       stroke-width="2.58278"
       stroke-linecap="round"
       stroke-linejoin="round"
       id="path840" />
    <path
       d="m 720.55858,568.59771 c -3.3496,4.62245 -11.14461,26.85425 -16.03024,132.71127 24.53823,8.56542 50.94267,13.24529 78.45727,13.24529 41.09484,0 79.71577,-10.41248 113.32186,-28.68696 -2.83281,-25.71538 -6.78534,-70.48043 -11.83367,-148.33956 -1.16279,-1.55996 -2.1916,-3.78026 -3.10078,-6.49823 0,0 -4.33534,10.61824 -11.09675,17.25524 l 0.95702,20.7484 c 0,0 -20.9733,8.46971 -50.18662,5.81395 0,0 -21.63843,8.50321 -61.13025,4.24921 0,0 -18.06872,2.65576 -29.96938,-2.65575 1.75136,-13.47976 2.91894,-21.78199 2.91894,-21.78199 L 721.1328,543.14073 c 0,0 -0.37324,13.71423 3.61757,21.08336 0.88047,1.62695 -2.22509,3.13905 -4.19179,4.37362 z"
       fill="#d42d31"
       stroke="#000000"
       stroke-width="2.39257"
       stroke-linecap="round"
       stroke-linejoin="round"
       id="path842" />
    <path
       d="m 720.55858,568.59771 c 1.29678,-0.57422 1.85185,-2.54091 2.0289,-4.37362 0.94268,-9.82869 2.02891,-17.33181 2.02891,-17.33181 l 8.24959,7.77108 c 0,0 -1.17236,8.29745 -2.92373,21.77721 11.90545,5.31151 29.97417,2.66054 29.97417,2.66054 39.49182,4.24443 61.13025,-4.254 61.13025,-4.254 29.21332,2.65576 50.18662,-5.81395 50.18662,-5.81395 l -0.96181,-20.7484 c 6.7662,-6.637 11.10154,-17.25524 11.10154,-17.25524 0.90439,2.71797 1.93799,4.93827 3.10078,6.49823 0,0 10.55125,16.48005 21.09771,13.54675 11.64705,-3.23954 17.44665,-9.16355 17.44665,-31.87386 27.18442,-46.61212 17.10211,-75.25123 6.29247,-93.63098 -15.82927,-26.89252 -15.0158,-53.78505 -32.05571,-86.8552 -11.97243,-23.22711 -27.59115,-27.35669 -35.63499,-27.35669 -12.71413,0 -30.95033,-6.83319 -38.75012,-13.47976 -6.1537,-5.24452 -3.53622,-29.35209 -3.53622,-29.35209 l -49.68418,15.60915 c 0,0 0.0431,14.07312 -2.02891,15.3364 -16.63317,10.15886 -33.40511,18.13092 -39.08508,18.13092 -8.79031,0 -27.85912,5.5747 -33.53909,16.73366 -5.67997,11.15418 -7.10116,32.07005 -1.62217,37.44856 0,0 -4.0578,3.58886 -4.0578,13.14958 0,9.56073 0,38.64485 0,38.64485 0,0 -12.67586,-0.48808 -23.12662,-10.75701 -7.35477,-7.22079 -12.98689,-26.29438 -12.98689,-26.29438 0,0 -5.67997,7.96727 -21.50445,3.98603 0,0 -4.8665,24.30376 4.0578,45.81778 8.92909,21.51402 11.76668,37.05139 40.98,70.51871 0,0 -11.78103,21.24127 13.38885,58.96737 7.39305,11.07283 23.99272,5.12489 30.43353,2.78017 z"
       fill="#d42d31"
       stroke="#000000"
       stroke-width="2.39257"
       stroke-linecap="round"
       stroke-linejoin="round"
       id="path844" />
    <path
       d="m 666.18974,412.82203 c 10.45076,10.26414 23.12662,10.75701 23.12662,10.75701 0,0 21.73413,35.23783 21.67671,80.88334 -0.0431,0.39239 -2.4165,21.92076 -25.73452,8.36444 0,0 -4.81864,-1.96669 -8.52235,-5.97665 -29.21332,-33.46732 -32.05091,-49.00469 -40.98,-70.51871 -8.9243,-21.51881 -4.0578,-45.82257 -4.0578,-45.82257 15.82448,3.98603 21.50445,-3.98124 21.50445,-3.98124 0,0 5.63212,19.07359 12.98689,26.29438 z"
       fill="#f5f5f5"
       id="path846"
       style="stroke-width:4.78515" />
    <path
       d="m 676.7362,506.85017 c -29.21332,-33.46732 -32.05091,-49.00469 -40.98,-70.51871 -8.9243,-21.51881 -4.0578,-45.82257 -4.0578,-45.82257 15.82448,3.98603 21.50445,-3.98124 21.50445,-3.98124 0,0 5.63212,19.07359 12.98689,26.29438 10.45076,10.26414 23.12662,10.75701 23.12662,10.75701 0,0 23.2606,37.71175 21.59058,85.64935 m -34.17074,-2.37822 c 3.70371,4.00996 8.52235,5.97665 8.52235,5.97665 m -8.52235,-5.97665 8.52235,5.97665 m 25.73452,-8.36922 c 0,0 -2.20117,22.04996 -25.73452,8.36922"
       stroke="#000000"
       stroke-width="2.39257"
       stroke-linecap="round"
       stroke-linejoin="round"
       id="path848" />
    <path
       d="m 908.68664,518.5355 c 0,0 -21.09771,2.65576 -34.0846,-61.62312 0,0 -7.57489,-6.90497 -5.412,-15.40339 0,0 10.28328,-7.96727 10.28328,-19.65739 0,0 4.69901,-3.44052 8.86688,-2.65097 1.0288,0.19619 2.02411,0.646 2.90937,1.46904 0.0383,0.0383 0.0813,0.0813 0.12441,0.11963 0,0 11.71882,6.59393 16.22643,69.85836 0.62686,8.75682 1.50254,18.69079 1.6126,27.76821 z"
       fill="#f5f5f5"
       id="path850"
       style="stroke-width:4.78515" />
    <path
       d="m 874.60204,456.91238 c 12.98689,64.27888 34.0846,61.62312 34.0846,61.62312 l 0.52637,-0.11963 c -0.11006,-9.07742 -0.98574,-19.01139 -1.6126,-27.76821 -4.50761,-63.26443 -16.22643,-69.85836 -16.22643,-69.85836 m -16.77194,36.12308 c 0,0 14.06355,-11.41736 20.01627,-26.29439 0,0 1.21543,-5.44549 -3.24433,-9.82869 m -16.77194,36.12308 c 0,0 -7.57489,-6.90497 -5.412,-15.40339 0,0 10.28328,-7.96727 10.28328,-19.65739 0,0 4.69901,-3.44052 8.86688,-2.65097 1.07665,0.20576 2.11982,0.68906 3.03378,1.58867 m 0,0 c -0.91396,-0.89961 -1.95713,-1.37812 -3.03378,-1.58388"
       stroke="#000000"
       stroke-width="2.39257"
       stroke-linecap="round"
       stroke-linejoin="round"
       id="path852" />
    <path
       d="m 819.33359,268.52592 c 0,0 -2.61748,24.10757 3.53622,29.35209 -7.74237,3.81376 -18.2649,8.16825 -31.03646,8.16825 -16.77194,0 -21.26998,-3.68456 -24.21285,-6.57479 2.07197,-1.26328 2.02891,-15.3364 2.02891,-15.3364 z"
       fill="#f3c39a"
       stroke="#000000"
       stroke-width="2.39257"
       stroke-linecap="round"
       stroke-linejoin="round"
       id="path854" />
    <path
       d="m 871.23329,569.03316 4.99091,107.80937"
       stroke="#000000"
       stroke-width="2.39257"
       stroke-linecap="round"
       stroke-linejoin="round"
       id="path856" />
    <path
       d="m 729.94704,576.44057 c -3.1582,24.31333 -8.20653,65.47517 -11.68533,105.18232"
       stroke="#000000"
       stroke-width="2.39257"
       stroke-linecap="round"
       stroke-linejoin="round"
       id="path858" />
    <path
       d="m 766.9458,389.97774 c 0,0 -4.8665,95.35363 -9.19227,223.64821"
       stroke="#000000"
       stroke-width="2.39257"
       stroke-linecap="round"
       stroke-linejoin="round"
       id="path860" />
    <path
       d="m 812.93106,391.04004 c 0,0 3.78505,128.02661 10.2785,214.08749"
       stroke="#000000"
       stroke-width="2.39257"
       stroke-linecap="round"
       stroke-linejoin="round"
       id="path862" />
    <path
       d="m 653.20764,386.52765 c 0,0 -5.67997,7.96727 -21.50446,3.98124 -5.67997,-7.5701 1.48818,-12.0825 1.48818,-12.0825 0,0 10.81922,1.59346 16.36521,-2.65575 0,-0.005 6.62743,3.05292 3.65107,10.75701 z"
       fill="#f5f5f5"
       stroke="#000000"
       stroke-width="2.39257"
       stroke-linecap="round"
       stroke-linejoin="round"
       id="path864" />
    <path
       d="m 836.19166,239.90595 c -1.21543,3.2874 -4.55067,5.47421 -4.55067,5.47421 -0.34453,1.225 -0.98096,2.34951 -1.73701,3.09121 -2.84238,2.78974 -1.92842,8.46971 -3.55058,12.15427 -1.62217,3.68457 -4.56503,1.29678 -4.56503,1.29678 -1.82314,6.37381 -5.07226,12.44616 -7.60838,13.64245 -5.7374,2.70839 -16.4322,13.74773 -19.98278,14.74304 -3.55058,0.99531 -5.88095,2.98593 -11.25945,2.98593 -5.37372,0 -7.50311,-0.99531 -10.44598,-2.88544 -4.68466,-3.01465 -5.57948,-8.06776 -13.89606,-22.60982 -6.82362,-11.92937 -5.37851,-22.31314 -4.66552,-24.60523 0.7082,-2.2873 2.12939,-7.07245 -0.38281,-10.69959 -3.60322,-5.20624 -3.89033,-14.77653 -3.89033,-14.77653 l -1.20586,-12.37439 c 0,0 5.88574,-5.77568 11.66619,-11.45565 5.78046,-5.67518 13.58982,-12.14948 31.03647,-12.14948 21.30347,0 32.60599,18.58551 40.74553,30.10814 z"
       fill="#f3c39a"
       stroke="#000000"
       stroke-width="2.39257"
       stroke-linecap="round"
       stroke-linejoin="round"
       id="path866" />
    <path
       d="m 826.45389,235.91993 c -1.59824,-3.27304 0,-8.46493 0.91396,-9.35975 0.91396,-0.89961 2.0289,-2.99072 -0.91396,-3.88554 -2.93808,-0.89961 -5.78046,-4.68466 -6.99589,-4.68466 -7.8285,0 -9.17312,-3.92382 -9.73777,-3.2874 -3.85683,4.34013 -7.862,2.44043 -11.25945,-0.89482 -4.9957,-4.90477 0,0 -10.245,-1.39248 -8.95301,-1.22021 -7.51268,-6.88104 -9.83827,-4.98133 -3.11991,2.54569 -9.13006,3.48358 -12.88161,1.49296 -3.44531,-1.82792 -4.97177,2.09111 -7.91464,1.0958 -2.46435,-0.83261 -1.82314,4.58417 -5.26844,5.08183 -2.00498,0.29189 -2.65576,2.6079 -2.65576,2.6079 -3.11034,3.05293 -6.16327,1.225 -6.68006,-2.61269 -1.19629,-8.84295 2.97157,-21.24127 5.47899,-21.24127 2.20117,0 0.50722,-2.68925 4.66552,-3.58886 3.54579,-0.76084 2.46435,-10.57517 5.12011,-11.69011 4.39755,-1.84228 5.93358,1.14843 6.4408,1.64609 0.50723,0.49765 -0.91396,-3.78505 3.14384,-5.47899 5.61298,-2.34473 6.1872,4.08173 8.52235,1.78964 3.91904,-3.84247 10.39334,-0.88047 15.92497,1.99541 7.54139,3.91425 6.25419,0.29668 15.11628,0.29668 8.9243,0 8.71854,5.47899 12.98211,6.27811 3.46444,0.64599 7.87635,7.81893 11.5322,11.42693 1.43554,2.02412 2.9333,4.00038 4.59374,5.14882 2.43564,1.67959 6.03407,8.36922 5.69433,11.49871 -0.646,5.99579 -3.00508,23.78696 -5.99579,26.72504 -1.92842,1.89014 -5.88573,3.88554 -9.74256,-3.98602 z"
       fill="#a05815"
       stroke="#000000"
       stroke-width="2.39257"
       stroke-linecap="round"
       stroke-linejoin="round"
       id="path868" />
    <path
       d="m 792.91479,233.26896 c 0,0 13.45584,-2.45957 16.90593,0.92831 z"
       fill="#f3c39a"
       id="path870"
       style="stroke-width:4.78515" />
    <path
       d="m 792.91479,233.26896 c 0,0 13.45584,-2.45957 16.90593,0.92831"
       stroke="#000000"
       stroke-width="2.39257"
       stroke-linecap="round"
       stroke-linejoin="round"
       id="path872" />
    <path
       d="m 777.76502,250.93093 c 0.54072,-10.62781 0.94745,-20.71968 -10.2785,-20.71968 -7.70887,0 -13.14001,3.77548 -15.17849,0.0718"
       fill="#f3c39a"
       id="path874"
       style="stroke-width:4.78515" />
    <path
       d="m 777.76502,250.93093 c 0.54072,-10.62781 0.94745,-20.71968 -10.2785,-20.71968 -7.70887,0 -13.14001,3.77548 -15.17849,0.0718"
       stroke="#000000"
       stroke-width="2.39257"
       stroke-linecap="round"
       stroke-linejoin="round"
       id="path876" />
    <path
       d="m 831.64099,245.38016 c 1.61259,-3.36396 -4.42626,-9.01043 -9.29276,-4.23007 z"
       fill="#f3c39a"
       id="path878"
       style="stroke-width:4.78515" />
    <path
       d="m 831.64099,245.38016 c 1.61259,-3.36396 -4.42626,-9.01043 -9.29276,-4.23007"
       stroke="#000000"
       stroke-width="2.39257"
       stroke-linecap="round"
       stroke-linejoin="round"
       id="path880" />
    <path
       d="m 819.96523,259.04654 c 0,0 0.52158,2.22031 1.82314,2.87109"
       stroke="#000000"
       stroke-width="2.39257"
       stroke-linecap="round"
       stroke-linejoin="round"
       id="path882" />
    <path
       d="m 787.14869,262.6354 c 0,0.79434 1.57431,0.76084 1.57431,0.21534 0,-0.39239 -0.2249,-0.73213 -1.10537,-0.73213 -0.96181,0 -1.92841,1.49296 -4.00038,1.49296 -2.07197,0 -3.03378,-1.49296 -3.9956,-1.49296 -0.88525,0 -1.11015,0.33974 -1.11015,0.73213 0,0.5455 1.57431,0.579 1.57431,-0.21534"
       stroke="#000000"
       stroke-width="2.39257"
       stroke-linecap="round"
       stroke-linejoin="round"
       id="path884" />
    <path
       d="m 787.97652,277.62248 c -0.91875,0 -2.82324,1.06231 -4.73251,1.06231 -1.90927,0 -3.81376,-1.06231 -4.73251,-1.06231"
       stroke="#000000"
       stroke-width="2.39257"
       stroke-linecap="round"
       stroke-linejoin="round"
       id="path886" />
    <path
       d="m 790.54614,272.47845 c -1.63173,-0.46416 -3.33524,-0.79912 -4.89042,-0.13398 -1.55038,0.66513 -2.4787,0.66513 -2.4787,0.66513 0,0 -0.93311,0 -2.48349,-0.66513 -1.55039,-0.66514 -3.25869,-0.33018 -4.89042,0.13398"
       stroke="#000000"
       stroke-width="2.39257"
       stroke-linecap="round"
       stroke-linejoin="round"
       id="path888" />
    <path
       d="m 771.93192,240.43711 c -1.5456,-0.78955 -4.08173,-2.3543 -7.42176,-1.67481 -1.64131,0.33018 -2.9333,0.99053 -3.98603,1.08145 0,0 1.45469,5.11053 5.91444,5.11053 4.46454,0 5.49335,-4.51717 5.49335,-4.51717 z"
       fill="#f5f5f5"
       stroke="#000000"
       stroke-width="2.39257"
       stroke-linecap="round"
       stroke-linejoin="round"
       id="path890" />
    <path
       d="m 807.39465,240.10693 c 0,0 -0.65557,0.4498 -2.17725,0.19619"
       stroke="#000000"
       stroke-width="2.39257"
       stroke-linecap="round"
       stroke-linejoin="round"
       id="path892" />
    <path
       d="m 793.40766,241.28886 c 0,-0.39238 3.8999,-2.90937 6.60829,-2.57919 1.66523,0.20576 4.14872,1.50253 5.20145,1.59345 0,0 -0.40195,4.78515 -5.90965,5.11054 -4.45976,0.26318 -5.90009,-3.73242 -5.90009,-4.1248 z"
       fill="#f5f5f5"
       stroke="#000000"
       stroke-width="2.39257"
       stroke-linecap="round"
       stroke-linejoin="round"
       id="path894" />
    <path
       d="m 771.93671,240.43711 c 0.66513,0.33974 1.19628,0.55507 1.63652,0.40195"
       stroke="#000000"
       stroke-width="2.39257"
       stroke-linecap="round"
       stroke-linejoin="round"
       id="path896" />
    <path
       d="m 824.26708,250.36629 c 0.14834,-0.47373 0.14355,-1.54082 -0.31104,-0.11485 -0.4498,1.42598 0.31104,0.11485 0.31104,0.11485 z"
       stroke="#000000"
       stroke-width="2.39257"
       stroke-linecap="round"
       stroke-linejoin="round"
       id="path898" />
    <path
       d="m 824.93221,243.29384 c 0.66035,-0.646 4.25878,-1.78965 3.7037,2.33994 z"
       fill="#f3c39a"
       id="path900"
       style="stroke-width:4.78515" />
    <path
       d="m 824.93221,243.29384 c 0.66035,-0.646 4.25878,-1.78965 3.7037,2.33994"
       stroke="#000000"
       stroke-width="2.39257"
       stroke-linecap="round"
       stroke-linejoin="round"
       id="path902" />
    <path
       d="m 821.28114,244.28915 c 0,1.39248 1.11494,1.94277 1.11494,4.13437 0,2.19159 -1.60302,3.23476 -2.0289,4.53153"
       stroke="#000000"
       stroke-width="2.39257"
       stroke-linecap="round"
       stroke-linejoin="round"
       id="path904" />
    <path
       d="m 791.29263,332.60861 c 36.96526,0 56.56044,-10.4699 66.21208,-21.46617 -11.97244,-1.17236 -27.40933,-7.45047 -34.62054,-13.26921 -7.74237,3.81376 -18.27926,8.17303 -31.05561,8.17303 -16.76715,0 -21.26519,-3.68456 -24.20806,-6.57479 -16.63317,10.15886 -33.40511,18.12613 -39.08508,18.12613 0,0 19.47555,15.01101 62.75721,15.01101 z"
       fill="#f5f5f5"
       stroke="#000000"
       stroke-width="2.39257"
       stroke-linecap="round"
       stroke-linejoin="round"
       id="path906" />
    <path
       d="m 891.37398,420.7893 c 0,0 11.71882,6.59393 16.22643,69.85836 0.87568,12.23563 2.23945,26.7729 1.32549,38.06107 v -0.0191 c 0,0 -2.94765,11.56571 -10.79051,5.78525 -7.84285,-5.78525 -18.3941,-18.59508 -23.53335,-77.56245 0,0 -0.54072,66.67145 9.87176,80.61537 0,0 10.55125,16.48005 21.09771,13.54675 11.64705,-3.23954 17.44665,-9.16355 17.44665,-31.87386 0,-12.08728 -5.13925,-37.31936 -6.76142,-49.27266 -8.32137,-61.29295 -27.91654,-50.71778 -27.91654,-50.71778 1.07665,0.20098 2.11982,0.67949 3.03378,1.5791 z"
       stroke="#000000"
       stroke-width="2.39257"
       stroke-linecap="round"
       stroke-linejoin="round"
       id="path908" />
    <path
       d="m 693.91967,569.66001 c 14.12575,9.51288 21.98775,-10.58953 24.33726,-29.34252 11.03454,-87.95579 -28.94057,-116.73845 -28.94057,-116.73845 0,0 23.2606,37.71175 21.59058,85.64935 -0.37803,10.77615 -10.77137,34.53919 -21.04986,29.49565 -8.7951,-4.32099 -4.59853,-25.89722 -4.59853,-25.89722 0,0 -4.81864,-1.96669 -8.52235,-5.97665 0,0 -11.78103,21.23649 13.38885,58.96737 1.08622,1.62695 2.37343,2.88545 3.79462,3.84247 z"
       stroke="#000000"
       stroke-width="2.39257"
       stroke-linecap="round"
       stroke-linejoin="round"
       id="path910" />
    <path
       d="m 880.5117,451.34247 c 0,0 9.50808,7.16336 11.67097,26.28959"
       stroke="#000000"
       stroke-width="2.39257"
       stroke-linecap="round"
       stroke-linejoin="round"
       id="path912" />
    <path
       d="m 908.9259,528.70873 c -1.07666,13.21657 -5.27802,21.99253 -17.06384,17.42272"
       stroke="#000000"
       stroke-width="2.39257"
       stroke-linecap="round"
       stroke-linejoin="round"
       id="path914" />
    <path
       d="m 926.54003,478.16322 c 0,0 5.5077,-38.87932 -31.60112,-59.08222"
       stroke="#000000"
       stroke-width="2.39257"
       stroke-linecap="round"
       stroke-linejoin="round"
       id="path916" />
    <g
       id="use15336"
       transform="matrix(1.045548,0.57837272,-0.57837272,1.045548,1651.9413,374.16504)"
       inkscape:transform-center-x="-3.97266"
       inkscape:transform-center-y="-12.221377"
       style="display:inline">
      <g
         transform="matrix(-0.67582122,0.00380642,0.00406181,0.72116921,-508.15708,87.189444)"
         id="g2459"
         style="display:inline;fill:#eac102;fill-opacity:1;fill-rule:evenodd;stroke:#aa8800;stroke-width:0.381928;stroke-miterlimit:4;stroke-dasharray:none;stroke-dashoffset:0;stroke-opacity:1">
        <path
           d="m 102.29126,43.254758 c -12.599996,4.2 -25.899996,14.3 -34.199996,25.9 -1.8,2.5 -3.4,4.4 -3.6,4.2 -0.1,-0.2 0.8,-5.3 2.2,-11.3 1.4,-6 2.5,-12 2.4,-13.4 0,-2.3 -0.2,-2.2 -4,2 -4.8,5.4 -11.1,17.3 -13.5,25.5 -1.3,4.4 -1.8,9.3 -1.8,18.4 l 0.1,12.500002 -2.4,-8.800002 c -2.5,-9.4 -5.1,-15.8 -7.7,-19.1 -1.3,-1.7 -1.7,-1.8 -2.6,-0.5 -1.9,2.9 -0.6,15.3 2.6,24.500002 0.3,1.1 -0.9,-0.5 -2.7,-3.500002 -1.9,-3 -3.9,-5.3 -4.4,-5 -1.2,0.6 -1.3,10.400002 -0.1,14.500002 0.9,2.9 0.9,2.9 -2.5,-1 -5.6,-6.5 -6.9,-7 -6.9,-2.5 0,1.7 0.7,4.7 1.5,6.7 0.8,1.9 1.5,3.7 1.5,3.8 0,0.1 -1.4,0.5 -3.2,0.9 -4.4,0.9 -5.8,2.3 -5.8,6 0,4 2.7,13.3 4.1,14.2 1.5,0.9 2,0 3.3,-5.8 l 1.2,-5.2 3.7,4.8 c 5.3,7 13.2,23 17.2,34.9 4.2,12.7 4.4,15.2 0.5,7.4 -1.6,-3.1 -4.4,-7.8 -6.1,-10.4 -3.8,-5.4 -24.7,-27.3 -26.1,-27.3 -1.5,0 0,6.8 2.7,12.5 1.3,2.8 5.2,8.3 8.5,12.3 3.4,3.9 5.9,7.2 5.6,7.2 -0.3,0 -2.7,-1.6 -5.2,-3.5 -5.1,-3.9 -10.3,-6.9 -11,-6.3 -0.2,0.3 1.8,4.5 4.5,9.5 l 4.8,9.1 -3.2,-0.5 c -1.8,-0.3 -4.2,0 -5.4,0.6 -1.8,1 -2.1,2.1 -2.1,6.9 0,6.4 1.6,13.2 3.1,13.2 1.4,0 3.9,-6.3 3.9,-9.7 0,-2.7 0.1,-2.6 5.1,2.2 7.1,7 16.6,18.9 26,32.7 l 7.9,11.7 -9.3,-7 c -8.9,-6.6 -27.2,-16.9 -30.2,-16.9 -0.8,0 -1.5,0.4 -1.5,0.9 0,0.5 5.9,6.5 13.1,13.4 l 13,12.5 -6.8,-2.3 c -3.7,-1.2 -8.4,-2.5 -10.3,-2.9 -3.4,-0.7 -3.4,-0.5 4.2,6.6 4.2,4 11.8,9.9 17,13.2 5.1,3.2 8.4,5.5 7.3,5.2 -9.1,-2.6 -22.5,-4.8 -22.5,-3.6 0,1.4 6.9,6.9 11.8,9.4 2.7,1.3 9.5,4.1 15.2,6 6.362782,3.9647 21.942333,12.97933 34.903572,17.92446 C 78.72083,266.53071 80.083304,221.21728 78.191264,228.15476 l 0.4,-10.6 c 0.7,-16.5 6.8,-31.9 16,-40.8 2,-1.9 3.6,-3.8 3.6,-4.2 0,-0.4 -1.9,-0.2 -4.2,0.4 -3,0.7 -5.9,2.6 -9.5,6.3 l -5.2,5.2 2.4,-4.7 c 3.7,-7.4 10.1,-14.8 16.2,-18.9 l 5.699996,-3.7 -3.3,-0.3 c -6.599996,-0.7 -18.499996,8 -25.099996,18.4 -3.8,6.1 -3.8,4.2 0.1,-5.1 3.7,-9.1 9.4,-18 15.6,-24.6 3.5,-3.7 4.1,-4.9 2.8,-4.9 -5.2,0 -14,6.8 -21.3,16.5 -2.1,2.9 -2.1,2.7 0.3,-3 3,-6.8 7.6,-14.4 11.9,-19.2 3.1,-3.6 2.2,-4.1 -3,-1.7 -4.7,2.3 -12.3,10.8 -16.7,19 -2.1,3.8 -3.6,6 -3.3,4.9 0.3,-1.1 1,-4 1.5,-6.5 3.7,-16.6 12.7,-32.8 24.9,-44.7 4.7,-4.5 5.9,-6.300002 4.6,-6.300002 -3.8,0 -12.7,5.100002 -18.6,10.700002 -6.1,5.8 -6.2,5.8 -3.8,1.8 8.4,-14.300002 21,-27.300002 35.499996,-36.600002 4.6,-3 8.4,-5.7 8.5,-6 0,-1.5 -15.199996,3.1 -22.099996,6.6 -1.6,0.9 -5.4,3.6 -8.6,6.2 -4.8,3.9 -5.3,4.2 -3.5,1.6 3.4,-4.8 14.9,-15.1 19.5,-17.5 3.399996,-1.8 3.799996,-2.3 2.099996,-2.6 -4.599996,-0.7 -17.399996,6.1 -27.399996,14.5 l -4.4,3.8 2.4,-4 c 7.8,-12.9 17.4,-23.2 28.699996,-30.6 4,-2.6 7.9,-4.9 8.6,-5.2 0.6,-0.2 1,-0.7 0.7,-1 -0.3,-0.3 -3.9,0.5 -7.9,1.9 z"
           id="path2405"
           style="fill:#008f4c;fill-opacity:1;stroke:none"
           sodipodi:nodetypes="cccscccccccccccccscscscccccccsccsccccccsssccccsscccccccsccccccsccccccccccscccccsccscccccsccccccccsc" />
        <g
           transform="translate(12.03847,-13.68008)"
           id="g2449"
           style="fill:#00b052;fill-opacity:1;stroke-width:0.381928;stroke-miterlimit:4;stroke-dasharray:none">
          <path
             d="m 70.4,68.9 c -8.4,6.3 -23.5,28.3 -22.2,32.3 0.2,0.6 4,-4.4 8.3,-11.2 4.3,-6.8 10.3,-14.9 13.3,-18.2 3,-3.2 5.2,-5.8 5,-5.8 -0.2,0 -2.2,1.3 -4.4,2.9 z"
             id="path2407"
             style="fill:#00b052;fill-opacity:1;stroke:none" />
          <path
             d="m 47.6,76.1 c -6.6,14 -7.7,19.6 -8.3,40.8 -0.4,13.6 -0.3,18.2 0.6,17.7 0.6,-0.4 1.1,-2.6 1.1,-5 0,-11.8 5.3,-42.3 9.5,-54.5 1.4,-4.1 2.3,-7.7 2,-7.9 -0.3,-0.3 -2.5,3.7 -4.9,8.9 z"
             id="path2409"
             style="fill:#00b052;fill-opacity:1;stroke:none" />
          <path
             d="m 26.4,96.1 c 1.7,5.7 7.865742,29.89226 10.165742,41.49226 3,14.5 4.787291,20.63645 3.987291,12.53645 C 38.953033,133.42871 31.4,103.3 27.4,97 c -0.8,-1.4 -1.3,-1.8 -1,-0.9 z"
             id="path2411"
             style="fill:#00b052;fill-opacity:1;stroke:none" />
          <path
             d="m 59.6,99 c -8.5,9.5 -14.8,23.2 -16.1,35.3 -0.5,4.7 -0.3,4.3 2.4,-4.1 3.5,-11.5 8.9,-22.5 14.2,-29.2 5,-6.3 4.6,-7.6 -0.5,-2 z"
             id="path2413"
             style="fill:#00b052;fill-opacity:1;stroke:none" />
          <path
             d="m 59,112.2 c -5.3,5.5 -10.2,15.8 -13.4,28.2 -3.3,12.5 -3.3,15.8 0,4.6 3,-10.3 9.9,-24.8 14.9,-31.3 2,-2.7 3.5,-5.1 3.2,-5.3 -0.3,-0.3 -2.4,1.4 -4.7,3.8 z"
             id="path2415"
             style="fill:#00b052;fill-opacity:1;stroke:none" />
          <path
             d="m 21.5,114.7 c 0.4,1 5.401097,12.04419 9.201097,23.14419 9,26.6 10.921549,30.00387 6.221549,11.50387 C 33.022646,134.34806 23.5,113 21.4,113 c -0.3,0 -0.3,0.8 0.1,1.7 z"
             id="path2417"
             style="fill:#00b052;fill-opacity:1;stroke:none" />
          <path
             d="m 14,121.8 c 0,2.5 6,14.4 9.4,18.5 1.9,2.3 5.3,7.4 7.5,11.2 2.3,3.8 6.606065,10.28948 6.606065,9.88948 C 37.506065,159.48948 24.7,135.8 20.5,129.5 15,121.3 14,120.1 14,121.8 Z"
             id="path2419"
             style="fill:#00b052;fill-opacity:1;stroke:none" />
          <path
             d="m 60,128 c -6.9,7.2 -11.081225,19.16961 -13.381225,29.86961 -1.953115,11.60327 -3.228554,23.14183 -2.148065,26.64916 0.8,2.5 0.791161,0.51659 1.391161,-6.68341 C 47.861871,153.33536 51.4,139.2 63.1,126.5 c 6.2,-6.7 3.6,-5.4 -3.1,1.5 z"
             id="path2421"
             style="fill:#00b052;fill-opacity:1;stroke:none" />
          <path
             d="m 13,133.2 c 0,0.3 2.5,4.3 5.7,8.9 10.6,15.9 21.632582,42.074 25.332582,62.074 3.9,21.4 2.91658,15.9829 2.41658,5.8829 C 44.435355,188.0569 33.7,158.4 21.7,142.5 17.5,136.8 13,132.1 13,133.2 Z"
             id="path2423"
             style="fill:#00b052;fill-opacity:1;stroke:none" />
          <path
             d="m 7.7226455,141.68839 c 1.1,7.1 3.0088385,9.3138 2.6088385,2.6138 -0.2,-3.5 -1.4961289,-8.24529 -2.3961289,-8.54529 -1.1,-0.4 -0.7127096,2.03149 -0.2127096,5.93149 z"
             id="path2425"
             style="fill:#00b052;fill-opacity:1;stroke:none" />
          <path
             d="m 63.33755,154.44587 c -7.2,7.8 -11.991162,20.03813 -15.36684,36.63148 -0.3,6.6 -0.339226,12.11104 0.460774,11.01104 0.6,-0.8 0.682323,-3.76574 0.682323,-5.56574 0,-4.7 4.47071,-20.52374 6.87071,-26.82374 1.1,-2.9 3.778452,-7.32156 5.678452,-10.22156 3.7,-5.4 4.974581,-8.73148 1.674581,-5.03148 z"
             id="path2427"
             style="fill:#00b052;fill-opacity:1;stroke:none" />
          <path
             d="m 7.6,157 c 0.4,0.8 3.7,5.1 7.3,9.5 8.5,10.5 16.7,23.2 20.3,31.4 2.1,4.8 2.7,5.6 2.2,3.1 -1,-5.4 -5.7,-16 -10,-22.6 C 23.9,173.1 5.7,153.5 7.6,157 Z"
             id="path2429"
             style="fill:#00b052;fill-opacity:1;stroke:none" />
          <path
             d="m 64.179549,170.63039 c -8.2,10.3 -10.885096,25.10941 -13.548065,43.23096 -0.665742,7.7022 -0.04806,11.09168 1.151936,3.39168 0.8,-4.7 1.930387,-12.3 2.730387,-17 1.5,-9.5 7.374581,-23.56574 11.274581,-28.56574 1.4,-1.8 5.362968,-7.67677 3.740323,-7.07181 -0.2,-0.3 -3.749162,3.91491 -5.349162,6.01491 z"
             id="path2431"
             style="fill:#00b052;fill-opacity:1;stroke:none" />
          <path
             d="M 77.578452,176.64806 C 69.078452,183.04806 62.1,193.8 57.9,208.3 c -2.5,8.7 -3.8,34.6 -2,38.7 0.9,2 1.1,1.1 0.7,-5 -1.4,-24.4 5.803871,-48.61271 19.203871,-62.11271 8.004968,-6.37348 8.274581,-8.23923 1.774581,-3.23923 z"
             id="path2433"
             style="fill:#00b052;fill-opacity:1;stroke:none" />
          <path
             d="m 9,177.4 c 0,0.3 2.7,3.9 6.1,7.9 6.5,7.7 21.98342,28.22155 29.08342,40.22155 2.3,4 4.569613,7.44806 4.769613,7.14806 C 49.853033,231.86961 40,213.4 35,205.4 28.3,194.5 20.2,185.4 10.8,178.1 9.8,177.4 9,177 9,177.4 Z"
             id="path2435"
             style="fill:#00b052;fill-opacity:1;stroke:none" />
          <path
             d="m 3.1,199.2 c 0,2.3 0.4,5.2 0.9,6.3 0.7,1.9 0.8,1.8 1.5,-0.6 0.9,-3.7 0.2,-9.2 -1.2,-9.7 -0.9,-0.2 -1.3,0.9 -1.2,4 z"
             id="path2437"
             style="fill:#00b052;fill-opacity:1;stroke:none" />
          <path
             d="m 69.3,199.3 c -6.9,10.2 -9.3,19.2 -9.3,34.2 0,12.1 3.1,28.3 6.9,36.5 1.2,2.5 1.9,3.6 1.5,2.5 -3.2,-10.1 -5.6,-26.2 -5.7,-37.5 -0.1,-13.8 1.2,-20.5 6.4,-31.8 1.6,-3.6 2.8,-6.6 2.6,-6.8 -0.1,-0.2 -1.2,1.2 -2.4,2.9 z"
             id="path2439"
             style="fill:#00b052;fill-opacity:1;stroke:none" />
          <path
             d="m 27.1,209.6 c 0.2,0.5 3.1,4.9 6.3,9.9 3.3,4.9 11.5,18.3 18.3,29.7 6.8,11.5 12.6,20.8 12.9,20.8 0.8,0 -10.5,-21.8 -17,-32.8 -6.5,-11 -17.4,-26.4 -19.6,-27.7 -0.7,-0.4 -1.1,-0.4 -0.9,0.1 z"
             id="path2441"
             style="fill:#00b052;fill-opacity:1;stroke:none" />
          <path
             d="m 12.6,227.8 c 0.5,0.5 4.3,3.2 8.4,6 7.5,5.1 18.2,13.8 30.1,24.2 l 6.3,5.5 -2.5,-4.4 C 51,252 39.1,242.3 21.8,231.9 14.5,227.5 9.9,225.5 12.6,227.8 Z"
             id="path2443"
             style="fill:#00b052;fill-opacity:1;stroke:none" />
          <path
             d="m 20,248.3 c 0,0.3 2.6,2 5.8,3.8 10.8,6.1 27.7,17.7 36.7,25.2 4.9,4.2 9.2,7.4 9.4,7.2 0.8,-0.9 -10.8,-13 -18.1,-18.7 -8.7,-6.9 -21.2,-14.2 -27.1,-15.9 -2.1,-0.5 -4.5,-1.3 -5.3,-1.6 -0.8,-0.3 -1.4,-0.3 -1.4,0 z"
             id="path2445"
             style="fill:#00b052;fill-opacity:1;stroke:none" />
          <path
             d="m 26,268.4 c 0,0.2 3,1.4 6.8,2.7 17.5,5.8 30.9,13.3 44,24.6 8.8,7.7 7.7,4.5 -1.6,-4.6 C 66,282.1 56,275.9 44.1,272 35.9,269.3 26,267.3 26,268.4 Z"
             id="path2447"
             style="fill:#00b052;fill-opacity:1;stroke:none" />
        </g>
        <path
           d="m 77.860178,58.358755 c -0.5616,0.6552 -5.975135,5.47547 -9.287621,10.145537 -2.2464,2.6208 -5.869542,8.015297 -5.775942,8.576897 0,0.6552 0.491987,1.742671 3.38562,-2.848007 0.6552,-1.0296 2.831987,-4.257626 5.078387,-6.972026 2.2464,-2.808 9.221782,-10.218924 9.034582,-10.406124 -0.1872,-0.1872 -1.967026,0.848523 -2.435026,1.503723 z"
           id="path2451"
           style="fill:#005000;stroke:none" />
        <path
           d="m 94.076413,157.32975 c -2.19508,0.76831 -5.559508,4.0168 -7.754577,5.6631 -4.390138,3.2926 -4.979112,4.48846 -0.808506,1.52511 3.073116,-2.19505 8.280299,-6.14275 12.94393,-6.72315 0.435646,-0.0542 -1.850953,2.25833 -3.058239,3.57538 -1.646292,1.86581 -1.207284,1.75605 2.634072,-0.76827 2.524347,-1.64631 4.609677,-3.18284 4.609677,-3.40236 0,-0.87801 -4.724989,-1.2966 -8.566357,0.13019 z"
           id="path2453"
           style="fill:#005000;stroke:none" />
        <path
           d="m 26.402772,232.17362 c 0,2.50878 30.779459,25.45701 32.184385,24.05208 0.200704,-0.20071 -3.813372,-3.01057 -9.031668,-6.22182 -5.117946,-3.1109 -11.748786,-8.52418 -15.160749,-11.53474 -3.311614,-3.01057 -7.49973,-7.87639 -7.991968,-6.29552 z"
           id="path2455"
           style="fill:#005000;stroke:none" />
        <path
           d="m 100.67892,43.391522 c -6.92428,2.609148 -15.253485,7.827445 -21.073893,13.146095 -3.010556,2.809853 -2.308092,2.508796 2.910206,-1.404927 7.02463,-5.218297 16.457702,-10.536945 17.360875,-9.734131 0.200702,0.301056 -1.103873,1.404926 -3.01056,2.508797 -3.713018,2.408443 -16.257001,14.852076 -20.271077,20.271077 -5.117945,6.723576 -11.038705,17.661928 -14.249965,26.091482 -1.806334,4.716552 -3.21126,7.827445 -3.21126,7.024625 -0.100352,-2.20773 2.7095,-17.059809 3.81337,-20.973532 0.602112,-1.906685 0.802815,-3.713018 0.602112,-4.114426 -0.301056,-0.401407 1.425264,-7.028698 3.131246,-14.655439 1.605629,-7.626742 2.287755,-13.844491 2.087051,-14.145546 -1.003519,-0.903168 -8.228853,8.730611 -11.841521,16.0563 -5.318648,10.536944 -6.924279,17.76228 -6.924279,32.815045 l -0.10035,12.543988 -2.408445,-9.533412 c -2.609148,-9.934843 -7.124983,-20.271082 -9.232373,-20.873195 -0.702463,-0.200703 -1.505278,1.204224 -1.906686,3.311613 -0.602112,3.311611 0,6.52287 4.214779,23.582674 0.301055,1.40494 -0.802815,0.10037 -2.508797,-2.91019 -3.813371,-6.723576 -5.117944,-8.228856 -6.221815,-7.526397 -1.505279,0.903162 -1.003519,6.823937 1.003519,13.346807 1.003517,3.41196 1.806333,6.12147 1.705982,6.12147 -0.200705,0 -2.408445,-2.80986 -5.017595,-6.12147 -3.612667,-4.6162 -5.017594,-5.82041 -5.720055,-4.81691 -0.903167,1.5053 -0.401408,4.51585 1.705981,10.13557 l 1.404926,3.81335 h -3.311612 c -1.806333,0 -4.114427,0.60211 -5.117945,1.30459 -1.705981,1.2042 -1.806334,2.00701 -0.802815,7.32569 1.154046,6.57305 2.754902,11.37243 3.993954,11.45198 1.983751,0.12736 1.962514,-1.93302 2.962866,-7.66121 0.544701,-2.22628 1.575109,-3.34463 1.154831,-4.63892 -0.420277,-1.29429 -2.291241,-2.76452 -3.094056,-3.46699 -2.508799,-2.3081 -2.207743,-3.31162 1.003519,-3.31162 2.910202,0 9.031666,5.51936 14.551019,13.04575 6.322168,8.63027 13.647853,26.79396 17.16017,42.14778 1.705981,7.82745 4.616187,27.89784 4.616187,32.41366 v 3.21126 l -1.605631,-3.01056 c -0.903167,-1.70598 -2.207742,-6.72357 -3.010556,-11.33976 -2.308094,-13.24645 -5.92076,-26.09148 -10.336242,-37.5316 -4.415483,-11.33978 -13.866631,-27.43039 -18.08141,-31.64518 -2.340631,-2.30988 -2.899336,-1.0912 0.754006,2.75292 8.443095,11.61727 16.02283,27.48735 19.535145,38.22499 2.809852,8.52991 8.028149,31.00871 7.426037,31.61084 -0.200702,0.30105 -1.404925,-3.51233 -2.508796,-8.42955 -4.014075,-17.05982 -9.687121,-27.14202 -27.248698,-44.60324 0,0 -6.024479,-7.26651 -10.885012,-10.08854 0.08022,4.11189 0.903166,4.81688 0.903166,4.81688 1.204223,6.22183 4.315131,11.64082 13.547504,22.57917 4.114425,4.91725 7.426037,9.23237 7.426037,9.63379 0,0.30107 -2.308094,-1.50527 -5.218297,-4.11445 -5.318648,-4.71651 -13.547502,-10.13552 -14.350318,-9.33269 -0.301056,0.20071 1.705981,4.61618 4.415483,9.73413 3.411963,6.42252 4.415482,9.03166 3.311612,8.63025 -3.913724,-1.60562 -5.31865,-1.60562 -7.827446,0 -2.609149,1.70599 -2.609149,1.90669 -2.007037,8.73063 0.301056,3.81335 1.10387,7.92779 1.705982,9.132 1.204222,2.00704 1.204222,2.00704 2.408444,-0.40141 0.702463,-1.30457 1.505278,-4.11441 1.906685,-6.2218 0.401409,-2.00705 1.00352,-3.71304 1.304575,-3.71304 0.401407,0 7.713186,7.79641 9.118113,9.00063 l -3.297704,-4.4848 -1.228978,-1.72692 c -1.304576,-1.60563 -5.193541,-4.79594 -6.999878,-5.89981 -4.014072,-2.50879 -4.114424,-3.51231 -0.702461,-4.31513 1.906685,-0.50176 3.813372,0.10036 7.526391,2.50881 10.737649,6.82392 24.285151,24.88726 39.940043,53.08613 12.543984,22.77989 19.769319,39.94003 9.533427,22.77989 -14.551019,-24.28517 -38.24491,-56.70016 -47.577635,-66.53463 -3.913722,-4.11442 0.02989,1.60316 4.947134,7.62427 5.920761,7.32569 22.259072,28.40338 26.473851,35.12695 l 2.10739,3.51231 -3.411965,-2.70949 C 46.689614,222.73745 28.12071,211.79148 21.096078,209.6841 c -2.007037,-0.60212 -2.504988,-0.01 -1.501468,1.09434 0.702462,0.70245 2.207741,1.40492 3.311612,1.60563 5.920759,0.90316 29.704152,16.15665 37.732302,24.28515 2.809852,2.80986 6.623225,7.9278 8.429557,11.23941 l 3.211261,6.12147 -5.519353,-4.51583 c -3.110907,-2.5088 -8.730614,-6.42254 -12.443634,-8.63027 -3.913722,-2.30809 -12.246735,-9.72652 -19.47207,-16.65079 -7.02463,-6.62322 -14.76437,-14.121 -15.402771,-13.51132 4.821329,6.58185 18.941747,18.59623 22.654767,21.75731 3.713019,3.16108 3.711114,4.29799 3.610762,4.4987 -0.200704,0.10033 -2.8308,-1.10199 -7.246283,-2.60725 -11.33976,-4.01408 -14.249965,-4.12394 -12.744686,-2.31762 0.702462,0.80282 2.408445,1.40493 4.014075,1.50528 5.820407,0.10036 20.572132,6.62323 30.808023,13.54751 6.623223,4.51583 22.478819,19.7693 24.586208,23.78338 1.103871,2.20775 0.702462,2.00704 -3.311611,-1.30456 -5.419001,-4.41549 -20.471781,-13.04574 -21.676004,-12.34329 -0.401407,0.30106 -3.913724,-0.40141 -7.727094,-1.40492 -3.913723,-1.00352 -9.73413,-2.1074 -13.045743,-2.50879 l -5.920761,-0.70248 3.512314,3.21127 c 4.616189,4.21479 12.343281,8.02814 25.188321,12.54398 5.720057,2.00703 12.242927,4.71654 14.450669,6.02112 43.247679,23.27867 5.62924,26.67884 1.605631,-53.28685 -0.100352,-15.65489 4.903911,-29.31416 13.233115,-40.75428 0,0 6.819459,-6.84328 6.383336,-7.34495 -0.471703,-0.5426 -6.483687,6.34712 -6.483687,6.34712 -5.017593,5.51936 -10.724319,15.86134 -12.831709,24.99335 -2.308094,10.4366 -1.505277,37.23054 1.505279,48.46995 1.103869,4.11443 1.906684,7.62674 1.705981,7.72712 -0.702464,0.70244 -6.623224,-16.05631 -7.727095,-21.77638 -1.70598,-8.7306 -1.60563,-29.20239 0,-36.12668 1.906687,-7.82744 6.221817,-16.95946 10.135539,-21.37494 3.411964,-3.91372 9.633779,-7.7271 12.644337,-7.7271 1.003518,0 1.261632,-0.30105 0.860225,-0.60209 -3.970668,-1.25578 -8.234782,2.04503 -14.009518,7.27193 -3.587332,3.65921 -4.072821,4.55423 -4.273523,4.25319 0.226908,-2.62723 10.583652,-18.60662 12.691042,-18.60662 0.401408,0 3.008901,-3.04236 3.949865,-3.94552 1.204222,-3.11091 -6.252244,3.79785 -11.470541,11.22392 -11.70118,15.76445 -14.35032,31.71118 -13.748207,52.98577 0.200703,6.52286 -0.291535,11.64462 -0.391885,11.64462 -0.50176,0 -3.512316,-7.62675 -5.017594,-12.54398 -3.813371,-12.44364 2.061974,-38.37792 11.99681,-51.52402 1.705981,-2.20773 5.823927,-6.98083 6.473357,-8.07899 1.404927,-2.70949 -6.829349,6.67979 -9.839907,11.29595 -0.681225,1.39092 -1.654004,2.2371 -1.817076,1.90786 -0.163072,-0.32923 0.344339,-1.79907 1.126815,-4.23962 3.71302,-10.93836 10.123338,-22.21664 18.251839,-31.04759 3.010555,-3.31162 3.110907,-3.31162 0.60211,-2.60917 -5.920759,1.70601 -11.267009,6.36604 -17.060747,13.05121 -1.404927,2.20776 -2.678762,3.36902 -4.279859,5.23003 0.553412,-2.73623 5.76753,-13.82279 10.183014,-20.04462 2.7095,-3.71302 5.303947,-6.22939 5.195627,-7.0539 -0.10832,-0.82451 -2.919406,0.0428 -6.983424,3.09723 -6.121465,4.51583 -9.578637,9.28573 -14.821339,17.93043 -2.408444,4.91727 -2.087516,3.5422 -2.900267,4.43449 2.709501,-13.84854 4.675862,-20.35789 9.191696,-29.38955 4.114426,-8.1285 8.128502,-13.64784 15.855595,-21.77636 5.419001,-5.61971 6.522871,-7.225326 4.616186,-6.62321 -5.92076,1.80633 -12.242927,5.82039 -17.962984,11.54046 -3.311612,3.41197 -4.624787,4.42814 -4.624787,3.92639 0,-0.50177 1.595694,-3.31208 4.907306,-8.43001 7.024631,-10.838018 17.178706,-22.089629 27.514953,-29.013908 5.11795,-3.512315 13.22493,-7.384143 12.32175,-7.986255 -0.90316,-0.60211 -6.90274,1.463384 -5.49783,1.76444 1.10389,0.401406 2.91021,-0.100353 4.01408,-0.903168 2.80986,-2.107389 0.60212,-1.806333 -8.42955,1.003518 -7.124992,2.207742 -14.751735,6.522873 -22.478827,12.543984 -2.986618,2.826589 -2.426982,0.456553 4.898703,-6.869135 3.913724,-4.014075 9.941946,-8.895628 12.952503,-10.601609 5.017601,-3.010557 4.627621,-3.703499 1.416351,-3.001036 -7.52639,1.505278 -21.977058,9.834482 -26.191838,15.153132 -1.70598,2.107391 -1.003519,1.705982 6.121465,-3.913723 4.014074,-3.21126 12.042223,-7.827445 13.547502,-7.827445 0.301056,0 -2.408445,2.709501 -5.920761,6.121463 C 73.383212,86.743529 62.946616,104.80686 56.925504,126.88428 l -1.906685,7.02462 0.602112,-6.52287 c 0.301055,-3.61266 0.995382,-9.26718 1.697846,-12.5788 0.903167,-4.01407 3.028526,-10.63119 5.196885,-16.558611 2.168359,-5.927426 4.259725,-10.973522 8.659809,-15.418813 1.529681,-1.6323 5.714591,-5.356591 2.163868,-3.632075 -2.278254,1.415328 -4.525987,4.564863 -3.99914,3.197569 0.526847,-1.367294 1.675223,-2.529683 4.334547,-6.89499 8.128501,-13.246446 18.953172,-22.885937 32.701374,-31.114791 5.41902,-3.311613 2.4313,-4.004554 -5.6972,-0.993997 z m 0.50176,1.204223 c 0,0.301055 -0.2007,0.501759 -0.50176,0.501759 -0.30105,0 -0.50176,-0.200704 -0.50176,-0.501759 0,-0.301057 0.20071,-0.50176 0.50176,-0.50176 0.30106,0 0.50176,0.200703 0.50176,0.50176 z M 63.395034,70.285822 c -4.616186,21.374943 -7.974807,38.133698 -8.978326,49.573808 -0.702463,7.02465 -0.903168,7.62676 -1.505278,4.51584 -0.501759,-1.90668 -1.10387,-11.6408 -1.505279,-21.57565 -0.702462,-19.668959 0.100352,-25.389014 5.117946,-36.32737 3.010557,-6.723573 9.834484,-16.959463 10.235892,-15.654891 0.200704,0.602112 -1.056862,9.332726 -3.364955,19.468263 z m 31.764533,-3.612667 c 0,0.301055 -0.200705,0.50176 -0.50176,0.50176 -0.301055,0 -0.501759,-0.200705 -0.501759,-0.50176 0,-0.301056 0.200704,-0.50176 0.501759,-0.50176 0.301055,0 0.50176,0.200704 0.50176,0.50176 z m 11.038703,5.92076 c 0,0.200703 -2.60914,2.007038 -5.72005,4.114425 -7.626746,5.017596 -21.764157,19.777441 -27.082806,27.70525 -4.816891,7.22533 -12.154778,21.46716 -15.265686,30.49882 -2.809853,8.32922 -2.60915,3.81339 0.401407,-8.12848 2.709501,-10.53695 9.451613,-26.2348 14.518481,-33.842991 0.940705,-1.379186 1.473203,-2.231274 2.842393,-4.09002 1.359252,-1.551825 1.806333,-2.308093 2.308093,-2.007039 0.50176,0.301057 2.809851,-1.10387 5.218297,-3.110907 C 89.43951,78.615029 106.19827,70.386174 106.19827,72.593915 Z M 43.779411,91.259353 c 4.616185,13.045747 10.73765,47.968197 8.830963,49.874887 -0.301055,0.40141 -0.602111,-0.30105 -0.602111,-1.40493 0,-1.10386 -2.207741,-9.03167 -4.917242,-17.56159 -7.827445,-24.28514 -10.536946,-36.327359 -9.533427,-40.642489 0.60211,-2.20774 0.702463,-2.308093 1.906686,-0.602111 0.702463,1.003519 2.609148,5.619706 4.315131,10.336233 z M 40.56815,110.42657 c 4.917242,11.74115 12.242929,36.62843 11.038706,37.83265 -0.301055,0.20069 -0.903167,-0.6021 -1.404926,-1.90668 -0.501759,-1.30457 -1.906686,-5.11795 -3.110909,-8.42956 -1.204221,-3.3116 -3.913721,-9.23238 -6.021111,-13.14609 -4.716539,-8.73061 -8.128501,-18.3644 -8.830966,-24.98761 l -0.501758,-5.017608 2.809853,4.014076 c 1.505277,2.207752 4.214778,7.426052 6.021111,11.640822 z m 44.455879,-3.91371 c -13.447151,13.7482 -22.278116,32.41364 -25.589727,54.49105 -0.802816,5.51935 -1.906686,10.4366 -2.408446,10.93835 -0.401406,0.40141 -1.204222,-1.80632 -1.605629,-5.01759 -1.304575,-10.4366 2.207741,-27.39606 8.228855,-39.83969 1.304572,-2.70951 1.446064,-3.92232 2.50246,-5.61156 0.708333,-0.60618 1.386391,-1.97583 2.615483,-3.62082 4.489163,-4.98504 11.841522,-12.44362 16.65841,-14.65136 2.308093,-1.00351 4.31513,-1.9067 4.515834,-1.9067 0.200703,0 -2.007036,2.40847 -4.91724,5.21832 z m -51.982269,8.32918 c 4.214778,6.22184 15.253484,28.19889 16.357355,32.61436 0.401407,1.40494 -1.003519,-0.8028 -3.110907,-4.81686 C 44.180817,138.62545 39.564632,131.50047 35.951964,126.78393 27.823462,115.94592 24.91326,110.72762 24.91326,106.8139 v -3.01056 l 2.007036,2.5088 c 1.103871,1.40493 3.913723,5.2183 6.121464,8.5299 z m -9.152821,13.08463 c -0.425814,2.99608 -0.866094,5.90628 -1.468207,6.80947 -0.702462,1.40492 -1.521549,0.37699 -2.324362,-2.83429 -0.602113,-2.20773 -1.304576,-5.82039 -1.705983,-7.92778 l -0.702463,-3.91372 2.408446,1.50527 c 3.337817,2.38766 4.566445,3.30529 3.792569,6.36105 z m 59.502322,6.64402 c -0.923504,0.77209 -3.198592,3.75776 -4.402814,5.46374 -6.422521,8.73062 -15.740775,32.81099 -17.547107,46.65956 -1.003519,7.22535 -2.207741,3.91372 -2.308094,-6.02112 -0.200703,-14.35031 6.121465,-30.40662 15.855595,-40.34145 5.31865,-5.51934 10.212821,-8.63613 8.40242,-5.76073 z m -41.518536,32.25364 c 3.81337,6.52286 7.827446,16.0563 8.830964,20.97353 0.501759,2.80985 -0.501759,1.70598 -6.221817,-6.22182 C 40.668502,176.35775 35.349852,169.33312 32.54,166.02151 21.701999,153.37718 17.687924,147.15536 16.383349,140.93353 c -0.60211,-2.60914 1.00352,-1.30456 10.737651,8.52991 6.221816,6.42254 12.84504,14.14962 14.751725,17.36089 z M 85.62614,149.1624 c -3.010556,3.81335 -7.124983,10.03518 -9.132021,13.94891 -4.014075,8.02814 -9.934836,26.19183 -12.042224,37.5316 -2.207741,11.64081 -2.408444,11.44011 -1.906684,-1.50528 0.903165,-24.88727 9.734131,-45.058 23.482336,-53.88897 2.508796,-1.50527 4.616186,-2.80984 4.816889,-2.80984 0.200704,0 -2.207741,3.01055 -5.218296,6.72358 z m -55.895991,19.26756 c 3.311611,2.80985 6.322167,4.71653 6.723575,4.31513 0.501757,-0.40142 0.60211,-0.30105 0.301055,0.30103 -0.301055,0.50177 2.207741,4.81691 5.720057,9.4331 6.723575,8.83096 14.149614,22.77986 17.561578,32.61435 1.10387,3.3116 1.906685,6.12146 1.705981,6.22181 -0.100352,0.20071 -3.110909,-4.41547 -6.623224,-10.23589 -7.626741,-12.74469 -16.658411,-24.08444 -23.08093,-29.20238 -3.512314,-2.80988 -6.121464,-6.22183 -9.633779,-12.64434 l -4.716538,-8.93133 3.010557,1.60564 c 1.705981,0.90316 5.820409,3.81337 9.031668,6.52288 z m -10.938355,14.55101 c 1.204222,1.50528 0.50176,9.23238 -1.003519,10.13553 -1.10387,0.80284 -1.605629,-0.4014 -2.408444,-6.32216 -0.602111,-4.21478 -0.401408,-5.2183 0.802815,-5.2183 0.802813,0 2.007038,0.60212 2.609148,1.40493 z m 33.110449,74.00357 c 8.578808,1.42877 29.326172,9.83416 42.748952,29.02748 -25.721227,-0.0569 7.468675,1.43005 -17.75567,-12.61402 -2.709498,-1.50527 -10.336242,-4.61618 -17.059816,-7.12498 -12.242929,-4.41549 -19.468262,-8.02816 -21.876708,-10.838 -1.10387,-1.40492 -0.802814,-1.50528 2.107391,-1.00351 1.906685,0.30104 7.336452,1.80367 11.835851,2.55303 z"
           id="path2457"
           style="opacity:1;fill:#225500;fill-opacity:1;stroke:none"
           sodipodi:nodetypes="ccccccccccccccccscccccsccccsccscscsccscccccccccccccscccccccccscccccccccccccscccccccccsccccccccccccccccscccccccscccscccsccccsccccccscccccccsccscccccccccscccccsccscccssssscccccccssssssccccccscsccsccccccsscccccccssccccscccscsccccccccccccccccccccccccccccsccccccccccccccccscccccccc" />
      </g>
      <g
         transform="matrix(0.15788439,0.65713113,-0.701225,0.16847854,-379.64343,176.67906)"
         id="g2475"
         style="display:inline;fill:#eac102;fill-opacity:1;fill-rule:evenodd;stroke:#aa8800;stroke-width:0.381928;stroke-miterlimit:4;stroke-dasharray:none;stroke-dashoffset:0;stroke-opacity:1">
        <path
           d="m 100.27752,290.95958 c -5.151993,-3.42458 -10.612436,-6.72334 -17.586256,-9.40482 -8,-3.6 -29.7,-10.9 -32.2,-10.9 -2.5,0 7.5,9.9 17.2,17.2 8.9,6.7 25.8,15.2 37.999996,19.2 10.2,3.3 18.8,5 35,7.1 7.2,0.9 14,2 15.3,2.5 1.2,0.6 10,1.9 19.5,3 27.8,3.3 18.52249,2.31638 30.42249,8.41638 3.2,1.6 6.7,2.2 14,2.6 10.8,0.5 11.3,0.2 8.2,-5.8 -2.6,-5 -7.2,-7.6 -17,-9.4 -4.9,-1 0.81261,0.17309 -4.18739,-0.82691 -10.5,-2.2 -14.9351,-2.78947 -40.5351,-6.88947 -27.5,-4.5 -39.4,-9.3 -52.3,-21 -19.099996,-17.2 -31.806255,-50.39817 -25.562612,-81.35022 -15.002864,15.02551 -18.23385,56.34732 11.748872,85.55504 z m 122.73623,32.51156 c 1.4,1.5 2.6,3.1 2.6,3.5 0,0.5 -2.2,0.9 -5,0.9 -4.8,0 -5,-0.1 -5,-2.8 0,-5.1 3.2,-5.7 7.4,-1.6 z"
           id="path2461"
           style="fill:#008f4c;fill-opacity:1;stroke:none"
           sodipodi:nodetypes="ccscccccccccccccccsssc" />
        <g
           transform="translate(12.03847,-13.68008)"
           id="g2469"
           style="fill:#00b052;fill-opacity:1;stroke-width:0.381928;stroke-miterlimit:4;stroke-dasharray:none">
          <path
             d="M 72.261872,229.68729 C 69.76136,237.72529 69.3,256.7 71.9,266.5 c 6.3,23.7 21.6,41.1 43.5,49.6 4.3,1.6 8,2.8 8.3,2.5 0.2,-0.2 -3.1,-2.3 -7.5,-4.5 C 88.9,299.9 72,271.5 72,239.9 c 0,-5.9 1.108452,-8.76389 1.417677,-10.23703 0.512323,-2.44067 1.017678,-4.34032 0.308839,-4.96684 -0.374636,-0.33113 0.366328,-0.89458 -1.464644,4.99116 z"
             id="path2463"
             style="fill:#00b052;fill-opacity:1;stroke:none"
             sodipodi:nodetypes="sccscssss" />
          <path
             d="m 41.6,287.9 c 0.5,0.5 7.2,5 14.9,10.1 17,11.2 35.1,20.1 46.4,22.9 13.7,3.4 14.5,2.4 1.6,-2 -12.7,-4.2 -20.2,-8 -36.2,-18.1 -12,-7.6 -30.6,-16.5 -26.7,-12.9 z"
             id="path2465"
             style="fill:#00b052;fill-opacity:1;stroke:none"
             sodipodi:nodetypes="cccccc" />
          <path
             d="m 135.15914,321.78876 c 0.18626,0.27439 8.30195,1.92233 18.0004,3.70878 9.70618,1.6882 22.25215,4.27013 27.7532,5.68497 8.49596,2.09846 10.21062,2.32165 10.86206,1.0882 0.41101,-0.82004 0.7522,-1.63328 0.77541,-1.92806 0.0464,-0.58955 -26.30236,-5.63112 -41.30765,-7.77875 -10.8932,-1.57269 -16.82847,-1.87271 -16.08342,-0.77514 z"
             id="path2467"
             style="fill:#00b052;fill-opacity:1;stroke:none;stroke-width:0.315136"
             sodipodi:nodetypes="scccscs" />
        </g>
        <path
           d="m 216.25677,321.17885 c -2.4,2.3 -2,6.1 0.7,6.8 4.2,1.1 9.7,0.7 9.7,-0.8 0,-1.5 -6.4,-7.6 -8,-7.6 -0.5,0 -1.6,0.7 -2.4,1.6 z"
           id="path2471"
           style="fill:#9eab05;fill-opacity:1;stroke:none"
           sodipodi:nodetypes="ccssc" />
        <path
           d="M 100.27752,290.95958 C 77.106488,276.41349 65.691765,274.73929 51.80756,271.49132 c -2.308093,-0.50176 -1.505279,0.50175 4.515833,6.52287 4.014076,3.81337 10.838002,9.43307 15.253485,12.44362 21.274596,14.14962 40.542162,20.37143 76.468132,24.58622 5.72006,0.70247 10.03519,1.60563 9.73413,2.10741 -0.30105,0.50175 8.73062,1.80632 18.46474,2.91018 26.09148,3.11092 12.59707,0.49654 27.54951,6.51765 6.52286,2.7095 10.33623,3.61266 17.26051,4.01408 6.62323,0.40141 8.93132,0.30104 8.93132,-0.60211 0,-2.30812 -2.91021,-6.82394 -6.32217,-9.83449 -3.01055,-2.60915 -5.0176,-4.19573 -16.85912,-6.20277 -16.54263,-3.86721 -4.36407,-0.25929 -18.01606,-2.5112 -37.23053,-6.02112 -48.67447,-8.73062 -58.60929,-13.54751 -24.58622,-12.04222 -41.341181,-38.24547 -42.746108,-68.65209 -0.301055,-6.12145 -0.10035,-14.14961 0.501761,-18.06334 3.697886,-17.37008 -7.664983,7.79081 -8.85537,12.99061 l -0.499958,3.80796 c -0.923074,6.07836 -1.181916,13.58606 0.938173,24.85004 1.103869,4.11443 3.602202,10.56595 3.401499,10.66633 3.723419,10.29726 10.561832,18.86959 17.358943,27.4648 z M 86.328602,220.51257 c -0.903167,27.89782 8.63026,51.38016 27.596778,68.43997 11.33974,10.13553 24.18479,15.65489 44.65657,19.1672 6.82392,1.20423 13.04576,2.21155 13.84856,2.5126 0.80282,0.30106 10.2359,1.30079 9.63379,2.3043 -0.30106,0.4014 0.60211,0.60211 2.00704,0.30106 4.01406,-0.70247 16.45768,2.0375 19.76931,2.13787 5.11795,0.10032 8.76332,0.89412 16.51079,3.67732 2.70951,1.10386 8.63026,8.02814 8.63026,10.13552 0,0.60213 -3.1109,0.80283 -8.73062,0.30107 -6.82392,-0.50177 -10.33622,-1.40492 -16.55807,-4.21478 -12.94538,-5.8204 -1.25727,-3.70781 -23.23436,-5.71484 -11.33974,-1.00352 -48.06853,-7.52639 -58.70582,-9.63377 -13.14609,-2.7095 -22.579185,-5.92076 -34.621413,-11.84152 -12.845039,-6.32218 -20.070374,-11.23941 -28.098523,-18.86616 l -6.522872,-6.32217 5.519353,1.60563 c 16.156652,4.71654 29.202395,10.6373 45.660105,20.97354 12.94539,8.12851 17.26054,10.23591 24.28516,12.04222 6.42251,1.706 8.32919,1.80634 8.32919,0.70249 0,-0.40143 -3.3116,-1.80634 -7.42603,-3.01057 -27.99817,-8.73062 -49.072068,-37.93301 -49.072068,-67.93823 0,-5.0176 0.501759,-11.03869 1.204221,-13.54749 1.00352,-3.91372 5.117946,-15.05279 5.519353,-15.05279 0,0 -0.100351,5.31866 -0.200704,11.84153 z"
           id="path2473"
           style="opacity:1;fill:#225500;fill-opacity:1;stroke:none"
           sodipodi:nodetypes="cccccscccsccccccccccccccsccccsccccccccccscsccc" />
      </g>
    </g>
    <path
       d="m 879.47332,421.8516 c 0,0 -3.31611,-2.2538 -8.1826,-12.61364 -4.87128,-10.35985 -8.88602,-16.95856 -20.08327,-16.53747 -8.92908,0.33974 -16.45612,-1.26807 -15.82448,7.32606 0,0 -4.66552,3.62235 -1.82792,8.13953 0,0 -5.37372,3.16299 -1.82314,8.83817 0,0 -6.69443,4.98134 1.82314,11.75711 -3.03857,-5.37851 10.75222,-3.98603 12.37439,-2.39258 1.62216,1.59346 6.19198,5.67997 10.95798,10.35985 4.76601,4.67987 13.42234,3.81854 13.42234,3.81854 2.65576,-2.45478 9.16356,-9.39802 9.16356,-18.69557 z"
       fill="#f3c39a"
       stroke="#000000"
       stroke-width="2.39257"
       stroke-linecap="round"
       stroke-linejoin="round"
       id="path918" />
    <path
       d="m 844.10151,416.00894 c 0,0 -6.8954,0.99531 -12.37439,0.99531"
       stroke="#000000"
       stroke-width="2.39257"
       stroke-linecap="round"
       stroke-linejoin="round"
       id="path920" />
    <path
       d="m 845.72368,407.5488 c 0,0 -5.27324,1.80879 -12.16863,0.6125"
       stroke="#000000"
       stroke-width="2.39257"
       stroke-linecap="round"
       stroke-linejoin="round"
       id="path922" />
    <path
       d="m 847.5516,399.7203 c 0,0 -6.70399,1.99541 -12.17341,0.30625"
       stroke="#000000"
       stroke-width="2.39257"
       stroke-linecap="round"
       stroke-linejoin="round"
       id="path924" />
    <path
       d="m 895.43178,396.08837 c 0,0 -16.63317,-1.19628 -24.14106,13.14959"
       stroke="#000000"
       stroke-width="2.39257"
       stroke-linecap="round"
       stroke-linejoin="round"
       id="path926" />
    <path
       d="m 710.90694,509.28581 c -0.16748,4.80429 -0.58857,9.71385 -1.30635,14.69519 -1.20585,8.37879 -2.78974,14.84353 -4.60331,19.76266 -6.72313,18.21227 -16.60446,15.15934 -22.17915,9.68514"
       stroke="#000000"
       stroke-width="2.39257"
       stroke-linecap="round"
       stroke-linejoin="round"
       id="path928" />
    <path
       d="m 727.45398,352.65838 c 0,0 2.46913,156.57958 -2.83759,194.2339"
       stroke="#000000"
       stroke-width="2.39257"
       stroke-linecap="round"
       stroke-linejoin="round"
       id="path930" />
    <path
       d="m 727.03767,375.62708 c 0,0 -0.79912,-3.4453 -3.6415,-3.4453"
       stroke="#000000"
       stroke-width="2.39257"
       stroke-linecap="round"
       stroke-linejoin="round"
       id="path932" />
    <path
       d="m 637.65112,416.54009 c 0,0 -1.35419,-15.24548 0,-25.01675"
       stroke="#000000"
       stroke-width="2.39257"
       stroke-linecap="round"
       stroke-linejoin="round"
       id="path934" />
    <path
       d="m 663.62012,466.20992 c 0,0 -22.78688,4.55067 -17.88688,-75.28472"
       stroke="#000000"
       stroke-width="2.39257"
       stroke-linecap="round"
       stroke-linejoin="round"
       id="path936" />
    <path
       d="m 701.53762,450.69169 c 0,0 -7.74715,5.56991 -27.02651,-13.36013"
       stroke="#000000"
       stroke-width="2.39257"
       stroke-linecap="round"
       stroke-linejoin="round"
       id="path938" />
    <path
       d="m 636.26343,328.3594 c -3.24433,-1.0001 -5.23974,-3.45488 -5.23974,-3.45488 0,0 2.30166,0 2.84238,-1.86142 0.54072,-1.85664 -0.54072,-3.98124 -3.58407,-4.98134 -3.04336,-0.99531 -2.64141,-2.58876 -6.42646,-4.71337 -3.78505,-2.1246 -8.11561,-1.72744 -9.33103,1.19629 -1.22022,2.91894 2.16288,5.31151 2.16288,5.31151 -3.51708,0 -4.19179,2.39258 -4.19179,4.78037 0,2.39257 3.11035,3.85204 3.11035,3.85204 -5.95272,2.78974 -1.05273,7.90506 -1.05273,7.90506 -4.10566,1.60303 -4.06259,4.34013 -3.13906,8.29745 1.83271,7.88113 10.81922,22.17915 14.60427,25.89721 3.78984,3.71806 7.16815,7.83807 7.16815,7.83807 0,0 10.81922,1.59346 16.3652,-2.65575 0,0 -0.7082,-11.55613 1.3207,-21.715 1.84707,-9.26405 -0.81347,-14.54206 -0.81347,-17.43229 0,-3.38789 -2.69404,-4.18222 -4.21093,-8.11561 -1.02881,-2.68447 0.71299,-10.26414 -3.75156,-10.26414 -3.98124,0 -5.09618,5.50292 -3.10556,10.60867 z"
       fill="#f3c39a"
       stroke="#000000"
       stroke-width="2.39257"
       stroke-linecap="round"
       stroke-linejoin="round"
       id="path940" />
    <path
       d="m 638.09136,364.01353 c 0,0 -6.44081,-13.09695 2.43564,-21.8107 2.55526,-3.19648 1.31591,-7.07245 -0.91397,-11.75711 -0.24404,-0.50244 -0.4498,-1.03837 -0.62207,-1.59345"
       fill="#f3c39a"
       id="path942"
       style="stroke-width:4.78515" />
    <path
       d="m 638.09136,364.01353 c 0,0 -6.44081,-13.09695 2.43564,-21.8107 2.55526,-3.19648 1.31591,-7.07245 -0.91397,-11.75711 -0.24404,-0.50244 -0.4498,-1.03837 -0.62207,-1.59345"
       stroke="#000000"
       stroke-width="2.39257"
       stroke-linecap="round"
       stroke-linejoin="round"
       id="path944" />
    <path
       d="m 624.803,354.95046 c 0,0 10.34549,-5.47899 14.50857,-22.40884"
       stroke="#000000"
       stroke-width="2.39257"
       stroke-linecap="round"
       stroke-linejoin="round"
       id="path946" />
    <path
       d="M 630.19108,542.72442 644.135,327.65598 c 12.02507,-1.62216 22.03081,-16.54225 23.30366,-36.19006 1.44512,-22.25094 -8.85252,-42.25285 -22.94478,-44.58801 -14.09704,-2.33515 -26.73461,13.86736 -28.17494,36.11829 -1.27764,19.64782 6.59871,37.52991 18.16441,43.05676 l -13.94391,215.06844 -46.11447,-7.6371 -16.79108,259.0248 101.88057,16.87722 16.79108,-259.0248 z m -4.2205,-258.12519 c 0.89482,-13.853 8.7616,-23.93531 17.53756,-22.48541 8.77118,1.45469 15.17849,13.90564 14.27888,27.75386 -0.89961,13.84821 -8.76639,23.9353 -17.53756,22.48062 -8.77118,-1.45469 -15.17849,-13.90086 -14.27888,-27.74907 z m 39.69758,279.39996 -4.28271,66.02546 -36.46282,-6.03886 4.28271,-66.02546 z m -41.73127,75.22251 36.46282,6.03885 -4.28271,66.02546 -36.46282,-6.03407 z m -13.93435,64.42722 -36.45803,-6.03886 4.27792,-66.02546 36.46282,6.03886 z m 9.55116,-147.28683 -4.28271,66.02546 -36.45804,-6.03885 4.27792,-66.03025 z m -46.99972,156.48388 36.46282,6.04364 -4.28271,66.02546 -36.46282,-6.03885 z m 41.83176,73.66734 4.2827,-66.02546 36.45804,6.03886 -4.27792,66.02546 z"
       fill="#6f7160"
       stroke="#000000"
       stroke-width="2.39257"
       stroke-linecap="round"
       stroke-linejoin="round"
       id="path948" />
    <path
       d="m 631.02369,324.90452 c 0,0 2.30166,0 2.84238,-1.86142 0.54072,-1.85664 -0.54072,-3.98124 -3.58407,-4.98134 -3.04336,-0.99531 -2.64141,-2.58876 -6.42646,-4.71337 -3.78505,-2.1246 -8.11561,-1.72744 -9.33103,1.19629 -1.21543,2.91894 2.16288,5.31151 2.16288,5.31151 -3.51708,0 -4.19179,2.39258 -4.19179,4.78037 0,2.39257 3.11035,3.85204 3.11035,3.85204 -5.94794,2.78974 -1.05273,7.90506 -1.05273,7.90506 0.71298,-0.27754 1.55517,-0.52158 2.54091,-0.73213 0,0 4.76601,-0.77997 10.34549,2.95244 1.87578,1.25849 5.27323,2.59355 7.20164,0.10049 1.94277,-2.50742 -1.42118,-4.48368 -1.42118,-4.48368 2.84237,1.19628 3.80419,-0.44502 4.46454,-1.0958 0.66035,-0.646 1.82792,-3.78505 -1.42119,-4.78037 -3.24433,-0.99531 -5.23974,-3.45009 -5.23974,-3.45009 z"
       fill="#f3c39a"
       stroke="#000000"
       stroke-width="2.39257"
       stroke-linecap="round"
       stroke-linejoin="round"
       id="path950" />
    <path
       d="m 616.5869,342.70049 c 0,0 1.13408,0.74169 4.97177,0.62206"
       stroke="#000000"
       stroke-width="2.39257"
       stroke-linecap="round"
       stroke-linejoin="round"
       id="path952" />
    <path
       d="m 616.68739,319.85619 c 0,0 4.8665,0.0335 6.59394,1.72744 1.72265,1.69394 4.53153,3.32089 7.74236,3.32089"
       fill="#f3c39a"
       id="path954"
       style="stroke-width:4.78515" />
    <path
       d="m 616.68739,319.85619 c 0,0 4.8665,0.0335 6.59394,1.72744 1.72265,1.69394 4.53153,3.32089 7.74236,3.32089"
       stroke="#000000"
       stroke-width="2.39257"
       stroke-linecap="round"
       stroke-linejoin="round"
       id="path956" />
    <path
       d="m 615.60595,328.4886 c 0,0 5.13925,-0.33018 7.88114,0.66513 2.7371,0.99531 6.69442,3.48838 9.73777,5.08183"
       fill="#f3c39a"
       id="path958"
       style="stroke-width:4.78515" />
    <path
       d="m 615.60595,328.4886 c 0,0 5.13925,-0.33018 7.88114,0.66513 2.7371,0.99531 6.69442,3.48838 9.73777,5.08183"
       stroke="#000000"
       stroke-width="2.39257"
       stroke-linecap="round"
       stroke-linejoin="round"
       id="path960" />
    <path
       d="m 627.43962,338.61397 c 0,0 4.66552,2.39257 2.12939,4.88085 -2.73711,2.68925 -4.15829,-0.29668 -5.98144,-0.29668 -0.75126,0 -1.42118,0.11006 -2.0289,0.12441 0,0 0.25361,4.30664 2.43564,6.45038"
       fill="#f3c39a"
       id="path962"
       style="stroke-width:4.78515" />
    <path
       d="m 627.43962,338.61397 c 0,0 4.66552,2.39257 2.12939,4.88085 -2.73711,2.68925 -4.15829,-0.29668 -5.98144,-0.29668 -0.75126,0 -1.42118,0.11006 -2.0289,0.12441 0,0 0.25361,4.30664 2.43564,6.45038"
       stroke="#000000"
       stroke-width="2.39257"
       stroke-linecap="round"
       stroke-linejoin="round"
       id="path964" />
    <circle
       cx="766.26624"
       cy="241.86787"
       r="2.871093"
       fill="#000000"
       id="circle966"
       style="stroke-width:4.78515" />
    <circle
       cx="798.80518"
       cy="242.44214"
       r="2.871093"
       fill="#000000"
       id="circle968"
       style="stroke-width:4.78515" />
  </g>
  <defs
     id="defs1278">
    <linearGradient
       id="paint0_linear_747_12243"
       x1="358.628"
       y1="255.831"
       x2="411.894"
       y2="243.183"
       gradientUnits="userSpaceOnUse">
      <stop
         stop-color="#085308"
         id="stop1016" />
      <stop
         offset="1"
         stop-color="#085308"
         stop-opacity="0"
         id="stop1018" />
    </linearGradient>
    <linearGradient
       id="paint1_linear_747_12243"
       x1="351.96"
       y1="290.275"
       x2="371.249"
       y2="239.037"
       gradientUnits="userSpaceOnUse">
      <stop
         stop-color="#085308"
         id="stop1021" />
      <stop
         offset="1"
         stop-color="#085308"
         stop-opacity="0"
         id="stop1023" />
    </linearGradient>
    <linearGradient
       id="paint2_linear_747_12243"
       x1="321.507"
       y1="381.488"
       x2="299.067"
       y2="368.169"
       gradientUnits="userSpaceOnUse">
      <stop
         stop-color="#085308"
         id="stop1026" />
      <stop
         offset="1"
         stop-color="#085308"
         stop-opacity="0"
         id="stop1028" />
    </linearGradient>
    <linearGradient
       id="paint3_linear_747_12243"
       x1="355.448"
       y1="343.68"
       x2="434.186"
       y2="313.176"
       gradientUnits="userSpaceOnUse">
      <stop
         stop-color="#085308"
         id="stop1031" />
      <stop
         offset="1"
         stop-color="#085308"
         stop-opacity="0"
         id="stop1033" />
    </linearGradient>
    <linearGradient
       id="paint4_linear_747_12243"
       x1="385.795"
       y1="229.505"
       x2="342.245"
       y2="176.445"
       gradientUnits="userSpaceOnUse">
      <stop
         stop-color="#085308"
         id="stop1036" />
      <stop
         offset="1"
         stop-color="#085308"
         stop-opacity="0"
         id="stop1038" />
    </linearGradient>
    <linearGradient
       id="paint5_linear_747_12243"
       x1="252.808"
       y1="398.437"
       x2="300.362"
       y2="398.437"
       gradientUnits="userSpaceOnUse">
      <stop
         stop-color="#085308"
         id="stop1041" />
      <stop
         offset="1"
         stop-color="#085308"
         stop-opacity="0"
         id="stop1043" />
    </linearGradient>
    <linearGradient
       id="paint6_linear_747_12243"
       x1="250.192"
       y1="440.803"
       x2="330.002"
       y2="436.19"
       gradientUnits="userSpaceOnUse">
      <stop
         stop-color="#085308"
         id="stop1046" />
      <stop
         offset="1"
         stop-color="#085308"
         stop-opacity="0"
         id="stop1048" />
    </linearGradient>
    <linearGradient
       id="paint7_linear_747_12243"
       x1="286.831"
       y1="432.848"
       x2="375.268"
       y2="430.873"
       gradientUnits="userSpaceOnUse">
      <stop
         stop-color="#085308"
         id="stop1051" />
      <stop
         offset="1"
         stop-color="#085308"
         stop-opacity="0"
         id="stop1053" />
    </linearGradient>
    <linearGradient
       id="paint8_linear_747_12243"
       x1="295.001"
       y1="421.379"
       x2="370.711"
       y2="407.252"
       gradientUnits="userSpaceOnUse">
      <stop
         stop-color="#085308"
         id="stop1056" />
      <stop
         offset="1"
         stop-color="#085308"
         stop-opacity="0"
         id="stop1058" />
    </linearGradient>
    <linearGradient
       id="paint9_linear_747_12243"
       x1="323.225"
       y1="397.384"
       x2="405.831"
       y2="386.858"
       gradientUnits="userSpaceOnUse">
      <stop
         stop-color="#085308"
         id="stop1061" />
      <stop
         offset="1"
         stop-color="#085308"
         stop-opacity="0"
         id="stop1063" />
    </linearGradient>
    <linearGradient
       id="paint10_linear_747_12243"
       x1="337.618"
       y1="370.854"
       x2="423.875"
       y2="356.032"
       gradientUnits="userSpaceOnUse">
      <stop
         stop-color="#085308"
         id="stop1066" />
      <stop
         offset="1"
         stop-color="#085308"
         stop-opacity="0"
         id="stop1068" />
    </linearGradient>
    <linearGradient
       id="paint11_linear_747_12243"
       x1="358.67"
       y1="335.946"
       x2="421.942"
       y2="287.828"
       gradientUnits="userSpaceOnUse">
      <stop
         stop-color="#085308"
         id="stop1071" />
      <stop
         offset="1"
         stop-color="#085308"
         stop-opacity="0"
         id="stop1073" />
    </linearGradient>
    <linearGradient
       id="paint12_linear_747_12243"
       x1="332.787"
       y1="382.045"
       x2="325.497"
       y2="321.474"
       gradientUnits="userSpaceOnUse">
      <stop
         stop-color="#085308"
         id="stop1076" />
      <stop
         offset="1"
         stop-color="#085308"
         stop-opacity="0"
         id="stop1078" />
    </linearGradient>
    <linearGradient
       id="paint13_linear_747_12243"
       x1="334.506"
       y1="380.327"
       x2="372.971"
       y2="301.712"
       gradientUnits="userSpaceOnUse">
      <stop
         stop-color="#085308"
         id="stop1081" />
      <stop
         offset="1"
         stop-color="#085308"
         stop-opacity="0"
         id="stop1083" />
    </linearGradient>
    <linearGradient
       id="paint14_linear_747_12243"
       x1="356.758"
       y1="339.603"
       x2="344.489"
       y2="261.065"
       gradientUnits="userSpaceOnUse">
      <stop
         stop-color="#085308"
         id="stop1086" />
      <stop
         offset="1"
         stop-color="#085308"
         stop-opacity="0"
         id="stop1088" />
    </linearGradient>
    <linearGradient
       id="paint15_linear_747_12243"
       x1="353.024"
       y1="287.236"
       x2="372.312"
       y2="235.998"
       gradientUnits="userSpaceOnUse">
      <stop
         stop-color="#085308"
         id="stop1091" />
      <stop
         offset="1"
         stop-color="#085308"
         stop-opacity="0"
         id="stop1093" />
    </linearGradient>
    <linearGradient
       id="paint16_linear_747_12243"
       x1="247.115"
       y1="446.268"
       x2="290.324"
       y2="457.668"
       gradientUnits="userSpaceOnUse">
      <stop
         stop-color="#085308"
         id="stop1096" />
      <stop
         offset="1"
         stop-color="#085308"
         stop-opacity="0"
         id="stop1098" />
    </linearGradient>
    <linearGradient
       id="paint17_linear_747_12243"
       x1="242.702"
       y1="415.25"
       x2="248.829"
       y2="418.485"
       gradientUnits="userSpaceOnUse">
      <stop
         stop-color="#085308"
         id="stop1101" />
      <stop
         offset="1"
         stop-color="#085308"
         stop-opacity="0"
         id="stop1103" />
    </linearGradient>
    <radialGradient
       id="paint18_radial_747_12243"
       cx="0"
       cy="0"
       r="1"
       gradientUnits="userSpaceOnUse"
       gradientTransform="translate(65.2626 287.868) rotate(34.9685) scale(15.1538 35.5082)">
      <stop
         stop-color="white"
         id="stop1106" />
      <stop
         offset="1"
         stop-color="white"
         stop-opacity="0"
         id="stop1108" />
    </radialGradient>
    <linearGradient
       id="paint19_linear_747_12243"
       x1="143.903"
       y1="444.036"
       x2="146.35"
       y2="453.305"
       gradientUnits="userSpaceOnUse">
      <stop
         id="stop1111" />
      <stop
         offset="1"
         stop-opacity="0"
         id="stop1113" />
    </linearGradient>
    <linearGradient
       id="paint20_linear_747_12243"
       x1="171.419"
       y1="489.386"
       x2="169.33"
       y2="480.117"
       gradientUnits="userSpaceOnUse">
      <stop
         id="stop1116" />
      <stop
         offset="1"
         stop-opacity="0"
         id="stop1118" />
    </linearGradient>
    <linearGradient
       id="paint21_linear_747_12243"
       x1="193.634"
       y1="479.348"
       x2="190.885"
       y2="469.784"
       gradientUnits="userSpaceOnUse">
      <stop
         id="stop1121" />
      <stop
         offset="1"
         stop-opacity="0"
         id="stop1123" />
    </linearGradient>
    <linearGradient
       id="paint22_linear_747_12243"
       x1="196.65"
       y1="455.549"
       x2="192.845"
       y2="463.494"
       gradientUnits="userSpaceOnUse">
      <stop
         id="stop1126" />
      <stop
         offset="1"
         stop-opacity="0"
         id="stop1128" />
    </linearGradient>
    <linearGradient
       id="paint23_linear_747_12243"
       x1="267.377"
       y1="444.036"
       x2="264.93"
       y2="453.305"
       gradientUnits="userSpaceOnUse">
      <stop
         id="stop1131" />
      <stop
         offset="1"
         stop-opacity="0"
         id="stop1133" />
    </linearGradient>
    <linearGradient
       id="paint24_linear_747_12243"
       x1="239.861"
       y1="489.386"
       x2="241.95"
       y2="480.117"
       gradientUnits="userSpaceOnUse">
      <stop
         id="stop1136" />
      <stop
         offset="1"
         stop-opacity="0"
         id="stop1138" />
    </linearGradient>
    <linearGradient
       id="paint25_linear_747_12243"
       x1="217.381"
       y1="479.348"
       x2="220.13"
       y2="469.784"
       gradientUnits="userSpaceOnUse">
      <stop
         id="stop1141" />
      <stop
         offset="1"
         stop-opacity="0"
         id="stop1143" />
    </linearGradient>
    <linearGradient
       id="paint26_linear_747_12243"
       x1="248.781"
       y1="467.784"
       x2="246.882"
       y2="472.645"
       gradientUnits="userSpaceOnUse">
      <stop
         id="stop1146" />
      <stop
         offset="1"
         stop-opacity="0"
         id="stop1148" />
    </linearGradient>
    <linearGradient
       id="paint27_linear_747_12243"
       x1="204.47"
       y1="454.88"
       x2="215.813"
       y2="454.88"
       gradientUnits="userSpaceOnUse">
      <stop
         id="stop1151" />
      <stop
         offset="1"
         stop-opacity="0"
         id="stop1153" />
    </linearGradient>
    <linearGradient
       id="paint28_linear_747_12243"
       x1="201.531"
       y1="459.486"
       x2="203.019"
       y2="452.912"
       gradientUnits="userSpaceOnUse">
      <stop
         id="stop1156" />
      <stop
         offset="1"
         stop-opacity="0"
         id="stop1158" />
    </linearGradient>
    <linearGradient
       id="paint29_linear_747_12243"
       x1="160.144"
       y1="465.636"
       x2="162.043"
       y2="470.497"
       gradientUnits="userSpaceOnUse">
      <stop
         id="stop1161" />
      <stop
         offset="1"
         stop-opacity="0"
         id="stop1163" />
    </linearGradient>
    <linearGradient
       id="paint30_linear_747_12243"
       x1="379.936"
       y1="264.306"
       x2="325.705"
       y2="215.328"
       gradientUnits="userSpaceOnUse">
      <stop
         stop-color="#085308"
         id="stop1166" />
      <stop
         offset="1"
         stop-color="#085308"
         stop-opacity="0"
         id="stop1168" />
    </linearGradient>
    <radialGradient
       id="paint31_radial_747_12243"
       cx="0"
       cy="0"
       r="1"
       gradientUnits="userSpaceOnUse"
       gradientTransform="translate(139.895 411.067) rotate(-21.0002) scale(15.1538 35.5082)">
      <stop
         stop-color="white"
         id="stop1171" />
      <stop
         offset="1"
         stop-color="white"
         stop-opacity="0"
         id="stop1173" />
    </radialGradient>
    <radialGradient
       id="paint32_radial_747_12243"
       cx="0"
       cy="0"
       r="1"
       gradientUnits="userSpaceOnUse"
       gradientTransform="translate(163.363 420.797) rotate(-26.8407) scale(15.1539 35.5081)">
      <stop
         stop-color="white"
         id="stop1176" />
      <stop
         offset="1"
         stop-color="white"
         stop-opacity="0"
         id="stop1178" />
    </radialGradient>
    <radialGradient
       id="paint33_radial_747_12243"
       cx="0"
       cy="0"
       r="1"
       gradientUnits="userSpaceOnUse"
       gradientTransform="translate(106.859 431.704) rotate(85.4684) scale(15.1538 35.5082)">
      <stop
         stop-color="white"
         id="stop1181" />
      <stop
         offset="1"
         stop-color="white"
         stop-opacity="0"
         id="stop1183" />
    </radialGradient>
    <radialGradient
       id="paint34_radial_747_12243"
       cx="0"
       cy="0"
       r="1"
       gradientUnits="userSpaceOnUse"
       gradientTransform="translate(80.9728 403.662) rotate(99.4492) scale(15.1539 35.5082)">
      <stop
         stop-color="white"
         id="stop1186" />
      <stop
         offset="1"
         stop-color="white"
         stop-opacity="0"
         id="stop1188" />
    </radialGradient>
    <radialGradient
       id="paint35_radial_747_12243"
       cx="0"
       cy="0"
       r="1"
       gradientUnits="userSpaceOnUse"
       gradientTransform="translate(52.8311 376.365) rotate(112.813) scale(15.1539 35.5082)">
      <stop
         stop-color="white"
         id="stop1191" />
      <stop
         offset="1"
         stop-color="white"
         stop-opacity="0"
         id="stop1193" />
    </radialGradient>
    <radialGradient
       id="paint36_radial_747_12243"
       cx="0"
       cy="0"
       r="1"
       gradientUnits="userSpaceOnUse"
       gradientTransform="translate(34.8213 350.163) rotate(111.795) scale(15.1539 35.5081)">
      <stop
         stop-color="white"
         id="stop1196" />
      <stop
         offset="1"
         stop-color="white"
         stop-opacity="0"
         id="stop1198" />
    </radialGradient>
    <radialGradient
       id="paint37_radial_747_12243"
       cx="0"
       cy="0"
       r="1"
       gradientUnits="userSpaceOnUse"
       gradientTransform="translate(30.6496 322.676) rotate(130.702) scale(15.1539 35.5082)">
      <stop
         stop-color="white"
         id="stop1201" />
      <stop
         offset="1"
         stop-color="white"
         stop-opacity="0"
         id="stop1203" />
    </radialGradient>
    <radialGradient
       id="paint38_radial_747_12243"
       cx="0"
       cy="0"
       r="1"
       gradientUnits="userSpaceOnUse"
       gradientTransform="translate(27.0788 293.573) rotate(141.685) scale(15.1539 35.5081)">
      <stop
         stop-color="white"
         id="stop1206" />
      <stop
         offset="1"
         stop-color="white"
         stop-opacity="0"
         id="stop1208" />
    </radialGradient>
    <radialGradient
       id="paint39_radial_747_12243"
       cx="0"
       cy="0"
       r="1"
       gradientUnits="userSpaceOnUse"
       gradientTransform="translate(35.1792 271.247) rotate(155.113) scale(15.1538 35.5081)">
      <stop
         stop-color="white"
         id="stop1211" />
      <stop
         offset="1"
         stop-color="white"
         stop-opacity="0"
         id="stop1213" />
    </radialGradient>
    <radialGradient
       id="paint40_radial_747_12243"
       cx="0"
       cy="0"
       r="1"
       gradientUnits="userSpaceOnUse"
       gradientTransform="translate(45.2538 239.408) rotate(168.117) scale(15.1538 35.5081)">
      <stop
         stop-color="white"
         id="stop1216" />
      <stop
         offset="1"
         stop-color="white"
         stop-opacity="0"
         id="stop1218" />
    </radialGradient>
    <radialGradient
       id="paint41_radial_747_12243"
       cx="0"
       cy="0"
       r="1"
       gradientUnits="userSpaceOnUse"
       gradientTransform="translate(77.2812 213.83) rotate(-144.047) scale(15.1539 35.5082)">
      <stop
         stop-color="white"
         id="stop1221" />
      <stop
         offset="1"
         stop-color="white"
         stop-opacity="0"
         id="stop1223" />
    </radialGradient>
    <radialGradient
       id="paint42_radial_747_12243"
       cx="0"
       cy="0"
       r="1"
       gradientUnits="userSpaceOnUse"
       gradientTransform="translate(62.1339 220.072) rotate(36.468) scale(15.1539 35.5082)">
      <stop
         stop-color="white"
         id="stop1226" />
      <stop
         offset="1"
         stop-color="white"
         stop-opacity="0"
         id="stop1228" />
    </radialGradient>
    <radialGradient
       id="paint43_radial_747_12243"
       cx="0"
       cy="0"
       r="1"
       gradientUnits="userSpaceOnUse"
       gradientTransform="translate(66.9276 249.061) rotate(49.0426) scale(15.1539 35.5081)">
      <stop
         stop-color="white"
         id="stop1231" />
      <stop
         offset="1"
         stop-color="white"
         stop-opacity="0"
         id="stop1233" />
    </radialGradient>
    <radialGradient
       id="paint44_radial_747_12243"
       cx="0"
       cy="0"
       r="1"
       gradientUnits="userSpaceOnUse"
       gradientTransform="translate(56.5741 276.605) rotate(28.8004) scale(15.1539 35.5082)">
      <stop
         stop-color="white"
         id="stop1236" />
      <stop
         offset="1"
         stop-color="white"
         stop-opacity="0"
         id="stop1238" />
    </radialGradient>
    <radialGradient
       id="paint45_radial_747_12243"
       cx="0"
       cy="0"
       r="1"
       gradientUnits="userSpaceOnUse"
       gradientTransform="translate(62.3071 322.327) rotate(10.8787) scale(15.1539 35.5082)">
      <stop
         stop-color="white"
         id="stop1241" />
      <stop
         offset="1"
         stop-color="white"
         stop-opacity="0"
         id="stop1243" />
    </radialGradient>
    <radialGradient
       id="paint46_radial_747_12243"
       cx="0"
       cy="0"
       r="1"
       gradientUnits="userSpaceOnUse"
       gradientTransform="translate(78.7181 358.172) rotate(-9.99648) scale(15.1538 35.5082)">
      <stop
         stop-color="white"
         id="stop1246" />
      <stop
         offset="1"
         stop-color="white"
         stop-opacity="0"
         id="stop1248" />
    </radialGradient>
    <radialGradient
       id="paint47_radial_747_12243"
       cx="0"
       cy="0"
       r="1"
       gradientUnits="userSpaceOnUse"
       gradientTransform="translate(103.765 387.341) rotate(-27.055) scale(15.1539 35.5082)">
      <stop
         stop-color="white"
         id="stop1251" />
      <stop
         offset="1"
         stop-color="white"
         stop-opacity="0"
         id="stop1253" />
    </radialGradient>
    <linearGradient
       id="paint48_linear_747_12243"
       x1="365.178"
       y1="277.001"
       x2="419.926"
       y2="277.001"
       gradientUnits="userSpaceOnUse">
      <stop
         stop-color="#085308"
         id="stop1256" />
      <stop
         offset="1"
         stop-color="#085308"
         stop-opacity="0"
         id="stop1258" />
    </linearGradient>
    <linearGradient
       id="paint49_linear_747_12243"
       x1="358.67"
       y1="335.946"
       x2="421.942"
       y2="287.828"
       gradientUnits="userSpaceOnUse">
      <stop
         stop-color="#085308"
         id="stop1261" />
      <stop
         offset="1"
         stop-color="#085308"
         stop-opacity="0"
         id="stop1263" />
    </linearGradient>
    <linearGradient
       id="paint50_linear_747_12243"
       x1="104.52"
       y1="48.8768"
       x2="310.728"
       y2="48.8768"
       gradientUnits="userSpaceOnUse">
      <stop
         stop-color="#9A9A95"
         id="stop1266" />
      <stop
         offset="0.5"
         stop-color="#B9B9B6"
         id="stop1268" />
      <stop
         offset="1"
         stop-color="#9A9A95"
         id="stop1270" />
    </linearGradient>
    <radialGradient
       id="paint51_radial_747_12243"
       cx="0"
       cy="0"
       r="1"
       gradientUnits="userSpaceOnUse"
       gradientTransform="translate(207.644 110.345) scale(82.1588 22.437)">
      <stop
         stop-color="#D3101B"
         id="stop1273" />
      <stop
         offset="1"
         stop-color="#8A0A11"
         id="stop1275" />
    </radialGradient>
  </defs>
</svg>
