<?xml version="1.0" encoding="UTF-8" standalone="no"?>
<svg
   xmlns:dc="http://purl.org/dc/elements/1.1/"
   xmlns:cc="http://creativecommons.org/ns#"
   xmlns:rdf="http://www.w3.org/1999/02/22-rdf-syntax-ns#"
   xmlns:svg="http://www.w3.org/2000/svg"
   xmlns="http://www.w3.org/2000/svg"
   xmlns:xlink="http://www.w3.org/1999/xlink"
   xmlns:sodipodi="http://sodipodi.sourceforge.net/DTD/sodipodi-0.dtd"
   xmlns:inkscape="http://www.inkscape.org/namespaces/inkscape"
   height="765"
   width="605"
   version="1.0"
   id="svg20"
   sodipodi:version="0.32"
   inkscape:version="0.91 r13725"
   sodipodi:docname="Sarentino-Stemma.svg"
   inkscape:output_extension="org.inkscape.output.svg.inkscape"
   sodipodi:modified="true">
  <metadata
     id="metadata31">
    <rdf:RDF>
      <cc:Work
         rdf:about="">
        <dc:format>image/svg+xml</dc:format>
        <dc:type
           rdf:resource="http://purl.org/dc/dcmitype/StillImage" />
        <dc:date />
        <dc:creator>
          <cc:Agent>
            <dc:title />
          </cc:Agent>
        </dc:creator>
        <cc:license
           rdf:resource="http://creativecommons.org/publicdomain/zero/1.0/" />
        <dc:coverage />
        <dc:description />
        <dc:subject>
          <rdf:Bag />
        </dc:subject>
        <dc:language />
        <dc:title></dc:title>
      </cc:Work>
      <cc:License
         rdf:about="http://creativecommons.org/publicdomain/zero/1.0/">
        <cc:permits
           rdf:resource="http://creativecommons.org/ns#Reproduction" />
        <cc:permits
           rdf:resource="http://creativecommons.org/ns#Distribution" />
        <cc:permits
           rdf:resource="http://creativecommons.org/ns#DerivativeWorks" />
      </cc:License>
    </rdf:RDF>
  </metadata>
  <defs
     id="defs29">
    <linearGradient
       id="linearGradient4255"
       inkscape:collect="always">
      <stop
         id="stop4257"
         offset="0"
         style="stop-color:#edc014;stop-opacity:1" />
      <stop
         id="stop4259"
         offset="1"
         style="stop-color:#fcf169;stop-opacity:1" />
    </linearGradient>
    <linearGradient
       id="linearGradient4239"
       inkscape:collect="always">
      <stop
         id="stop4241"
         offset="0"
         style="stop-color:#fcfa9b;stop-opacity:1" />
      <stop
         id="stop4243"
         offset="1"
         style="stop-color:#fcda15;stop-opacity:1" />
    </linearGradient>
    <radialGradient
       gradientUnits="userSpaceOnUse"
       gradientTransform="matrix(-0.83623499,3.4479485e-7,-3.7712011e-8,-1.2577933,121.55612,274.1143)"
       r="53.078957"
       fy="118.09396"
       fx="80.348083"
       cy="118.09396"
       cx="80.348083"
       id="radialGradient4245"
       xlink:href="#linearGradient4239"
       inkscape:collect="always" />
    <linearGradient
       gradientUnits="userSpaceOnUse"
       y2="41.898483"
       x2="28.199514"
       y1="41.898483"
       x1="176.57373"
       id="linearGradient4253"
       xlink:href="#linearGradient4255"
       inkscape:collect="always" />
    <linearGradient
       gradientUnits="userSpaceOnUse"
       y2="33.010017"
       x2="26.747509"
       y1="33.010017"
       x1="170.05898"
       id="linearGradient4261"
       xlink:href="#linearGradient4255"
       inkscape:collect="always" />
  </defs>
  <sodipodi:namedview
     inkscape:window-height="650"
     inkscape:window-width="1100"
     inkscape:pageshadow="2"
     inkscape:pageopacity="0.0"
     guidetolerance="10.0"
     gridtolerance="10.0"
     objecttolerance="10.0"
     borderopacity="1.0"
     bordercolor="#666666"
     pagecolor="#ffffff"
     id="base"
     inkscape:zoom="0.47449367"
     inkscape:cx="563.43077"
     inkscape:cy="408.51844"
     inkscape:window-x="233"
     inkscape:window-y="18"
     inkscape:current-layer="layer1"
     showgrid="false"
     showguides="true"
     inkscape:guide-bbox="true"
     inkscape:window-maximized="0"
     inkscape:snap-bbox="true"
     inkscape:bbox-paths="true"
     inkscape:bbox-nodes="true"
     inkscape:snap-bbox-edge-midpoints="true"
     inkscape:snap-bbox-midpoints="true"
     inkscape:object-paths="true"
     inkscape:snap-intersection-paths="true"
     inkscape:object-nodes="true"
     inkscape:snap-smooth-nodes="true"
     inkscape:snap-midpoints="true" />
  <desc
     id="desc22">Coat of arms of Sarentino/Sarntal</desc>
  <g
     inkscape:groupmode="layer"
     id="layer1"
     inkscape:label="Fond écu"
     style="opacity:1"
     transform="translate(1,1.00002)">
    <path
       id="path1899"
       d="M 1.5,1.49998 L 1.5,460.3679 C 1.5,626.6785 135.81456,761.5 301.49999,761.5 C 467.18543,761.5 601.5,626.6785 601.5,460.3679 L 601.5,1.49998 L 1.5,1.49998 z "
       style="fill:#00a6ec;fill-opacity:1;stroke:black;stroke-width:0;stroke-miterlimit:4;stroke-dasharray:none;stroke-opacity:1" />
    <path
       style="fill:black;fill-opacity:1;stroke:none;stroke-width:5;stroke-miterlimit:4;stroke-dasharray:none;stroke-opacity:1"
       d="M -1,-1 L -1,1.5 L -1,460.375 C -1,628.03163 134.45837,764 301.5,764 C 468.54163,764 604,628.03162 604,460.375 L 604,1.5 L 604,-1 L 601.5,-1 L 1.5,-1 L -1,-1 z M 4,4 L 599,4 L 599,460.375 C 599,625.33958 465.82923,759 301.5,759 C 137.17077,759 4,625.33959 4,460.375 L 4,4 z "
       id="path2843" />
    <g
       id="g4174"
       transform="matrix(2.6925549,0,0,2.6925549,83.783,89.323062)">
      <g
         transform="translate(-211.31291,-201.4436)"
         id="g4941" />
      <path
         inkscape:connector-curvature="0"
         style="color:#000000;display:inline;overflow:visible;visibility:visible;fill:#f7d55d;fill-opacity:1;fill-rule:nonzero;stroke:none;stroke-width:1;marker:none;enable-background:accumulate"
         id="path4997"
         d="m 40.053631,72.087202 c -1.181706,1.541463 -1.6938,3.635682 -1.616107,5.546287 1.593473,0.251234 3.33682,-0.397102 4.879179,-0.856963 2.932272,-1.529817 6.723083,-5.114982 9.435345,-7.001726 -1.233975,-0.355205 -4.80728,1.182971 -6.276237,1.259382 -2.135737,0.363674 -4.309655,0.626871 -6.422169,1.053089 z" />
      <path
         inkscape:connector-curvature="0"
         style="color:#000000;display:inline;overflow:visible;visibility:visible;fill:url(#radialGradient4245);fill-opacity:1;fill-rule:nonzero;stroke:none;stroke-width:1;marker:none;enable-background:accumulate"
         id="path4983"
         d="m 50.928002,64.664994 c -9.827858,2.158557 -17.818867,8.900983 -27.256022,12.097079 -4.37838,1.662929 -9.076633,2.293471 -13.52253,3.647438 -0.7801497,0.388159 -6.3645024,0.453298 -5.9582988,0.484205 1.4003966,0.369679 8.3878838,2.583159 7.1134948,3.327627 -0.706092,0.669017 -1.5969726,0.03592 -2.3504154,0.141563 -1.2720788,0.705087 -2.3692131,1.911288 -2.3324012,3.413119 -0.6348969,1.859999 1.3668311,-6.50186 1.2327746,-8.109 -0.6892717,-0.48238 -6.5120207,6.100144 -6.5666442,6.535815 -0.022408,1.389854 0.5109226,5.167466 1.2748101,6.373997 3.0534453,-1.11058 5.814394,-3.694183 9.2922291,-3.364644 1.06133,-0.0077 2.935319,0.864842 1.962357,2.11052 -1.962542,1.758871 -6.6319876,2.200139 -8.8225941,3.667528 -0.5851512,0.150253 1.05986,1.821886 2.080421,2.02335 3.0406721,0.124266 5.2782251,-2.221388 8.2885931,-2.555502 6.079708,-1.146132 12.4164,-2.019104 18.469775,-0.291126 4.505559,0.995736 8.66149,3.38505 13.186211,4.270117 1.539385,-0.382805 1.979214,-2.340399 3.323796,-3.095033 0.783341,-0.731088 1.838528,0.08893 1.597719,1.052882 -0.07665,3.107659 -2.866104,5.660571 -5.97943,5.712871 -1.017458,5.42928 -2.369042,10.90532 -3.196041,16.41634 -1.005704,6.32674 -2.380142,12.5943 -5.039839,18.44997 -1.799182,4.88723 -5.458993,11.89262 -6.681743,16.9493 0.597677,0.29522 2.739201,-3.13409 3.233254,-3.41819 2.128942,-2.26227 3.792633,-5.049 6.216308,-6.96827 1.134787,-0.38956 1.563732,1.04645 1.142361,1.87611 -3.12555,8.55095 -8.767074,18.17939 -10.505261,27.15182 0.782286,0.32545 2.556911,-1.77796 3.114967,-2.18054 2.741234,-3.06116 5.166179,-7.39591 8.75577,-9.50286 0.95528,-0.61204 1.72764,0.15518 1.206832,1.3492 -1.25866,7.78781 -2.449103,18.24216 -1.814316,26.14146 0.371463,0.99473 1.785116,-3.23289 2.068135,-3.55069 3.26747,-5.30377 6.017234,-11.13592 10.428802,-15.55806 0.474373,-0.58381 1.801362,-0.98155 1.8691,0.11631 0.09485,3.08423 -1.25799,7.34076 -0.554913,10.40112 0.834433,4.08375 1.772343,8.76853 3.951385,12.42396 0.701346,0.80972 0.809558,-2.29573 1.119157,-2.68119 2.774501,-6.08538 4.773181,-12.60171 8.326362,-18.25549 0.660666,-0.9237 1.49106,1.23709 1.841087,1.77639 1.814211,2.67052 4.024662,5.14979 5.569315,8.01005 1.343453,1.93554 2.534193,5.21215 4.156715,6.87715 0.930837,-1.10147 1.544998,-4.00116 1.914629,-5.39096 0.936253,-5.74242 0.148874,-12.44536 1.430275,-18.11837 0.618946,-1.04552 1.902744,0.22326 2.564904,0.5708 3.909676,2.53683 6.015892,7.42121 8.862636,11.03186 0.682358,0.89467 2.621844,-0.22932 2.492493,-0.87845 0.811683,-6.3696 -2.622122,-13.71985 -3.66601,-19.91134 -0.135546,-1.59265 -1.016612,-3.4193 -0.373241,-4.93198 1.58615,-0.7437 3.337375,0.58143 4.825199,1.12399 2.952921,1.3214 5.424761,5.76356 7.842811,7.83106 0.69215,-0.30736 0.21967,-4.47912 0.28444,-5.08041 -1.03943,-5.41514 -4.10671,-9.77024 -5.85311,-14.93686 C 98.038319,131.694 91.307195,125.96944 89.65857,117.63441 86.868436,106.73616 84.607013,95.660718 80.485447,85.154905 c -1.085324,-2.814693 -1.9974,-5.762946 -3.200725,-8.490895 -2.282379,-0.236636 -4.516241,0.855691 -6.754372,0.702113 -0.918845,-0.868483 0.518236,-2.010209 1.29866,-2.395788 3.658893,-1.366054 8.223535,-0.224494 12.022778,-1.129024 5.325904,-1.261274 10.310194,-4.511135 13.838613,-8.631156 0.312335,-0.614449 0.805338,-2.176274 0.354731,-2.887364 -6.140319,-3.527321 -13.089747,-4.583384 -19.680077,-2.30147 -4.525724,2.052369 -8.525827,7.095766 -12.92843,9.274548 -1.322072,0.430381 -2.698841,-1.352214 -1.5107,-2.355805 0.513945,-0.798527 1.855033,-1.080185 2.130412,-1.886408 -3.204526,-0.992154 -6.224672,2.314107 -9.417936,0.964276 -1.843918,-0.663999 -3.656743,-1.993532 -5.710399,-1.352938 z m 33.071265,-3.740082 c 2.517205,-0.24356 5.937206,-0.761557 7.662765,1.49566 1.327992,1.895944 -0.134849,4.225182 -1.861814,5.292425 -3.72232,2.442288 -8.460291,3.779237 -12.917943,3.193362 -1.022774,0.02668 -1.963042,-1.20316 -0.959578,-1.920767 1.384513,-0.273163 2.870576,0.432337 4.314958,0.07832 3.339272,-0.466948 6.928086,-1.403396 9.37836,-3.821151 1.093315,-1.036927 -0.02612,-2.636923 -1.356347,-2.530441 -4.710188,-0.55418 -9.422395,1.19076 -13.006147,4.188032 -0.786041,0.918044 -2.370333,-0.307127 -1.342653,-1.140585 2.696305,-2.676258 6.304994,-4.415852 10.088399,-4.834858 z m -35.880553,7.940282 c 2.461464,-0.216419 5.024783,-1.097886 7.463508,-0.568827 1.358927,0.860281 0.422887,2.78551 -0.935196,2.994894 -3.332663,0.6896 -5.515641,3.682509 -8.123896,5.627866 -2.232289,2.425257 -5.705591,2.460208 -8.776775,2.749716 -0.568949,-0.0312 -1.853907,0.31778 -1.459253,-0.726719 0.272047,-2.941082 1.28715,-5.877851 3.93487,-7.726063 2.838262,-0.881071 4.966426,-1.804589 7.896742,-2.350867 z" />
      <path
         inkscape:connector-curvature="0"
         style="display:inline;opacity:0.98999999;fill:none;stroke:#000000;stroke-width:2;stroke-linecap:round;stroke-miterlimit:4;stroke-dasharray:none;stroke-opacity:1"
         id="path4174"
         d="m 47.336791,69.914471 c 2.558543,-0.171696 5.258965,-1.283865 7.780323,-0.816563 1.06955,1.409282 -2.081178,1.282451 -2.813435,1.952014 -3.298416,1.702007 -5.499054,5.080118 -8.729571,6.829714 -2.036966,0.474106 -4.354521,1.021539 -6.342,0.842669 0.407944,-2.631714 1.127547,-5.630498 3.716038,-7.124699 2.438571,-0.384839 3.950075,-1.298296 6.388645,-1.683135 z" />
      <path
         inkscape:connector-curvature="0"
         style="display:inline;opacity:0.98999999;fill:none;stroke:#000000;stroke-width:2;stroke-linecap:round;stroke-miterlimit:4;stroke-dasharray:none;stroke-opacity:1"
         id="path2998-3"
         d="m 9.1899829,82.18809 c 2.9095051,-0.945525 2.2207541,2.545001 0.1385856,1.011593 -1.5099739,0.0187 -3.1350037,2.355341 -4.137055,3.320919 2.1152453,2.042586 -2.4639787,1.546228 -0.9308155,-1.086938 1.6597337,-1.735492 2.7160306,-2.264641 4.9293244,-3.24558 z" />
      <path
         inkscape:connector-curvature="0"
         style="display:inline;fill:url(#linearGradient4261);fill-opacity:1;stroke:#000000;stroke-width:2;stroke-linecap:round;stroke-linejoin:miter;stroke-miterlimit:4;stroke-dasharray:none;stroke-opacity:1"
         id="path3664-1-9"
         d="m 53.574974,56.164487 c 0,0 4.411689,1.809659 9.256912,-2.197663 5.938186,-4.911309 8.329565,-7.145115 12.034959,-15.577288 1.965602,-4.472977 4.806485,-9.637997 6.748876,-12.270234 3.462167,-4.691732 11.733928,-13.890289 12.310206,-13.689477 0.179232,0.06242 -2.369764,5.060006 -5.664458,11.105674 -6.072308,11.142521 -7.784302,15.116524 -6.910554,16.041357 1.193312,1.263143 9.577786,-3.434016 15.030817,-8.420618 1.994425,-1.823825 3.259287,-3.886644 5.322318,-8.679976 2.15333,-5.003121 3.71505,-7.501136 7.64479,-12.228026 5.05181,-6.0765812 8.39079,-10.18646789 6.30433,-6.7092137 -2.02736,3.3787887 -6.43564,13.7036887 -6.57673,15.5932017 -0.33424,4.476526 1.27959,5.112834 6.73533,2.655671 4.26274,-1.919884 6.60297,-3.689642 9.82291,-9.320668 3.2883,-5.7505942 10.48399,-10.8542901 10.81074,-11.2795643 0.7838,-1.02010309 -0.99344,2.3389643 -3.22826,6.3462762 -4.07132,7.3003691 -4.8995,10.5611821 -1.39122,10.2871371 3.01923,-0.235835 5.79312,-1.932299 8.79585,-5.379396 2.23419,-2.5648193 4.0197,-4.4707421 7.25666,-6.1784591 4.49119,-2.3694226 10.5929,-3.0969968 9.85321,-2.8209362 -0.29453,0.1099568 -1.38532,1.3402934 -3.31704,2.4508953 -6.40226,3.6808191 -11.6491,9.402585 -10.78338,11.316915 0.13805,0.802906 2.41378,2.364323 5.12838,2.325404 7.00289,-0.100428 13.68731,2.661571 18.0593,6.486382 -4.55423,-0.6948 -9.84583,-1.609859 -16.38279,-1.994552 -23.8278,-2.005893 -46.71158,7.152589 -79.514522,33.42059 0.230379,-0.157407 -4.776237,4.699581 -4.990297,4.625018 M 53.405733,56.150549 C 44.862467,53.918848 29.519518,45.880921 27.785939,49.640914 c -1.377503,2.987705 30.188072,15.376101 30.188072,15.376101 2.70468,-0.04313 5.409154,-0.06198 8.139557,-3.087907" />
      <path
         d="M 52.409233,53.878492 C 44.721198,49.535454 31.945129,37.839888 29.307337,41.031251 c -2.095999,2.535884 25.249872,22.587335 25.249872,22.587335 2.968609,0.749847 6.058502,1.689134 9.943762,-1.175466 m -12.17614,-8.574826 c 0,0 4.012387,3.276638 9.72153,0.642187 6.99704,-3.228719 9.880294,-4.776423 15.619563,-11.980047 3.044511,-3.821275 7.112175,-8.087655 9.663345,-10.135375 4.54723,-3.64989 14.896941,-10.426206 15.402691,-10.084639 0.15728,0.106212 -3.585402,4.285365 -8.317101,9.286986 -8.720789,9.218264 -11.392453,12.622045 -10.784396,13.73963 0.830473,1.526392 10.137578,-0.869498 16.684857,-4.295123 2.39465,-1.252904 3.65507,-3.609705 6.8757,-7.715756 3.3616,-4.285753 8.6816,-7.711668 11.5381,-9.453585 5.24266,-3.197031 10.31188,-6.292252 6.30557,-3.132017 -0.3061,0.241456 -8.75127,10.134577 -9.37105,11.92511 -1.46832,4.242056 -0.071,5.270059 5.83182,4.290379 4.61203,-0.765502 6.66361,-2.521882 11.20417,-7.154375 5.21242,-5.317954 13.47209,-8.267312 15.10442,-9.56739 2.22662,-1.773394 -4.37808,5.814373 -5.83588,7.394903 -5.64755,6.123027 -7.43827,8.956307 -3.97662,9.588904 2.97908,0.544403 6.09466,-0.38597 9.87932,-2.950165 2.81597,-1.907921 4.78439,-2.750142 8.35052,-3.572944 4.9479,-1.141596 9.70316,-0.724578 10.49227,-0.749826 5.13067,-0.164148 -1.7595,0.706586 -3.83364,1.520745 -6.64079,2.606691 -15.17018,7.6188 -13.28546,8.547221 -0.11332,2.119577 6.22935,1.717599 12.38252,3.778551 3.86163,1.293424 9.1912,3.435009 11.75119,6.35478 -2.73773,-0.672341 -19.27591,-2.521867 -26.32112,-3.298576 -31.21361,-3.441185 -50.597085,2.11861 -78.430829,13.097436 -4.301253,1.90287 -4.278476,2.581829 -4.466337,2.454973"
         id="path3664-9"
         style="fill:url(#linearGradient4253);fill-opacity:1;stroke:#000000;stroke-width:2;stroke-linecap:round;stroke-linejoin:miter;stroke-miterlimit:4;stroke-dasharray:none;stroke-opacity:1"
         inkscape:connector-curvature="0" />
      <path
         sodipodi:nodetypes="ccccccccccccccccccccscccccccccccccccccccccccccc"
         inkscape:connector-curvature="0"
         style="display:inline;opacity:0.98999999;fill:none;stroke:#000000;stroke-width:2;stroke-linecap:round;stroke-linejoin:round;stroke-miterlimit:4;stroke-dasharray:none;stroke-opacity:1"
         id="path4176"
         d="m 82.41735,58.725855 c -6.253965,0.670867 -9.469804,3.952745 -13.681422,7.326453 -1.04804,0.522642 -2.831089,2.625407 -4.046557,2.357524 -1.465229,-1.063525 2.742377,-2.310933 3.246865,-3.118963 2.257053,-1.550241 -2.336494,-1.111536 -3.50534,-1.459211 -2.311975,0.07325 -4.336013,2.033647 -6.748213,1.476237 C 55.388415,64.950952 53.115449,62.608577 50.733542,63.634277 41.857598,65.486176 34.37988,71.49002 26.062132,74.832649 20.025148,77.731892 13.771749,78.06 7.4193316,79.989307 1.475162,80.944284 -0.43454746,89.959729 2.1263026,94.228051 5.2631797,92.740537 9.2723562,88.864749 13.204278,90.518319 c 0.124169,1.149253 -7.5646289,2.601327 -9.2157624,5.419514 2.0436879,2.387184 6.0278914,0.807731 10.3930414,-0.430191 5.879605,-1.326575 11.992239,-1.985271 17.930758,-0.735484 5.279024,0.714052 9.976014,4.089256 15.220874,4.786589 1.312648,-0.514602 2.427209,-3.268531 3.582558,-3.560318 -0.02786,1.994546 -1.540933,4.755161 -4.179977,4.920071 -1.993062,0.0625 -2.279518,0.94544 -2.244838,3.28811 -3.138243,10.54276 -2.787729,22.01364 -7.729485,31.99889 -1.837095,4.59305 -5.397709,14.82591 -6.465657,19.64517 4.56899,-3.71284 10.693111,-13.08803 10.446046,-11.25555 -0.258571,1.91784 -9.773366,20.74982 -10.173046,30.82727 1.378295,-1.14017 11.423166,-14.88623 13.291242,-13.83398 -1.709198,8.39608 -2.795506,20.44625 -1.489612,28.47534 2.939644,-4.56198 8.943485,-17.0326 13.426861,-20.49987 -1.157778,5.39699 0.514569,19.79083 4.427315,24.17834 3.152677,-6.05426 5.523933,-14.46615 9.761855,-21.87245 4.877907,7.60433 0.500851,-1.24125 11.460799,17.02574 3.334046,-7.62394 2.148483,-15.89539 3.659995,-24.05206 5.759806,3.65133 9.462844,8.95237 12.218173,13.40507 3.928802,-9.34212 -1.721938,-17.3857 -2.430416,-27.36186 6.276858,1.47224 9.609308,5.83292 13.088718,9.76658 0.39272,-10.01633 -3.45761,-12.12067 -6.75315,-22.29321 -3.206924,-6.13069 -8.965004,-12.84669 -10.61043,-19.70891 -2.716813,-10.91527 -4.769776,-22.04742 -8.958409,-32.539612 -1.219696,-3.192465 -2.473585,-7.104669 -3.793188,-10.237704 -3.786766,-0.825514 -4.734094,0.385727 -6.951774,0.854539 0.692193,-1.682206 4.801584,-1.618922 6.660347,-2.02268 6.799613,-0.0449 11.184407,-1.98993 16.482868,-6.090413 2.239705,-1.728941 4.188851,-3.904872 5.472198,-6.421106 -2.617645,-1.665693 -6.05117,-3.016817 -9.14682,-3.565664 -2.247189,-0.275 -5.953532,-0.350533 -8.168012,0.09737 z m -7.931415,7.610671 c 2.250644,-1.994745 5.814502,-4.073719 8.779221,-4.443695 2.535222,-0.17661 5.985442,-1.042683 7.787189,1.16492 1.166663,2.520853 -1.990662,4.150411 -3.80631,5.082557 -3.34547,1.413729 -7.318805,2.821357 -10.8834,1.60155" />
      <path
         inkscape:connector-curvature="0"
         style="fill:#f7d55d;fill-opacity:1;stroke:#000000;stroke-width:2;stroke-miterlimit:4;stroke-dasharray:none;stroke-opacity:1"
         id="path5098-0"
         d="m 45.898254,73.26034 a 1.8832174,2.806575 81.031914 0 1 -5.544531,0.875002 1.8832174,2.806575 81.031914 1 1 5.544531,-0.875002 z" />
    </g>
  </g>
  <g
     inkscape:groupmode="layer"
     id="layer2"
     inkscape:label="Meubles"
     style="opacity:1;display:inline"
     transform="translate(1,1.00002)" />
  <g
     inkscape:groupmode="layer"
     id="layer3"
     inkscape:label="Reflet final"
     style="display:inline"
     transform="translate(1,1.00002)" />
  <g
     inkscape:groupmode="layer"
     id="layer4"
     inkscape:label="Contour final"
     style="display:inline"
     transform="translate(1,1.00002)" />
</svg>
