<?xml version="1.0" encoding="UTF-8" standalone="no"?>
<svg
   xmlns:dc="http://purl.org/dc/elements/1.1/"
   xmlns:cc="http://web.resource.org/cc/"
   xmlns:rdf="http://www.w3.org/1999/02/22-rdf-syntax-ns#"
   xmlns:svg="http://www.w3.org/2000/svg"
   xmlns="http://www.w3.org/2000/svg"
   xmlns:sodipodi="http://sodipodi.sourceforge.net/DTD/sodipodi-0.dtd"
   xmlns:inkscape="http://www.inkscape.org/namespaces/inkscape"
   width="605.00000px"
   height="755.00000px"
   id="svg5716"
   sodipodi:version="0.32"
   inkscape:version="0.45.1"
   sodipodi:docname="Sexten.svg"
   sodipodi:docbase="/home/alex/Wappen/SVG/ITALIA/TAA/BZ"
   inkscape:export-filename="/home/alex/Wappen/EPS/ITALIA/TAA/BZ/Sexten.png"
   inkscape:export-xdpi="59.500000"
   inkscape:export-ydpi="59.500000"
   inkscape:output_extension="org.inkscape.output.svg.inkscape">
  <metadata
     id="metadata5775">
    <rdf:RDF>
      <cc:Work
         rdf:about="">
        <dc:format>image/svg+xml</dc:format>
        <dc:type
           rdf:resource="http://purl.org/dc/dcmitype/StillImage" />
      </cc:Work>
    </rdf:RDF>
  </metadata>
  <sodipodi:namedview
     inkscape:window-height="887"
     inkscape:window-width="1280"
     inkscape:pageshadow="2"
     inkscape:pageopacity="0.0"
     borderopacity="1.0"
     bordercolor="#666666"
     pagecolor="#ffffff"
     id="base"
     inkscape:zoom="0.90993426"
     inkscape:cx="302.4998"
     inkscape:cy="377.4998"
     inkscape:window-x="0"
     inkscape:window-y="24"
     inkscape:current-layer="layer12" />
  <defs
     id="defs5718">
    <marker
       id="ArrowEnd"
       viewBox="0 0 10 10"
       refX="0"
       refY="5"
       markerUnits="strokeWidth"
       markerWidth="4"
       markerHeight="3"
       orient="auto">
      <path
         d="M 0 0 L 10 5 L 0 10 z"
         id="path5721" />
    </marker>
    <marker
       id="ArrowStart"
       viewBox="0 0 10 10"
       refX="10"
       refY="5"
       markerUnits="strokeWidth"
       markerWidth="4"
       markerHeight="3"
       orient="auto">
      <path
         d="M 10 0 L 0 5 L 10 10 z"
         id="path5724" />
    </marker>
  </defs>
  <g
     inkscape:groupmode="layer"
     id="layer12"
     inkscape:label="Schild">
    <g
       id="g5800"
       style="stroke:#000000;stroke-opacity:1.0000000">
      <path
         style="fill:#0762bc;fill-rule:evenodd;stroke:#000000;stroke-opacity:1.0000000"
         d="M 2.5000000,2.4964000 L 602.49960,2.4964000 L 602.49960,452.49600 C 602.49960,505.08600 588.96860,554.51200 565.19860,597.48800 C 556.04660,494.55100 545.55460,379.74600 542.00360,355.99600 C 533.50360,332.49600 515.00360,320.49600 478.38660,302.44100 C 468.93360,302.44100 463.50760,318.99600 439.50760,332.99600 C 430.00760,377.49600 423.50760,456.49600 412.00760,541.99600 C 412.00760,541.99600 399.81160,404.35900 393.50760,332.49600 C 391.93360,313.27300 370.50760,316.49600 372.00760,258.99600 C 365.39060,258.99600 352.12860,244.49600 345.50760,244.49600 C 313.35860,244.49600 284.50760,255.49600 266.26960,265.24600 C 252.01160,285.99200 219.01160,387.49200 217.01160,404.49200 C 211.55860,450.86700 210.35160,545.30800 207.51160,559.49200 C 203.10160,528.92200 183.24160,365.94500 178.51160,327.49200 C 164.01160,310.99200 149.51160,304.99200 128.51160,298.99200 C 117.01160,303.99200 96.511600,322.99200 72.011700,334.49200 C 63.402300,355.75400 49.734400,484.20700 38.832000,595.69100 C 15.675800,553.13700 2.5156000,504.35100 2.5156000,452.49200 L 2.5156000,2.4923000"
         id="path5728" />
      <path
         style="fill:#ffffff;fill-rule:evenodd;stroke:#000000;stroke-opacity:1.0000000"
         d="M 72.000000,334.49600 C 96.499600,322.99600 116.99960,303.99600 128.49960,298.99600 C 149.49960,304.99600 163.99960,310.99600 178.49960,327.49600 C 183.22660,365.94500 203.08560,528.92200 207.49960,559.49600 C 210.33560,545.31600 211.54260,450.87500 216.99960,404.49600 C 218.99960,387.49600 251.99960,285.99600 266.25760,265.25000 C 284.49560,255.50000 313.34760,244.50000 345.49560,244.50000 C 352.11260,244.50000 365.37460,259.00000 371.99560,259.00000 C 370.49560,316.50000 391.91760,313.27300 393.49560,332.50000 C 399.79660,404.35900 411.99560,542.00000 411.99560,542.00000 C 423.49560,456.50000 429.99560,377.50000 439.49560,333.00000 C 463.49560,319.00000 468.91760,302.44500 478.37460,302.44500 C 514.99160,320.50000 533.49160,332.50000 541.99160,356.00000 C 545.53860,379.75000 556.03060,494.55500 565.18760,597.49200 C 514.06960,689.91400 415.58960,752.49600 302.49160,752.49600 C 188.66760,752.49600 89.648600,689.10600 38.812500,595.69900 C 49.710900,484.21900 63.382800,355.76200 71.992200,334.50000"
         id="path5732" />
    </g>
  </g>
  <g
     inkscape:groupmode="layer"
     id="layer13"
     inkscape:label="Figur">
    <g
       id="g5813">
      <path
         style="fill:#4b463f;fill-rule:evenodd;stroke:#000000;stroke-opacity:1.0000000"
         d="M 330.49960,170.99600 C 331.90160,174.34000 335.24960,184.77300 335.62460,188.24600 C 336.06160,192.05500 337.37460,204.24600 337.37460,208.12100 C 337.37460,213.55500 336.62460,230.74600 337.74960,236.12100 C 336.99960,237.87100 335.74960,238.99600 335.99960,244.37100 C 337.34360,244.37100 343.87460,244.62100 347.24960,244.62100 C 346.62460,241.74600 346.37460,238.49600 346.87460,236.87100 C 345.62460,220.37100 347.12460,198.96900 347.12460,194.74600 C 347.12460,184.24600 347.49960,172.15200 347.49960,159.99600 C 342.31560,162.14800 330.69060,171.02300 330.49960,170.99600"
         id="path5736" />
      <path
         style="fill:#000000;fill-rule:evenodd;stroke:#000000;stroke-opacity:1.0000000"
         d="M 305.12460,46.746400 C 303.99960,43.246400 303.37460,39.496400 305.74960,37.746400 C 307.85860,36.191400 311.37460,36.246400 312.62460,38.246400 C 312.68760,37.242300 312.37860,35.203300 311.62460,34.496400 C 309.62460,32.621400 306.62460,33.371400 303.99960,34.621400 C 299.60160,36.715300 300.40960,43.141400 301.49960,47.621400 C 302.74960,52.746400 307.22660,57.945300 310.22660,61.281300 C 312.01160,63.285400 317.74560,68.500400 319.49560,70.492300 C 320.64760,71.844400 324.93360,66.152400 324.62060,65.367300 C 324.62060,65.367300 306.80060,51.969400 305.12060,46.742300"
         id="path5740" />
      <path
         style="fill:#4b463f;fill-rule:evenodd;stroke:#000000;stroke-opacity:1.0000000"
         d="M 266.99960,185.62100 C 270.62460,187.74600 275.99960,197.49600 275.99960,201.74600 C 275.99960,207.12100 271.64760,210.79700 270.87460,217.37100 C 270.62460,219.49600 277.37460,234.74600 285.74960,244.74600 C 287.99960,247.37100 289.05860,251.27300 290.12460,253.87100 C 294.74960,252.87100 298.49960,251.12100 303.12460,250.24600 C 301.44860,246.89400 298.74960,243.74600 295.87460,241.87100 C 289.29260,234.59800 283.62460,227.12100 281.62460,217.12100 C 298.12460,195.24600 297.62460,183.74600 297.62460,180.62100 C 296.74960,180.62100 272.99960,181.12100 266.99960,185.62100"
         id="path5744" />
      <path
         style="fill:#4b463f;fill-rule:evenodd;stroke:#000000;stroke-opacity:1.0000000"
         d="M 304.24960,95.496000 C 302.58960,93.871000 302.24960,92.609000 302.24960,90.496000 C 302.24960,85.371000 310.87460,83.996000 313.37460,79.621400 C 316.37460,74.371400 316.99960,71.371400 320.87460,66.871400 C 324.24960,64.996400 330.03060,62.543300 335.12460,63.496400 C 338.12460,62.371400 342.24960,58.121400 349.12460,59.121400 C 348.37460,62.121400 346.24960,65.996400 343.24960,67.621400 C 352.87460,88.121000 358.99960,96.746000 361.12460,120.37100 C 362.09760,131.19900 362.12460,145.12100 358.62460,154.74600 C 357.13260,158.85500 358.37460,172.12100 358.37460,176.49600 C 358.37460,176.49600 358.62460,211.24600 359.99960,238.99600 C 359.07360,241.37500 358.56560,250.30500 358.56560,250.30500 C 354.94060,249.68000 351.38260,245.74200 348.13260,244.86700 C 348.00760,240.74200 350.88260,239.86700 351.25760,236.74200 C 350.00760,221.86700 351.50760,216.11700 350.38260,202.86700 C 349.19060,188.80500 346.50760,179.99200 344.75760,167.11700 C 342.00360,169.30500 339.27660,171.16800 336.55460,172.77300 C 334.76160,170.40600 332.26160,167.74200 330.76160,167.74200 C 321.13660,167.74200 311.76160,177.24200 288.76160,179.74200 C 287.54660,179.87100 286.18360,185.90200 286.09360,189.45300 L 285.26560,189.73800 C 272.78860,194.07800 267.39060,201.73800 263.39060,211.61300 C 267.14060,225.61300 274.51560,238.23800 280.39060,244.98800 C 283.21460,247.89800 287.07760,251.86300 288.70260,254.48800 L 277.01960,259.36300 C 273.26960,256.86300 274.01960,253.48800 269.64460,249.98800 C 266.14460,241.86300 251.47960,216.23800 251.64460,208.23800 C 251.76960,202.23800 259.39460,190.61300 260.26960,181.48800 L 257.01960,163.36300 C 257.01960,163.36300 246.39460,168.48800 238.64460,166.61300 C 250.76960,154.73800 283.28060,137.16800 295.01960,135.48800 C 312.51960,132.98800 336.26960,116.98800 333.26960,101.98800 C 332.38660,97.578000 330.26960,98.488000 328.14460,94.988000 C 323.39460,96.363000 316.64460,97.238000 311.89460,98.738000 C 309.92560,99.359000 308.40160,98.816000 306.64460,97.488000 C 308.76960,96.426000 312.17160,95.926000 313.51960,94.113000 C 311.01960,94.363000 306.21060,94.516000 304.26960,95.488000"
         id="path5750" />
      <path
         style="fill:none;stroke:#000000;stroke-width:1.0000000;stroke-miterlimit:4.0000000;stroke-dasharray:none"
         d="M 305.04660,90.684000 C 305.04660,90.684000 304.53460,89.535000 304.98760,89.262000 C 305.54660,88.926000 307.43360,90.254000 307.80060,89.934000 C 308.49960,89.308000 307.92560,88.199000 307.67560,87.808000"
         id="path5754" />
      <path
         style="fill:#ffffff;fill-rule:evenodd;stroke:#000000;stroke-opacity:1.0000000"
         d="M 321.52260,80.629300 C 322.62460,80.715300 324.79260,80.773300 325.68360,80.141400 C 327.61260,78.766400 327.53460,77.648300 327.53460,75.523300 C 327.04260,75.512300 324.91760,75.930400 323.79660,76.535400 C 321.73360,77.644400 322.35160,79.066400 321.52260,80.629300"
         id="path5756" />
      <path
         style="fill:none;stroke:#000000;stroke-width:1.0000000;stroke-miterlimit:4.0000000;stroke-dasharray:none"
         d="M 324.99960,77.871400 C 324.68360,77.644400 324.08960,77.976300 324.12460,78.371400 C 324.14760,78.644400 324.34760,78.844400 324.62460,78.871400 C 325.03460,78.906300 325.33560,78.117300 324.99960,77.871400 z "
         id="path5760" />
      <path
         style="fill:#ffffff;fill-rule:evenodd;stroke:#000000;stroke-opacity:1.0000000"
         d="M 286.07760,189.46100 C 286.16360,185.91400 287.52660,179.88300 288.74560,179.75000 C 311.74560,177.25000 321.12060,167.75000 330.74560,167.75000 C 332.24160,167.75000 334.74160,170.41400 336.53860,172.78100 C 320.83960,182.05500 305.33560,182.89100 286.07760,189.45700"
         id="path5762" />
      <path
         style="fill:none;stroke:#000000;stroke-width:1.0000000;stroke-miterlimit:4.0000000;stroke-dasharray:none"
         d="M 338.87460,64.246400 C 341.31160,62.621400 343.87460,61.496400 345.87460,61.496400 C 345.43360,62.961400 343.87460,64.340300 342.99960,64.996400"
         id="path5766" />
      <path
         style="fill:#000000;fill-rule:evenodd;stroke:#000000;stroke-opacity:1.0000000"
         d="M 321.49960,41.152400 C 322.31960,37.574400 324.71860,34.000400 327.62460,34.000400 C 330.24960,34.000400 331.24960,36.500400 331.74960,38.000400 C 332.18760,37.098300 332.49960,36.473300 332.49960,35.437300 C 332.49960,32.687300 329.62460,30.875400 326.87460,30.875400 C 321.99960,30.875400 318.55460,37.230400 317.62460,41.750400 C 316.62460,46.625400 318.46860,53.527400 319.99960,57.750400 C 320.90160,60.277400 323.12460,64.625400 323.99960,67.125400 C 324.56160,68.808400 330.37460,65.723300 330.37460,64.875400 C 330.37460,64.875400 319.54260,49.668300 321.49960,41.156300"
         id="path5768" />
    </g>
  </g>
  <g
     inkscape:groupmode="layer"
     id="layer14"
     inkscape:label="Rand">
    <path
       id="path5772"
       d="M 2.5000000,2.5004010 L 602.49960,2.5004010 L 602.49960,452.50000 C 602.49960,618.18400 468.19060,752.50000 302.49960,752.50000 C 136.81560,752.50000 2.5000000,618.19100 2.5000000,452.50000 L 2.5000000,2.5004010 z "
       style="fill:none;stroke:#000000;stroke-width:5.0000000;stroke-miterlimit:4.0000000;stroke-dasharray:none" />
  </g>
</svg>
