<svg width="400" height="445" viewBox="0 0 400 445" fill="none" xmlns="http://www.w3.org/2000/svg">
<path d="M252.769 420.242L252.375 420.022L252.404 420.111L252.769 420.242ZM333.045 231.353C326.796 226.219 322.13 220.222 328.482 215.415C330.657 213.769 333.224 213.482 335.827 213.551C329.97 207.86 318.006 202.712 323.451 194.609C325.742 191.201 328.674 191.134 331.67 191.375C327.319 186.572 322.034 180.433 327.427 175.61C329.069 174.141 330.763 174.02 332.678 173.966C332.547 168.739 331.675 162.873 337.873 160.596C343.851 159.124 347.173 164.22 349.723 168.723C355.128 165.049 360.319 168.159 360.856 174.658C361.087 177.454 360.583 180.144 360.15 182.823C363.777 180.248 368.1 177.915 372.121 183.345C375.559 187.986 370.57 197.863 369.588 203.061C379.607 196.49 384.936 204.908 382.409 214.378C381.224 218.817 378.457 223.801 376.759 228.242C379.852 226.735 382.694 226.48 385.342 232.416C387.439 237.114 384.893 245.508 382.452 253.403C386.046 250.594 389.817 247.996 394.528 251.153C396.368 252.706 397.352 254.867 397.349 257.261C397.345 260.187 396.11 262.906 394.926 265.508C401.075 267.721 401.61 273.748 396.668 278.003C394.542 279.833 392.07 281.007 389.648 282.232C393.864 283.652 398.291 285.777 396.263 292.223C394.529 297.732 383.606 299.502 378.824 301.762C390.029 306.005 386.351 315.265 377.204 318.787C376.868 318.916 376.524 319.04 376.172 319.158C375.568 321.413 374.295 323.642 373.052 325.671C378.885 328.617 378.684 334.664 373.26 338.285C370.927 339.843 368.332 340.706 365.779 341.626C369.789 343.549 373.924 346.199 371.126 352.348C368.734 357.605 357.68 358.029 352.658 359.69C363.26 365.266 358.485 374.009 348.977 376.389C344.522 377.505 338.822 377.501 334.117 378.167C336.933 380.142 338.533 382.506 334.627 387.698C332.814 390.108 329.117 391.738 324.739 393.016C324.065 397.672 319.302 399.865 315.075 401.532C317.961 407.396 314.159 412.103 307.648 411.73C304.848 411.57 302.254 410.697 299.662 409.896C301.707 413.846 303.415 418.45 297.479 421.677C292.404 424.435 283.319 418.121 278.308 416.425C281.995 424.24 278.301 428.554 272.569 428.919C274.384 429.84 276.202 430.789 278.035 431.767C271.581 434.144 241.745 443.8 230.999 444.772C219.366 440.399 209.143 435.517 200.1 429.805C191.057 435.517 180.834 440.399 169.201 444.772C158.456 443.8 128.62 434.144 122.165 431.767C127.852 428.734 133.392 425.971 139.16 423.504C120.315 426.092 108.883 423.227 89.4794 415.331C95.1487 410.201 100.05 406.063 104.892 402.682C100.846 402.376 96.1261 401.572 89.9858 400.041C68.1452 394.595 58.5386 387.442 42.7062 370.965C49.1637 368.849 54.7474 367.203 59.98 366.077C57.6658 365.099 55.1271 363.909 52.2762 362.457C32.2173 352.236 24.4683 343.106 12.7488 323.491C21.1581 322.734 28.0899 322.38 34.4995 322.75C32.7797 321.42 30.9362 319.903 28.927 318.156C11.9373 303.387 6.62737 292.656 0 270.784C12.6643 272.758 21.801 274.809 30.3801 278.835C25.6396 273.397 22.0866 267.81 17.8364 255.466C10.5075 234.181 11.2745 222.233 16.4705 199.978C27.0231 208.48 34.1175 215.085 39.6726 223.491C39.6476 218.526 40.3867 212.814 42.462 204.49C47.9077 182.647 55.0613 173.042 71.5379 157.21C78.6531 178.925 80.4588 190.765 75.0133 212.606C73.5713 218.39 72.1513 222.758 70.6294 226.352C77.413 242.251 79.4682 253.463 77.111 272.66C76.7475 275.62 76.3464 278.228 75.9018 280.565C88.3678 294.087 94.224 304.044 98.3901 323.647C99.089 326.935 99.5968 329.816 99.9439 332.402C115.095 336.983 124.755 342.574 137.499 355.772C150.813 369.559 151.834 375.396 156.48 388.085C158.097 388.162 159.618 388.313 161.102 388.526C156.645 380.624 152.686 371.802 149.101 361.891L177.593 351.59C183.991 369.279 191.185 381.662 200.1 391.058C209.015 381.662 216.21 369.279 222.608 351.59L251.1 361.891C248.735 368.43 246.206 374.494 243.48 380.134C246.171 380.922 246.838 382.808 246.919 385.108C248.866 382.992 251.301 380.243 253.92 377.684C254.313 376.956 254.748 376.338 255.228 375.859C256.863 374.226 258.241 373.333 259.444 372.973C261.104 371.807 262.757 370.92 264.332 370.497C264.273 360.349 264.866 346.305 274.991 349.571C277.595 350.411 279.288 352.322 280.71 354.474C281.965 346.434 279.446 333.703 289.149 333.517C293.254 333.438 294.99 335.802 296.511 338.394C297.951 332.074 299.947 324.225 306.991 325.876C309.137 326.379 310.207 327.698 311.35 329.235L311.888 328.834C307.961 321.703 299.237 313.338 306.755 307.653C310.03 305.176 312.824 306.068 315.578 307.271C313.028 301.312 310.029 293.788 316.698 290.984C318.73 290.13 320.371 290.567 322.199 291.139C322.652 289.708 323.064 288.208 323.578 286.793C318.522 279.077 314.336 270.108 322.985 267.444C325.579 266.646 328.077 267.244 330.488 268.191C326.908 260.883 317.529 251.893 325.374 246.173C328.692 243.753 331.47 244.694 334.203 245.945C332.155 240.919 329.811 234.792 333.045 231.353Z" fill="white"/>
<path d="M303.266 89.3426L303.277 291.889C303.277 325.345 276.145 352.464 242.692 352.464H214.298C208.659 352.464 204.067 356.947 203.891 362.543V366.662H196.32V362.876C196.314 357.125 191.653 352.464 185.903 352.464H157.52C124.066 352.464 96.9346 325.345 96.9346 291.89L96.9347 89.3426L123.435 89.3427V86.4839C123.435 85.6947 122.799 85.0642 122.02 85.0642H118.234V78.4577H115.863V67.1001H118.229V64.715C118.229 62.8852 116.746 61.4023 114.916 61.4023H111.125L111.131 54.7958V43.438L111.13 14.2463L120.596 21.8191L120.594 11.2622L133.372 19.7814V6.26059L153.506 23.7097L156.087 21.7736V2.88867L176.367 19.1128L180.225 16.7026V0.000183105L200.1 16.0593L219.976 0.000183105V16.7038L223.831 19.1128L244.111 2.88867V21.7736L246.693 23.7097L266.827 6.26059V19.7814L279.605 11.2622L279.602 21.8191L289.069 14.2463L289.068 43.438V54.7958L289.074 61.4023H285.282C283.453 61.4023 281.97 62.8852 281.97 64.715V67.1001H284.336V78.4577H281.97V85.0642H278.184C277.405 85.0642 276.769 85.6947 276.769 86.4839V89.3427L303.266 89.3426H303.266Z" fill="white"/>
<path fill-rule="evenodd" clip-rule="evenodd" d="M130.595 408.073C150.838 406.954 160.169 405.933 170.771 403.173C171.722 404.414 172.694 405.63 173.687 406.821C166.255 412.053 159.914 416.1 143.84 418.934C129.628 421.44 116.587 422.274 96.4875 414.095C112.578 399.535 125.118 395.858 139.33 393.353C150.477 391.387 157.425 391.571 163.563 392.66C164.938 394.901 166.362 397.073 167.839 399.177C157.842 400.297 148.691 402.598 130.595 408.073ZM83.219 381.058C103.235 388.675 112.082 391.44 123.761 393.216C118.952 394.785 114.707 396.678 110.616 399.033C105.439 399.142 99.3714 398.479 90.9018 396.367C76.8991 392.876 64.6461 388.334 49.611 372.686C70.2322 365.93 83.1836 367.672 97.1861 371.163C117.701 376.278 121.782 382.284 132.902 390.76C131.984 390.963 131.087 391.171 130.209 391.387C129.92 391.286 129.647 391.188 129.399 391.093C115.82 385.904 107.348 384.091 83.219 381.058ZM117.687 359.391C129.349 374.775 135.405 382.007 143.05 388.919C141.673 389.118 140.218 389.352 138.672 389.624L137.915 389.76C125.897 381.185 121.903 376.128 111.834 371.868C103.809 362.812 97.4297 352.618 93.622 334.481C114.691 339.679 124.751 348.02 134.776 358.401C147.108 371.172 149.281 378.335 152.585 388.048C151.263 388.082 149.864 388.162 148.364 388.294C141.031 379.142 134.207 372.849 117.687 359.391ZM49.9529 342.438C70.1538 355.979 77.7295 360.184 91.3822 365.176C92.4345 365.561 93.8566 366.183 95.1819 366.791C84.4814 364.347 76.1507 363.767 67.5479 364.795C63.691 363.591 59.3142 361.794 53.995 359.084C41.1367 352.532 30.2193 345.35 19.0893 326.721C40.702 324.776 52.9296 329.387 65.788 335.939C86.3607 346.421 87.5982 353.53 98.8243 366.147C97.2581 365.315 94.3364 363.71 92.6925 362.605C80.6285 354.494 72.7815 350.822 49.9529 342.438ZM79.6706 316.217C80.6963 327.569 81.571 335.475 82.6957 342.087C79.5943 339.506 75.7332 336.937 70.2342 333.99C69.9079 332.681 69.5892 331.299 69.278 329.834C66.2779 315.717 64.9894 302.713 72.4626 282.34C87.5751 297.913 91.6868 310.317 94.6868 324.434C95.2125 326.907 95.7168 329.19 96.1947 331.318C93.8319 330.662 91.3356 330.017 88.679 329.362C91.4579 342.599 94.1172 351.909 99.0666 360.66C94.8273 355.684 91.9938 351.829 89.0678 348.432C87.4759 340.086 84.8076 331.279 79.6706 316.217ZM31.5156 298.17C47.4593 315.775 53.873 321.825 65.3793 329.688L65.5747 330.621L65.811 331.714C57.0512 327.384 49.8042 324.876 42.3815 323.624C39.1415 321.583 35.5718 318.916 31.4108 315.299C20.5193 305.831 11.6637 296.22 5.37061 275.453C26.812 278.794 37.5612 286.226 48.4526 295.694C56.0288 302.28 60.213 307.363 63.167 312.234C63.2628 315.922 63.6463 319.786 64.3289 324.01C56.3303 315.685 48.9529 310.005 31.5156 298.17ZM61.83 259.541C57.423 277.435 55.5748 286.683 54.9282 296.439C53.7171 295.298 52.3922 294.102 50.9365 292.837C49.7597 291.814 48.6099 290.844 47.4816 289.923C46.6041 284.591 46.4367 278.266 47.5706 269.033C49.3295 254.709 52.345 241.993 66.0435 225.162C75.263 244.807 75.1124 257.875 73.3534 272.199C73.1373 273.959 72.9258 275.614 72.7158 277.177C72.1505 276.586 71.5731 275.987 70.9832 275.379C66.5991 287.331 63.9689 296.278 63.3082 305.665C62.0765 303.992 60.6477 302.272 58.9192 300.424C61.2115 289.477 61.7703 280.134 61.83 259.541ZM30.0712 239.452C34.8843 261.778 37.4078 270.446 42.9593 282.249C42.9985 284.058 43.1159 285.718 43.3007 287.289C34.2981 277.565 28.115 273.688 21.4161 254.234C16.7177 240.588 13.8536 227.838 18.7874 206.706C35.6854 220.32 41.2786 232.131 45.977 245.777C46.5476 247.434 47.0515 248.999 47.4955 250.485C45.8459 255.736 44.6729 261.567 43.8128 268.571C43.7123 269.39 43.6211 270.184 43.5389 270.953C40.9321 262.654 37.1987 254.173 30.0712 239.452ZM61.4449 197.723C52.9948 219.927 50.5165 228.387 48.7344 242.216C47.1952 237.968 45.6136 234.227 43.9066 230.833C43.065 224.292 43.2041 217.163 46.1355 205.406C49.6268 191.403 54.1693 179.15 69.8164 164.115C76.5731 184.736 74.8312 197.687 71.3399 211.69C70.4076 215.43 69.4456 218.623 68.4445 221.412C67.9526 220.333 67.4413 219.23 66.9108 218.099C61.7842 224.398 57.7307 229.772 54.512 235.086C57.4978 225.595 59.1095 216.299 61.4449 197.723ZM226.445 409.638C239.532 408.352 251.74 405.491 275.561 398.734C253.649 399.563 241.341 400.473 229.89 402.626C234.205 396.927 238.116 390.655 241.694 383.712C246.434 384.936 240.411 391.757 244.359 392.136C248.01 391.782 258.365 374.986 264.769 374.326C272.677 373.512 267.151 386.128 267.79 387.153L268.202 387.538C271.411 387.269 276.33 382.978 277.831 381.829C281.713 378.86 285.591 373.279 288.621 373.842C295.344 375.091 288.958 386.157 290.933 387.171C292.454 387.951 303.567 377.178 307.418 379.823C310.241 381.762 306.933 384.866 309.195 387.169C310.515 388.168 319.971 386.627 321.027 391.522C321.535 396.503 312.066 397.959 311.119 399.318C309.679 402.207 313.785 404.137 311.7 406.854C308.855 410.559 294.957 403.748 293.751 404.96C292.186 406.534 301.679 415.085 295.671 418.351C292.963 419.822 287.55 415.714 282.941 414.089C281.158 413.461 275.154 410.899 272.019 411.636L271.747 412.129C271.455 413.301 280.609 423.592 272.837 425.261C266.542 426.613 251.504 413.839 247.922 414.631C246.138 415.406 247.115 416.915 248.086 418.561C240.104 415.655 232.934 412.791 226.445 409.638ZM268.052 370.509C267.872 364.264 267.756 357.258 270.075 354.601C275.303 348.612 279.866 361.608 281.032 361.921L281.596 361.922C283.76 359.538 284.43 353.044 284.745 351.18C285.559 346.361 284.589 339.635 287.189 337.98C292.958 334.309 295.835 346.757 297.97 346.151C299.615 345.684 300.395 330.226 305.016 329.535C308.403 329.027 308.1 333.555 311.325 333.695C312.972 333.526 318.837 325.95 322.947 328.81C326.716 332.106 320.784 339.63 321.018 341.269C321.935 344.364 326.254 342.975 326.582 346.384C327.028 351.034 312.218 355.531 312.163 357.24C312.092 359.459 324.866 359.239 322.699 365.724C321.723 368.647 314.962 369.334 310.483 371.289C308.751 372.045 302.612 374.267 300.822 376.943L300.843 377.029C298.891 377.994 296.943 379.29 295.156 380.503C295.812 377.569 296.154 374.656 293.098 371.914C292.984 371.812 292.87 371.714 292.756 371.62C298.247 363.48 303.789 354.926 309.157 346.312C301.663 354.536 294.875 362.459 288.714 369.926C283.086 369.679 277.753 377.546 272.618 381.533C273.048 378.965 273.122 376.383 271.795 374C270.729 372.087 269.458 370.986 268.052 370.509ZM328.072 341.69C329.934 338.999 331.014 333.935 331.457 332.347C332.769 327.64 332.508 320.849 335.266 319.476C341.385 316.428 342.946 329.108 345.133 328.729C346.817 328.437 349.207 313.146 353.874 312.941C357.295 312.791 356.522 317.261 359.713 317.739C361.369 317.743 367.992 310.822 371.78 314.096C375.184 317.767 368.5 324.629 368.561 326.284C369.15 329.457 373.59 328.528 373.56 331.953C373.518 336.624 358.322 339.547 358.089 341.241C357.786 343.44 370.512 344.557 367.68 350.78C366.404 353.584 359.609 353.56 354.951 355.036C353.15 355.607 346.814 357.175 344.754 359.649L344.833 360.207C345.306 361.319 358.808 364.029 353.607 370.039C349.394 374.907 329.699 373.754 327.316 376.542C325.133 380.398 336.681 378.67 331.602 385.422C330.53 386.847 327.591 388.118 324.216 389.163C322.648 385.539 319.145 384.708 315.478 384.269C315.746 381.377 313.971 378.462 309.335 376.428C309.155 376.311 308.971 376.206 308.785 376.114C313.654 373.959 324.472 372.365 326.29 366.924C326.843 365.269 326.96 363.894 326.758 362.74C332.863 357.223 341.121 348.932 350.403 338.13C338.611 347.355 330.421 354.083 324.412 359.071C323.121 358.08 321.472 357.396 319.852 356.819C322.295 355.637 324.787 354.507 326.944 352.714C331.097 349.263 331.517 344.533 328.072 341.69ZM314.716 326.735C314.234 325.785 313.809 325.004 313.574 324.531C311.4 320.154 306.662 315.282 307.793 312.415C310.302 306.054 319.946 314.434 321.318 312.689C322.374 311.344 313.919 298.38 317.251 295.104C319.693 292.703 322.109 296.544 324.801 294.762C326.034 293.657 326.326 284.08 331.331 283.978C336.318 284.429 335.941 294.003 337.094 295.192C339.655 297.156 342.333 293.494 344.602 296.06C347.696 299.56 338.358 311.903 339.318 313.317C340.183 314.592 345.366 311.278 349.144 311.313C347.009 313.669 345.643 317.486 344.493 320.861C343.251 318.124 341.771 315.593 337.681 315.242C334.859 314.999 332.96 315.929 331.635 317.562C331.536 312.432 331.251 306.762 330.714 300.408C328.935 311.301 327.743 320.176 326.926 327.764C326.516 327.09 325.974 326.443 325.274 325.831C321.277 323.049 317.898 324.524 314.716 326.735ZM354.406 309.094C358.568 302.716 363.039 295.392 368.1 286.684C360.41 294.694 354.088 301.51 348.709 307.686C347.571 307.83 346.411 308.128 345.291 308.457C346.572 306.065 347.924 303.686 348.616 300.967C350.224 294.648 346.329 290.017 340.022 291.731C339.624 289.587 339.13 287.298 338.233 285.327C338.513 283.435 339.009 281.872 339.84 280.884C344.962 274.806 349.752 287.719 350.924 288.012L351.487 288.003C353.609 285.581 354.166 279.076 354.448 277.207C355.177 272.375 354.09 265.666 356.661 263.966C362.365 260.195 365.459 272.591 367.583 271.948C369.219 271.452 369.729 255.983 374.337 255.21C377.715 254.644 377.492 259.176 380.718 259.26C382.362 259.062 388.094 251.385 392.253 254.172C396.079 257.401 390.28 265.028 390.543 266.663C391.513 269.741 395.808 268.277 396.195 271.68C396.723 276.322 381.993 281.078 381.968 282.787C381.936 285.006 394.704 284.563 392.652 291.086C391.726 294.025 384.978 294.83 380.534 296.863C378.815 297.65 372.716 299.978 370.973 302.686L371.12 303.23C371.725 304.275 385.458 305.319 381.027 311.919C380.198 313.154 378.509 314.171 376.376 315.043C376.111 313.785 375.497 312.552 374.406 311.376C369.4 307.05 364.71 310.655 360.204 313.305C359.229 311.657 358.302 310.233 356.221 309.509C355.582 309.286 354.978 309.151 354.406 309.094V309.094ZM348.224 251.664C346.598 261.041 345.423 268.874 344.608 275.752C339.504 274.232 336.854 277.186 335.518 281.704C334.456 280.886 333.132 280.34 331.464 280.189C328.548 280.248 326.708 281.419 325.427 283.137C323.234 279.823 321.6 276.651 321.844 274.384C322.691 266.48 333.883 274.508 335.018 274.095L335.48 273.773C335.885 270.578 332.71 264.874 331.898 263.167C329.801 258.753 325.148 253.799 326.329 250.953C328.949 244.636 338.445 253.183 339.847 251.462C340.926 250.136 332.699 237.026 336.087 233.809C338.571 231.451 340.92 235.333 343.642 233.599C344.894 232.516 345.353 222.945 350.36 222.931C355.338 223.468 354.794 233.034 355.926 234.243C358.452 236.252 361.194 232.637 363.417 235.242C366.45 238.795 356.898 250.973 357.833 252.404C358.992 254.178 368.462 247.42 371.014 252.5C368.522 254.407 367.304 258.35 366.434 262.164C366.109 262.584 365.79 263.004 365.488 263.423C364.025 261.192 362.216 259.335 358.542 259.47C348.844 259.825 351.585 272.51 350.472 280.572C349.987 279.866 349.474 279.188 348.908 278.567C348.641 271.004 348.318 262.311 348.224 251.664ZM374.654 251.326C372.56 245.828 367.967 246.528 363.89 247.649C365.213 245.28 366.606 242.924 367.345 240.218C368.796 234.904 366.3 230.726 361.67 230.525C359.016 221.999 355.281 212.091 349.631 197.99C351.754 207.412 353.668 214.988 355.372 221.457C354.217 220.227 352.669 219.372 350.558 219.144L350.349 219.145C344.001 219.163 342.711 225.118 341.102 229.93C339.496 229.397 338.034 228.971 336.304 229.445C333.037 227.043 330.339 224.577 329.783 222.327C327.876 214.609 341.138 218.325 342.064 217.55L342.388 217.088C341.676 213.948 336.741 209.674 335.395 208.347C331.914 204.916 325.848 201.852 325.984 198.774C326.285 191.942 338.133 196.726 338.861 194.629C339.422 193.014 327.207 183.508 329.29 179.327C330.818 176.261 334.353 179.105 336.318 176.545C337.124 175.098 334.282 165.948 338.982 164.222C343.843 163.025 346.604 172.2 348.081 172.948C351.142 173.972 352.483 169.638 355.463 171.325C359.528 173.626 354.717 188.338 356.085 189.363C357.862 190.694 365.009 180.103 369.079 185.598C370.913 188.074 367.597 194.007 366.63 198.797C366.256 200.65 364.555 206.953 365.721 209.955L366.247 210.156C367.448 210.281 376.365 199.784 379.1 207.249C381.315 213.294 370.757 229.964 372.04 233.401C374.355 237.181 378.442 226.241 381.885 233.958C383.382 237.313 380.466 247.275 378.652 252.625C378.001 252.12 377.236 251.731 376.248 251.518C375.685 251.396 375.154 251.334 374.654 251.326Z" fill="#989696"/>
<path fill-rule="evenodd" clip-rule="evenodd" d="M299.49 291.87C299.49 323.234 274.055 348.659 242.691 348.659H214.297C206.456 348.659 200.099 355.015 200.099 362.856C200.099 355.015 193.743 348.659 185.902 348.659H157.519C126.155 348.659 100.72 323.234 100.72 291.87V93.109H299.48L299.489 291.87H299.49Z" fill="#989696"/>
<path fill-rule="evenodd" clip-rule="evenodd" d="M122.02 77.4921C126.338 77.4921 129.939 80.5347 130.807 84.5907H191.313C192.181 80.5348 195.782 77.4921 200.1 77.4921C204.416 77.4921 208.022 80.5338 208.891 84.5907H269.397C270.265 80.5348 273.866 77.4921 278.184 77.4921V81.278C275.311 81.278 272.984 83.6068 272.984 86.4837V88.3765H205.305V86.4837C205.305 83.6086 202.974 81.278 200.1 81.278C197.226 81.278 194.899 83.6068 194.899 86.4837V88.3765H127.221V86.4837C127.221 83.6068 124.894 81.278 122.02 81.278V77.4921ZM119.649 70.8856H280.55V74.6716H119.649V70.8856ZM231.329 66.1358L231.334 62.3491C231.334 57.6445 227.52 53.8303 222.816 53.8303C218.111 53.8303 214.297 57.6439 214.297 62.3485V66.1343L218.083 66.1344V62.3485C218.083 59.7349 220.202 57.6161 222.816 57.6161C225.429 57.6161 227.548 59.734 227.548 62.3478L227.543 66.1331L231.329 66.1358ZM251.205 66.1358L251.21 62.3491C251.21 57.6445 247.396 53.8303 242.692 53.8303C237.987 53.8303 234.173 57.6439 234.173 62.3485V66.1343L237.959 66.1344V62.3485C237.959 59.7349 240.078 57.6161 242.692 57.6161C245.305 57.6161 247.424 59.734 247.424 62.3478L247.419 66.1331L251.205 66.1358ZM285.277 53.8303C279.266 53.8303 274.398 58.7033 274.398 64.7146V68.0272H278.184V64.7146C278.184 60.7941 281.362 57.6161 285.283 57.6161L285.277 53.8303H285.277ZM271.081 66.1358L271.085 62.3491C271.085 57.6445 267.271 53.8303 262.566 53.8303C257.862 53.8303 254.048 57.6439 254.048 62.3485L254.048 66.1343L257.834 66.1344V62.3485C257.834 59.7349 259.953 57.6161 262.566 57.6161C265.18 57.6161 267.299 59.734 267.299 62.3478L267.295 66.1331L271.081 66.1358H271.081ZM168.87 66.1358L168.865 62.3491C168.865 57.6445 172.679 53.8303 177.383 53.8303C182.088 53.8303 185.902 57.6439 185.902 62.3485V66.1343L182.116 66.1344V62.3485C182.116 59.7349 179.997 57.6161 177.383 57.6161C174.77 57.6161 172.651 59.734 172.651 62.3478L172.656 66.1331L168.87 66.1358ZM148.995 66.1358L148.989 62.3491C148.989 57.6445 152.803 53.8303 157.508 53.8303C162.212 53.8303 166.026 57.6439 166.026 62.3485V66.1343L162.24 66.1344V62.3485C162.24 59.7349 160.121 57.6161 157.508 57.6161C154.894 57.6161 152.775 59.734 152.775 62.3478L152.781 66.1331L148.995 66.1358H148.995ZM189.22 68.0296L189.215 64.7158C189.215 58.7045 194.088 53.8303 200.099 53.8303C206.111 53.8303 210.984 58.7033 210.984 64.7146V68.0272H207.198V64.7146C207.198 60.7941 204.02 57.6161 200.099 57.6161C196.179 57.6161 193.001 60.793 193.001 64.7135L193.006 68.025L189.22 68.029V68.0296ZM114.922 53.8303C120.933 53.8303 125.801 58.7033 125.801 64.7146V68.0272H122.015V64.7146C122.015 60.7941 118.837 57.6161 114.917 57.6161L114.922 53.8303H114.922ZM129.118 66.1358L129.113 62.3491C129.113 57.6445 132.927 53.8303 137.631 53.8303C142.336 53.8303 146.15 57.6439 146.15 62.3485V66.1343L142.364 66.1344V62.3485C142.364 59.7349 140.245 57.6161 137.631 57.6161C135.018 57.6161 132.899 59.734 132.899 62.3478L132.904 66.1331L129.118 66.1358H129.118ZM114.917 47.2238H285.283V51.0096H114.917V47.2238ZM275.818 18.3372L275.811 43.419L272.025 43.418L272.029 25.4125L266.826 28.8813V24.3312L275.817 18.3372H275.818ZM263.041 14.5514V43.419H259.255V22.8423L247.037 33.4316L244.112 31.2378V26.5055L246.865 28.5706L263.041 14.5514ZM240.326 10.7654V43.419H236.54V18.6424L224.37 28.3782L219.976 25.6324V21.1679L224.101 23.7454L240.326 10.7654ZM114.917 22.1232L114.917 43.419H118.709L118.705 30.0021L120.599 31.5176L120.598 26.6682L114.917 22.1232H114.917ZM124.382 18.3372L124.388 43.419L128.174 43.418L128.17 25.4125L133.373 28.8813V24.3312L124.382 18.3372H124.382ZM137.158 14.5514V43.419H140.944V22.8423L153.162 33.4316L156.088 31.2378V26.5055L153.334 28.5706L137.158 14.5514ZM159.874 10.7654V43.419H163.659V18.6424L175.829 28.3782L180.223 25.6324V21.1679L176.098 23.7454L159.874 10.7654ZM285.283 22.1232L285.283 43.419H281.491L281.495 30.0021L279.6 31.5176L279.601 26.6682L285.283 22.1232H285.283ZM184.01 7.92596L200.101 20.9263L216.19 7.92609V43.419H212.405V15.8742L200.101 25.8154L187.796 15.8742V43.419H184.01V7.92596Z" fill="#989696"/>
<path fill-rule="evenodd" clip-rule="evenodd" d="M200.163 429.842C190.216 435.739 180.09 440.679 169.201 444.772C156.562 443.305 128.631 434.148 122.166 431.767C130.72 427.205 138.943 423.253 148.107 420.001C157.573 416.641 166.616 413.396 175.547 409.04C164.662 396.684 156.156 381.397 149.101 361.891L177.593 351.59C183.976 369.237 191.153 381.604 200.039 390.993C208.926 381.604 216.223 369.237 222.606 351.59L251.098 361.891C244.043 381.397 235.536 396.684 224.651 409.04C233.583 413.396 242.626 416.641 252.092 420.001C261.256 423.253 269.479 427.205 278.033 431.767C271.568 434.148 243.637 443.305 230.997 444.772C220.108 440.679 210.111 435.739 200.163 429.842Z" fill="white"/>
<path fill-rule="evenodd" clip-rule="evenodd" d="M161.069 361.588C176.685 404.763 204.073 421.571 227.805 431.334C234.184 433.959 240.288 436.079 245.828 438.041C241.08 439.159 236.267 440.106 231.395 440.877C229.279 440.081 227.118 439.239 224.925 438.337C199.914 428.048 170.512 409.958 153.949 364.163L161.069 361.588ZM131.398 431.133C142.678 425.117 156.307 421.578 166.634 417.33C170.451 415.759 174.339 414.009 178.229 411.972C180.051 413.894 181.938 415.743 183.892 417.522C179.055 420.184 174.221 422.396 169.515 424.332C161.965 427.438 151.231 430.282 141.495 434.545C138.089 433.496 134.723 432.358 131.398 431.133ZM202.745 393.711C211.28 384.711 218.973 372.77 224.88 356.437L232.006 359.012C225.756 376.291 217.564 389.027 208.483 398.669C206.494 397.113 204.584 395.466 202.745 393.711Z" fill="#00A650"/>
<path fill-rule="evenodd" clip-rule="evenodd" d="M168.195 359.012L175.32 356.437C189.041 394.372 212.391 408.618 233.567 417.33C243.893 421.578 257.523 425.117 268.802 431.133C265.478 432.358 262.111 433.496 258.706 434.545C248.969 430.282 238.236 427.438 230.686 424.332C208.232 415.095 182.863 399.567 168.195 359.012ZM154.373 438.041C159.912 436.079 166.016 433.959 172.395 431.334C178.14 428.971 184.099 426.195 190.054 422.732C192.191 424.41 194.402 426.022 196.693 427.575C189.461 432.042 182.2 435.488 175.276 438.337C173.082 439.239 170.921 440.081 168.805 440.877C163.933 440.106 159.12 439.159 154.373 438.041ZM214.713 403.095C224.145 392.879 232.651 379.503 239.131 361.588L246.252 364.163C239.638 382.447 230.979 396.315 221.369 407.033C219.062 405.78 216.845 404.473 214.713 403.095Z" fill="#CE1527"/>
<path d="M295.705 291.889L295.694 96.9141H104.506V291.889C104.506 321.161 128.246 344.892 157.52 344.892H185.903C191.675 344.892 196.811 347.612 200.1 351.836C203.39 347.612 208.526 344.892 214.297 344.892H242.692C271.965 344.892 295.705 321.162 295.705 291.889H295.705Z" fill="white"/>
<path d="M108.293 100.7V291.889C108.293 319.07 130.336 341.106 157.52 341.106H185.903C191.79 341.106 196.435 343.207 200.101 346.475C203.766 343.207 208.411 341.106 214.298 341.106H242.692C269.876 341.106 291.919 319.07 291.919 291.89L291.908 100.7H108.292H108.293Z" fill="#176FC1"/>
<path fill-rule="evenodd" clip-rule="evenodd" d="M199.769 100.531H108.11V291.398C108.11 318.532 130.116 340.532 157.254 340.532H185.59C191.467 340.532 196.104 342.629 199.763 345.891L199.769 100.531H199.769Z" fill="#CE1527"/>
<path fill-rule="evenodd" clip-rule="evenodd" d="M199.666 151.627L114.918 314.605L189.204 139.142C187.144 136.678 185.904 133.504 185.904 130.041C185.904 122.2 192.26 115.844 200.101 115.844C207.942 115.844 214.298 122.2 214.298 130.041C214.298 133.837 212.808 137.285 210.381 139.832L285.283 314.605L220.319 190.94C220.712 189.639 220.923 188.259 220.923 186.83C220.923 180.498 216.778 175.135 211.054 173.304L199.666 151.627ZM195.368 130.041C195.368 127.427 197.487 125.309 200.101 125.309C202.714 125.309 204.833 127.427 204.833 130.041C204.833 132.655 202.714 134.773 200.101 134.773C197.487 134.773 195.368 132.655 195.368 130.041Z" fill="#FDDD04"/>
</svg>
