<svg height="629.58685" width="500" xmlns="http://www.w3.org/2000/svg"><g transform="translate(6 -139.4131)"><path d="m1.0247937 146.4379v371.64515c0 134.69786 108.7837063 243.89215 242.9752363 243.89215s242.97525-109.19429 242.97525-243.89215v-371.64515z" fill="#fff" stroke="#000" stroke-width=".404959"/><path d="m420.70644 676.42183c-1.84544-2.23012-92.40021-116.77474-201.23282-254.54363-108.83261-137.76888-202.221704-255.96165-207.531318-262.6506l-9.6538436-12.16173h241.9768516 241.97684l-.2541 197.78807-.2541 197.78807-1.84881 11.23519c-6.26309 38.06071-19.67619 72.07071-40.16736 101.84753-5.48169 7.96575-17.54467 23.44696-18.94357 24.31152-.39183.24216-2.22233-1.38432-4.06777-3.61442z" fill="#da121a"/><g fill="#0c78ca"><path d="m29.436295 334.13076-28.0572306-35.50902-.057041-5.22338-.057041-5.22338 27.0384266-36.2461 27.038425-36.24611 4.063022 5.13762c30.574341 38.66073 55.989094 70.88442 56.013244 71.01993.025.14062-56.95788 76.73019-57.690264 77.54027-.17659.19533-7.146181-8.48844-28.291541-35.24983z"/><path d="m30.440866 487.64647-29.1684835-36.91649v-2.31073-2.31073l28.0759525-37.6401c15.441776-20.70205 28.102863-37.66738 28.135752-37.70074.03289-.0334 13.577168 17.04643 30.098402 37.95509 25.686211 32.50751 30.004481 38.07039 29.803061 38.39291-.41713.66794-57.046943 76.68067-57.41809 77.07082-.338424.35575-1.961754-1.65316-29.526594-36.54003z"/><path d="m176.0883 519.71934c-16.84475-21.21851-57.51214-72.82888-57.49545-72.9666.0277-.2289 57.70724-77.71882 57.85106-77.7204.21204-.002 60.06049 75.95166 60.00835 76.15692-.0469.18458-57.22131 77.04848-57.66656 77.52552-.0949.10171-1.30876-1.24624-2.6974-2.99544z"/><path d="m150.84657 640.03274c-16.48033-20.85504-29.9629-38.06227-29.96127-38.23829.002-.17603 12.99749-17.75915 28.87969-39.07359l28.87673-38.75355 22.10935 27.97868c36.13636 45.72944 37.88931 47.96206 37.86585 48.22775-.0171.19321-56.99537 76.89168-57.66616 77.62437-.0769.0841-13.62387-16.91033-30.10419-37.76537z"/><path d="m60.567115 677.57481c-21.000133-24.42193-36.706287-52.09094-46.828747-82.49663l-1.77423-5.32941.48222-.64478c.265221-.35462 10.977415-14.73878 23.804877-31.96478 12.827461-17.22601 23.398997-31.29201 23.492301-31.25778.09331.0343 13.660194 17.13704 30.148643 38.00621l29.979001 37.94396-3.37248 4.5154c-1.85487 2.48347-14.81454 19.87758-28.799267 38.65358-13.984731 18.776-25.493903 34.1545-25.575941 34.17446-.08204.0199-.782407-.70014-1.556377-1.60023z"/><path d="m231.49173 761.36631c-31.88318-1.68217-62.38508-9.39173-91.39865-23.10161l-2.53271-1.19679.52748-.6939c.29011-.38164 9.96261-13.3677 21.49444-28.85789 11.53183-15.4902 21.03627-28.24008 21.12097-28.33305.22939-.2518 60.23476 75.77351 60.09471 76.13848-.0638.16642-1.1303 1.648-2.36986 3.29241-2.11588 2.80694-2.29581 2.98791-2.9415 2.95834-.37826-.0173-2.17596-.11002-3.99488-.20599z"/><path d="m244.42594 758.45652c-1.39405-1.76549-2.52685-3.27125-2.51733-3.34616.0223-.17525 57.16102-76.92174 57.62041-77.39344.32044-.32905 2.10572 1.87278 24.39288 30.08427l24.04715 30.43929-1.75065.82148c-29.19223 13.69827-62.07033 21.51748-94.45713 22.4642l-4.80069.14033z"/><path d="m269.60425 638.07861-30.00013-37.96637 28.94412-38.85043c15.91927-21.36774 29.01583-38.82377 29.10348-38.79118.0876.0326 13.65465 17.13949 30.1489 38.01534l29.98955 37.95611-.59703.76939c-.32837.42316-13.34274 17.88382-28.92084 38.80145-15.5781 20.91764-28.40124 38.03206-28.49587 38.03206-.0946 0-13.67211-17.08486-30.17218-37.96637z"/><path d="m393.48469 709.48973c.29005-.38139 6.0289-8.08648 12.75301-17.12243 6.72411-9.03594 12.2923-16.50549 12.37375-16.59898.14325-.16441 4.57117 5.25532 4.81701 5.89598.21226.55315-9.9093 10.94875-16.34734 16.78993-4.73281 4.29403-13.59227 11.72894-13.97626 11.72894-.0811 0 .0898-.31205.37983-.69344z"/></g><path d="m424.0723 681.82998-423.0475063-535.39208" fill="none" stroke="#000" stroke-width="2.429752"/><path d="m391.03442 712.26643 27.70742-37.18247" fill="none" stroke="#000" stroke-width="2.429752"/><path d="m348.44023 738.3576-347.4154363-439.67513" fill="none" stroke="#000" stroke-width="2.429752"/><path d="m358.16536 598.42078-121.7581 163.43761" fill="none" stroke="#000" stroke-width="2.429752"/><path d="m-1 144.4131v2.0248 371.65089c0 135.78803 109.7101 245.91119 245.00004 245.91119 135.28992 0 244.99996-110.12317 244.99996-245.91119v-371.65089-2.0248h-2.02479-485.9504163zm4.0495874 4.04959h481.9008226v369.6261c0 133.60769-107.85727 241.8616-240.95037 241.8616-133.09312 0-240.9504526-108.2539-240.9504526-241.8616z"/><path d="m1.0247937 450.92695 245.7666263 311.03249" fill="none" stroke="#000" stroke-width="2.429752"/><path d="m297.58901 521.75777-160.47757 215.41109" fill="none" stroke="#000" stroke-width="2.429752"/><path d="m237.01257 445.09463-174.872605 234.73372" fill="none" stroke="#000" stroke-width="2.429752"/><path d="m176.83193 367.90036-165.184636 221.72943" fill="none" stroke="#000" stroke-width="2.429752"/><path d="m115.93968 291.86961-114.9148863 154.04332" fill="none" stroke="#000" stroke-width="2.429752"/><path d="m1.0247937 287.97243 54.3097813-72.80223" fill="none" stroke="#000" stroke-width="2.429752"/></g></svg>