<?xml version="1.0" encoding="UTF-8" standalone="no"?>
<svg
   xmlns:dc="http://purl.org/dc/elements/1.1/"
   xmlns:cc="http://creativecommons.org/ns#"
   xmlns:rdf="http://www.w3.org/1999/02/22-rdf-syntax-ns#"
   xmlns:svg="http://www.w3.org/2000/svg"
   xmlns="http://www.w3.org/2000/svg"
   xmlns:sodipodi="http://sodipodi.sourceforge.net/DTD/sodipodi-0.dtd"
   xmlns:inkscape="http://www.inkscape.org/namespaces/inkscape"
   width="690.81"
   viewBox="0 0 690.81112 868.98043"
   version="1.1"
   id="svg96"
   sodipodi:docname="Ultimo_(Italia)-Stemma.svg"
   inkscape:version="0.92.3 (2405546, 2018-03-11)">
  <title
     id="title4730">Stemma del Comune di Ultimo, Ulten wappen</title>
  <metadata
     id="metadata102">
    <rdf:RDF>
      <cc:Work
         rdf:about="">
        <dc:format>image/svg+xml</dc:format>
        <dc:type
           rdf:resource="http://purl.org/dc/dcmitype/StillImage" />
        <dc:title>Stemma del Comune di Ultimo, Ulten wappen</dc:title>
        <dc:date>10-JUN-2020</dc:date>
        <dc:creator>
          <cc:Agent>
            <dc:title>https://commons.wikimedia.org/wiki/User:GJo</dc:title>
          </cc:Agent>
        </dc:creator>
        <dc:rights>
          <cc:Agent>
            <dc:title>https://creativecommons.org/licenses/by-sa/4.0/deed.it</dc:title>
          </cc:Agent>
        </dc:rights>
        <dc:subject>
          <rdf:Bag>
            <rdf:li>Stemma. Ultimo</rdf:li>
            <rdf:li>Ulten</rdf:li>
            <rdf:li>Wappen</rdf:li>
          </rdf:Bag>
        </dc:subject>
      </cc:Work>
    </rdf:RDF>
  </metadata>
  <defs
     id="defs100" />
  <sodipodi:namedview
     pagecolor="#ffffff"
     bordercolor="#666666"
     borderopacity="1"
     objecttolerance="10"
     gridtolerance="10"
     guidetolerance="10"
     inkscape:pageopacity="0"
     inkscape:pageshadow="2"
     inkscape:window-width="1366"
     inkscape:window-height="705"
     id="namedview98"
     showgrid="false"
     showguides="false"
     inkscape:zoom="0.5431653"
     inkscape:cx="366.2753"
     inkscape:cy="302.25816"
     inkscape:window-x="-8"
     inkscape:window-y="-8"
     inkscape:window-maximized="1"
     inkscape:current-layer="g3571" />
  <g
     transform="translate(-735.71-25.04)"
     id="g94">
    <path
       d="m738.21 27.541v546.69c0 163.09 153.52 317.29 342.91 317.29 189.38 0 342.9-154.21 342.9-317.29v-546.69z"
       fill="#fff"
       id="path2" />
    <g
       stroke="#000"
       stroke-width="5"
       id="g92">
      <g
         stroke-linejoin="round"
         id="g12">
        <path
           d="m738.21 28.22v546.01c0 163.08 153.52 317.29 342.9 317.29v-863.3h-342.9z"
           fill="#f00"
           stroke-linecap="round"
           id="path4"
           style="fill:#ffffff" />
      </g>
      <path
         d="m1081.12 890.84v-862.62"
         fill="none"
         fill-rule="evenodd"
         id="path14" />
      <g
         stroke-linejoin="round"
         id="g32">
        <g
           id="g24"
           stroke-linecap="round">
          <g
             transform="matrix(1.3035603,0,0,1.2750431,-220.38661,50.187961)"
             id="g3571"
             style="stroke:#000000">
            <path
               inkscape:connector-curvature="0"
               d="m 947.37941,198.35593 -3.86883,-2.60036 c -1.83259,0.90013 -26.73058,-0.58023 -32.68131,-3.8005 -6.41408,-3.47103 4.05228,-24.51879 -2.35394,-31.46272 -7.17779,-7.78027 -25.84253,-1.6772 -29.88849,-3.02418 -6.00636,-1.99964 -10.76286,-11.43643 -11.61338,-17.53725 -0.8539,-6.12508 -1.72055,-15.99505 -1.51692,-16.49511 0.20361,-0.50007 0.763,-2.31757 2.71394,-2.89035 2.19477,-0.64437 11.59805,-3.43642 12.91253,-4.77345 1.05153,-1.06956 12.03414,-9.58473 13.71254,-15.33932 1.43755,-4.928779 1.49223,-8.391077 1.49223,-11.991559 0,-3.600484 -0.0175,-9.087007 -1.44282,-13.387584 -1.42536,-4.300577 -5.48033,-8.132462 -10.97812,-12.132998 -5.49778,-4.000539 -14.16919,-4.783488 -14.16919,-4.783488 l -46.54506,0.77584 c -0.0473,0.0092 -30.89717,-0.572149 -54.26524,-10.111406 15.73121,43.616411 51.67441,35.03703 57.33704,37.539353 -49.2301,15.027292 -72.16651,16.089692 -76.9691,14.801982 0.0751,1.31402 6.01228,8.01975 12.80307,13.10896 5.49339,4.1169 13.10555,6.91921 16.72211,7.49383 7.58423,1.20502 15.92925,0.74777 24.93521,0.18178 5.03874,-0.31667 20.97363,-5.15744 19.65799,-3.18219 -1.0323,1.54987 -8.1111,6.38533 -16.77327,13.54169 -7.61054,6.28754 -16.42907,15.05207 -25.12813,22.07996 -15.55816,12.56931 -31.69966,20.12737 -30.79162,20.98596 5.13538,4.85571 19.4198,8.30769 31.28033,4.87593 5.09149,-1.47319 8.26031,-3.24139 13.82337,-7.01816 4.29863,-2.91837 10.27889,-8.60029 13.82468,-11.74372 6.72913,-5.96557 13.05048,-10.90178 17.02259,-14.31783 -0.0127,2.68355 -2.11601,5.56069 -4.6833,10.20137 -32.17227,59.00793 -68.8242,118.81595 -68.8242,118.81595 30.8063,1.66853 48.21014,-29.10455 63.02606,-48.07358 18.85714,-24.14306 14.55031,-19.09038 18.62632,-24.53616 4.076,-5.44578 -0.97414,3.43701 -9.57023,24.00322 -10.4132,22.31704 -10.14598,39.41538 -13.89011,62.91361 -2.88676,17.53636 -7.17503,38.32983 -7.28657,35.89965 -0.40253,5.85432 -15.18612,43.63409 -27.48895,75.41013 14.53628,-1.15096 24.96893,-9.44595 32.78313,-17.2023 5.80318,-8.44396 10.62101,-17.02707 14.25353,-26.0035 6.61977,-15.14316 11.41349,-29.64037 16.2387,-43.48742 10.10885,-29.00965 17.16513,-54.61576 24.28206,-72.72819 l -0.2262,37.66346 c 0.85773,8.99793 -2.15356,50.19565 -4.01942,62.80481 -4.5368,30.65877 -5.63237,48.85909 -9.39706,65.55402 47.84284,-7.31202 60.15426,-101.19007 59.05035,-139.81877 3.93669,28.89133 7.87338,56.94958 11.81008,81.61096 9.56128,-5.24284 14.96195,-10.63653 17.30785,-21.20284 2.1041,-29.21778 4.61544,-54.34065 6.71953,-79.01061 l 19.75133,-37.60504 z"
               id="path4424"
               style="display:inline;overflow:visible;visibility:visible;fill:#e20909;fill-opacity:1;fill-rule:nonzero;stroke:#000000;stroke-width:3.01877427;marker:none" />
            <path
               inkscape:connector-curvature="0"
               d="m 947.37941,198.35593 -3.86883,-2.60036 c -1.83259,0.90013 -26.73058,-0.58023 -32.68131,-3.8005 -6.41408,-3.47103 4.05228,-24.51879 -2.35394,-31.46272 -7.17779,-7.78027 -25.84253,-1.6772 -29.88849,-3.02418 -6.00636,-1.99964 -10.76286,-11.43643 -11.61338,-17.53725 -0.8539,-6.12508 -1.72055,-15.99505 -1.51692,-16.49511 0.20361,-0.50007 0.763,-2.31757 2.71394,-2.89035 2.19477,-0.64437 11.59805,-3.43642 12.91253,-4.77345 1.05153,-1.06956 12.03414,-9.58473 13.71254,-15.33932 1.43755,-4.928779 1.49223,-8.391077 1.49223,-11.991559 0,-3.600484 -0.0175,-9.087007 -1.44282,-13.387584 -1.42536,-4.300577 -5.48033,-8.132462 -10.97812,-12.132998 -5.49778,-4.000539 -14.16919,-4.783488 -14.16919,-4.783488 l -46.54506,0.77584 c -0.0473,0.0092 -30.89717,-0.572149 -54.26524,-10.111406 15.73121,43.616411 51.67441,35.03703 57.33704,37.539353 -49.2301,15.027292 -72.16651,16.089692 -76.9691,14.801982 0.0751,1.31402 6.01228,8.01975 12.80307,13.10896 5.49339,4.1169 13.10555,6.91921 16.72211,7.49383 7.58423,1.20502 15.92925,0.74777 24.93521,0.18178 5.03874,-0.31667 20.97363,-5.15744 19.65799,-3.18219 -1.0323,1.54987 -8.1111,6.38533 -16.77327,13.54169 -7.61054,6.28754 -16.42907,15.05207 -25.12813,22.07996 -15.55816,12.56931 -31.69966,20.12737 -30.79162,20.98596 5.13538,4.85571 19.4198,8.30769 31.28033,4.87593 5.09149,-1.47319 8.26031,-3.24139 13.82337,-7.01816 4.29863,-2.91837 10.27889,-8.60029 13.82468,-11.74372 6.72913,-5.96557 13.05048,-10.90178 17.02259,-14.31783 -0.0127,2.68355 -2.11601,5.56069 -4.6833,10.20137 -32.17227,59.00793 -68.8242,118.81595 -68.8242,118.81595 30.8063,1.66853 48.21014,-29.10455 63.02606,-48.07358 18.85714,-24.14306 14.55031,-19.09038 18.62632,-24.53616 4.076,-5.44578 -0.97414,3.43701 -9.57023,24.00322 -10.4132,22.31704 -10.14598,39.41538 -13.89011,62.91361 -2.88676,17.53636 -7.17503,38.32983 -7.28657,35.89965 -0.40253,5.85432 -15.18612,43.63409 -27.48895,75.41013 14.53628,-1.15096 24.96893,-9.44595 32.78313,-17.2023 5.80318,-8.44396 10.62101,-17.02707 14.25353,-26.0035 6.61977,-15.14316 11.41349,-29.64037 16.2387,-43.48742 10.10885,-29.00965 17.16513,-54.61576 24.28206,-72.72819 l -0.2262,37.66346 c 0.85773,8.99793 -2.15356,50.19565 -4.01942,62.80481 -4.5368,30.65877 -5.63237,48.85909 -9.39706,65.55402 47.84284,-7.31202 60.15426,-101.19007 59.05035,-139.81877 3.93669,28.89133 7.87338,56.94958 11.81008,81.61096 9.56128,-5.24284 14.96195,-10.63653 17.30785,-21.20284 2.1041,-29.21778 4.61544,-54.34065 6.71953,-79.01061 l 19.75133,-37.60504 z"
               id="path12200"
               style="display:inline;overflow:visible;visibility:visible;fill:none;stroke:#000000;stroke-width:3.01877427;stroke-linecap:butt;stroke-linejoin:round;stroke-miterlimit:4;stroke-dasharray:none;stroke-dashoffset:0;stroke-opacity:1;marker:none" />
            <path
               inkscape:connector-curvature="0"
               d="m 831.13756,459.74848 c 0.0378,-0.2279 0.36192,-9.33857 0.35608,-9.25982 -0.006,0.0787 -12.06042,-0.31333 -14.13815,0.12289 -3.54934,0.74518 -5.57753,4.31895 -5.01326,10.5957 0.32461,2.08146 0.54025,4.26995 2.44347,4.80064 1.92783,-8.7164 4.26971,-6.76941 6.31509,-6.73874 2.47163,0.037 9.99891,0.70723 10.03677,0.47933 z"
               id="path4430"
               style="display:inline;overflow:visible;visibility:visible;fill:#fcef3c;fill-opacity:1;fill-rule:nonzero;stroke:#000000;stroke-width:3.01877427;stroke-linecap:round;stroke-linejoin:round;stroke-miterlimit:4;stroke-dasharray:none;stroke-dashoffset:0;stroke-opacity:1;marker:none" />
            <path
               inkscape:connector-curvature="0"
               d="m 857.09812,421.9058 -6.33523,6.22338 -6.47921,-4.2432 c -2.11955,-2.00663 -5.81223,-2.48822 -10.6547,-1.41441 4.95474,-9.44511 15.34334,-8.94562 17.85382,-5.51617 z"
               id="path4432"
               style="display:inline;overflow:visible;visibility:visible;fill:#fcef3c;fill-opacity:1;fill-rule:nonzero;stroke:#000000;stroke-width:3.01877427;stroke-linecap:round;stroke-linejoin:round;stroke-miterlimit:4;stroke-dasharray:none;stroke-dashoffset:0;stroke-opacity:1;marker:none" />
            <path
               inkscape:connector-curvature="0"
               d="m 855.37032,488.09989 c 5.24228,-1.24924 1.94316,-15.26945 -5.03938,-10.1837 -6.98252,5.08576 -14.64818,8.692 -6.33523,20.50884 0.42056,-8.53627 6.13236,-9.0759 11.37461,-10.32514 z"
               id="path4434"
               style="display:inline;overflow:visible;visibility:visible;fill:#fcef3c;fill-opacity:1;fill-rule:nonzero;stroke:#000000;stroke-width:3.01877427;stroke-linecap:round;stroke-linejoin:round;stroke-miterlimit:4;stroke-dasharray:none;stroke-dashoffset:0;stroke-opacity:1;marker:none" />
            <path
               inkscape:connector-curvature="0"
               d="m 918.72258,456.5587 c 12.25873,-6.91464 19.08144,-5.43779 20.58949,4.2432 -6.51495,-3.07972 -10.75465,-1.19257 -13.82231,3.25314"
               id="path4436"
               style="display:inline;overflow:visible;visibility:visible;fill:#fcef3c;fill-opacity:1;fill-rule:nonzero;stroke:#000000;stroke-width:3.01877427;stroke-linecap:round;stroke-linejoin:round;stroke-miterlimit:4;stroke-dasharray:none;stroke-dashoffset:0;stroke-opacity:1;marker:none" />
            <path
               inkscape:connector-curvature="0"
               d="m 952.12651,384.14124 -13.82231,-6.78914 -50.10589,67.60848 c -3.41383,-4.83766 -5.99627,-12.12553 -8.9269,-18.38724 l -24.02036,-8.32071 c -3.65284,2.46858 -7.24884,6.72233 -10.36674,11.88099 2.1849,2.29799 4.89051,3.0614 7.60638,3.79462 3.64754,-1.94929 7.29509,-2.69731 10.94265,-1.98017 4.4613,5.82157 5.86011,10.13893 8.35099,14.99267 -6.75962,-1.73544 -15.11203,-5.08691 -26.07106,-9.40369 -6.04202,3.49903 -12.5903,8.0361 -20.15754,9.03797 0.66973,1.31219 1.09195,2.59398 1.32923,3.85307 0.7878,4.18031 -0.46308,8.1103 -1.46298,12.0711 1.71823,3.58035 4.35242,2.34509 6.11714,2.99452 10.39115,-8.33347 11.01191,-9.97938 16.41399,-10.18371 10.85327,0.27676 14.47747,1.34259 20.95156,2.09734 -5.95775,6.3113 -12.85728,13.50311 -21.02143,15.84132 -1.15736,1.85263 -1.03429,4.12454 -0.57593,6.50625 6.9417,4.55732 3.76315,7.15148 3.62427,10.71516 0.79446,1.05125 3.07671,1.12818 5.47133,1.1315 5.65355,-8.61093 8.88171,-8.48577 13.0777,-11.84666 2.98716,-3.31157 3.89212,-7.3903 6.9261,-9.6278 10.30975,-7.60321 19.47029,-10.12782 27.74895,-9.04232 9.96955,3.94701 15.79203,5.95286 22.91791,6.22337 0.24235,-1.40974 1.64169,-0.9464 0.89884,-4.29175 -2.87965,-0.43842 -5.75931,-6.0606 -8.63896,-9.90082 -6.93617,-0.0518 -14.40445,0.94175 -18.75265,-4.19468 z"
               id="path4438"
               style="display:inline;overflow:visible;visibility:visible;fill:#fcef3c;fill-opacity:1;fill-rule:nonzero;stroke:#000000;stroke-width:3.01877427;stroke-linecap:round;stroke-linejoin:round;stroke-miterlimit:4;stroke-dasharray:none;stroke-dashoffset:0;stroke-opacity:1;marker:none" />
            <path
               inkscape:connector-curvature="0"
               d="m 776.17999,111.16134 c 17.14803,1.61132 35.46382,-1.93957 54.1374,-7.07202"
               id="path4450"
               style="display:inline;overflow:visible;visibility:visible;fill:none;stroke:#000000;stroke-width:3.01877427;stroke-linecap:round;stroke-linejoin:round;stroke-miterlimit:4;stroke-dasharray:none;stroke-dashoffset:0;stroke-opacity:1;marker:none" />
            <path
               inkscape:connector-curvature="0"
               d="m 825.70995,131.52879 c -36.63003,36.30051 -43.02464,38.75503 -47.22623,38.75465"
               id="path4452"
               style="display:inline;overflow:visible;visibility:visible;fill:none;stroke:#000000;stroke-width:3.01877427;stroke-linecap:round;stroke-linejoin:round;stroke-miterlimit:4;stroke-dasharray:none;stroke-dashoffset:0;stroke-opacity:1;marker:none" />
            <path
               inkscape:connector-curvature="0"
               d="m 776.75592,257.41069 c 13.83408,-20.2392 21.30461,-27.57268 57.59297,-93.35062"
               id="path4454"
               style="display:inline;overflow:visible;visibility:visible;fill:none;stroke:#000000;stroke-width:3.01877427;stroke-linecap:round;stroke-linejoin:round;stroke-miterlimit:4;stroke-dasharray:none;stroke-dashoffset:0;stroke-opacity:1;marker:none" />
            <path
               inkscape:connector-curvature="0"
               d="m 807.56817,357.55046 c 14.64107,-36.10812 28.08337,-93.79888 42.04286,-142.62845"
               id="path4456"
               style="display:inline;overflow:visible;visibility:visible;fill:none;stroke:#000000;stroke-width:3.01877427;stroke-linecap:round;stroke-linejoin:round;stroke-miterlimit:4;stroke-dasharray:none;stroke-dashoffset:0;stroke-opacity:1;marker:none" />
            <path
               inkscape:connector-curvature="0"
               d="m 873.22415,365.47111 c 3.77059,-16.59254 9.14034,-71.6463 14.39824,-126.95684"
               id="path4458"
               style="display:inline;overflow:visible;visibility:visible;fill:none;stroke:#000000;stroke-width:3.01877427;stroke-linecap:round;stroke-linejoin:round;stroke-miterlimit:4;stroke-dasharray:none;stroke-dashoffset:0;stroke-opacity:1;marker:none" />
            <path
               inkscape:connector-curvature="0"
               d="m 924.76985,322.75612 v -67.3256"
               id="path4460"
               style="display:inline;overflow:visible;visibility:visible;fill:none;stroke:#000000;stroke-width:3.01877427;stroke-linecap:round;stroke-linejoin:round;stroke-miterlimit:4;stroke-dasharray:none;stroke-dashoffset:0;stroke-opacity:1;marker:none" />
            <path
               inkscape:connector-curvature="0"
               d="m 946.94314,208.47234 c 0.87067,5.56673 1.02148,4.7703 1.7278,9.90082 -56.98315,-4.5042 -99.1999,-27.55366 -95.8923,-107.77758 -5.82407,2.86179 -11.7407,5.90541 -10.07877,-5.94049 -7.44206,-8.629625 -1.97663,-9.651471 5.75931,-9.335069 -4.24694,-5.053141 0.28223,-16.954975 8.06301,-6.506256 9.27123,-5.807101 17.5802,0.33474 8.35097,8.486417 9.19971,0.06061 14.35796,2.326942 9.79081,9.900818 l -4.31946,0.28289 c 2.54318,7.84465 -1.28344,8.18047 -6.33524,7.07202 l -2.87964,-2.54593 c -5.04848,66.03945 29.55289,92.15529 85.81351,96.46236 z"
               id="path4462"
               style="display:inline;overflow:visible;visibility:visible;fill:#fcef3c;fill-opacity:1;fill-rule:nonzero;stroke:#000000;stroke-width:3.01877427;stroke-linecap:round;stroke-linejoin:round;stroke-miterlimit:4;stroke-dasharray:none;stroke-dashoffset:0;stroke-opacity:1;marker:none" />
            <path
               inkscape:connector-curvature="0"
               d="m 843.2758,141.71249 h -4.03151"
               id="path4464"
               style="display:inline;overflow:visible;visibility:visible;fill:#f9f9f9;fill-opacity:1;fill-rule:nonzero;stroke:#000000;stroke-width:3.01877427;stroke-linecap:round;stroke-linejoin:round;stroke-miterlimit:4;stroke-dasharray:none;stroke-dashoffset:0;stroke-opacity:1;marker:none" />
            <path
               inkscape:connector-curvature="0"
               d="m 845.57952,156.1394 -8.06302,2.26305"
               id="path4466"
               style="display:inline;overflow:visible;visibility:visible;fill:#f9f9f9;fill-opacity:1;fill-rule:nonzero;stroke:#000000;stroke-width:3.01877427;stroke-linecap:round;stroke-linejoin:round;stroke-miterlimit:4;stroke-dasharray:none;stroke-dashoffset:0;stroke-opacity:1;marker:none" />
            <path
               inkscape:connector-curvature="0"
               d="m 851.62679,172.2636 -9.21488,2.26306"
               id="path4468"
               style="display:inline;overflow:visible;visibility:visible;fill:#f9f9f9;fill-opacity:1;fill-rule:nonzero;stroke:#000000;stroke-width:3.01877427;stroke-linecap:round;stroke-linejoin:round;stroke-miterlimit:4;stroke-dasharray:none;stroke-dashoffset:0;stroke-opacity:1;marker:none" />
            <path
               inkscape:connector-curvature="0"
               d="m 857.67405,186.97341 -7.77506,4.80896"
               id="path4470"
               style="display:inline;overflow:visible;visibility:visible;fill:#f9f9f9;fill-opacity:1;fill-rule:nonzero;stroke:#000000;stroke-width:3.01877427;stroke-linecap:round;stroke-linejoin:round;stroke-miterlimit:4;stroke-dasharray:none;stroke-dashoffset:0;stroke-opacity:1;marker:none" />
            <path
               inkscape:connector-curvature="0"
               d="m 866.02502,199.9859 -8.9269,9.61796"
               id="path4472"
               style="display:inline;overflow:visible;visibility:visible;fill:#f9f9f9;fill-opacity:1;fill-rule:nonzero;stroke:#000000;stroke-width:3.01877427;stroke-linecap:round;stroke-linejoin:round;stroke-miterlimit:4;stroke-dasharray:none;stroke-dashoffset:0;stroke-opacity:1;marker:none" />
            <path
               inkscape:connector-curvature="0"
               d="m 880.42327,212.71554 -6.91115,12.16387"
               id="path4474"
               style="display:inline;overflow:visible;visibility:visible;fill:#f9f9f9;fill-opacity:1;fill-rule:nonzero;stroke:#000000;stroke-width:3.01877427;stroke-linecap:round;stroke-linejoin:round;stroke-miterlimit:4;stroke-dasharray:none;stroke-dashoffset:0;stroke-opacity:1;marker:none" />
            <path
               inkscape:connector-curvature="0"
               d="m 901.15674,221.76772 -5.47133,16.12421"
               id="path4476"
               style="display:inline;overflow:visible;visibility:visible;fill:#f9f9f9;fill-opacity:1;fill-rule:nonzero;stroke:#000000;stroke-width:3.01877427;stroke-linecap:round;stroke-linejoin:round;stroke-miterlimit:4;stroke-dasharray:none;stroke-dashoffset:0;stroke-opacity:1;marker:none" />
            <path
               inkscape:connector-curvature="0"
               d="m 923.618,230.25415 -2.87966,13.01251"
               id="path4478"
               style="display:inline;overflow:visible;visibility:visible;fill:#f9f9f9;fill-opacity:1;fill-rule:nonzero;stroke:#000000;stroke-width:3.01877427;stroke-linecap:round;stroke-linejoin:round;stroke-miterlimit:4;stroke-dasharray:none;stroke-dashoffset:0;stroke-opacity:1;marker:none" />
            <path
               inkscape:connector-curvature="0"
               d="m 845.57952,75.235491 c -18.6296,-2.613424 -41.35771,-3.549279 -51.54571,-9.617942"
               id="path4480"
               style="display:inline;overflow:visible;visibility:visible;fill:none;stroke:#000000;stroke-width:3.01877427;stroke-linecap:round;stroke-linejoin:round;stroke-miterlimit:4;stroke-dasharray:none;stroke-dashoffset:0;stroke-opacity:1;marker:none" />
            <g
               transform="matrix(0.40315077,0,0,0.39603296,853.61383,108.24568)"
               id="g4496"
               style="fill:#f9f9f9;fill-opacity:1;stroke:#000000;stroke-width:7.55494356;stroke-linecap:round;stroke-linejoin:round;stroke-miterlimit:4;stroke-dasharray:none;stroke-opacity:1">
              <path
                 inkscape:connector-curvature="0"
                 d="m -22.857143,62.362179 c -25.874681,12.232969 -60.038435,24.089163 -5,40.000001 -36.039745,19.48492 -39.687331,35.73063 19.2857144,45.71428 -9.6999164,-1.95101 -103.2390714,42.77802 12.8571429,33.57143 -71.1330033,62.82509 -19.9811343,56.45608 12.1428567,40 -62.087774,45.6301 -11.0232218,69.86341 30.714286,35.71429 -54.7909069,85.44652 26.069422,77.7261 40,27.85714 -18.899068,54.36909 32.280733,108.49589 55.714283,14.28572 -4.87492,103.72792 52.8735,73.58653 62.85715,13.57143"
                 transform="translate(-1.3573)"
                 id="path4498"
                 style="display:inline;overflow:visible;visibility:visible;fill:none;stroke:#000000;stroke-width:7.55494356;stroke-linecap:round;stroke-linejoin:round;stroke-miterlimit:4;stroke-dasharray:none;stroke-dashoffset:0;stroke-opacity:1;marker:none" />
            </g>
            <path
               inkscape:connector-curvature="0"
               d="m 962.77062,92.757757 c 3.82989,1.231218 5.77513,-12.263047 -4.27606,-9.601289 -28.91906,9.380588 -47.91416,14.118208 -50.49823,-3.80051 -1.38068,-4.8995 -10.32696,-7.713433 -7.94126,2.000268 13.03567,30.246694 36.09,5.016163 62.71555,11.401531 z"
               id="path4520"
               style="display:inline;overflow:visible;visibility:visible;fill:#fcef3c;fill-opacity:1;fill-rule:nonzero;stroke:#000000;stroke-width:3.01877427;stroke-linecap:butt;stroke-linejoin:round;stroke-miterlimit:4;stroke-dasharray:none;stroke-dashoffset:0;stroke-opacity:1;marker:none" />
            <path
               inkscape:connector-curvature="0"
               d="m 983.8836,71.554911 -15.67888,43.205809 c -24.30233,-11.18582 -39.29354,-14.08244 -46.22217,-9.80133 4.31871,-5.471961 9.87807,-15.841209 39.90989,-3.80051 -4.5518,-13.246524 -39.00521,-27.354907 -45.40768,-12.801714 -8.89808,-20.606821 0.41382,-29.999971 27.89619,-28.203786 z"
               id="path4522"
               style="display:inline;overflow:visible;visibility:visible;fill:#fcef3c;fill-opacity:1;fill-rule:nonzero;stroke:#000000;stroke-width:3.01877427;stroke-linecap:round;stroke-linejoin:round;stroke-miterlimit:4;stroke-dasharray:none;stroke-dashoffset:0;stroke-opacity:1;marker:none" />
            <path
               inkscape:connector-curvature="0"
               d="m 980.71933,69.648594 9.24988,0.671842 0.037,8.380344 h -9.28688 z"
               id="path4524"
               style="fill:#f9f9f9;fill-opacity:1;fill-rule:nonzero;stroke:#000000;stroke-width:3.01877427;stroke-linejoin:round;stroke-miterlimit:4;stroke-dasharray:none;stroke-opacity:1" />
            <path
               inkscape:connector-curvature="0"
               d="m 956.73133,186.28962 c -6.04464,3.51258 -4.65306,1.73199 -6.04464,3.51258 -16.27791,5.12119 -5.76127,63.25479 5.7593,143.42051 -2.20773,9.09126 -4.41546,13.70737 -6.62319,18.38725 -3.77832,4.88104 -11.33208,14.62958 -22.46127,23.19622 l 4.31949,2.26304 -6.04727,6.22338 c 9.76644,6.50458 24.97264,2.85609 27.93258,22.06469 0.49938,-15.73605 3.50422,-6.65517 6.91117,-3.11169 0.54927,-22.77187 10.23236,-30.97729 18.14177,-40.73481 0.61702,11.60209 6.53483,32.72813 -10.94265,51.76716 -13.66502,6.43491 -27.64556,4.50141 -40.60305,29.70246 8.92909,-2.26243 7.70736,-7.31692 33.97985,-4.80896 l 16.70197,-9.61794 c -3.44649,11.94145 3.98788,22.63854 -39.73915,42.4321 -30.91535,6.94163 -52.58889,19.93569 -62.77634,40.45195 16.88147,-8.23953 34.72974,-13.50339 57.59297,-17.82149 24.16718,-13.17138 29.52128,-21.53736 41.75489,-33.66281 -3.47607,9.20031 -5.36952,17.15687 -12.38248,29.13672 -14.71112,14.45182 -34.97127,21.70043 -29.37241,62.51661 18.52617,-29.18589 32.34383,-24.96584 52.12164,-93.91638 3.45799,15.08103 7.12451,29.64997 4.60743,59.40496 -4.51082,14.1815 -3.93686,26.36499 -19.00568,44.69514 l 13.82231,-3.39457 12.82881,38.01917 12.82902,-38.01917 13.8223,3.39457 c -15.0689,-18.33015 -14.4949,-30.51364 -19.0058,-44.69514 -2.5172,-29.75499 1.1494,-44.32393 4.6075,-59.40496 19.7779,68.95054 33.5956,64.73049 52.1217,93.91638 5.5989,-40.81618 -14.6613,-48.06479 -29.3725,-62.51661 -7.0129,-11.97985 -8.9063,-19.93641 -12.3824,-29.13672 12.2337,12.12545 17.5877,20.49143 41.7549,33.66281 22.8632,4.3181 40.7115,9.58196 57.593,17.82149 -10.1875,-20.51626 -31.861,-33.51032 -62.7764,-40.45195 -43.7271,-19.79356 -36.2927,-30.49065 -39.7391,-42.4321 l 16.702,9.61794 c 26.2725,-2.50796 25.0507,2.54653 33.9798,4.80896 -12.9574,-25.20105 -26.938,-23.26755 -40.6031,-29.70246 -17.4775,-19.03903 -11.5596,-40.16507 -10.9425,-51.76716 7.9093,9.75752 17.5924,17.96294 18.1418,40.73481 3.4068,-3.54348 6.4117,-12.62436 6.911,3.11169 2.96,-19.2086 18.1662,-15.56011 27.9326,-22.06469 l -6.0473,-6.22338 4.3195,-2.26304 c -11.1292,-8.56664 -18.6829,-18.31518 -22.4613,-23.19622 -2.2076,-4.67988 -4.4154,-9.29599 -6.623,-18.38725 11.5205,-80.16572 22.0371,-138.29932 5.7592,-143.42051 -3.5649,-1.87415 10.9808,1.30838 2.5218,-2.51456 9.0719,1.17625 10.3106,1.88387 4.4448,-2.51749 -17.3914,-16.79284 -16.8429,-7.44487 -11.8918,-6.81096 -12.534,-21.46564 -26.348,-33.51984 -23.7956,-41.79557 l 3.8687,10.4014 -2.8462,-20.05123 16.0817,7.64956 c -1.7439,-8.89609 -10.7412,-18.11515 -15.0883,-22.62733 7.2504,1.61754 12.3971,1.51671 13.2858,1.09004 1.8871,-0.90608 -7.6335,-4.84297 -7.9917,-11.29141 6.184,0.68584 9.1577,-0.32322 13.8688,-5.468701 1.4389,-1.57161 -6.7201,1.682283 -6.3696,0.658004 -17.9917,-16.438456 -1.391,-8.580883 -0.7157,-11.850124 -25.4971,-13.693737 -5.7447,-9.23173 -7.0075,-13.201772 -18.9493,-8.229909 -11.8701,-3.880905 -4.1321,-14.343347 -4.3415,1.214747 -10.5344,2.913971 -18.54426,1.624483 0.061,-1.578191 -14.25404,-5.412491 -36.59579,-5.852967 -7.80433,-0.153867 -12.97747,0.442408 -13.49516,8.053263 28.67886,33.070803 28.43907,46.029701 13.84629,49.006571 3.46119,6.78766 5.90878,10.75175 4.86682,12.87893 -1.7539,3.58061 -3.693,6.69914 -24.15994,18.06668 9.63577,3.28721 30.62065,-7.32661 0.0885,12.34309 -19.95683,9.26771 -4.40573,5.6076 2.21513,5.31787 -4.89809,7.14541 9.77755,14.23046 0.70207,21.00282 l 4.51537,4.70448 z"
               id="path4526"
               style="display:inline;overflow:visible;visibility:visible;fill:#e20909;fill-opacity:1;fill-rule:nonzero;stroke:#000000;stroke-width:3.01877427;marker:none"
               sodipodi:nodetypes="ccccccccccccccccccccccccccccccccccccccccccccccccccccccccscccccccsccscccccc" />
            <path
               inkscape:connector-curvature="0"
               d="m 977.59206,60.077765 c -0.46557,0.137558 -1.07281,-0.507295 -1.33977,-1.46881 -0.19917,2.044203 -0.30879,4.211537 -0.0325,6.909685 0.5189,1.477186 1.19531,2.567525 1.90422,3.578115 -0.24306,1.410895 -0.80592,3.466278 -0.81455,4.582808 -0.022,2.844443 1.1816,4.060642 2.91489,5.989858 2.46633,2.745124 5.59739,2.41953 10.99187,1.630851 0.31473,-0.04602 0.95842,1.243162 1.12785,1.296964 0.40333,0.128082 1.27229,0.95067 1.45492,0.0669 0.069,-0.334022 -0.0218,-1.001362 0.23459,-1.44678 0.51165,-0.888701 0.5676,-2.79591 0.57462,-2.932289 0.0882,-1.829558 0.40339,-0.638426 -0.34051,-1.829298 -0.83842,-1.342163 -2.81784,-5.012481 -4.10316,-6.192137 -2.06446,-1.894745 -7.82514,-4.745904 -11.07856,-5.060621 -0.39751,-0.03845 -0.353,-0.938467 -0.69347,-1.078603 -1.16204,-0.478293 -0.6015,-2.994112 -0.80049,-4.046649 z m 4.24314,9.819896 c 2.24682,0.652811 3.75417,1.175565 5.08402,2.036354 0.33661,0.217877 0.72923,0.358127 1.04063,0.643941 0.0971,0.08904 -0.0516,0.27062 -0.15705,0.331442 -0.24767,0.142971 -0.74849,0.562903 -1.8558,0.161055 -0.43525,-0.157955 0.35824,-1.274888 0.25845,-1.495593 -0.37812,-0.836232 -2.20841,-1.945524 -2.74053,-1.028223 -2.33565,4.026329 0.17567,5.985209 2.4918,5.718003 0.83411,-0.09623 2.80381,-1.094372 3.39889,-0.771936 1.04389,0.565613 0.37682,1.787776 0.42922,1.784606 -3.73423,1.182245 -4.63458,1.691062 -6.72758,0.05835 -1.44343,-1.125998 -2.97551,-1.555579 -1.22205,-7.437994 z"
               id="path4529"
               style="display:inline;overflow:visible;visibility:visible;fill:#f9f9f9;fill-opacity:1;fill-rule:nonzero;stroke:#000000;stroke-width:3.01877427;stroke-linecap:butt;stroke-linejoin:round;stroke-miterlimit:4;stroke-dasharray:none;stroke-dashoffset:0;stroke-opacity:1;marker:none" />
            <rect
               style="fill:#ffffff;stroke:#000000;stroke-width:3.80074549;stroke-miterlimit:4;stroke-dasharray:none;stroke-opacity:1"
               id="rect3923"
               width="261.62198"
               height="227.45113"
               x="998.4245"
               y="208.00241" />
          </g>
          <path
             d="M 1081.12,27.149889 V 315.4 h 341.05 c 1.228,-10.331 1.861,-20.736 1.861,-31.18 V 27.139889 h -342.91 z"
             id="path16"
             style="fill:#000000"
             inkscape:connector-curvature="0" />
          <path
             d="m1081.12 605.41v286.11c0 0 0 0 0 0 177.26 0 323.09-135.09 341.04-286.11h-341.05z"
             id="path18"
             style="fill:#000000"
             fill="#fcdb0a" />
          <path
             d="m738.21 27.541v546.69c0 163.09 153.52 317.29 342.91 317.29 189.38 0 342.9-154.21 342.9-317.29v-546.69z"
             id="path22"
             fill="none" />
        </g>
      </g>
    </g>
  </g>
</svg>
