<svg id="a2b88186-f0b2-4166-a4f7-2e1cca8eefb1" data-name="Ebene 1" xmlns="http://www.w3.org/2000/svg" viewBox="0 0 200.11 250.28"><defs><style>.b4803be6-fde6-4850-92ed-66e2306e6aca{fill:#fff;}.ae1ef872-0f31-4854-b4b9-569cabd28c45{fill:none;stroke:#000;stroke-miterlimit:10;}.e8bdda9d-7b7d-43ae-a90c-f738532e1ea6{fill:#e70c06;}.a3237e0d-3333-43a5-bf71-fed5bb8df850{fill:red;}</style></defs><title>Velturno-Stemma</title><path id="a901987e-d2bf-4ad1-a3b0-1350625b40b0" data-name="Rahmen" d="M50-85H250V78.17c0,43.05-41.93,87.1-99.72,87.1C91.88,165.27,50,127,50,74.21h0" transform="translate(-50 85.01)"/><path id="f3d68942-c614-4130-a1bb-e6ccc5da5a6f" data-name="Hintergrund" class="b4803be6-fde6-4850-92ed-66e2306e6aca" d="M51-84l198,0,0,159.52c0,44.83-41.16,88.17-99,88.17-52.88,0-99-34.59-99-92.61" transform="translate(-50 85.01)"/><path class="ae1ef872-0f31-4854-b4b9-569cabd28c45" d="M84.09-51v19.9h8L92,31.58l-41.5-.07v-116l199,0,.09,116-40.62,0V-30.81l6.95,0L216-50.91,203-51v6l-6.09,0,.09-6-14,0,0,6-6.08,0,0-6-13.92,0,.09,20.11,8.72-.07L172,31.58l-43-.14.14-62.4,7.85,0L137-51l-13,0,.07,5.92-7.12,0,.06-5.83-13,0v5.79l-7,.07.06-6Z" transform="translate(-50 85.01)"/><rect class="e8bdda9d-7b7d-43ae-a90c-f738532e1ea6" x="34.64" y="116.97" width="32.29" height="33.29"/><rect class="e8bdda9d-7b7d-43ae-a90c-f738532e1ea6" x="100.47" y="116.97" width="32.58" height="33.29"/><rect class="e8bdda9d-7b7d-43ae-a90c-f738532e1ea6" x="122.31" y="40.46" width="36.22" height="76.46"/><rect class="e8bdda9d-7b7d-43ae-a90c-f738532e1ea6" x="113.57" y="34.51" width="12.87" height="19.25"/><rect class="e8bdda9d-7b7d-43ae-a90c-f738532e1ea6" x="153.47" y="34.4" width="12.12" height="19.42"/><rect class="e8bdda9d-7b7d-43ae-a90c-f738532e1ea6" x="133.47" y="34.4" width="13.03" height="19.58"/><rect class="e8bdda9d-7b7d-43ae-a90c-f738532e1ea6" x="166.93" y="116.92" width="32.08" height="33.21"/><rect class="e8bdda9d-7b7d-43ae-a90c-f738532e1ea6" x="133.05" y="150.13" width="33.88" height="33.05"/><rect class="e8bdda9d-7b7d-43ae-a90c-f738532e1ea6" x="66.92" y="150.13" width="33.55" height="32.91"/><rect class="a3237e0d-3333-43a5-bf71-fed5bb8df850" x="34.56" y="182.91" width="32.36" height="32.91"/><path class="e8bdda9d-7b7d-43ae-a90c-f738532e1ea6" d="M54.67,98.11,84.56,98V65.12H51A140.63,140.63,0,0,0,51.38,80C52.81,94,54.67,98.11,54.67,98.11Z" transform="translate(-50 85.01)"/><rect class="e8bdda9d-7b7d-43ae-a90c-f738532e1ea6" x="42.49" y="40.34" width="36.25" height="76.63"/><rect class="e8bdda9d-7b7d-43ae-a90c-f738532e1ea6" x="34.61" y="34.41" width="12.01" height="19.07"/><rect class="e8bdda9d-7b7d-43ae-a90c-f738532e1ea6" x="74.47" y="34.44" width="12.01" height="19.19"/><rect class="e8bdda9d-7b7d-43ae-a90c-f738532e1ea6" x="54.54" y="34.56" width="12.01" height="19.19"/><rect class="b4803be6-fde6-4850-92ed-66e2306e6aca" x="67.41" y="183.18" width="32.58" height="32.78"/><rect class="e8bdda9d-7b7d-43ae-a90c-f738532e1ea6" x="100.47" y="183.04" width="32.58" height="32.78"/><rect class="e8bdda9d-7b7d-43ae-a90c-f738532e1ea6" x="34.64" y="182.77" width="32.29" height="33.05"/><path class="e8bdda9d-7b7d-43ae-a90c-f738532e1ea6" d="M116.92,158.94A105.51,105.51,0,0,0,133,162.49a91.69,91.69,0,0,0,17.43,1.23V130.81H116.92Z" transform="translate(-50 85.01)"/><path class="e8bdda9d-7b7d-43ae-a90c-f738532e1ea6" d="M183.05,158.68a101,101,0,0,0,33.88-18.43v-9.44H183.05Z" transform="translate(-50 85.01)"/><path class="e8bdda9d-7b7d-43ae-a90c-f738532e1ea6" d="M216.93,130.81h9.82A88,88,0,0,0,245.59,98H216.93Z" transform="translate(-50 85.01)"/><path class="e8bdda9d-7b7d-43ae-a90c-f738532e1ea6" d="M84.56,142.39V130.81H72.33c1.68,1.92,3.6,3.95,5.78,6S82.52,140.79,84.56,142.39Z" transform="translate(-50 85.01)"/><polygon points="159.25 116.94 41.48 116.94 41.49 116.15 159.25 116.15 159.25 116.94"/></svg>