<?xml version="1.0" encoding="UTF-8" standalone="no"?>
<svg
   xmlns:dc="http://purl.org/dc/elements/1.1/"
   xmlns:cc="http://creativecommons.org/ns#"
   xmlns:rdf="http://www.w3.org/1999/02/22-rdf-syntax-ns#"
   xmlns:svg="http://www.w3.org/2000/svg"
   xmlns="http://www.w3.org/2000/svg"
   xmlns:sodipodi="http://sodipodi.sourceforge.net/DTD/sodipodi-0.dtd"
   xmlns:inkscape="http://www.inkscape.org/namespaces/inkscape"
   height="597.68835"
   width="500"
   version="1.1"
   id="svg28"
   sodipodi:docname="Vervio-Stemma.svg"
   inkscape:version="1.0.2-2 (e86c870879, 2021-01-15)">
  <metadata
     id="metadata34">
    <rdf:RDF>
      <cc:Work
         rdf:about="">
        <dc:format>image/svg+xml</dc:format>
        <dc:type
           rdf:resource="http://purl.org/dc/dcmitype/StillImage" />
        <dc:title></dc:title>
      </cc:Work>
    </rdf:RDF>
  </metadata>
  <defs
     id="defs32">
    <clipPath
       id="clippath">
      <path
         d="M360,4140 A3240,3240 0.0 0 0 6840,4140 L6840,270 L360,270 L360,4140 Z"
         id="path12-4" />
    </clipPath>
  </defs>
  <sodipodi:namedview
     pagecolor="#ffffff"
     bordercolor="#666666"
     borderopacity="1"
     objecttolerance="10"
     gridtolerance="10"
     guidetolerance="10"
     inkscape:pageopacity="0"
     inkscape:pageshadow="2"
     inkscape:window-width="1920"
     inkscape:window-height="986"
     id="namedview30"
     showgrid="false"
     inkscape:zoom="0.92848639"
     inkscape:cx="530.23935"
     inkscape:cy="42.651034"
     inkscape:window-x="-11"
     inkscape:window-y="-11"
     inkscape:window-maximized="1"
     inkscape:current-layer="g24" />
  <path
     d="m-32.002488 204.36808v336.97804c0 133.15718 107.539428 241.10249 240.196068 241.10249s240.19609-107.94531 240.19609-241.10249v-336.97804z"
     fill="#fcdb00"
     stroke-width=".800654"
     transform="translate(41.806409 -194.56417)"
     id="path2" />
  <g
     transform="matrix(.76152947 0 0 .76152947 828.039689 72.70958)"
     id="g24"
     style="fill:#ff0000;stroke:#000000;stroke-opacity:1">
    <path
       style="fill:none;stroke:#000000;stroke-width:1.43636px;stroke-linecap:butt;stroke-linejoin:miter;stroke-opacity:1"
       d="M -760.05105,-80.673069 V 674.08145"
       id="path863" />
    <path
       style="fill:#000000;stroke:none;stroke-width:4.99727;stroke-opacity:1"
       d="M -796.15726,671.76643 C -943.99581,653.31271 -1057.7876,537.8182 -1073.6431,390.12856 c -1.1779,-10.97224 -2.0266,-112.09839 -2.0476,-243.98656 l -0.036,-225.247402 h 157.8379 157.83795 V 297.48803 674.08145 l -10.83202,-0.25613 c -5.95762,-0.14092 -17.33123,-1.06736 -25.2747,-2.05889 z"
       id="path867" />
    <g
       fill-rule="evenodd"
       id="g14"
       style="fill:#ff0000;stroke:#000000;stroke-opacity:1"
       transform="matrix(0.5480325,0,0,0.5480325,-344.42571,-23.754974)">
      <path
         d="m -728.03873,4.6917377 c 78.07942,38.3997203 119.35912,96.7192823 128.07905,179.1186723 14.3999,-4.23997 33.11976,-24.55982 16.55988,-57.91957 9.19993,-22.63983 4.63997,-42.399682 -19.43986,-58.319572 1.83999,-21.11984 -6.31995,-34.23974 -33.27975,-42.23968 -27.4398,-12.23991 -60.95955,-14.3199 -91.91932,-20.6398503 z"
         stroke="#fcdb00"
         stroke-width="4.15997"
         id="path4"
         style="fill:#ff0000;stroke:#000000;stroke-opacity:1" />
      <path
         d="m -936.27719,299.08956 c -19.67985,-2.47998 -34.63974,-2.23998 -58.31956,-15.91988 -31.27975,-18.07987 -53.35965,-1.67999 -46.63965,22.23983 46.71965,110.63918 0.16,149.99889 39.7597,140.07896 l 17.43987,-17.19987 -17.43987,17.19987 14.95989,50.79963 16.71988,-19.75986 -21.11985,-39.9197 21.11985,39.9197 5.19996,10.07993 c 29.35978,-54.3996 25.9198,-48.87964 -13.5199,-77.11943 l 12.5599,-4.15997 c -17.99986,-18.63986 -29.91977,-45.35966 -30.55977,-75.59944 22.39984,7.27995 51.99961,46.07966 96.95928,47.75965 z"
         stroke="#fcdb00"
         stroke-width="4.15997"
         id="path6"
         style="fill:#ff0000;stroke:#000000;stroke-opacity:1" />
      <path
         d="m -762.35847,224.45011 c -9.91993,-7.59994 -20.23985,-13.4399 -31.43977,-17.03987 22.47983,-33.03976 43.27968,-105.59922 14.87989,-155.358852 -19.83985,7.75994 -42.39969,10.23992 -62.15954,0.71999 19.75985,9.51993 42.31969,7.03995 62.15954,-0.71999 9.59993,-5.83996 16.07988,-11.59992 23.11983,-22.71983 -10.63992,-10.55993 -30.23978,-12.79991 -41.99969,-17.35987 l -30.31978,0.95999 30.31978,-0.95999 -33.35975,-27.9998 33.35975,27.9998 c 115.99914,-3.1999803 272.63798,6.07995 269.358,182.478642 12.31991,-14.31989 31.03977,-21.83983 19.43986,-61.35954 11.75991,-19.91985 14.31989,-39.119712 -14.95989,-56.399582 4.55997,-24.55982 3.75997,-46.79966 -32.47976,-54.3196 -6.07995,-29.3597803 -22.39983,-45.27967 -53.7596,-41.43969 -13.8399,-21.83984 -33.27975,-26.31981 -56.39958,-18.87986 -7.99994,-14.2399 -30.15978,-23.91983 -57.35958,-10.47993 -21.43984,-21.75984 -49.59963,-16.15988 -65.27951,6.95995 -19.91986,-10.47992 -52.07962,-2.47998 -59.83956,20.39985 -25.51981,9.67993 -66.55951,-0.24 -74.31945,31.99976 -28.15979,13.5199 -99.19922,17.99987 -73.27945,66.79951 30.55977,-19.03986 73.43945,-17.59987 75.27943,1.99998 -68.63948,-9.83992 -93.9193,42.239692 -111.6792,-9.51993 -31.0397,20.31985 -3.9199,53.599612 21.4399,41.919692 33.59973,-15.599882 90.2393,-32.399762 90.2393,-32.399762 1.59999,10.23993 -42.87967,31.359772 -64.31952,29.359792 7.91995,51.51961 60.31955,-19.119862 108.7192,11.43991 22.15983,11.11992 60.39955,-2.87998 64.31952,-31.839762 -3.59997,29.119782 -42.39969,43.119682 -64.31952,31.839762 -4.47997,62.79954 -95.67929,101.19925 -57.83958,195.03856 8.87994,22.07983 25.27982,69.83948 55.83959,76.31943 -8.71994,-28.47979 -17.67987,-55.83958 -14.95989,-85.27937 -3.03998,29.27979 6.39995,57.19958 14.95989,85.27937 6.55995,40.2397 -1.75999,21.51984 15.43989,78.31942 2.07998,6.79995 -1.99999,66.55951 1.03999,94.7193 l 30.87977,3.91997 -30.87977,-3.91997 -32.47976,44.79967 27.91979,1.03999 20.95985,-43.43968 -20.95985,43.43968 -3.43997,7.91994 c 56.63958,-14.07989 58.87956,-14.71989 57.83957,-55.75959 l 17.91987,-3.99997 c -23.99983,-17.83986 -32.71976,-45.67966 -34.31975,-90.79932 -0.63999,-16.55988 -1.03999,-22.55984 1.99999,-41.3597 2.95997,-18.79986 -5.03997,-33.91975 -5.03997,-33.91975 5.51996,-34.23974 24.15982,-61.67954 6.95995,-103.19923 17.43987,41.43969 -1.19999,68.79949 -6.95995,103.19923 24.95982,-0.47999 50.47963,-3.75997 72.23947,-12.3999 z"
         stroke="#fcdb00"
         stroke-width="4.15997"
         id="path8"
         style="fill:#ff0000;stroke:#000000;stroke-opacity:1" />
      <path
         d="m -705.4789,345.00922 c 2.79998,35.11974 17.75987,73.91945 65.27952,93.19931 -42.07969,90.95932 -79.67941,76.95943 -78.23942,113.67916 l 36.39973,8.55993 -36.39973,-8.55993 -36.39973,39.4397 h 25.91981 l 28.87978,-33.91974 -28.87978,33.91974 -9.99993,9.91993 c 62.47954,-0.24 51.11962,-2.15998 56.87958,-40.7997 l 4.47997,-11.99991 13.4399,9.99993 c 11.19992,-47.03965 37.59972,-82.39939 65.83951,-116.23914 -11.19992,-19.27986 -10.07992,-27.5998 -11.43991,-45.83966 -30.39978,-42.31969 -61.43955,-73.67946 -95.7593,-51.35962 z"
         fill="#fff"
         stroke="#000"
         stroke-width="4.15997"
         id="path10"
         style="fill:#ff0000;stroke:#000000;stroke-opacity:1" />
      <path
         d="m -704.3589,350.84918 c 18.39986,10.39992 36.79972,18.95986 55.19959,18.79986 -41.59969,6.31995 -4.87997,57.59957 16.87987,16.87987 z"
         fill="#fff"
         id="path12"
         style="fill:#ff0000;stroke:#000000;stroke-opacity:1" />
    </g>
    <path
       d="m -730.43728,168.52177 c 10.08372,5.6995 20.16745,10.39061 30.25117,10.30293 -22.79798,3.46354 -2.67439,31.56644 9.25072,9.25072"
       fill="none"
       stroke="#000"
       stroke-width="2.27979"
       id="path16"
       style="fill:#ff0000;stroke:#000000;stroke-opacity:1" />
    <path
       d="m -695.88956,79.565794 c -14.11722,-0.131523 -32.83787,6.883241 -66.50874,20.737396 l 1.53448,84.44022 c 15.47632,-6.2256 29.5497,-16.39701 49.45409,-21.61425 -2.84975,-4.73496 -9.90836,-20.82507 1.22758,-32.92555 -11.13594,12.10048 -4.03349,28.19059 -1.22758,32.92555 13.76647,21.21966 32.8817,38.53737 53.57526,46.73588 -11.79358,55.06589 -39.15116,46.77969 -36.08219,71.55059 l 22.97334,1.40295 -22.97334,-1.40295 -17.71228,20.51818 14.731,-0.26305 13.50342,-19.0714 -13.50342,19.0714 -5.17339,6.79554 c 28.45364,-0.65763 25.07778,3.50739 31.12801,-25.64772 l -0.35073,-4.82265 8.02313,5.0857 c 0.78917,-35.99451 17.71228,-47.78808 35.20535,-70.80528 -10.91673,-15.16942 -21.65808,-30.55805 -21.87729,-55.72352 8.1985,-10.60984 14.59947,-26.52458 7.67239,-40.72948 -24.94625,-24.200921 -35.4684,-36.082184 -53.61909,-36.257556 z m 53.61909,36.257556 c 8.72462,17.40538 21.83346,15.6517 30.3827,13.67879 -4.07733,-3.98965 -5.43644,-4.73496 -11.70588,-10.03988 6.2256,5.30492 7.62855,6.05023 11.70588,10.03988 3.50739,-1.00836 9.11919,-5.61181 9.25072,-14.90638 l -14.731,-1.53447 14.731,1.53447 c 0,-12.49503 -3.55122,-23.192544 -8.98767,-30.207318 -0.48226,20.167448 -13.41574,27.927528 -30.64575,31.434908 z"
       fill="#fff"
       fill-rule="evenodd"
       stroke="#000"
       stroke-width="2.2798"
       id="path18"
       style="fill:#ff0000;stroke:#000000;stroke-opacity:1"
       sodipodi:nodetypes="ccccccccccccccccccccccccccccccc" />
    <path
       d="m -845.61094,36.337312 c -0.0877,10.609831 -5.96255,14.731 -12.58273,17.405383 17.97533,2.849746 20.16744,-2.060584 21.70193,-16.703904"
       fill="none"
       stroke="#000"
       stroke-width="2.27979"
       id="path20"
       style="fill:#ff0000;stroke:#000000;stroke-opacity:1" />
    <path
       d="m -845.34788,-11.450765 c 1.92905,-0.745321 3.77043,-1.841377 6.7517,-2.192116 2.23596,5.7871856 6.05024,6.7955502 9.82068,6.3571332 -1.40296,-2.4113286 -3.59507,-4.4280712 -2.5867,-8.6369272 6.88324,-1.534486 13.72263,-0.569952 20.56202,0 -11.31129,21.3511821 -24.20093,22.8418176 -34.5477,4.47191 z"
       fill="#fff"
       fill-rule="evenodd"
       stroke="#000"
       stroke-width="2.27979"
       id="path22"
       style="fill:#ffffff;stroke:#000000;stroke-opacity:1" />
    <path
       style="fill:#ff0000;stroke:none;stroke-width:0.719649px;stroke-linecap:butt;stroke-linejoin:miter;stroke-opacity:1"
       d="m -765.54257,98.311793 c 3.98556,2.868317 5.557,1.753937 7.874,5.924547 0.67216,1.20988 1.85063,5.21596 2.00822,6.47665 0.20245,1.61966 1.29252,3.14388 1.55015,4.84422 0.54331,3.58584 0.0612,7.26088 0.38754,10.85106 0.10878,1.19666 0.76325,2.32285 0.96884,3.48784 0.52199,2.95792 0.93137,6.10101 1.16262,9.10714 0.32085,4.171 -0.1272,8.42247 0.19376,12.59498 0.52518,6.8272 0.71659,14.8836 -0.38754,21.50834 -0.26389,1.58332 -3.10932,2.62715 -4.26291,4.06915 -0.85826,1.07282 -1.66578,2.75025 -2.32523,4.06915 -0.28781,0.57562 2.33928,-0.0342 1.78523,0.40903 -0.46073,0.36858 -5.09939,2.30372 -5.6606,2.30372 -0.44493,0 -2.42086,0.29192 -2.71277,0 -1.08276,-1.08275 -2.02467,-3.12396 -2.71276,-4.84421 -1.12659,-2.81647 -2.46852,-5.44262 -3.29408,-8.33206 -0.90057,-3.15202 0.50029,-6.88758 -0.77507,-10.07599 -3.00601,-7.51502 -2.13146,-24.69964 -2.13146,-33.52201 0,-3.60101 -0.36461,-8.20708 0.77507,-11.62614 1.39933,-4.19796 3.28812,-7.92665 4.65046,-12.01366 0.72259,-2.16778 2.24587,-3.24977 2.90653,-5.231757 z"
       id="path861"
       sodipodi:nodetypes="csssssssssssssssssssc" />
    <path
       id="use18-3-5"
       d="m -466.21606,67.876735 -9.93788,-9.822032 -44.41213,0.287794 9.93788,9.822032 z"
       style="fill:#666666;stroke:#000000;stroke-width:0.782057;stroke-miterlimit:4;stroke-dasharray:none;stroke-opacity:1" />
    <path
       id="use20-9-1"
       d="m -466.38983,38.236863 -44.41213,0.287794 -9.82204,9.93788 44.41213,-0.287794 z"
       style="fill:#666666;stroke:#000000;stroke-width:0.782057;stroke-miterlimit:4;stroke-dasharray:none;stroke-opacity:1" />
    <path
       id="use22-0-3"
       d="m -560.0859,58.574195 103.69187,-0.63534 -4.96894,-4.91102 4.91102,-4.96894 -103.69188,0.63534 z"
       style="fill:#666666;stroke:#000000;stroke-width:0.782057;stroke-miterlimit:4;stroke-dasharray:none;stroke-opacity:1" />
    <path
       id="use24-3-5"
       d="m -560.0859,58.574195 -0.0579,-9.87996 -32.0851,2.695648 22.11826,-17.45766 -7.42353,0.06727 -31.93277,19.951461 32.19159,19.520689 7.39641,-0.01961 -22.321,-17.122192 z"
       style="fill:#666666;stroke:#000000;stroke-width:0.782057;stroke-miterlimit:4;stroke-dasharray:none;stroke-opacity:1" />
    <path
       id="use18-3-5-4"
       d="m -466.21606,17.977149 -9.93788,-9.8220316 -44.41213,0.287794 9.93788,9.8220316 z"
       style="fill:#666666;stroke:#000000;stroke-width:0.782057;stroke-miterlimit:4;stroke-dasharray:none;stroke-opacity:1" />
    <path
       id="use20-9-1-9"
       d="m -466.38983,-11.662719 -44.41213,0.287793 -9.82204,9.9378794 44.41213,-0.287795 z"
       style="fill:#666666;stroke:#000000;stroke-width:0.782057;stroke-miterlimit:4;stroke-dasharray:none;stroke-opacity:1" />
    <path
       id="use22-0-3-9"
       d="m -560.0859,8.6746094 103.69187,-0.63534 -4.96894,-4.9110192 4.91102,-4.9689398 -103.69188,0.635341 z"
       style="fill:#666666;stroke:#000000;stroke-width:0.782057;stroke-miterlimit:4;stroke-dasharray:none;stroke-opacity:1" />
    <path
       id="use24-3-5-3"
       d="m -560.0859,8.6746094 -0.0579,-9.879958 -32.0851,2.6956472 22.11826,-17.4576586 -7.42353,0.06727 -31.93277,19.9514592 32.19159,19.5206878 7.39641,-0.01961 -22.321,-17.1221912 z"
       style="fill:#666666;stroke:#000000;stroke-width:0.782057;stroke-miterlimit:4;stroke-dasharray:none;stroke-opacity:1" />
    <path
       id="use18-3-5-4-5"
       d="m -466.21606,-31.922436 -9.93788,-9.82203 -44.41213,0.2878 9.93788,9.82203 z"
       style="fill:#666666;stroke:#000000;stroke-width:0.782057;stroke-miterlimit:4;stroke-dasharray:none;stroke-opacity:1" />
    <path
       id="use20-9-1-9-3"
       d="m -466.38983,-61.562301 -44.41213,0.287793 -9.82204,9.937881 44.41213,-0.287795 z"
       style="fill:#666666;stroke:#000000;stroke-width:0.782057;stroke-miterlimit:4;stroke-dasharray:none;stroke-opacity:1" />
    <path
       id="use22-0-3-9-5"
       d="m -560.0859,-41.224976 103.69187,-0.63534 -4.96894,-4.911014 4.91102,-4.96894 -103.69188,0.635341 z"
       style="fill:#666666;stroke:#000000;stroke-width:0.782057;stroke-miterlimit:4;stroke-dasharray:none;stroke-opacity:1" />
    <path
       id="use24-3-5-3-8"
       d="m -560.0859,-41.224976 -0.0579,-9.879953 -32.0851,2.695647 22.11826,-17.45766 -7.42353,0.06727 -31.93277,19.951461 32.19159,19.520685 7.39641,-0.0196 -22.321,-17.122189 z"
       style="fill:#666666;stroke:#000000;stroke-width:0.782057;stroke-miterlimit:4;stroke-dasharray:none;stroke-opacity:1" />
  </g>
  <path
     d="m-32.002488 204.36809v336.97806c0 133.15717 107.539413 241.10246 240.196018 241.10246 132.65667 0 240.19614-107.94529 240.19614-241.10246v-336.97806z"
     fill="none"
     stroke="#000"
     stroke-width="9.607842"
     transform="translate(41.806409 -194.56417)"
     id="path26"
     style="stroke:#3e0000;stroke-opacity:1" />
  <path
     style="fill:#ffcc00;fill-opacity:1;stroke:none;stroke-width:1.86204;stroke-opacity:1"
     d="m 127.56146,337.50243 v -19.80081 h 60.92555 60.92555 v 19.80081 19.8008 h -60.92555 -60.92555 z"
     id="path1052" />
  <path
     style="fill:#ffcc00;fill-opacity:1;stroke:none;stroke-width:1.86204;stroke-opacity:1"
     d="M 22.374024,409.42557 C 18.876942,396.43839 14.890898,378.65965 15.915145,377.6354 16.618438,376.93211 127.13193,317.89201 127.71478,317.89201 l -0.15332,39.41122 -53.073056,27.5352 c -27.407361,14.2194 -50.666301,27.76262 -50.982529,27.89443 -0.316228,0.1318 -0.694667,-1.68371 -1.131851,-3.30729 z"
     id="path1054"
     sodipodi:nodetypes="ssccsss" />
  <path
     style="fill:#ffcc00;fill-opacity:1;stroke:none;stroke-width:1.86204;stroke-opacity:1"
     d="m 51.208235,477.67289 c -4.388052,-6.44873 -13.537034,-23.82583 -13.537034,-25.17444 0,-0.28544 88.012369,-48.75608 89.890259,-49.50106 V 442.599 l -37.060606,18.78642 c -18.584548,9.42071 -35.918873,20.28571 -35.918873,20.28571 0.219439,0.25893 -2.146819,-2.19513 -3.373746,-3.99824 z"
     id="path1056"
     sodipodi:nodetypes="ssccsss" />
  <path
     style="fill:#000000;fill-opacity:1;stroke:none;stroke-width:1.87394;stroke-opacity:1"
     d="m 249.41256,422.79819 v -19.8008 h 60.16398 60.16398 v 19.8008 19.80081 h -60.16398 -60.16398 z"
     id="path1068" />
  <path
     style="fill:#ffcc00;fill-opacity:1;stroke:none;stroke-width:1.86204;stroke-opacity:1"
     d="m 127.56146,422.79819 v -19.8008 h 60.92555 60.92555 v 19.8008 19.80081 h -60.92555 -60.92555 z"
     id="path1058" />
  <path
     style="fill:#ffcc00;fill-opacity:1;stroke:none;stroke-width:1.86204;stroke-opacity:1"
     d="m 99.904687,530.6838 c -9.763108,-9.58646 -19.561478,-15.66885 -18.827414,-16.34694 0.653618,-0.60377 46.033227,-26.0437 46.484187,-26.0437 v 39.60161 l -11.0548,4.61338 -10.43599,4.23008 z"
     id="path1060"
     sodipodi:nodetypes="ssccccs" />
  <path
     style="fill:#ffcc00;fill-opacity:1;stroke:none;stroke-width:1.86204;stroke-opacity:1"
     d="m 127.56146,508.09396 v -19.8008 h 60.92555 60.92555 v 19.8008 19.80081 h -60.92555 -60.92555 z"
     id="path1062" />
  <path
     style="fill:#000000;fill-opacity:1;stroke:none;stroke-width:1.87394;stroke-opacity:1"
     d="m 249.41256,337.50243 v -19.80081 h 60.16398 60.16398 v 19.80081 19.8008 h -60.16398 -60.16398 z"
     id="path1064" />
  <path
     style="fill:#000000;fill-opacity:1;stroke:none;stroke-width:1.86204;stroke-opacity:1"
     d="m 424.38312,385.61412 -54.6426,-28.31089 v 0 -39.60161 c 52.6577,28.71597 114.69392,62.47666 114.70606,64.71427 0.0164,3.03128 -3.78392,22.28005 -4.90063,27.79034 l -0.69312,3.42014 z"
     id="path1066"
     sodipodi:nodetypes="ccccsscc" />
  <path
     style="fill:#000000;fill-opacity:1;stroke:none;stroke-width:1.86204;stroke-opacity:1"
     d="M 407.6286,461.84741 369.74052,442.599 v -39.60161 l 92.14643,50.01888 c 0.74365,0.67689 -0.0328,1.86642 -3.595,8.27205 -6.33242,11.38715 -12.37817,21.11717 -13.41979,21.02455 -0.48324,-0.043 -18.49944,-10.19486 -37.24356,-20.46546 z"
     id="path1070"
     sodipodi:nodetypes="scccsss" />
  <path
     style="fill:#000000;fill-opacity:1;stroke:none;stroke-width:1.87394;stroke-opacity:1"
     d="m 249.41256,508.09396 v -19.8008 h 60.16398 60.16398 v 19.8008 19.80081 h -60.16398 -60.16398 z"
     id="path1072" />
  <path
     style="fill:#000000;fill-opacity:1;stroke:none;stroke-width:1.86204;stroke-opacity:1"
     d="m 381.31577,532.74357 -11.57525,-4.8488 v -39.60161 c 0.13499,0 13.89487,6.75089 25.62354,13.14036 l 22.75277,12.66439 -5.6725,5.02267 c -5.95336,5.27136 -11.52275,11.84382 -17.32511,16.16801 l -3.08496,2.29905 z"
     id="path1074"
     sodipodi:nodetypes="cccscsscc" />
</svg>
