<?xml version="1.0" encoding="UTF-8" standalone="no"?><!DOCTYPE svg PUBLIC "-//W3C//DTD SVG 1.1//EN" "http://www.w3.org/Graphics/SVG/1.1/DTD/svg11.dtd"><svg width="100%" height="100%" viewBox="0 0 2400 3000" version="1.1" xmlns="http://www.w3.org/2000/svg" xmlns:xlink="http://www.w3.org/1999/xlink" xml:space="preserve" xmlns:serif="http://www.serif.com/" style="fill-rule:evenodd;clip-rule:evenodd;stroke-linecap:round;stroke-linejoin:round;stroke-miterlimit:1.5;"><g id="Tree"><path d="M1195.57,161.221c-6.684,-23.306 -7.862,7.61 -25.157,35.945c-16.199,26.54 -42.416,49.634 -64.97,44.122c-46.633,-11.395 37.478,40.839 50.257,33.172c12.778,-7.667 -59.727,46.423 -102.439,37.373c-14.992,-3.177 1.287,30.784 32.733,41.38c26.062,8.782 66.38,-4.241 73.329,-15.823c8.958,-14.929 -19.097,37.138 -59.381,70.115c-28.679,23.478 -45.72,36.889 -87.782,24.342c-14.469,-4.316 -6.807,60.679 47.543,62.825c50.592,1.997 107.568,-68.917 90.675,-46.108c-16.892,22.809 -117.125,123.882 -183.101,132.897c-57.659,7.879 27.355,59.519 78.422,44.62c53.46,-15.597 118.344,-89.086 112.347,-70.177c-9.234,29.113 -20.901,50.145 -70.38,99.37c-34.279,34.102 -92.932,60.417 -113.457,60.467c-63.457,0.155 -8.198,54.879 34.432,53.565c48.296,-1.488 99.568,-28.113 117.458,-43.447c9.142,-7.836 -23.944,34.54 -70.652,64.455c-44.693,28.625 -103.202,44.497 -90.691,52.478c20.456,13.048 63.372,13.888 97.272,-3.045c51.757,-25.853 92.689,-72.348 81.488,-53.303c-9.705,16.502 -47.9,54.991 -96.585,92.01c-34.433,26.181 -85.274,53.798 -111.145,66.304c-60.734,29.359 16.413,42.209 107.404,6.847c54.104,-21.026 117.94,-81.12 113.263,-68.517c-6.565,17.689 -83.042,109.742 -123.935,145.781c-34.388,30.306 -50.35,36.502 -85.27,60.266c-18.752,12.76 25.758,21.469 80.889,5.076c33.994,-10.109 87.08,-25.197 101.16,-39.211c32.913,-32.759 -22.773,38.547 -60.841,69.638c-51.755,42.268 -77.372,73.189 -131.637,90.991c-28.952,9.498 28.563,36.129 92.689,4.333c32.253,-15.992 66.872,-30.871 95.961,-54.432c57.206,-46.336 -110.999,136.468 -206.978,179.74c-30.088,13.566 127.298,21.107 208.775,-59.856c14.172,-14.083 -7.173,31.667 -55.671,80.441c-57.393,57.721 -121.356,72.049 -149.435,89.682c-13.774,8.649 25.559,26.341 83.148,11.07c48.181,-12.777 123.502,-71.024 91.809,-39.831c-29.613,29.145 -67.705,75.267 -114.369,89.524c-39.349,12.022 13.609,32.127 62.587,18.736c31.984,-8.745 83.751,-53.617 57.763,-27.128c-14.577,14.858 -32.565,51.274 -67.8,70.6c-44.06,24.166 -101.712,33.375 -78.573,43.914c17.449,7.947 44.54,19.021 72.483,12.011c54.443,-13.658 96.232,-33.471 110.163,-59.873c22.186,-42.047 -79.08,155.198 -132.75,186.217c-48.327,27.931 61.103,13.825 85.382,-36.011c24.279,-49.836 -33.55,89.513 3.021,56.341c29.403,-26.669 68.133,-55.963 80.912,-87.909c12.778,-31.947 -7.058,339.301 -7.058,339.301l82.118,-4.793c0,-0 -23.001,-337.671 -10.223,-305.724c5.734,14.335 41.779,44.813 83.225,53.038c50.917,10.104 102.456,-14.787 58.396,-23.072c-79.758,-14.999 -130.343,-126.298 -109.702,-102.135c20.64,24.162 130.137,63.735 118.265,54.976c-27.616,-20.373 -51.858,-61.559 -40.852,-54.095c31.742,21.527 120.938,28.042 93.932,16.647c-86.49,-36.492 -141.716,-125.595 -128.764,-112.69c32.025,31.906 167.39,18.249 132.699,6.912c-61.528,-20.109 -140.965,-113.54 -120.107,-97.699c43.396,32.957 151.848,21.473 116.007,9.651c-38.772,-12.787 -74.55,-51.321 -119.543,-100.46c-20.148,-22.004 -34.046,-75.217 -12.09,-67.134c38.275,14.092 88.89,46.433 125.466,47.455c60.157,1.68 73.993,-32.591 46.493,-32.162c-61.988,0.968 -207.181,-137.23 -192.079,-129.82c69.459,34.082 104.451,65.451 144.538,56.226c51.661,-11.889 89.029,-63.298 21.461,-51.797c-67.569,11.501 -188.898,-151.672 -170.253,-138.446c32.279,22.896 89.827,39.467 129.309,36.795c61.564,-4.166 91.988,-28.621 31.613,-36.988c-67.276,-9.324 -186.794,-167.294 -177.849,-150.682c8.945,16.612 65.728,48.969 98.71,58.344c53.95,15.334 161.448,-25.978 94.999,-28.533c-66.449,-2.556 -241.849,-155.734 -202.829,-117.878c17.54,17.016 77.429,58.906 115.618,62.222c76.155,6.612 140.13,-55.199 109.705,-51.212c-120.749,15.825 -250.547,-143.006 -232.413,-127.96c50.974,42.291 105.922,52.987 148.092,59.376c42.169,6.389 120.467,-61.74 58.939,-46.213c-86.912,21.934 -223.69,-131.972 -208.344,-119.401c57.801,47.351 120.053,37.764 156.459,37.093c21.182,-0.39 76.527,-85.999 29.408,-58.099c-71.436,42.3 -209.717,-124.641 -199.03,-116.967c29.67,21.303 86.859,46.755 120.083,47.333c36.07,0.627 96.907,-79.753 58.572,-55.473c-16.86,10.677 -74.463,-2.908 -115.846,-29.23c-52.715,-33.53 -82.603,-78.71 -64.402,-66.452c10.407,7.009 40.46,20.86 69.036,11.592c38.929,-12.624 70.22,-58.477 55.406,-51.853c-53.903,24.099 -156.346,-49.201 -129.396,-41.049c34.657,10.482 91.88,-25.097 51.482,-23.369c-48.544,2.075 -77.427,-45.052 -89.617,-87.552Z" style="fill:#07752e;stroke:#000;stroke-width:12.5px;"/></g><path d="M2362.65,107.661c0,574.324 0,1109.67 0,1548.81c0,755.378 -550.934,1235.87 -1163.55,1235.87c-612.616,0 -1163.55,-480.491 -1163.55,-1235.87c-0,-454.118 -0,-974.486 -0,-1548.81l2327.1,-0Z" style="fill:none;"/><clipPath id="_clip1"><path d="M2362.65,107.661c0,574.324 0,1109.67 0,1548.81c0,755.378 -550.934,1235.87 -1163.55,1235.87c-612.616,0 -1163.55,-480.491 -1163.55,-1235.87c-0,-454.118 -0,-974.486 -0,-1548.81l2327.1,-0Z"/></clipPath><g clip-path="url(#_clip1)"><path d="M1562.71,2227.32c67.164,-118.495 204.837,-199.796 363.61,-199.796c224.763,-0 407.243,162.928 407.243,363.609c-0,200.682 -189.507,585.114 -1134.46,585.114c-944.956,-0 -1134.46,-384.432 -1134.46,-585.114c-0,-200.681 182.479,-363.609 407.242,-363.609c158.773,-0 296.446,81.301 363.61,199.796c67.164,-118.495 204.837,-199.796 363.61,-199.796c158.773,-0 296.446,81.301 363.609,199.796Z" style="fill:#07752e;stroke:#000;stroke-width:12.5px;"/><g id="Horse"><g id="Hoofs"><path id="path5147" d="M1855.57,1345.03c-47.699,54.536 -104.936,111.586 -123.599,180.473c39.59,45.726 88.584,81.829 106.056,121.832c15.154,34.698 5.988,251.794 -13.509,268.448c-61.87,52.848 -39.885,88.416 -57.616,108.213c-37.75,42.149 -36.55,93.57 -31.568,90.347c34.434,-22.271 93.546,-31.442 125.826,-44.415c6.48,-2.604 -2.634,-25.03 -2.874,-41.391c-0.622,-42.512 44.694,-28.134 54.152,-52.831c9.561,-24.964 17.434,-90.084 17.952,-131.791c0.865,-69.65 29.151,-196.367 13.34,-284.972c-2.255,-12.639 -46.767,-52.186 -86.065,-113.536c-15.193,-23.718 -6.473,-68.502 -2.095,-100.377Z" style="fill:#93352d;stroke:#000;stroke-width:16.16px;stroke-linecap:butt;stroke-linejoin:miter;stroke-miterlimit:4;"/></g><g><path id="path5129-0" d="M703.412,1437.37c-41.212,-20.821 -78.408,-60.753 -93.695,-90.695c-44.702,20.967 -60.418,55.239 -104.718,74.658c-47.619,20.874 -98.245,57.701 -111.035,98.027c-11.786,37.163 10.288,119.239 16.787,158.063c8.064,48.166 37.161,245.2 94.382,264.861c31.387,10.784 40.096,68.121 51.09,49.315c21.516,-36.804 44.874,-111.667 52.226,-125.764c4.154,-7.966 -42.604,-11.422 -57.673,-17.097c-4.808,-1.81 7.29,-11.943 6.344,-24.276c-0.897,-11.696 -5.811,-28.882 -18.011,-43.004c-8.901,-10.304 -32.379,-44.388 -39.382,-61.121c-7.004,-16.733 -31.186,-158.463 7.121,-179.849c31.282,-17.465 174.278,-60.96 239.623,-81.797c-1.616,-2.753 -5.452,-9.488 -5.452,-9.488c-0,-0 -18.74,-2.301 -37.607,-11.833Z" style="fill:#93352d;stroke:#000;stroke-width:16.16px;stroke-linecap:butt;stroke-linejoin:miter;stroke-miterlimit:4;"/></g><g id="Tail"><path id="path5115" d="M1750.4,906.504c108.174,28.501 183.636,67.301 244.469,122.461c69.531,63.046 115.8,132.53 130.722,189.99c17.432,67.121 27.538,167.505 29.415,276.954c1.073,62.591 32.297,132.29 35.773,154.975c3.825,24.956 -24.25,-13.323 -36.59,-27.014c0.843,32.897 15.983,96.032 36.058,143.017c15.11,35.364 -49.643,-18.62 -53.521,-29.285c-6.799,-18.698 25.21,89.205 -5.818,57.207c-8.612,-8.881 -23.563,4.727 -42.664,-9.696c-17.924,-13.534 -33.231,-43.412 -34.906,-56.238c-2.076,-15.895 2.6,-43.961 -24.898,-99.849c10.052,77.408 5.43,216.06 -7.79,162.279c-26.296,-106.973 -46.971,-227.576 -43.724,-307.726c1.21,-29.844 -11.032,-54.735 -3.914,-60.912c-24.927,-13.446 -30.45,-121.977 -24.458,-231.737c3.494,-64.003 -36.432,-123.026 -56.371,-128.875c-10.43,-31.528 -33.635,-65.347 -48.383,-83.28c-14.19,-17.255 -51.073,-53.565 -93.4,-72.271Z" style="fill:#cc7832;stroke:#000;stroke-width:16.16px;stroke-linejoin:miter;stroke-miterlimit:4;"/><path d="M1983.32,1178.99c-0.418,5.754 -0.89,20.501 -1.386,39.956c-1.171,45.905 -2.466,117.993 -3.444,159.45c-0.469,19.886 -10.858,38.953 -13.359,55.969c-0.892,6.068 -0.839,11.91 0.421,17.501c1.112,4.463 5.639,7.183 10.101,6.07c4.463,-1.112 7.183,-5.639 6.07,-10.101c-0.995,-3.64 -1.115,-7.486 -0.71,-11.503c1.767,-17.525 11.272,-37.558 10.827,-57.925c-0.906,-41.459 -2.887,-113.533 -3.803,-159.444c-0.386,-19.351 -0.586,-34.024 -0.431,-39.759c0.059,-1.183 -0.853,-2.191 -2.036,-2.25c-1.183,-0.059 -2.191,0.853 -2.25,2.036Z"/><path d="M1979.37,1130.92c2.126,25.443 2.423,47.942 1.245,70.759c-1.639,31.737 -6.144,64.071 -12.573,105.728c-2.853,18.491 -4.349,41.018 -7.875,58.275c-1.828,8.947 -4.003,16.376 -7.691,20.376c-2.308,2.563 -2.101,6.519 0.462,8.827c2.563,2.308 6.518,2.102 8.827,-0.461c4.678,-5.318 7.991,-14.794 10.099,-26.494c3.156,-17.512 4.163,-40.294 6.611,-59.037c5.506,-42.149 9.277,-74.856 10.187,-106.892c0.657,-23.154 -0.171,-45.95 -2.924,-71.687c-0.167,-1.758 -1.73,-3.048 -3.487,-2.881c-1.757,0.167 -3.048,1.73 -2.881,3.487Z"/><path d="M2015.39,1145.84c3.936,20.135 6.75,52.682 8.158,85.079c1.437,33.078 1.394,65.979 -0.479,85.264c-2.221,22.858 -5.694,117.077 -6.032,201.681c-0.234,58.65 1.144,112.696 5.324,135.755c1.112,5.64 6.594,9.317 12.235,8.205c5.64,-1.113 9.317,-6.595 8.204,-12.236c-4.756,-22.306 -7.53,-74.853 -9.057,-131.915c-2.252,-84.098 -1.7,-177.848 -0.193,-200.634c1.3,-19.639 0.348,-53.044 -2.144,-86.583c-2.43,-32.686 -6.301,-65.478 -10.904,-85.698c-0.298,-1.41 -1.686,-2.314 -3.097,-2.015c-1.411,0.298 -2.314,1.686 -2.015,3.097Z"/><path d="M2025.51,1244.65c1.863,21.313 12.936,115.688 18.809,204.609c3.491,52.85 5.157,103.758 1.893,136.046c-1.142,11.297 -6.396,35.545 -6.005,64.827c0.185,13.82 1.627,28.736 5.283,43.956c0.828,3.349 4.219,5.395 7.568,4.567c3.348,-0.829 5.394,-4.22 4.566,-7.568c-4.624,-18.165 -5.834,-35.915 -5.545,-51.677c0.439,-23.924 4.278,-43.366 5.126,-53.069c2.863,-32.743 0.535,-84.276 -3.726,-137.75c-7.086,-88.922 -19.447,-183.234 -21.601,-204.541c-0.165,-1.757 -1.726,-3.05 -3.484,-2.884c-1.757,0.166 -3.049,1.727 -2.884,3.484Z"/><path d="M2068.91,1494.23c2.109,15.481 -4.416,67.309 -6.638,124.81c-0.69,17.837 -0.961,36.192 -0.469,54.203c0.725,26.513 4.281,51.365 8.914,71.882c4.804,21.275 10.971,37.946 16.395,47.363c2.998,4.906 9.415,6.455 14.32,3.457c4.906,-2.998 6.455,-9.415 3.457,-14.32c-6.218,-9.604 -13.496,-28.341 -19.28,-52.135c-4.129,-16.981 -7.503,-36.431 -9.141,-57.03c-1.405,-17.668 -2.073,-35.712 -2.308,-53.27c-0.775,-57.924 2.976,-110.369 0.045,-125.822c-0.238,-1.462 -1.617,-2.455 -3.078,-2.217c-1.462,0.238 -2.455,1.617 -2.217,3.079Z"/><path d="M2091.81,1693.7c4.097,12.897 9.128,48.47 19.767,76.544c4.783,12.623 10.802,23.707 18.099,31.063c2.494,2.382 6.454,2.291 8.836,-0.204c2.382,-2.495 2.291,-6.454 -0.204,-8.836c-8.693,-7.861 -15.454,-21.502 -21.001,-36.214c-9.492,-25.179 -15.286,-53.438 -19.456,-64.454c-0.58,-1.667 -2.404,-2.55 -4.071,-1.97c-1.667,0.58 -2.55,2.404 -1.97,4.071Z"/><path d="M2063.11,1178.59c3.966,17.011 9.347,57.895 13.495,100.043c3.751,38.103 6.486,77.23 6.221,100.634c-0.275,24.18 1.712,70.708 4.681,116.633c3.134,48.491 7.393,96.295 11.216,116.604c4.49,23.85 6.549,51.113 12.272,77.33c3.914,17.931 9.553,35.358 18.556,51.035c2.335,3.962 7.448,5.282 11.41,2.947c3.963,-2.336 5.283,-7.449 2.948,-11.411c-8.507,-14.064 -13.894,-29.827 -17.822,-46.045c-6.276,-25.915 -8.917,-52.955 -13.914,-76.546c-4.224,-19.944 -9.444,-67 -13.62,-114.754c-3.986,-45.569 -7.016,-91.759 -7.289,-115.793c-0.267,-23.599 -3.901,-62.98 -8.553,-101.305c-5.132,-42.287 -11.49,-83.273 -15.866,-100.287c-0.253,-1.031 -1.295,-1.663 -2.325,-1.41c-1.031,0.252 -1.663,1.295 -1.41,2.325Z"/><path d="M2089.79,1474.66c1.863,12.744 7.307,66.062 16.882,116.833c5.513,29.234 12.456,57.579 20.771,77.153c6.321,14.884 15.231,34.525 23.843,52.976c11.035,23.645 21.602,45.292 25.673,52.597c2.92,4.952 9.312,6.601 14.264,3.68c4.952,-2.92 6.601,-9.312 3.68,-14.264c-4.315,-6.922 -15.622,-27.516 -27.505,-50.02c-9.414,-17.83 -19.182,-36.821 -26.158,-51.234c-8.922,-18.432 -16.84,-45.398 -23.525,-73.253c-12.008,-50.037 -20.023,-102.812 -22.5,-115.398c-0.257,-1.497 -1.68,-2.504 -3.178,-2.247c-1.497,0.256 -2.504,1.68 -2.247,3.177Z"/><path d="M2113.96,1333.21c1.945,18.185 6.365,62.857 10.142,103.791c2.595,28.117 4.882,54.442 5.852,69.163c1.411,21.403 0.896,48.544 4.189,73.474c2.463,18.638 7.178,36.018 15.805,49.37c2.576,3.81 7.761,4.812 11.571,2.236c3.81,-2.576 4.812,-7.761 2.236,-11.571c-7.948,-11.24 -12.349,-26.218 -15.154,-42.253c-4.275,-24.439 -4.849,-51.219 -7.123,-72.258c-1.592,-14.727 -4.99,-41.039 -8.774,-69.137c-5.491,-40.774 -11.78,-85.258 -14.487,-103.36c-0.151,-1.175 -1.227,-2.007 -2.402,-1.856c-1.174,0.15 -2.006,1.227 -1.855,2.401Z"/><path d="M2128.87,1484.7c1.496,21.669 7.8,53.043 17.636,81.595c6.801,19.742 15.394,38.056 25.136,51.159c2.853,3.608 8.098,4.221 11.706,1.368c3.608,-2.853 4.221,-8.098 1.368,-11.706c-11.885,-14.145 -22.377,-35.745 -30.536,-58.095c-8.536,-23.383 -14.548,-47.527 -16.823,-65.161c-0.232,-2.342 -2.321,-4.055 -4.663,-3.823c-2.342,0.231 -4.056,2.321 -3.824,4.663Z"/></g><path id="Body" d="M1364.19,2063.01c-4.733,-10.296 -16.652,-43.633 -15.911,-56.427c18.228,5.416 42.829,4.608 55.838,-4.804c27.307,-19.755 24.833,-53.5 42.821,-72.425c63.117,-42.241 87.846,-86.981 150.73,-127.353c68.157,-43.757 119.033,-88.838 122.501,-101.796c9.692,-36.219 3.883,-143.136 9.732,-166.939c17.146,-69.767 67.131,-123.229 127.842,-191.041c52.378,-58.505 60.997,-156.163 47.507,-233.007c-22.234,-126.657 -144.377,-239.279 -267.661,-220.122c-139.59,21.691 -321.217,68.309 -482.217,69.947c-95.384,0.971 -229.073,-36.898 -298.625,-116.37c-35.373,-40.418 -79.981,-59.154 -108.338,-78.389c-62.393,-42.324 -215.453,-210.195 -349.607,-193.268c-8.324,-29.954 -32.129,-51.831 -66.331,-66.944c-13.856,-6.123 -12.927,49.466 -3.786,74.021c-28.34,-10.535 -62.029,18.699 -75.23,35.456c-39.907,50.655 -8.629,83.935 -13.13,96.113c-30.924,83.671 -67.676,202.199 -85.037,221.651c-35.761,40.067 -20.632,51.431 -7.169,78.423c4.177,32.77 29.191,48.693 41.384,51.883c12.194,3.19 25.356,-10.767 28.884,-34.353c2.182,-14.586 16.043,-30.025 33.265,-41.977c7.089,35.375 -29.004,61.118 -30.649,75.905c-1.729,15.548 48.15,-1.235 52.345,-4.018c24.782,-16.438 24.473,-46.408 36.076,-61.759c12.021,-15.903 61.312,-67.004 93.295,-75.23c13.906,-3.576 24.279,-16.803 26.252,-19.401c9.841,-12.953 35.422,43.431 44.943,62.401c31.09,61.945 113.812,108.877 104.96,256.924c-8.282,138.519 107.465,222.928 162.105,229.064c56.234,95.779 84.207,200.463 85.789,246.67c0.667,19.483 49.998,117.12 55.244,156.104c9.972,74.094 -20.01,180.669 -23.05,222.956c-2.61,36.289 1.287,63.044 18.341,88.604c4.926,7.383 27.168,-37.996 96.213,-75.919c6.727,-3.695 -13.392,-38.385 -13.392,-38.385c-35.814,-49.049 22.464,-25.861 22.271,-45.419c-0.155,-15.636 17.76,-40.915 -0.863,-90.281c-9.732,-25.798 -41.779,-134.807 -43.462,-203.745c-1.49,-61.017 -31.914,-244.858 -21.627,-245.963c61.366,-6.596 122.706,-28.439 201.301,-24.582c105.496,5.177 213.421,13.477 336.263,-11.125c5.21,23.242 35.416,37.996 55.019,28.447c18.379,-8.954 8.838,-52.868 8.838,-52.868c9.179,45.906 -5.223,76.071 11.135,111.621c35.807,77.816 47.497,116.648 41.135,156.057c-3.66,22.667 -106.356,139.731 -179.365,188.259c-48.079,31.957 -70.55,88.674 -105.379,112.421c-21.721,17.192 -53.812,53.804 -57.623,78.261c-2.104,13.506 -16.257,51.232 -2.304,45.536c44.117,-18.007 143.848,-21.672 138.727,-32.814Z" style="fill:#93352d;stroke:#000;stroke-width:16.16px;stroke-linecap:butt;stroke-linejoin:miter;stroke-miterlimit:4;"/><g id="Ears"><path id="Ear" d="M338.069,588.595c-14.475,-37.478 -60.605,-47.449 -85.604,-56.278c-16.857,-5.954 -0.046,57.409 14.821,65.974c22.504,-18.067 48.482,-29.088 70.783,-9.696Z" style="fill:#93352d;stroke:#000;stroke-width:16.16px;stroke-linecap:butt;stroke-linejoin:miter;stroke-miterlimit:4;"/><path d="M375.805,597.224c1.527,3.947 4.91,7.578 8.641,4.489c8.95,-7.409 2.131,-30.302 -27.064,-51.155c-11.034,-7.881 -6.597,58.871 -0.514,51.788c2.049,-2.385 9.343,6.719 10.028,2.907c0.685,-3.812 0.362,-5.005 -0.161,-7.456c-1.383,-6.483 -11.87,-13.833 -1.808,-18.526c10.689,-4.985 9.037,13.196 10.878,17.953Z"/></g><g id="Nose"><path id="Nose1" serif:id="Nose" d="M183.65,961.848c3.864,-3.06 13.241,-5.417 12.25,1.355c-1.664,11.364 -4.501,17.062 -10.381,17.283c-8.899,0.334 -9.331,11.422 -12.987,10.201c-6.197,-2.068 4.064,-23.252 11.118,-28.839Z"/><path id="Nose2" serif:id="Nose" d="M170.324,987.111c3.76,-18.629 18.202,-35.891 29.028,-26.639c14.234,12.166 -7.449,20.884 -15.138,39.18" style="fill:none;stroke:#000;stroke-width:7.13px;stroke-linejoin:miter;stroke-miterlimit:4;"/><path d="M206.274,1003.43c6.34,-6.154 13.635,-13.57 17.842,-20.492c2.815,-4.631 4.117,-9.158 3.689,-12.977c-0.744,-5.687 -2.717,-13.367 -3.264,-19.832c-0.218,-2.572 -0.326,-4.913 0.391,-6.699c1.115,-2.926 5.269,-8.793 10.113,-15.236c6.228,-8.283 13.588,-17.402 18.271,-22.309c0.85,-0.814 0.879,-2.165 0.065,-3.015c-0.814,-0.85 -2.165,-0.879 -3.015,-0.065c-5.22,4.57 -13.665,13.085 -20.658,21.05c-5.966,6.795 -10.784,13.264 -12.236,16.462c-1.209,2.79 -1.56,6.466 -1.224,10.528c0.224,2.709 0.74,5.612 1.362,8.496c0.903,4.177 2.057,8.308 2.65,11.738c0.615,3.287 -1.214,7.326 -3.799,11.664c-3.576,5.998 -8.702,12.349 -13.301,17.774c-0.804,0.859 -0.759,2.21 0.1,3.014c0.86,0.803 2.21,0.758 3.014,-0.101Z"/></g><g id="Eye"><path d="M256.233,823.832c-1.022,-1.475 -2.061,-4.295 -2.785,-7.636c-0.607,-2.797 -1.024,-5.909 -1.053,-8.952c-0.009,-1.608 0.326,-3.129 0.916,-4.627c1.524,-3.87 4.253,-7.612 6.292,-12.12c2.417,-5.023 5.245,-9.542 8.352,-13.213c3.835,-4.531 8.008,-7.763 11.684,-9.491c3.723,-1.703 6.464,-2.728 8.996,-3.35c3,-0.736 5.691,-0.839 9.384,-0.908c1.322,-0.024 2.996,0.072 4.517,0.554c0.806,0.255 1.534,0.708 1.925,1.51c1.102,2.019 3.635,2.763 5.654,1.661c2.018,-1.102 2.762,-3.635 1.66,-5.654c-1.373,-2.261 -3.329,-3.789 -5.674,-4.598c-2.797,-0.964 -6.055,-1.027 -8.519,-0.774c-4.253,0.431 -7.331,0.869 -10.729,1.982c-2.774,0.909 -5.77,2.229 -9.794,4.424c-3.415,1.825 -7.114,4.873 -10.715,8.892c-1.713,1.912 -3.404,4.045 -5.06,6.355c-2.24,3.124 -4.423,6.567 -6.327,10.337c-2.359,4.475 -5.317,8.157 -7.154,11.994c-1.04,2.173 -1.714,4.4 -1.896,6.799c-0.343,4.259 -0.027,8.693 0.579,12.472c0.606,3.777 1.648,6.896 2.669,8.74c1.213,1.954 3.784,2.554 5.738,1.341c1.953,-1.213 2.554,-3.785 1.34,-5.738Z"/><path d="M322.544,716.387c0.47,2.789 1.54,5.349 2.84,7.825c2.736,5.209 6.841,9.709 8.579,14.437c0.865,2.252 1.324,5.597 1.628,9.158c0.157,1.843 0.189,3.743 0.209,5.612c0.03,2.769 0.258,5.449 -0.652,7.72c-1.036,1.877 -0.353,4.242 1.524,5.278c1.877,1.036 4.242,0.353 5.278,-1.524c2.353,-3.287 3.798,-7.603 4.118,-12.19c0.17,-2.435 -0.141,-4.918 -0.568,-7.255c-0.762,-4.178 -2.118,-7.915 -3.487,-10.472c-1.197,-2.192 -2.78,-4.324 -4.635,-6.414c-2.193,-2.47 -4.678,-4.9 -6.742,-7.659c-1.33,-1.777 -2.535,-3.621 -3.264,-5.744c-0.339,-1.332 -1.695,-2.139 -3.028,-1.8c-1.332,0.339 -2.139,1.695 -1.8,3.028Z"/><path d="M265.126,797.925c4.554,-6.871 16.719,-10.972 23.666,-9.768c3.614,0.627 8.312,2.766 11.474,3.167c2.724,0.345 6.739,0.511 9.322,-0.126c3.209,-0.791 7.072,-2.35 9.932,-4.621c2.867,-2.276 5.395,-7.826 7.268,-9.035c1.22,-0.787 3.446,0.431 3.972,1.783c0.555,1.424 0.898,3.714 -0.647,6.76c-0.92,1.815 -4.113,5.134 -6.725,7.346c-1.761,1.492 -5.425,4.774 -9.486,5.388c-3.781,0.572 -9.592,0.264 -12.233,2.013c-2.641,1.749 -3.97,4.849 -3.074,9.019c0.729,3.397 -2.616,7.648 -5.262,9.908c-2.127,1.816 -4.922,2.848 -8.306,1.778c-1.3,-0.411 -2.886,-2.071 -3.476,-3.295c-1.437,-2.985 -1.04,-14.068 -5.902,-14.503c-2.479,-0.222 -5.018,3.218 -5.515,5.203c-1.68,6.712 2.319,17.09 3.199,21.747c0.594,3.141 0.226,9.243 -0.103,11.34c-0.472,3.012 -3.527,6.391 -7.531,3.01c-1.098,-0.927 -1.64,-6.265 -2.417,-9.27c-0.818,-3.165 -2.218,-6.974 -2.871,-10.53c-0.869,-4.741 -0.902,-9.721 -0.556,-13.665c0.341,-3.891 2.577,-9.584 5.271,-13.649Z"/><path d="M285.299,836.212c-1.011,-2.991 4.335,-4.296 7.138,-5.29c3.299,-1.17 8.027,-4.331 10.549,-7.361c2.523,-3.03 3.447,-9.378 4.585,-10.82c0.584,-0.739 2.325,-0.5 2.8,0.313c0.547,0.936 1.41,3.413 1.23,4.794c-0.18,1.382 -1.109,2.896 -1.783,3.973c-0.595,0.95 -4.388,8.434 -8.094,10.996c-6.401,4.426 -14.868,7.998 -16.425,3.395Z" style="fill-rule:nonzero;"/></g><g id="Mane"><path id="path5117" d="M347.537,617.971c5.533,18.538 -10.075,23.087 -5.615,48.485c2.175,12.388 -26.763,-26.416 -28.067,-17.928c-2.552,16.624 -28.424,19.346 -3.784,37.7c15.173,11.302 -46.745,-1.757 -30.799,14.571c11.701,11.981 -61.437,-6.515 -43.014,-55.966c12.761,-34.251 38.083,-56.782 63.996,-64.965c18.423,-5.817 32.358,-0.205 37.815,8.727c6.041,9.888 6.8,20.436 9.468,29.376Z" style="fill:#cc7832;stroke:#000;stroke-width:16.16px;stroke-linejoin:miter;stroke-miterlimit:4;"/><path d="M333.111,611.657c-4.408,10.653 -8.134,21.939 -8.454,32.996c-0.251,8.651 2.063,16.779 7.103,24.613c2.913,3.56 8.167,4.086 11.727,1.173c3.56,-2.912 4.085,-8.166 1.173,-11.726c-4.487,-4.361 -7.18,-9.357 -8.329,-15.055c-1.979,-9.816 -0.801,-20.526 0.906,-30.822c0.326,-1.139 -0.335,-2.328 -1.473,-2.653c-1.139,-0.326 -2.328,0.335 -2.653,1.474Z"/><path id="path51171" serif:id="path5117" d="M861.941,935.722c-11.4,-13.525 -16.36,-10.686 -24.019,-27.176c-1.392,12.535 -3.89,41.951 19.44,76.004c23.8,34.739 -20.75,-2.001 -39.866,-26.03c7.197,35.817 5.565,63.77 -3.254,77.978c-19.21,30.947 -46.596,38.249 -37.03,14.296c7.127,-17.845 -19.879,-17.928 -21.332,-31.318c-2.31,-21.284 -31.426,13.796 -28.284,-14.656c1.185,-10.733 -8.787,-23.203 -17.177,-37.173c-8.365,13.068 -1.471,68.553 -16.272,44.368c-10.772,-17.604 -5.304,-33.05 -16.433,-56.729c-6.317,24.975 -32.708,52.47 -26.751,29.601c6.963,-26.729 -22.561,-8.273 -22.186,-39.262c0.258,-21.359 -25.13,-27.717 -34.604,-3.706c-11.671,29.575 -29.932,-31.683 -29.497,-45.737c-11.885,14.796 -23.663,37.622 -30.67,5.863c-2.853,-12.931 3.308,-49.928 -21.58,-31.088c-10.226,7.741 -41.277,-38.373 -52.835,-80.619c-5.782,-21.136 -32.692,-15.923 -36.179,-43.943c-4.087,-32.842 16.406,-95.328 -4.997,-141.65c-4.686,-10.142 -16.48,-19.019 -19.337,-32.827c17.459,1.132 31.484,-0.335 50.396,1.94c28.806,3.465 64.565,17.479 105.908,41.886c19.375,11.438 86.428,60.164 150.175,114.416c45.573,38.785 99.6,71.281 118.294,82.419c57.017,33.967 48.338,107.838 73.765,141.735c20.379,27.166 -21.31,-1.548 -35.675,-18.592Z" style="fill:#cc7832;stroke:#000;stroke-width:16.16px;stroke-linejoin:miter;stroke-miterlimit:4;"/><path d="M301.731,617.263c-0.831,5.815 -3.345,11.081 -5.92,16.493c-2.795,5.876 -5.549,11.743 -7.097,18.137c-2.059,8.507 -1.44,17.58 3.707,28.5c2.37,3.942 7.494,5.218 11.436,2.848c3.942,-2.369 5.218,-7.494 2.848,-11.435c-4.88,-6.525 -6.594,-12.414 -6.383,-18.318c0.445,-12.468 6.421,-23.977 5.698,-36.048c0.048,-1.184 -0.873,-2.184 -2.056,-2.233c-1.184,-0.048 -2.184,0.873 -2.233,2.056Z"/><path d="M271.579,673.533c-4.08,-11.608 -7.374,-26.598 -6.553,-40.689c0.495,-8.481 2.817,-16.405 7.736,-22.754c2.493,-3.865 1.38,-9.027 -2.485,-11.52c-3.865,-2.494 -9.027,-1.38 -11.52,2.485c-5.093,9.621 -6.754,20.677 -5.443,32.116c1.735,15.144 7.863,30.535 14.353,42.128c0.488,1.08 1.76,1.561 2.839,1.073c1.08,-0.487 1.561,-1.76 1.073,-2.839Z"/><path d="M258.006,678.528c-0.98,-10.72 -3.878,-24.675 -1.834,-39.05c1.043,-7.332 3.712,-14.555 8.771,-21.517c2.35,-3.953 1.049,-9.071 -2.904,-11.421c-3.953,-2.351 -9.071,-1.05 -11.422,2.903c-4.792,10.063 -6.557,19.876 -6.147,29.458c0.658,15.388 6.214,29.42 9.315,40.408c0.216,1.165 1.337,1.935 2.501,1.719c1.165,-0.215 1.935,-1.336 1.72,-2.5Z"/><path id="path51172" serif:id="path5117" d="M718.417,968.795c1.491,-9.85 1.624,-18.956 0.932,-27.787c-1.554,-19.827 -7.177,-38.038 -8.138,-60.281c-0.498,-11.528 -2.063,-20.572 -4.294,-28.338c-6.123,-21.313 -17.213,-32.494 -22.862,-60.09c-0.198,-1.161 -1.302,-1.944 -2.464,-1.746c-1.161,0.198 -1.944,1.302 -1.746,2.463c3.805,27.898 14.089,39.796 18.782,61.459c1.579,7.287 2.45,15.711 2.203,26.356c-0.518,22.307 3.872,40.895 4.107,60.826c0.091,7.744 -0.537,15.683 -2.409,24.19c-0.814,4.385 2.086,8.605 6.471,9.419c4.384,0.813 8.605,-2.086 9.418,-6.471Z"/><path id="path51173" serif:id="path5117" d="M808.562,851.241c9.138,3.793 13.728,9.917 16.693,18.697c3.511,10.399 4.745,24.237 7.599,42.164c0.66,3.279 3.857,5.406 7.136,4.746c3.279,-0.66 5.406,-3.858 4.746,-7.137c-5.525,-22.655 -8.189,-39.042 -15.14,-49.886c-4.299,-6.707 -10.03,-11.546 -18.891,-14.404c-1.606,-0.591 -3.39,0.233 -3.981,1.839c-0.592,1.606 0.232,3.39 1.838,3.981Z"/><path id="path51174" serif:id="path5117" d="M821.249,954.429c-4.783,-11.631 -9.595,-23.077 -13.206,-35.807c-3.166,-11.163 -5.441,-23.256 -5.96,-37.301c0.006,-1.622 -1.307,-2.944 -2.929,-2.949c-1.622,-0.006 -2.943,1.307 -2.949,2.929c-0.641,14.7 0.725,27.511 3.089,39.427c2.652,13.366 6.623,25.519 10.569,37.855c1.146,3.143 4.628,4.763 7.77,3.616c3.142,-1.146 4.762,-4.628 3.616,-7.77Z"/><path id="path51175" serif:id="path5117" d="M790.461,1060.29c2.696,-17.017 1.371,-31.154 -2.012,-44.043c-3.423,-13.044 -8.887,-24.74 -14.061,-36.901c-6.668,-15.674 -12.805,-32.138 -12.258,-53.909c0.123,-2.309 -1.651,-4.283 -3.959,-4.406c-2.309,-0.124 -4.283,1.65 -4.407,3.959c-3.223,39.396 14.947,63.469 21.219,94.388c2.279,11.236 2.737,23.446 -0.406,37.934c-0.822,4.383 2.069,8.609 6.453,9.431c4.383,0.822 8.609,-2.069 9.431,-6.453Z"/><path id="path51176" serif:id="path5117" d="M797.749,1052.19c7.881,-22.018 9.216,-41.062 6.804,-58.65c-2.686,-19.583 -9.971,-37.288 -17.786,-55.223c-0.652,-1.607 -2.485,-2.382 -4.092,-1.731c-1.607,0.652 -2.382,2.486 -1.73,4.092c6.623,17.608 12.845,34.942 14.462,53.879c1.382,16.179 -0.733,33.513 -8.961,53.258c-1.208,3.12 0.345,6.632 3.464,7.839c3.119,1.208 6.632,-0.345 7.839,-3.464Z"/><path id="path51177" serif:id="path5117" d="M747.979,823.493c1.755,11.743 6.463,42.762 6.494,72.31c0.018,17.44 -1.559,34.355 -6.576,46.182c-5.294,12.479 -7.242,25.416 -6.822,37.565c0.489,14.13 4.277,27.182 9.813,37.297c1.65,2.909 5.352,3.932 8.261,2.281c2.909,-1.65 3.931,-5.352 2.281,-8.261c-5.03,-8.561 -8.559,-19.717 -9.35,-31.865c-0.696,-10.694 0.674,-22.146 5.004,-33.284c5.028,-12.934 6.411,-31.222 5.818,-50.052c-0.944,-29.985 -6.66,-61.321 -8.804,-73.183c-0.279,-1.688 -1.876,-2.833 -3.565,-2.554c-1.688,0.278 -2.833,1.876 -2.554,3.564Z"/><path id="path51178" serif:id="path5117" d="M678.928,793.352c2.416,11.445 9.678,32.376 11.608,54.351c1.042,11.862 0.499,24.035 -3.434,35.07c-7.9,22.165 -12.244,32.552 -14.248,43.311c-1.555,8.352 -1.72,16.923 -0.937,31.133c0.243,3.336 3.149,5.847 6.485,5.604c3.335,-0.243 5.847,-3.148 5.604,-6.484c-1.171,-12.932 -1.385,-20.753 -0.235,-28.418c1.563,-10.417 5.48,-20.529 12.329,-42.117c3.925,-12.372 4.185,-25.864 2.568,-38.958c-2.75,-22.282 -10.828,-43.326 -13.696,-54.88c-0.383,-1.668 -2.048,-2.712 -3.716,-2.329c-1.668,0.383 -2.711,2.048 -2.328,3.717Z"/><path id="path51179" serif:id="path5117" d="M659.364,971.479c-2.255,-12.568 -2.402,-26.668 -1.391,-41.237c2.495,-35.948 11.592,-74.328 13.386,-99.523c0.126,-1.111 -0.673,-2.116 -1.785,-2.243c-1.111,-0.126 -2.116,0.674 -2.243,1.785c-3.927,25.093 -16.27,62.782 -21.809,98.589c-2.427,15.692 -3.465,30.988 -2.17,44.812c0.602,4.418 4.679,7.517 9.098,6.914c4.418,-0.602 7.517,-4.679 6.914,-9.097Z"/><path id="path511710" serif:id="path5117" d="M627.032,777.1c3.539,22.336 1.429,45.606 -3.274,67.403c-9.767,45.266 -30.838,84.152 -36.809,95.237c-1.539,2.97 -0.376,6.63 2.593,8.168c2.97,1.539 6.631,0.377 8.169,-2.593c5.768,-11.591 26.109,-52.259 34.642,-99.102c4.161,-22.837 5.541,-47.119 1.108,-70.238c-0.311,-1.775 -2.003,-2.963 -3.777,-2.652c-1.774,0.31 -2.962,2.003 -2.652,3.777Z"/><path id="path511711" serif:id="path5117" d="M627.032,777.1c2.715,17.197 3.549,33.751 3.365,49.5c-0.563,48.411 -10.522,89.318 -6.643,117.953c0.505,3.306 3.599,5.581 6.905,5.077c3.307,-0.504 5.581,-3.598 5.077,-6.905c-4.754,-28.022 3.9,-68.557 2.866,-116.166c-0.351,-16.138 -1.772,-33.063 -5.141,-50.584c-0.311,-1.775 -2.003,-2.963 -3.777,-2.652c-1.774,0.31 -2.962,2.003 -2.652,3.777Z"/><path id="path511712" serif:id="path5117" d="M570.831,903.466c13.138,-38.628 19.785,-73.119 22.229,-103.097c3.778,-46.339 -2.368,-81.698 -9.757,-104.357c-0.316,-1.073 -1.443,-1.688 -2.516,-1.372c-1.073,0.316 -1.688,1.443 -1.373,2.517c5.907,22.467 9.901,57.221 3.601,102.098c-4.056,28.886 -12.43,61.906 -27.326,98.565c-1.558,4.178 0.569,8.836 4.748,10.394c4.178,1.558 8.836,-0.57 10.394,-4.748Z"/><path id="path511713" serif:id="path5117" d="M538.626,870.913c-11.592,-33.28 -15.37,-59.217 -15.362,-80.807c0.014,-35.366 9.802,-59.052 11.629,-83.269c0.127,-1.142 -0.697,-2.172 -1.838,-2.298c-1.141,-0.127 -2.171,0.696 -2.298,1.838c-3.582,24.352 -15.099,47.612 -17.648,83.366c-1.614,22.655 0.388,50.158 10.078,85.942c1.317,4.261 5.845,6.651 10.106,5.334c4.261,-1.317 6.65,-5.846 5.333,-10.106Z"/><path id="path511714" serif:id="path5117" d="M540.342,893.734c8.719,-30.154 11.057,-54.774 10.224,-75.671c-1.097,-27.561 -7.705,-48.6 -12.422,-67.299c-3.876,-15.364 -6.474,-29.088 -3.232,-43.67c0.269,-1.152 -0.448,-2.305 -1.6,-2.574c-1.151,-0.269 -2.305,0.448 -2.573,1.6c-3.723,15.219 -1.415,29.675 2.31,45.872c4.24,18.44 10.34,39.208 10.846,66.266c0.379,20.262 -2.407,44.062 -11.47,73.096c-0.657,2.185 0.584,4.491 2.769,5.148c2.184,0.657 4.491,-0.584 5.148,-2.768Z"/><path id="path511715" serif:id="path5117" d="M461.532,781.762c-0.327,-6.038 0.875,-13.268 2.918,-21.119c7.828,-30.096 27.515,-68.693 27.338,-86.508c0.01,-1.167 -0.93,-2.122 -2.098,-2.131c-1.167,-0.01 -2.122,0.93 -2.132,2.098c-0.454,17.627 -21.486,55.041 -30.293,84.534c-2.587,8.665 -4.118,16.687 -3.994,23.425c0.083,2.28 2.001,4.064 4.28,3.981c2.28,-0.083 4.064,-2.001 3.981,-4.28Z"/><path id="path511716" serif:id="path5117" d="M480.087,828.721c-0.775,-20.139 0.106,-47.569 2.026,-73.963c2.163,-29.743 5.626,-58.157 9.537,-73.313c0.303,-1.111 -0.353,-2.26 -1.465,-2.563c-1.111,-0.303 -2.26,0.353 -2.563,1.464c-4.377,15.22 -8.692,43.856 -11.707,73.875c-2.673,26.626 -4.316,54.327 -4.092,74.705c0.057,2.281 1.954,4.086 4.235,4.03c2.28,-0.057 4.086,-1.954 4.029,-4.235Z"/><path id="path511717" serif:id="path5117" d="M432.392,760.031c9.107,-25.892 13.999,-51.232 16.462,-73.461c4.825,-43.559 0.363,-75.093 0.363,-75.093c-0.145,-1.142 -1.192,-1.952 -2.334,-1.806c-1.143,0.146 -1.953,1.192 -1.807,2.335c0,-0 3.522,31.113 -2.395,73.794c-3.004,21.667 -8.452,46.313 -18.049,71.381c-0.786,2.142 0.314,4.519 2.455,5.305c2.142,0.787 4.519,-0.314 5.305,-2.455Z"/></g><g id="Details"><path d="M444.564,850.471c-4.884,10.219 -6.878,20.183 -11.035,29.632c-2.291,5.207 -5.461,10.033 -10.392,14.696c-3.07,3.425 -2.781,8.698 0.643,11.768c3.425,3.069 8.698,2.781 11.768,-0.644c4.045,-5.34 6.859,-10.532 8.731,-15.93c4.094,-11.807 4.001,-23.745 7.735,-36.689c0.782,-2.056 -0.253,-4.36 -2.309,-5.141c-2.056,-0.782 -4.36,0.252 -5.141,2.308Z"/><path d="M392.46,888.61c0.917,0.778 7.292,-1.538 12.932,-6.524c5.444,-5.309 10.55,-12.641 10.848,-17.263c0.238,-4.372 -4.075,-5.973 -6.607,-4.655c-2.595,1.577 -2.894,6.202 -4.046,9.796c-1.156,3.592 -2.901,6.209 -5.747,9.938c-3.364,3.606 -7.969,7.735 -7.38,8.708Z" style="fill-rule:nonzero;"/><path d="M390.178,899.116c-1.229,1.639 -0.492,5.413 3.035,6.825c3.395,0.829 9.974,-0.057 15.618,-3.939c5.71,-4.137 10.689,-10.937 14.625,-17.997c3.74,-7.386 6.367,-14.765 6.288,-17.827c-0.347,-3.127 -3.406,-1.934 -5.859,1.336c-2.525,3.527 -4.709,9.082 -7.152,14.57c-2.509,5.75 -5.478,11.108 -8.786,13.346c-3.31,2.235 -7.027,1.603 -10.291,1.361c-3.322,0.022 -6.188,0.424 -7.478,2.325Z" style="fill-rule:nonzero;"/><path d="M930.848,1362.63c5.289,-8.829 3.783,56.238 14.835,64.483c4.593,3.426 -32.605,30.587 -37.847,58.92c-2.123,11.474 -5.379,-36.959 -0.905,-66.134c3.883,-25.325 20.43,-51.45 23.917,-57.269Z"/><path d="M989.051,1421.89c-9.114,-10.198 -14.019,-22.551 -15.817,-34.6c-2.26,-15.146 -0.061,-29.687 4.719,-38.731c1.197,-2.026 0.524,-4.643 -1.502,-5.841c-2.026,-1.197 -4.643,-0.524 -5.84,1.502c-6.54,9.955 -10.859,26.531 -9.911,44.336c0.791,14.858 5.51,30.382 15.411,43.838c2.898,3.571 8.151,4.117 11.722,1.218c3.571,-2.898 4.117,-8.151 1.218,-11.722Z"/><path d="M1032.77,1412.8c-0,-0 -10.712,-15.034 -14.275,-32.073c-1.553,-7.425 -1.966,-15.189 0.87,-22.154c1.025,-2.118 0.137,-4.671 -1.981,-5.696c-2.119,-1.025 -4.671,-0.137 -5.696,1.982c-4.669,8.256 -5.604,17.998 -4.858,27.537c1.576,20.152 11.693,39.053 11.693,39.053c2.387,3.931 7.516,5.185 11.448,2.799c3.931,-2.387 5.186,-7.517 2.799,-11.448Z"/><path d="M1073.69,1404.85c-0,0 -8.471,-11.552 -8.4,-24.363c0.029,-5.231 1.241,-10.68 5.341,-15.498c1.664,-1.664 1.664,-4.367 -0,-6.031c-1.664,-1.664 -4.367,-1.664 -6.031,0c-6.849,5.829 -9.819,13.183 -11.05,20.518c-2.819,16.796 5.744,33.775 5.744,33.775c2.319,3.972 7.426,5.315 11.398,2.997c3.972,-2.318 5.316,-7.425 2.998,-11.398Z"/><path d="M1114.81,1404.15c-4.319,-4.98 -8.662,-11.274 -10.819,-17.806c-1.453,-4.402 -2.322,-8.702 -1.132,-12.521c0.929,-2.163 -0.074,-4.672 -2.237,-5.601c-2.162,-0.928 -4.672,0.075 -5.6,2.237c-2.878,5.165 -3.312,11.6 -2.541,18.408c0.977,8.635 4.628,17.573 8.681,24.848c2.639,3.767 7.84,4.681 11.607,2.042c3.766,-2.64 4.681,-7.841 2.041,-11.607Z"/><path d="M926.441,1099.01c0.253,9.437 -2.53,52.183 -9.406,88.681c-2.891,15.349 -6.45,29.578 -10.887,39.672c-2.635,5.994 -5.289,10.519 -8.611,12.293c-2.105,1.052 -2.959,3.616 -1.907,5.721c1.053,2.105 3.616,2.959 5.721,1.907c8.737,-4.079 16.944,-20.773 23.234,-42.225c11.579,-39.496 18.224,-94.939 18.522,-106.049c0,-4.599 -3.734,-8.333 -8.333,-8.333c-4.599,-0 -8.333,3.734 -8.333,8.333Z"/><path d="M964.287,1159.43c-0.449,11.277 -10.655,40.789 -22.718,69.386c-12.334,29.237 -26.447,57.59 -35.096,64.348c-1.892,1.399 -2.293,4.071 -0.894,5.964c1.399,1.892 4.071,2.293 5.964,0.894c9.57,-6.685 26.734,-35.649 41.497,-66c14.615,-30.045 26.744,-61.388 27.877,-73.483c0.306,-4.59 -3.172,-8.564 -7.761,-8.87c-4.589,-0.306 -8.563,3.172 -8.869,7.761Z"/><path d="M982.604,1208.59c-0.867,12.217 -4.098,27.224 -8.519,41.339c-4.932,15.746 -11.144,30.353 -17.154,38.622c-1.47,1.838 -1.171,4.523 0.666,5.993c1.838,1.471 4.524,1.172 5.994,-0.666c7.263,-8.265 15.477,-23.245 22.328,-39.632c6.174,-14.766 11.083,-30.632 13.238,-43.709c0.537,-4.568 -2.735,-8.713 -7.303,-9.25c-4.568,-0.537 -8.712,2.735 -9.25,7.303Z"/><path d="M944.629,1303.17c-2.184,2.88 -3.609,5.529 -4.637,8.253c-0.85,2.254 -1.295,4.404 -2.588,6.287c-0.835,1.216 -1.813,2.43 -3.58,3.361c-1.659,0.604 -2.516,2.44 -1.913,4.099c0.603,1.659 2.44,2.516 4.099,1.913c3.343,-0.721 5.543,-2.218 7.48,-3.837c3.62,-3.026 5.055,-7.503 9.978,-11.237c2.439,-2.439 2.439,-6.4 -0,-8.839c-2.439,-2.439 -6.4,-2.439 -8.839,0Z"/><path d="M1002.59,994.484c5.322,5.155 14.187,14.922 22.14,26.87c6.343,9.529 12.193,20.297 15.142,31.171c0.489,2.302 2.754,3.775 5.057,3.287c2.302,-0.489 3.774,-2.754 3.286,-5.057c-1.882,-12.193 -6.886,-24.641 -12.625,-35.785c-7.166,-13.914 -15.613,-25.558 -20.753,-31.791c-3.119,-3.379 -8.396,-3.59 -11.776,-0.471c-3.379,3.12 -3.59,8.396 -0.471,11.776Z"/><path d="M1043.17,993.696c3.384,8.878 9.426,24.443 15.502,39.175c4.027,9.766 8.021,19.102 11.266,25.88c0.891,2.178 3.383,3.223 5.561,2.332c2.179,-0.891 3.224,-3.383 2.333,-5.562c-2.39,-6.973 -5.213,-16.526 -8.024,-26.501c-4.282,-15.199 -8.437,-31.215 -10.745,-40.343c-1.385,-4.385 -6.07,-6.822 -10.456,-5.437c-4.386,1.385 -6.822,6.071 -5.437,10.456Z"/><path d="M1081.14,1000.75c2.927,5.477 5.745,9.334 8.444,12.916c2.455,3.259 4.808,6.105 6.383,10.489c1.481,4.123 2.514,9.334 2.708,17.021c-0.142,2.349 1.65,4.372 3.999,4.514c2.349,0.143 4.372,-1.649 4.514,-3.998c1.338,-9.073 1.069,-15.409 0.169,-20.555c-1.781,-10.185 -6.964,-15.042 -10.898,-26.952c-1.811,-4.227 -6.714,-6.189 -10.942,-4.377c-4.227,1.812 -6.188,6.715 -4.377,10.942Z"/><path d="M1109.75,1011.67c1.439,2.035 2.831,4.638 3.984,7.623c3.205,8.303 5.595,18.068 7.884,23.371c0.676,2.254 3.055,3.535 5.309,2.859c2.255,-0.676 3.536,-3.055 2.859,-5.309c-1.005,-5.668 -1.07,-15.688 -2.278,-24.475c-0.631,-4.589 -1.777,-8.705 -3.126,-12.05c-2.203,-4.038 -7.269,-5.528 -11.307,-3.326c-4.037,2.203 -5.527,7.269 -3.325,11.307Z"/><path d="M602.6,1118.56c7.471,12.593 11.006,24.167 12.546,35.402c4.244,30.963 -4.747,59.202 9.398,95.246c0.794,2.216 3.237,3.37 5.453,2.576c2.215,-0.794 3.369,-3.237 2.575,-5.453c-11.747,-36.142 -0.937,-63.295 -3.281,-93.88c-1.008,-13.147 -4.311,-26.827 -12.11,-41.963c-2.227,-4.024 -7.303,-5.483 -11.327,-3.255c-4.023,2.228 -5.482,7.303 -3.254,11.327Z"/><path d="M750.5,1232.16c-4.463,10.661 -6.404,24.168 -6.213,38.404c0.256,19.086 3.942,39.358 8.744,54.762c0.598,2.276 2.932,3.638 5.208,3.04c2.276,-0.598 3.638,-2.932 3.04,-5.208c-3.198,-14.875 -4.971,-34.223 -3.587,-52.168c0.919,-11.921 3.335,-23.128 7.876,-31.706c1.965,-4.158 0.186,-9.13 -3.972,-11.096c-4.158,-1.966 -9.13,-0.186 -11.096,3.972Z"/><path d="M749.651,1448.7c-5.825,-15.431 -9.838,-30.126 -11.992,-44.216c-2.42,-15.826 -2.56,-30.852 -0.362,-45.233c2.732,-17.875 -1.283,-33.083 -6.501,-48.255c-4.691,-13.641 -10.351,-27.237 -11.576,-43.192c-0.84,-10.927 0.401,-22.965 5.483,-36.91c0.845,-2.197 -0.252,-4.666 -2.448,-5.512c-2.196,-0.845 -4.666,0.252 -5.511,2.448c-6.165,15.2 -7.949,28.457 -7.455,40.559c0.692,16.931 6.022,31.569 10.469,46.183c4.094,13.453 7.425,26.87 4.471,42.441c-2.967,15.636 -3.424,32.069 -1.399,49.467c1.766,15.174 5.479,31.073 11.126,47.826c1.547,4.331 6.319,6.592 10.65,5.045c4.332,-1.547 6.592,-6.32 5.045,-10.651Z"/><path d="M1797.15,1057.67c-4.391,-15.059 -19.316,-50.213 -44.413,-76.333c-13.913,-14.48 -30.831,-26.247 -50.714,-30.438c-2.288,-0.551 -4.593,0.86 -5.144,3.148c-0.551,2.288 0.86,4.593 3.148,5.144c17.666,4.79 32.215,16.328 43.983,30.065c21.751,25.389 33.76,58.514 37.013,72.621c1.161,4.451 5.717,7.121 10.167,5.96c4.45,-1.161 7.121,-5.716 5.96,-10.167Z"/><path d="M1795.71,1101.13c4.091,7.941 20.825,44.925 22.59,81.643c0.913,19.003 -2.065,37.951 -13.38,52.48c-1.497,1.816 -1.238,4.506 0.578,6.003c1.816,1.497 4.506,1.238 6.003,-0.578c13.639,-15.645 18.423,-36.703 18.58,-58.144c0.288,-39.363 -15.446,-79.891 -19.349,-88.624c-1.993,-4.145 -6.976,-5.893 -11.121,-3.9c-4.145,1.992 -5.893,6.975 -3.901,11.12Z"/><path d="M1842.16,1251.12c-2.057,7.939 -2.71,14.611 -3.147,20.801c-0.437,6.198 -0.556,11.752 -2.705,17.603c-2.132,5.806 -6.031,11.878 -13.716,19.173c-1.804,1.511 -2.042,4.203 -0.531,6.007c1.511,1.805 4.203,2.043 6.007,0.532c10.247,-7.55 15.621,-14.368 19.027,-20.97c5.85,-11.337 4.705,-22.35 10.908,-37.969c1.428,-4.371 -0.961,-9.081 -5.333,-10.509c-4.372,-1.429 -9.081,0.961 -10.51,5.332Z"/><path d="M1711.28,1051.44c1.57,11.973 3.695,28.495 3.665,43.76c-0.021,10.542 -0.893,20.408 -3.956,27.469c-1.053,2.105 -0.199,4.669 1.906,5.721c2.105,1.053 4.669,0.199 5.721,-1.906c4.351,-7.63 6.762,-18.663 8.094,-30.619c1.759,-15.79 1.458,-33.123 1.189,-45.689c-0.349,-4.586 -4.355,-8.026 -8.941,-7.677c-4.586,0.348 -8.026,4.355 -7.678,8.941Z"/><path d="M1739.69,1106.96c-0.261,14.192 2.896,30.873 1.081,48.174c-0.994,9.474 -3.441,19.122 -9.101,28.582c-1.309,1.956 -0.782,4.607 1.174,5.915c1.956,1.308 4.607,0.782 5.915,-1.175c7.532,-10.125 11.435,-20.83 13.655,-31.506c3.6,-17.321 2.193,-34.514 3.904,-48.847c0.315,-4.589 -3.154,-8.57 -7.743,-8.885c-4.588,-0.316 -8.569,3.154 -8.885,7.742Z"/><path d="M1757.45,1237.29c1.089,-4.663 2.309,-8.939 3.795,-13.129c2.405,-6.785 5.118,-13.095 7.968,-19.876c1.149,-2.054 0.415,-4.655 -1.639,-5.804c-2.053,-1.15 -4.654,-0.416 -5.803,1.638c-4.428,6.167 -8.602,11.897 -12.584,18.17c-2.674,4.212 -5.08,8.583 -7.438,13.41c-1.543,4.333 0.722,9.103 5.055,10.646c4.333,1.543 9.103,-0.722 10.646,-5.055Z"/><path d="M1756.43,1293.29c9.572,-5.399 17.654,-14.791 24.048,-26.267c7.96,-14.287 13.662,-31.432 18.015,-45.473c0.811,-2.21 -0.324,-4.662 -2.533,-5.473c-2.21,-0.811 -4.662,0.325 -5.473,2.534c-5.479,12.857 -12.462,28.556 -21.376,41.294c-5.775,8.255 -12.392,15.099 -20.116,18.468c-4.116,2.052 -5.793,7.06 -3.741,11.176c2.052,4.116 7.06,5.792 11.176,3.741Z"/><path d="M1771.65,1160.45c-3.469,7.187 -5.938,10.835 -6.507,15.583c-0.388,3.237 -0.434,6.725 1.041,11.852c0.271,2.337 2.389,4.016 4.727,3.745c2.338,-0.271 4.016,-2.389 3.745,-4.727c0.173,-3.482 0.873,-5.646 1.798,-7.565c0.595,-1.235 1.625,-2.031 2.658,-3.154c1.627,-1.771 3.62,-3.559 6.155,-6.124c2.652,-3.758 1.754,-8.962 -2.003,-11.614c-3.758,-2.652 -8.962,-1.754 -11.614,2.004Z"/><path d="M1726.78,1249.92c-1.313,4.028 -2.278,6.839 -2.44,9.507c-0.292,4.803 0.05,7.113 0.05,7.113c-0,2.353 1.911,4.264 4.264,4.264c2.354,0 4.264,-1.911 4.264,-4.264c0,-0 1.009,-1.188 3.176,-3.648c1.029,-1.168 2.478,-1.953 4.248,-3.285c2.673,-3.743 1.805,-8.952 -1.937,-11.625c-3.743,-2.673 -8.952,-1.805 -11.625,1.938Z"/><path d="M1753.84,1323.7c-20.477,16.663 -28.191,32.587 -40.498,44.621c-3.053,2.986 -6.402,5.726 -10.454,8.089c-15.082,8.794 -46.929,9.769 -66.165,16.265c-7.876,2.66 -13.871,6.24 -16.827,11.006c-1.291,1.968 -0.741,4.613 1.227,5.904c1.969,1.291 4.614,0.741 5.905,-1.228c2.249,-3.247 6.844,-5.105 12.479,-6.697c11.305,-3.193 26.699,-4.355 40.707,-6.348c11.278,-1.604 21.676,-3.843 28.899,-7.581c5.194,-2.687 9.547,-5.873 13.536,-9.399c12.535,-11.079 20.691,-26.271 41.382,-41.445c3.64,-2.812 4.311,-8.05 1.499,-11.689c-2.812,-3.639 -8.05,-4.311 -11.69,-1.498Z"/><path d="M1724.12,1426.42c2.852,-0.447 6.047,-1.629 9.309,-3.953c3.683,-2.625 7.803,-6.65 12.089,-11.742c15.723,-18.682 35.243,-52.256 53.666,-64.147c2.024,-1.2 2.694,-3.818 1.494,-5.843c-1.199,-2.025 -3.817,-2.694 -5.842,-1.494c-5.736,3.109 -11.695,7.986 -17.735,13.807c-13.798,13.296 -27.897,31.76 -39.893,44.621c-3.648,3.91 -7.087,7.226 -10.221,9.629c-1.827,1.4 -3.378,2.456 -4.814,2.569c-4.568,0.538 -7.84,4.683 -7.303,9.25c0.538,4.568 4.683,7.84 9.25,7.303Z"/><path d="M1528.3,1414.64c-4.702,-29.402 -4.58,-46.099 -15.938,-60.098c-8.551,-10.541 -23.654,-19.82 -53.261,-31.327c-2.164,-0.927 -4.672,0.077 -5.6,2.24c-0.927,2.163 0.077,4.672 2.24,5.599c26.054,12.237 39.495,21.026 46.573,31.085c4.03,5.728 5.649,11.882 6.67,19.304c1.294,9.409 1.457,20.659 2.778,35.265c0.57,4.563 4.739,7.805 9.302,7.235c4.564,-0.57 7.806,-4.739 7.236,-9.303Z"/><path d="M1511.46,1402.69c-40.956,9.687 -62.296,15.887 -86.796,20.922c-15.993,3.287 -33.259,6.086 -58.305,9.025c-3.52,0.268 -6.16,3.343 -5.893,6.863c0.268,3.52 3.343,6.161 6.863,5.893c25.774,-0.903 43.606,-2.323 60.182,-4.337c24.967,-3.032 46.864,-7.481 88.703,-13.822c6.773,-1.312 11.207,-7.876 9.895,-14.649c-1.312,-6.773 -7.876,-11.207 -14.649,-9.895Z"/><path d="M462.49,1479.38c-12.867,4.239 -22.613,10.729 -30.025,20.02c-6.477,8.12 -11.352,18.213 -14.896,30.698c-3.065,10.802 -4.251,19.39 -4.145,26.901c0.142,9.982 2.331,17.984 5.21,26.525c0.813,2.827 3.768,4.462 6.596,3.649c2.827,-0.812 4.462,-3.768 3.65,-6.595c-1.809,-7.56 -3.172,-14.593 -2.517,-23.178c0.487,-6.38 2.223,-13.558 5.655,-22.486c3.751,-9.76 8.234,-17.6 14.021,-23.644c5.703,-5.957 12.912,-9.705 22.069,-11.828c5.536,-1.55 8.772,-7.303 7.222,-12.84c-1.55,-5.536 -7.303,-8.772 -12.84,-7.222Z"/><path d="M711.284,1447.65c6.191,-1.388 -73.884,-59.787 -75.039,-52.379c-1.515,9.712 -0.784,19.345 -6.843,15.152c-13.591,-9.408 -9.325,16.204 -5.124,28.951c2.8,8.495 25.737,13.114 9.217,17.491c-7.181,1.902 -13.275,20.587 -7.056,15.69c17.541,-13.813 55.333,-18.29 84.845,-24.905Z"/><path d="M608.546,1456.81c0.933,-8.398 0.066,-16.565 -1.181,-24.668c-1.055,-6.856 -2.391,-13.518 -1.694,-20.193c0.512,-4.91 1.875,-9.808 5.431,-14.651c1.926,-2.224 1.684,-5.593 -0.54,-7.519c-2.224,-1.925 -5.593,-1.683 -7.519,0.541c-6.028,5.927 -9.037,12.414 -10.852,19.117c-3.719,13.732 -0.041,28.82 -4.1,43.42c-1.091,5.645 2.606,11.113 8.251,12.204c5.644,1.091 11.113,-2.606 12.204,-8.251Z"/><path d="M574.659,1446.54c0,0 -2.068,-6.266 -1.129,-14.922c0.511,-4.709 1.576,-10.002 4.286,-15.395c1.289,-1.969 0.736,-4.614 -1.233,-5.903c-1.969,-1.288 -4.614,-0.736 -5.903,1.234c-4.754,5.724 -7.517,11.78 -9.439,17.293c-3.966,11.379 -3.012,20.491 -3.012,20.491c0.772,4.534 5.08,7.588 9.614,6.816c4.534,-0.772 7.588,-5.08 6.816,-9.614l0,0Z"/><path d="M840.975,1667.68c1.875,9.031 4.025,24.16 9.225,39.099c3.116,8.95 7.002,17.756 12.608,25.194c1.85,3.006 5.793,3.945 8.8,2.095c3.006,-1.85 3.945,-5.793 2.095,-8.8c-3.443,-6.992 -5.178,-14.861 -6.337,-22.705c-2.168,-14.675 -1.401,-28.995 -1.544,-37.644c-0.762,-6.857 -6.947,-11.805 -13.804,-11.043c-6.857,0.762 -11.805,6.947 -11.043,13.804Z"/><path d="M882.996,1992.7c10.555,-4.101 27.406,-12.778 42.75,-17.695c6.678,-2.14 13.007,-3.615 18.327,-3.478c1.761,0.127 3.293,-1.199 3.42,-2.96c0.126,-1.76 -1.2,-3.293 -2.961,-3.419c-5.956,-0.705 -13.219,0.205 -20.934,1.915c-15.868,3.518 -33.607,10.648 -44.589,13.79c-3.27,1.1 -5.031,4.648 -3.93,7.917c1.1,3.269 4.647,5.03 7.917,3.93Z"/><path d="M517.607,1942.16c0.746,-2.183 1.504,-5.643 1.648,-10.444c0.17,-5.685 0.072,-14.2 3.192,-24.817c2.478,-8.434 6.552,-18.097 14.053,-28.646c2.291,-2.686 1.97,-6.727 -0.716,-9.018c-2.685,-2.291 -6.726,-1.97 -9.017,0.716c-10.761,10.574 -17.346,20.876 -21.911,30.047c-7.943,15.956 -7.974,28.18 -10.104,32.03c-2.796,6.307 0.055,13.697 6.362,16.493c6.306,2.796 13.697,-0.054 16.493,-6.361Z"/><path d="M868.202,2066.33c7.024,-2.791 13.469,-7.487 19.508,-13.116c7.008,-6.532 13.405,-14.175 21.17,-18.055c4.682,-2.34 9.794,-3.362 15.919,-1.122c2.684,1.205 5.841,0.004 7.046,-2.679c1.205,-2.684 0.004,-5.841 -2.679,-7.046c-9.212,-4.952 -17.562,-4.471 -25.526,-1.825c-8.083,2.686 -15.611,8.386 -23.281,13.936c-5.968,4.318 -11.942,8.484 -18.452,10.048c-5.481,1.737 -8.52,7.597 -6.782,13.077c1.737,5.481 7.597,8.52 13.077,6.782Z"/><path d="M1354.43,2000.95c-8.307,-7.256 -17.414,-11.144 -29.973,-10.577c-10.121,0.457 -22.626,3.509 -39.112,9.511c-2.836,0.782 -4.503,3.719 -3.721,6.555c0.782,2.836 3.72,4.504 6.556,3.721c15.334,-2.935 26.736,-4.067 35.692,-3.033c6.971,0.805 11.71,3.631 15.643,8.368c4.013,4.116 10.614,4.199 14.73,0.185c4.116,-4.013 4.199,-10.614 0.185,-14.73Z"/><path d="M1860.67,2013.37c-12.136,-5.731 -22.267,-6.35 -31.762,-3.33c-7.779,2.474 -15.084,7.005 -22.455,12.453c-8.118,6.001 -16.326,12.948 -26.752,16.508c-3.418,0.884 -5.475,4.376 -4.591,7.794c0.884,3.418 4.376,5.475 7.794,4.591c17.297,-3.095 31.033,-14.123 45.013,-19.159c6.507,-2.343 12.939,-2.152 20.392,2.874c5.997,3.411 13.635,1.312 17.046,-4.685c3.411,-5.997 1.312,-13.635 -4.685,-17.046Z"/><path d="M1445.05,1919.1c-12.223,-0.765 -27.208,-4.224 -39.78,-4.844c-7.766,-0.383 -14.629,0.066 -19.78,2.512c-2.758,1.022 -4.168,4.091 -3.147,6.85c1.022,2.759 4.091,4.169 6.85,3.147c3.927,-1.07 8.783,-0.174 14.191,1.073c12.338,2.845 26.561,8.931 38.528,11.858c5.684,0.866 11.001,-3.045 11.867,-8.729c0.866,-5.683 -3.045,-11.001 -8.729,-11.867Z"/><path d="M1564.03,1662.28c2.545,10.264 7.432,18.41 13.474,24.56c7.654,7.792 16.408,12.507 22.168,14.637c2.132,0.997 4.672,0.075 5.669,-2.057c0.997,-2.132 0.075,-4.672 -2.056,-5.669c-4.407,-2.526 -10.916,-7.556 -16.091,-14.961c-3.579,-5.122 -6.124,-11.52 -6.709,-19.161c-0.732,-4.541 -5.012,-7.633 -9.553,-6.902c-4.541,0.732 -7.633,5.013 -6.902,9.553Z"/><path d="M1740.56,1522.63c-19.228,8.456 28.735,-57.922 37.23,-75.097c8.115,-16.405 -7.209,36.95 11.251,29.47c16.481,-6.679 35.361,23.959 26.546,23.29c-35.38,-2.684 -58.937,15.261 -75.027,22.337Z"/><path d="M1756.54,1545.46c13.641,-4.993 31.029,-11.973 47.481,-15.111c11.298,-2.155 22.059,-2.702 30.522,1.087c2.1,1.064 4.668,0.223 5.731,-1.876c1.064,-2.1 0.223,-4.668 -1.876,-5.731c-9.606,-5.461 -22.381,-6.415 -36.028,-5.147c-17.387,1.615 -36.146,7.05 -50.802,10.87c-4.39,1.372 -6.84,6.049 -5.468,10.439c1.372,4.39 6.05,6.841 10.44,5.469Z"/><path d="M1833.37,1658.93c5.202,10.737 11.243,16.856 18.564,20.474c9.787,4.838 21.623,5.076 35.932,7.301c2.295,0.524 4.583,-0.914 5.106,-3.209c0.523,-2.294 -0.914,-4.582 -3.209,-5.106c-12.4,-3.758 -22.992,-5.056 -31.06,-10.564c-4.4,-3.004 -7.479,-7.686 -9.863,-15.097c-1.711,-4.269 -6.566,-6.346 -10.836,-4.635c-4.269,1.711 -6.346,6.567 -4.634,10.836Z"/><path d="M1911.56,1969.43c-9.434,-5.879 -18.087,-11.377 -29.573,-14.06c-8.831,-2.063 -19.016,-2.958 -32.357,-0.814c-3.525,0.196 -6.228,3.217 -6.032,6.741c0.196,3.525 3.216,6.228 6.741,6.032c10.9,0.527 18.83,2.797 25.465,5.897c8.45,3.949 14.066,9.851 20.407,15.937c5.446,4.236 13.306,3.253 17.541,-2.192c4.236,-5.446 3.253,-13.306 -2.192,-17.541Z"/><path d="M1832.49,1919.36c10.9,-5.533 19.153,-12.893 26.004,-21.484c9.592,-12.029 16.447,-26.146 25.377,-39.166c1.432,-1.868 1.079,-4.547 -0.789,-5.979c-1.868,-1.432 -4.547,-1.078 -5.979,0.79c-10.015,11.721 -18.082,24.759 -28.637,35.45c-6.251,6.33 -13.473,11.627 -22.722,15.148c-4.206,1.862 -6.109,6.788 -4.247,10.994c1.862,4.205 6.788,6.108 10.993,4.247Z"/><path d="M465.276,807.79c-4.367,-9.213 6.436,46.496 11.925,56.691c5.49,10.195 12.089,36.945 7.384,49.492c-4.706,12.548 5.847,3.175 15.257,10.233c9.411,7.058 5.686,11.372 12.854,18.994c7.17,7.625 -2.879,-21.147 1.826,-36.832c4.706,-15.684 27.749,-35.742 10.475,-40.417c-11.006,-2.98 -10.958,15.605 -27.58,-2.553c-15.334,-16.751 -28.25,-47.398 -32.141,-55.608Z"/><path d="M650.986,980.276c-13.272,-6.481 -4.235,17.037 -14.303,32.124c-5.857,8.777 52.557,-18.106 50.765,-25.511c-2.229,-9.211 -3.96,-20.549 -9.481,-30.587c-5.521,-10.038 1.46,37.859 -26.981,23.974Z"/><path d="M703.553,1017.03c0.391,12.696 34.285,40.104 30.292,29.088c-4.813,-13.28 -14.007,-26.389 -11.071,-37.853c2.498,-9.753 -6.504,-19.317 -10.998,-39.054c-2.406,-10.564 -8.892,26.07 -8.223,47.819Z"/><path d="M517.689,1533.76c16.732,-3.748 -30.487,17.994 -30.917,43.766c-0.401,24.091 -3.682,45.552 -1.606,57.417c2.811,16.061 -10.841,-30.114 -19.273,-38.144c-8.432,-8.031 -15.963,-18.428 -5.22,-34.13c5.22,-7.628 7.65,-3.947 24.493,-14.053c8.03,-4.818 14.125,-10.734 32.523,-14.856Z"/><path d="M499.265,1730.26c8.747,16.613 47.68,51.444 46.425,69.638c-1.254,18.194 16.94,15.057 11.293,29.487c-5.646,14.429 2.847,28.357 -8.088,27.634c-23.357,-1.542 -46.686,-13.576 -33.319,-31.398c11.293,-15.057 9.411,-27.605 -0.627,-37.643c-10.038,-10.038 -29.282,-83.542 -15.684,-57.718Z"/><path d="M963.101,1881.05c2.118,32.37 4.193,67.697 -0.709,82.401c-4.901,14.704 -22.929,18.309 -31.039,29.552c-7.582,10.512 10.639,21.935 4.757,36.639c-5.882,14.704 -35.202,89.661 -17.179,75.255c16.724,-13.368 30.566,-20.565 49.437,-18.261c12.65,1.544 4.877,-8.371 0.615,-19.334c-4.417,-11.362 -10.783,-25.488 -23.527,-37.251c-12.743,-11.763 9.803,-21.566 31.369,-24.507c18.067,-2.463 8.823,-41.171 8.823,-57.836c-0,-16.664 -24.665,-99.029 -22.547,-66.658Z"/><path d="M1886.5,1908.52c-16.696,5.681 -35.133,5.019 -44.544,15.057c-9.41,10.038 -10.665,21.959 -20.076,27.605c-9.41,5.646 -16.939,13.802 5.647,6.901c22.585,-6.901 18.193,-14.43 36.387,-24.468c18.194,-10.038 48.967,-34.071 22.586,-25.095Z"/></g></g></g><path d="M2362.65,107.661c0,574.324 0,1109.67 0,1548.81c0,755.378 -550.934,1235.87 -1163.55,1235.87c-612.616,0 -1163.55,-480.491 -1163.55,-1235.87c-0,-454.118 -0,-974.486 -0,-1548.81l2327.1,-0Z" style="fill:none;stroke:#000;stroke-width:20.83px;"/></svg>