<svg height="629.58679" width="500" xmlns="http://www.w3.org/2000/svg"><g transform="translate(6 -139.41322)"><path d="m1.0247934 146.438v371.64509c0 134.69784 108.7836966 243.89212 242.9751966 243.89212 134.19152 0 242.97522-109.19428 242.97522-243.89212v-371.64509z" fill="#fff"/><g fill-rule="evenodd" stroke="#000" stroke-width="2.429752"><path d="m1.0247934 170.73552 40.4958676 26.92003v93.1405l80.991739 53.84169v-93.1405l80.99173 53.84331v93.14049l80.99174 53.84088v-93.1405l80.99173 53.84169v93.14049l80.99174 53.84169v-93.1405l40.49587 26.92085v-347.34764h-485.9504166z" fill="#0f47af"/><path d="m41.520661 197.65555 16.198347 10.77029v85.04051l64.793392 43.07221v8.09918l-80.991743-53.84169z"/><path d="m203.50415 305.34055 16.19834 10.77028v85.04051l64.79339 43.0714v8.09918l-80.99175-53.84088z"/><path d="m365.48762 413.02311 16.19834 10.77028v85.04051l64.79339 43.07222v8.09917l-80.99175-53.84169z"/></g><path d="m-1 144.41322v2.0248 371.65082c0 135.78802 109.71008 245.91116 245 245.91116s245-110.12315 245-245.91116v-371.65082-2.0248h-2.02479-485.9504166zm4.0495868 4.04959h481.9008232v369.62603c0 133.60768-107.85731 241.86157-240.95041 241.86157s-240.9504132-108.25388-240.9504132-241.86157z"/></g></svg>