<?xml version="1.0" encoding="UTF-8" standalone="no"?>
<svg
   inkscape:version="1.1.1 (3bf5ae0d25, 2021-09-20)"
   sodipodi:docname="CoA Meran.svg"
   id="svg2130"
   version="1.1"
   viewBox="0 0 408.33998 514.51703"
   height="514.51703"
   width="408.34"
   xmlns:inkscape="http://www.inkscape.org/namespaces/inkscape"
   xmlns:sodipodi="http://sodipodi.sourceforge.net/DTD/sodipodi-0.dtd"
   xmlns="http://www.w3.org/2000/svg"
   xmlns:svg="http://www.w3.org/2000/svg">
  <defs
     id="defs2124" />
  <sodipodi:namedview
     inkscape:pagecheckerboard="false"
     fit-margin-bottom="5"
     fit-margin-right="5"
     fit-margin-left="5"
     fit-margin-top="5"
     lock-margins="true"
     units="px"
     inkscape:snap-smooth-nodes="true"
     inkscape:snap-object-midpoints="true"
     inkscape:window-maximized="1"
     inkscape:window-y="-11"
     inkscape:window-x="-11"
     inkscape:window-height="1506"
     inkscape:window-width="2560"
     showgrid="false"
     inkscape:document-rotation="0"
     inkscape:current-layer="layer1"
     inkscape:document-units="px"
     inkscape:cy="257.33333"
     inkscape:cx="204"
     inkscape:zoom="1.5"
     inkscape:pageshadow="2"
     inkscape:pageopacity="0"
     borderopacity="1.0"
     bordercolor="#666666"
     pagecolor="#333333"
     id="base"
     showguides="true"
     inkscape:guide-bbox="true"
     inkscape:snap-intersection-paths="false"
     inkscape:object-paths="true"
     inkscape:snap-grids="false"
     inkscape:snap-global="true"
     inkscape:lockguides="false"
     guidecolor="#00ffff"
     guideopacity="0.49803922"
     inkscape:snap-to-guides="false"
     inkscape:snap-midpoints="false">
  </sodipodi:namedview>
  <g
     transform="translate(21060.754,22049.02)"
     id="layer1"
     inkscape:groupmode="layer"
     inkscape:label="meran">
    <g
       id="g11393"
       inkscape:label="coa"
       transform="translate(555.503,-618.19)">
      <path
         style="opacity:1;fill:#ffffff;fill-opacity:1;stroke:none;stroke-width:2;stroke-linecap:butt;stroke-linejoin:miter;stroke-miterlimit:4;stroke-dasharray:none;stroke-opacity:1"
         d="m -21213.917,-21424.83 v 298.988 c 0,131.766 -108.241,203.529 -198.17,203.529 -89.929,0 -198.17,-71.763 -198.17,-203.529 v -298.988 z"
         id="path94111"
         sodipodi:nodetypes="cszscc"
         inkscape:label="coa-0" />
      <g
         id="g11340"
         inkscape:label="eagle">
        <path
           style="opacity:1;fill:#da121a;fill-opacity:1;stroke:#000000;stroke-width:1;stroke-linecap:butt;stroke-linejoin:round;stroke-miterlimit:4;stroke-dasharray:none;stroke-opacity:1"
           d="m -21315.504,-21158.02 c -11.6,-8.047 -9.514,-27.043 -2.75,-37 3.663,-5.392 5.36,-11.923 5.668,-19.403 0.175,-4.242 1.507,-4.587 1.969,-0.39 0.859,7.796 -2.465,15.911 -5.72,23.96 -8.065,19.944 1.07,33.438 9.5,31.5 -11.628,-7.091 -10.203,-20.924 -2.334,-42.75 1.539,-4.27 2.081,-9.167 1.376,-14.158 -0.806,-5.714 0.595,-6.297 1.926,-0.712 1.191,4.998 1.056,11.167 -1.135,18.786 -6.377,22.176 -6.625,31.38 6.466,38.35 10.716,5.707 27.565,2.209 31.117,-6.266 -14.901,-2.033 -19.008,-17.056 -18.5,-37.917 0.301,-12.345 -0.268,-24.402 -3.688,-35.195 -1.248,-3.942 -0.162,-4.644 1.665,-0.96 3.066,6.177 4.735,16.05 5.19,30.822 0.824,26.727 4.965,32.212 10.917,34.36 8.757,3.161 17.459,-1.796 15.416,-7.277 -11.552,4.377 -20.444,-2.414 -22.75,-25.5 -1.817,-18.193 -1.81,-29.695 -6.991,-37.012 -4.062,-5.738 -1.843,-7.961 1.877,-1.608 3.276,5.597 6.666,14.239 7.281,28.537 1.931,44.888 52.026,28.49 43.917,-9.667 -22,13.683 -40.538,-18.946 -46.746,-44.116 -1.418,-5.751 -0.672,-5.904 1.292,-0.313 18.344,52.244 48.639,44.671 45.537,29.929 -16.316,15.573 -37.256,-7.412 -44.831,-38.037 -1.769,-7.149 -0.829,-7.335 1.653,-0.397 20.152,56.334 52.417,40.489 50.095,5.017 -14.753,9.851 -33.177,-7.548 -41.834,-27.083 -1.844,-4.162 -4.004,-8.062 -6.347,-11.823 -3.225,-5.18 -2.242,-6.024 1.382,-1.133 1.603,2.164 3.127,4.534 4.632,7.123 22.963,39.505 44.397,26.453 41.667,15.833 -15.1,10.92 -31.454,-3.339 -39.334,-18.417 -1.67,-3.195 -4.018,-5.638 -6.055,-8.24 -4.825,-6.164 -3.396,-7.589 1.931,-1.858 2.496,2.686 4.604,5.88 6.791,9.015 21.295,30.519 52.915,10.121 36.018,-14.817 -6.813,9.045 -20.411,7.753 -36.18,-7.837 -4.802,-4.748 -7.424,-7.117 -10.514,-8.989 -1.396,-0.845 -1.236,-2.249 0.361,-2.056 2.068,0.25 4.368,1.948 7.737,5.506 18.549,19.589 43.294,14.041 39.716,0.589 -7.198,9.672 -22.654,9.594 -34.943,-1.355 -3.413,-3.04 -6.904,-6.262 -12.339,-8.773 -1.872,-0.864 -1.841,-2.269 0.169,-2.009 3.172,0.41 7.01,3.151 12.406,7.011 21.578,15.436 43.223,5.047 33.587,-27.283 -9.295,10.675 -26.085,10.225 -42.988,7.443 -6.922,-1.14 -6.99,-2.478 -0.01,-1.739 23.461,2.482 42.038,-4.91 39.055,-19.433 -8.796,14.376 -20.724,18.56 -39.261,17.277 -7.7,-0.532 -7.526,-2.857 0.153,-2.275 27.53,2.088 46.676,-24.164 32.98,-46.351 -8.7,13.5 -27.354,29.208 -46.846,31.407 -0.721,-3.729 -1.915,-6.041 -3.3,-7.778 -4.344,8.587 -12.53,11.481 -22.863,11.196 -36.839,-0.564 -38.961,34.205 -22.156,50.087 -1.236,75.992 -56.72,91.805 -56.568,53.504 9.283,2.998 14.827,-0.226 16.027,-9.192 -11.044,1.999 -18.182,-9.308 -17.324,-24.16 15.292,1.563 15.537,-17.914 11.785,-21.92 -9.248,11.11 -17.074,-0.268 -18.384,-18.738 -0.603,-8.501 -2.372,-10.241 -4.361,-11.668 1.89,-5.225 2.504,-10.449 0.943,-15.674 0,0 -12.649,10.953 -25.574,8.25 -10.773,-2.253 -16.983,-4.653 -19.425,9.31 21.613,18.763 21.585,55.872 -1.414,48.083 0.491,7.038 2.152,13.458 13.788,14.614 -1.828,8.484 -5.764,14.235 -16.027,11.785 -0.782,7.672 8.407,12.023 15.085,10.152 -0.124,38.38 -55.429,22.476 -53.781,-54.346 16.805,-15.882 14.683,-50.651 -22.156,-50.087 -10.333,0.285 -18.519,-2.609 -22.863,-11.196 -1.385,1.737 -2.579,4.049 -3.3,7.778 -19.492,-2.199 -38.146,-17.907 -46.846,-31.407 -13.696,22.187 5.45,48.439 32.98,46.351 7.679,-0.582 7.853,1.743 0.153,2.275 -18.537,1.283 -30.465,-2.901 -39.261,-17.277 -2.983,14.523 15.594,21.915 39.055,19.433 6.98,-0.739 6.912,0.599 -0.01,1.739 -16.903,2.782 -33.693,3.232 -42.988,-7.443 -9.636,32.33 12.009,42.719 33.587,27.283 5.396,-3.86 9.234,-6.601 12.406,-7.011 2.01,-0.26 2.041,1.145 0.169,2.009 -5.435,2.511 -8.926,5.733 -12.339,8.773 -12.289,10.949 -27.745,11.027 -34.943,1.355 -3.578,13.452 21.167,19 39.716,-0.589 3.369,-3.558 5.669,-5.256 7.737,-5.506 1.597,-0.193 1.757,1.211 0.361,2.056 -3.09,1.872 -5.712,4.241 -10.514,8.989 -15.769,15.59 -29.367,16.882 -36.18,7.837 -16.897,24.938 14.723,45.336 36.018,14.817 2.187,-3.135 4.295,-6.329 6.791,-9.015 5.327,-5.731 6.756,-4.306 1.931,1.858 -2.037,2.602 -4.385,5.045 -6.055,8.24 -7.88,15.078 -24.234,29.337 -39.334,18.417 -2.73,10.62 18.704,23.672 41.667,-15.833 1.505,-2.589 3.029,-4.959 4.632,-7.123 3.624,-4.891 4.607,-4.047 1.382,1.133 -2.343,3.761 -4.503,7.661 -6.347,11.823 -8.657,19.535 -27.081,36.934 -41.834,27.083 -2.322,35.472 29.943,51.317 50.095,-5.017 2.482,-6.938 3.422,-6.752 1.653,0.397 -7.575,30.625 -28.515,53.61 -44.831,38.037 -3.102,14.742 27.193,22.315 45.537,-29.929 1.964,-5.591 2.71,-5.438 1.292,0.313 -6.208,25.17 -24.746,57.799 -46.746,44.116 -8.109,38.157 41.986,54.555 43.917,9.667 0.615,-14.298 4.005,-22.94 7.281,-28.537 3.72,-6.353 5.939,-4.13 1.877,1.608 -5.181,7.317 -5.174,18.819 -6.991,37.012 -2.306,23.086 -11.198,29.877 -22.75,25.5 -2.043,5.481 6.659,10.438 15.416,7.277 5.952,-2.148 10.093,-7.633 10.917,-34.36 0.455,-14.772 2.124,-24.645 5.19,-30.822 1.827,-3.684 2.913,-2.982 1.665,0.96 -3.42,10.793 -3.989,22.85 -3.688,35.195 0.508,20.861 -3.599,35.884 -18.5,37.917 3.552,8.475 20.401,11.973 31.117,6.266 13.091,-6.97 12.843,-16.174 6.466,-38.35 -2.191,-7.619 -2.326,-13.788 -1.135,-18.786 1.331,-5.585 2.732,-5.002 1.926,0.712 -0.705,4.991 -0.163,9.888 1.376,14.158 7.869,21.826 9.294,35.659 -2.334,42.75 8.43,1.938 17.565,-11.556 9.5,-31.5 -3.255,-8.049 -6.579,-16.164 -5.72,-23.96 0.462,-4.197 1.794,-3.852 1.969,0.39 0.308,7.48 2.005,14.011 5.668,19.403 6.764,9.957 8.85,28.953 -2.75,37 13.299,7.953 39.194,-2.307 26.875,-41.208 12.673,16.677 12.785,42.017 -10.427,48.432 -10.705,5.236 -17.118,3.627 -22.615,-1.766 -1.01,8.544 1.675,13.534 6.359,16.441 2.623,2.418 7.22,4.488 12.84,3.612 10.085,0.968 21.884,-0.344 29.624,1.073 5.689,-17.206 21.856,-14.74 22.761,-30.041 2.785,2.933 5.488,5.697 8.083,7.708 11.632,9.015 7.491,26.246 -2.333,23.458 -0.624,4.158 3.732,10.392 11.583,8.792 0.759,5.11 -16.937,19.606 -25.125,16.333 -1.259,9.275 6.928,14.998 19.792,10.792 8.987,33.618 -11.276,58.83 -46.65,45.601 -3.791,23.009 -53.757,15.945 -46.1,-7.226 -9.515,-0.53 -17.536,11.253 -9.792,21.583 0.528,0.704 0.502,1.281 0.292,1.875 -9.793,4.645 -13.358,13.763 -14.123,24.984 -1.189,17.439 12.552,31.476 32.645,31.112 27.345,-0.496 32.186,-39.705 9.428,-39.833 5.422,4.62 6.603,12.038 1.574,17.014 -1.438,1.422 -2.23,0.681 -1.863,-1.31 2.157,-11.706 -12.288,-15.44 -19.687,-8.339 -1.381,-8.817 7.316,-17.824 20.919,-14.495 6.168,1.509 17.942,1.246 28.951,-3.926 12.893,4.629 40.862,-5.327 51.323,-15.009 0.732,-0.678 1.642,-0.552 1.999,0.379 4.891,12.75 -3.35,29.224 -17.985,19.558 -3.504,20.677 18.628,16.344 20.8,10.488 0.971,4.475 -1.897,8.35 -6.187,12.905 -11.036,11.717 -4.641,23.776 3.889,37.889 4.206,6.959 6.783,16.847 9.244,26.971 0.271,1.115 0.707,1.115 0.978,0 2.461,-10.125 5.038,-20.013 9.244,-26.972 8.53,-14.113 14.925,-26.172 3.889,-37.889 -4.29,-4.555 -7.158,-8.43 -6.187,-12.905 2.172,5.856 24.304,10.189 20.8,-10.488 -14.635,9.666 -22.876,-6.808 -17.985,-19.558 0.357,-0.931 1.267,-1.057 1.999,-0.379 10.461,9.682 38.43,19.638 51.323,15.009 11.009,5.172 22.783,5.435 28.951,3.926 13.603,-3.329 22.3,5.678 20.919,14.495 -7.399,-7.101 -21.844,-3.367 -19.687,8.339 0.367,1.991 -0.425,2.732 -1.863,1.31 -5.029,-4.976 -3.848,-12.394 1.574,-17.014 -22.758,0.128 -17.917,39.337 9.428,39.833 20.093,0.364 33.834,-13.673 32.645,-31.112 -0.765,-11.221 -4.33,-20.339 -14.123,-24.984 -0.21,-0.594 -0.236,-1.171 0.292,-1.875 7.744,-10.33 -0.277,-22.113 -9.792,-21.583 7.657,23.171 -42.309,30.235 -46.1,7.226 -35.374,13.229 -55.637,-11.983 -46.65,-45.601 12.864,4.206 21.051,-1.517 19.792,-10.792 -8.188,3.273 -25.884,-11.223 -25.125,-16.333 7.851,1.6 12.207,-4.634 11.583,-8.792 -9.824,2.788 -13.965,-14.443 -2.333,-23.458 2.595,-2.011 5.298,-4.775 8.083,-7.708 0.905,15.301 17.072,12.835 22.761,30.041 7.74,-1.417 19.539,-0.105 29.624,-1.073 5.62,0.877 10.217,-1.193 12.84,-3.611 4.684,-2.907 7.369,-7.897 6.359,-16.441 -5.497,5.393 -11.91,7.002 -22.615,1.766 -23.212,-6.415 -23.1,-31.755 -10.427,-48.432 -12.319,38.901 13.576,49.161 26.875,41.208 z"
           id="path142157"
           sodipodi:nodetypes="cccccsscsscsssscsssscssssssssscsscsscsssscsssssccsssscsssscccccsccsccccccccccsscsscsssscsssscssssssssscsscsscsssscsssssccsssscssssccccccccsccccccscsscsscscssccssssssccsscscsscsscsccccccscccccccc"
           inkscape:label="eagle-0" />
        <g
           id="g11331"
           inkscape:label="face">
          <path
             id="path145652"
             style="fill:#fcdd09;fill-opacity:1;stroke:#000000;stroke-width:1;stroke-linecap:butt;stroke-linejoin:miter;stroke-miterlimit:4;stroke-dasharray:none;stroke-opacity:1"
             d="m -21447.353,-21362.487 -17.365,7.84 c -1.149,0.519 -1.696,1.887 -1.214,3.052 2.441,5.886 4.814,11.003 6.852,12.325 0.957,-8.073 7.095,-7.38 17.697,-6.793 0.77,0.04 1.537,0.684 1.711,1.435 l 2.084,8.969 c 0.172,0.739 -0.295,1.442 -1.047,1.551 -4.571,0.66 -9,0.746 -13.314,0.377 0.824,1.622 1.573,3.15 2.651,4.654 7.479,0.198 12.79,-0.175 17.752,-0.64 l 0.209,-0.02 c -0.01,-0.495 -0.05,-1.001 -0.08,-1.508 -0.692,-10.214 -6.036,-22.648 -15.935,-31.242 z"
             sodipodi:nodetypes="csscssssccsccsc"
             inkscape:label="bill" />
          <path
             style="fill:#da121a;fill-opacity:1;stroke:#000000;stroke-width:1;stroke-linejoin:round;stroke-miterlimit:4;stroke-dasharray:none"
             d="m -21438.663,-21340.286 c -5.907,-3.12 -12.081,-2.735 -18.528,2.974 -3.614,3.2 -9.981,3.172 -11.816,-2.204 -0.216,-0.633 -0.76,-0.865 -1.268,-0.43 -8.992,7.706 7.331,18.475 14.001,7.759 3.478,-5.588 8.926,-7.386 15.458,-6 1.214,0.258 1.92,0.04 2.586,-0.238 z"
             id="path1968"
             sodipodi:nodetypes="cssssscc"
             inkscape:label="tongue" />
          <path
             style="opacity:1;fill:#ffffff;fill-opacity:1;stroke:#000000;stroke-width:0.75;stroke-linecap:round;stroke-linejoin:round;stroke-miterlimit:4;stroke-dasharray:none"
             d="m -21432.465,-21361.491 c -0.681,1.863 0.421,3.608 4.046,3.471 2.568,-0.1 5.234,-0.796 4.031,-4.063 -2.434,-0.265 -5.363,0.356 -8.077,0.592 z"
             id="path6819"
             sodipodi:nodetypes="cscc"
             inkscape:label="eye" />
          <path
             style="opacity:1;fill:none;fill-opacity:1;stroke:#000000;stroke-width:1;stroke-linecap:round;stroke-linejoin:round;stroke-miterlimit:4;stroke-dasharray:none"
             d="m -21437.501,-21363.77 c 0.07,1.501 0.476,3.027 7.5,2 6.875,-1.005 7.899,0.217 9.5,1.333"
             id="path3746"
             sodipodi:nodetypes="csc"
             inkscape:label="brow" />
        </g>
        <path
           id="path143497"
           style="opacity:1;fill:#fcdd09;fill-opacity:1;stroke:#000000;stroke-width:1;stroke-linecap:butt;stroke-linejoin:round;stroke-miterlimit:4;stroke-dasharray:none;stroke-opacity:1"
           d="m -21464.128,-21229.787 c -29.619,-9.567 -61.201,-48.871 -55.382,-94.618 0.117,-0.921 -0.404,-1.249 -1.246,-0.859 -11.537,5.345 -20.41,-13.123 -5.244,-18.956 -2.12,-18.186 23.37,-16.539 19.327,-0.118 17.103,2.186 8.625,25.635 -5.421,19.446 -5.397,45.434 21.932,75.635 47.966,87.445 z m 104.082,0 c 29.619,-9.567 61.201,-48.871 55.382,-94.618 -0.117,-0.921 0.404,-1.249 1.246,-0.859 11.537,5.345 20.41,-13.123 5.244,-18.956 2.12,-18.186 -23.37,-16.539 -19.327,-0.118 -17.103,2.186 -8.625,25.635 5.421,19.446 5.397,45.434 -21.932,75.635 -47.966,87.445 z"
           inkscape:label="kleestengels" />
      </g>
      <path
         id="path102440"
         style="opacity:1;fill:#999999;fill-opacity:1;stroke:#000000;stroke-width:1;stroke-linecap:butt;stroke-linejoin:round;stroke-miterlimit:4;stroke-dasharray:none;stroke-opacity:1"
         d="m -554.11719,893.07617 v 38.20313 c 2.98686,53.34929 24.13285,96.1233 54.1836,127.5352 v -35.295 c 0,-17.66 8.92309,-38.90858 32.87109,-46.97458 26.06,5.59 37.12305,27.93758 37.12305,45.80858 v 84.1485 c 10.69951,4.4274 21.60375,7.9128 32.52734,10.4101 v -98.7969 c 0,-49.53597 34.86808,-58.86203 41.08008,-61.16403 6.212,2.302 41.07812,11.62806 41.07812,61.16403 v 98.7969 c 10.92417,-2.4974 21.82925,-5.9824 32.5293,-10.4101 v -84.1485 c 0,-17.871 11.06305,-40.21858 37.12305,-45.80858 23.948,8.066 32.87109,29.31458 32.87109,46.97458 v 35.293 c 30.04973,-31.4117 51.19484,-74.18504 54.18164,-127.5332 v -38.20313 c -22.077,0 -29.44747,15.57783 -31.23047,17.67383 -1.783,-2.096 -9.15442,-17.67383 -31.23242,-17.67383 v 40.59961 h -51.93164 v -40.59961 c -19.702,0 -26.28009,15.57783 -27.87109,17.67383 -1.591,-2.096 -8.17105,-17.67383 -27.87305,-17.67383 v 44.0918 h -55.29102 v -44.0918 c -19.702,0 -26.28204,15.57783 -27.87304,17.67383 -1.591,-2.096 -8.1691,-17.67383 -27.8711,-17.67383 v 40.59961 h -51.93164 v -40.59961 c -22.078,0 -29.44942,15.57783 -31.23242,17.67383 -1.783,-2.096 -9.15347,-17.67383 -31.23047,-17.67383 z"
         transform="translate(-21055.754,-22044.02)"
         inkscape:label="bridge" />
      <path
         id="path114711"
         style="opacity:1;fill:#fcdd09;fill-opacity:1;stroke:#000000;stroke-width:1;stroke-linecap:butt;stroke-linejoin:miter;stroke-miterlimit:4;stroke-dasharray:none;stroke-opacity:1"
         inkscape:label="claws"
         d="m -21494.858,-21107.987 -4.849,2.005 c 0.917,2.055 3.268,4.039 2.138,9.014 6.607,0.471 6.473,-8.73 2.711,-11.019 z m -31.445,18.459 -6.208,-0.194 c -4.117,5.653 -2.499,10.089 3.299,9.783 -0.823,-4.686 1.555,-7.548 2.909,-9.589 z m -22.97,-13.229 c -1.589,1.515 -2.701,4.219 -2.477,8.116 -5.723,-0.689 -6.515,-7.684 -3.314,-10.848 z m 1.865,-24.44 c -2.843,0.119 -5.585,1.777 -8.35,4.803 -3.321,-5.993 0.844,-10.368 5.893,-10.961 z m 218.092,19.21 4.849,2.005 c -0.917,2.055 -3.268,4.039 -2.138,9.014 -6.607,0.471 -6.473,-8.73 -2.711,-11.019 z m 31.445,18.459 6.208,-0.194 c 4.117,5.653 2.499,10.089 -3.299,9.783 0.823,-4.686 -1.555,-7.548 -2.909,-9.589 z m 22.97,-13.229 c 1.589,1.515 2.701,4.219 2.477,8.116 5.723,-0.689 6.515,-7.684 3.314,-10.848 z m -1.865,-24.44 c 2.843,0.119 5.585,1.777 8.35,4.803 3.321,-5.993 -0.844,-10.368 -5.893,-10.961 z" />
      <path
         id="path114713"
         style="opacity:1;fill:#fcdd09;fill-opacity:1;stroke:#000000;stroke-width:1;stroke-linecap:butt;stroke-linejoin:round;stroke-miterlimit:4;stroke-dasharray:none;stroke-opacity:1"
         inkscape:label="feet"
         d="m -21495.638,-21132.51 c -4.908,-0.472 -9.41,-1.483 -12.84,-3.611 -6.08,9.105 -21.291,7.43 -28.983,1.529 -6.706,-5.144 -11.17,-4.421 -14.621,-0.527 -0.853,0.963 -0.456,2.294 0.549,3.095 1.449,1.156 2.474,2.712 2.667,5.055 0.05,0.621 0.483,0.906 1.062,0.677 7.352,-2.913 10.939,1.98 10.755,6.903 -1.734,-0.158 -2.991,0.331 -4.066,1.591 -2.034,2.382 -4.204,2.403 -5.951,2.975 -2.259,0.74 -4.213,2.194 -6.394,4.832 -2.319,2.805 -2.511,4.57 -0.147,5.745 1.724,0.857 3.569,1.405 5.539,1.709 1.258,0.194 3.406,-0.437 5.038,-2.563 2.336,-3.042 4.895,-3.534 7.307,-3.359 4.336,0.314 7.433,-0.443 9.428,-1.414 -0.224,0.533 -0.696,1.13 -0.972,1.826 -1.32,3.328 -2.317,6.668 -4.125,9.93 -5.067,5.463 -2.884,9.012 1.768,8.986 5.147,-0.03 7.574,-2.103 8.308,-6.453 0.231,-1.369 1.044,-2.395 1.945,-3.299 1.278,-1.282 1.661,-3.33 2.357,-5.746 1.583,-5.494 6.616,-8.444 15.232,-2.18 2.512,1.826 4.442,0.304 6.924,-1.178 0.654,-0.39 3.849,-6.334 -6.511,-9.988 -7.351,-2.592 2.616,-9.066 5.731,-14.535 z m 167.102,0 c 4.908,-0.472 9.41,-1.483 12.84,-3.611 6.08,9.105 21.291,7.43 28.983,1.529 6.706,-5.144 11.17,-4.421 14.621,-0.527 0.853,0.963 0.456,2.294 -0.549,3.095 -1.449,1.156 -2.474,2.712 -2.667,5.055 -0.05,0.621 -0.483,0.906 -1.062,0.677 -7.352,-2.913 -10.939,1.98 -10.755,6.903 1.734,-0.158 2.991,0.331 4.066,1.591 2.034,2.382 4.204,2.403 5.951,2.975 2.259,0.74 4.213,2.194 6.394,4.832 2.319,2.805 2.511,4.57 0.147,5.745 -1.724,0.857 -3.569,1.405 -5.539,1.709 -1.258,0.194 -3.406,-0.437 -5.038,-2.563 -2.336,-3.042 -4.895,-3.534 -7.307,-3.359 -4.336,0.314 -7.433,-0.443 -9.428,-1.414 0.224,0.533 0.696,1.13 0.972,1.826 1.32,3.328 2.317,6.668 4.125,9.93 5.067,5.463 2.884,9.012 -1.768,8.986 -5.147,-0.03 -7.574,-2.103 -8.308,-6.453 -0.231,-1.369 -1.044,-2.395 -1.945,-3.299 -1.278,-1.282 -1.661,-3.33 -2.357,-5.746 -1.583,-5.494 -6.616,-8.444 -15.232,-2.18 -2.512,1.826 -4.442,0.304 -6.924,-1.178 -0.654,-0.39 -3.849,-6.334 6.511,-9.988 7.351,-2.592 -2.616,-9.066 -5.731,-14.535 z" />
      <path
         style="opacity:1;fill:none;fill-opacity:1;stroke:#000000;stroke-width:2;stroke-linecap:butt;stroke-linejoin:miter;stroke-miterlimit:4;stroke-dasharray:none;stroke-opacity:1"
         d="m -21213.917,-21424.83 v 298.988 c 0,131.766 -108.241,203.529 -198.17,203.529 -89.929,0 -198.17,-71.763 -198.17,-203.529 v -298.988 z"
         id="path99790"
         sodipodi:nodetypes="cszscc"
         inkscape:label="coa-f" />
    </g>
  </g>
</svg>
