<?xml version="1.0" encoding="utf-8"?>
<!-- Generator: Adobe Illustrator 23.0.1, SVG Export Plug-In . SVG Version: 6.00 Build 0)  -->
<!DOCTYPE svg PUBLIC "-//W3C//DTD SVG 1.1//EN" "http://www.w3.org/Graphics/SVG/1.1/DTD/svg11.dtd" [
	<!ENTITY ns_extend "http://ns.adobe.com/Extensibility/1.0/">
	<!ENTITY ns_ai "http://ns.adobe.com/AdobeIllustrator/10.0/">
	<!ENTITY ns_graphs "http://ns.adobe.com/Graphs/1.0/">
	<!ENTITY ns_vars "http://ns.adobe.com/Variables/1.0/">
	<!ENTITY ns_imrep "http://ns.adobe.com/ImageReplacement/1.0/">
	<!ENTITY ns_sfw "http://ns.adobe.com/SaveForWeb/1.0/">
	<!ENTITY ns_custom "http://ns.adobe.com/GenericCustomNamespace/1.0/">
	<!ENTITY ns_adobe_xpath "http://ns.adobe.com/XPath/1.0/">
]>
<svg version="1.1" id="Livello_1" xmlns:x="&ns_extend;" xmlns:i="&ns_ai;" xmlns:graph="&ns_graphs;"
	 xmlns="http://www.w3.org/2000/svg" xmlns:xlink="http://www.w3.org/1999/xlink" x="0px" y="0px" width="576.3px" height="655.1px"
	 viewBox="0 0 576.3 655.1" style="enable-background:new 0 0 576.3 655.1;" xml:space="preserve">
<style type="text/css">
	.st0{fill:#FFFFFF;stroke:#000000;stroke-width:5;stroke-linecap:round;stroke-linejoin:round;}
	.st1{fill:#C1272D;stroke:#000000;stroke-width:5;stroke-linecap:round;stroke-linejoin:round;}
	.st2{fill:#77ABD6;stroke:#000000;stroke-width:5;stroke-linecap:round;stroke-linejoin:round;}
	.st3{fill:#F1D300;stroke:#000000;stroke-width:3.1218;stroke-linecap:round;stroke-linejoin:round;}
	.st4{stroke:#000000;stroke-width:3.1218;stroke-linecap:round;stroke-linejoin:round;}
	.st5{fill:#AFAEAA;stroke:#000000;stroke-width:4;stroke-linecap:round;stroke-linejoin:round;}
	.st6{fill:none;stroke:#000000;stroke-width:4;stroke-linecap:round;stroke-linejoin:round;}
	.st7{fill:#C1272D;stroke:#000000;stroke-width:4;stroke-linecap:round;stroke-linejoin:round;}
	.st8{fill:#FFFFFF;stroke:#000000;stroke-width:4;stroke-linecap:round;stroke-linejoin:round;}
	.st9{fill:#F1D300;stroke:#000000;stroke-width:4;stroke-linecap:round;stroke-linejoin:round;}
	.st10{fill:#F1D300;stroke:#000000;stroke-width:2;stroke-linecap:round;stroke-linejoin:round;}
	.st11{stroke:#000000;stroke-width:2;stroke-linecap:round;stroke-linejoin:round;}
	.st12{fill:#FFFFFF;stroke:#000000;stroke-width:2;stroke-miterlimit:10;}
	.st13{fill:none;}
	.st14{fill:#FFFFFF;stroke:#000000;stroke-miterlimit:10;}
	.st15{fill:#0071BC;stroke:#000000;stroke-width:2;stroke-linecap:round;stroke-linejoin:round;}
	.st16{fill:#FFFFFF;stroke:#000000;stroke-width:2;stroke-linecap:round;stroke-linejoin:round;}
	.st17{fill:#009245;stroke:#000000;stroke-width:2;stroke-linecap:round;stroke-linejoin:round;}
	.st18{fill:#EEE8C3;stroke:#1B1918;stroke-width:2.0954;stroke-linecap:round;stroke-linejoin:round;}
	.st19{fill:none;stroke:#1B1918;stroke-width:2.0954;stroke-linecap:round;stroke-linejoin:round;}
	.st20{fill:#F1D300;stroke:#1B1918;stroke-width:2.0954;stroke-linecap:round;stroke-linejoin:round;}
	.st21{fill:#1B1918;}
	.st22{fill:#FFFFFF;stroke:#000000;stroke-width:3;stroke-linecap:round;stroke-linejoin:round;}
</style>
<metadata>
	<sfw  xmlns="&ns_sfw;">
		<slices></slices>
		<sliceSourceBounds  bottomLeftOrigin="true" height="655.1" width="576.3" x="0" y="0"></sliceSourceBounds>
	</sfw>
</metadata>
<g>
	<g>
		<g>
			<path class="st0" d="M508.8,387.6c0,0.3,0.1,0.7,0.1,1.1C508.9,388.3,508.9,387.9,508.8,387.6z"/>
			<path class="st0" d="M507.2,396.2c-0.1,0.1-0.1,0.3-0.2,0.4C507.1,396.5,507.1,396.3,507.2,396.2z"/>
			<path class="st0" d="M506.4,397.9c-0.1,0.1-0.2,0.3-0.2,0.4C506.2,398.2,506.3,398.1,506.4,397.9z"/>
			<path class="st0" d="M508.6,386.2c0.1,0.3,0.1,0.6,0.2,0.9C508.7,386.8,508.7,386.5,508.6,386.2z"/>
			<path class="st0" d="M497.9,409.2c-0.1,0.1-0.1,0.1-0.2,0.2C497.8,409.3,497.8,409.2,497.9,409.2z"/>
			<path class="st0" d="M495.5,411.5c0,0-0.1,0.1-0.1,0.1C495.4,411.6,495.4,411.5,495.5,411.5z"/>
			<path class="st1" d="M369.3,640.5h-32.9c5.6,8,16.6,12.1,16.6,12.1h5.4c7.7,0,14.5-4.9,17-12.1c-0.1,0-0.2,0-0.3,0L369.3,640.5z"
				/>
			<path class="st2" d="M336.4,640.5h28.5c-6.6,0-11.9-5.4-11.9-11.9v0c0-5.5,3.8-10.2,9.1-11.6c-1.2-0.2-2.4-0.4-3.6-0.4h-19.3
				c-1.3,1.7-2.5,3.4-3.6,5.3C331.6,629.5,333,635.7,336.4,640.5z"/>
			<path class="st1" d="M375.3,628.6h-22.4v0c0,6.6,5.4,11.9,11.9,11.9h10.2c0.1,0,0.2,0,0.3,0c7.1-0.4,11.7-11.9,11.7-11.9
				L375.3,628.6z"/>
			<path class="st1" d="M352.9,628.6h22.4c-2.1-5.9-7.2-10.3-13.3-11.6C356.7,618.3,353,623.1,352.9,628.6z"/>
			<path class="st0" d="M489.5,395.8c-0.7-2.7-1.4-5.4-2.1-8.1C488.1,390.3,488.8,393,489.5,395.8z"/>
			<path class="st0" d="M487.4,387.4c-0.7-2.7-1.4-5.4-2-8C486,382.1,486.7,384.7,487.4,387.4z"/>
			<path class="st0" d="M491.5,403.1c-0.6-2.3-1.2-4.7-1.9-7C490.3,398.4,490.9,400.8,491.5,403.1z"/>
			<path class="st0" d="M507,383c0.4,0.9,1,1.9,1.5,3.2C508.3,385.1,507.8,384,507,383z"/>
			<path class="st0" d="M487.4,387.4l0,0.2c0.7,2.7,1.4,5.4,2.1,8.1c0,0.1,0.1,0.2,0.1,0.3c0.6,2.3,1.2,4.7,1.9,7
				c0.9,3.2,1.7,6.5,2.6,9.7c0.4-0.4,0.9-0.8,1.3-1.2c0,0,0.1-0.1,0.1-0.1c0.8-0.7,1.5-1.5,2.3-2.2c0.1-0.1,0.1-0.1,0.2-0.2
				c3.3-3.2,6.1-6.8,8.3-10.8c0.1-0.1,0.2-0.3,0.2-0.4c0.2-0.4,0.4-0.9,0.6-1.3c0.1-0.1,0.1-0.3,0.2-0.4c1.1-2.4,1.7-4.9,1.7-7.5
				c0-0.4,0-0.7-0.1-1.1c0-0.2,0-0.3-0.1-0.5c0-0.3-0.1-0.6-0.2-0.9c-0.6-1.3-1.1-2.4-1.5-3.2c-3.2-6.3-15.7-4.9-21.8-3.8l0.1,0.2
				C486,382.1,486.7,384.7,487.4,387.4z"/>
			<path class="st0" d="M485.3,379.4l-0.1-0.2l0,0C485.3,379.3,485.3,379.3,485.3,379.4z"/>
			<path class="st0" d="M506.2,398.4c-2.2,4-5,7.6-8.3,10.8C501.1,406,503.9,402.3,506.2,398.4z"/>
			<path class="st0" d="M489.6,396.1c0-0.1-0.1-0.2-0.1-0.3L489.6,396.1z"/>
			<path class="st0" d="M491.5,403.1c0.9,3.2,1.7,6.5,2.6,9.7c0.4-0.4,0.9-0.8,1.3-1.2c-0.4,0.4-0.9,0.8-1.3,1.2
				C493.2,409.6,492.3,406.3,491.5,403.1z"/>
			<path class="st0" d="M507,396.6c-0.2,0.4-0.4,0.9-0.6,1.3C506.6,397.5,506.8,397,507,396.6z"/>
			<path class="st0" d="M497.7,409.3c-0.7,0.7-1.5,1.4-2.3,2.2C496.3,410.8,497,410.1,497.7,409.3z"/>
			<path class="st0" d="M487.4,387.6l0-0.2L487.4,387.6z"/>
			<path class="st0" d="M508.9,388.7c0,2.6-0.6,5.2-1.7,7.5C508.3,393.8,508.9,391.3,508.9,388.7z"/>
		</g>
		<g>
			<path class="st1" d="M565.2,159.5L565.2,159.5L565.2,159.5l-0.1,0l-0.1,0c0,0-0.1,0-0.1,0c-0.1,0-0.1,0-0.2,0c0,0-0.1,0-0.1,0
				c-0.1,0-0.1,0-0.2,0c0,0-0.1,0-0.1,0c-0.1,0-0.2,0-0.3,0l-0.1,0c-0.3,0-0.7,0-1.1,0l-0.1,0c-0.1,0-0.3,0-0.5,0l0,0
				c-6.6,0.4-23,3.3-40.4,21.9l21.1,16.6c0,0,11.9,6.6-6.3,23.8l-13.8-11.9c-11.7,14.8-2.2,27.3-2.2,27.3s14.4,10,41-22
				C587,184.4,565.2,159.5,565.2,159.5z"/>
			<path class="st1" d="M522.7,209.9l13.8,11.9c18.2-17.2,6.3-23.8,6.3-23.8S534.4,195.1,522.7,209.9z"/>
			<path class="st1" d="M522.7,209.9c11.7-14.8,20-11.8,20-11.8l-21.1-16.6c-1.4,1.5-2.8,3.1-4.3,4.9l0,0c-0.5,0.6-0.9,1.1-1.4,1.7
				l-0.1,0.1c-0.5,0.6-0.9,1.2-1.4,1.8l-0.1,0.1c-3.6,4.8-6.9,9.9-9.9,15.2l0,0c-0.5,0.8-0.9,1.6-1.4,2.5l0,0.1
				c-1.4,2.6-2.7,5.2-4.1,8.1l21.4,21.4C520.5,237.2,511,224.7,522.7,209.9z"/>
		</g>
		<g>
			<path class="st0" d="M507,383c0.4,0.9,1,1.9,1.5,3.2C508.3,385.1,507.8,384,507,383z"/>
			<path class="st1" d="M508.6,386.2c-0.6-1.3-1.1-2.4-1.5-3.2c-3.2-6.3-15.7-4.9-21.8-3.8c2.8,11,5.8,22.3,8.8,33.6
				C508.3,400.3,509.8,390.6,508.6,386.2z"/>
		</g>
	</g>
	<g>
		<g>
			<path class="st0" d="M67.5,387.6c0,0.3-0.1,0.7-0.1,1.1C67.4,388.3,67.5,387.9,67.5,387.6z"/>
			<path class="st0" d="M69.1,396.2c0.1,0.1,0.1,0.3,0.2,0.4C69.3,396.5,69.2,396.3,69.1,396.2z"/>
			<path class="st0" d="M69.9,397.9c0.1,0.1,0.2,0.3,0.2,0.4C70.1,398.2,70,398.1,69.9,397.9z"/>
			<path class="st0" d="M67.8,386.2c-0.1,0.3-0.1,0.6-0.2,0.9C67.6,386.8,67.7,386.5,67.8,386.2z"/>
			<path class="st0" d="M78.5,409.2c0.1,0.1,0.1,0.1,0.2,0.2C78.6,409.3,78.5,409.2,78.5,409.2z"/>
			<path class="st0" d="M80.9,411.5c0,0,0.1,0.1,0.1,0.1C81,411.6,80.9,411.5,80.9,411.5z"/>
			<path class="st1" d="M207,640.5h32.9c-5.6,8-16.6,12.1-16.6,12.1h-5.4c-7.7,0-14.5-4.9-17-12.1c0.1,0,0.2,0,0.3,0L207,640.5z"/>
			<path class="st2" d="M239.9,640.5h-28.5c6.6,0,11.9-5.4,11.9-11.9v0c0-5.5-3.8-10.2-9.1-11.6c1.2-0.2,2.4-0.4,3.6-0.4h19.3
				c1.3,1.7,2.5,3.4,3.6,5.3C244.8,629.5,243.3,635.7,239.9,640.5z"/>
			<path class="st1" d="M201,628.6h22.4v0c0,6.6-5.4,11.9-11.9,11.9h-10.2c-0.1,0-0.2,0-0.3,0c-7.1-0.4-11.7-11.9-11.7-11.9
				L201,628.6z"/>
			<path class="st1" d="M223.4,628.6H201c2.1-5.9,7.2-10.3,13.3-11.6C219.6,618.3,223.4,623.1,223.4,628.6z"/>
			<path class="st0" d="M86.8,395.8c0.7-2.7,1.4-5.4,2.1-8.1C88.2,390.3,87.5,393,86.8,395.8z"/>
			<path class="st0" d="M89,387.4c0.7-2.7,1.4-5.4,2-8C90.4,382.1,89.7,384.7,89,387.4z"/>
			<path class="st0" d="M84.9,403.1c0.6-2.3,1.2-4.7,1.9-7C86.1,398.4,85.5,400.8,84.9,403.1z"/>
			<path class="st0" d="M69.3,383c-0.4,0.9-1,1.9-1.5,3.2C68,385.1,68.6,384,69.3,383z"/>
			<path class="st0" d="M89,387.4l0,0.2c-0.7,2.7-1.4,5.4-2.1,8.1c0,0.1-0.1,0.2-0.1,0.3c-0.6,2.3-1.2,4.7-1.9,7
				c-0.9,3.2-1.7,6.5-2.6,9.7c-0.4-0.4-0.9-0.8-1.3-1.2c0,0-0.1-0.1-0.1-0.1c-0.8-0.7-1.5-1.5-2.3-2.2c-0.1-0.1-0.1-0.1-0.2-0.2
				c-3.3-3.2-6.1-6.8-8.3-10.8c-0.1-0.1-0.2-0.3-0.2-0.4c-0.2-0.4-0.4-0.9-0.6-1.3c-0.1-0.1-0.1-0.3-0.2-0.4
				c-1.1-2.4-1.7-4.9-1.7-7.5c0-0.4,0-0.7,0.1-1.1c0-0.2,0-0.3,0.1-0.5c0-0.3,0.1-0.6,0.2-0.9c0.6-1.3,1.1-2.4,1.5-3.2
				c3.2-6.3,15.7-4.9,21.8-3.8l-0.1,0.2C90.4,382.1,89.7,384.7,89,387.4z"/>
			<path class="st0" d="M91,379.4l0.1-0.2l0,0C91.1,379.3,91,379.3,91,379.4z"/>
			<path class="st0" d="M70.2,398.4c2.2,4,5,7.6,8.3,10.8C75.2,406,72.4,402.3,70.2,398.4z"/>
			<path class="st0" d="M86.7,396.1c0-0.1,0.1-0.2,0.1-0.3L86.7,396.1z"/>
			<path class="st0" d="M84.9,403.1c-0.9,3.2-1.7,6.5-2.6,9.7c-0.4-0.4-0.9-0.8-1.3-1.2c0.4,0.4,0.9,0.8,1.3,1.2
				C83.1,409.6,84,406.3,84.9,403.1z"/>
			<path class="st0" d="M69.3,396.6c0.2,0.4,0.4,0.9,0.6,1.3C69.7,397.5,69.5,397,69.3,396.6z"/>
			<path class="st0" d="M78.6,409.3c0.7,0.7,1.5,1.4,2.3,2.2C80.1,410.8,79.3,410.1,78.6,409.3z"/>
			<path class="st0" d="M88.9,387.6l0-0.2L88.9,387.6z"/>
			<path class="st0" d="M67.4,388.7c0,2.6,0.6,5.2,1.7,7.5C68,393.8,67.5,391.3,67.4,388.7z"/>
		</g>
		<g>
			<path class="st1" d="M11.2,159.5L11.2,159.5L11.2,159.5l0.1,0l0.1,0c0,0,0.1,0,0.1,0c0.1,0,0.1,0,0.2,0c0,0,0.1,0,0.1,0
				c0.1,0,0.1,0,0.2,0c0,0,0.1,0,0.1,0c0.1,0,0.2,0,0.3,0l0.1,0c0.3,0,0.7,0,1.1,0l0.1,0c0.1,0,0.3,0,0.5,0l0,0
				c6.6,0.4,23,3.3,40.4,21.9l-21.1,16.6c0,0-11.9,6.6,6.3,23.8l13.8-11.9c11.7,14.8,2.2,27.3,2.2,27.3s-14.4,10-41-22
				C-10.6,184.4,11.2,159.5,11.2,159.5z"/>
			<path class="st1" d="M53.7,209.9l-13.8,11.9c-18.2-17.2-6.3-23.8-6.3-23.8S42,195.1,53.7,209.9z"/>
			<path class="st1" d="M53.7,209.9c-11.7-14.8-20-11.8-20-11.8l21.1-16.6c1.4,1.5,2.8,3.1,4.3,4.9l0,0c0.5,0.6,0.9,1.1,1.4,1.7
				l0.1,0.1c0.5,0.6,0.9,1.2,1.4,1.8l0.1,0.1c3.6,4.8,6.9,9.9,9.9,15.2l0,0c0.5,0.8,0.9,1.6,1.4,2.5l0,0.1c1.4,2.6,2.7,5.2,4.1,8.1
				l-21.4,21.4C55.9,237.2,65.3,224.7,53.7,209.9z"/>
		</g>
		<g>
			<path class="st0" d="M69.3,383c-0.4,0.9-1,1.9-1.5,3.2C68,385.1,68.6,384,69.3,383z"/>
			<g>
				<path class="st1" d="M67.8,386.2c0.6-1.3,1.1-2.4,1.5-3.2c3.2-6.3,15.7-4.9,21.8-3.8c-2.8,11-5.8,22.3-8.8,33.6
					C68.1,400.3,66.6,390.6,67.8,386.2z"/>
				<path class="st2" d="M511.1,114.2C449.6,124.5,402.2,3.9,328.9,32.8c-5.2-10.4-40.7-26.3-40.7-30.3c0,4.1-35.5,19.9-40.7,30.3
					c-73.4-28.9-120.7,91.7-182.2,81.3c-25.2,12.3-43.5,27.3-54.1,45.4c0,0,64.9-7.1,89.4,135.7c5.4,32-6.9,74.5-18.3,117.5
					c-14.2-12.5-15.7-22.2-14.5-26.6c-5.2,11.3-15.6,37.6-14,48.9c1.5,11.3,9.3,21.8,17.3,25.8c-11.4,61.1-5.5,115.3,75.9,131.3
					c25.9,4.5,75.7-2.4,93.9,29.6c10.6,20.2-17.4,30.7-17.4,30.7H353c0,0-28-10.5-17.4-30.7c18.2-32,68-25.2,93.9-29.6
					c81.4-16.1,87.3-70.2,75.9-131.3c8-4,15.8-14.5,17.3-25.8c1.5-11.4-8.8-37.6-14-48.9c1.2,4.4-0.3,14-14.5,26.6
					c-11.3-43-23.7-85.6-18.3-117.5c24.5-142.8,89.4-135.7,89.4-135.7C554.6,141.5,536.2,126.5,511.1,114.2z"/>
			</g>
		</g>
	</g>
</g>
<g>
	<g>
		<g>
			<path class="st3" d="M257.3,142.5c10.5,3.5,18.7-1.5,19.7-8.9c5.3,5.3,14.8,4.4,21.2-4.6c4,11.8,10.9,12.6,22,8.6l3.1-9.9
				c-13.2,8.4-21.1,5.3-23-10.4c-8,13.2-17.1,15.3-27.7,2.7c-1,16.5-9.6,20.3-23.9,14.4c7.8,13.8,3.4,20.9-12.2,22.1l8.4,6.1
				C256.1,159.1,261.1,154.4,257.3,142.5z"/>
			<path class="st3" d="M298.2,128.9c-6.4,9.1-15.9,9.9-21.2,4.6c-1.1,7.4-9.2,12.4-19.7,8.9c3.8,11.9-1.2,16.6-12.5,20.1l10.4,7.6
				c1.6-8.9,11.9-18.4,26.3-23.2s28.4-3.3,34.9,2.9l3.8-12.3C309.1,141.5,302.3,140.7,298.2,128.9z"/>
			<path class="st3" d="M281.5,147c-14.4,4.8-24.7,14.3-26.3,23.2l6.3,4.6c-0.4-0.5-0.7-1.1-0.9-1.7c-2.2-6.7,7.9-16.1,22.6-20.9
				s28.4-3.4,30.6,3.3c0.2,0.6,0.3,1.3,0.3,1.9l2.3-7.5C309.9,143.7,295.9,142.2,281.5,147z"/>
		</g>
		
			<ellipse transform="matrix(0.9493 -0.3144 0.3144 0.9493 -37.087 98.6327)" class="st4" cx="287.2" cy="164.3" rx="28" ry="12.8"/>
		<circle class="st3" cx="272.5" cy="119.9" r="4.6"/>
		<circle class="st3" cx="300.2" cy="117.3" r="4.6"/>
		<circle class="st3" cx="323.3" cy="127.6" r="4.6"/>
		<circle class="st3" cx="249.2" cy="134.1" r="4.6"/>
		<circle class="st3" cx="236.4" cy="156.4" r="4.6"/>
	</g>
	<g>
		<g>
			<path class="st5" d="M463.8,131.3c3-4.3,3.8-7.2,2-8.4c0,0-22.7,32.2-71.5,58.7s-54.9,50.5-59.4,64.3s8.5,22.2,9.6,27.5
				c0.8,3.6-1,12-8.5,12c-14.5,0-21-30.3-21-35.8c0-6.5-1.4-12.8-4.2-18.7c-3.2-6.5-1.5-9-3.1-15s-1.1-18.1-1.1-18.1
				s0.6-5.3,7.7-5.3c13,0,21.6-11.6,23.9-11.6s4.9,7.1,4.9,7.1c6.3-8.1,1.1-16.5-1.5-20.2s-15.1-4.9-19.5-4.9s-11.8-14.7-23.2-13.3
				c-40.9,5.1-31.2,18.7-38.3,23.6s-10.4,3.9-10.4,3.9c4,5,11.6,4.5,13.4,4.5s-2,6.8,1.2,7.6s4.3,8.6,4.3,8.6h0.6
				c0,0,0.5,12.1-1.1,18.1s0,8.5-3.1,15c-2.8,5.8-4.2,12.2-4.2,18.7c0,5.5-6.5,35.8-21,35.8c-7.5,0-9.2-8.4-8.5-12
				c1.1-5.3,14.1-13.6,9.6-27.5s-10.6-37.9-59.4-64.3s-71.5-58.7-71.5-58.7c-1.7,1.2-1,4.1,2,8.4c-1.8,3-0.8,7,2.9,11.9
				c-0.6,3.8,1.8,8.1,7.6,13c-4,4.1-2.6,9.5,3.2,16c-6.4,2.3-6.1,9.7,0.3,21.7c-5.3,3.7-2.8,11.4,5.2,21.9c-8.8,3.3-4.8,12,5.9,23.4
				c-0.9,7.1,3.3,14.3,13.5,21.7c-6.8,6.3-0.2,14.5,19.5,24.3c-8.3,6.1-6.9,11.9,1.5,17.6c-2.5,4.9-1.8,8.7,4.2,10.6
				c-5.5,5.2-4.6,9.2,4.1,11.8c-3.3,8.5-0.3,11.4,8.6,8.9c1,4.7,3.9,7.4,9.4,7.2c-1.8,7.7,0.7,11.7,8.3,11.4
				c0.2,4.1,1.9,6.4,6.9,5.2c1.1,4.7,3.9,7.1,8.7,6.8c-1.4,5.5-0.8,9.6,3.5,11c-1.2,4.9,0,8.2,4.7,9.2c-0.5,4.5,1,7.1,5.4,6.9
				c-0.6,4.5,1,7.8,4.2,9.9c0,3.1-1.3,4.2-4.2,4.2s-19.8-15.5-23.8-16.7c-4.2-1.2-16-0.6-15.3,13.5s6.2,20,6.9,24.1
				s1.3,9.2,4.6,11.8s20.2,10.5,24.1,22.3s-34.1,69.1-34.1,69.1c-2.3,5.2-1,8.6,4.8,9.8c0.6,11.5,5.9,15.5,14.2,14.7
				c0.6,10.9,5.7,14.6,15.1,11.6c5.6,11.6,13.1,14.9,22.8,9.1c6.6,5.2,13.5,5.8,20.9,2c3.9,3.5,7.9,5.1,12,4.9c4,0.2,8-1.4,12-4.9
				c7.4,3.8,14.3,3.2,20.9-2c9.7,5.7,17.2,2.5,22.8-9.1c9.4,3,14.5-0.6,15.1-11.6c8.4,0.8,13.7-3.2,14.2-14.7
				c5.8-1.2,7.1-4.6,4.8-9.8c0,0-38-57.3-34.1-69.1s20.8-19.8,24.1-22.3s3.9-7.7,4.6-11.8s6.2-10,6.9-24.1s-11.2-14.8-15.3-13.5
				c-4,1.2-20.9,16.7-23.8,16.7s-4.2-1.1-4.2-4.2c3.2-2.2,4.8-5.4,4.2-9.9c4.4,0.2,5.9-2.4,5.4-6.9c4.7-1,5.9-4.3,4.7-9.2
				c4.4-1.4,4.9-5.5,3.5-11c4.7,0.3,7.5-2.1,8.7-6.8c4.9,1.3,6.7-1.1,6.9-5.2c7.6,0.3,10.1-3.8,8.3-11.4c5.5,0.2,8.4-2.4,9.4-7.2
				c8.9,2.5,11.9-0.4,8.6-8.9c8.8-2.5,9.7-6.5,4.1-11.8c6-1.9,6.8-5.6,4.2-10.6c8.4-5.7,9.8-11.6,1.5-17.6
				c19.7-9.9,26.3-18,19.5-24.3c10.2-7.4,14.5-14.6,13.5-21.7c10.7-11.4,14.7-20.1,5.9-23.4c8-10.5,10.6-18.2,5.2-21.9
				c6.4-12.1,6.7-19.5,0.3-21.7c5.8-6.5,7.1-11.9,3.2-16c5.8-5,8.2-9.3,7.6-13C464.6,138.3,465.6,134.3,463.8,131.3z"/>
			<g>
				<g>
					<path d="M380.8,219.3l15.8-15.1l15.9-15c5.3-5,10.4-10.2,16-14.9c5.5-4.8,11.1-9.4,17.1-13.7c0.1,0,0.2,0,0.2,0
						c0,0.1,0,0.1,0,0.2c-4.8,5.5-10,10.7-15.3,15.7c-5.2,5.1-10.9,9.7-16.4,14.5l-16.5,14.4L381,219.5c-0.1,0.1-0.2,0-0.2,0
						C380.7,219.4,380.7,219.4,380.8,219.3L380.8,219.3z"/>
					<path d="M378.9,240.2l15.8-15.1l15.9-15c5.3-5,10.4-10.2,16-14.9c5.5-4.8,11.1-9.4,17.1-13.7c0.1,0,0.2,0,0.2,0
						c0,0.1,0,0.1,0,0.2c-4.8,5.5-10,10.7-15.3,15.7c-5.2,5.1-10.9,9.7-16.4,14.5l-16.5,14.4l-16.6,14.3c-0.1,0.1-0.2,0-0.2,0
						C378.9,240.3,378.9,240.3,378.9,240.2L378.9,240.2z"/>
					<path d="M376.8,260.6l15.8-15.1l15.9-15c5.3-5,10.4-10.2,16-14.9c5.5-4.8,11.1-9.4,17.1-13.7c0.1,0,0.2,0,0.2,0
						c0,0.1,0,0.1,0,0.2c-4.8,5.5-10,10.7-15.3,15.7c-5.2,5.1-10.9,9.7-16.4,14.5l-16.5,14.4L377,260.8c-0.1,0.1-0.2,0-0.2,0
						C376.8,260.7,376.8,260.6,376.8,260.6L376.8,260.6z"/>
					<path d="M372.9,282.4l15.8-15.1l15.9-15c5.3-5,10.4-10.2,16-14.9c5.5-4.8,11.1-9.4,17.1-13.7c0.1,0,0.2,0,0.2,0
						c0,0.1,0,0.1,0,0.2c-4.8,5.5-10,10.7-15.3,15.7c-5.2,5.1-10.9,9.7-16.4,14.5l-16.5,14.4l-16.6,14.3c-0.1,0.1-0.2,0-0.2,0
						C372.8,282.6,372.8,282.5,372.9,282.4L372.9,282.4z"/>
					<path d="M385,282.6c3.7-3.4,7.5-6.8,11.2-10.2l11.3-10c3.8-3.3,7.4-6.9,11.4-9.9c4-3.1,8.1-6,12.4-8.7c0.1,0,0.2,0,0.2,0.1
						c0,0.1,0,0.1,0,0.2c-3.3,3.8-6.9,7.4-10.7,10.7c-3.7,3.4-7.8,6.3-11.8,9.5l-11.9,9.4c-4,3.1-8,6.2-12,9.2c-0.1,0.1-0.2,0-0.2,0
						C385,282.7,385,282.6,385,282.6L385,282.6z"/>
					<path d="M387.3,287.1c2.4-2.1,4.8-4.1,7.2-6.1l7.3-6c2.3-2.1,4.8-4.1,7.4-5.9c2.6-1.8,5.4-3.3,8.4-4.6c0.1,0,0.2,0,0.2,0.1
						c0,0.1,0,0.1,0,0.2c-2,2.5-4.3,4.7-6.7,6.7c-2.5,1.9-5.1,3.8-7.7,5.4l-7.8,5.3c-2.6,1.7-5.3,3.5-7.9,5.2c-0.1,0-0.2,0-0.2,0
						C387.3,287.2,387.3,287.1,387.3,287.1z"/>
					<path d="M397.7,290.4c-0.9,0.5-1.8,1-2.8,1.3c-0.9,0.4-1.9,0.6-2.9,0.9c-2,0.4-4,0.6-6,0.6c-2,0.2-4,0.3-6,0.4
						c-2,0.1-4,0.2-6,0.3c-0.1,0-0.2-0.1-0.2-0.1c0-0.1,0-0.1,0.1-0.1c1.9-0.5,3.9-1,5.8-1.5c1.9-0.5,3.9-0.9,5.8-1.3
						c1.9-0.6,3.9-1,5.9-1.2c1-0.1,2-0.1,3,0c1,0,2.1,0.2,3.1,0.5C397.8,290.1,397.8,290.2,397.7,290.4
						C397.8,290.3,397.8,290.3,397.7,290.4L397.7,290.4z"/>
					<path d="M396.5,303c-2,0.7-4.2,1.1-6.3,1.2c-2.1,0-4.2-0.1-6.3-0.4c-2.1-0.2-4.2-0.4-6.3-0.6c-2.1-0.2-4.2-0.4-6.3-0.7
						c-0.1,0-0.1-0.1-0.1-0.2c0-0.1,0.1-0.1,0.1-0.1c2.1-0.2,4.2-0.3,6.3-0.5c2.1-0.1,4.2-0.2,6.3-0.3c2.1-0.2,4.2-0.3,6.3-0.2
						c2.2,0.2,4.3,0.7,6.3,1.5C396.6,302.8,396.6,302.8,396.5,303C396.6,303,396.5,303,396.5,303L396.5,303z"/>
					<path d="M391,312.7c-2.2,0.3-4.4,0.4-6.6,0.1c-2.1-0.3-4.2-0.8-6.3-1.5c-2.1-0.5-4.2-1.1-6.2-1.6c-2.1-0.6-4.1-1.2-6.2-1.8
						c-0.1,0-0.1-0.1-0.1-0.2c0-0.1,0.1-0.1,0.2-0.1c2.1,0.2,4.3,0.4,6.4,0.6c2.1,0.2,4.3,0.5,6.4,0.8c2.1,0.1,4.3,0.4,6.4,0.9
						c2.1,0.6,4.2,1.4,6.1,2.5c0.1,0,0.1,0.1,0.1,0.2C391.1,312.6,391,312.7,391,312.7z"/>
					<path d="M387.4,323.4c-2.2,0.1-4.5-0.1-6.6-0.6c-2.1-0.6-4.2-1.3-6.1-2.2c-2-0.8-4.1-1.6-6.1-2.4c-2-0.8-4.1-1.6-6.1-2.5
						c-0.1,0-0.1-0.1-0.1-0.2c0-0.1,0.1-0.1,0.2-0.1c2.2,0.4,4.3,0.9,6.4,1.4c2.1,0.5,4.3,1,6.4,1.5c2.1,0.4,4.3,0.9,6.3,1.6
						c2.1,0.8,4,1.9,5.8,3.2c0.1,0.1,0.1,0.2,0,0.2C387.5,323.4,387.4,323.4,387.4,323.4L387.4,323.4z"/>
					<path d="M379.5,331.7c-1,0-2.1-0.1-3.1-0.3c-1-0.2-1.9-0.4-2.9-0.7c-1.9-0.7-3.6-1.5-5.3-2.5c-1.8-0.9-3.5-1.7-5.3-2.6
						c-1.7-0.9-3.5-1.8-5.2-2.8c-0.1,0-0.1-0.1-0.1-0.2c0-0.1,0.1-0.1,0.2-0.1c1.9,0.5,3.8,1.1,5.7,1.7c1.9,0.6,3.8,1.2,5.6,1.8
						c1.9,0.5,3.8,1.1,5.6,1.9c0.9,0.5,1.7,1,2.6,1.5c0.9,0.6,1.7,1.2,2.4,2c0.1,0.1,0.1,0.2,0,0.2
						C379.6,331.7,379.5,331.7,379.5,331.7L379.5,331.7z"/>
					<path d="M370,338.9c-0.9-0.1-1.7-0.2-2.5-0.5c-0.8-0.2-1.5-0.5-2.3-0.9c-1.4-0.8-2.7-1.7-3.9-2.8c-1.3-1-2.6-1.9-3.8-2.9
						c-1.2-1-2.5-2-3.7-3.1c-0.1-0.1-0.1-0.2,0-0.2c0-0.1,0.1-0.1,0.2,0c1.5,0.7,2.9,1.4,4.4,2.1c1.4,0.7,2.9,1.4,4.3,2.2
						c1.5,0.6,2.9,1.4,4.2,2.3c0.6,0.5,1.2,1.1,1.8,1.7c0.6,0.6,1.1,1.3,1.6,2C370.2,338.8,370.2,338.9,370,338.9
						C370.1,338.9,370,338.9,370,338.9L370,338.9z"/>
					<path d="M363.5,349c-0.8-0.1-1.6-0.3-2.4-0.5c-0.7-0.2-1.4-0.6-2.1-0.9c-1.3-0.8-2.5-1.7-3.6-2.8c-1.2-1-2.3-1.9-3.5-2.9
						c-1.1-1-2.3-2-3.4-3.1c-0.1-0.1-0.1-0.2,0-0.2c0,0,0.1-0.1,0.2,0c1.4,0.7,2.7,1.4,4.1,2.1c1.3,0.7,2.7,1.4,4,2.2
						c1.4,0.6,2.7,1.4,3.9,2.3c0.6,0.5,1.1,1.1,1.6,1.6c0.5,0.6,1,1.3,1.4,2C363.7,348.8,363.6,348.9,363.5,349
						C363.5,349,363.5,349,363.5,349L363.5,349z"/>
					<path d="M356,354.9c-0.8-0.2-1.5-0.4-2.2-0.8c-0.6-0.3-1.3-0.7-1.8-1.1c-1.1-0.9-2.1-2-2.9-3.1c-0.9-1.1-1.9-2.1-2.8-3.2
						c-0.9-1.1-1.8-2.2-2.7-3.3c-0.1-0.1,0-0.2,0-0.2c0.1,0,0.1,0,0.2,0c1.2,0.8,2.3,1.6,3.5,2.4c1.1,0.8,2.3,1.7,3.4,2.6
						c1.2,0.7,2.3,1.6,3.3,2.7c0.5,0.6,0.9,1.1,1.2,1.8c0.4,0.7,0.7,1.4,0.9,2.1C356.2,354.8,356.1,354.9,356,354.9
						C356,354.9,356,354.9,356,354.9C356,354.9,356,354.9,356,354.9z"/>
					<path d="M347,361.1c-0.7-0.2-1.3-0.4-1.9-0.7c-0.5-0.3-1.1-0.6-1.5-1c-0.9-0.9-1.6-1.8-2.2-2.9c-0.7-1-1.4-2-2.1-3
						c-0.7-1-1.3-2-2-3.1c0-0.1,0-0.2,0.1-0.2c0.1,0,0.1,0,0.2,0c1,0.7,1.9,1.5,2.9,2.3c0.9,0.8,1.9,1.6,2.7,2.4
						c1,0.7,1.9,1.5,2.6,2.5c0.3,0.5,0.6,1.1,0.9,1.6c0.3,0.6,0.5,1.3,0.5,1.9C347.3,361,347.2,361.1,347,361.1
						C347.1,361.1,347.1,361.1,347,361.1z"/>
					<path d="M343.3,373c-0.7-0.4-1.4-1-2-1.6c-0.6-0.6-1.1-1.2-1.6-1.8c-0.9-1.3-1.6-2.7-2.2-4.2c-0.7-1.4-1.4-2.8-2-4.3
						c-0.6-1.5-1.3-2.9-1.9-4.4c0-0.1,0-0.2,0.1-0.2c0.1,0,0.1,0,0.2,0c1,1.2,2,2.5,2.9,3.7c1,1.3,1.9,2.5,2.8,3.8
						c1,1.2,1.9,2.5,2.7,3.9c0.3,0.7,0.6,1.5,0.8,2.2c0.2,0.8,0.4,1.6,0.4,2.5C343.5,372.9,343.5,373,343.3,373
						C343.3,373,343.3,373,343.3,373L343.3,373z"/>
					<path d="M340.1,380.8c-0.7-0.3-1.3-0.7-1.8-1.2c-0.5-0.4-1-0.9-1.4-1.5c-0.7-1.1-1.3-2.3-1.8-3.5c-0.6-1.2-1.1-2.4-1.6-3.6
						c-0.5-1.2-1-2.4-1.5-3.7c0-0.1,0-0.2,0.1-0.2c0.1,0,0.1,0,0.2,0c0.9,1,1.7,2.1,2.5,3.1c0.8,1,1.6,2.1,2.4,3.2
						c0.9,1,1.7,2.1,2.3,3.2c0.3,0.6,0.5,1.3,0.6,1.9c0.2,0.7,0.3,1.4,0.2,2.2C340.4,380.8,340.3,380.8,340.1,380.8
						C340.2,380.8,340.2,380.8,340.1,380.8z"/>
					<path d="M333.3,389.7c-0.6-0.2-1.1-0.6-1.6-1c-0.5-0.4-0.9-0.8-1.2-1.2c-0.6-0.9-1.1-2-1.5-3c-0.5-1-0.9-2.1-1.3-3.1
						c-0.4-1.1-0.8-2.1-1.2-3.2c0-0.1,0-0.2,0.1-0.2c0.1,0,0.1,0,0.2,0c0.8,0.8,1.5,1.7,2.2,2.6c0.7,0.9,1.4,1.8,2.1,2.6
						c0.8,0.8,1.5,1.7,2,2.7c0.2,0.5,0.4,1.1,0.5,1.7c0.1,0.6,0.2,1.3,0.1,1.9C333.5,389.6,333.4,389.7,333.3,389.7L333.3,389.7
						C333.3,389.7,333.3,389.7,333.3,389.7z"/>
					<path d="M329.3,399.2c-0.6-0.2-1.1-0.4-1.5-0.8c-0.4-0.3-0.8-0.6-1.1-1c-0.6-0.8-1-1.7-1.2-2.7c-0.4-0.9-0.8-1.8-1.1-2.8
						c-0.3-0.9-0.7-1.9-1-2.8c0-0.1,0-0.2,0.1-0.2c0.1,0,0.1,0,0.2,0c0.7,0.7,1.3,1.5,2,2.2c0.7,0.8,1.3,1.5,1.9,2.3
						c0.7,0.7,1.3,1.5,1.8,2.4c0.2,0.5,0.3,1,0.4,1.5c0.1,0.6,0.1,1.2,0,1.7C329.5,399.2,329.4,399.3,329.3,399.2
						C329.3,399.2,329.3,399.2,329.3,399.2L329.3,399.2z"/>
					<path d="M370.3,213.5c-2.3,4.6-4.6,9.1-6.4,13.8c-0.9,2.3-1.8,4.7-2.5,7.1c-0.8,2.4-1.4,4.8-1.9,7.2c-0.3,1.2-0.5,2.4-0.7,3.7
						c-0.2,1.2-0.3,2.5-0.5,3.7c-0.1,1.2-0.2,2.5-0.3,3.7l-0.1,3.7c0,5.1,0.5,10.1,1.4,15.1c-2-4.8-3.3-9.8-3.7-15
						c-0.1-1.3-0.2-2.6-0.2-3.9c0-1.3,0-2.6,0.1-3.9c0.1-1.3,0.2-2.6,0.4-3.9c0.2-1.3,0.4-2.6,0.7-3.9c0.6-2.5,1.3-5.1,2.1-7.5
						C361.3,226.1,365.3,219.4,370.3,213.5L370.3,213.5z"/>
					<path d="M339.4,255.8c0.2,0.4,0.6,0.6,1,0.7c0.4,0.1,0.8,0.2,1.2,0.2c0.8,0.1,1.7,0.1,2.5,0.1c0.8,0,1.7,0,2.5-0.1
						c0.4,0,0.8-0.1,1.2-0.2c0.4-0.1,0.8-0.3,1-0.7c0.1,0.3,0.1,0.5,0,0.8c-0.1,0.3-0.3,0.5-0.5,0.7c-0.4,0.4-0.8,0.7-1.3,0.9
						c-0.9,0.4-1.9,0.6-2.9,0.6c-1,0-2-0.2-2.9-0.6c-0.5-0.2-0.9-0.5-1.3-0.9C339.4,257,339.3,256.4,339.4,255.8z"/>
					<path d="M353.9,401.7c-0.5,1.7-0.8,3.5-1,5.3c-0.2,1.7-0.2,3.4-0.2,5.1c0.1,1.7,0.3,3.3,0.6,5c0.3,1.7,1,3.3,2,4.8
						c-1.9-0.7-3.4-2.1-4.2-4c-0.9-1.8-1.3-3.7-1.4-5.7c-0.1-2,0.2-3.9,0.9-5.8C351.2,404.6,352.4,403,353.9,401.7z"/>
					<path d="M356.9,423.4c0.7,0.3,1.5,0.5,2.2,0.7c0.6,0.2,1.3,0.5,1.9,0.8c0.6,0.3,1.2,0.7,1.8,1.1c0.7,0.5,1.3,1,1.8,1.7
						c-0.8,0.4-1.7,0.6-2.6,0.6c-0.8,0-1.6-0.2-2.4-0.6c-0.8-0.4-1.4-0.9-2-1.6C357.1,425.3,356.8,424.3,356.9,423.4z"/>
					<path d="M322.9,410.6c-0.8,1.2-1.6,2.4-2.5,3.5l-2.5,3.1c-0.8,1-1.6,2.1-2.4,3.2c-0.8,1.1-1.6,2.2-2.5,3.4
						c-0.2-1.5-0.1-3,0.4-4.5c0.5-1.4,1.2-2.8,2.1-4c0.9-1.2,2-2.2,3.3-3C320,411.5,321.4,410.9,322.9,410.6z"/>
					<path d="M316.2,455.3c-0.8,1.3-1.5,2.6-2,4c-0.5,1.3-0.9,2.6-1.2,4c-0.3,1.4-0.6,2.8-0.8,4.2c-0.2,1.4-0.5,2.9-0.8,4.5
						c-0.8-1.4-1.4-2.9-1.5-4.6c-0.2-1.6-0.1-3.3,0.2-4.9c0.4-1.6,1.1-3.2,2.1-4.5C313.2,456.7,314.6,455.7,316.2,455.3z"/>
					<path d="M325.4,430c-1.4,1.5-2.6,3.3-3.4,5.2c-0.8,1.9-1.6,3.8-2.2,5.7c-0.6,2-1.2,3.9-1.6,6c-0.4,2.1-0.6,4.2-0.6,6.3
						c-1.2-1.9-1.8-4.2-1.7-6.5c0-4.6,1.5-9,4.1-12.7c0.7-0.9,1.5-1.8,2.4-2.5C323.3,430.7,324.3,430.2,325.4,430z"/>
				</g>
				<g>
					<path d="M195.4,219.5l-16.6-14.3l-16.5-14.4c-5.5-4.8-11.1-9.4-16.4-14.5c-5.3-5-10.4-10.2-15.3-15.7c-0.1-0.1,0-0.2,0-0.2
						c0.1,0,0.1,0,0.2,0c5.9,4.3,11.6,9,17.1,13.7c5.5,4.7,10.7,9.9,16,14.9l15.9,15l15.8,15.1c0.1,0.1,0.1,0.2,0,0.2
						C195.5,219.6,195.4,219.6,195.4,219.5L195.4,219.5z"/>
					<path d="M197.2,240.4l-16.6-14.3l-16.5-14.4c-5.5-4.8-11.1-9.4-16.4-14.5c-5.3-5-10.4-10.2-15.3-15.7c-0.1-0.1,0-0.2,0-0.2
						c0.1,0,0.1-0.1,0.2,0c5.9,4.3,11.6,9,17.1,13.7c5.5,4.7,10.7,9.9,16,14.9l15.9,15l15.8,15.1c0.1,0.1,0.1,0.2,0,0.2
						S197.3,240.5,197.2,240.4L197.2,240.4z"/>
					<path d="M199.3,260.8l-16.6-14.3l-16.5-14.4c-5.5-4.8-11.1-9.4-16.4-14.5c-5.3-5-10.4-10.2-15.3-15.7c-0.1-0.1,0-0.2,0-0.2
						c0.1,0,0.1,0,0.2,0c5.9,4.3,11.6,9,17.1,13.7c5.5,4.7,10.7,9.9,16,14.9l15.9,15l15.8,15.1c0.1,0.1,0.1,0.2,0,0.2
						C199.5,260.9,199.4,260.9,199.3,260.8z"/>
					<path d="M203.2,282.6l-16.6-14.3L170.2,254c-5.5-4.8-11.1-9.4-16.4-14.5c-5.3-5-10.4-10.2-15.3-15.7c-0.1-0.1,0-0.2,0-0.2
						c0.1,0,0.1-0.1,0.2,0c5.9,4.3,11.6,9,17.1,13.7c5.5,4.7,10.7,9.9,16,14.9l15.9,15l15.8,15.1c0.1,0.1,0.1,0.2,0,0.2
						C203.4,282.7,203.3,282.7,203.2,282.6L203.2,282.6z"/>
					<path d="M191.1,282.8c-4-3.1-8-6.2-12-9.2l-11.9-9.4c-3.9-3.1-8.1-6.1-11.8-9.5c-3.8-3.4-7.4-6.9-10.7-10.7
						c-0.1-0.1,0-0.2,0-0.2c0,0,0.1,0,0.2,0c4.3,2.6,8.5,5.5,12.4,8.7c4,3.1,7.6,6.6,11.4,9.9l11.3,10c3.7,3.4,7.5,6.7,11.2,10.2
						c0.1,0.1,0.1,0.2,0,0.2C191.3,282.9,191.2,282.9,191.1,282.8L191.1,282.8z"/>
					<path d="M188.8,287.3c-2.7-1.7-5.3-3.5-7.9-5.2l-7.8-5.3c-2.7-1.7-5.3-3.5-7.7-5.4c-2.5-2-4.7-4.3-6.7-6.7
						c-0.1-0.1,0-0.2,0-0.2c0,0,0.1,0,0.2,0c2.9,1.3,5.7,2.8,8.4,4.6c2.6,1.8,5,3.8,7.4,5.9l7.3,6c2.4,2,4.8,4.1,7.2,6.1
						c0.1,0.1,0.1,0.1,0,0.2C189,287.3,188.9,287.4,188.8,287.3L188.8,287.3z"/>
					<path d="M178.7,290.1c1-0.3,2-0.4,3.1-0.5c1-0.1,2-0.1,3,0c2,0.2,3.9,0.6,5.9,1.2c2,0.4,3.9,0.9,5.8,1.3
						c1.9,0.5,3.9,0.9,5.8,1.5c0.1,0,0.1,0.1,0.1,0.2c0,0.1-0.1,0.1-0.1,0.1c-2-0.1-4-0.2-6-0.3c-2-0.1-4-0.3-6-0.4
						c-2,0-4-0.2-6-0.6c-1-0.2-1.9-0.5-2.9-0.9c-1-0.3-1.9-0.8-2.8-1.3C178.5,290.3,178.5,290.2,178.7,290.1
						C178.6,290.1,178.6,290.1,178.7,290.1L178.7,290.1z"/>
					<path d="M179.9,302.7c2-0.8,4.1-1.3,6.3-1.5c2.1-0.1,4.2-0.1,6.3,0.2c2.1,0.1,4.2,0.2,6.3,0.3c2.1,0.2,4.2,0.3,6.3,0.5
						c0.1,0,0.1,0.1,0.1,0.2c0,0.1-0.1,0.1-0.1,0.1c-2.1,0.3-4.2,0.5-6.3,0.7c-2.1,0.2-4.2,0.4-6.3,0.6c-2.1,0.3-4.2,0.5-6.3,0.4
						c-2.2-0.1-4.3-0.5-6.3-1.2C179.8,303,179.7,302.9,179.9,302.7C179.8,302.8,179.8,302.7,179.9,302.7L179.9,302.7z"/>
					<path d="M185.3,312.4c1.9-1.1,3.9-2,6.1-2.5c2.1-0.5,4.2-0.8,6.4-0.9c2.1-0.3,4.3-0.5,6.4-0.8c2.1-0.2,4.3-0.4,6.4-0.6
						c0.1,0,0.2,0.1,0.2,0.1c0,0.1,0,0.1-0.1,0.2c-2.1,0.6-4.1,1.2-6.2,1.8c-2.1,0.6-4.1,1.1-6.2,1.6c-2,0.7-4.1,1.2-6.3,1.5
						c-2.2,0.3-4.4,0.2-6.6-0.1c-0.1,0-0.1-0.1-0.1-0.2C185.2,312.4,185.3,312.4,185.3,312.4z"/>
					<path d="M188.9,323.1c1.8-1.3,3.8-2.4,5.8-3.2c2.1-0.7,4.2-1.3,6.3-1.6c2.1-0.5,4.2-1,6.4-1.5c2.1-0.5,4.3-0.9,6.4-1.4
						c0.1,0,0.2,0,0.2,0.1c0,0.1,0,0.1-0.1,0.2c-2,0.9-4,1.7-6.1,2.5c-2,0.8-4.1,1.6-6.1,2.4c-2,0.9-4,1.6-6.1,2.2
						c-2.2,0.5-4.4,0.7-6.6,0.6c-0.1,0-0.2-0.1-0.2-0.2C188.8,323.2,188.8,323.1,188.9,323.1L188.9,323.1z"/>
					<path d="M196.8,331.5c0.7-0.7,1.5-1.4,2.4-2c0.8-0.6,1.7-1.1,2.6-1.5c1.8-0.8,3.7-1.5,5.6-1.9c1.9-0.6,3.7-1.2,5.6-1.8
						c1.9-0.6,3.8-1.1,5.7-1.7c0.1,0,0.2,0,0.2,0.1c0,0.1,0,0.1-0.1,0.2c-1.7,1-3.5,1.9-5.2,2.8c-1.8,0.9-3.5,1.8-5.3,2.6
						c-1.7,1-3.5,1.8-5.3,2.5c-0.9,0.3-1.9,0.5-2.9,0.7c-1,0.2-2,0.3-3.1,0.3c-0.1,0-0.2-0.1-0.2-0.2
						C196.7,331.5,196.7,331.5,196.8,331.5L196.8,331.5z"/>
					<path d="M206.2,338.7c0.4-0.7,1-1.4,1.6-2c0.6-0.6,1.2-1.2,1.8-1.7c1.3-0.9,2.7-1.7,4.2-2.3c1.4-0.7,2.9-1.5,4.3-2.2
						c1.5-0.7,2.9-1.4,4.4-2.1c0.1,0,0.2,0,0.2,0.1c0,0.1,0,0.1,0,0.2c-1.2,1.1-2.5,2-3.7,3.1c-1.3,1-2.5,2-3.8,2.9
						c-1.2,1.1-2.5,2-3.9,2.8c-0.7,0.4-1.5,0.7-2.3,0.9c-0.8,0.3-1.7,0.4-2.5,0.5C206.2,338.9,206.2,338.9,206.2,338.7
						C206.2,338.8,206.2,338.7,206.2,338.7L206.2,338.7z"/>
					<path d="M212.7,348.7c0.4-0.7,0.8-1.4,1.4-2c0.5-0.6,1-1.1,1.6-1.6c1.2-0.9,2.5-1.7,3.9-2.3c1.3-0.8,2.6-1.5,4-2.2
						c1.4-0.7,2.7-1.4,4.1-2.1c0.1,0,0.2,0,0.2,0.1c0,0.1,0,0.1,0,0.2c-1.1,1.1-2.3,2-3.4,3.1c-1.1,1-2.3,2-3.5,2.9
						c-1.1,1.1-2.3,2-3.6,2.8c-0.7,0.4-1.4,0.7-2.1,0.9c-0.8,0.3-1.6,0.5-2.4,0.5C212.8,349,212.7,348.9,212.7,348.7
						C212.7,348.8,212.7,348.8,212.7,348.7C212.7,348.8,212.7,348.8,212.7,348.7z"/>
					<path d="M220.2,354.7c0.2-0.7,0.5-1.4,0.9-2.1c0.4-0.6,0.8-1.2,1.2-1.8c1-1,2.1-1.9,3.3-2.7c1.1-0.9,2.2-1.7,3.4-2.6
						c1.2-0.8,2.3-1.7,3.5-2.4c0.1,0,0.2,0,0.2,0c0,0.1,0,0.1,0,0.2c-0.9,1.1-1.8,2.2-2.7,3.3c-0.9,1.1-1.8,2.2-2.8,3.2
						c-0.8,1.1-1.8,2.2-2.9,3.1c-0.6,0.4-1.2,0.8-1.8,1.1c-0.7,0.4-1.4,0.6-2.2,0.8C220.3,354.9,220.2,354.9,220.2,354.7
						C220.2,354.8,220.2,354.7,220.2,354.7z"/>
					<path d="M229.1,360.9c0.1-0.7,0.3-1.3,0.5-1.9c0.2-0.6,0.5-1.1,0.9-1.6c0.8-1,1.6-1.8,2.6-2.5c0.9-0.8,1.8-1.6,2.7-2.4
						c1-0.8,1.9-1.5,2.9-2.3c0.1-0.1,0.2,0,0.2,0c0,0,0,0.1,0,0.2c-0.6,1.1-1.3,2.1-2,3.1c-0.7,1-1.4,2-2.1,3
						c-0.6,1.1-1.3,2-2.2,2.9c-0.5,0.4-1,0.7-1.5,1c-0.6,0.3-1.2,0.6-1.9,0.7C229.2,361.1,229.1,361.1,229.1,360.9
						C229.1,361,229.1,360.9,229.1,360.9z"/>
					<path d="M232.8,372.8c0-0.8,0.2-1.7,0.4-2.5c0.2-0.8,0.5-1.5,0.8-2.2c0.7-1.4,1.6-2.7,2.7-3.9c0.9-1.3,1.8-2.6,2.8-3.8
						c1-1.2,1.9-2.5,2.9-3.7c0.1-0.1,0.1-0.1,0.2,0c0.1,0,0.1,0.1,0,0.2c-0.6,1.5-1.3,2.9-1.9,4.4c-0.7,1.4-1.3,2.9-2,4.3
						c-0.6,1.5-1.3,2.9-2.2,4.2c-0.5,0.6-1,1.2-1.6,1.8c-0.6,0.6-1.3,1.1-2,1.6C233,373,232.9,373,232.8,372.8
						C232.8,372.9,232.8,372.9,232.8,372.8L232.8,372.8z"/>
					<path d="M235.9,380.7c0-0.7,0.1-1.5,0.2-2.2c0.2-0.7,0.4-1.3,0.6-1.9c0.6-1.2,1.4-2.3,2.3-3.2c0.8-1.1,1.6-2.1,2.4-3.2
						c0.8-1,1.7-2.1,2.5-3.1c0.1-0.1,0.2-0.1,0.2,0c0,0,0.1,0.1,0,0.2c-0.5,1.3-1,2.5-1.5,3.7c-0.5,1.2-1.1,2.4-1.6,3.6
						c-0.4,1.3-1,2.4-1.8,3.5c-0.4,0.5-0.9,1-1.4,1.5c-0.5,0.5-1.1,0.9-1.8,1.2C236.1,380.9,236,380.8,235.9,380.7
						C235.9,380.7,235.9,380.7,235.9,380.7L235.9,380.7z"/>
					<path d="M242.8,389.5c-0.1-0.6,0-1.3,0.1-1.9c0.1-0.6,0.3-1.1,0.5-1.7c0.5-1,1.2-1.9,2-2.7c0.7-0.9,1.4-1.8,2.1-2.6
						c0.7-0.9,1.5-1.7,2.2-2.6c0.1-0.1,0.2-0.1,0.2,0c0,0,0.1,0.1,0,0.2c-0.4,1.1-0.8,2.1-1.2,3.2c-0.4,1-0.9,2.1-1.3,3.1
						c-0.3,1.1-0.8,2.1-1.5,3c-0.4,0.4-0.8,0.9-1.2,1.2c-0.5,0.4-1,0.7-1.6,1C242.9,389.7,242.8,389.7,242.8,389.5
						C242.8,389.6,242.8,389.5,242.8,389.5z"/>
					<path d="M246.8,399.1c-0.1-0.6-0.1-1.2,0-1.7c0.1-0.5,0.2-1,0.4-1.5c0.4-0.9,1-1.7,1.8-2.4c0.6-0.8,1.2-1.5,1.9-2.3
						c0.7-0.7,1.3-1.5,2-2.2c0.1-0.1,0.2-0.1,0.2,0c0,0,0.1,0.1,0,0.2c-0.3,1-0.7,1.9-1,2.8c-0.4,0.9-0.7,1.8-1.1,2.8
						c-0.3,1-0.7,1.9-1.2,2.7c-0.3,0.4-0.7,0.7-1.1,1c-0.5,0.3-1,0.6-1.5,0.8C246.9,399.3,246.8,399.2,246.8,399.1L246.8,399.1
						L246.8,399.1z"/>
					<path d="M206,213.5c5.1,5.9,9,12.7,11.6,20c0.9,2.5,1.6,5,2.1,7.5c0.3,1.3,0.4,2.6,0.7,3.9c0.2,1.3,0.3,2.6,0.4,3.9
						c0.1,1.3,0.1,2.6,0.1,3.9c0,1.3-0.1,2.6-0.2,3.9c-0.4,5.2-1.7,10.2-3.7,15c0.9-5,1.3-10,1.4-15.1l-0.1-3.7
						c-0.1-1.2-0.2-2.5-0.3-3.7c-0.2-1.2-0.3-2.5-0.5-3.7c-0.2-1.2-0.4-2.5-0.7-3.7c-0.5-2.4-1.1-4.9-1.9-7.2
						c-0.7-2.4-1.6-4.7-2.5-7.1C210.6,222.6,208.3,218,206,213.5z"/>
					<path d="M237,255.8c0.1,0.5-0.1,1.1-0.5,1.5c-0.4,0.4-0.8,0.7-1.3,0.9c-0.9,0.4-1.9,0.6-2.9,0.6c-1,0-2-0.2-2.9-0.6
						c-0.5-0.2-0.9-0.5-1.3-0.9c-0.2-0.2-0.4-0.4-0.5-0.7c-0.1-0.3-0.1-0.5,0-0.8c0.2,0.4,0.6,0.6,1,0.7c0.4,0.1,0.8,0.2,1.2,0.2
						c0.8,0.1,1.7,0.1,2.5,0.1c0.8,0,1.7,0,2.5-0.1c0.4,0,0.8-0.1,1.2-0.2C236.4,256.4,236.7,256.2,237,255.8z"/>
					<path d="M222.4,401.7c1.5,1.2,2.7,2.8,3.3,4.7c0.7,1.8,1,3.8,0.9,5.8c-0.1,2-0.5,3.9-1.4,5.7c-0.8,1.8-2.3,3.3-4.2,4
						c1-1.4,1.7-3.1,2-4.8c0.4-1.6,0.6-3.3,0.6-5c0.1-1.7,0-3.4-0.2-5.1C223.2,405.2,222.9,403.5,222.4,401.7z"/>
					<path d="M219.4,423.4c0.1,0.9-0.1,1.9-0.8,2.6c-0.5,0.7-1.2,1.2-2,1.6c-0.7,0.4-1.6,0.6-2.4,0.6c-0.9,0.1-1.8-0.1-2.6-0.6
						c0.5-0.6,1.2-1.2,1.8-1.7c0.6-0.4,1.2-0.8,1.8-1.1c0.6-0.3,1.2-0.5,1.9-0.8C218,423.9,218.7,423.7,219.4,423.4z"/>
					<path d="M253.5,410.6c1.5,0.3,2.8,0.9,4.1,1.8c1.2,0.8,2.3,1.8,3.3,3c0.9,1.2,1.7,2.5,2.1,4c0.5,1.4,0.6,3,0.4,4.5
						c-0.9-1.2-1.7-2.3-2.5-3.4c-0.8-1.1-1.6-2.1-2.4-3.2l-2.5-3.1C255.1,413,254.2,411.8,253.5,410.6z"/>
					<path d="M260.1,455.3c1.6,0.4,3.1,1.4,4.1,2.8c1,1.3,1.7,2.9,2.1,4.5c0.4,1.6,0.4,3.2,0.2,4.9c-0.2,1.6-0.7,3.2-1.5,4.6
						c-0.3-1.6-0.6-3.1-0.8-4.5c-0.2-1.4-0.5-2.8-0.8-4.2c-0.3-1.4-0.7-2.7-1.2-4C261.6,457.9,260.9,456.5,260.1,455.3z"/>
					<path d="M250.9,430c1.1,0.3,2.2,0.8,3,1.5c0.9,0.7,1.7,1.6,2.3,2.5c2.6,3.7,4.1,8.1,4.1,12.7c0.1,2.3-0.5,4.5-1.7,6.5
						c0-2.1-0.2-4.2-0.6-6.3c-0.4-2-0.9-4-1.6-6c-0.6-2-1.3-3.9-2.2-5.7C253.5,433.3,252.3,431.5,250.9,430z"/>
				</g>
			</g>
			<g>
				<g>
					<line class="st6" x1="373.1" y1="540" x2="332.2" y2="469"/>
					<line class="st6" x1="358.9" y1="554.7" x2="323.4" y2="472.9"/>
					<line class="st6" x1="343.8" y1="566.2" x2="306.6" y2="460.7"/>
					<line class="st6" x1="321.1" y1="575.4" x2="300.7" y2="461.1"/>
					<line class="st6" x1="300.1" y1="577.4" x2="292.5" y2="461.1"/>
				</g>
				<g>
					<line class="st6" x1="203.2" y1="540" x2="244.2" y2="469"/>
					<line class="st6" x1="217.5" y1="554.7" x2="252.9" y2="472.9"/>
					<line class="st6" x1="232.5" y1="566.2" x2="269.8" y2="460.7"/>
					<line class="st6" x1="255.3" y1="575.4" x2="275.7" y2="461.1"/>
					<line class="st6" x1="276.2" y1="577.4" x2="283.9" y2="461.1"/>
				</g>
			</g>
		</g>
		<g>
			<g>
				<path class="st7" d="M401.8,502.1L401.8,502.1L401.8,502.1c12.2-5,23.9-10.2,19.2-19.4c-0.1-0.3-0.3-0.5-0.4-0.8
					c-3.4-4.8-23-2.1-52.2,16.1l10.8,22.6C376.1,512,389.3,507.1,401.8,502.1z"/>
				<path class="st8" d="M420.6,481.9c0.1,0.3,0.3,0.5,0.4,0.8C420.9,482.4,420.8,482.1,420.6,481.9z"/>
				<path class="st7" d="M416.9,542.9L416.9,542.9c3.8-3.1,7.8-6.4,5.2-12.4c-2.2-5-7.9-6-14.5-5.8c-5.8,0.1-5.2,13.1,5.5,29.4
					c-0.3-0.6-0.6-1.1-0.8-1.7C410.5,548.2,413.6,545.6,416.9,542.9z"/>
				<path class="st9" d="M426.1,562.9l-9.2-20c-3.3,2.7-6.4,5.3-4.7,9.5c0.2,0.6,0.5,1.2,0.8,1.7l0,0l0,0
					C417.3,561.5,426.1,562.9,426.1,562.9z"/>
				<path class="st9" d="M422.1,530.5c-2-12.4-20.3-28.4-20.3-28.4c-12.5,5.1-25.7,9.9-22.5,18.5c3,8.2,17,4.5,28.3,4.1c0,0,0,0,0,0
					c0,0,0,0,0,0C414.2,524.5,419.9,525.5,422.1,530.5z"/>
			</g>
			<g>
				<path class="st9" d="M395.9,453.3c-7.5-4.3-21.3,5.6-57.1,20.9s-65.6,15.3-101.4,0S188,449,180.4,453.3
					c-7.4,4.3-18.3,16.2-24.7,28.6c3.4-4.8,23-2.1,52.2,16.1c2.6,1.6,5.3,3.4,8,5.2c35.1,23.9,109.3,23.9,144.5,0
					c2.8-1.9,5.4-3.6,8-5.2c29.2-18.2,48.8-20.9,52.2-16.1C414.2,469.6,403.3,457.6,395.9,453.3z"/>
				<path class="st7" d="M174.5,502.1L174.5,502.1L174.5,502.1c-12.2-5-23.9-10.2-19.2-19.4c0.1-0.3,0.3-0.5,0.4-0.8
					c3.4-4.8,23-2.1,52.2,16.1L197,520.6C200.2,512,187.1,507.1,174.5,502.1z"/>
				<path class="st8" d="M155.7,481.9c-0.1,0.3-0.3,0.5-0.4,0.8C155.4,482.4,155.5,482.1,155.7,481.9z"/>
				<path class="st7" d="M159.4,542.9L159.4,542.9c-3.8-3.1-7.8-6.4-5.2-12.4c2.2-5,7.9-6,14.5-5.8c5.8,0.1,5.2,13.1-5.5,29.4
					c0.3-0.6,0.6-1.1,0.8-1.7C165.8,548.2,162.7,545.6,159.4,542.9z"/>
				<path class="st9" d="M150.2,562.9l9.2-20c3.3,2.7,6.4,5.3,4.7,9.5c-0.2,0.6-0.5,1.2-0.8,1.7l0,0l0,0
					C159.1,561.5,150.2,562.9,150.2,562.9z"/>
				<path class="st9" d="M154.3,530.5c2-12.4,20.3-28.4,20.3-28.4c12.5,5.1,25.7,9.9,22.5,18.5c-3,8.2-17,4.5-28.3,4.1c0,0,0,0,0,0
					c0,0,0,0,0,0C162.2,524.5,156.5,525.5,154.3,530.5z"/>
			</g>
			<g>
				<path d="M185.5,473.4l3,2.4c-1,1.5-2.5,2.7-4.2,3.3c-4.1,1-8.3-1.1-10.1-4.9c-0.9-2.4-0.8-5.1,0.2-7.4c1.1-2.9,2.7-4.9,4.8-6
					c2.2-1.1,4.7-1.1,6.9-0.2c2,0.6,3.6,2,4.5,3.9c0.5,1.2,0.8,2.6,0.6,3.9l-3.8-0.5c0.3-1.9-0.8-3.7-2.6-4.4
					c-1.2-0.5-2.6-0.4-3.7,0.2c-1.2,0.6-2.1,2-2.9,4.1c-0.8,2.2-1,4-0.6,5.2c0.4,1.2,1.4,2.2,2.6,2.6c0.9,0.4,1.9,0.4,2.8,0
					C184.1,475.2,184.9,474.4,185.5,473.4z"/>
				<path d="M192.5,473.7c0.7-1.5,1.7-2.8,2.9-3.9c0.8-0.7,1.7-1.2,2.7-1.5c0.9-0.3,1.9-0.5,2.9-0.4c1.4,0.1,2.7,0.5,4,1.1
					c2.3,1,4,2.9,4.8,5.3c1.1,5.2-1.5,10.6-6.3,12.8c-2.3,0.8-4.9,0.6-7.1-0.6c-2.3-1-4-2.9-4.9-5.3
					C190.9,478.7,191.2,476,192.5,473.7z M196.1,475.3c-0.9,1.5-1.2,3.3-0.8,5c0.8,2.7,3.6,4.2,6.3,3.5c0.1,0,0.3-0.1,0.4-0.1
					c1.6-0.8,2.8-2.1,3.5-3.8c0.9-1.5,1.2-3.3,0.9-5c-0.9-2.8-3.9-4.3-6.6-3.4c-0.1,0-0.1,0-0.2,0.1
					C197.9,472.4,196.7,473.7,196.1,475.3L196.1,475.3z"/>
				<path d="M207.3,491.6l8.6-16.7l3.3,1.7l1.1,14.7l5.8-11.2l3.1,1.6l-8.6,16.7l-3.4-1.8l-1.1-14.4l-5.6,10.9L207.3,491.6z"/>
				<path d="M228.2,502.2l6.6-14.2l-5.1-2.4l1.3-2.9l13.6,6.3l-1.3,2.9l-5.1-2.4l-6.6,14.2L228.2,502.2z"/>
				<path d="M240,507.5l6.4-17.7l13.1,4.8l-1.1,3l-9.6-3.5l-1.4,3.9l8.9,3.2l-1.1,3l-8.9-3.2l-1.7,4.8l9.9,3.6l-1.1,3L240,507.5z"/>
				<path d="M275,517.1l-4.1-0.8l-0.8-4.5l-7.4-1.4l-2.3,3.9l-4-0.8l10.8-17.1l3.9,0.8L275,517.1z M269.5,508.4l-1.2-7.4l-3.8,6.4
					L269.5,508.4z"/>
				<path d="M284.9,506.4l4.1-0.2c0.7-0.1,1.4,0,2.1,0.1c0.6,0.2,1.2,0.5,1.7,0.9c0.5,0.5,0.9,1.1,1.1,1.7c0.3,0.8,0.5,1.7,0.5,2.6
					c0.1,0.8,0,1.6-0.2,2.4c-0.2,0.7-0.6,1.4-1.1,2c-0.4,0.4-0.9,0.8-1.5,0.9c-0.6,0.2-1.3,0.3-2,0.3l-4.2,0.2L284.9,506.4z
					 M287.2,508.1l0.3,7.3l1.7-0.1c0.5,0,0.9-0.1,1.3-0.2c0.3-0.1,0.6-0.3,0.9-0.5c0.3-0.3,0.5-0.7,0.5-1.1c0.1-0.7,0.2-1.3,0.1-2
					c0-0.7-0.1-1.3-0.3-1.9c-0.1-0.4-0.4-0.8-0.7-1c-0.3-0.3-0.7-0.4-1-0.5c-0.6-0.1-1.2-0.1-1.8,0L287.2,508.1z"/>
				<path d="M297.4,516.5l-1.5-10.9l2.2-0.3l1.5,10.9L297.4,516.5z"/>
				<path d="M311.9,514l-6.1-17.8l5.4-1.8l7.4,11.1l-0.9-13.3l5.4-1.8l6.1,17.8l-3.3,1.1l-4.8-14l1.2,15.2l-3.5,1.2l-8.3-12.8
					l4.8,14L311.9,514z"/>
				<path d="M329.1,497.9c-0.8-1.5-1.2-3.1-1.3-4.7c0-1,0.1-2.1,0.5-3.1c0.3-1,0.8-1.8,1.5-2.6c0.9-1,2.1-1.9,3.3-2.4
					c2.2-1.2,4.8-1.4,7.1-0.6c4.8,2.3,7.4,7.7,6.3,12.9c-0.8,2.3-2.6,4.2-4.8,5.2c-2.2,1.2-4.8,1.4-7.1,0.6
					C332,502.2,330.1,500.3,329.1,497.9z M332.6,496.1c0.6,1.6,1.9,3,3.4,3.7c2.6,1,5.6-0.2,6.6-2.8c0.1-0.1,0.1-0.3,0.1-0.4
					c0.4-1.7,0.1-3.5-0.8-5.1c-0.6-1.6-1.8-2.9-3.4-3.7c-2.7-1-5.7,0.4-6.7,3.2c0,0.1,0,0.1-0.1,0.2
					C331.4,492.8,331.7,494.6,332.6,496.1L332.6,496.1z"/>
				<path d="M343.5,480.1l6.1-3.3c1-0.6,2.2-1.1,3.3-1.4c1.1-0.2,2.3-0.2,3.3,0.2c1.1,0.4,2.2,1,3,1.8c1.1,1.1,2,2.3,2.6,3.6
					c0.7,1.2,1.1,2.5,1.4,3.8c0.2,1.3,0.2,2.6-0.2,3.9c-0.3,1-0.9,1.9-1.6,2.6c-0.8,0.8-1.8,1.4-2.8,1.9l-6.3,3.4L343.5,480.1z
					 M348.4,481.2l5.9,11l2.5-1.3c0.7-0.3,1.3-0.8,1.9-1.2c0.4-0.4,0.8-0.9,1-1.4c0.2-0.7,0.2-1.4,0-2.1c-0.3-1.1-0.7-2.2-1.3-3.2
					c-0.5-1-1.1-2-1.9-2.8c-0.5-0.5-1.1-0.9-1.8-1.1c-0.6-0.2-1.3-0.1-2,0c-1,0.4-1.9,0.8-2.8,1.3L348.4,481.2z"/>
				<path d="M369,487.9l-8.7-16.7l3.4-1.7l8.7,16.7L369,487.9z"/>
				<path d="M383.5,473.2l3.8-0.5c0.4,1.8,0.1,3.7-0.7,5.3c-2.2,3.6-6.7,5.1-10.6,3.6c-2.3-1.1-4.2-3-5.1-5.4
					c-1.3-2.9-1.6-5.4-0.8-7.7c0.8-2.3,2.5-4.1,4.7-5c1.8-0.9,4-1.1,6-0.5c1.3,0.5,2.4,1.3,3.2,2.4L381,468
					c-1.1-1.6-3.2-2.1-4.9-1.2c-1.2,0.5-2.1,1.5-2.5,2.8c-0.4,1.3-0.1,2.9,0.8,5c1,2.2,2.1,3.5,3.3,4.1c1.2,0.6,2.5,0.6,3.7,0
					c0.9-0.4,1.6-1.1,2-2C383.7,475.5,383.8,474.3,383.5,473.2z"/>
				<path d="M408.5,472.7l-4,1.1l-2.7-3.7l-7.3,1.9l-0.4,4.5l-3.9,1l2.3-20.1l3.9-1L408.5,472.7z M399.8,467.3l-4.3-6.1l-0.7,7.4
					L399.8,467.3z"/>
			</g>
		</g>
		<g>
			<g>
				<g>
					<path class="st10" d="M274.4,277.9c5.7,4.2,11.7,2.8,13.8-1.4c2.1,4.3,8.1,5.7,13.8,1.4c0.1,8,4.1,9.9,11.6,9.7l3.9-5.4
						c-9.7,2.4-13.9-1-11.9-11c-7.5,6.4-13.5,5.9-17.4-4c-3.9,9.8-9.9,10.4-17.4,4c2,10-2.2,13.4-11.9,11l3.9,5.4
						C270.3,287.8,274.3,285.9,274.4,277.9z"/>
					<path class="st10" d="M302,277.9c-5.7,4.2-11.7,2.8-13.8-1.4c-2.1,4.3-8.1,5.7-13.8,1.4c-0.1,8-4.1,9.9-11.6,9.7l4.8,6.7
						c2.7-5.1,10.9-8.8,20.6-8.8s17.9,3.7,20.6,8.8l4.8-6.7C306,287.8,302.1,285.9,302,277.9z"/>
					<path class="st10" d="M288.2,285.6c-9.7,0-17.9,3.7-20.6,8.8l2.9,4.1c-0.1-0.4-0.2-0.8-0.2-1.2c0-4.5,8-8.2,17.9-8.2
						s17.9,3.7,17.9,8.2c0,0.4-0.1,0.8-0.2,1.2l2.9-4.1C306.1,289.3,297.9,285.6,288.2,285.6z"/>
				</g>
				<ellipse class="st11" cx="288.2" cy="297.2" rx="17.9" ry="8.2"/>
				<circle class="st10" cx="288.2" cy="267.3" r="2.9"/>
				<circle class="st10" cx="305.5" cy="271.2" r="2.9"/>
				<circle class="st10" cx="317.5" cy="282.2" r="2.9"/>
				<circle class="st10" cx="271.1" cy="271.2" r="2.9"/>
				<circle class="st10" cx="258.9" cy="282.2" r="2.9"/>
			</g>
			<g>
				<path class="st10" d="M327.5,304.5c-13.8,0-39.3-15.2-39.3-15.2s-25.6,15.2-39.3,15.2c0,0,0,54.6,0,73s39.3,19.8,39.3,29.6
					c0-9.7,39.3-11.1,39.3-29.6S327.5,304.5,327.5,304.5z M301.7,393.3c-5.3,2-10.2,3.9-13.5,6.3c-3.3-2.5-8.2-4.3-13.5-6.3
					c-10.1-3.8-21.5-8.1-21.5-15.8c0-15.4,0-56.3,0-69.1c12.4-1.9,29.1-10.9,35.1-14.2c6,3.4,22.7,12.3,35.1,14.2
					c0,12.8,0,53.6,0,69.1C323.3,385.2,311.8,389.5,301.7,393.3z"/>
				<path class="st12" d="M288.2,294.2c-6,3.4-22.7,12.3-35.1,14.2c0,12.8,0,53.6,0,69.1c0,7.7,11.4,12,21.5,15.8
					c5.3,2,10.2,3.9,13.5,6.3c3.3-2.5,8.2-4.3,13.5-6.3c10.1-3.8,21.5-8.1,21.5-15.8c0-15.4,0-56.3,0-69.1
					C310.9,306.5,294.1,297.5,288.2,294.2z"/>
			</g>
			<g>
				<path class="st13" d="M316.4,334.9c-1,0.3-2.1,0.7-3,1.2C314.4,335.5,316.5,335.1,316.4,334.9z"/>
				<path class="st14" d="M313.4,336.1c-0.1,0-0.2,0.1-0.2,0.1C313.2,336.1,313.3,336.1,313.4,336.1z"/>
				<path class="st15" d="M259.5,329.1c1.6,0.3,2.9,1.6,3.2,3.2c0.4-1.8,1.1-3.5,2-5.1c0.9-1.6,2.6-2.7,4.4-2.9
					c1.6-0.1,3.2,1.8,3.7,3.5c0.5-0.2,1-0.3,1.5-0.3c2.1,0.2,3.9,1.3,5.2,2.9c0.8-2.3,3.3-3.5,5.7-4.1c4.2-0.9,8.5-0.9,12.6,0
					c0.7-0.2,1.5-0.4,2.2-0.5c1.9-0.3,3.8,0.1,5.4,1.1c1.6,1,2.5,2.9,2.1,4.8c1.4-1,3.2-1.4,4.9-0.9c1.5,0.4,2.9,2.4,3.7,4
					c2.3-0.6,4.7-0.5,6.9,0.2c0-11.2,0-21.3,0-26.6c-12.4-1.9-29.1-10.9-35.1-14.2c-6,3.4-22.7,12.3-35.1,14.2c0,4.6,0,12.9,0,22.3
					c0.6-0.4,1.1-0.7,1.7-1C256.3,329,257.9,328.8,259.5,329.1z"/>
				<g>
					<path class="st13" d="M316.4,334.9c-1,0.3-2.1,0.7-3,1.2C314.4,335.5,316.5,335.1,316.4,334.9z"/>
					<path class="st13" d="M272.8,327.8C271.4,328.4,272.9,328,272.8,327.8z"/>
					<path class="st16" d="M261.5,347.7c1.6,0.7,3.3,1.2,4.9,1.5c2.6-1.6,5.3-2.9,8.1-4c7.2-2.7,15.1,1.5,22.8,2.3
						c1.6,0.2,3.4,0.3,4.1,1.8c1.2-0.7,2.6-1.2,4.1-1.3c2.2-0.4,4.4-1,6.5-1.7c1.3,0.5,2.2,1,3.5,1.5c1.4-1.1,3-2.1,4.6-2.8
						c1-0.5,2.1-0.8,3.2-1c0-3,0-6,0-9c-2.2-0.7-4.6-0.7-6.9-0.2c0.1,0.2-1.9,0.6-3,1.2c-0.1,0-0.1,0.1-0.2,0.1
						c-1.1,0.6-2,1.5-2.5,2.7c0.5-1.2,1.4-2.2,2.5-2.7c0.1,0,0.1-0.1,0.2-0.1c0.9-0.5,2-0.9,3-1.2c-0.8-1.6-2.2-3.6-3.7-4
						c-1.7-0.5-3.5-0.1-4.9,0.9c0.3-1.9-0.5-3.8-2.1-4.8c-1.6-1-3.5-1.4-5.4-1.1c-0.8,0.1-1.5,0.2-2.2,0.5l0,0
						c-0.5,0.2-0.9,0.4-1.3,0.6c-1.1,0.6-1.9,1.7-2.2,3c0.3-1.2,1.1-2.3,2.2-3c0.4-0.3,0.9-0.5,1.3-0.6c-4.2-0.9-8.5-0.9-12.6,0
						c-2.4,0.6-5,1.8-5.7,4.1c-1.3-1.6-3.2-2.6-5.2-2.9c-0.5,0-1,0.1-1.5,0.3c0.1,0.2-1.5,0.5,0,0c-0.5-1.7-2.1-3.6-3.7-3.5
						c-1.8,0.2-3.5,1.3-4.4,2.9c-0.9,1.6-1.6,3.3-2,5.1c-0.4-1.6-1.6-2.9-3.2-3.2c-1.6-0.3-3.2-0.1-4.7,0.6c-0.6,0.3-1.2,0.6-1.7,1
						c0,5.7,0,11.9,0,17.9c1.9,0.6,4.1,1.4,4.5,1.6C258.7,349.1,260.1,348.2,261.5,347.7z"/>
					<path class="st17" d="M323.3,344c-1.1,0.2-2.2,0.5-3.2,1c-1.6,0.8-3.2,1.7-4.6,2.8l0,0l0,0c-0.4,0.3-0.8,0.6-1.3,0.9
						c-1.2,0.9-2.3,1.7-3.5,2.6c1.2-0.9,2.3-1.7,3.5-2.6c0.4-0.3,0.8-0.6,1.3-0.9c-1.3-0.5-2.2-0.9-3.5-1.5
						c-2.1,0.8-4.3,1.3-6.5,1.7c-1.4,0.1-2.8,0.5-4.1,1.3c-0.7-1.5-2.5-1.6-4.1-1.8c-7.7-0.8-15.6-5.1-22.8-2.3
						c-2.8,1.1-5.5,2.4-8.1,4l0,0c-1.1,0.6-2.1,1.3-3.2,2c0.1,0.7,0,1.5-0.2,2.2c0.2-0.7,0.3-1.5,0.2-2.2c1.1-0.7,2.1-1.4,3.2-2
						c-1.7-0.3-3.4-0.8-4.9-1.5c-1.5,0.5-2.8,1.3-4,2.4c-0.4-0.2-2.6-0.9-4.5-1.6c0,11.5,0,22.4,0,28.9c0,7.7,11.4,12,21.5,15.8
						c5.3,2,10.2,3.9,13.5,6.3c3.3-2.5,8.2-4.3,13.5-6.3c10.1-3.8,21.5-8.1,21.5-15.8C323.3,370.1,323.3,357.1,323.3,344z"/>
				</g>
			</g>
			<g>
				<g>
					<polygon class="st18" points="294.8,311.7 294.8,317.4 290.3,317.4 290.3,311.7 288.2,311.7 286,311.7 286,317.4 281.6,317.4 
						281.6,311.7 277.1,311.7 277.1,342.6 299.3,342.6 299.3,311.7 					"/>
					<g>
						<line class="st19" x1="288.2" y1="311.7" x2="288" y2="298"/>
						<path class="st20" d="M288.1,306.5c0-2.6,0-3.8,0-6.4c7.1-0.9,10.7,5.6,17.8,4.7C298.8,308.3,295.2,303.1,288.1,306.5z"/>
					</g>
				</g>
				<polygon class="st18" points="301.6,331.9 301.6,338.9 296.4,338.9 296.4,331.9 296.2,331.9 293.6,331.9 291,331.9 290.9,331.9 
					290.9,338.9 285.5,338.9 285.5,331.9 285.4,331.9 282.8,331.9 280.2,331.9 280,331.9 280,338.9 274.7,338.9 274.7,331.9 
					269.2,331.9 267.1,366.6 309.2,366.6 307.2,331.9 				"/>
				<path class="st18" d="M281,363.3v-13.5c0-4,3.2-7.2,7.2-7.2l0,0c4,0,7.2,3.2,7.2,7.2v13.5H281z"/>
				<path class="st21" d="M284.1,363.3v-13.3c0-2.3,1.8-4.1,4.1-4.1c2.3,0,4.1,1.8,4.1,4.1c0,0,0,0,0,0v13.3H284.1z"/>
				<g>
					<polygon class="st18" points="269.3,365.3 269.3,358.3 263.7,358.3 262.3,365.3 265.8,365.3 					"/>
					<polygon class="st18" points="265.8,380.4 259.3,380.4 258.5,384.5 271.1,384.5 271.1,380.4 					"/>
					<polygon class="st18" points="277,380.4 271.1,380.4 271.1,384.5 282.7,384.5 282.7,380.4 					"/>
					<polygon class="st18" points="299.5,380.4 294.3,380.4 294.3,384.5 306,384.5 306,380.4 					"/>
					<polygon class="st18" points="288.3,380.4 282.7,380.4 282.7,384.5 294.3,384.5 294.3,380.4 					"/>
					<polygon class="st18" points="317,380.4 310.7,380.4 306,380.4 306,384.5 317.8,384.5 					"/>
					<polygon class="st18" points="290.9,365.3 290.9,358.3 290.9,358.3 290.8,358.3 290.7,358.3 288.2,358.3 288.1,358.3 
						285.6,358.3 285.5,358.3 285.4,358.3 285.4,365.3 288.3,365.3 					"/>
					<polygon class="st18" points="310.7,380.4 317,380.4 316,375.4 310.7,375.4 					"/>
					<polygon class="st18" points="306,375.4 299.5,375.4 299.5,380.4 306,380.4 310.7,380.4 310.7,375.4 					"/>
					<polygon class="st18" points="271.1,375.4 265.8,375.4 265.8,380.4 271.1,380.4 277,380.4 277,375.4 					"/>
					<polygon class="st18" points="282.7,375.4 277,375.4 277,380.4 282.7,380.4 288.3,380.4 288.3,375.4 					"/>
					<polygon class="st18" points="294.3,375.4 288.3,375.4 288.3,380.4 294.3,380.4 299.5,380.4 299.5,375.4 					"/>
					<polygon class="st18" points="265.8,375.4 260.3,375.4 259.3,380.4 265.8,380.4 					"/>
					<polygon class="st18" points="280,365.3 280,358.3 279.9,358.3 277.3,358.3 274.7,358.3 274.5,358.3 274.5,365.3 277,365.3 
											"/>
					<polygon class="st18" points="265.8,365.3 262.3,365.3 261.3,370.3 265.8,370.3 					"/>
					<polygon class="st18" points="310.7,370.3 315,370.3 314,365.3 310.7,365.3 					"/>
					<polygon class="st18" points="265.8,370.3 271.1,370.3 277,370.3 277,365.3 274.5,365.3 269.3,365.3 265.8,365.3 					"/>
					<polygon class="st18" points="299.5,370.3 306,370.3 310.7,370.3 310.7,365.3 307.1,365.3 302.2,365.3 299.5,365.3 					"/>
					<polygon class="st18" points="288.3,370.3 294.3,370.3 299.5,370.3 299.5,365.3 296.2,365.3 290.9,365.3 288.3,365.3 					"/>
					<polygon class="st18" points="277,370.3 282.7,370.3 288.3,370.3 288.3,365.3 285.4,365.3 280.2,365.3 280,365.3 277,365.3 
											"/>
					<polygon class="st18" points="299.5,375.4 306,375.4 306,370.3 299.5,370.3 294.3,370.3 294.3,375.4 					"/>
					<polygon class="st18" points="282.7,375.4 282.7,370.3 277,370.3 271.1,370.3 271.1,375.4 277,375.4 					"/>
					<polygon class="st18" points="306,370.3 306,375.4 310.7,375.4 316,375.4 315,370.3 310.7,370.3 					"/>
					<polygon class="st18" points="288.3,375.4 294.3,375.4 294.3,370.3 288.3,370.3 282.7,370.3 282.7,375.4 					"/>
					<polygon class="st18" points="271.1,375.4 271.1,370.3 265.8,370.3 261.3,370.3 260.3,375.4 265.8,375.4 					"/>
					<polygon class="st18" points="302.2,365.3 301.8,360.4 301.8,358.3 301.7,358.3 301.6,358.3 299,358.3 296.4,358.3 
						296.3,358.3 296.2,358.3 296.2,365.3 299.5,365.3 					"/>
					<polygon class="st18" points="314,365.3 312.6,358.3 307.1,358.3 307.1,365.3 310.7,365.3 					"/>
				</g>
			</g>
		</g>
	</g>
	<g>
		<circle cx="305.1" cy="171.3" r="3.3"/>
		<path d="M309.4,168c-0.5-1.7-2-1.7-3.4-1.5c-1.5,0.1-3,0.5-4.3,1.1c-1.3,0.8-2.2,2.2-3.5,3.4c-1.3,1.2-2.8,2-4.4,2.5l-0.1-0.2
			c1.5-0.7,2.8-1.7,3.8-2.9c1-1.2,1.8-2.8,3.3-3.9c0.7-0.6,1.5-1,2.4-1.3c0.9-0.3,1.8-0.4,2.7-0.4c1,0,1.9,0.2,2.8,0.7
			c0.4,0.3,0.8,0.7,0.9,1.2c0.2,0.5,0.1,1,0,1.4L309.4,168z"/>
		<path d="M310.4,162.5c-0.8-0.2-1.6-0.5-2.4-0.9c-0.7-0.3-1.3-0.8-2-1.2c-0.7-0.3-1.5-0.6-2.3-0.7c-0.8-0.2-1.6-0.2-2.5-0.2l0-0.2
			c0.8-0.3,1.7-0.5,2.6-0.5c0.9-0.1,1.8,0,2.7,0.3c0.9,0.1,1.8,0.5,2.5,1c0.7,0.6,1.3,1.4,1.5,2.3L310.4,162.5z"/>
		<path d="M307.7,173.5c-0.4,0.9-1.1,1.7-2.1,2.1c-0.5,0.2-1,0.3-1.5,0.2l-1.3-0.2c-0.8-0.1-1.7-0.1-2.5-0.1
			c-0.9,0.1-1.7,0.2-2.6,0.4l-0.1-0.2c0.8-0.4,1.6-0.8,2.4-1.1c0.9-0.3,1.8-0.5,2.7-0.5c0.5,0,0.9-0.1,1.3-0.1c0.4,0,0.7-0.1,1-0.1
			c0.7-0.1,1.5-0.3,2.5-0.5L307.7,173.5z"/>
		<path d="M312.3,172.5c0.1,1.1-0.2,2.2-0.9,3.1c-0.7,0.8-1.5,1.5-2.5,1.9c-0.9,0.5-1.9,0.9-2.9,1.1c-1,0.2-2,0.4-3,0.4l0-0.2
			c0.9-0.3,1.8-0.7,2.7-1.1c0.8-0.4,1.6-0.9,2.4-1.5c0.7-0.6,1.3-1.3,1.9-1.9l2.1-1.9L312.3,172.5z"/>
		<path d="M291.3,167c-0.7,1-1.5,2-2.4,2.8c-0.8,0.9-1.9,1.5-2.8,2.3c-0.9,0.8-1.7,1.7-2.5,2.6c-0.8,0.9-1.4,2-1.8,3.1l-0.2,0
			c0.2-1.2,0.6-2.4,1.2-3.6c0.6-1.1,1.3-2.1,2.2-3.1c0.7-1,1.6-1.9,2.6-2.7c1-0.7,2.2-1.3,3.5-1.6L291.3,167z"/>
		<path d="M337.9,182.5c-1-1.8-2.7-3-4.7-3.5c-2.2-0.7-4.6-1-6.9-0.9c-2.4,0-4.8,0.4-7.1,1c-2.4,0.5-4.6,1.6-6.6,3
			c1.8-1.7,3.9-3.1,6.3-4c2.3-1,4.8-1.6,7.3-2c2.6-0.4,5.2-0.4,7.8,0c1.4,0.2,2.7,0.7,4,1.4c1.4,0.7,2.5,1.7,3.4,3l0.1,0.1
			c0.6,0.9,0.4,2.2-0.5,2.8c-0.9,0.6-2.2,0.4-2.8-0.5c0,0,0,0,0,0C338,182.7,338,182.6,337.9,182.5z"/>
		<path d="M322.9,170.8c0.2,0.8-0.1,1.5-0.7,2.1c-0.5,0.4-1.1,0.7-1.8,0.8c-0.6,0.2-1.2,0.3-1.8,0.4c-0.6,0.1-1.2,0.1-1.9,0.1l0-0.2
			c1.1-0.5,2.1-1.1,3.1-1.7c0.5-0.3,0.8-0.8,1.3-1c0.5-0.2,0.9-0.3,1.6-0.7L322.9,170.8z"/>
		<path d="M305.3,189.2c0.4,2.1,0.4,4.3,0.1,6.5c-0.1,0.4-0.4,0.7-0.8,0.6c-0.2,0-0.3-0.1-0.4-0.3l-0.1-0.1c-0.3-0.4-0.7-0.8-1-1.2
			c-0.4-0.4-0.7-0.8-1.1-1.1l1.5-0.7c0.1,0.9,0,1.7-0.3,2.6c-0.2,0.8-0.6,1.5-0.9,2.2c-0.8,1.3-1.5,2.6-2.1,3.9l0,0.1
			c-0.1,0.3-0.5,0.5-0.8,0.3c-0.1-0.1-0.3-0.2-0.3-0.3c-0.7-1.4-1.4-2.9-1.9-4.4c1.1,1.2,2.1,2.5,3,3.8l-1.1,0.1
			c0.4-1.5,1-3,1.8-4.3c0.7-1.2,1-2.5,1-3.9l0,0c0-0.5,0.4-0.9,0.8-0.9c0.2,0,0.5,0.1,0.7,0.3c0.4,0.4,0.8,0.9,1.2,1.3
			c0.4,0.5,0.7,1,1,1.5l-1.3,0.3C304.5,193.3,304.9,191.3,305.3,189.2z"/>
		<path d="M291,196.2c-0.1,0.9-0.3,1.8-0.7,2.6l-1,2.3c-0.4,0.8-0.7,1.5-1,2.3l-1,2.3l0,0c-0.2,0.5-0.7,0.7-1.2,0.5
			c-0.3-0.1-0.5-0.5-0.5-0.8c0-1.4,0.2-2.7,0.6-4c0.4-1.3,1-2.5,1.8-3.6c-0.2,1.3-0.4,2.6-0.5,3.8c-0.1,1.2-0.2,2.5-0.1,3.7
			l-1.7-0.3c0.3-0.8,0.6-1.6,1-2.4c0.4-0.8,0.8-1.6,1.3-2.3c0.5-0.7,1-1.4,1.5-2.1C290.1,197.7,290.6,197,291,196.2z"/>
		<path d="M283.4,193.1c0.1,1.1,0,2.2-0.1,3.2c-0.1,1.1-0.3,2.1-0.5,3.2l-1.3-1c1-0.7,2-1.4,2.9-2.3c1-0.9,2.1-1.6,3.2-2.3
			c-0.6,1.2-1.3,2.3-2.1,3.3c-0.8,1.1-1.9,2.1-3.1,2.8c-0.4,0.2-1,0.1-1.2-0.3c-0.1-0.2-0.1-0.4-0.1-0.7c0.3-1,0.6-2,1-3
			C282.4,195,282.9,194.1,283.4,193.1z"/>
		<path d="M273,172.1c0.3,0.6,0.6,1.2,0.7,1.9c0.1,0.6,0.1,1.2,0.1,1.8l-1.6-0.6c0.4-0.4,0.8-0.7,1.2-1c0.5-0.3,1-0.4,1.6-0.4
			c-0.2,0.5-0.4,1-0.7,1.4c-0.2,0.4-0.5,0.8-0.8,1.1c-0.3,0.4-0.8,0.5-1.2,0.2c-0.2-0.2-0.4-0.4-0.4-0.7l0,0c0-0.6,0.1-1.3,0.2-1.9
			C272.3,173.3,272.6,172.6,273,172.1z"/>
		<path d="M276,189c0,1-0.2,2-0.7,2.9c-0.5,0.9-1.1,1.7-1.8,2.3l0,0c-0.4,0.3-0.9,0.3-1.3-0.1c-0.1-0.1-0.2-0.3-0.2-0.5
			c-0.1-0.8-0.1-1.5,0-2.3c0.1-0.8,0.3-1.6,0.6-2.3c0.3,0.7,0.6,1.4,0.8,2.2c0.2,0.7,0.3,1.4,0.5,2.1l-1.5-0.5
			c0.6-0.6,1.2-1.2,1.8-1.9C274.7,190.4,275.3,189.7,276,189z"/>
		<path d="M281.5,210c0.2,0.7,0.4,1.4,0.6,2c0.2,0.6,0.3,1.3,0.5,1.9l-1.1-0.6c0.8-0.5,1.5-1.1,2-1.8c0.7-0.9,1.5-1.7,2.4-2.4
			c-0.1,0.6-0.2,1.1-0.4,1.7c-0.2,0.5-0.4,1.1-0.6,1.6c-0.3,0.6-0.6,1.1-1,1.5c-0.5,0.5-1.1,0.9-1.7,1.1l-0.1,0
			c-0.4,0.1-0.9-0.1-1-0.5c0,0,0-0.1,0-0.1c-0.1-0.7-0.1-1.5,0-2.2C281,211.3,281.2,210.6,281.5,210z"/>
		<path d="M292,221.8c0.4,0.8,0.8,1.6,1.1,2.4c0.3,0.8,0.5,1.6,0.7,2.5l-1.5-0.4c0.7-0.9,1.3-1.8,1.8-2.7c0.5-1,1-2.1,1.4-3.2
			c0.4,1.2,0.4,2.5,0,3.7c-0.3,1.2-1,2.4-1.9,3.3l0,0.1c-0.3,0.4-0.9,0.4-1.2,0c-0.1-0.1-0.2-0.3-0.3-0.5c-0.1-0.8-0.2-1.7-0.2-2.6
			C291.8,223.5,291.8,222.7,292,221.8z"/>
		<path d="M294.5,433.3c0.4,0.8,0.8,1.6,1.1,2.4c0.3,0.8,0.5,1.6,0.7,2.5l-1.5-0.4c0.7-0.9,1.3-1.8,1.8-2.7c0.5-1,1-2.1,1.4-3.2
			c0.4,1.2,0.4,2.5,0,3.7c-0.3,1.2-1,2.4-1.9,3.3l0,0.1c-0.3,0.4-0.9,0.4-1.2,0c-0.1-0.1-0.2-0.3-0.3-0.5c-0.1-0.8-0.2-1.7-0.2-2.6
			C294.3,435,294.3,434.2,294.5,433.3z"/>
		<path d="M268.5,436.5c0.4,0.8,0.8,1.6,1.1,2.4c0.3,0.8,0.5,1.6,0.7,2.5l-1.5-0.4c0.7-0.9,1.3-1.8,1.8-2.7c0.5-1,1-2.1,1.4-3.2
			c0.4,1.2,0.4,2.5,0,3.7c-0.3,1.2-1,2.4-1.9,3.3l0,0.1c-0.3,0.4-0.9,0.4-1.2,0c-0.1-0.1-0.2-0.3-0.3-0.5c-0.1-0.8-0.2-1.7-0.2-2.6
			C268.3,438.3,268.3,437.4,268.5,436.5z"/>
		<path d="M272.1,223.7c-0.1,1.5-0.3,3-0.5,4.4c-0.2,1.4-0.4,2.9-0.6,4.3l-1.4-0.9c1.2-0.9,2.2-1.9,3-3.1c0.4-0.6,0.8-1.2,1.2-1.9
			c0.4-0.7,0.7-1.3,1.1-2c0,0.8-0.1,1.6-0.3,2.4c-0.2,0.8-0.5,1.6-0.8,2.3c-0.4,0.7-0.8,1.5-1.3,2.1c-0.5,0.6-1.2,1.2-1.8,1.7l0,0
			c-0.4,0.3-1,0.2-1.3-0.2c-0.1-0.2-0.2-0.4-0.2-0.6c0.2-1.5,0.5-3,1-4.4C270.7,226.3,271.4,225,272.1,223.7z"/>
		<path d="M306.4,442.6c-0.1,1.5-0.3,3-0.5,4.4c-0.2,1.4-0.4,2.9-0.6,4.3l-1.4-0.9c1.2-0.9,2.2-1.9,3-3.1c0.4-0.6,0.8-1.2,1.2-1.9
			c0.4-0.7,0.7-1.3,1.1-2c0,0.8-0.1,1.6-0.3,2.4c-0.2,0.8-0.5,1.6-0.8,2.3c-0.4,0.7-0.8,1.5-1.3,2.1c-0.5,0.6-1.2,1.2-1.8,1.7l0,0
			c-0.4,0.3-1,0.2-1.3-0.2c-0.1-0.2-0.2-0.4-0.2-0.6c0.2-1.5,0.5-3,1-4.4C305,445.2,305.6,443.9,306.4,442.6z"/>
		<path d="M304.8,244.5c0.6,0.5,1.2,1.1,1.6,1.8c0.4,0.6,0.8,1.3,1.2,2c0,0.1,0,0.1,0,0c-0.1-0.1-0.2-0.2-0.4-0.3
			c-0.5-0.1-0.5,0.1-0.5,0.1c0.1-0.1,0.2-0.2,0.3-0.3c0.2-0.2,0.5-0.5,0.7-0.7c0.5-0.6,0.9-1.2,1.2-1.9c0.4,0.8,0.4,1.7,0.1,2.6
			c-0.1,0.4-0.4,0.8-0.6,1.2c-0.2,0.2-0.3,0.4-0.5,0.5c-0.1,0.1-0.2,0.1-0.3,0.2c-0.5,0.2-1,0-1.3-0.4c-0.1-0.1-0.1-0.2-0.1-0.2
			c-0.3-0.7-0.6-1.4-0.8-2.2C304.9,246.1,304.8,245.3,304.8,244.5z"/>
		<path d="M280.5,429.6c0.6,0.5,1.2,1.1,1.6,1.8c0.4,0.6,0.8,1.3,1.2,2c0,0.1,0,0.1,0,0c-0.1-0.1-0.2-0.2-0.4-0.3
			c-0.5-0.1-0.5,0.1-0.5,0.1c0.1-0.1,0.2-0.2,0.3-0.3c0.2-0.2,0.5-0.5,0.7-0.7c0.5-0.6,0.9-1.2,1.2-1.9c0.4,0.8,0.4,1.7,0.1,2.6
			c-0.1,0.4-0.4,0.8-0.6,1.2c-0.2,0.2-0.3,0.4-0.5,0.5c-0.1,0.1-0.2,0.1-0.3,0.2c-0.5,0.2-1,0-1.3-0.4c-0.1-0.1-0.1-0.2-0.1-0.2
			c-0.3-0.7-0.6-1.4-0.8-2.2C280.6,431.2,280.5,430.4,280.5,429.6z"/>
		<path d="M274.4,248.3c0.3,0.8,0.5,1.6,0.6,2.4c0.1,0.8,0.2,1.6,0.2,2.4l-1.4-0.7c0.4-0.3,0.8-0.6,1.2-0.9c0.4-0.3,0.8-0.5,1.1-0.7
			c0.3-0.3,0.6-0.7,0.8-1.1c0.3-0.4,0.6-0.8,1-1.2c0,0.5,0,1.1-0.1,1.6c0,0.6-0.2,1.1-0.5,1.6c-0.3,0.5-0.7,0.9-1.2,1.2
			c-0.4,0.3-0.8,0.6-1.2,0.9l0,0c-0.4,0.3-1,0.2-1.2-0.2c-0.1-0.2-0.2-0.4-0.2-0.6c0-0.8,0.1-1.6,0.3-2.4
			C273.8,249.9,274.1,249.1,274.4,248.3z"/>
		<path d="M289,448.8c0.3,0.8,0.5,1.6,0.6,2.4c0.1,0.8,0.2,1.6,0.2,2.4l-1.4-0.7c0.4-0.3,0.8-0.6,1.2-0.9c0.4-0.3,0.8-0.5,1.1-0.7
			c0.3-0.3,0.6-0.7,0.8-1.1c0.3-0.4,0.6-0.8,1-1.2c0,0.5,0,1.1-0.1,1.6c0,0.6-0.2,1.1-0.5,1.6c-0.3,0.5-0.7,0.9-1.2,1.2
			c-0.4,0.3-0.8,0.6-1.2,0.9l0,0c-0.4,0.3-1,0.2-1.2-0.2c-0.1-0.2-0.2-0.4-0.2-0.6c0-0.8,0.1-1.6,0.3-2.4
			C288.4,450.3,288.6,449.5,289,448.8z"/>
		<path d="M289.1,242.9c0.2,0.9,0.5,1.7,0.9,2.6c0.3,0.8,0.7,1.5,1.2,2.2l-1.5,0c0.5-0.9,0.8-1.9,0.9-2.9c0.1-0.6,0.3-1.2,0.6-1.8
			c0.3-0.5,0.6-1.1,1-1.5c0,0.6-0.1,1.2-0.1,1.8c0,0.6,0,1.1,0,1.7c0,0.6-0.1,1.2-0.2,1.8c-0.1,0.7-0.4,1.3-0.8,1.9l0,0
			c-0.3,0.4-0.8,0.5-1.2,0.2c-0.1-0.1-0.2-0.2-0.3-0.3c-0.5-0.9-0.8-1.8-0.9-2.8C288.6,244.8,288.7,243.8,289.1,242.9z"/>
		<path d="M276.3,445c0.2,0.9,0.5,1.7,0.9,2.6c0.3,0.8,0.7,1.5,1.2,2.2l-1.5,0c0.5-0.9,0.8-1.9,0.9-2.9c0.1-0.6,0.3-1.2,0.6-1.8
			c0.3-0.5,0.6-1.1,1-1.5c0,0.6-0.1,1.2-0.1,1.8c0,0.6,0,1.1,0,1.7c0,0.6-0.1,1.2-0.2,1.8c-0.1,0.7-0.4,1.3-0.8,1.9l0,0
			c-0.3,0.4-0.8,0.5-1.2,0.2l0,0c-0.1-0.1-0.2-0.2-0.3-0.3c-0.5-0.9-0.8-1.8-0.9-2.8C275.7,446.9,275.9,445.9,276.3,445z"/>
	</g>
</g>
<title>Contea-di-Modica</title>
<g>
	<g>
		<g>
			
				<ellipse transform="matrix(0.3316 -0.9434 0.9434 0.3316 -284.0701 537.1959)" class="st5" cx="237.1" cy="469.1" rx="4.3" ry="5.8"/>
			
				<ellipse transform="matrix(0.3316 -0.9434 0.9434 0.3316 -281.1305 550.1864)" class="st5" cx="247.7" cy="473.5" rx="4.3" ry="5.8"/>
			
				<ellipse transform="matrix(0.3316 -0.9434 0.9434 0.3316 -276.8239 562.5512)" class="st5" cx="258.6" cy="476.6" rx="4.3" ry="5.8"/>
		</g>
		<path class="st22" d="M232.7,471.3c-0.9,3.5-1,7.1-0.2,10.6c2.6-1.5,4.5-4.3,5.5-8.3L232.7,471.3z"/>
		<path class="st22" d="M243.4,476.6c-0.9,3.5-1,7.1-0.2,10.6c2.6-1.5,4.5-4.3,5.5-8.3L243.4,476.6z"/>
		<path class="st22" d="M254.3,479.7c-0.9,3.5-1,7.1-0.2,10.6c2.6-1.5,4.5-4.3,5.5-8.3L254.3,479.7z"/>
	</g>
	<g>
		<g>
			
				<ellipse transform="matrix(0.9434 -0.3316 0.3316 0.9434 -136.7829 139.1214)" class="st5" cx="339.3" cy="470.4" rx="5.8" ry="4.3"/>
			
				<ellipse transform="matrix(0.9434 -0.3316 0.3316 0.9434 -138.8508 135.8438)" class="st5" cx="328.6" cy="474.8" rx="5.8" ry="4.3"/>
			
				<ellipse transform="matrix(0.9434 -0.3316 0.3316 0.9434 -140.509 132.4135)" class="st5" cx="317.7" cy="477.9" rx="5.8" ry="4.3"/>
		</g>
		<path class="st22" d="M343.6,472.5c0.9,3.5,1,7.1,0.2,10.6c-2.6-1.5-4.5-4.3-5.5-8.3L343.6,472.5z"/>
		<path class="st22" d="M332.9,477.9c0.9,3.5,1,7.1,0.2,10.6c-2.6-1.5-4.5-4.3-5.5-8.3L332.9,477.9z"/>
		<path class="st22" d="M322,480.9c0.9,3.5,1,7.1,0.2,10.6c-2.6-1.5-4.5-4.3-5.5-8.3L322,480.9z"/>
	</g>
</g>
</svg>
